solid OpenSCAD_Model
  facet normal 0.994522 0.104529 0
    outer loop
      vertex 26 0 2.5
      vertex 25.4318 5.4057 -2.5
      vertex 25.4318 5.4057 2.5
    endloop
  endfacet
  facet normal 0.994522 0.104529 0
    outer loop
      vertex 25.4318 5.4057 -2.5
      vertex 26 0 2.5
      vertex 26 0 -2.5
    endloop
  endfacet
  facet normal -0.994522 0.104529 0
    outer loop
      vertex -26 0 -2.5
      vertex -25.4318 5.4057 2.5
      vertex -25.4318 5.4057 -2.5
    endloop
  endfacet
  facet normal -0.994522 0.104529 0
    outer loop
      vertex -25.4318 5.4057 2.5
      vertex -26 0 -2.5
      vertex -26 0 2.5
    endloop
  endfacet
  facet normal 0 1 -0
    outer loop
      vertex 2.71774 25.8576 -2.5
      vertex -2.71774 25.8576 0
      vertex 2.71774 25.8576 0
    endloop
  endfacet
  facet normal 0 1 0
    outer loop
      vertex -2.71774 25.8576 0
      vertex 2.71774 25.8576 -2.5
      vertex -2.71774 25.8576 -2.5
    endloop
  endfacet
  facet normal 0 -1 0
    outer loop
      vertex -2.71774 -25.8576 -2.5
      vertex 2.71774 -25.8576 0
      vertex -2.71774 -25.8576 0
    endloop
  endfacet
  facet normal 0 -1 -0
    outer loop
      vertex 2.71774 -25.8576 0
      vertex -2.71774 -25.8576 -2.5
      vertex 2.71774 -25.8576 -2.5
    endloop
  endfacet
  facet normal 0.587785 0.809017 -0
    outer loop
      vertex 17.3974 19.3218 -2.5
      vertex 13 22.5167 2.5
      vertex 17.3974 19.3218 2.5
    endloop
  endfacet
  facet normal 0.587785 0.809017 0
    outer loop
      vertex 13 22.5167 2.5
      vertex 17.3974 19.3218 -2.5
      vertex 13 22.5167 -2.5
    endloop
  endfacet
  facet normal -0.587785 0.809017 0
    outer loop
      vertex -13 22.5167 -2.5
      vertex -17.3974 19.3218 2.5
      vertex -13 22.5167 2.5
    endloop
  endfacet
  facet normal -0.587785 0.809017 0
    outer loop
      vertex -17.3974 19.3218 2.5
      vertex -13 22.5167 -2.5
      vertex -17.3974 19.3218 -2.5
    endloop
  endfacet
  facet normal -0.406737 0.913545 0
    outer loop
      vertex -8.03444 24.7275 -2.5
      vertex -13 22.5167 2.5
      vertex -8.03444 24.7275 2.5
    endloop
  endfacet
  facet normal -0.406737 0.913545 0
    outer loop
      vertex -13 22.5167 2.5
      vertex -8.03444 24.7275 -2.5
      vertex -13 22.5167 -2.5
    endloop
  endfacet
  facet normal 0.951057 -0.309017 0
    outer loop
      vertex 23.7522 -10.5752 2.5
      vertex 25.4318 -5.4057 -2.5
      vertex 25.4318 -5.4057 2.5
    endloop
  endfacet
  facet normal 0.951057 -0.309017 0
    outer loop
      vertex 25.4318 -5.4057 -2.5
      vertex 23.7522 -10.5752 2.5
      vertex 23.7522 -10.5752 -2.5
    endloop
  endfacet
  facet normal 0.866025 0.5 0
    outer loop
      vertex 23.7522 10.5752 2.5
      vertex 21.0344 15.2824 -2.5
      vertex 21.0344 15.2824 2.5
    endloop
  endfacet
  facet normal 0.866025 0.5 0
    outer loop
      vertex 21.0344 15.2824 -2.5
      vertex 23.7522 10.5752 2.5
      vertex 23.7522 10.5752 -2.5
    endloop
  endfacet
  facet normal 0.951057 0.309017 0
    outer loop
      vertex 25.4318 5.4057 2.5
      vertex 23.7522 10.5752 -2.5
      vertex 23.7522 10.5752 2.5
    endloop
  endfacet
  facet normal 0.951057 0.309017 0
    outer loop
      vertex 23.7522 10.5752 -2.5
      vertex 25.4318 5.4057 2.5
      vertex 25.4318 5.4057 -2.5
    endloop
  endfacet
  facet normal 0.743145 0.66913 0
    outer loop
      vertex 21.0344 15.2824 2.5
      vertex 17.3974 19.3218 -2.5
      vertex 17.3974 19.3218 2.5
    endloop
  endfacet
  facet normal 0.743145 0.66913 0
    outer loop
      vertex 17.3974 19.3218 -2.5
      vertex 21.0344 15.2824 2.5
      vertex 21.0344 15.2824 -2.5
    endloop
  endfacet
  facet normal 0.207912 0.978148 0
    outer loop
      vertex 8.03444 24.7275 2.5
      vertex 5 25.3725 0
      vertex 5 25.3725 2.5
    endloop
  endfacet
  facet normal 0.207912 0.978148 -0
    outer loop
      vertex 8.03444 24.7275 -2.5
      vertex 5 25.3725 0
      vertex 8.03444 24.7275 2.5
    endloop
  endfacet
  facet normal 0.207912 0.978148 -1.41385e-07
    outer loop
      vertex 2.71774 25.8576 -2.5
      vertex 5 25.3725 0
      vertex 8.03444 24.7275 -2.5
    endloop
  endfacet
  facet normal 0.207912 0.978148 0
    outer loop
      vertex 5 25.3725 0
      vertex 2.71774 25.8576 -2.5
      vertex 2.71774 25.8576 0
    endloop
  endfacet
  facet normal 0.406737 0.913545 -0
    outer loop
      vertex 13 22.5167 -2.5
      vertex 8.03444 24.7275 2.5
      vertex 13 22.5167 2.5
    endloop
  endfacet
  facet normal 0.406737 0.913545 0
    outer loop
      vertex 8.03444 24.7275 2.5
      vertex 13 22.5167 -2.5
      vertex 8.03444 24.7275 -2.5
    endloop
  endfacet
  facet normal -0.866025 0.5 0
    outer loop
      vertex -23.7522 10.5752 -2.5
      vertex -21.0344 15.2824 2.5
      vertex -21.0344 15.2824 -2.5
    endloop
  endfacet
  facet normal -0.866025 0.5 0
    outer loop
      vertex -21.0344 15.2824 2.5
      vertex -23.7522 10.5752 -2.5
      vertex -23.7522 10.5752 2.5
    endloop
  endfacet
  facet normal -0.743145 0.66913 0
    outer loop
      vertex -21.0344 15.2824 -2.5
      vertex -17.3974 19.3218 2.5
      vertex -17.3974 19.3218 -2.5
    endloop
  endfacet
  facet normal -0.743145 0.66913 0
    outer loop
      vertex -17.3974 19.3218 2.5
      vertex -21.0344 15.2824 -2.5
      vertex -21.0344 15.2824 2.5
    endloop
  endfacet
  facet normal -0.951057 0.309017 0
    outer loop
      vertex -25.4318 5.4057 -2.5
      vertex -23.7522 10.5752 2.5
      vertex -23.7522 10.5752 -2.5
    endloop
  endfacet
  facet normal -0.951057 0.309017 0
    outer loop
      vertex -23.7522 10.5752 2.5
      vertex -25.4318 5.4057 -2.5
      vertex -25.4318 5.4057 2.5
    endloop
  endfacet
  facet normal -0 0 1
    outer loop
      vertex -8.03444 24.7275 2.5
      vertex -5 21 2.5
      vertex -5 25.3725 2.5
    endloop
  endfacet
  facet normal 0 0 1
    outer loop
      vertex -17.3974 19.3218 2.5
      vertex -5 21 2.5
      vertex -13 22.5167 2.5
    endloop
  endfacet
  facet normal 0 0 1
    outer loop
      vertex -5 21 2.5
      vertex -8.03444 24.7275 2.5
      vertex -13 22.5167 2.5
    endloop
  endfacet
  facet normal 0 0 1
    outer loop
      vertex -21.0344 15.2824 2.5
      vertex -5 21 2.5
      vertex -17.3974 19.3218 2.5
    endloop
  endfacet
  facet normal 0 0 1
    outer loop
      vertex -23.7522 10.5752 2.5
      vertex -5 21 2.5
      vertex -21.0344 15.2824 2.5
    endloop
  endfacet
  facet normal 0 0 1
    outer loop
      vertex -5 -21 2.5
      vertex -8.03444 -24.7275 2.5
      vertex -5 -25.3725 2.5
    endloop
  endfacet
  facet normal 0 -0 1
    outer loop
      vertex -13 -22.5167 2.5
      vertex -5 -21 2.5
      vertex -17.3974 -19.3218 2.5
    endloop
  endfacet
  facet normal 0 -0 1
    outer loop
      vertex -8.03444 -24.7275 2.5
      vertex -5 -21 2.5
      vertex -13 -22.5167 2.5
    endloop
  endfacet
  facet normal 0 0 1
    outer loop
      vertex -25.4318 5.4057 2.5
      vertex -5 21 2.5
      vertex -23.7522 10.5752 2.5
    endloop
  endfacet
  facet normal 0 0 1
    outer loop
      vertex -5 -21 2.5
      vertex -21.0344 -15.2824 2.5
      vertex -17.3974 -19.3218 2.5
    endloop
  endfacet
  facet normal 0 0 1
    outer loop
      vertex -26 0 2.5
      vertex -5 21 2.5
      vertex -25.4318 5.4057 2.5
    endloop
  endfacet
  facet normal 0 0 1
    outer loop
      vertex -5 -21 2.5
      vertex -23.7522 -10.5752 2.5
      vertex -21.0344 -15.2824 2.5
    endloop
  endfacet
  facet normal 0 0 1
    outer loop
      vertex -5 21 2.5
      vertex -26 0 2.5
      vertex -5 -21 2.5
    endloop
  endfacet
  facet normal 0 0 1
    outer loop
      vertex -5 -21 2.5
      vertex -25.4318 -5.4057 2.5
      vertex -23.7522 -10.5752 2.5
    endloop
  endfacet
  facet normal 0 0 1
    outer loop
      vertex -5 -21 2.5
      vertex -26 0 2.5
      vertex -25.4318 -5.4057 2.5
    endloop
  endfacet
  facet normal -0 0 1
    outer loop
      vertex -5 21 2.5
      vertex 5 -21 2.5
      vertex 5 21 2.5
    endloop
  endfacet
  facet normal 0 0 1
    outer loop
      vertex 5 -21 2.5
      vertex -5 21 2.5
      vertex -5 -21 2.5
    endloop
  endfacet
  facet normal 0 0 1
    outer loop
      vertex 5 21 2.5
      vertex 26 0 2.5
      vertex 25.4318 5.4057 2.5
    endloop
  endfacet
  facet normal 0 0 1
    outer loop
      vertex 5 21 2.5
      vertex 25.4318 5.4057 2.5
      vertex 23.7522 10.5752 2.5
    endloop
  endfacet
  facet normal 0 0 1
    outer loop
      vertex 5 -21 2.5
      vertex 26 0 2.5
      vertex 5 21 2.5
    endloop
  endfacet
  facet normal 0 0 1
    outer loop
      vertex 5 21 2.5
      vertex 23.7522 10.5752 2.5
      vertex 21.0344 15.2824 2.5
    endloop
  endfacet
  facet normal 0 0 1
    outer loop
      vertex 26 0 2.5
      vertex 5 -21 2.5
      vertex 25.4318 -5.4057 2.5
    endloop
  endfacet
  facet normal 0 0 1
    outer loop
      vertex 5 21 2.5
      vertex 21.0344 15.2824 2.5
      vertex 17.3974 19.3218 2.5
    endloop
  endfacet
  facet normal 0 0 1
    outer loop
      vertex 25.4318 -5.4057 2.5
      vertex 5 -21 2.5
      vertex 23.7522 -10.5752 2.5
    endloop
  endfacet
  facet normal -0 0 1
    outer loop
      vertex 5 21 2.5
      vertex 17.3974 19.3218 2.5
      vertex 13 22.5167 2.5
    endloop
  endfacet
  facet normal 0 0 1
    outer loop
      vertex 23.7522 -10.5752 2.5
      vertex 5 -21 2.5
      vertex 21.0344 -15.2824 2.5
    endloop
  endfacet
  facet normal 0 0 1
    outer loop
      vertex 5 21 2.5
      vertex 13 22.5167 2.5
      vertex 8.03444 24.7275 2.5
    endloop
  endfacet
  facet normal 0 0 1
    outer loop
      vertex 21.0344 -15.2824 2.5
      vertex 5 -21 2.5
      vertex 17.3974 -19.3218 2.5
    endloop
  endfacet
  facet normal 0 0 1
    outer loop
      vertex 5 21 2.5
      vertex 8.03444 24.7275 2.5
      vertex 5 25.3725 2.5
    endloop
  endfacet
  facet normal 0 0 1
    outer loop
      vertex 17.3974 -19.3218 2.5
      vertex 5 -21 2.5
      vertex 13 -22.5167 2.5
    endloop
  endfacet
  facet normal 0 0 1
    outer loop
      vertex 13 -22.5167 2.5
      vertex 5 -21 2.5
      vertex 8.03444 -24.7275 2.5
    endloop
  endfacet
  facet normal 0 0 1
    outer loop
      vertex 8.03444 -24.7275 2.5
      vertex 5 -21 2.5
      vertex 5 -25.3725 2.5
    endloop
  endfacet
  facet normal -0.207912 0.978148 0
    outer loop
      vertex -2.71774 25.8576 0
      vertex -2.71774 25.8576 -2.5
      vertex -5 25.3725 0
    endloop
  endfacet
  facet normal -0.207912 0.978148 0
    outer loop
      vertex -5 25.3725 0
      vertex -8.03444 24.7275 2.5
      vertex -5 25.3725 2.5
    endloop
  endfacet
  facet normal -0.207912 0.978148 -1.41385e-07
    outer loop
      vertex -8.03444 24.7275 -2.5
      vertex -5 25.3725 0
      vertex -2.71774 25.8576 -2.5
    endloop
  endfacet
  facet normal -0.207912 0.978148 0
    outer loop
      vertex -5 25.3725 0
      vertex -8.03444 24.7275 -2.5
      vertex -8.03444 24.7275 2.5
    endloop
  endfacet
  facet normal 0.994522 -0.104529 0
    outer loop
      vertex 25.4318 -5.4057 2.5
      vertex 26 0 -2.5
      vertex 26 0 2.5
    endloop
  endfacet
  facet normal 0.994522 -0.104529 0
    outer loop
      vertex 26 0 -2.5
      vertex 25.4318 -5.4057 2.5
      vertex 25.4318 -5.4057 -2.5
    endloop
  endfacet
  facet normal 0 0 -1
    outer loop
      vertex 25.4318 -5.4057 -2.5
      vertex 25.4318 5.4057 -2.5
      vertex 26 0 -2.5
    endloop
  endfacet
  facet normal 0 0 -1
    outer loop
      vertex 23.7522 -10.5752 -2.5
      vertex 25.4318 5.4057 -2.5
      vertex 25.4318 -5.4057 -2.5
    endloop
  endfacet
  facet normal 0 0 -1
    outer loop
      vertex 23.7522 -10.5752 -2.5
      vertex 23.7522 10.5752 -2.5
      vertex 25.4318 5.4057 -2.5
    endloop
  endfacet
  facet normal 0 0 -1
    outer loop
      vertex 21.0344 -15.2824 -2.5
      vertex 23.7522 10.5752 -2.5
      vertex 23.7522 -10.5752 -2.5
    endloop
  endfacet
  facet normal 0 0 -1
    outer loop
      vertex 21.0344 -15.2824 -2.5
      vertex 21.0344 15.2824 -2.5
      vertex 23.7522 10.5752 -2.5
    endloop
  endfacet
  facet normal 0 0 -1
    outer loop
      vertex 17.3974 -19.3218 -2.5
      vertex 21.0344 15.2824 -2.5
      vertex 21.0344 -15.2824 -2.5
    endloop
  endfacet
  facet normal 0 0 -1
    outer loop
      vertex 17.3974 -19.3218 -2.5
      vertex 17.3974 19.3218 -2.5
      vertex 21.0344 15.2824 -2.5
    endloop
  endfacet
  facet normal 0 0 -1
    outer loop
      vertex 13 -22.5167 -2.5
      vertex 17.3974 19.3218 -2.5
      vertex 17.3974 -19.3218 -2.5
    endloop
  endfacet
  facet normal 0 0 -1
    outer loop
      vertex 13 -22.5167 -2.5
      vertex 13 22.5167 -2.5
      vertex 17.3974 19.3218 -2.5
    endloop
  endfacet
  facet normal 0 0 -1
    outer loop
      vertex 8.03444 -24.7275 -2.5
      vertex 13 22.5167 -2.5
      vertex 13 -22.5167 -2.5
    endloop
  endfacet
  facet normal 0 0 -1
    outer loop
      vertex 8.03444 -24.7275 -2.5
      vertex 8.03444 24.7275 -2.5
      vertex 13 22.5167 -2.5
    endloop
  endfacet
  facet normal 0 0 -1
    outer loop
      vertex 2.71774 -25.8576 -2.5
      vertex 8.03444 24.7275 -2.5
      vertex 8.03444 -24.7275 -2.5
    endloop
  endfacet
  facet normal 0 0 -1
    outer loop
      vertex 2.71774 -25.8576 -2.5
      vertex 2.71774 25.8576 -2.5
      vertex 8.03444 24.7275 -2.5
    endloop
  endfacet
  facet normal 0 0 -1
    outer loop
      vertex -2.71774 -25.8576 -2.5
      vertex 2.71774 25.8576 -2.5
      vertex 2.71774 -25.8576 -2.5
    endloop
  endfacet
  facet normal 0 0 -1
    outer loop
      vertex -2.71774 -25.8576 -2.5
      vertex -2.71774 25.8576 -2.5
      vertex 2.71774 25.8576 -2.5
    endloop
  endfacet
  facet normal 0 0 -1
    outer loop
      vertex -8.03444 -24.7275 -2.5
      vertex -2.71774 25.8576 -2.5
      vertex -2.71774 -25.8576 -2.5
    endloop
  endfacet
  facet normal 0 0 -1
    outer loop
      vertex -8.03444 -24.7275 -2.5
      vertex -8.03444 24.7275 -2.5
      vertex -2.71774 25.8576 -2.5
    endloop
  endfacet
  facet normal 0 0 -1
    outer loop
      vertex -8.03444 -24.7275 -2.5
      vertex -13 22.5167 -2.5
      vertex -8.03444 24.7275 -2.5
    endloop
  endfacet
  facet normal 0 0 -1
    outer loop
      vertex -13 -22.5167 -2.5
      vertex -13 22.5167 -2.5
      vertex -8.03444 -24.7275 -2.5
    endloop
  endfacet
  facet normal 0 0 -1
    outer loop
      vertex -17.3974 -19.3218 -2.5
      vertex -13 22.5167 -2.5
      vertex -13 -22.5167 -2.5
    endloop
  endfacet
  facet normal 0 0 -1
    outer loop
      vertex -17.3974 -19.3218 -2.5
      vertex -17.3974 19.3218 -2.5
      vertex -13 22.5167 -2.5
    endloop
  endfacet
  facet normal 0 0 -1
    outer loop
      vertex -21.0344 -15.2824 -2.5
      vertex -17.3974 19.3218 -2.5
      vertex -17.3974 -19.3218 -2.5
    endloop
  endfacet
  facet normal 0 0 -1
    outer loop
      vertex -21.0344 -15.2824 -2.5
      vertex -21.0344 15.2824 -2.5
      vertex -17.3974 19.3218 -2.5
    endloop
  endfacet
  facet normal 0 0 -1
    outer loop
      vertex -23.7522 -10.5752 -2.5
      vertex -21.0344 15.2824 -2.5
      vertex -21.0344 -15.2824 -2.5
    endloop
  endfacet
  facet normal 0 0 -1
    outer loop
      vertex -23.7522 -10.5752 -2.5
      vertex -23.7522 10.5752 -2.5
      vertex -21.0344 15.2824 -2.5
    endloop
  endfacet
  facet normal 0 0 -1
    outer loop
      vertex -25.4318 -5.4057 -2.5
      vertex -23.7522 10.5752 -2.5
      vertex -23.7522 -10.5752 -2.5
    endloop
  endfacet
  facet normal 0 0 -1
    outer loop
      vertex -25.4318 -5.4057 -2.5
      vertex -25.4318 5.4057 -2.5
      vertex -23.7522 10.5752 -2.5
    endloop
  endfacet
  facet normal 0 -0 -1
    outer loop
      vertex -25.4318 5.4057 -2.5
      vertex -25.4318 -5.4057 -2.5
      vertex -26 0 -2.5
    endloop
  endfacet
  facet normal 0.866025 -0.5 0
    outer loop
      vertex 21.0344 -15.2824 2.5
      vertex 23.7522 -10.5752 -2.5
      vertex 23.7522 -10.5752 2.5
    endloop
  endfacet
  facet normal 0.866025 -0.5 0
    outer loop
      vertex 23.7522 -10.5752 -2.5
      vertex 21.0344 -15.2824 2.5
      vertex 21.0344 -15.2824 -2.5
    endloop
  endfacet
  facet normal -0.866025 -0.5 0
    outer loop
      vertex -21.0344 -15.2824 -2.5
      vertex -23.7522 -10.5752 2.5
      vertex -23.7522 -10.5752 -2.5
    endloop
  endfacet
  facet normal -0.866025 -0.5 0
    outer loop
      vertex -23.7522 -10.5752 2.5
      vertex -21.0344 -15.2824 -2.5
      vertex -21.0344 -15.2824 2.5
    endloop
  endfacet
  facet normal -0.743145 -0.66913 0
    outer loop
      vertex -17.3974 -19.3218 -2.5
      vertex -21.0344 -15.2824 2.5
      vertex -21.0344 -15.2824 -2.5
    endloop
  endfacet
  facet normal -0.743145 -0.66913 0
    outer loop
      vertex -21.0344 -15.2824 2.5
      vertex -17.3974 -19.3218 -2.5
      vertex -17.3974 -19.3218 2.5
    endloop
  endfacet
  facet normal 0.587785 -0.809017 0
    outer loop
      vertex 13 -22.5167 -2.5
      vertex 17.3974 -19.3218 2.5
      vertex 13 -22.5167 2.5
    endloop
  endfacet
  facet normal 0.587785 -0.809017 0
    outer loop
      vertex 17.3974 -19.3218 2.5
      vertex 13 -22.5167 -2.5
      vertex 17.3974 -19.3218 -2.5
    endloop
  endfacet
  facet normal -0.207912 -0.978148 0
    outer loop
      vertex -8.03444 -24.7275 2.5
      vertex -5 -25.3725 0
      vertex -5 -25.3725 2.5
    endloop
  endfacet
  facet normal -0.207912 -0.978148 0
    outer loop
      vertex -8.03444 -24.7275 -2.5
      vertex -5 -25.3725 0
      vertex -8.03444 -24.7275 2.5
    endloop
  endfacet
  facet normal -0.207912 -0.978148 -1.41385e-07
    outer loop
      vertex -2.71774 -25.8576 -2.5
      vertex -5 -25.3725 0
      vertex -8.03444 -24.7275 -2.5
    endloop
  endfacet
  facet normal -0.207912 -0.978148 0
    outer loop
      vertex -5 -25.3725 0
      vertex -2.71774 -25.8576 -2.5
      vertex -2.71774 -25.8576 0
    endloop
  endfacet
  facet normal -0.951057 -0.309017 0
    outer loop
      vertex -23.7522 -10.5752 -2.5
      vertex -25.4318 -5.4057 2.5
      vertex -25.4318 -5.4057 -2.5
    endloop
  endfacet
  facet normal -0.951057 -0.309017 0
    outer loop
      vertex -25.4318 -5.4057 2.5
      vertex -23.7522 -10.5752 -2.5
      vertex -23.7522 -10.5752 2.5
    endloop
  endfacet
  facet normal -0.994522 -0.104529 0
    outer loop
      vertex -25.4318 -5.4057 -2.5
      vertex -26 0 2.5
      vertex -26 0 -2.5
    endloop
  endfacet
  facet normal -0.994522 -0.104529 0
    outer loop
      vertex -26 0 2.5
      vertex -25.4318 -5.4057 -2.5
      vertex -25.4318 -5.4057 2.5
    endloop
  endfacet
  facet normal 0.406737 -0.913545 0
    outer loop
      vertex 8.03444 -24.7275 -2.5
      vertex 13 -22.5167 2.5
      vertex 8.03444 -24.7275 2.5
    endloop
  endfacet
  facet normal 0.406737 -0.913545 0
    outer loop
      vertex 13 -22.5167 2.5
      vertex 8.03444 -24.7275 -2.5
      vertex 13 -22.5167 -2.5
    endloop
  endfacet
  facet normal 0.207912 -0.978148 0
    outer loop
      vertex 2.71774 -25.8576 0
      vertex 2.71774 -25.8576 -2.5
      vertex 5 -25.3725 0
    endloop
  endfacet
  facet normal 0.207912 -0.978148 0
    outer loop
      vertex 5 -25.3725 0
      vertex 8.03444 -24.7275 2.5
      vertex 5 -25.3725 2.5
    endloop
  endfacet
  facet normal 0.207912 -0.978148 -1.41385e-07
    outer loop
      vertex 8.03444 -24.7275 -2.5
      vertex 5 -25.3725 0
      vertex 2.71774 -25.8576 -2.5
    endloop
  endfacet
  facet normal 0.207912 -0.978148 0
    outer loop
      vertex 5 -25.3725 0
      vertex 8.03444 -24.7275 -2.5
      vertex 8.03444 -24.7275 2.5
    endloop
  endfacet
  facet normal 0.743145 -0.66913 0
    outer loop
      vertex 17.3974 -19.3218 2.5
      vertex 21.0344 -15.2824 -2.5
      vertex 21.0344 -15.2824 2.5
    endloop
  endfacet
  facet normal 0.743145 -0.66913 0
    outer loop
      vertex 21.0344 -15.2824 -2.5
      vertex 17.3974 -19.3218 2.5
      vertex 17.3974 -19.3218 -2.5
    endloop
  endfacet
  facet normal -0.406737 -0.913545 0
    outer loop
      vertex -13 -22.5167 -2.5
      vertex -8.03444 -24.7275 2.5
      vertex -13 -22.5167 2.5
    endloop
  endfacet
  facet normal -0.406737 -0.913545 -0
    outer loop
      vertex -8.03444 -24.7275 2.5
      vertex -13 -22.5167 -2.5
      vertex -8.03444 -24.7275 -2.5
    endloop
  endfacet
  facet normal -0.587785 -0.809017 0
    outer loop
      vertex -17.3974 -19.3218 -2.5
      vertex -13 -22.5167 2.5
      vertex -17.3974 -19.3218 2.5
    endloop
  endfacet
  facet normal -0.587785 -0.809017 -0
    outer loop
      vertex -13 -22.5167 2.5
      vertex -17.3974 -19.3218 -2.5
      vertex -13 -22.5167 -2.5
    endloop
  endfacet
  facet normal -1 0 0
    outer loop
      vertex -5 25.3725 2.5
      vertex -5 26 0
      vertex -5 25.3725 0
    endloop
  endfacet
  facet normal -1 0 0
    outer loop
      vertex -5 26 0
      vertex -5 25.3725 2.5
      vertex -5 26 75
    endloop
  endfacet
  facet normal -1 0 0
    outer loop
      vertex -5 21 2.5
      vertex -5 26 75
      vertex -5 25.3725 2.5
    endloop
  endfacet
  facet normal -1 -0 0
    outer loop
      vertex -5 26 75
      vertex -5 21 2.5
      vertex -5 21 75
    endloop
  endfacet
  facet normal -0 0 1
    outer loop
      vertex -5 26 75
      vertex 5 21 75
      vertex 5 26 75
    endloop
  endfacet
  facet normal 0 0 1
    outer loop
      vertex 5 21 75
      vertex -5 26 75
      vertex -5 21 75
    endloop
  endfacet
  facet normal 1 0 0
    outer loop
      vertex 5 26 75
      vertex 5 25.3725 2.5
      vertex 5 26 0
    endloop
  endfacet
  facet normal 1 -0 0
    outer loop
      vertex 5 21 75
      vertex 5 25.3725 2.5
      vertex 5 26 75
    endloop
  endfacet
  facet normal 1 0 0
    outer loop
      vertex 5 25.3725 2.5
      vertex 5 21 75
      vertex 5 21 2.5
    endloop
  endfacet
  facet normal 1 0 0
    outer loop
      vertex 5 26 0
      vertex 5 25.3725 2.5
      vertex 5 25.3725 0
    endloop
  endfacet
  facet normal 0 0 -1
    outer loop
      vertex 2.71774 25.8576 0
      vertex 5 26 0
      vertex 5 25.3725 0
    endloop
  endfacet
  facet normal 0 0 -1
    outer loop
      vertex -2.71774 25.8576 0
      vertex 5 26 0
      vertex 2.71774 25.8576 0
    endloop
  endfacet
  facet normal 0 0 -1
    outer loop
      vertex -2.71774 25.8576 0
      vertex -5 26 0
      vertex 5 26 0
    endloop
  endfacet
  facet normal 0 0 -1
    outer loop
      vertex -5 26 0
      vertex -2.71774 25.8576 0
      vertex -5 25.3725 0
    endloop
  endfacet
  facet normal 0 -1 0
    outer loop
      vertex -5 21 75
      vertex 0 21 56.1
      vertex 5 21 75
    endloop
  endfacet
  facet normal 0 -1 0
    outer loop
      vertex -5 21 75
      vertex -1.8 21 55.6177
      vertex 0 21 56.1
    endloop
  endfacet
  facet normal 0 -1 0
    outer loop
      vertex -5 21 75
      vertex -3.11769 21 54.3
      vertex -1.8 21 55.6177
    endloop
  endfacet
  facet normal 0 -1 0
    outer loop
      vertex -5 21 75
      vertex -3.25756 21 53.778
      vertex -3.11769 21 54.3
    endloop
  endfacet
  facet normal 0 -1 0
    outer loop
      vertex -5 21 75
      vertex -3.6 21 52.5
      vertex -3.25756 21 53.778
    endloop
  endfacet
  facet normal 0 -1 0
    outer loop
      vertex -5 21 2.5
      vertex -3.46013 21 51.978
      vertex -3.6 21 52.5
    endloop
  endfacet
  facet normal 0 -1 -0
    outer loop
      vertex -1.8 21 49.3823
      vertex -5 21 2.5
      vertex 0 21 48.9
    endloop
  endfacet
  facet normal 0 -1 -0
    outer loop
      vertex -3.11769 21 50.7
      vertex -5 21 2.5
      vertex -1.8 21 49.3823
    endloop
  endfacet
  facet normal 0 -1 -0
    outer loop
      vertex -3.46013 21 51.978
      vertex -5 21 2.5
      vertex -3.11769 21 50.7
    endloop
  endfacet
  facet normal 0 -1 0
    outer loop
      vertex -5 21 2.5
      vertex -3.6 21 52.5
      vertex -5 21 75
    endloop
  endfacet
  facet normal 0 -1 0
    outer loop
      vertex 1.8 21 55.6177
      vertex 5 21 75
      vertex 0 21 56.1
    endloop
  endfacet
  facet normal 0 -1 0
    outer loop
      vertex 3.11769 21 54.3
      vertex 5 21 75
      vertex 1.8 21 55.6177
    endloop
  endfacet
  facet normal 0 -1 0
    outer loop
      vertex 3.25756 21 53.778
      vertex 5 21 75
      vertex 3.11769 21 54.3
    endloop
  endfacet
  facet normal 0 -1 0
    outer loop
      vertex 3.6 21 52.5
      vertex 5 21 75
      vertex 3.25756 21 53.778
    endloop
  endfacet
  facet normal 0 -1 0
    outer loop
      vertex 5 21 2.5
      vertex 3.46013 21 51.978
      vertex 3.11769 21 50.7
    endloop
  endfacet
  facet normal 0 -1 0
    outer loop
      vertex 5 21 2.5
      vertex 0 21 48.9
      vertex -5 21 2.5
    endloop
  endfacet
  facet normal 0 -1 0
    outer loop
      vertex 0 21 48.9
      vertex 5 21 2.5
      vertex 1.8 21 49.3823
    endloop
  endfacet
  facet normal 0 -1 0
    outer loop
      vertex 1.8 21 49.3823
      vertex 5 21 2.5
      vertex 3.11769 21 50.7
    endloop
  endfacet
  facet normal 0 -1 0
    outer loop
      vertex 3.6 21 52.5
      vertex 5 21 2.5
      vertex 5 21 75
    endloop
  endfacet
  facet normal 0 -1 0
    outer loop
      vertex 3.46013 21 51.978
      vertex 5 21 2.5
      vertex 3.6 21 52.5
    endloop
  endfacet
  facet normal 0 1 0
    outer loop
      vertex 5 26 75
      vertex 0 26 56.1
      vertex -5 26 75
    endloop
  endfacet
  facet normal 0 1 0
    outer loop
      vertex 5 26 75
      vertex 1.8 26 55.6177
      vertex 0 26 56.1
    endloop
  endfacet
  facet normal 0 1 0
    outer loop
      vertex 5 26 75
      vertex 3.11769 26 54.3
      vertex 1.8 26 55.6177
    endloop
  endfacet
  facet normal 0 1 0
    outer loop
      vertex 5 26 75
      vertex 3.23345 26 53.868
      vertex 3.11769 26 54.3
    endloop
  endfacet
  facet normal 0 1 0
    outer loop
      vertex 5 26 75
      vertex 3.6 26 52.5
      vertex 3.23345 26 53.868
    endloop
  endfacet
  facet normal 0 1 0
    outer loop
      vertex 5 26 0
      vertex 3.48425 26 52.068
      vertex 3.6 26 52.5
    endloop
  endfacet
  facet normal 0 1 0
    outer loop
      vertex 1.8 26 49.3823
      vertex 5 26 0
      vertex 0 26 48.9
    endloop
  endfacet
  facet normal 0 1 0
    outer loop
      vertex 3.11769 26 50.7
      vertex 5 26 0
      vertex 1.8 26 49.3823
    endloop
  endfacet
  facet normal 0 1 0
    outer loop
      vertex 3.48425 26 52.068
      vertex 5 26 0
      vertex 3.11769 26 50.7
    endloop
  endfacet
  facet normal 0 1 -0
    outer loop
      vertex 5 26 0
      vertex 3.6 26 52.5
      vertex 5 26 75
    endloop
  endfacet
  facet normal 0 1 -0
    outer loop
      vertex -1.8 26 55.6177
      vertex -5 26 75
      vertex 0 26 56.1
    endloop
  endfacet
  facet normal 0 1 -0
    outer loop
      vertex -3.11769 26 54.3
      vertex -5 26 75
      vertex -1.8 26 55.6177
    endloop
  endfacet
  facet normal 0 1 -0
    outer loop
      vertex -3.23345 26 53.868
      vertex -5 26 75
      vertex -3.11769 26 54.3
    endloop
  endfacet
  facet normal 0 1 -0
    outer loop
      vertex -3.6 26 52.5
      vertex -5 26 75
      vertex -3.23345 26 53.868
    endloop
  endfacet
  facet normal 0 1 0
    outer loop
      vertex -5 26 0
      vertex -3.48425 26 52.068
      vertex -3.11769 26 50.7
    endloop
  endfacet
  facet normal 0 1 0
    outer loop
      vertex -5 26 0
      vertex 0 26 48.9
      vertex 5 26 0
    endloop
  endfacet
  facet normal 0 1 0
    outer loop
      vertex 0 26 48.9
      vertex -5 26 0
      vertex -1.8 26 49.3823
    endloop
  endfacet
  facet normal 0 1 0
    outer loop
      vertex -1.8 26 49.3823
      vertex -5 26 0
      vertex -3.11769 26 50.7
    endloop
  endfacet
  facet normal 0 1 0
    outer loop
      vertex -3.6 26 52.5
      vertex -5 26 0
      vertex -5 26 75
    endloop
  endfacet
  facet normal 0 1 0
    outer loop
      vertex -3.48425 26 52.068
      vertex -5 26 0
      vertex -3.6 26 52.5
    endloop
  endfacet
  facet normal -1 0 0
    outer loop
      vertex -5 -25.3725 0
      vertex -5 -26 0
      vertex -5 -25.3725 2.5
    endloop
  endfacet
  facet normal -1 0 0
    outer loop
      vertex -5 -25.3725 2.5
      vertex -5 -21 75
      vertex -5 -21 2.5
    endloop
  endfacet
  facet normal -1 0 0
    outer loop
      vertex -5 -26 75
      vertex -5 -25.3725 2.5
      vertex -5 -26 0
    endloop
  endfacet
  facet normal -1 0 0
    outer loop
      vertex -5 -25.3725 2.5
      vertex -5 -26 75
      vertex -5 -21 75
    endloop
  endfacet
  facet normal -0 0 1
    outer loop
      vertex -5 -21 75
      vertex 5 -26 75
      vertex 5 -21 75
    endloop
  endfacet
  facet normal 0 0 1
    outer loop
      vertex 5 -26 75
      vertex -5 -21 75
      vertex -5 -26 75
    endloop
  endfacet
  facet normal 1 0 0
    outer loop
      vertex 5 -21 75
      vertex 5 -25.3725 2.5
      vertex 5 -21 2.5
    endloop
  endfacet
  facet normal 1 -0 0
    outer loop
      vertex 5 -26 75
      vertex 5 -25.3725 2.5
      vertex 5 -21 75
    endloop
  endfacet
  facet normal 1 0 0
    outer loop
      vertex 5 -26 0
      vertex 5 -25.3725 2.5
      vertex 5 -26 75
    endloop
  endfacet
  facet normal 1 0 0
    outer loop
      vertex 5 -25.3725 2.5
      vertex 5 -26 0
      vertex 5 -25.3725 0
    endloop
  endfacet
  facet normal 0 0 -1
    outer loop
      vertex 5 -26 0
      vertex 2.71774 -25.8576 0
      vertex 5 -25.3725 0
    endloop
  endfacet
  facet normal 0 0 -1
    outer loop
      vertex 5 -26 0
      vertex -2.71774 -25.8576 0
      vertex 2.71774 -25.8576 0
    endloop
  endfacet
  facet normal 0 0 -1
    outer loop
      vertex -5 -26 0
      vertex -2.71774 -25.8576 0
      vertex 5 -26 0
    endloop
  endfacet
  facet normal -0 0 -1
    outer loop
      vertex -2.71774 -25.8576 0
      vertex -5 -26 0
      vertex -5 -25.3725 0
    endloop
  endfacet
  facet normal 0 -1 0
    outer loop
      vertex -5 -26 75
      vertex 0 -26 56.1
      vertex 5 -26 75
    endloop
  endfacet
  facet normal 0 -1 0
    outer loop
      vertex -5 -26 75
      vertex -1.8 -26 55.6177
      vertex 0 -26 56.1
    endloop
  endfacet
  facet normal 0 -1 0
    outer loop
      vertex -5 -26 75
      vertex -3.11769 -26 54.3
      vertex -1.8 -26 55.6177
    endloop
  endfacet
  facet normal 0 -1 0
    outer loop
      vertex -5 -26 75
      vertex -3.48425 -26 52.932
      vertex -3.11769 -26 54.3
    endloop
  endfacet
  facet normal 0 -1 0
    outer loop
      vertex -5 -26 75
      vertex -3.6 -26 52.5
      vertex -3.48425 -26 52.932
    endloop
  endfacet
  facet normal 0 -1 -0
    outer loop
      vertex -1.8 -26 49.3823
      vertex -5 -26 0
      vertex 0 -26 48.9
    endloop
  endfacet
  facet normal 0 -1 -0
    outer loop
      vertex -3.11769 -26 50.7
      vertex -5 -26 0
      vertex -1.8 -26 49.3823
    endloop
  endfacet
  facet normal 0 -1 -0
    outer loop
      vertex -3.23345 -26 51.132
      vertex -5 -26 0
      vertex -3.11769 -26 50.7
    endloop
  endfacet
  facet normal 0 -1 -0
    outer loop
      vertex -3.6 -26 52.5
      vertex -5 -26 0
      vertex -3.23345 -26 51.132
    endloop
  endfacet
  facet normal 0 -1 0
    outer loop
      vertex -5 -26 0
      vertex -3.6 -26 52.5
      vertex -5 -26 75
    endloop
  endfacet
  facet normal 0 -1 0
    outer loop
      vertex 1.8 -26 55.6177
      vertex 5 -26 75
      vertex 0 -26 56.1
    endloop
  endfacet
  facet normal 0 -1 0
    outer loop
      vertex 3.11769 -26 54.3
      vertex 5 -26 75
      vertex 1.8 -26 55.6177
    endloop
  endfacet
  facet normal 0 -1 0
    outer loop
      vertex 3.48425 -26 52.932
      vertex 5 -26 75
      vertex 3.11769 -26 54.3
    endloop
  endfacet
  facet normal 0 -1 0
    outer loop
      vertex 3.6 -26 52.5
      vertex 5 -26 75
      vertex 3.48425 -26 52.932
    endloop
  endfacet
  facet normal 0 -1 0
    outer loop
      vertex 5 -26 0
      vertex 0 -26 48.9
      vertex -5 -26 0
    endloop
  endfacet
  facet normal 0 -1 0
    outer loop
      vertex 0 -26 48.9
      vertex 5 -26 0
      vertex 1.8 -26 49.3823
    endloop
  endfacet
  facet normal 0 -1 0
    outer loop
      vertex 1.8 -26 49.3823
      vertex 5 -26 0
      vertex 3.11769 -26 50.7
    endloop
  endfacet
  facet normal 0 -1 0
    outer loop
      vertex 3.11769 -26 50.7
      vertex 5 -26 0
      vertex 3.23345 -26 51.132
    endloop
  endfacet
  facet normal 0 -1 0
    outer loop
      vertex 3.6 -26 52.5
      vertex 5 -26 0
      vertex 5 -26 75
    endloop
  endfacet
  facet normal 0 -1 0
    outer loop
      vertex 3.23345 -26 51.132
      vertex 5 -26 0
      vertex 3.6 -26 52.5
    endloop
  endfacet
  facet normal 0 1 0
    outer loop
      vertex 5 -21 75
      vertex 0 -21 56.1
      vertex -5 -21 75
    endloop
  endfacet
  facet normal 0 1 0
    outer loop
      vertex 5 -21 75
      vertex 1.8 -21 55.6177
      vertex 0 -21 56.1
    endloop
  endfacet
  facet normal 0 1 0
    outer loop
      vertex 5 -21 75
      vertex 3.11769 -21 54.3
      vertex 1.8 -21 55.6177
    endloop
  endfacet
  facet normal 0 1 0
    outer loop
      vertex 5 -21 75
      vertex 3.46013 -21 53.022
      vertex 3.11769 -21 54.3
    endloop
  endfacet
  facet normal 0 1 0
    outer loop
      vertex 5 -21 75
      vertex 3.6 -21 52.5
      vertex 3.46013 -21 53.022
    endloop
  endfacet
  facet normal 0 1 0
    outer loop
      vertex 1.8 -21 49.3823
      vertex 5 -21 2.5
      vertex 0 -21 48.9
    endloop
  endfacet
  facet normal 0 1 0
    outer loop
      vertex 3.11769 -21 50.7
      vertex 5 -21 2.5
      vertex 1.8 -21 49.3823
    endloop
  endfacet
  facet normal 0 1 0
    outer loop
      vertex 3.25756 -21 51.222
      vertex 5 -21 2.5
      vertex 3.11769 -21 50.7
    endloop
  endfacet
  facet normal 0 1 0
    outer loop
      vertex 3.6 -21 52.5
      vertex 5 -21 2.5
      vertex 3.25756 -21 51.222
    endloop
  endfacet
  facet normal 0 1 -0
    outer loop
      vertex 5 -21 2.5
      vertex 3.6 -21 52.5
      vertex 5 -21 75
    endloop
  endfacet
  facet normal 0 1 -0
    outer loop
      vertex -1.8 -21 55.6177
      vertex -5 -21 75
      vertex 0 -21 56.1
    endloop
  endfacet
  facet normal 0 1 -0
    outer loop
      vertex -3.11769 -21 54.3
      vertex -5 -21 75
      vertex -1.8 -21 55.6177
    endloop
  endfacet
  facet normal 0 1 -0
    outer loop
      vertex -3.46013 -21 53.022
      vertex -5 -21 75
      vertex -3.11769 -21 54.3
    endloop
  endfacet
  facet normal 0 1 -0
    outer loop
      vertex -3.6 -21 52.5
      vertex -5 -21 75
      vertex -3.46013 -21 53.022
    endloop
  endfacet
  facet normal 0 1 0
    outer loop
      vertex -5 -21 2.5
      vertex 0 -21 48.9
      vertex 5 -21 2.5
    endloop
  endfacet
  facet normal 0 1 0
    outer loop
      vertex 0 -21 48.9
      vertex -5 -21 2.5
      vertex -1.8 -21 49.3823
    endloop
  endfacet
  facet normal 0 1 0
    outer loop
      vertex -1.8 -21 49.3823
      vertex -5 -21 2.5
      vertex -3.11769 -21 50.7
    endloop
  endfacet
  facet normal 0 1 0
    outer loop
      vertex -3.11769 -21 50.7
      vertex -5 -21 2.5
      vertex -3.25756 -21 51.222
    endloop
  endfacet
  facet normal 0 1 0
    outer loop
      vertex -3.6 -21 52.5
      vertex -5 -21 2.5
      vertex -5 -21 75
    endloop
  endfacet
  facet normal 0 1 0
    outer loop
      vertex -3.25756 -21 51.222
      vertex -5 -21 2.5
      vertex -3.6 -21 52.5
    endloop
  endfacet
  facet normal -0.965926 3.2677e-08 -0.258819
    outer loop
      vertex 3.11769 21 54.3
      vertex 3.23345 26 53.868
      vertex 3.25756 21 53.778
    endloop
  endfacet
  facet normal -0.965926 0 -0.25882
    outer loop
      vertex 3.23345 26 53.868
      vertex 3.11769 21 54.3
      vertex 3.11769 26 54.3
    endloop
  endfacet
  facet normal -0.965926 2.47637e-08 -0.258819
    outer loop
      vertex 3.11769 -26 54.3
      vertex 3.46013 -21 53.022
      vertex 3.48425 -26 52.932
    endloop
  endfacet
  facet normal -0.965926 0 -0.258819
    outer loop
      vertex 3.46013 -21 53.022
      vertex 3.11769 -26 54.3
      vertex 3.11769 -21 54.3
    endloop
  endfacet
  facet normal -0.707107 0 -0.707107
    outer loop
      vertex 3.11769 21 54.3
      vertex 1.8 26 55.6177
      vertex 3.11769 26 54.3
    endloop
  endfacet
  facet normal -0.707107 -0 -0.707107
    outer loop
      vertex 1.8 26 55.6177
      vertex 3.11769 21 54.3
      vertex 1.8 21 55.6177
    endloop
  endfacet
  facet normal -0.707107 0 -0.707107
    outer loop
      vertex 3.11769 -26 54.3
      vertex 1.8 -21 55.6177
      vertex 3.11769 -21 54.3
    endloop
  endfacet
  facet normal -0.707107 -0 -0.707107
    outer loop
      vertex 1.8 -21 55.6177
      vertex 3.11769 -26 54.3
      vertex 1.8 -26 55.6177
    endloop
  endfacet
  facet normal -0.965926 0 -0.258819
    outer loop
      vertex 3.25756 21 53.778
      vertex 3.6 26 52.5
      vertex 3.6 21 52.5
    endloop
  endfacet
  facet normal -0.965926 2.47637e-08 -0.258819
    outer loop
      vertex 3.6 26 52.5
      vertex 3.25756 21 53.778
      vertex 3.23345 26 53.868
    endloop
  endfacet
  facet normal -0.965926 0 -0.25882
    outer loop
      vertex 3.48425 -26 52.932
      vertex 3.6 -21 52.5
      vertex 3.6 -26 52.5
    endloop
  endfacet
  facet normal -0.965926 3.2677e-08 -0.258819
    outer loop
      vertex 3.6 -21 52.5
      vertex 3.48425 -26 52.932
      vertex 3.46013 -21 53.022
    endloop
  endfacet
  facet normal -0.965926 -3.2677e-08 0.258819
    outer loop
      vertex 3.6 21 52.5
      vertex 3.48425 26 52.068
      vertex 3.46013 21 51.978
    endloop
  endfacet
  facet normal -0.965926 0 0.25882
    outer loop
      vertex 3.48425 26 52.068
      vertex 3.6 21 52.5
      vertex 3.6 26 52.5
    endloop
  endfacet
  facet normal -0.965926 -2.47637e-08 0.258819
    outer loop
      vertex 3.6 -26 52.5
      vertex 3.25756 -21 51.222
      vertex 3.23345 -26 51.132
    endloop
  endfacet
  facet normal -0.965926 0 0.258819
    outer loop
      vertex 3.25756 -21 51.222
      vertex 3.6 -26 52.5
      vertex 3.6 -21 52.5
    endloop
  endfacet
  facet normal -0.258819 0 0.965926
    outer loop
      vertex 0 26 48.9
      vertex 1.8 21 49.3823
      vertex 1.8 26 49.3823
    endloop
  endfacet
  facet normal -0.258819 0 0.965926
    outer loop
      vertex 1.8 21 49.3823
      vertex 0 26 48.9
      vertex 0 21 48.9
    endloop
  endfacet
  facet normal -0.258819 0 0.965926
    outer loop
      vertex 0 -21 48.9
      vertex 1.8 -26 49.3823
      vertex 1.8 -21 49.3823
    endloop
  endfacet
  facet normal -0.258819 0 0.965926
    outer loop
      vertex 1.8 -26 49.3823
      vertex 0 -21 48.9
      vertex 0 -26 48.9
    endloop
  endfacet
  facet normal 0.707107 0 -0.707107
    outer loop
      vertex -1.8 21 55.6177
      vertex -3.11769 26 54.3
      vertex -1.8 26 55.6177
    endloop
  endfacet
  facet normal 0.707107 0 -0.707107
    outer loop
      vertex -3.11769 26 54.3
      vertex -1.8 21 55.6177
      vertex -3.11769 21 54.3
    endloop
  endfacet
  facet normal 0.707107 0 -0.707107
    outer loop
      vertex -1.8 -26 55.6177
      vertex -3.11769 -21 54.3
      vertex -1.8 -21 55.6177
    endloop
  endfacet
  facet normal 0.707107 0 -0.707107
    outer loop
      vertex -3.11769 -21 54.3
      vertex -1.8 -26 55.6177
      vertex -3.11769 -26 54.3
    endloop
  endfacet
  facet normal -0.707107 0 0.707107
    outer loop
      vertex 1.8 21 49.3823
      vertex 3.11769 26 50.7
      vertex 1.8 26 49.3823
    endloop
  endfacet
  facet normal -0.707107 0 0.707107
    outer loop
      vertex 3.11769 26 50.7
      vertex 1.8 21 49.3823
      vertex 3.11769 21 50.7
    endloop
  endfacet
  facet normal -0.707107 0 0.707107
    outer loop
      vertex 1.8 -26 49.3823
      vertex 3.11769 -21 50.7
      vertex 1.8 -21 49.3823
    endloop
  endfacet
  facet normal -0.707107 0 0.707107
    outer loop
      vertex 3.11769 -21 50.7
      vertex 1.8 -26 49.3823
      vertex 3.11769 -26 50.7
    endloop
  endfacet
  facet normal -0.965926 0 0.258819
    outer loop
      vertex 3.46013 21 51.978
      vertex 3.11769 26 50.7
      vertex 3.11769 21 50.7
    endloop
  endfacet
  facet normal -0.965926 -2.47637e-08 0.258819
    outer loop
      vertex 3.11769 26 50.7
      vertex 3.46013 21 51.978
      vertex 3.48425 26 52.068
    endloop
  endfacet
  facet normal -0.965926 0 0.25882
    outer loop
      vertex 3.23345 -26 51.132
      vertex 3.11769 -21 50.7
      vertex 3.11769 -26 50.7
    endloop
  endfacet
  facet normal -0.965926 -3.2677e-08 0.258819
    outer loop
      vertex 3.11769 -21 50.7
      vertex 3.23345 -26 51.132
      vertex 3.25756 -21 51.222
    endloop
  endfacet
  facet normal 0.707107 -0 0.707107
    outer loop
      vertex -3.11769 21 50.7
      vertex -1.8 26 49.3823
      vertex -3.11769 26 50.7
    endloop
  endfacet
  facet normal 0.707107 0 0.707107
    outer loop
      vertex -1.8 26 49.3823
      vertex -3.11769 21 50.7
      vertex -1.8 21 49.3823
    endloop
  endfacet
  facet normal 0.707107 -0 0.707107
    outer loop
      vertex -3.11769 -26 50.7
      vertex -1.8 -21 49.3823
      vertex -3.11769 -21 50.7
    endloop
  endfacet
  facet normal 0.707107 0 0.707107
    outer loop
      vertex -1.8 -21 49.3823
      vertex -3.11769 -26 50.7
      vertex -1.8 -26 49.3823
    endloop
  endfacet
  facet normal 0.258819 0 0.965926
    outer loop
      vertex -1.8 26 49.3823
      vertex 0 21 48.9
      vertex 0 26 48.9
    endloop
  endfacet
  facet normal 0.258819 0 0.965926
    outer loop
      vertex 0 21 48.9
      vertex -1.8 26 49.3823
      vertex -1.8 21 49.3823
    endloop
  endfacet
  facet normal 0.258819 0 0.965926
    outer loop
      vertex -1.8 -21 49.3823
      vertex 0 -26 48.9
      vertex 0 -21 48.9
    endloop
  endfacet
  facet normal 0.258819 0 0.965926
    outer loop
      vertex 0 -26 48.9
      vertex -1.8 -21 49.3823
      vertex -1.8 -26 49.3823
    endloop
  endfacet
  facet normal 0.965926 -2.47637e-08 0.258819
    outer loop
      vertex -3.46013 21 51.978
      vertex -3.11769 26 50.7
      vertex -3.48425 26 52.068
    endloop
  endfacet
  facet normal 0.965926 0 0.258819
    outer loop
      vertex -3.11769 26 50.7
      vertex -3.46013 21 51.978
      vertex -3.11769 21 50.7
    endloop
  endfacet
  facet normal 0.965926 -3.2677e-08 0.258819
    outer loop
      vertex -3.23345 -26 51.132
      vertex -3.11769 -21 50.7
      vertex -3.25756 -21 51.222
    endloop
  endfacet
  facet normal 0.965926 0 0.25882
    outer loop
      vertex -3.11769 -21 50.7
      vertex -3.23345 -26 51.132
      vertex -3.11769 -26 50.7
    endloop
  endfacet
  facet normal -0.258819 0 -0.965926
    outer loop
      vertex 0 21 56.1
      vertex 1.8 26 55.6177
      vertex 1.8 21 55.6177
    endloop
  endfacet
  facet normal -0.258819 0 -0.965926
    outer loop
      vertex 1.8 26 55.6177
      vertex 0 21 56.1
      vertex 0 26 56.1
    endloop
  endfacet
  facet normal -0.258819 0 -0.965926
    outer loop
      vertex 0 -26 56.1
      vertex 1.8 -21 55.6177
      vertex 1.8 -26 55.6177
    endloop
  endfacet
  facet normal -0.258819 0 -0.965926
    outer loop
      vertex 1.8 -21 55.6177
      vertex 0 -26 56.1
      vertex 0 -21 56.1
    endloop
  endfacet
  facet normal 0.258819 0 -0.965926
    outer loop
      vertex -1.8 21 55.6177
      vertex 0 26 56.1
      vertex 0 21 56.1
    endloop
  endfacet
  facet normal 0.258819 0 -0.965926
    outer loop
      vertex 0 26 56.1
      vertex -1.8 21 55.6177
      vertex -1.8 26 55.6177
    endloop
  endfacet
  facet normal 0.258819 0 -0.965926
    outer loop
      vertex -1.8 -26 55.6177
      vertex 0 -21 56.1
      vertex 0 -26 56.1
    endloop
  endfacet
  facet normal 0.258819 0 -0.965926
    outer loop
      vertex 0 -21 56.1
      vertex -1.8 -26 55.6177
      vertex -1.8 -21 55.6177
    endloop
  endfacet
  facet normal 0.965926 -0 0.25882
    outer loop
      vertex -3.6 21 52.5
      vertex -3.48425 26 52.068
      vertex -3.6 26 52.5
    endloop
  endfacet
  facet normal 0.965926 -3.2677e-08 0.258819
    outer loop
      vertex -3.48425 26 52.068
      vertex -3.6 21 52.5
      vertex -3.46013 21 51.978
    endloop
  endfacet
  facet normal 0.965926 -0 0.258819
    outer loop
      vertex -3.6 -26 52.5
      vertex -3.25756 -21 51.222
      vertex -3.6 -21 52.5
    endloop
  endfacet
  facet normal 0.965926 -2.47637e-08 0.258819
    outer loop
      vertex -3.25756 -21 51.222
      vertex -3.6 -26 52.5
      vertex -3.23345 -26 51.132
    endloop
  endfacet
  facet normal 0.965926 2.47637e-08 -0.258819
    outer loop
      vertex -3.25756 21 53.778
      vertex -3.6 26 52.5
      vertex -3.23345 26 53.868
    endloop
  endfacet
  facet normal 0.965926 0 -0.258819
    outer loop
      vertex -3.6 26 52.5
      vertex -3.25756 21 53.778
      vertex -3.6 21 52.5
    endloop
  endfacet
  facet normal 0.965926 3.2677e-08 -0.258819
    outer loop
      vertex -3.48425 -26 52.932
      vertex -3.6 -21 52.5
      vertex -3.46013 -21 53.022
    endloop
  endfacet
  facet normal 0.965926 0 -0.25882
    outer loop
      vertex -3.6 -21 52.5
      vertex -3.48425 -26 52.932
      vertex -3.6 -26 52.5
    endloop
  endfacet
  facet normal 0.965926 0 -0.25882
    outer loop
      vertex -3.11769 21 54.3
      vertex -3.23345 26 53.868
      vertex -3.11769 26 54.3
    endloop
  endfacet
  facet normal 0.965926 3.2677e-08 -0.258819
    outer loop
      vertex -3.23345 26 53.868
      vertex -3.11769 21 54.3
      vertex -3.25756 21 53.778
    endloop
  endfacet
  facet normal 0.965926 0 -0.258819
    outer loop
      vertex -3.11769 -26 54.3
      vertex -3.46013 -21 53.022
      vertex -3.11769 -21 54.3
    endloop
  endfacet
  facet normal 0.965926 2.47637e-08 -0.258819
    outer loop
      vertex -3.46013 -21 53.022
      vertex -3.11769 -26 54.3
      vertex -3.48425 -26 52.932
    endloop
  endfacet
endsolid OpenSCAD_Model
