solid OpenSCAD_Model
  facet normal 0.994522 0.104528 0
    outer loop
      vertex 10.5 0 3
      vertex 10.2705 2.18307 0
      vertex 10.2705 2.18307 3
    endloop
  endfacet
  facet normal 0.994522 0.104528 0
    outer loop
      vertex 10.2705 2.18307 0
      vertex 10.5 0 3
      vertex 10.5 0 0
    endloop
  endfacet
  facet normal 0.951056 0.309017 0
    outer loop
      vertex 10.2705 2.18307 3
      vertex 9.59223 4.27073 0
      vertex 9.59223 4.27073 3
    endloop
  endfacet
  facet normal 0.951056 0.309017 0
    outer loop
      vertex 9.59223 4.27073 0
      vertex 10.2705 2.18307 3
      vertex 10.2705 2.18307 0
    endloop
  endfacet
  facet normal 0.866025 0.5 0
    outer loop
      vertex 9.59223 4.27073 3
      vertex 8.49468 6.17175 0
      vertex 8.49468 6.17175 3
    endloop
  endfacet
  facet normal 0.866025 0.5 0
    outer loop
      vertex 8.49468 6.17175 0
      vertex 9.59223 4.27073 3
      vertex 9.59223 4.27073 0
    endloop
  endfacet
  facet normal 0.743145 0.669131 0
    outer loop
      vertex 8.49468 6.17175 3
      vertex 7.02587 7.80302 0
      vertex 7.02587 7.80302 3
    endloop
  endfacet
  facet normal 0.743145 0.669131 0
    outer loop
      vertex 7.02587 7.80302 0
      vertex 8.49468 6.17175 3
      vertex 8.49468 6.17175 0
    endloop
  endfacet
  facet normal 0.587785 0.809017 -0
    outer loop
      vertex 7.02587 7.80302 0
      vertex 5.25 9.09327 3
      vertex 7.02587 7.80302 3
    endloop
  endfacet
  facet normal 0.587785 0.809017 0
    outer loop
      vertex 5.25 9.09327 3
      vertex 7.02587 7.80302 0
      vertex 5.25 9.09327 0
    endloop
  endfacet
  facet normal 0.406737 0.913545 -0
    outer loop
      vertex 5.25 9.09327 0
      vertex 3.24468 9.98609 3
      vertex 5.25 9.09327 3
    endloop
  endfacet
  facet normal 0.406737 0.913545 0
    outer loop
      vertex 3.24468 9.98609 3
      vertex 5.25 9.09327 0
      vertex 3.24468 9.98609 0
    endloop
  endfacet
  facet normal 0.207912 0.978148 -0
    outer loop
      vertex 3.24468 9.98609 0
      vertex 1.09755 10.4425 3
      vertex 3.24468 9.98609 3
    endloop
  endfacet
  facet normal 0.207912 0.978148 0
    outer loop
      vertex 1.09755 10.4425 3
      vertex 3.24468 9.98609 0
      vertex 1.09755 10.4425 0
    endloop
  endfacet
  facet normal 0 1 -0
    outer loop
      vertex 1.09755 10.4425 0
      vertex -1.09755 10.4425 3
      vertex 1.09755 10.4425 3
    endloop
  endfacet
  facet normal 0 1 0
    outer loop
      vertex -1.09755 10.4425 3
      vertex 1.09755 10.4425 0
      vertex -1.09755 10.4425 0
    endloop
  endfacet
  facet normal -0.207912 0.978148 0
    outer loop
      vertex -1.09755 10.4425 0
      vertex -3.24468 9.98609 3
      vertex -1.09755 10.4425 3
    endloop
  endfacet
  facet normal -0.207912 0.978148 0
    outer loop
      vertex -3.24468 9.98609 3
      vertex -1.09755 10.4425 0
      vertex -3.24468 9.98609 0
    endloop
  endfacet
  facet normal -0.406737 0.913545 0
    outer loop
      vertex -3.24468 9.98609 0
      vertex -5.25 9.09327 3
      vertex -3.24468 9.98609 3
    endloop
  endfacet
  facet normal -0.406737 0.913545 0
    outer loop
      vertex -5.25 9.09327 3
      vertex -3.24468 9.98609 0
      vertex -5.25 9.09327 0
    endloop
  endfacet
  facet normal -0.587785 0.809017 0
    outer loop
      vertex -5.25 9.09327 0
      vertex -7.02587 7.80302 3
      vertex -5.25 9.09327 3
    endloop
  endfacet
  facet normal -0.587785 0.809017 0
    outer loop
      vertex -7.02587 7.80302 3
      vertex -5.25 9.09327 0
      vertex -7.02587 7.80302 0
    endloop
  endfacet
  facet normal -0.743145 0.669131 0
    outer loop
      vertex -8.49468 6.17175 0
      vertex -7.02587 7.80302 3
      vertex -7.02587 7.80302 0
    endloop
  endfacet
  facet normal -0.743145 0.669131 0
    outer loop
      vertex -7.02587 7.80302 3
      vertex -8.49468 6.17175 0
      vertex -8.49468 6.17175 3
    endloop
  endfacet
  facet normal -0.866025 0.5 0
    outer loop
      vertex -9.59223 4.27073 0
      vertex -8.49468 6.17175 3
      vertex -8.49468 6.17175 0
    endloop
  endfacet
  facet normal -0.866025 0.5 0
    outer loop
      vertex -8.49468 6.17175 3
      vertex -9.59223 4.27073 0
      vertex -9.59223 4.27073 3
    endloop
  endfacet
  facet normal -0.951056 0.309017 0
    outer loop
      vertex -10.2705 2.18307 0
      vertex -9.59223 4.27073 3
      vertex -9.59223 4.27073 0
    endloop
  endfacet
  facet normal -0.951056 0.309017 0
    outer loop
      vertex -9.59223 4.27073 3
      vertex -10.2705 2.18307 0
      vertex -10.2705 2.18307 3
    endloop
  endfacet
  facet normal -0.994522 0.104528 0
    outer loop
      vertex -10.5 5.94877e-015 0
      vertex -10.2705 2.18307 3
      vertex -10.2705 2.18307 0
    endloop
  endfacet
  facet normal -0.994522 0.104528 0
    outer loop
      vertex -10.2705 2.18307 3
      vertex -10.5 5.94877e-015 0
      vertex -10.5 5.94877e-015 3
    endloop
  endfacet
  facet normal -0.994522 -0.104528 0
    outer loop
      vertex -10.2705 -2.18307 0
      vertex -10.5 5.94877e-015 3
      vertex -10.5 5.94877e-015 0
    endloop
  endfacet
  facet normal -0.994522 -0.104528 0
    outer loop
      vertex -10.5 5.94877e-015 3
      vertex -10.2705 -2.18307 0
      vertex -10.2705 -2.18307 3
    endloop
  endfacet
  facet normal -0.951056 -0.309017 0
    outer loop
      vertex -9.59223 -4.27073 0
      vertex -10.2705 -2.18307 3
      vertex -10.2705 -2.18307 0
    endloop
  endfacet
  facet normal -0.951056 -0.309017 0
    outer loop
      vertex -10.2705 -2.18307 3
      vertex -9.59223 -4.27073 0
      vertex -9.59223 -4.27073 3
    endloop
  endfacet
  facet normal -0.866025 -0.5 0
    outer loop
      vertex -8.49468 -6.17175 0
      vertex -9.59223 -4.27073 3
      vertex -9.59223 -4.27073 0
    endloop
  endfacet
  facet normal -0.866025 -0.5 0
    outer loop
      vertex -9.59223 -4.27073 3
      vertex -8.49468 -6.17175 0
      vertex -8.49468 -6.17175 3
    endloop
  endfacet
  facet normal -0.743145 -0.669131 0
    outer loop
      vertex -7.02587 -7.80302 0
      vertex -8.49468 -6.17175 3
      vertex -8.49468 -6.17175 0
    endloop
  endfacet
  facet normal -0.743145 -0.669131 0
    outer loop
      vertex -8.49468 -6.17175 3
      vertex -7.02587 -7.80302 0
      vertex -7.02587 -7.80302 3
    endloop
  endfacet
  facet normal -0.587785 -0.809017 0
    outer loop
      vertex -7.02587 -7.80302 0
      vertex -5.25 -9.09327 3
      vertex -7.02587 -7.80302 3
    endloop
  endfacet
  facet normal -0.587785 -0.809017 -0
    outer loop
      vertex -5.25 -9.09327 3
      vertex -7.02587 -7.80302 0
      vertex -5.25 -9.09327 0
    endloop
  endfacet
  facet normal -0.406737 -0.913545 0
    outer loop
      vertex -5.25 -9.09327 0
      vertex -3.24468 -9.98609 3
      vertex -5.25 -9.09327 3
    endloop
  endfacet
  facet normal -0.406737 -0.913545 -0
    outer loop
      vertex -3.24468 -9.98609 3
      vertex -5.25 -9.09327 0
      vertex -3.24468 -9.98609 0
    endloop
  endfacet
  facet normal -0.207912 -0.978148 0
    outer loop
      vertex -3.24468 -9.98609 0
      vertex -1.09755 -10.4425 3
      vertex -3.24468 -9.98609 3
    endloop
  endfacet
  facet normal -0.207912 -0.978148 -0
    outer loop
      vertex -1.09755 -10.4425 3
      vertex -3.24468 -9.98609 0
      vertex -1.09755 -10.4425 0
    endloop
  endfacet
  facet normal 0 -1 0
    outer loop
      vertex -1.09755 -10.4425 0
      vertex 1.09755 -10.4425 3
      vertex -1.09755 -10.4425 3
    endloop
  endfacet
  facet normal 0 -1 -0
    outer loop
      vertex 1.09755 -10.4425 3
      vertex -1.09755 -10.4425 0
      vertex 1.09755 -10.4425 0
    endloop
  endfacet
  facet normal 0.207912 -0.978148 0
    outer loop
      vertex 1.09755 -10.4425 0
      vertex 3.24468 -9.98609 3
      vertex 1.09755 -10.4425 3
    endloop
  endfacet
  facet normal 0.207912 -0.978148 0
    outer loop
      vertex 3.24468 -9.98609 3
      vertex 1.09755 -10.4425 0
      vertex 3.24468 -9.98609 0
    endloop
  endfacet
  facet normal 0.406737 -0.913545 0
    outer loop
      vertex 3.24468 -9.98609 0
      vertex 5.25 -9.09327 3
      vertex 3.24468 -9.98609 3
    endloop
  endfacet
  facet normal 0.406737 -0.913545 0
    outer loop
      vertex 5.25 -9.09327 3
      vertex 3.24468 -9.98609 0
      vertex 5.25 -9.09327 0
    endloop
  endfacet
  facet normal 0.587785 -0.809017 0
    outer loop
      vertex 5.25 -9.09327 0
      vertex 7.02587 -7.80302 3
      vertex 5.25 -9.09327 3
    endloop
  endfacet
  facet normal 0.587785 -0.809017 0
    outer loop
      vertex 7.02587 -7.80302 3
      vertex 5.25 -9.09327 0
      vertex 7.02587 -7.80302 0
    endloop
  endfacet
  facet normal 0.743145 -0.669131 0
    outer loop
      vertex 7.02587 -7.80302 3
      vertex 8.49468 -6.17175 0
      vertex 8.49468 -6.17175 3
    endloop
  endfacet
  facet normal 0.743145 -0.669131 0
    outer loop
      vertex 8.49468 -6.17175 0
      vertex 7.02587 -7.80302 3
      vertex 7.02587 -7.80302 0
    endloop
  endfacet
  facet normal 0.866025 -0.5 0
    outer loop
      vertex 8.49468 -6.17175 3
      vertex 9.59223 -4.27073 0
      vertex 9.59223 -4.27073 3
    endloop
  endfacet
  facet normal 0.866025 -0.5 0
    outer loop
      vertex 9.59223 -4.27073 0
      vertex 8.49468 -6.17175 3
      vertex 8.49468 -6.17175 0
    endloop
  endfacet
  facet normal 0.951056 -0.309017 0
    outer loop
      vertex 9.59223 -4.27073 3
      vertex 10.2705 -2.18307 0
      vertex 10.2705 -2.18307 3
    endloop
  endfacet
  facet normal 0.951056 -0.309017 0
    outer loop
      vertex 10.2705 -2.18307 0
      vertex 9.59223 -4.27073 3
      vertex 9.59223 -4.27073 0
    endloop
  endfacet
  facet normal 0.994522 -0.104528 0
    outer loop
      vertex 10.2705 -2.18307 3
      vertex 10.5 0 0
      vertex 10.5 0 3
    endloop
  endfacet
  facet normal 0.994522 -0.104528 0
    outer loop
      vertex 10.5 0 0
      vertex 10.2705 -2.18307 3
      vertex 10.2705 -2.18307 0
    endloop
  endfacet
  facet normal 0 0 -1
    outer loop
      vertex 10.2705 -2.18307 0
      vertex 10.2705 2.18307 0
      vertex 10.5 0 0
    endloop
  endfacet
  facet normal 0 0 -1
    outer loop
      vertex 9.59223 -4.27073 0
      vertex 10.2705 2.18307 0
      vertex 10.2705 -2.18307 0
    endloop
  endfacet
  facet normal 0 0 -1
    outer loop
      vertex 9.59223 -4.27073 0
      vertex 9.59223 4.27073 0
      vertex 10.2705 2.18307 0
    endloop
  endfacet
  facet normal 0 0 -1
    outer loop
      vertex 8.49468 -6.17175 0
      vertex 9.59223 4.27073 0
      vertex 9.59223 -4.27073 0
    endloop
  endfacet
  facet normal 0 0 -1
    outer loop
      vertex 8.49468 -6.17175 0
      vertex 8.49468 6.17175 0
      vertex 9.59223 4.27073 0
    endloop
  endfacet
  facet normal 0 0 -1
    outer loop
      vertex 7.02587 -7.80302 0
      vertex 8.49468 6.17175 0
      vertex 8.49468 -6.17175 0
    endloop
  endfacet
  facet normal 0 0 -1
    outer loop
      vertex 7.02587 -7.80302 0
      vertex 7.02587 7.80302 0
      vertex 8.49468 6.17175 0
    endloop
  endfacet
  facet normal 0 0 -1
    outer loop
      vertex 5.25 -9.09327 0
      vertex 7.02587 7.80302 0
      vertex 7.02587 -7.80302 0
    endloop
  endfacet
  facet normal 0 0 -1
    outer loop
      vertex 5.25 -9.09327 0
      vertex 5.25 9.09327 0
      vertex 7.02587 7.80302 0
    endloop
  endfacet
  facet normal 0 0 -1
    outer loop
      vertex 3.24468 -9.98609 0
      vertex 5.25 9.09327 0
      vertex 5.25 -9.09327 0
    endloop
  endfacet
  facet normal 0 0 -1
    outer loop
      vertex 3.24468 -9.98609 0
      vertex 3.24468 9.98609 0
      vertex 5.25 9.09327 0
    endloop
  endfacet
  facet normal 0 0 -1
    outer loop
      vertex 1.09755 -10.4425 0
      vertex 3.24468 9.98609 0
      vertex 3.24468 -9.98609 0
    endloop
  endfacet
  facet normal 0 0 -1
    outer loop
      vertex 1.09755 -10.4425 0
      vertex 1.09755 10.4425 0
      vertex 3.24468 9.98609 0
    endloop
  endfacet
  facet normal 0 0 -1
    outer loop
      vertex -1.09755 -10.4425 0
      vertex 1.09755 10.4425 0
      vertex 1.09755 -10.4425 0
    endloop
  endfacet
  facet normal 0 0 -1
    outer loop
      vertex -1.09755 -10.4425 0
      vertex -1.09755 10.4425 0
      vertex 1.09755 10.4425 0
    endloop
  endfacet
  facet normal 0 0 -1
    outer loop
      vertex -3.24468 -9.98609 0
      vertex -1.09755 10.4425 0
      vertex -1.09755 -10.4425 0
    endloop
  endfacet
  facet normal 0 0 -1
    outer loop
      vertex -3.24468 -9.98609 0
      vertex -3.24468 9.98609 0
      vertex -1.09755 10.4425 0
    endloop
  endfacet
  facet normal 0 0 -1
    outer loop
      vertex -5.25 -9.09327 0
      vertex -3.24468 9.98609 0
      vertex -3.24468 -9.98609 0
    endloop
  endfacet
  facet normal 0 0 -1
    outer loop
      vertex -5.25 -9.09327 0
      vertex -5.25 9.09327 0
      vertex -3.24468 9.98609 0
    endloop
  endfacet
  facet normal 0 0 -1
    outer loop
      vertex -7.02587 -7.80302 0
      vertex -5.25 9.09327 0
      vertex -5.25 -9.09327 0
    endloop
  endfacet
  facet normal 0 0 -1
    outer loop
      vertex -7.02587 -7.80302 0
      vertex -7.02587 7.80302 0
      vertex -5.25 9.09327 0
    endloop
  endfacet
  facet normal 0 0 -1
    outer loop
      vertex -8.49468 -6.17175 0
      vertex -7.02587 7.80302 0
      vertex -7.02587 -7.80302 0
    endloop
  endfacet
  facet normal 0 0 -1
    outer loop
      vertex -8.49468 -6.17175 0
      vertex -8.49468 6.17175 0
      vertex -7.02587 7.80302 0
    endloop
  endfacet
  facet normal 0 0 -1
    outer loop
      vertex -9.59223 -4.27073 0
      vertex -8.49468 6.17175 0
      vertex -8.49468 -6.17175 0
    endloop
  endfacet
  facet normal 0 0 -1
    outer loop
      vertex -9.59223 -4.27073 0
      vertex -9.59223 4.27073 0
      vertex -8.49468 6.17175 0
    endloop
  endfacet
  facet normal 0 0 -1
    outer loop
      vertex -10.2705 -2.18307 0
      vertex -9.59223 4.27073 0
      vertex -9.59223 -4.27073 0
    endloop
  endfacet
  facet normal 0 0 -1
    outer loop
      vertex -10.2705 -2.18307 0
      vertex -10.2705 2.18307 0
      vertex -9.59223 4.27073 0
    endloop
  endfacet
  facet normal 0 -0 -1
    outer loop
      vertex -10.2705 2.18307 0
      vertex -10.2705 -2.18307 0
      vertex -10.5 5.94877e-015 0
    endloop
  endfacet
  facet normal 0 0 1
    outer loop
      vertex 10.2705 2.18307 3
      vertex 10.2705 -2.18307 3
      vertex 10.5 0 3
    endloop
  endfacet
  facet normal 0 0 1
    outer loop
      vertex 9.59223 4.27073 3
      vertex 10.2705 -2.18307 3
      vertex 10.2705 2.18307 3
    endloop
  endfacet
  facet normal 0 0 1
    outer loop
      vertex 9.59223 4.27073 3
      vertex 9.59223 -4.27073 3
      vertex 10.2705 -2.18307 3
    endloop
  endfacet
  facet normal 0 0 1
    outer loop
      vertex 8.49468 6.17175 3
      vertex 9.59223 -4.27073 3
      vertex 9.59223 4.27073 3
    endloop
  endfacet
  facet normal 0 0 1
    outer loop
      vertex 8.49468 6.17175 3
      vertex 8.49468 -6.17175 3
      vertex 9.59223 -4.27073 3
    endloop
  endfacet
  facet normal 0 0 1
    outer loop
      vertex 7.02587 7.80302 3
      vertex 8.49468 -6.17175 3
      vertex 8.49468 6.17175 3
    endloop
  endfacet
  facet normal 0 0 1
    outer loop
      vertex 7.02587 7.80302 3
      vertex 7.02587 -7.80302 3
      vertex 8.49468 -6.17175 3
    endloop
  endfacet
  facet normal 0 0 1
    outer loop
      vertex 5.25 9.09327 3
      vertex 7.02587 -7.80302 3
      vertex 7.02587 7.80302 3
    endloop
  endfacet
  facet normal 0 0 1
    outer loop
      vertex 5.25 9.09327 3
      vertex 5.25 -9.09327 3
      vertex 7.02587 -7.80302 3
    endloop
  endfacet
  facet normal 0 0 1
    outer loop
      vertex 3.24468 9.98609 3
      vertex 5.25 -9.09327 3
      vertex 5.25 9.09327 3
    endloop
  endfacet
  facet normal 0 0 1
    outer loop
      vertex 3.24468 9.98609 3
      vertex 3.24468 -9.98609 3
      vertex 5.25 -9.09327 3
    endloop
  endfacet
  facet normal 0 0 1
    outer loop
      vertex 1.09755 10.4425 3
      vertex 3.24468 -9.98609 3
      vertex 3.24468 9.98609 3
    endloop
  endfacet
  facet normal 0 0 1
    outer loop
      vertex 1.09755 10.4425 3
      vertex 1.09755 -10.4425 3
      vertex 3.24468 -9.98609 3
    endloop
  endfacet
  facet normal -0 0 1
    outer loop
      vertex -1.09755 10.4425 3
      vertex 1.09755 -10.4425 3
      vertex 1.09755 10.4425 3
    endloop
  endfacet
  facet normal 0 0 1
    outer loop
      vertex -1.09755 10.4425 3
      vertex -1.09755 -10.4425 3
      vertex 1.09755 -10.4425 3
    endloop
  endfacet
  facet normal -0 0 1
    outer loop
      vertex -3.24468 9.98609 3
      vertex -1.09755 -10.4425 3
      vertex -1.09755 10.4425 3
    endloop
  endfacet
  facet normal 0 0 1
    outer loop
      vertex -3.24468 9.98609 3
      vertex -3.24468 -9.98609 3
      vertex -1.09755 -10.4425 3
    endloop
  endfacet
  facet normal -0 0 1
    outer loop
      vertex -5.25 9.09327 3
      vertex -3.24468 -9.98609 3
      vertex -3.24468 9.98609 3
    endloop
  endfacet
  facet normal 0 0 1
    outer loop
      vertex -5.25 9.09327 3
      vertex -5.25 -9.09327 3
      vertex -3.24468 -9.98609 3
    endloop
  endfacet
  facet normal -0 0 1
    outer loop
      vertex -7.02587 7.80302 3
      vertex -5.25 -9.09327 3
      vertex -5.25 9.09327 3
    endloop
  endfacet
  facet normal 0 0 1
    outer loop
      vertex -7.02587 7.80302 3
      vertex -7.02587 -7.80302 3
      vertex -5.25 -9.09327 3
    endloop
  endfacet
  facet normal -0 0 1
    outer loop
      vertex -8.49468 6.17175 3
      vertex -7.02587 -7.80302 3
      vertex -7.02587 7.80302 3
    endloop
  endfacet
  facet normal 0 0 1
    outer loop
      vertex -8.49468 6.17175 3
      vertex -8.49468 -6.17175 3
      vertex -7.02587 -7.80302 3
    endloop
  endfacet
  facet normal -0 0 1
    outer loop
      vertex -9.59223 4.27073 3
      vertex -8.49468 -6.17175 3
      vertex -8.49468 6.17175 3
    endloop
  endfacet
  facet normal 0 0 1
    outer loop
      vertex -9.59223 4.27073 3
      vertex -9.59223 -4.27073 3
      vertex -8.49468 -6.17175 3
    endloop
  endfacet
  facet normal -0 0 1
    outer loop
      vertex -10.2705 2.18307 3
      vertex -9.59223 -4.27073 3
      vertex -9.59223 4.27073 3
    endloop
  endfacet
  facet normal 0 0 1
    outer loop
      vertex -10.2705 2.18307 3
      vertex -10.2705 -2.18307 3
      vertex -9.59223 -4.27073 3
    endloop
  endfacet
  facet normal 0 -0 1
    outer loop
      vertex -10.2705 -2.18307 3
      vertex -10.2705 2.18307 3
      vertex -10.5 5.94877e-015 3
    endloop
  endfacet
endsolid OpenSCAD_Model
