solid OpenSCAD_Model
  facet normal 0.994522 0.104529 0
    outer loop
      vertex 11.5 0 1
      vertex 11.2487 2.39098 0
      vertex 11.2487 2.39098 1
    endloop
  endfacet
  facet normal 0.994522 0.104529 0
    outer loop
      vertex 11.2487 2.39098 0
      vertex 11.5 0 1
      vertex 11.5 0 0
    endloop
  endfacet
  facet normal 0.951056 0.309017 0
    outer loop
      vertex 11.2487 2.39098 1
      vertex 10.5058 4.67747 0
      vertex 10.5058 4.67747 1
    endloop
  endfacet
  facet normal 0.951056 0.309017 0
    outer loop
      vertex 10.5058 4.67747 0
      vertex 11.2487 2.39098 1
      vertex 11.2487 2.39098 0
    endloop
  endfacet
  facet normal 0.866026 0.5 0
    outer loop
      vertex 10.5058 4.67747 1
      vertex 9.3037 6.75953 0
      vertex 9.3037 6.75953 1
    endloop
  endfacet
  facet normal 0.866026 0.5 0
    outer loop
      vertex 9.3037 6.75953 0
      vertex 10.5058 4.67747 1
      vertex 10.5058 4.67747 0
    endloop
  endfacet
  facet normal 0.743145 0.669131 0
    outer loop
      vertex 9.3037 6.75953 1
      vertex 7.695 8.54617 0
      vertex 7.695 8.54617 1
    endloop
  endfacet
  facet normal 0.743145 0.669131 0
    outer loop
      vertex 7.695 8.54617 0
      vertex 9.3037 6.75953 1
      vertex 9.3037 6.75953 0
    endloop
  endfacet
  facet normal 0.587785 0.809017 -0
    outer loop
      vertex 7.695 8.54617 0
      vertex 5.75 9.95929 1
      vertex 7.695 8.54617 1
    endloop
  endfacet
  facet normal 0.587785 0.809017 0
    outer loop
      vertex 5.75 9.95929 1
      vertex 7.695 8.54617 0
      vertex 5.75 9.95929 0
    endloop
  endfacet
  facet normal 0.406737 0.913545 -0
    outer loop
      vertex 5.75 9.95929 0
      vertex 3.5537 10.9372 1
      vertex 5.75 9.95929 1
    endloop
  endfacet
  facet normal 0.406737 0.913545 0
    outer loop
      vertex 3.5537 10.9372 1
      vertex 5.75 9.95929 0
      vertex 3.5537 10.9372 0
    endloop
  endfacet
  facet normal 0.207912 0.978148 -0
    outer loop
      vertex 3.5537 10.9372 0
      vertex 1.20208 11.437 1
      vertex 3.5537 10.9372 1
    endloop
  endfacet
  facet normal 0.207912 0.978148 0
    outer loop
      vertex 1.20208 11.437 1
      vertex 3.5537 10.9372 0
      vertex 1.20208 11.437 0
    endloop
  endfacet
  facet normal 0 1 -0
    outer loop
      vertex 1.20208 11.437 0
      vertex -1.20208 11.437 1
      vertex 1.20208 11.437 1
    endloop
  endfacet
  facet normal 0 1 0
    outer loop
      vertex -1.20208 11.437 1
      vertex 1.20208 11.437 0
      vertex -1.20208 11.437 0
    endloop
  endfacet
  facet normal -0.207912 0.978148 0
    outer loop
      vertex -1.20208 11.437 0
      vertex -3.5537 10.9372 1
      vertex -1.20208 11.437 1
    endloop
  endfacet
  facet normal -0.207912 0.978148 0
    outer loop
      vertex -3.5537 10.9372 1
      vertex -1.20208 11.437 0
      vertex -3.5537 10.9372 0
    endloop
  endfacet
  facet normal -0.406737 0.913545 0
    outer loop
      vertex -3.5537 10.9372 0
      vertex -5.75 9.95929 1
      vertex -3.5537 10.9372 1
    endloop
  endfacet
  facet normal -0.406737 0.913545 0
    outer loop
      vertex -5.75 9.95929 1
      vertex -3.5537 10.9372 0
      vertex -5.75 9.95929 0
    endloop
  endfacet
  facet normal -0.587785 0.809017 0
    outer loop
      vertex -5.75 9.95929 0
      vertex -7.695 8.54617 1
      vertex -5.75 9.95929 1
    endloop
  endfacet
  facet normal -0.587785 0.809017 0
    outer loop
      vertex -7.695 8.54617 1
      vertex -5.75 9.95929 0
      vertex -7.695 8.54617 0
    endloop
  endfacet
  facet normal -0.743145 0.669131 0
    outer loop
      vertex -9.3037 6.75953 0
      vertex -7.695 8.54617 1
      vertex -7.695 8.54617 0
    endloop
  endfacet
  facet normal -0.743145 0.669131 0
    outer loop
      vertex -7.695 8.54617 1
      vertex -9.3037 6.75953 0
      vertex -9.3037 6.75953 1
    endloop
  endfacet
  facet normal -0.866026 0.5 0
    outer loop
      vertex -10.5058 4.67747 0
      vertex -9.3037 6.75953 1
      vertex -9.3037 6.75953 0
    endloop
  endfacet
  facet normal -0.866026 0.5 0
    outer loop
      vertex -9.3037 6.75953 1
      vertex -10.5058 4.67747 0
      vertex -10.5058 4.67747 1
    endloop
  endfacet
  facet normal -0.951056 0.309017 0
    outer loop
      vertex -11.2487 2.39098 0
      vertex -10.5058 4.67747 1
      vertex -10.5058 4.67747 0
    endloop
  endfacet
  facet normal -0.951056 0.309017 0
    outer loop
      vertex -10.5058 4.67747 1
      vertex -11.2487 2.39098 0
      vertex -11.2487 2.39098 1
    endloop
  endfacet
  facet normal -0.994522 0.104529 0
    outer loop
      vertex -11.5 6.51532e-015 0
      vertex -11.2487 2.39098 1
      vertex -11.2487 2.39098 0
    endloop
  endfacet
  facet normal -0.994522 0.104529 0
    outer loop
      vertex -11.2487 2.39098 1
      vertex -11.5 6.51532e-015 0
      vertex -11.5 6.51532e-015 1
    endloop
  endfacet
  facet normal -0.994522 -0.104529 0
    outer loop
      vertex -11.2487 -2.39098 0
      vertex -11.5 6.51532e-015 1
      vertex -11.5 6.51532e-015 0
    endloop
  endfacet
  facet normal -0.994522 -0.104529 0
    outer loop
      vertex -11.5 6.51532e-015 1
      vertex -11.2487 -2.39098 0
      vertex -11.2487 -2.39098 1
    endloop
  endfacet
  facet normal -0.951056 -0.309017 0
    outer loop
      vertex -10.5058 -4.67747 0
      vertex -11.2487 -2.39098 1
      vertex -11.2487 -2.39098 0
    endloop
  endfacet
  facet normal -0.951056 -0.309017 0
    outer loop
      vertex -11.2487 -2.39098 1
      vertex -10.5058 -4.67747 0
      vertex -10.5058 -4.67747 1
    endloop
  endfacet
  facet normal -0.866026 -0.5 0
    outer loop
      vertex -9.3037 -6.75953 0
      vertex -10.5058 -4.67747 1
      vertex -10.5058 -4.67747 0
    endloop
  endfacet
  facet normal -0.866026 -0.5 0
    outer loop
      vertex -10.5058 -4.67747 1
      vertex -9.3037 -6.75953 0
      vertex -9.3037 -6.75953 1
    endloop
  endfacet
  facet normal -0.743145 -0.669131 0
    outer loop
      vertex -7.695 -8.54617 0
      vertex -9.3037 -6.75953 1
      vertex -9.3037 -6.75953 0
    endloop
  endfacet
  facet normal -0.743145 -0.669131 0
    outer loop
      vertex -9.3037 -6.75953 1
      vertex -7.695 -8.54617 0
      vertex -7.695 -8.54617 1
    endloop
  endfacet
  facet normal -0.587785 -0.809017 0
    outer loop
      vertex -7.695 -8.54617 0
      vertex -5.75 -9.95929 1
      vertex -7.695 -8.54617 1
    endloop
  endfacet
  facet normal -0.587785 -0.809017 -0
    outer loop
      vertex -5.75 -9.95929 1
      vertex -7.695 -8.54617 0
      vertex -5.75 -9.95929 0
    endloop
  endfacet
  facet normal -0.406737 -0.913545 0
    outer loop
      vertex -5.75 -9.95929 0
      vertex -3.5537 -10.9372 1
      vertex -5.75 -9.95929 1
    endloop
  endfacet
  facet normal -0.406737 -0.913545 -0
    outer loop
      vertex -3.5537 -10.9372 1
      vertex -5.75 -9.95929 0
      vertex -3.5537 -10.9372 0
    endloop
  endfacet
  facet normal -0.207912 -0.978148 0
    outer loop
      vertex -3.5537 -10.9372 0
      vertex -1.20208 -11.437 1
      vertex -3.5537 -10.9372 1
    endloop
  endfacet
  facet normal -0.207912 -0.978148 -0
    outer loop
      vertex -1.20208 -11.437 1
      vertex -3.5537 -10.9372 0
      vertex -1.20208 -11.437 0
    endloop
  endfacet
  facet normal 0 -1 0
    outer loop
      vertex -1.20208 -11.437 0
      vertex 1.20208 -11.437 1
      vertex -1.20208 -11.437 1
    endloop
  endfacet
  facet normal 0 -1 -0
    outer loop
      vertex 1.20208 -11.437 1
      vertex -1.20208 -11.437 0
      vertex 1.20208 -11.437 0
    endloop
  endfacet
  facet normal 0.207912 -0.978148 0
    outer loop
      vertex 1.20208 -11.437 0
      vertex 3.5537 -10.9372 1
      vertex 1.20208 -11.437 1
    endloop
  endfacet
  facet normal 0.207912 -0.978148 0
    outer loop
      vertex 3.5537 -10.9372 1
      vertex 1.20208 -11.437 0
      vertex 3.5537 -10.9372 0
    endloop
  endfacet
  facet normal 0.406737 -0.913545 0
    outer loop
      vertex 3.5537 -10.9372 0
      vertex 5.75 -9.95929 1
      vertex 3.5537 -10.9372 1
    endloop
  endfacet
  facet normal 0.406737 -0.913545 0
    outer loop
      vertex 5.75 -9.95929 1
      vertex 3.5537 -10.9372 0
      vertex 5.75 -9.95929 0
    endloop
  endfacet
  facet normal 0.587785 -0.809017 0
    outer loop
      vertex 5.75 -9.95929 0
      vertex 7.695 -8.54617 1
      vertex 5.75 -9.95929 1
    endloop
  endfacet
  facet normal 0.587785 -0.809017 0
    outer loop
      vertex 7.695 -8.54617 1
      vertex 5.75 -9.95929 0
      vertex 7.695 -8.54617 0
    endloop
  endfacet
  facet normal 0.743145 -0.669131 0
    outer loop
      vertex 7.695 -8.54617 1
      vertex 9.3037 -6.75953 0
      vertex 9.3037 -6.75953 1
    endloop
  endfacet
  facet normal 0.743145 -0.669131 0
    outer loop
      vertex 9.3037 -6.75953 0
      vertex 7.695 -8.54617 1
      vertex 7.695 -8.54617 0
    endloop
  endfacet
  facet normal 0.866026 -0.5 0
    outer loop
      vertex 9.3037 -6.75953 1
      vertex 10.5058 -4.67747 0
      vertex 10.5058 -4.67747 1
    endloop
  endfacet
  facet normal 0.866026 -0.5 0
    outer loop
      vertex 10.5058 -4.67747 0
      vertex 9.3037 -6.75953 1
      vertex 9.3037 -6.75953 0
    endloop
  endfacet
  facet normal 0.951056 -0.309017 0
    outer loop
      vertex 10.5058 -4.67747 1
      vertex 11.2487 -2.39098 0
      vertex 11.2487 -2.39098 1
    endloop
  endfacet
  facet normal 0.951056 -0.309017 0
    outer loop
      vertex 11.2487 -2.39098 0
      vertex 10.5058 -4.67747 1
      vertex 10.5058 -4.67747 0
    endloop
  endfacet
  facet normal 0.994522 -0.104529 0
    outer loop
      vertex 11.2487 -2.39098 1
      vertex 11.5 0 0
      vertex 11.5 0 1
    endloop
  endfacet
  facet normal 0.994522 -0.104529 0
    outer loop
      vertex 11.5 0 0
      vertex 11.2487 -2.39098 1
      vertex 11.2487 -2.39098 0
    endloop
  endfacet
  facet normal 0 0 -1
    outer loop
      vertex 11.2487 -2.39098 0
      vertex 11.2487 2.39098 0
      vertex 11.5 0 0
    endloop
  endfacet
  facet normal 0 0 -1
    outer loop
      vertex 10.5058 -4.67747 0
      vertex 11.2487 2.39098 0
      vertex 11.2487 -2.39098 0
    endloop
  endfacet
  facet normal 0 0 -1
    outer loop
      vertex 10.5058 -4.67747 0
      vertex 10.5058 4.67747 0
      vertex 11.2487 2.39098 0
    endloop
  endfacet
  facet normal 0 0 -1
    outer loop
      vertex 9.3037 -6.75953 0
      vertex 10.5058 4.67747 0
      vertex 10.5058 -4.67747 0
    endloop
  endfacet
  facet normal 0 0 -1
    outer loop
      vertex 9.3037 -6.75953 0
      vertex 9.3037 6.75953 0
      vertex 10.5058 4.67747 0
    endloop
  endfacet
  facet normal 0 0 -1
    outer loop
      vertex 7.695 -8.54617 0
      vertex 9.3037 6.75953 0
      vertex 9.3037 -6.75953 0
    endloop
  endfacet
  facet normal 0 0 -1
    outer loop
      vertex 7.695 -8.54617 0
      vertex 7.695 8.54617 0
      vertex 9.3037 6.75953 0
    endloop
  endfacet
  facet normal 0 0 -1
    outer loop
      vertex 5.75 -9.95929 0
      vertex 7.695 8.54617 0
      vertex 7.695 -8.54617 0
    endloop
  endfacet
  facet normal 0 0 -1
    outer loop
      vertex 5.75 -9.95929 0
      vertex 5.75 9.95929 0
      vertex 7.695 8.54617 0
    endloop
  endfacet
  facet normal 0 0 -1
    outer loop
      vertex 3.5537 -10.9372 0
      vertex 5.75 9.95929 0
      vertex 5.75 -9.95929 0
    endloop
  endfacet
  facet normal 0 0 -1
    outer loop
      vertex 3.5537 -10.9372 0
      vertex 3.5537 10.9372 0
      vertex 5.75 9.95929 0
    endloop
  endfacet
  facet normal 0 0 -1
    outer loop
      vertex 1.20208 -11.437 0
      vertex 3.5537 10.9372 0
      vertex 3.5537 -10.9372 0
    endloop
  endfacet
  facet normal 0 0 -1
    outer loop
      vertex 1.20208 -11.437 0
      vertex 1.20208 11.437 0
      vertex 3.5537 10.9372 0
    endloop
  endfacet
  facet normal 0 0 -1
    outer loop
      vertex -1.20208 -11.437 0
      vertex 1.20208 11.437 0
      vertex 1.20208 -11.437 0
    endloop
  endfacet
  facet normal 0 0 -1
    outer loop
      vertex -1.20208 -11.437 0
      vertex -1.20208 11.437 0
      vertex 1.20208 11.437 0
    endloop
  endfacet
  facet normal 0 0 -1
    outer loop
      vertex -3.5537 -10.9372 0
      vertex -1.20208 11.437 0
      vertex -1.20208 -11.437 0
    endloop
  endfacet
  facet normal 0 0 -1
    outer loop
      vertex -3.5537 -10.9372 0
      vertex -3.5537 10.9372 0
      vertex -1.20208 11.437 0
    endloop
  endfacet
  facet normal 0 0 -1
    outer loop
      vertex -5.75 -9.95929 0
      vertex -3.5537 10.9372 0
      vertex -3.5537 -10.9372 0
    endloop
  endfacet
  facet normal 0 0 -1
    outer loop
      vertex -5.75 -9.95929 0
      vertex -5.75 9.95929 0
      vertex -3.5537 10.9372 0
    endloop
  endfacet
  facet normal 0 0 -1
    outer loop
      vertex -7.695 -8.54617 0
      vertex -5.75 9.95929 0
      vertex -5.75 -9.95929 0
    endloop
  endfacet
  facet normal 0 0 -1
    outer loop
      vertex -7.695 -8.54617 0
      vertex -7.695 8.54617 0
      vertex -5.75 9.95929 0
    endloop
  endfacet
  facet normal 0 0 -1
    outer loop
      vertex -9.3037 -6.75953 0
      vertex -7.695 8.54617 0
      vertex -7.695 -8.54617 0
    endloop
  endfacet
  facet normal 0 0 -1
    outer loop
      vertex -9.3037 -6.75953 0
      vertex -9.3037 6.75953 0
      vertex -7.695 8.54617 0
    endloop
  endfacet
  facet normal 0 0 -1
    outer loop
      vertex -10.5058 -4.67747 0
      vertex -9.3037 6.75953 0
      vertex -9.3037 -6.75953 0
    endloop
  endfacet
  facet normal 0 0 -1
    outer loop
      vertex -10.5058 -4.67747 0
      vertex -10.5058 4.67747 0
      vertex -9.3037 6.75953 0
    endloop
  endfacet
  facet normal 0 0 -1
    outer loop
      vertex -11.2487 -2.39098 0
      vertex -10.5058 4.67747 0
      vertex -10.5058 -4.67747 0
    endloop
  endfacet
  facet normal 0 0 -1
    outer loop
      vertex -11.2487 -2.39098 0
      vertex -11.2487 2.39098 0
      vertex -10.5058 4.67747 0
    endloop
  endfacet
  facet normal 0 -0 -1
    outer loop
      vertex -11.2487 2.39098 0
      vertex -11.2487 -2.39098 0
      vertex -11.5 6.51532e-015 0
    endloop
  endfacet
  facet normal 0 0 1
    outer loop
      vertex 11.2487 2.39098 1
      vertex 11.2487 -2.39098 1
      vertex 11.5 0 1
    endloop
  endfacet
  facet normal 0 0 1
    outer loop
      vertex 10.5058 4.67747 1
      vertex 11.2487 -2.39098 1
      vertex 11.2487 2.39098 1
    endloop
  endfacet
  facet normal 0 0 1
    outer loop
      vertex 10.5058 4.67747 1
      vertex 10.5058 -4.67747 1
      vertex 11.2487 -2.39098 1
    endloop
  endfacet
  facet normal 0 0 1
    outer loop
      vertex 9.3037 6.75953 1
      vertex 10.5058 -4.67747 1
      vertex 10.5058 4.67747 1
    endloop
  endfacet
  facet normal 0 0 1
    outer loop
      vertex 9.3037 6.75953 1
      vertex 9.3037 -6.75953 1
      vertex 10.5058 -4.67747 1
    endloop
  endfacet
  facet normal 0 0 1
    outer loop
      vertex 7.695 8.54617 1
      vertex 9.3037 -6.75953 1
      vertex 9.3037 6.75953 1
    endloop
  endfacet
  facet normal 0 0 1
    outer loop
      vertex 7.695 8.54617 1
      vertex 7.695 -8.54617 1
      vertex 9.3037 -6.75953 1
    endloop
  endfacet
  facet normal 0 0 1
    outer loop
      vertex 5.75 9.95929 1
      vertex 7.695 -8.54617 1
      vertex 7.695 8.54617 1
    endloop
  endfacet
  facet normal 0 0 1
    outer loop
      vertex 5.75 9.95929 1
      vertex 5.75 -9.95929 1
      vertex 7.695 -8.54617 1
    endloop
  endfacet
  facet normal 0 0 1
    outer loop
      vertex 3.5537 10.9372 1
      vertex 5.75 -9.95929 1
      vertex 5.75 9.95929 1
    endloop
  endfacet
  facet normal 0 0 1
    outer loop
      vertex 3.5537 10.9372 1
      vertex 3.5537 -10.9372 1
      vertex 5.75 -9.95929 1
    endloop
  endfacet
  facet normal 0 0 1
    outer loop
      vertex 1.20208 11.437 1
      vertex 3.5537 -10.9372 1
      vertex 3.5537 10.9372 1
    endloop
  endfacet
  facet normal 0 0 1
    outer loop
      vertex 1.20208 11.437 1
      vertex 1.20208 -11.437 1
      vertex 3.5537 -10.9372 1
    endloop
  endfacet
  facet normal -0 0 1
    outer loop
      vertex -1.20208 11.437 1
      vertex 1.20208 -11.437 1
      vertex 1.20208 11.437 1
    endloop
  endfacet
  facet normal 0 0 1
    outer loop
      vertex -1.20208 11.437 1
      vertex -1.20208 -11.437 1
      vertex 1.20208 -11.437 1
    endloop
  endfacet
  facet normal -0 0 1
    outer loop
      vertex -3.5537 10.9372 1
      vertex -1.20208 -11.437 1
      vertex -1.20208 11.437 1
    endloop
  endfacet
  facet normal 0 0 1
    outer loop
      vertex -3.5537 10.9372 1
      vertex -3.5537 -10.9372 1
      vertex -1.20208 -11.437 1
    endloop
  endfacet
  facet normal -0 0 1
    outer loop
      vertex -5.75 9.95929 1
      vertex -3.5537 -10.9372 1
      vertex -3.5537 10.9372 1
    endloop
  endfacet
  facet normal 0 0 1
    outer loop
      vertex -5.75 9.95929 1
      vertex -5.75 -9.95929 1
      vertex -3.5537 -10.9372 1
    endloop
  endfacet
  facet normal -0 0 1
    outer loop
      vertex -7.695 8.54617 1
      vertex -5.75 -9.95929 1
      vertex -5.75 9.95929 1
    endloop
  endfacet
  facet normal 0 0 1
    outer loop
      vertex -7.695 8.54617 1
      vertex -7.695 -8.54617 1
      vertex -5.75 -9.95929 1
    endloop
  endfacet
  facet normal -0 0 1
    outer loop
      vertex -9.3037 6.75953 1
      vertex -7.695 -8.54617 1
      vertex -7.695 8.54617 1
    endloop
  endfacet
  facet normal 0 0 1
    outer loop
      vertex -9.3037 6.75953 1
      vertex -9.3037 -6.75953 1
      vertex -7.695 -8.54617 1
    endloop
  endfacet
  facet normal -0 0 1
    outer loop
      vertex -10.5058 4.67747 1
      vertex -9.3037 -6.75953 1
      vertex -9.3037 6.75953 1
    endloop
  endfacet
  facet normal 0 0 1
    outer loop
      vertex -10.5058 4.67747 1
      vertex -10.5058 -4.67747 1
      vertex -9.3037 -6.75953 1
    endloop
  endfacet
  facet normal -0 0 1
    outer loop
      vertex -11.2487 2.39098 1
      vertex -10.5058 -4.67747 1
      vertex -10.5058 4.67747 1
    endloop
  endfacet
  facet normal 0 0 1
    outer loop
      vertex -11.2487 2.39098 1
      vertex -11.2487 -2.39098 1
      vertex -10.5058 -4.67747 1
    endloop
  endfacet
  facet normal 0 -0 1
    outer loop
      vertex -11.2487 -2.39098 1
      vertex -11.2487 2.39098 1
      vertex -11.5 6.51532e-015 1
    endloop
  endfacet
endsolid OpenSCAD_Model
