<?xml version="1.0" encoding="UTF-8" standalone="no"?>
<!DOCTYPE svg PUBLIC "-//W3C//DTD SVG 20010904//EN"
              "http://www.w3.org/TR/2001/REC-SVG-20010904/DTD/svg10.dtd">

<svg xmlns="http://www.w3.org/2000/svg"
     width="8.95528in" height="9.8674in"
     viewBox="0 0 540 595">
  <path id="Selection"
        fill="none" stroke="black" stroke-width="1"
        d="M 120.00,20.28
           C 124.35,22.03 136.62,23.37 141.00,21.89
             146.57,20.01 153.83,14.58 162.00,12.82
             162.00,12.82 180.00,11.04 180.00,11.04
             180.00,11.04 188.00,11.82 188.00,11.82
             188.00,11.82 195.00,10.94 195.00,10.94
             195.00,10.94 208.00,10.94 208.00,10.94
             208.00,10.94 218.00,9.00 218.00,9.00
             219.88,13.46 222.30,18.17 219.98,23.00
             218.85,25.35 216.33,27.56 215.65,30.00
             214.01,35.93 220.32,36.31 223.72,38.50
             223.72,38.50 229.04,42.47 229.04,42.47
             235.25,46.11 243.99,44.97 248.91,47.43
             252.09,49.02 253.87,52.17 257.01,54.58
             260.59,57.34 264.01,57.78 268.00,59.46
             272.69,61.44 278.53,65.97 283.91,64.67
             294.33,62.16 289.31,44.12 302.00,44.55
             304.99,44.65 310.19,47.95 314.00,49.09
             328.38,53.40 346.17,59.81 361.00,55.00
             364.02,60.87 364.45,60.92 371.00,61.00
             371.42,59.08 371.60,57.23 373.43,56.04
             375.42,54.74 385.61,55.83 387.57,57.17
             390.88,59.45 391.31,67.59 390.00,71.00
             388.12,66.78 385.88,63.04 382.00,60.29
             379.21,58.31 375.81,58.51 374.70,62.18
             373.46,66.32 381.29,75.03 383.49,79.00
             383.49,79.00 387.81,88.00 387.81,88.00
             387.81,88.00 399.77,104.00 399.77,104.00
             399.77,104.00 406.65,118.00 406.65,118.00
             406.65,118.00 414.35,127.00 414.35,127.00
             419.61,134.62 416.69,142.89 421.01,150.00
             424.10,155.09 428.95,157.04 432.30,162.00
             435.70,167.04 435.03,172.26 443.09,179.70
             443.09,179.70 466.94,198.29 466.94,198.29
             468.71,200.01 470.06,201.37 469.77,204.00
             469.84,206.34 466.59,211.27 469.77,214.41
             470.95,215.81 474.10,216.28 476.00,217.06
             480.36,218.84 481.83,220.22 487.00,220.67
             493.66,221.25 499.92,217.89 506.00,215.80
             506.00,215.80 513.00,213.88 513.00,213.88
             513.00,213.88 518.00,211.39 518.00,211.39
             524.33,208.81 521.39,211.57 532.00,206.00
             532.00,220.55 528.95,224.84 523.42,238.00
             517.46,252.22 510.83,267.19 500.70,279.00
             500.70,279.00 485.00,294.00 485.00,294.00
             485.00,294.00 473.17,306.00 473.17,306.00
             473.17,306.00 460.71,321.00 460.71,321.00
             460.71,321.00 453.28,329.00 453.28,329.00
             449.64,333.57 450.47,336.22 448.00,339.79
             446.25,342.34 444.14,343.07 442.57,346.10
             439.54,351.93 441.61,358.96 442.57,365.00
             443.61,371.63 443.50,378.52 445.44,385.00
             448.43,395.01 450.98,391.59 451.00,404.00
             451.00,404.00 451.00,426.00 451.00,426.00
             450.99,430.03 451.16,434.27 448.91,437.83
             446.09,442.30 438.58,446.22 434.00,448.85
             427.31,452.69 408.78,464.66 404.73,470.29
             398.90,478.40 408.82,493.80 405.26,503.00
             401.97,511.50 388.93,512.31 384.74,518.19
             381.76,522.36 384.04,529.38 379.72,538.00
             376.65,544.15 372.40,546.83 368.21,552.01
             354.25,569.27 344.16,582.71 320.00,583.00
             305.23,583.17 311.64,583.30 298.00,585.42
             293.62,586.11 289.87,587.61 286.02,584.67
             278.34,578.81 284.60,576.11 283.31,571.00
             282.82,569.03 279.51,564.20 278.31,562.00
             278.31,562.00 273.10,550.00 273.10,550.00
             268.92,540.92 262.70,536.35 258.70,525.00
             255.00,514.52 256.48,503.70 251.69,493.00
             244.39,476.68 231.29,461.64 232.04,443.00
             232.26,437.54 235.57,426.78 238.18,422.00
             242.77,413.59 247.82,410.64 245.71,400.00
             245.71,400.00 243.52,392.00 243.52,392.00
             243.52,392.00 241.79,380.00 241.79,380.00
             240.24,372.81 233.28,355.29 229.55,349.00
             229.55,349.00 210.32,323.00 210.32,323.00
             206.66,316.84 209.41,314.22 210.32,308.00
             210.32,308.00 211.30,300.00 211.30,300.00
             212.27,293.29 214.10,290.51 213.80,283.00
             213.71,280.86 213.92,276.91 212.94,275.15
             211.89,273.24 202.29,268.86 200.00,268.30
             200.00,268.30 186.00,268.98 186.00,268.98
             177.20,268.62 178.33,262.49 172.68,257.57
             168.51,253.94 163.18,254.01 158.00,254.00
             152.77,253.99 148.08,253.66 143.00,255.22
             143.00,255.22 119.00,264.46 119.00,264.46
             119.00,264.46 101.00,263.00 101.00,263.00
             86.52,262.94 76.38,268.50 68.00,265.44
             61.18,262.95 57.11,257.85 52.00,253.09
             47.26,248.67 38.06,241.19 34.72,236.00
             32.00,231.76 32.87,228.38 30.11,224.00
             25.65,216.91 13.76,206.36 10.79,199.00
             9.30,195.07 10.73,192.28 10.79,189.00
             10.72,185.52 9.56,184.38 9.16,182.00
             8.55,178.34 11.01,174.46 12.32,171.00
             15.05,163.76 16.90,158.79 18.00,151.00
             18.00,151.00 19.70,134.00 19.70,134.00
             19.44,130.23 16.56,125.45 18.98,120.00
             18.98,120.00 28.38,105.00 28.38,105.00
             28.38,105.00 35.47,97.00 35.47,97.00
             35.47,97.00 40.78,89.09 40.78,89.09
             40.78,89.09 53.30,75.70 53.30,75.70
             56.19,73.46 59.70,73.18 63.00,71.88
             67.09,70.28 69.87,67.98 73.00,64.96
             85.06,53.33 79.98,48.42 87.61,39.10
             91.01,34.95 98.45,31.52 103.00,28.22
             103.00,28.22 115.00,17.00 115.00,17.00
             116.78,18.40 117.82,19.40 120.00,20.28 Z" />
</svg>
