solid OpenSCAD_Model
  facet normal -0.994522 -0.104528 0
    outer loop
      vertex 3.6 0 5
      vertex 3.52133 0.748482 10
      vertex 3.52133 0.748482 5
    endloop
  endfacet
  facet normal -0.994522 -0.104528 0
    outer loop
      vertex 3.52133 0.748482 10
      vertex 3.6 0 5
      vertex 3.6 0 10
    endloop
  endfacet
  facet normal 0.994522 -0.104528 0
    outer loop
      vertex -3.6 0 10
      vertex -3.52133 0.748482 5
      vertex -3.52133 0.748482 10
    endloop
  endfacet
  facet normal 0.994522 -0.104528 0
    outer loop
      vertex -3.52133 0.748482 5
      vertex -3.6 0 10
      vertex -3.6 0 5
    endloop
  endfacet
  facet normal 0 -1 0
    outer loop
      vertex -0.376302 3.58028 0
      vertex 0.376302 3.58028 10
      vertex -0.376302 3.58028 10
    endloop
  endfacet
  facet normal 0 -1 -0
    outer loop
      vertex 0.376302 3.58028 10
      vertex -0.376302 3.58028 0
      vertex 0.376302 3.58028 0
    endloop
  endfacet
  facet normal 0 1 -0
    outer loop
      vertex 0.376302 -3.58028 0
      vertex -0.376302 -3.58028 10
      vertex 0.376302 -3.58028 10
    endloop
  endfacet
  facet normal 0 1 0
    outer loop
      vertex -0.376302 -3.58028 10
      vertex 0.376302 -3.58028 0
      vertex -0.376302 -3.58028 0
    endloop
  endfacet
  facet normal -0.743145 -0.669131 0
    outer loop
      vertex 2.91246 2.11603 0
      vertex 2.40887 2.67532 10
      vertex 2.40887 2.67532 0
    endloop
  endfacet
  facet normal -0.743145 -0.669131 0
    outer loop
      vertex 2.40887 2.67532 10
      vertex 2.91246 2.11603 0
      vertex 2.91246 2.11603 10
    endloop
  endfacet
  facet normal 0.743145 -0.669131 0
    outer loop
      vertex -2.91246 2.11603 10
      vertex -2.40887 2.67532 0
      vertex -2.40887 2.67532 10
    endloop
  endfacet
  facet normal 0.743145 -0.669131 0
    outer loop
      vertex -2.40887 2.67532 0
      vertex -2.91246 2.11603 10
      vertex -2.91246 2.11603 0
    endloop
  endfacet
  facet normal 0.866025 -0.5 0
    outer loop
      vertex -3.28876 1.46425 10
      vertex -2.91246 2.11603 0
      vertex -2.91246 2.11603 10
    endloop
  endfacet
  facet normal 0.866025 -0.5 0
    outer loop
      vertex -2.91246 2.11603 0
      vertex -3.28876 1.46425 10
      vertex -3.28876 1.46425 0
    endloop
  endfacet
  facet normal 0.406737 -0.913545 0
    outer loop
      vertex -1.8 3.11769 0
      vertex -1.11246 3.4238 10
      vertex -1.8 3.11769 10
    endloop
  endfacet
  facet normal 0.406737 -0.913545 0
    outer loop
      vertex -1.11246 3.4238 10
      vertex -1.8 3.11769 0
      vertex -1.11246 3.4238 0
    endloop
  endfacet
  facet normal -0.866025 0.5 0
    outer loop
      vertex 2.91246 -2.11603 0
      vertex 3.28876 -1.46425 10
      vertex 3.28876 -1.46425 0
    endloop
  endfacet
  facet normal -0.866025 0.5 0
    outer loop
      vertex 3.28876 -1.46425 10
      vertex 2.91246 -2.11603 0
      vertex 2.91246 -2.11603 10
    endloop
  endfacet
  facet normal -0.866025 -0.5 0
    outer loop
      vertex 3.28876 1.46425 0
      vertex 2.91246 2.11603 10
      vertex 2.91246 2.11603 0
    endloop
  endfacet
  facet normal -0.866025 -0.5 0
    outer loop
      vertex 2.91246 2.11603 10
      vertex 3.28876 1.46425 0
      vertex 3.28876 1.46425 10
    endloop
  endfacet
  facet normal -0.951056 -0.309017 -0
    outer loop
      vertex 3.43961 1 5
      vertex 3.28876 1.46425 0
      vertex 3.43961 1 0
    endloop
  endfacet
  facet normal -0.951056 -0.309017 0
    outer loop
      vertex 3.28876 1.46425 0
      vertex 3.43961 1 5
      vertex 3.28876 1.46425 10
    endloop
  endfacet
  facet normal -0.951057 -0.309017 -0
    outer loop
      vertex 3.52133 0.748482 10
      vertex 3.43961 1 5
      vertex 3.52133 0.748482 5
    endloop
  endfacet
  facet normal -0.951056 -0.309017 -9.9367e-009
    outer loop
      vertex 3.43961 1 5
      vertex 3.52133 0.748482 10
      vertex 3.28876 1.46425 10
    endloop
  endfacet
  facet normal -0.406737 -0.913545 0
    outer loop
      vertex 1.11246 3.4238 0
      vertex 1.8 3.11769 10
      vertex 1.11246 3.4238 10
    endloop
  endfacet
  facet normal -0.406737 -0.913545 -0
    outer loop
      vertex 1.8 3.11769 10
      vertex 1.11246 3.4238 0
      vertex 1.8 3.11769 0
    endloop
  endfacet
  facet normal -0.207911 -0.978148 0
    outer loop
      vertex 0.376302 3.58028 0
      vertex 1.11246 3.4238 10
      vertex 0.376302 3.58028 10
    endloop
  endfacet
  facet normal -0.207911 -0.978148 -0
    outer loop
      vertex 1.11246 3.4238 10
      vertex 0.376302 3.58028 0
      vertex 1.11246 3.4238 0
    endloop
  endfacet
  facet normal -0.587785 -0.809017 0
    outer loop
      vertex 1.8 3.11769 0
      vertex 2.40887 2.67532 10
      vertex 1.8 3.11769 10
    endloop
  endfacet
  facet normal -0.587785 -0.809017 -0
    outer loop
      vertex 2.40887 2.67532 10
      vertex 1.8 3.11769 0
      vertex 2.40887 2.67532 0
    endloop
  endfacet
  facet normal 0.951056 -0.309017 0
    outer loop
      vertex -3.28876 1.46425 10
      vertex -3.43961 1 5
      vertex -3.28876 1.46425 0
    endloop
  endfacet
  facet normal 0.951056 -0.309017 -9.9367e-009
    outer loop
      vertex -3.52133 0.748482 10
      vertex -3.43961 1 5
      vertex -3.28876 1.46425 10
    endloop
  endfacet
  facet normal 0.951057 -0.309017 0
    outer loop
      vertex -3.43961 1 5
      vertex -3.52133 0.748482 10
      vertex -3.52133 0.748482 5
    endloop
  endfacet
  facet normal 0.951056 -0.309017 0
    outer loop
      vertex -3.28876 1.46425 0
      vertex -3.43961 1 5
      vertex -3.43961 1 0
    endloop
  endfacet
  facet normal 0.587785 -0.809017 0
    outer loop
      vertex -2.40887 2.67532 0
      vertex -1.8 3.11769 10
      vertex -2.40887 2.67532 10
    endloop
  endfacet
  facet normal 0.587785 -0.809017 0
    outer loop
      vertex -1.8 3.11769 10
      vertex -2.40887 2.67532 0
      vertex -1.8 3.11769 0
    endloop
  endfacet
  facet normal 0.207911 -0.978148 0
    outer loop
      vertex -1.11246 3.4238 0
      vertex -0.376302 3.58028 10
      vertex -1.11246 3.4238 10
    endloop
  endfacet
  facet normal 0.207911 -0.978148 0
    outer loop
      vertex -0.376302 3.58028 10
      vertex -1.11246 3.4238 0
      vertex -0.376302 3.58028 0
    endloop
  endfacet
  facet normal -0.207911 0.978148 0
    outer loop
      vertex 1.11246 -3.4238 0
      vertex 0.376302 -3.58028 10
      vertex 1.11246 -3.4238 10
    endloop
  endfacet
  facet normal -0.207911 0.978148 0
    outer loop
      vertex 0.376302 -3.58028 10
      vertex 1.11246 -3.4238 0
      vertex 0.376302 -3.58028 0
    endloop
  endfacet
  facet normal -0.951056 0.309017 0
    outer loop
      vertex 3.43961 -1 0
      vertex 3.28876 -1.46425 0
      vertex 3.43961 -1 5
    endloop
  endfacet
  facet normal -0.951057 0.309017 0
    outer loop
      vertex 3.43961 -1 5
      vertex 3.52133 -0.748482 10
      vertex 3.52133 -0.748482 5
    endloop
  endfacet
  facet normal -0.951056 0.309017 0
    outer loop
      vertex 3.28876 -1.46425 10
      vertex 3.43961 -1 5
      vertex 3.28876 -1.46425 0
    endloop
  endfacet
  facet normal -0.951056 0.309017 -9.9367e-009
    outer loop
      vertex 3.43961 -1 5
      vertex 3.28876 -1.46425 10
      vertex 3.52133 -0.748482 10
    endloop
  endfacet
  facet normal -0.994522 0.104528 0
    outer loop
      vertex 3.52133 -0.748482 5
      vertex 3.6 0 10
      vertex 3.6 0 5
    endloop
  endfacet
  facet normal -0.994522 0.104528 0
    outer loop
      vertex 3.6 0 10
      vertex 3.52133 -0.748482 5
      vertex 3.52133 -0.748482 10
    endloop
  endfacet
  facet normal 0.866025 0.5 0
    outer loop
      vertex -2.91246 -2.11603 10
      vertex -3.28876 -1.46425 0
      vertex -3.28876 -1.46425 10
    endloop
  endfacet
  facet normal 0.866025 0.5 0
    outer loop
      vertex -3.28876 -1.46425 0
      vertex -2.91246 -2.11603 10
      vertex -2.91246 -2.11603 0
    endloop
  endfacet
  facet normal 0.994522 0.104528 0
    outer loop
      vertex -3.52133 -0.748482 10
      vertex -3.6 0 5
      vertex -3.6 0 10
    endloop
  endfacet
  facet normal 0.994522 0.104528 0
    outer loop
      vertex -3.6 0 5
      vertex -3.52133 -0.748482 10
      vertex -3.52133 -0.748482 5
    endloop
  endfacet
  facet normal -0.587785 0.809017 0
    outer loop
      vertex 2.40887 -2.67532 0
      vertex 1.8 -3.11769 10
      vertex 2.40887 -2.67532 10
    endloop
  endfacet
  facet normal -0.587785 0.809017 0
    outer loop
      vertex 1.8 -3.11769 10
      vertex 2.40887 -2.67532 0
      vertex 1.8 -3.11769 0
    endloop
  endfacet
  facet normal -0.406737 0.913545 0
    outer loop
      vertex 1.8 -3.11769 0
      vertex 1.11246 -3.4238 10
      vertex 1.8 -3.11769 10
    endloop
  endfacet
  facet normal -0.406737 0.913545 0
    outer loop
      vertex 1.11246 -3.4238 10
      vertex 1.8 -3.11769 0
      vertex 1.11246 -3.4238 0
    endloop
  endfacet
  facet normal 0.743145 0.669131 0
    outer loop
      vertex -2.40887 -2.67532 10
      vertex -2.91246 -2.11603 0
      vertex -2.91246 -2.11603 10
    endloop
  endfacet
  facet normal 0.743145 0.669131 0
    outer loop
      vertex -2.91246 -2.11603 0
      vertex -2.40887 -2.67532 10
      vertex -2.40887 -2.67532 0
    endloop
  endfacet
  facet normal 0.951057 0.309017 0
    outer loop
      vertex -3.52133 -0.748482 10
      vertex -3.43961 -1 5
      vertex -3.52133 -0.748482 5
    endloop
  endfacet
  facet normal 0.951056 0.309017 -9.9367e-009
    outer loop
      vertex -3.28876 -1.46425 10
      vertex -3.43961 -1 5
      vertex -3.52133 -0.748482 10
    endloop
  endfacet
  facet normal 0.951056 0.309017 -0
    outer loop
      vertex -3.28876 -1.46425 0
      vertex -3.43961 -1 5
      vertex -3.28876 -1.46425 10
    endloop
  endfacet
  facet normal 0.951056 0.309017 0
    outer loop
      vertex -3.43961 -1 5
      vertex -3.28876 -1.46425 0
      vertex -3.43961 -1 0
    endloop
  endfacet
  facet normal -0.743145 0.669131 0
    outer loop
      vertex 2.40887 -2.67532 0
      vertex 2.91246 -2.11603 10
      vertex 2.91246 -2.11603 0
    endloop
  endfacet
  facet normal -0.743145 0.669131 0
    outer loop
      vertex 2.91246 -2.11603 10
      vertex 2.40887 -2.67532 0
      vertex 2.40887 -2.67532 10
    endloop
  endfacet
  facet normal 0.587785 0.809017 -0
    outer loop
      vertex -1.8 -3.11769 0
      vertex -2.40887 -2.67532 10
      vertex -1.8 -3.11769 10
    endloop
  endfacet
  facet normal 0.587785 0.809017 0
    outer loop
      vertex -2.40887 -2.67532 10
      vertex -1.8 -3.11769 0
      vertex -2.40887 -2.67532 0
    endloop
  endfacet
  facet normal 0.406737 0.913545 -0
    outer loop
      vertex -1.11246 -3.4238 0
      vertex -1.8 -3.11769 10
      vertex -1.11246 -3.4238 10
    endloop
  endfacet
  facet normal 0.406737 0.913545 0
    outer loop
      vertex -1.8 -3.11769 10
      vertex -1.11246 -3.4238 0
      vertex -1.8 -3.11769 0
    endloop
  endfacet
  facet normal 0.207911 0.978148 -0
    outer loop
      vertex -0.376302 -3.58028 0
      vertex -1.11246 -3.4238 10
      vertex -0.376302 -3.58028 10
    endloop
  endfacet
  facet normal 0.207911 0.978148 0
    outer loop
      vertex -1.11246 -3.4238 10
      vertex -0.376302 -3.58028 0
      vertex -1.11246 -3.4238 0
    endloop
  endfacet
  facet normal 1 -0 0
    outer loop
      vertex -4.5 -1 5
      vertex -4.5 1 0
      vertex -4.5 1 5
    endloop
  endfacet
  facet normal 1 0 0
    outer loop
      vertex -4.5 1 0
      vertex -4.5 -1 5
      vertex -4.5 -1 0
    endloop
  endfacet
  facet normal -0 0 -1
    outer loop
      vertex -3.52133 -0.748482 5
      vertex -4.5 -1 5
      vertex -3.6 0 5
    endloop
  endfacet
  facet normal 0 0 -1
    outer loop
      vertex -4.5 -1 5
      vertex -3.52133 -0.748482 5
      vertex -3.43961 -1 5
    endloop
  endfacet
  facet normal 0 0 -1
    outer loop
      vertex -4.5 1 5
      vertex -3.6 0 5
      vertex -4.5 -1 5
    endloop
  endfacet
  facet normal 0 0 -1
    outer loop
      vertex -3.6 0 5
      vertex -4.5 1 5
      vertex -3.52133 0.748482 5
    endloop
  endfacet
  facet normal 0 0 -1
    outer loop
      vertex -3.52133 0.748482 5
      vertex -4.5 1 5
      vertex -3.43961 1 5
    endloop
  endfacet
  facet normal 0 0 -1
    outer loop
      vertex 4.5 -1 5
      vertex 3.6 0 5
      vertex 4.5 1 5
    endloop
  endfacet
  facet normal 0 0 -1
    outer loop
      vertex 4.5 -1 5
      vertex 3.52133 -0.748482 5
      vertex 3.6 0 5
    endloop
  endfacet
  facet normal 0 -0 -1
    outer loop
      vertex 3.52133 -0.748482 5
      vertex 4.5 -1 5
      vertex 3.43961 -1 5
    endloop
  endfacet
  facet normal 0 0 -1
    outer loop
      vertex 3.52133 0.748482 5
      vertex 4.5 1 5
      vertex 3.6 0 5
    endloop
  endfacet
  facet normal -0 0 -1
    outer loop
      vertex 4.5 1 5
      vertex 3.52133 0.748482 5
      vertex 3.43961 1 5
    endloop
  endfacet
  facet normal -1 0 0
    outer loop
      vertex 4.5 -1 0
      vertex 4.5 1 5
      vertex 4.5 1 0
    endloop
  endfacet
  facet normal -1 -0 0
    outer loop
      vertex 4.5 1 5
      vertex 4.5 -1 0
      vertex 4.5 -1 5
    endloop
  endfacet
  facet normal 0 1 -0
    outer loop
      vertex -3.43961 -1 0
      vertex -4.5 -1 5
      vertex -3.43961 -1 5
    endloop
  endfacet
  facet normal 0 1 0
    outer loop
      vertex -4.5 -1 5
      vertex -3.43961 -1 0
      vertex -4.5 -1 0
    endloop
  endfacet
  facet normal 0 1 -0
    outer loop
      vertex 4.5 -1 0
      vertex 3.43961 -1 5
      vertex 4.5 -1 5
    endloop
  endfacet
  facet normal 0 1 0
    outer loop
      vertex 3.43961 -1 5
      vertex 4.5 -1 0
      vertex 3.43961 -1 0
    endloop
  endfacet
  facet normal 0 -1 0
    outer loop
      vertex 3.43961 1 0
      vertex 4.5 1 5
      vertex 3.43961 1 5
    endloop
  endfacet
  facet normal 0 -1 -0
    outer loop
      vertex 4.5 1 5
      vertex 3.43961 1 0
      vertex 4.5 1 0
    endloop
  endfacet
  facet normal 0 -1 0
    outer loop
      vertex -4.5 1 0
      vertex -3.43961 1 5
      vertex -4.5 1 5
    endloop
  endfacet
  facet normal 0 -1 -0
    outer loop
      vertex -3.43961 1 5
      vertex -4.5 1 0
      vertex -3.43961 1 0
    endloop
  endfacet
  facet normal 0.994522 0.104529 0
    outer loop
      vertex 5.1 0 10
      vertex 4.98855 1.06035 0
      vertex 4.98855 1.06035 10
    endloop
  endfacet
  facet normal 0.994522 0.104529 0
    outer loop
      vertex 4.98855 1.06035 0
      vertex 5.1 0 10
      vertex 5.1 0 0
    endloop
  endfacet
  facet normal -0.994522 0.104529 0
    outer loop
      vertex -5.1 0 0
      vertex -4.98855 1.06035 10
      vertex -4.98855 1.06035 0
    endloop
  endfacet
  facet normal -0.994522 0.104529 0
    outer loop
      vertex -4.98855 1.06035 10
      vertex -5.1 0 0
      vertex -5.1 0 10
    endloop
  endfacet
  facet normal 0 1 -0
    outer loop
      vertex 0.533094 5.07206 0
      vertex -0.533094 5.07206 10
      vertex 0.533094 5.07206 10
    endloop
  endfacet
  facet normal 0 1 0
    outer loop
      vertex -0.533094 5.07206 10
      vertex 0.533094 5.07206 0
      vertex -0.533094 5.07206 0
    endloop
  endfacet
  facet normal 0.743145 0.669131 0
    outer loop
      vertex 4.12599 2.9977 10
      vertex 3.41257 3.79004 0
      vertex 3.41257 3.79004 10
    endloop
  endfacet
  facet normal 0.743145 0.669131 0
    outer loop
      vertex 3.41257 3.79004 0
      vertex 4.12599 2.9977 10
      vertex 4.12599 2.9977 0
    endloop
  endfacet
  facet normal -0.743145 0.669131 0
    outer loop
      vertex -4.12599 2.9977 0
      vertex -3.41257 3.79004 10
      vertex -3.41257 3.79004 0
    endloop
  endfacet
  facet normal -0.743145 0.669131 0
    outer loop
      vertex -3.41257 3.79004 10
      vertex -4.12599 2.9977 0
      vertex -4.12599 2.9977 10
    endloop
  endfacet
  facet normal -0.866025 0.5 0
    outer loop
      vertex -4.65908 2.07436 0
      vertex -4.12599 2.9977 10
      vertex -4.12599 2.9977 0
    endloop
  endfacet
  facet normal -0.866025 0.5 0
    outer loop
      vertex -4.12599 2.9977 10
      vertex -4.65908 2.07436 0
      vertex -4.65908 2.07436 10
    endloop
  endfacet
  facet normal -0.406737 0.913545 0
    outer loop
      vertex -1.57599 4.85039 0
      vertex -2.55 4.41673 10
      vertex -1.57599 4.85039 10
    endloop
  endfacet
  facet normal -0.406737 0.913545 0
    outer loop
      vertex -2.55 4.41673 10
      vertex -1.57599 4.85039 0
      vertex -2.55 4.41673 0
    endloop
  endfacet
  facet normal 0 0 -1
    outer loop
      vertex 4.5 -1 0
      vertex 5.1 0 0
      vertex 4.98855 -1.06035 0
    endloop
  endfacet
  facet normal 0 0 -1
    outer loop
      vertex 4.5 -1 0
      vertex 4.98855 -1.06035 0
      vertex 4.65908 -2.07436 0
    endloop
  endfacet
  facet normal 0 0 -1
    outer loop
      vertex 4.5 1 0
      vertex 5.1 0 0
      vertex 4.5 -1 0
    endloop
  endfacet
  facet normal 0 0 -1
    outer loop
      vertex 5.1 0 0
      vertex 4.5 1 0
      vertex 4.98855 1.06035 0
    endloop
  endfacet
  facet normal 0 0 -1
    outer loop
      vertex 3.28876 -1.46425 0
      vertex 4.65908 -2.07436 0
      vertex 4.12599 -2.9977 0
    endloop
  endfacet
  facet normal 0 0 -1
    outer loop
      vertex 4.65908 -2.07436 0
      vertex 3.28876 -1.46425 0
      vertex 4.5 -1 0
    endloop
  endfacet
  facet normal 0 0 -1
    outer loop
      vertex 2.91246 -2.11603 0
      vertex 4.12599 -2.9977 0
      vertex 3.41257 -3.79004 0
    endloop
  endfacet
  facet normal -0 0 -1
    outer loop
      vertex 4.5 -1 0
      vertex 3.28876 -1.46425 0
      vertex 3.43961 -1 0
    endloop
  endfacet
  facet normal 0 0 -1
    outer loop
      vertex 4.12599 -2.9977 0
      vertex 2.91246 -2.11603 0
      vertex 3.28876 -1.46425 0
    endloop
  endfacet
  facet normal 0 0 -1
    outer loop
      vertex 2.40887 -2.67532 0
      vertex 3.41257 -3.79004 0
      vertex 2.55 -4.41673 0
    endloop
  endfacet
  facet normal 0 0 -1
    outer loop
      vertex 3.41257 -3.79004 0
      vertex 2.40887 -2.67532 0
      vertex 2.91246 -2.11603 0
    endloop
  endfacet
  facet normal 0 0 -1
    outer loop
      vertex 2.55 -4.41673 0
      vertex 1.8 -3.11769 0
      vertex 2.40887 -2.67532 0
    endloop
  endfacet
  facet normal 0 0 -1
    outer loop
      vertex 1.57599 -4.85039 0
      vertex 1.8 -3.11769 0
      vertex 2.55 -4.41673 0
    endloop
  endfacet
  facet normal 0 0 -1
    outer loop
      vertex 1.57599 -4.85039 0
      vertex 1.11246 -3.4238 0
      vertex 1.8 -3.11769 0
    endloop
  endfacet
  facet normal 0 0 -1
    outer loop
      vertex 0.533094 -5.07206 0
      vertex 1.11246 -3.4238 0
      vertex 1.57599 -4.85039 0
    endloop
  endfacet
  facet normal 0 0 -1
    outer loop
      vertex 0.533094 -5.07206 0
      vertex 0.376302 -3.58028 0
      vertex 1.11246 -3.4238 0
    endloop
  endfacet
  facet normal 0 0 -1
    outer loop
      vertex 0.533094 -5.07206 0
      vertex -0.376302 -3.58028 0
      vertex 0.376302 -3.58028 0
    endloop
  endfacet
  facet normal 0 0 -1
    outer loop
      vertex -0.533094 -5.07206 0
      vertex -0.376302 -3.58028 0
      vertex 0.533094 -5.07206 0
    endloop
  endfacet
  facet normal 0 0 -1
    outer loop
      vertex -0.533094 -5.07206 0
      vertex -1.11246 -3.4238 0
      vertex -0.376302 -3.58028 0
    endloop
  endfacet
  facet normal 0 0 -1
    outer loop
      vertex -1.57599 -4.85039 0
      vertex -1.11246 -3.4238 0
      vertex -0.533094 -5.07206 0
    endloop
  endfacet
  facet normal 0 0 -1
    outer loop
      vertex -1.57599 -4.85039 0
      vertex -1.8 -3.11769 0
      vertex -1.11246 -3.4238 0
    endloop
  endfacet
  facet normal 0 0 -1
    outer loop
      vertex -2.55 -4.41673 0
      vertex -1.8 -3.11769 0
      vertex -1.57599 -4.85039 0
    endloop
  endfacet
  facet normal -0 0 -1
    outer loop
      vertex -1.8 -3.11769 0
      vertex -2.55 -4.41673 0
      vertex -2.40887 -2.67532 0
    endloop
  endfacet
  facet normal 0 0 -1
    outer loop
      vertex -3.41257 -3.79004 0
      vertex -2.40887 -2.67532 0
      vertex -2.55 -4.41673 0
    endloop
  endfacet
  facet normal -0 0 -1
    outer loop
      vertex -2.40887 -2.67532 0
      vertex -3.41257 -3.79004 0
      vertex -2.91246 -2.11603 0
    endloop
  endfacet
  facet normal 0 0 -1
    outer loop
      vertex -4.12599 -2.9977 0
      vertex -2.91246 -2.11603 0
      vertex -3.41257 -3.79004 0
    endloop
  endfacet
  facet normal -0 0 -1
    outer loop
      vertex -2.91246 -2.11603 0
      vertex -4.12599 -2.9977 0
      vertex -3.28876 -1.46425 0
    endloop
  endfacet
  facet normal 0 0 -1
    outer loop
      vertex -4.65908 -2.07436 0
      vertex -3.28876 -1.46425 0
      vertex -4.12599 -2.9977 0
    endloop
  endfacet
  facet normal 0 -0 -1
    outer loop
      vertex -4.5 -1 0
      vertex -3.28876 -1.46425 0
      vertex -4.65908 -2.07436 0
    endloop
  endfacet
  facet normal 0 0 -1
    outer loop
      vertex -4.98855 -1.06035 0
      vertex -4.5 -1 0
      vertex -4.65908 -2.07436 0
    endloop
  endfacet
  facet normal 0 0 -1
    outer loop
      vertex -3.28876 -1.46425 0
      vertex -4.5 -1 0
      vertex -3.43961 -1 0
    endloop
  endfacet
  facet normal -0 0 -1
    outer loop
      vertex 4.98855 1.06035 0
      vertex 4.5 1 0
      vertex 4.65908 2.07436 0
    endloop
  endfacet
  facet normal 0 0 -1
    outer loop
      vertex 3.28876 1.46425 0
      vertex 4.65908 2.07436 0
      vertex 4.5 1 0
    endloop
  endfacet
  facet normal 0 0 -1
    outer loop
      vertex 3.28876 1.46425 0
      vertex 4.5 1 0
      vertex 3.43961 1 0
    endloop
  endfacet
  facet normal -0 0 -1
    outer loop
      vertex 4.65908 2.07436 0
      vertex 3.28876 1.46425 0
      vertex 4.12599 2.9977 0
    endloop
  endfacet
  facet normal 0 0 -1
    outer loop
      vertex 2.91246 2.11603 0
      vertex 4.12599 2.9977 0
      vertex 3.28876 1.46425 0
    endloop
  endfacet
  facet normal -0 0 -1
    outer loop
      vertex 4.12599 2.9977 0
      vertex 2.91246 2.11603 0
      vertex 3.41257 3.79004 0
    endloop
  endfacet
  facet normal 0 0 -1
    outer loop
      vertex 2.40887 2.67532 0
      vertex 3.41257 3.79004 0
      vertex 2.91246 2.11603 0
    endloop
  endfacet
  facet normal -0 0 -1
    outer loop
      vertex 3.41257 3.79004 0
      vertex 2.40887 2.67532 0
      vertex 2.55 4.41673 0
    endloop
  endfacet
  facet normal 0 0 -1
    outer loop
      vertex 1.8 3.11769 0
      vertex 2.55 4.41673 0
      vertex 2.40887 2.67532 0
    endloop
  endfacet
  facet normal 0 0 -1
    outer loop
      vertex 1.8 3.11769 0
      vertex 1.57599 4.85039 0
      vertex 2.55 4.41673 0
    endloop
  endfacet
  facet normal 0 0 -1
    outer loop
      vertex 1.11246 3.4238 0
      vertex 1.57599 4.85039 0
      vertex 1.8 3.11769 0
    endloop
  endfacet
  facet normal 0 0 -1
    outer loop
      vertex 1.11246 3.4238 0
      vertex 0.533094 5.07206 0
      vertex 1.57599 4.85039 0
    endloop
  endfacet
  facet normal 0 0 -1
    outer loop
      vertex 0.376302 3.58028 0
      vertex 0.533094 5.07206 0
      vertex 1.11246 3.4238 0
    endloop
  endfacet
  facet normal 0 0 -1
    outer loop
      vertex -0.376302 3.58028 0
      vertex 0.533094 5.07206 0
      vertex 0.376302 3.58028 0
    endloop
  endfacet
  facet normal 0 0 -1
    outer loop
      vertex -0.376302 3.58028 0
      vertex -0.533094 5.07206 0
      vertex 0.533094 5.07206 0
    endloop
  endfacet
  facet normal 0 0 -1
    outer loop
      vertex -1.11246 3.4238 0
      vertex -0.533094 5.07206 0
      vertex -0.376302 3.58028 0
    endloop
  endfacet
  facet normal 0 0 -1
    outer loop
      vertex -1.11246 3.4238 0
      vertex -1.57599 4.85039 0
      vertex -0.533094 5.07206 0
    endloop
  endfacet
  facet normal 0 0 -1
    outer loop
      vertex -1.8 3.11769 0
      vertex -1.57599 4.85039 0
      vertex -1.11246 3.4238 0
    endloop
  endfacet
  facet normal 0 0 -1
    outer loop
      vertex -2.55 4.41673 0
      vertex -1.8 3.11769 0
      vertex -2.40887 2.67532 0
    endloop
  endfacet
  facet normal 0 0 -1
    outer loop
      vertex -1.8 3.11769 0
      vertex -2.55 4.41673 0
      vertex -1.57599 4.85039 0
    endloop
  endfacet
  facet normal 0 0 -1
    outer loop
      vertex -3.41257 3.79004 0
      vertex -2.40887 2.67532 0
      vertex -2.91246 2.11603 0
    endloop
  endfacet
  facet normal 0 0 -1
    outer loop
      vertex -4.12599 2.9977 0
      vertex -2.91246 2.11603 0
      vertex -3.28876 1.46425 0
    endloop
  endfacet
  facet normal 0 0 -1
    outer loop
      vertex -2.40887 2.67532 0
      vertex -3.41257 3.79004 0
      vertex -2.55 4.41673 0
    endloop
  endfacet
  facet normal 0 0 -1
    outer loop
      vertex -4.5 1 0
      vertex -3.28876 1.46425 0
      vertex -3.43961 1 0
    endloop
  endfacet
  facet normal 0 0 -1
    outer loop
      vertex -2.91246 2.11603 0
      vertex -4.12599 2.9977 0
      vertex -3.41257 3.79004 0
    endloop
  endfacet
  facet normal -0 0 -1
    outer loop
      vertex -3.28876 1.46425 0
      vertex -4.5 1 0
      vertex -4.65908 2.07436 0
    endloop
  endfacet
  facet normal 0 0 -1
    outer loop
      vertex -3.28876 1.46425 0
      vertex -4.65908 2.07436 0
      vertex -4.12599 2.9977 0
    endloop
  endfacet
  facet normal 0 0 -1
    outer loop
      vertex -5.1 0 0
      vertex -4.5 -1 0
      vertex -4.98855 -1.06035 0
    endloop
  endfacet
  facet normal 0 0 -1
    outer loop
      vertex -4.5 -1 0
      vertex -5.1 0 0
      vertex -4.5 1 0
    endloop
  endfacet
  facet normal 0 0 -1
    outer loop
      vertex -4.5 1 0
      vertex -4.98855 1.06035 0
      vertex -4.65908 2.07436 0
    endloop
  endfacet
  facet normal -0 0 -1
    outer loop
      vertex -4.5 1 0
      vertex -5.1 0 0
      vertex -4.98855 1.06035 0
    endloop
  endfacet
  facet normal 0.866025 -0.5 0
    outer loop
      vertex 4.12599 -2.9977 10
      vertex 4.65908 -2.07436 0
      vertex 4.65908 -2.07436 10
    endloop
  endfacet
  facet normal 0.866025 -0.5 0
    outer loop
      vertex 4.65908 -2.07436 0
      vertex 4.12599 -2.9977 10
      vertex 4.12599 -2.9977 0
    endloop
  endfacet
  facet normal 0.866025 0.5 0
    outer loop
      vertex 4.65908 2.07436 10
      vertex 4.12599 2.9977 0
      vertex 4.12599 2.9977 10
    endloop
  endfacet
  facet normal 0.866025 0.5 0
    outer loop
      vertex 4.12599 2.9977 0
      vertex 4.65908 2.07436 10
      vertex 4.65908 2.07436 0
    endloop
  endfacet
  facet normal 0.951057 0.309017 0
    outer loop
      vertex 4.98855 1.06035 10
      vertex 4.65908 2.07436 0
      vertex 4.65908 2.07436 10
    endloop
  endfacet
  facet normal 0.951057 0.309017 0
    outer loop
      vertex 4.65908 2.07436 0
      vertex 4.98855 1.06035 10
      vertex 4.98855 1.06035 0
    endloop
  endfacet
  facet normal 0.406737 0.913545 -0
    outer loop
      vertex 2.55 4.41673 0
      vertex 1.57599 4.85039 10
      vertex 2.55 4.41673 10
    endloop
  endfacet
  facet normal 0.406737 0.913545 0
    outer loop
      vertex 1.57599 4.85039 10
      vertex 2.55 4.41673 0
      vertex 1.57599 4.85039 0
    endloop
  endfacet
  facet normal 0.207912 0.978147 -0
    outer loop
      vertex 1.57599 4.85039 0
      vertex 0.533094 5.07206 10
      vertex 1.57599 4.85039 10
    endloop
  endfacet
  facet normal 0.207912 0.978147 0
    outer loop
      vertex 0.533094 5.07206 10
      vertex 1.57599 4.85039 0
      vertex 0.533094 5.07206 0
    endloop
  endfacet
  facet normal 0.587785 0.809017 -0
    outer loop
      vertex 3.41257 3.79004 0
      vertex 2.55 4.41673 10
      vertex 3.41257 3.79004 10
    endloop
  endfacet
  facet normal 0.587785 0.809017 0
    outer loop
      vertex 2.55 4.41673 10
      vertex 3.41257 3.79004 0
      vertex 2.55 4.41673 0
    endloop
  endfacet
  facet normal -0.951057 0.309017 0
    outer loop
      vertex -4.98855 1.06035 0
      vertex -4.65908 2.07436 10
      vertex -4.65908 2.07436 0
    endloop
  endfacet
  facet normal -0.951057 0.309017 0
    outer loop
      vertex -4.65908 2.07436 10
      vertex -4.98855 1.06035 0
      vertex -4.98855 1.06035 10
    endloop
  endfacet
  facet normal 0 0 1
    outer loop
      vertex 3.6 0 10
      vertex 5.1 0 10
      vertex 4.98855 1.06035 10
    endloop
  endfacet
  facet normal 0 0 1
    outer loop
      vertex 3.52133 0.748482 10
      vertex 4.98855 1.06035 10
      vertex 4.65908 2.07436 10
    endloop
  endfacet
  facet normal 0 0 1
    outer loop
      vertex 5.1 0 10
      vertex 3.6 0 10
      vertex 4.98855 -1.06035 10
    endloop
  endfacet
  facet normal 0 0 1
    outer loop
      vertex 3.28876 1.46425 10
      vertex 4.65908 2.07436 10
      vertex 4.12599 2.9977 10
    endloop
  endfacet
  facet normal -0 0 1
    outer loop
      vertex 3.52133 -0.748482 10
      vertex 4.98855 -1.06035 10
      vertex 3.6 0 10
    endloop
  endfacet
  facet normal 0 0 1
    outer loop
      vertex 4.98855 -1.06035 10
      vertex 3.52133 -0.748482 10
      vertex 4.65908 -2.07436 10
    endloop
  endfacet
  facet normal 0 0 1
    outer loop
      vertex 4.98855 1.06035 10
      vertex 3.52133 0.748482 10
      vertex 3.6 0 10
    endloop
  endfacet
  facet normal 0 0 1
    outer loop
      vertex 2.91246 2.11603 10
      vertex 4.12599 2.9977 10
      vertex 3.41257 3.79004 10
    endloop
  endfacet
  facet normal 0 0 1
    outer loop
      vertex 4.65908 2.07436 10
      vertex 3.28876 1.46425 10
      vertex 3.52133 0.748482 10
    endloop
  endfacet
  facet normal 0 0 1
    outer loop
      vertex 4.12599 2.9977 10
      vertex 2.91246 2.11603 10
      vertex 3.28876 1.46425 10
    endloop
  endfacet
  facet normal 0 0 1
    outer loop
      vertex 2.40887 2.67532 10
      vertex 3.41257 3.79004 10
      vertex 2.55 4.41673 10
    endloop
  endfacet
  facet normal 0 0 1
    outer loop
      vertex 3.41257 3.79004 10
      vertex 2.40887 2.67532 10
      vertex 2.91246 2.11603 10
    endloop
  endfacet
  facet normal 0 0 1
    outer loop
      vertex 2.55 4.41673 10
      vertex 1.8 3.11769 10
      vertex 2.40887 2.67532 10
    endloop
  endfacet
  facet normal 0 0 1
    outer loop
      vertex 1.57599 4.85039 10
      vertex 1.8 3.11769 10
      vertex 2.55 4.41673 10
    endloop
  endfacet
  facet normal 0 0 1
    outer loop
      vertex 1.57599 4.85039 10
      vertex 1.11246 3.4238 10
      vertex 1.8 3.11769 10
    endloop
  endfacet
  facet normal 0 0 1
    outer loop
      vertex 0.533094 5.07206 10
      vertex 1.11246 3.4238 10
      vertex 1.57599 4.85039 10
    endloop
  endfacet
  facet normal 0 0 1
    outer loop
      vertex 0.533094 5.07206 10
      vertex 0.376302 3.58028 10
      vertex 1.11246 3.4238 10
    endloop
  endfacet
  facet normal 0 0 1
    outer loop
      vertex 0.533094 5.07206 10
      vertex -0.376302 3.58028 10
      vertex 0.376302 3.58028 10
    endloop
  endfacet
  facet normal -0 0 1
    outer loop
      vertex -0.533094 5.07206 10
      vertex -0.376302 3.58028 10
      vertex 0.533094 5.07206 10
    endloop
  endfacet
  facet normal 0 0 1
    outer loop
      vertex -0.533094 5.07206 10
      vertex -1.11246 3.4238 10
      vertex -0.376302 3.58028 10
    endloop
  endfacet
  facet normal -0 0 1
    outer loop
      vertex -1.57599 4.85039 10
      vertex -1.11246 3.4238 10
      vertex -0.533094 5.07206 10
    endloop
  endfacet
  facet normal 0 0 1
    outer loop
      vertex -1.57599 4.85039 10
      vertex -1.8 3.11769 10
      vertex -1.11246 3.4238 10
    endloop
  endfacet
  facet normal -0 0 1
    outer loop
      vertex -2.55 4.41673 10
      vertex -1.8 3.11769 10
      vertex -1.57599 4.85039 10
    endloop
  endfacet
  facet normal 0 0 1
    outer loop
      vertex -1.8 3.11769 10
      vertex -2.55 4.41673 10
      vertex -2.40887 2.67532 10
    endloop
  endfacet
  facet normal -0 0 1
    outer loop
      vertex -3.41257 3.79004 10
      vertex -2.40887 2.67532 10
      vertex -2.55 4.41673 10
    endloop
  endfacet
  facet normal 0 0 1
    outer loop
      vertex -2.40887 2.67532 10
      vertex -3.41257 3.79004 10
      vertex -2.91246 2.11603 10
    endloop
  endfacet
  facet normal -0 0 1
    outer loop
      vertex -4.12599 2.9977 10
      vertex -2.91246 2.11603 10
      vertex -3.41257 3.79004 10
    endloop
  endfacet
  facet normal 0 0 1
    outer loop
      vertex -2.91246 2.11603 10
      vertex -4.12599 2.9977 10
      vertex -3.28876 1.46425 10
    endloop
  endfacet
  facet normal -0 0 1
    outer loop
      vertex -4.65908 2.07436 10
      vertex -3.28876 1.46425 10
      vertex -4.12599 2.9977 10
    endloop
  endfacet
  facet normal 0 0 1
    outer loop
      vertex -3.28876 1.46425 10
      vertex -4.65908 2.07436 10
      vertex -3.52133 0.748482 10
    endloop
  endfacet
  facet normal -0 0 1
    outer loop
      vertex 3.28876 -1.46425 10
      vertex 4.65908 -2.07436 10
      vertex 3.52133 -0.748482 10
    endloop
  endfacet
  facet normal 0 0 1
    outer loop
      vertex 4.65908 -2.07436 10
      vertex 3.28876 -1.46425 10
      vertex 4.12599 -2.9977 10
    endloop
  endfacet
  facet normal -0 0 1
    outer loop
      vertex 2.91246 -2.11603 10
      vertex 4.12599 -2.9977 10
      vertex 3.28876 -1.46425 10
    endloop
  endfacet
  facet normal 0 0 1
    outer loop
      vertex 4.12599 -2.9977 10
      vertex 2.91246 -2.11603 10
      vertex 3.41257 -3.79004 10
    endloop
  endfacet
  facet normal -0 0 1
    outer loop
      vertex 2.40887 -2.67532 10
      vertex 3.41257 -3.79004 10
      vertex 2.91246 -2.11603 10
    endloop
  endfacet
  facet normal 0 0 1
    outer loop
      vertex 3.41257 -3.79004 10
      vertex 2.40887 -2.67532 10
      vertex 2.55 -4.41673 10
    endloop
  endfacet
  facet normal -0 0 1
    outer loop
      vertex 1.8 -3.11769 10
      vertex 2.55 -4.41673 10
      vertex 2.40887 -2.67532 10
    endloop
  endfacet
  facet normal 0 0 1
    outer loop
      vertex 1.8 -3.11769 10
      vertex 1.57599 -4.85039 10
      vertex 2.55 -4.41673 10
    endloop
  endfacet
  facet normal -0 0 1
    outer loop
      vertex 1.11246 -3.4238 10
      vertex 1.57599 -4.85039 10
      vertex 1.8 -3.11769 10
    endloop
  endfacet
  facet normal 0 0 1
    outer loop
      vertex 1.11246 -3.4238 10
      vertex 0.533094 -5.07206 10
      vertex 1.57599 -4.85039 10
    endloop
  endfacet
  facet normal -0 0 1
    outer loop
      vertex 0.376302 -3.58028 10
      vertex 0.533094 -5.07206 10
      vertex 1.11246 -3.4238 10
    endloop
  endfacet
  facet normal -0 0 1
    outer loop
      vertex -0.376302 -3.58028 10
      vertex 0.533094 -5.07206 10
      vertex 0.376302 -3.58028 10
    endloop
  endfacet
  facet normal 0 0 1
    outer loop
      vertex -0.376302 -3.58028 10
      vertex -0.533094 -5.07206 10
      vertex 0.533094 -5.07206 10
    endloop
  endfacet
  facet normal 0 0 1
    outer loop
      vertex -1.11246 -3.4238 10
      vertex -0.533094 -5.07206 10
      vertex -0.376302 -3.58028 10
    endloop
  endfacet
  facet normal 0 0 1
    outer loop
      vertex -1.11246 -3.4238 10
      vertex -1.57599 -4.85039 10
      vertex -0.533094 -5.07206 10
    endloop
  endfacet
  facet normal 0 0 1
    outer loop
      vertex -1.8 -3.11769 10
      vertex -1.57599 -4.85039 10
      vertex -1.11246 -3.4238 10
    endloop
  endfacet
  facet normal 0 0 1
    outer loop
      vertex -2.55 -4.41673 10
      vertex -1.8 -3.11769 10
      vertex -2.40887 -2.67532 10
    endloop
  endfacet
  facet normal 0 0 1
    outer loop
      vertex -1.8 -3.11769 10
      vertex -2.55 -4.41673 10
      vertex -1.57599 -4.85039 10
    endloop
  endfacet
  facet normal 0 0 1
    outer loop
      vertex -3.41257 -3.79004 10
      vertex -2.40887 -2.67532 10
      vertex -2.91246 -2.11603 10
    endloop
  endfacet
  facet normal 0 0 1
    outer loop
      vertex -4.12599 -2.9977 10
      vertex -2.91246 -2.11603 10
      vertex -3.28876 -1.46425 10
    endloop
  endfacet
  facet normal 0 0 1
    outer loop
      vertex -2.40887 -2.67532 10
      vertex -3.41257 -3.79004 10
      vertex -2.55 -4.41673 10
    endloop
  endfacet
  facet normal 0 0 1
    outer loop
      vertex -4.65908 -2.07436 10
      vertex -3.28876 -1.46425 10
      vertex -3.52133 -0.748482 10
    endloop
  endfacet
  facet normal 0 0 1
    outer loop
      vertex -4.98855 -1.06035 10
      vertex -3.52133 -0.748482 10
      vertex -3.6 0 10
    endloop
  endfacet
  facet normal -0 0 1
    outer loop
      vertex -4.98855 1.06035 10
      vertex -3.52133 0.748482 10
      vertex -4.65908 2.07436 10
    endloop
  endfacet
  facet normal 0 0 1
    outer loop
      vertex -2.91246 -2.11603 10
      vertex -4.12599 -2.9977 10
      vertex -3.41257 -3.79004 10
    endloop
  endfacet
  facet normal 0 0 1
    outer loop
      vertex -3.52133 0.748482 10
      vertex -4.98855 1.06035 10
      vertex -3.6 0 10
    endloop
  endfacet
  facet normal 0 0 1
    outer loop
      vertex -3.28876 -1.46425 10
      vertex -4.65908 -2.07436 10
      vertex -4.12599 -2.9977 10
    endloop
  endfacet
  facet normal 0 0 1
    outer loop
      vertex -5.1 0 10
      vertex -3.6 0 10
      vertex -4.98855 1.06035 10
    endloop
  endfacet
  facet normal 0 0 1
    outer loop
      vertex -3.52133 -0.748482 10
      vertex -4.98855 -1.06035 10
      vertex -4.65908 -2.07436 10
    endloop
  endfacet
  facet normal 0 0 1
    outer loop
      vertex -3.6 0 10
      vertex -5.1 0 10
      vertex -4.98855 -1.06035 10
    endloop
  endfacet
  facet normal -0.587785 0.809017 0
    outer loop
      vertex -2.55 4.41673 0
      vertex -3.41257 3.79004 10
      vertex -2.55 4.41673 10
    endloop
  endfacet
  facet normal -0.587785 0.809017 0
    outer loop
      vertex -3.41257 3.79004 10
      vertex -2.55 4.41673 0
      vertex -3.41257 3.79004 0
    endloop
  endfacet
  facet normal -0.207912 0.978147 0
    outer loop
      vertex -0.533094 5.07206 0
      vertex -1.57599 4.85039 10
      vertex -0.533094 5.07206 10
    endloop
  endfacet
  facet normal -0.207912 0.978147 0
    outer loop
      vertex -1.57599 4.85039 10
      vertex -0.533094 5.07206 0
      vertex -1.57599 4.85039 0
    endloop
  endfacet
  facet normal -0.207912 -0.978147 0
    outer loop
      vertex -1.57599 -4.85039 0
      vertex -0.533094 -5.07206 10
      vertex -1.57599 -4.85039 10
    endloop
  endfacet
  facet normal -0.207912 -0.978147 -0
    outer loop
      vertex -0.533094 -5.07206 10
      vertex -1.57599 -4.85039 0
      vertex -0.533094 -5.07206 0
    endloop
  endfacet
  facet normal 0.743145 -0.669131 0
    outer loop
      vertex 3.41257 -3.79004 10
      vertex 4.12599 -2.9977 0
      vertex 4.12599 -2.9977 10
    endloop
  endfacet
  facet normal 0.743145 -0.669131 0
    outer loop
      vertex 4.12599 -2.9977 0
      vertex 3.41257 -3.79004 10
      vertex 3.41257 -3.79004 0
    endloop
  endfacet
  facet normal 0.951057 -0.309017 0
    outer loop
      vertex 4.65908 -2.07436 10
      vertex 4.98855 -1.06035 0
      vertex 4.98855 -1.06035 10
    endloop
  endfacet
  facet normal 0.951057 -0.309017 0
    outer loop
      vertex 4.98855 -1.06035 0
      vertex 4.65908 -2.07436 10
      vertex 4.65908 -2.07436 0
    endloop
  endfacet
  facet normal 0.994522 -0.104529 0
    outer loop
      vertex 4.98855 -1.06035 10
      vertex 5.1 0 0
      vertex 5.1 0 10
    endloop
  endfacet
  facet normal 0.994522 -0.104529 0
    outer loop
      vertex 5.1 0 0
      vertex 4.98855 -1.06035 10
      vertex 4.98855 -1.06035 0
    endloop
  endfacet
  facet normal -0.406737 -0.913545 0
    outer loop
      vertex -2.55 -4.41673 0
      vertex -1.57599 -4.85039 10
      vertex -2.55 -4.41673 10
    endloop
  endfacet
  facet normal -0.406737 -0.913545 -0
    outer loop
      vertex -1.57599 -4.85039 10
      vertex -2.55 -4.41673 0
      vertex -1.57599 -4.85039 0
    endloop
  endfacet
  facet normal -0.866025 -0.5 0
    outer loop
      vertex -4.12599 -2.9977 0
      vertex -4.65908 -2.07436 10
      vertex -4.65908 -2.07436 0
    endloop
  endfacet
  facet normal -0.866025 -0.5 0
    outer loop
      vertex -4.65908 -2.07436 10
      vertex -4.12599 -2.9977 0
      vertex -4.12599 -2.9977 10
    endloop
  endfacet
  facet normal -0.994522 -0.104529 0
    outer loop
      vertex -4.98855 -1.06035 0
      vertex -5.1 0 10
      vertex -5.1 0 0
    endloop
  endfacet
  facet normal -0.994522 -0.104529 0
    outer loop
      vertex -5.1 0 10
      vertex -4.98855 -1.06035 0
      vertex -4.98855 -1.06035 10
    endloop
  endfacet
  facet normal -0.951057 -0.309017 0
    outer loop
      vertex -4.65908 -2.07436 0
      vertex -4.98855 -1.06035 10
      vertex -4.98855 -1.06035 0
    endloop
  endfacet
  facet normal -0.951057 -0.309017 0
    outer loop
      vertex -4.98855 -1.06035 10
      vertex -4.65908 -2.07436 0
      vertex -4.65908 -2.07436 10
    endloop
  endfacet
  facet normal 0.207912 -0.978147 0
    outer loop
      vertex 0.533094 -5.07206 0
      vertex 1.57599 -4.85039 10
      vertex 0.533094 -5.07206 10
    endloop
  endfacet
  facet normal 0.207912 -0.978147 0
    outer loop
      vertex 1.57599 -4.85039 10
      vertex 0.533094 -5.07206 0
      vertex 1.57599 -4.85039 0
    endloop
  endfacet
  facet normal 0.587785 -0.809017 0
    outer loop
      vertex 2.55 -4.41673 0
      vertex 3.41257 -3.79004 10
      vertex 2.55 -4.41673 10
    endloop
  endfacet
  facet normal 0.587785 -0.809017 0
    outer loop
      vertex 3.41257 -3.79004 10
      vertex 2.55 -4.41673 0
      vertex 3.41257 -3.79004 0
    endloop
  endfacet
  facet normal 0 -1 0
    outer loop
      vertex -0.533094 -5.07206 0
      vertex 0.533094 -5.07206 10
      vertex -0.533094 -5.07206 10
    endloop
  endfacet
  facet normal 0 -1 -0
    outer loop
      vertex 0.533094 -5.07206 10
      vertex -0.533094 -5.07206 0
      vertex 0.533094 -5.07206 0
    endloop
  endfacet
  facet normal -0.587785 -0.809017 0
    outer loop
      vertex -3.41257 -3.79004 0
      vertex -2.55 -4.41673 10
      vertex -3.41257 -3.79004 10
    endloop
  endfacet
  facet normal -0.587785 -0.809017 -0
    outer loop
      vertex -2.55 -4.41673 10
      vertex -3.41257 -3.79004 0
      vertex -2.55 -4.41673 0
    endloop
  endfacet
  facet normal -0.743145 -0.669131 0
    outer loop
      vertex -3.41257 -3.79004 0
      vertex -4.12599 -2.9977 10
      vertex -4.12599 -2.9977 0
    endloop
  endfacet
  facet normal -0.743145 -0.669131 0
    outer loop
      vertex -4.12599 -2.9977 10
      vertex -3.41257 -3.79004 0
      vertex -3.41257 -3.79004 10
    endloop
  endfacet
  facet normal 0.406737 -0.913545 0
    outer loop
      vertex 1.57599 -4.85039 0
      vertex 2.55 -4.41673 10
      vertex 1.57599 -4.85039 10
    endloop
  endfacet
  facet normal 0.406737 -0.913545 0
    outer loop
      vertex 2.55 -4.41673 10
      vertex 1.57599 -4.85039 0
      vertex 2.55 -4.41673 0
    endloop
  endfacet
endsolid OpenSCAD_Model
