<?xml version="1.0" encoding="UTF-8" standalone="no"?>
<!DOCTYPE svg PUBLIC "-//W3C//DTD SVG 20010904//EN"
              "http://www.w3.org/TR/2001/REC-SVG-20010904/DTD/svg10.dtd">

<svg xmlns="http://www.w3.org/2000/svg"
     width="2.94444in" height="3.30556in"
     viewBox="0 0 212 238">
  <path id="Selection"
        fill="none" stroke="black" stroke-width="1"
        d="M 16.79,15.00
           C 20.30,19.07 20.91,22.57 27.00,21.94
             27.00,21.94 33.00,21.26 33.00,21.26
             36.08,21.35 40.19,22.99 42.83,21.81
             45.09,20.79 47.61,16.96 49.30,15.00
             53.02,10.67 57.37,6.32 62.00,3.00
             63.72,15.74 64.02,12.00 64.00,26.00
             64.00,26.00 62.95,41.00 62.95,41.00
             62.95,41.00 63.87,57.00 63.87,57.00
             63.66,64.62 66.74,64.36 71.54,70.01
             73.56,72.40 74.76,74.34 77.17,76.53
             86.40,84.93 104.08,88.65 117.00,96.66
             143.32,112.98 150.41,137.00 157.37,165.00
             159.56,173.80 163.43,188.46 161.00,196.95
             166.22,197.94 170.81,198.70 176.00,196.95
             190.55,191.83 193.07,172.77 188.34,160.00
             185.12,151.29 174.80,142.28 170.66,134.00
             167.83,128.36 166.87,122.25 167.01,116.00
             167.41,98.75 178.56,76.40 198.00,76.02
             200.00,75.98 203.07,76.00 204.96,76.57
             211.72,78.61 213.17,86.52 209.30,91.95
             203.95,99.46 186.71,99.58 185.20,113.00
             184.25,121.51 191.67,130.27 195.95,137.00
             201.93,146.40 205.86,155.71 206.00,167.00
             206.09,175.13 206.28,179.98 204.08,188.00
             202.98,192.02 200.38,198.45 198.24,202.00
             192.19,212.07 182.51,219.76 171.00,222.50
             162.40,224.54 159.46,223.57 155.00,224.21
             155.00,224.21 146.00,226.67 146.00,226.67
             146.00,226.67 128.00,228.29 128.00,228.29
             116.17,229.83 98.98,236.55 88.00,235.91
             78.27,235.34 78.12,232.47 72.00,229.56
             72.00,229.56 59.00,225.00 59.00,225.00
             58.20,228.34 57.55,231.02 54.78,233.35
             47.69,239.31 29.14,239.11 26.00,229.00
             26.00,229.00 22.00,229.00 22.00,229.00
             17.64,228.99 9.00,229.17 8.54,223.02
             8.05,216.41 18.24,216.96 21.20,210.94
             24.42,204.39 29.01,176.57 28.63,169.00
             28.14,159.18 26.27,150.92 22.12,142.00
             17.76,132.65 11.56,124.06 8.78,114.00
             7.14,108.04 7.01,96.39 7.00,90.00
             6.98,76.65 1.02,65.96 1.00,53.00
             0.99,42.73 2.80,40.26 2.91,36.00
             2.85,28.64 -1.64,20.39 2.91,2.00
             7.40,4.80 13.34,11.00 16.79,15.00 Z" />
</svg>
