solid OpenSCAD_Model
  facet normal -0.707107 -0.707107 0
    outer loop
      vertex -1.93893 -3.04508 3
      vertex -3.04508 -1.93893 5
      vertex -3.04508 -1.93893 3
    endloop
  endfacet
  facet normal -0.707107 -0.707107 0
    outer loop
      vertex -3.04508 -1.93893 5
      vertex -1.93893 -3.04508 3
      vertex -1.93893 -3.04508 5
    endloop
  endfacet
  facet normal -0.453991 0.891006 0
    outer loop
      vertex -0.545085 68.2553 3
      vertex -1.93893 67.5451 5
      vertex -0.545085 68.2553 5
    endloop
  endfacet
  facet normal -0.453991 0.891006 0
    outer loop
      vertex -1.93893 67.5451 5
      vertex -0.545085 68.2553 3
      vertex -1.93893 67.5451 3
    endloop
  endfacet
  facet normal -0.987688 0.156435 0
    outer loop
      vertex -4 63.5 3
      vertex -3.75528 65.0451 5
      vertex -3.75528 65.0451 3
    endloop
  endfacet
  facet normal -0.987688 0.156435 0
    outer loop
      vertex -3.75528 65.0451 5
      vertex -4 63.5 3
      vertex -4 63.5 5
    endloop
  endfacet
  facet normal 0.156422 0.98769 -0
    outer loop
      vertex 65.0451 68.2553 3
      vertex 63.5 68.5 5
      vertex 65.0451 68.2553 5
    endloop
  endfacet
  facet normal 0.156422 0.98769 0
    outer loop
      vertex 63.5 68.5 5
      vertex 65.0451 68.2553 3
      vertex 63.5 68.5 3
    endloop
  endfacet
  facet normal 0.454002 0.891 -0
    outer loop
      vertex 66.4389 67.5451 3
      vertex 65.0451 68.2553 5
      vertex 66.4389 67.5451 5
    endloop
  endfacet
  facet normal 0.454002 0.891 0
    outer loop
      vertex 65.0451 68.2553 5
      vertex 66.4389 67.5451 3
      vertex 65.0451 68.2553 3
    endloop
  endfacet
  facet normal 0.98769 -0.156424 0
    outer loop
      vertex 68.2553 -0.545085 5
      vertex 68.5 1 3
      vertex 68.5 1 5
    endloop
  endfacet
  facet normal 0.98769 -0.156424 0
    outer loop
      vertex 68.5 1 3
      vertex 68.2553 -0.545085 5
      vertex 68.2553 -0.545085 3
    endloop
  endfacet
  facet normal 0.891 0.454002 0
    outer loop
      vertex 68.2553 65.0451 5
      vertex 67.5451 66.4389 3
      vertex 67.5451 66.4389 5
    endloop
  endfacet
  facet normal 0.891 0.454002 0
    outer loop
      vertex 67.5451 66.4389 3
      vertex 68.2553 65.0451 5
      vertex 68.2553 65.0451 3
    endloop
  endfacet
  facet normal 1 -0 0
    outer loop
      vertex 68.5 1 5
      vertex 68.5 63.5 3
      vertex 68.5 63.5 5
    endloop
  endfacet
  facet normal 1 0 0
    outer loop
      vertex 68.5 63.5 3
      vertex 68.5 1 5
      vertex 68.5 1 3
    endloop
  endfacet
  facet normal -0.987688 -0.156436 0
    outer loop
      vertex -3.75528 -0.545085 3
      vertex -4 1 5
      vertex -4 1 3
    endloop
  endfacet
  facet normal -0.987688 -0.156436 0
    outer loop
      vertex -4 1 5
      vertex -3.75528 -0.545085 3
      vertex -3.75528 -0.545085 5
    endloop
  endfacet
  facet normal -0.156424 0.98769 0
    outer loop
      vertex 1 68.5 3
      vertex -0.545085 68.2553 5
      vertex 1 68.5 5
    endloop
  endfacet
  facet normal -0.156424 0.98769 0
    outer loop
      vertex -0.545085 68.2553 5
      vertex 1 68.5 3
      vertex -0.545085 68.2553 3
    endloop
  endfacet
  facet normal 0 -1 0
    outer loop
      vertex 1 -4 3
      vertex 63.5 -4 5
      vertex 1 -4 5
    endloop
  endfacet
  facet normal 0 -1 -0
    outer loop
      vertex 63.5 -4 5
      vertex 1 -4 3
      vertex 63.5 -4 3
    endloop
  endfacet
  facet normal 0.98769 0.156422 0
    outer loop
      vertex 68.5 63.5 5
      vertex 68.2553 65.0451 3
      vertex 68.2553 65.0451 5
    endloop
  endfacet
  facet normal 0.98769 0.156422 0
    outer loop
      vertex 68.2553 65.0451 3
      vertex 68.5 63.5 5
      vertex 68.5 63.5 3
    endloop
  endfacet
  facet normal -0.707123 0.707091 0
    outer loop
      vertex -1.93893 67.5451 3
      vertex -3.04508 66.4389 5
      vertex -1.93893 67.5451 5
    endloop
  endfacet
  facet normal -0.707123 0.707091 0
    outer loop
      vertex -3.04508 66.4389 5
      vertex -1.93893 67.5451 3
      vertex -3.04508 66.4389 3
    endloop
  endfacet
  facet normal 0.707091 -0.707123 0
    outer loop
      vertex 66.4389 -3.04508 5
      vertex 67.5451 -1.93893 3
      vertex 67.5451 -1.93893 5
    endloop
  endfacet
  facet normal 0.707091 -0.707123 0
    outer loop
      vertex 67.5451 -1.93893 3
      vertex 66.4389 -3.04508 5
      vertex 66.4389 -3.04508 3
    endloop
  endfacet
  facet normal 0.454002 -0.891 0
    outer loop
      vertex 65.0451 -3.75528 3
      vertex 66.4389 -3.04508 5
      vertex 65.0451 -3.75528 5
    endloop
  endfacet
  facet normal 0.454002 -0.891 0
    outer loop
      vertex 66.4389 -3.04508 5
      vertex 65.0451 -3.75528 3
      vertex 66.4389 -3.04508 3
    endloop
  endfacet
  facet normal 0.891006 -0.453991 0
    outer loop
      vertex 67.5451 -1.93893 5
      vertex 68.2553 -0.545085 3
      vertex 68.2553 -0.545085 5
    endloop
  endfacet
  facet normal 0.891006 -0.453991 0
    outer loop
      vertex 68.2553 -0.545085 3
      vertex 67.5451 -1.93893 5
      vertex 67.5451 -1.93893 3
    endloop
  endfacet
  facet normal 0.707107 0.707107 0
    outer loop
      vertex 67.5451 66.4389 5
      vertex 66.4389 67.5451 3
      vertex 66.4389 67.5451 5
    endloop
  endfacet
  facet normal 0.707107 0.707107 0
    outer loop
      vertex 66.4389 67.5451 3
      vertex 67.5451 66.4389 5
      vertex 67.5451 66.4389 3
    endloop
  endfacet
  facet normal -0.891 0.454002 0
    outer loop
      vertex -3.75528 65.0451 3
      vertex -3.04508 66.4389 5
      vertex -3.04508 66.4389 3
    endloop
  endfacet
  facet normal -0.891 0.454002 0
    outer loop
      vertex -3.04508 66.4389 5
      vertex -3.75528 65.0451 3
      vertex -3.75528 65.0451 5
    endloop
  endfacet
  facet normal -0.156436 -0.987688 0
    outer loop
      vertex -0.545085 -3.75528 3
      vertex 1 -4 5
      vertex -0.545085 -3.75528 5
    endloop
  endfacet
  facet normal -0.156436 -0.987688 -0
    outer loop
      vertex 1 -4 5
      vertex -0.545085 -3.75528 3
      vertex 1 -4 3
    endloop
  endfacet
  facet normal -1 0 0
    outer loop
      vertex -4 1 3
      vertex -4 63.5 5
      vertex -4 63.5 3
    endloop
  endfacet
  facet normal -1 -0 0
    outer loop
      vertex -4 63.5 5
      vertex -4 1 3
      vertex -4 1 5
    endloop
  endfacet
  facet normal 0 1 -0
    outer loop
      vertex 63.5 68.5 3
      vertex 1 68.5 5
      vertex 63.5 68.5 5
    endloop
  endfacet
  facet normal 0 1 0
    outer loop
      vertex 1 68.5 5
      vertex 63.5 68.5 3
      vertex 1 68.5 3
    endloop
  endfacet
  facet normal 0.156435 -0.987688 0
    outer loop
      vertex 63.5 -4 3
      vertex 65.0451 -3.75528 5
      vertex 63.5 -4 5
    endloop
  endfacet
  facet normal 0.156435 -0.987688 0
    outer loop
      vertex 65.0451 -3.75528 5
      vertex 63.5 -4 3
      vertex 65.0451 -3.75528 3
    endloop
  endfacet
  facet normal -0.453991 -0.891006 0
    outer loop
      vertex -1.93893 -3.04508 3
      vertex -0.545085 -3.75528 5
      vertex -1.93893 -3.04508 5
    endloop
  endfacet
  facet normal -0.453991 -0.891006 -0
    outer loop
      vertex -0.545085 -3.75528 5
      vertex -1.93893 -3.04508 3
      vertex -0.545085 -3.75528 3
    endloop
  endfacet
  facet normal -0.891006 -0.453991 0
    outer loop
      vertex -3.04508 -1.93893 3
      vertex -3.75528 -0.545085 5
      vertex -3.75528 -0.545085 3
    endloop
  endfacet
  facet normal -0.891006 -0.453991 0
    outer loop
      vertex -3.75528 -0.545085 5
      vertex -3.04508 -1.93893 3
      vertex -3.04508 -1.93893 5
    endloop
  endfacet
  facet normal 0 0 1
    outer loop
      vertex 63.5 68.5 5
      vertex 68.5 63.5 5
      vertex 68.2553 65.0451 5
    endloop
  endfacet
  facet normal 0 0 1
    outer loop
      vertex 68.5 63.5 5
      vertex 63.5 68.5 5
      vertex 68.5 1 5
    endloop
  endfacet
  facet normal 0 0 1
    outer loop
      vertex 63.5 68.5 5
      vertex 68.2553 65.0451 5
      vertex 67.5451 66.4389 5
    endloop
  endfacet
  facet normal 0 0 1
    outer loop
      vertex 63.5 -4 5
      vertex 68.5 1 5
      vertex 63.5 68.5 5
    endloop
  endfacet
  facet normal 0 0 1
    outer loop
      vertex 63.5 68.5 5
      vertex 67.5451 66.4389 5
      vertex 66.4389 67.5451 5
    endloop
  endfacet
  facet normal 0 0 1
    outer loop
      vertex 68.5 1 5
      vertex 63.5 -4 5
      vertex 68.2553 -0.545085 5
    endloop
  endfacet
  facet normal 0 0 1
    outer loop
      vertex 63.5 68.5 5
      vertex 66.4389 67.5451 5
      vertex 65.0451 68.2553 5
    endloop
  endfacet
  facet normal 0 0 1
    outer loop
      vertex 68.2553 -0.545085 5
      vertex 63.5 -4 5
      vertex 67.5451 -1.93893 5
    endloop
  endfacet
  facet normal 0 0 1
    outer loop
      vertex 67.5451 -1.93893 5
      vertex 63.5 -4 5
      vertex 66.4389 -3.04508 5
    endloop
  endfacet
  facet normal 0 0 1
    outer loop
      vertex 66.4389 -3.04508 5
      vertex 63.5 -4 5
      vertex 65.0451 -3.75528 5
    endloop
  endfacet
  facet normal -0 0 1
    outer loop
      vertex 1 68.5 5
      vertex 63.5 -4 5
      vertex 63.5 68.5 5
    endloop
  endfacet
  facet normal 0 0 1
    outer loop
      vertex 1 68.5 5
      vertex 1 -4 5
      vertex 63.5 -4 5
    endloop
  endfacet
  facet normal 0 0 1
    outer loop
      vertex -4 63.5 5
      vertex 1 68.5 5
      vertex -0.545085 68.2553 5
    endloop
  endfacet
  facet normal 0 0 1
    outer loop
      vertex 1 68.5 5
      vertex -4 63.5 5
      vertex 1 -4 5
    endloop
  endfacet
  facet normal 0 0 1
    outer loop
      vertex -4 63.5 5
      vertex -0.545085 68.2553 5
      vertex -1.93893 67.5451 5
    endloop
  endfacet
  facet normal -0 0 1
    outer loop
      vertex -4 1 5
      vertex 1 -4 5
      vertex -4 63.5 5
    endloop
  endfacet
  facet normal 0 0 1
    outer loop
      vertex -4 63.5 5
      vertex -1.93893 67.5451 5
      vertex -3.04508 66.4389 5
    endloop
  endfacet
  facet normal 0 0 1
    outer loop
      vertex 1 -4 5
      vertex -4 1 5
      vertex -0.545085 -3.75528 5
    endloop
  endfacet
  facet normal 0 0 1
    outer loop
      vertex -4 63.5 5
      vertex -3.04508 66.4389 5
      vertex -3.75528 65.0451 5
    endloop
  endfacet
  facet normal 0 0 1
    outer loop
      vertex -0.545085 -3.75528 5
      vertex -4 1 5
      vertex -1.93893 -3.04508 5
    endloop
  endfacet
  facet normal 0 0 1
    outer loop
      vertex -1.93893 -3.04508 5
      vertex -4 1 5
      vertex -3.04508 -1.93893 5
    endloop
  endfacet
  facet normal 0 0 1
    outer loop
      vertex -3.04508 -1.93893 5
      vertex -4 1 5
      vertex -3.75528 -0.545085 5
    endloop
  endfacet
  facet normal -0.156437 -0.987688 0
    outer loop
      vertex -1.54508 -4.75528 0
      vertex 0 -5 3
      vertex -1.54508 -4.75528 3
    endloop
  endfacet
  facet normal -0.156437 -0.987688 -0
    outer loop
      vertex 0 -5 3
      vertex -1.54508 -4.75528 0
      vertex 0 -5 0
    endloop
  endfacet
  facet normal -0.453989 0.891007 0
    outer loop
      vertex -1.54508 69.2553 0
      vertex -2.93893 68.5451 3
      vertex -1.54508 69.2553 3
    endloop
  endfacet
  facet normal -0.453989 0.891007 0
    outer loop
      vertex -2.93893 68.5451 3
      vertex -1.54508 69.2553 0
      vertex -2.93893 68.5451 0
    endloop
  endfacet
  facet normal -0.707123 0.707091 0
    outer loop
      vertex -2.93893 68.5451 0
      vertex -4.04508 67.4389 3
      vertex -2.93893 68.5451 3
    endloop
  endfacet
  facet normal -0.707123 0.707091 0
    outer loop
      vertex -4.04508 67.4389 3
      vertex -2.93893 68.5451 0
      vertex -4.04508 67.4389 0
    endloop
  endfacet
  facet normal 0 1 -0
    outer loop
      vertex 64.5 69.5 0
      vertex 0 69.5 3
      vertex 64.5 69.5 3
    endloop
  endfacet
  facet normal 0 1 0
    outer loop
      vertex 0 69.5 3
      vertex 64.5 69.5 0
      vertex 0 69.5 0
    endloop
  endfacet
  facet normal -1 0 0
    outer loop
      vertex -5 0 0
      vertex -5 64.5 3
      vertex -5 64.5 0
    endloop
  endfacet
  facet normal -1 -0 0
    outer loop
      vertex -5 64.5 3
      vertex -5 0 0
      vertex -5 0 3
    endloop
  endfacet
  facet normal -0.987688 0.156435 0
    outer loop
      vertex -5 64.5 0
      vertex -4.75528 66.0451 3
      vertex -4.75528 66.0451 0
    endloop
  endfacet
  facet normal -0.987688 0.156435 0
    outer loop
      vertex -4.75528 66.0451 3
      vertex -5 64.5 0
      vertex -5 64.5 3
    endloop
  endfacet
  facet normal 0 -1 0
    outer loop
      vertex 0 -5 0
      vertex 64.5 -5 3
      vertex 0 -5 3
    endloop
  endfacet
  facet normal 0 -1 -0
    outer loop
      vertex 64.5 -5 3
      vertex 0 -5 0
      vertex 64.5 -5 0
    endloop
  endfacet
  facet normal 0.707107 0.707107 0
    outer loop
      vertex 68.5451 67.4389 3
      vertex 67.4389 68.5451 0
      vertex 67.4389 68.5451 3
    endloop
  endfacet
  facet normal 0.707107 0.707107 0
    outer loop
      vertex 67.4389 68.5451 0
      vertex 68.5451 67.4389 3
      vertex 68.5451 67.4389 0
    endloop
  endfacet
  facet normal -0.707107 -0.707107 0
    outer loop
      vertex -2.93893 -4.04508 0
      vertex -4.04508 -2.93893 3
      vertex -4.04508 -2.93893 0
    endloop
  endfacet
  facet normal -0.707107 -0.707107 0
    outer loop
      vertex -4.04508 -2.93893 3
      vertex -2.93893 -4.04508 0
      vertex -2.93893 -4.04508 3
    endloop
  endfacet
  facet normal -0.891007 -0.453989 0
    outer loop
      vertex -4.04508 -2.93893 0
      vertex -4.75528 -1.54508 3
      vertex -4.75528 -1.54508 0
    endloop
  endfacet
  facet normal -0.891007 -0.453989 0
    outer loop
      vertex -4.75528 -1.54508 3
      vertex -4.04508 -2.93893 0
      vertex -4.04508 -2.93893 3
    endloop
  endfacet
  facet normal 0.454002 -0.891 0
    outer loop
      vertex 66.0451 -4.75528 0
      vertex 67.4389 -4.04508 3
      vertex 66.0451 -4.75528 3
    endloop
  endfacet
  facet normal 0.454002 -0.891 0
    outer loop
      vertex 67.4389 -4.04508 3
      vertex 66.0451 -4.75528 0
      vertex 67.4389 -4.04508 0
    endloop
  endfacet
  facet normal 0.707091 -0.707123 0
    outer loop
      vertex 67.4389 -4.04508 3
      vertex 68.5451 -2.93893 0
      vertex 68.5451 -2.93893 3
    endloop
  endfacet
  facet normal 0.707091 -0.707123 0
    outer loop
      vertex 68.5451 -2.93893 0
      vertex 67.4389 -4.04508 3
      vertex 67.4389 -4.04508 0
    endloop
  endfacet
  facet normal -0.453989 -0.891007 0
    outer loop
      vertex -2.93893 -4.04508 0
      vertex -1.54508 -4.75528 3
      vertex -2.93893 -4.04508 3
    endloop
  endfacet
  facet normal -0.453989 -0.891007 -0
    outer loop
      vertex -1.54508 -4.75528 3
      vertex -2.93893 -4.04508 0
      vertex -1.54508 -4.75528 0
    endloop
  endfacet
  facet normal 1 -0 0
    outer loop
      vertex 69.5 0 3
      vertex 69.5 64.5 0
      vertex 69.5 64.5 3
    endloop
  endfacet
  facet normal 1 0 0
    outer loop
      vertex 69.5 64.5 0
      vertex 69.5 0 3
      vertex 69.5 0 0
    endloop
  endfacet
  facet normal -0 0 1
    outer loop
      vertex 68.2553 65.0451 3
      vertex 69.5 64.5 3
      vertex 69.2553 66.0451 3
    endloop
  endfacet
  facet normal 0 0 1
    outer loop
      vertex 69.5 64.5 3
      vertex 68.5 63.5 3
      vertex 69.5 0 3
    endloop
  endfacet
  facet normal -0 0 1
    outer loop
      vertex 67.5451 66.4389 3
      vertex 69.2553 66.0451 3
      vertex 68.5451 67.4389 3
    endloop
  endfacet
  facet normal -0 0 1
    outer loop
      vertex 68.5 1 3
      vertex 69.5 0 3
      vertex 68.5 63.5 3
    endloop
  endfacet
  facet normal 0 0 1
    outer loop
      vertex 68.2553 -0.545085 3
      vertex 69.5 0 3
      vertex 68.5 1 3
    endloop
  endfacet
  facet normal 0 0 1
    outer loop
      vertex 69.5 64.5 3
      vertex 68.2553 65.0451 3
      vertex 68.5 63.5 3
    endloop
  endfacet
  facet normal 0 0 1
    outer loop
      vertex 69.2553 66.0451 3
      vertex 67.5451 66.4389 3
      vertex 68.2553 65.0451 3
    endloop
  endfacet
  facet normal 0 0 1
    outer loop
      vertex 67.4389 68.5451 3
      vertex 67.5451 66.4389 3
      vertex 68.5451 67.4389 3
    endloop
  endfacet
  facet normal 0 0 1
    outer loop
      vertex 67.4389 68.5451 3
      vertex 66.4389 67.5451 3
      vertex 67.5451 66.4389 3
    endloop
  endfacet
  facet normal 0 0 1
    outer loop
      vertex 66.0451 69.2553 3
      vertex 66.4389 67.5451 3
      vertex 67.4389 68.5451 3
    endloop
  endfacet
  facet normal 0 0 1
    outer loop
      vertex 66.0451 69.2553 3
      vertex 65.0451 68.2553 3
      vertex 66.4389 67.5451 3
    endloop
  endfacet
  facet normal 0 0 1
    outer loop
      vertex 64.5 69.5 3
      vertex 65.0451 68.2553 3
      vertex 66.0451 69.2553 3
    endloop
  endfacet
  facet normal 0 0 1
    outer loop
      vertex 64.5 69.5 3
      vertex 63.5 68.5 3
      vertex 65.0451 68.2553 3
    endloop
  endfacet
  facet normal 0 0 1
    outer loop
      vertex 64.5 69.5 3
      vertex 1 68.5 3
      vertex 63.5 68.5 3
    endloop
  endfacet
  facet normal -0 0 1
    outer loop
      vertex 0 69.5 3
      vertex 1 68.5 3
      vertex 64.5 69.5 3
    endloop
  endfacet
  facet normal 0 0 1
    outer loop
      vertex 0 69.5 3
      vertex -0.545085 68.2553 3
      vertex 1 68.5 3
    endloop
  endfacet
  facet normal -0 0 1
    outer loop
      vertex -1.54508 69.2553 3
      vertex -0.545085 68.2553 3
      vertex 0 69.5 3
    endloop
  endfacet
  facet normal 0 0 1
    outer loop
      vertex -1.54508 69.2553 3
      vertex -1.93893 67.5451 3
      vertex -0.545085 68.2553 3
    endloop
  endfacet
  facet normal -0 0 1
    outer loop
      vertex -2.93893 68.5451 3
      vertex -1.93893 67.5451 3
      vertex -1.54508 69.2553 3
    endloop
  endfacet
  facet normal 0 0 1
    outer loop
      vertex -2.93893 68.5451 3
      vertex -3.04508 66.4389 3
      vertex -1.93893 67.5451 3
    endloop
  endfacet
  facet normal -0 0 1
    outer loop
      vertex -4.04508 67.4389 3
      vertex -3.04508 66.4389 3
      vertex -2.93893 68.5451 3
    endloop
  endfacet
  facet normal 0 0 1
    outer loop
      vertex -5 64.5 3
      vertex -3.75528 65.0451 3
      vertex -4.75528 66.0451 3
    endloop
  endfacet
  facet normal 0 0 1
    outer loop
      vertex -3.04508 66.4389 3
      vertex -4.75528 66.0451 3
      vertex -3.75528 65.0451 3
    endloop
  endfacet
  facet normal 0 0 1
    outer loop
      vertex -4.75528 66.0451 3
      vertex -3.04508 66.4389 3
      vertex -4.04508 67.4389 3
    endloop
  endfacet
  facet normal 0 0 1
    outer loop
      vertex 69.5 0 3
      vertex 68.2553 -0.545085 3
      vertex 69.2553 -1.54508 3
    endloop
  endfacet
  facet normal 0 0 1
    outer loop
      vertex 67.5451 -1.93893 3
      vertex 69.2553 -1.54508 3
      vertex 68.2553 -0.545085 3
    endloop
  endfacet
  facet normal 0 0 1
    outer loop
      vertex 69.2553 -1.54508 3
      vertex 67.5451 -1.93893 3
      vertex 68.5451 -2.93893 3
    endloop
  endfacet
  facet normal 0 0 1
    outer loop
      vertex 67.5451 -1.93893 3
      vertex 67.4389 -4.04508 3
      vertex 68.5451 -2.93893 3
    endloop
  endfacet
  facet normal -0 0 1
    outer loop
      vertex 66.4389 -3.04508 3
      vertex 67.4389 -4.04508 3
      vertex 67.5451 -1.93893 3
    endloop
  endfacet
  facet normal 0 0 1
    outer loop
      vertex 66.4389 -3.04508 3
      vertex 66.0451 -4.75528 3
      vertex 67.4389 -4.04508 3
    endloop
  endfacet
  facet normal -0 0 1
    outer loop
      vertex 65.0451 -3.75528 3
      vertex 66.0451 -4.75528 3
      vertex 66.4389 -3.04508 3
    endloop
  endfacet
  facet normal 0 0 1
    outer loop
      vertex 65.0451 -3.75528 3
      vertex 64.5 -5 3
      vertex 66.0451 -4.75528 3
    endloop
  endfacet
  facet normal -0 0 1
    outer loop
      vertex 63.5 -4 3
      vertex 64.5 -5 3
      vertex 65.0451 -3.75528 3
    endloop
  endfacet
  facet normal -0 0 1
    outer loop
      vertex 1 -4 3
      vertex 64.5 -5 3
      vertex 63.5 -4 3
    endloop
  endfacet
  facet normal 0 0 1
    outer loop
      vertex 1 -4 3
      vertex 0 -5 3
      vertex 64.5 -5 3
    endloop
  endfacet
  facet normal 0 0 1
    outer loop
      vertex -0.545085 -3.75528 3
      vertex 0 -5 3
      vertex 1 -4 3
    endloop
  endfacet
  facet normal 0 0 1
    outer loop
      vertex -0.545085 -3.75528 3
      vertex -1.54508 -4.75528 3
      vertex 0 -5 3
    endloop
  endfacet
  facet normal 0 0 1
    outer loop
      vertex -1.93893 -3.04508 3
      vertex -1.54508 -4.75528 3
      vertex -0.545085 -3.75528 3
    endloop
  endfacet
  facet normal 0 0 1
    outer loop
      vertex -1.93893 -3.04508 3
      vertex -2.93893 -4.04508 3
      vertex -1.54508 -4.75528 3
    endloop
  endfacet
  facet normal 0 0 1
    outer loop
      vertex -3.04508 -1.93893 3
      vertex -2.93893 -4.04508 3
      vertex -1.93893 -3.04508 3
    endloop
  endfacet
  facet normal -0 0 1
    outer loop
      vertex -4.75528 -1.54508 3
      vertex -3.04508 -1.93893 3
      vertex -3.75528 -0.545085 3
    endloop
  endfacet
  facet normal 0 0 1
    outer loop
      vertex -3.04508 -1.93893 3
      vertex -4.04508 -2.93893 3
      vertex -2.93893 -4.04508 3
    endloop
  endfacet
  facet normal -0 0 1
    outer loop
      vertex -5 0 3
      vertex -3.75528 -0.545085 3
      vertex -4 1 3
    endloop
  endfacet
  facet normal 0 0 1
    outer loop
      vertex -4 63.5 3
      vertex -5 64.5 3
      vertex -4 1 3
    endloop
  endfacet
  facet normal 0 0 1
    outer loop
      vertex -3.75528 65.0451 3
      vertex -5 64.5 3
      vertex -4 63.5 3
    endloop
  endfacet
  facet normal 0 0 1
    outer loop
      vertex -5 0 3
      vertex -4 1 3
      vertex -5 64.5 3
    endloop
  endfacet
  facet normal 0 0 1
    outer loop
      vertex -3.75528 -0.545085 3
      vertex -5 0 3
      vertex -4.75528 -1.54508 3
    endloop
  endfacet
  facet normal 0 0 1
    outer loop
      vertex -3.04508 -1.93893 3
      vertex -4.75528 -1.54508 3
      vertex -4.04508 -2.93893 3
    endloop
  endfacet
  facet normal 0.98769 -0.156424 0
    outer loop
      vertex 69.2553 -1.54508 3
      vertex 69.5 0 0
      vertex 69.5 0 3
    endloop
  endfacet
  facet normal 0.98769 -0.156424 0
    outer loop
      vertex 69.5 0 0
      vertex 69.2553 -1.54508 3
      vertex 69.2553 -1.54508 0
    endloop
  endfacet
  facet normal 0.156422 0.98769 -0
    outer loop
      vertex 66.0451 69.2553 0
      vertex 64.5 69.5 3
      vertex 66.0451 69.2553 3
    endloop
  endfacet
  facet normal 0.156422 0.98769 0
    outer loop
      vertex 64.5 69.5 3
      vertex 66.0451 69.2553 0
      vertex 64.5 69.5 0
    endloop
  endfacet
  facet normal 0.891007 -0.453989 0
    outer loop
      vertex 68.5451 -2.93893 3
      vertex 69.2553 -1.54508 0
      vertex 69.2553 -1.54508 3
    endloop
  endfacet
  facet normal 0.891007 -0.453989 0
    outer loop
      vertex 69.2553 -1.54508 0
      vertex 68.5451 -2.93893 3
      vertex 68.5451 -2.93893 0
    endloop
  endfacet
  facet normal 0.891 0.454002 0
    outer loop
      vertex 69.2553 66.0451 3
      vertex 68.5451 67.4389 0
      vertex 68.5451 67.4389 3
    endloop
  endfacet
  facet normal 0.891 0.454002 0
    outer loop
      vertex 68.5451 67.4389 0
      vertex 69.2553 66.0451 3
      vertex 69.2553 66.0451 0
    endloop
  endfacet
  facet normal 0.156435 -0.987688 0
    outer loop
      vertex 64.5 -5 0
      vertex 66.0451 -4.75528 3
      vertex 64.5 -5 3
    endloop
  endfacet
  facet normal 0.156435 -0.987688 0
    outer loop
      vertex 66.0451 -4.75528 3
      vertex 64.5 -5 0
      vertex 66.0451 -4.75528 0
    endloop
  endfacet
  facet normal -0.156424 0.98769 0
    outer loop
      vertex 0 69.5 0
      vertex -1.54508 69.2553 3
      vertex 0 69.5 3
    endloop
  endfacet
  facet normal -0.156424 0.98769 0
    outer loop
      vertex -1.54508 69.2553 3
      vertex 0 69.5 0
      vertex -1.54508 69.2553 0
    endloop
  endfacet
  facet normal 0.454002 0.891 -0
    outer loop
      vertex 67.4389 68.5451 0
      vertex 66.0451 69.2553 3
      vertex 67.4389 68.5451 3
    endloop
  endfacet
  facet normal 0.454002 0.891 0
    outer loop
      vertex 66.0451 69.2553 3
      vertex 67.4389 68.5451 0
      vertex 66.0451 69.2553 0
    endloop
  endfacet
  facet normal -0.891 0.454002 0
    outer loop
      vertex -4.75528 66.0451 0
      vertex -4.04508 67.4389 3
      vertex -4.04508 67.4389 0
    endloop
  endfacet
  facet normal -0.891 0.454002 0
    outer loop
      vertex -4.04508 67.4389 3
      vertex -4.75528 66.0451 0
      vertex -4.75528 66.0451 3
    endloop
  endfacet
  facet normal -0.987688 -0.156437 0
    outer loop
      vertex -4.75528 -1.54508 0
      vertex -5 0 3
      vertex -5 0 0
    endloop
  endfacet
  facet normal -0.987688 -0.156437 0
    outer loop
      vertex -5 0 3
      vertex -4.75528 -1.54508 0
      vertex -4.75528 -1.54508 3
    endloop
  endfacet
  facet normal 0.98769 0.156422 0
    outer loop
      vertex 69.5 64.5 3
      vertex 69.2553 66.0451 0
      vertex 69.2553 66.0451 3
    endloop
  endfacet
  facet normal 0.98769 0.156422 0
    outer loop
      vertex 69.2553 66.0451 0
      vertex 69.5 64.5 3
      vertex 69.5 64.5 0
    endloop
  endfacet
  facet normal 0 0 -1
    outer loop
      vertex 64.5 -5 0
      vertex 69.5 0 0
      vertex 69.2553 -1.54508 0
    endloop
  endfacet
  facet normal -0 0 -1
    outer loop
      vertex 69.5 0 0
      vertex 64.5 -5 0
      vertex 69.5 64.5 0
    endloop
  endfacet
  facet normal 0 0 -1
    outer loop
      vertex 64.5 -5 0
      vertex 69.2553 -1.54508 0
      vertex 68.5451 -2.93893 0
    endloop
  endfacet
  facet normal 0 0 -1
    outer loop
      vertex 64.5 69.5 0
      vertex 69.5 64.5 0
      vertex 64.5 -5 0
    endloop
  endfacet
  facet normal 0 0 -1
    outer loop
      vertex 64.5 -5 0
      vertex 68.5451 -2.93893 0
      vertex 67.4389 -4.04508 0
    endloop
  endfacet
  facet normal 0 0 -1
    outer loop
      vertex 69.5 64.5 0
      vertex 64.5 69.5 0
      vertex 69.2553 66.0451 0
    endloop
  endfacet
  facet normal 0 0 -1
    outer loop
      vertex 64.5 -5 0
      vertex 67.4389 -4.04508 0
      vertex 66.0451 -4.75528 0
    endloop
  endfacet
  facet normal 0 0 -1
    outer loop
      vertex 69.2553 66.0451 0
      vertex 64.5 69.5 0
      vertex 68.5451 67.4389 0
    endloop
  endfacet
  facet normal 0 0 -1
    outer loop
      vertex 68.5451 67.4389 0
      vertex 64.5 69.5 0
      vertex 67.4389 68.5451 0
    endloop
  endfacet
  facet normal 0 0 -1
    outer loop
      vertex 67.4389 68.5451 0
      vertex 64.5 69.5 0
      vertex 66.0451 69.2553 0
    endloop
  endfacet
  facet normal 0 0 -1
    outer loop
      vertex 0 -5 0
      vertex 64.5 69.5 0
      vertex 64.5 -5 0
    endloop
  endfacet
  facet normal 0 0 -1
    outer loop
      vertex 0 -5 0
      vertex 0 69.5 0
      vertex 64.5 69.5 0
    endloop
  endfacet
  facet normal 0 0 -1
    outer loop
      vertex -5 0 0
      vertex 0 -5 0
      vertex -1.54508 -4.75528 0
    endloop
  endfacet
  facet normal 0 0 -1
    outer loop
      vertex 0 -5 0
      vertex -5 0 0
      vertex 0 69.5 0
    endloop
  endfacet
  facet normal 0 0 -1
    outer loop
      vertex -5 0 0
      vertex -1.54508 -4.75528 0
      vertex -2.93893 -4.04508 0
    endloop
  endfacet
  facet normal 0 0 -1
    outer loop
      vertex -5 64.5 0
      vertex 0 69.5 0
      vertex -5 0 0
    endloop
  endfacet
  facet normal 0 0 -1
    outer loop
      vertex -5 0 0
      vertex -2.93893 -4.04508 0
      vertex -4.04508 -2.93893 0
    endloop
  endfacet
  facet normal 0 0 -1
    outer loop
      vertex 0 69.5 0
      vertex -5 64.5 0
      vertex -1.54508 69.2553 0
    endloop
  endfacet
  facet normal 0 0 -1
    outer loop
      vertex -5 0 0
      vertex -4.04508 -2.93893 0
      vertex -4.75528 -1.54508 0
    endloop
  endfacet
  facet normal 0 0 -1
    outer loop
      vertex -1.54508 69.2553 0
      vertex -5 64.5 0
      vertex -2.93893 68.5451 0
    endloop
  endfacet
  facet normal 0 0 -1
    outer loop
      vertex -2.93893 68.5451 0
      vertex -5 64.5 0
      vertex -4.04508 67.4389 0
    endloop
  endfacet
  facet normal 0 0 -1
    outer loop
      vertex -4.04508 67.4389 0
      vertex -5 64.5 0
      vertex -4.75528 66.0451 0
    endloop
  endfacet
endsolid OpenSCAD_Model
