<?xml version="1.0" encoding="UTF-8" standalone="no"?>
<!DOCTYPE svg PUBLIC "-//W3C//DTD SVG 20010904//EN"
              "http://www.w3.org/TR/2001/REC-SVG-20010904/DTD/svg10.dtd">

<svg xmlns="http://www.w3.org/2000/svg"
     width="1.26373in" height="1.26373in"
     viewBox="0 0 91 91">
  <path id="Selection"
        fill="none" stroke="black" stroke-width="1"
        d="M 34.13,9.00
           C 38.50,3.14 39.35,0.45 47.00,0.00
             44.19,6.59 40.11,9.44 35.90,15.00
             31.44,20.89 28.43,27.05 26.00,34.00
             33.93,34.41 32.84,31.58 39.01,26.47
             46.14,20.57 59.83,15.61 69.00,14.30
             74.41,13.52 78.72,13.19 82.00,18.00
             63.99,18.00 48.95,23.17 36.00,36.00
             36.00,36.00 62.00,42.51 62.00,42.51
             62.00,42.51 91.00,52.00 91.00,52.00
             89.63,59.77 83.00,55.28 78.00,53.15
             66.54,48.28 46.30,42.48 34.00,40.00
             34.13,54.22 43.80,65.38 55.00,73.23
             60.27,76.92 66.57,79.26 71.00,84.00
             71.00,84.00 66.00,87.00 66.00,87.00
             66.00,87.00 45.04,71.54 45.04,71.54
             35.35,63.18 30.04,51.64 30.00,39.00
             30.00,39.00 24.00,38.00 24.00,38.00
             24.00,38.00 22.32,56.00 22.32,56.00
             22.32,56.00 29.00,88.00 29.00,88.00
             21.35,86.32 22.39,81.70 20.58,75.00
             16.88,61.30 17.50,50.74 20.00,37.00
             16.23,39.45 16.44,42.01 14.94,46.00
             12.58,52.25 9.69,61.24 4.00,65.00
             2.90,57.56 12.13,45.58 13.00,36.00
             13.00,36.00 1.00,35.00 1.00,35.00
             2.72,27.51 5.84,31.23 15.00,32.00
             15.00,32.00 16.83,18.00 16.83,18.00
             16.83,18.00 17.60,10.22 17.60,10.22
             17.60,10.22 20.92,7.00 20.92,7.00
             20.92,7.00 20.92,21.00 20.92,21.00
             20.92,21.00 19.00,33.00 19.00,33.00
             19.00,33.00 22.00,33.00 22.00,33.00
             22.86,24.90 29.30,15.46 34.13,9.00 Z" />
</svg>
