solid OpenSCAD_Model
  facet normal 0.995681 0.0783621 0.0497841
    outer loop
      vertex 34.5 0 0
      vertex 31.606 5.0059 50
      vertex 32 0 50
    endloop
  endfacet
  facet normal 0.995681 0.0783616 0.0497841
    outer loop
      vertex 34.0752 5.39699 0
      vertex 31.606 5.0059 50
      vertex 34.5 0 0
    endloop
  endfacet
  facet normal -0.0783621 -0.995681 0.0497841
    outer loop
      vertex 0 -32 50
      vertex -5.0059 -31.606 50
      vertex 0 -34.5 0
    endloop
  endfacet
  facet normal -0.995681 -0.0783621 0.0497841
    outer loop
      vertex -32 0 50
      vertex -34.5 0 0
      vertex -31.606 -5.0059 50
    endloop
  endfacet
  facet normal 0.971164 0.233156 0.049784
    outer loop
      vertex 32.8114 10.6611 0
      vertex 30.4338 9.88854 50
      vertex 31.606 5.0059 50
    endloop
  endfacet
  facet normal 0.648643 0.759463 0.0497841
    outer loop
      vertex 20.2786 27.9111 0
      vertex 18.8091 25.8885 50
      vertex 22.6274 22.6274 50
    endloop
  endfacet
  facet normal -0.971164 -0.233156 0.049784
    outer loop
      vertex -31.606 -5.0059 50
      vertex -32.8114 -10.6611 0
      vertex -30.4338 -9.88854 50
    endloop
  endfacet
  facet normal -0.0783621 0.995681 0.0497841
    outer loop
      vertex 0 34.5 0
      vertex -5.0059 31.606 50
      vertex 0 32 50
    endloop
  endfacet
  facet normal -0.995681 0.0783616 0.0497841
    outer loop
      vertex -34.0752 5.39699 0
      vertex -34.5 0 0
      vertex -31.606 5.0059 50
    endloop
  endfacet
  facet normal -0.759463 -0.648643 0.0497841
    outer loop
      vertex -22.6274 -22.6274 50
      vertex -27.9111 -20.2786 0
      vertex -24.3952 -24.3952 0
    endloop
  endfacet
  facet normal 0 0 -1
    outer loop
      vertex 22 0 0
      vertex 34.5 0 0
      vertex 34.0752 -5.39699 0
    endloop
  endfacet
  facet normal 0 0 -1
    outer loop
      vertex 21.5192 -4.57406 0
      vertex 34.0752 -5.39699 0
      vertex 32.8114 -10.6611 0
    endloop
  endfacet
  facet normal 0 0 -1
    outer loop
      vertex 34.5 0 0
      vertex 22 0 0
      vertex 34.0752 5.39699 0
    endloop
  endfacet
  facet normal 0 0 -1
    outer loop
      vertex 20.098 -8.94821 0
      vertex 32.8114 -10.6611 0
      vertex 30.7397 -15.6627 0
    endloop
  endfacet
  facet normal 0 0 -1
    outer loop
      vertex 21.5192 4.57406 0
      vertex 34.0752 5.39699 0
      vertex 22 0 0
    endloop
  endfacet
  facet normal 0 0 -1
    outer loop
      vertex 17.7984 -12.9313 0
      vertex 30.7397 -15.6627 0
      vertex 27.9111 -20.2786 0
    endloop
  endfacet
  facet normal -0 0 -1
    outer loop
      vertex 34.0752 5.39699 0
      vertex 21.5192 4.57406 0
      vertex 32.8114 10.6611 0
    endloop
  endfacet
  facet normal 0 0 -1
    outer loop
      vertex 17.7984 -12.9313 0
      vertex 27.9111 -20.2786 0
      vertex 24.3952 -24.3952 0
    endloop
  endfacet
  facet normal 0 0 -1
    outer loop
      vertex 20.098 8.94821 0
      vertex 32.8114 10.6611 0
      vertex 21.5192 4.57406 0
    endloop
  endfacet
  facet normal -0 0 -1
    outer loop
      vertex 32.8114 10.6611 0
      vertex 20.098 8.94821 0
      vertex 30.7397 15.6627 0
    endloop
  endfacet
  facet normal 0 0 -1
    outer loop
      vertex 34.0752 -5.39699 0
      vertex 21.5192 -4.57406 0
      vertex 22 0 0
    endloop
  endfacet
  facet normal 0 0 -1
    outer loop
      vertex 14.7209 -16.3492 0
      vertex 24.3952 -24.3952 0
      vertex 20.2786 -27.9111 0
    endloop
  endfacet
  facet normal 0 0 -1
    outer loop
      vertex 32.8114 -10.6611 0
      vertex 20.098 -8.94821 0
      vertex 21.5192 -4.57406 0
    endloop
  endfacet
  facet normal 0 0 -1
    outer loop
      vertex 30.7397 -15.6627 0
      vertex 17.7984 -12.9313 0
      vertex 20.098 -8.94821 0
    endloop
  endfacet
  facet normal 0 0 -1
    outer loop
      vertex 11 -19.0526 0
      vertex 20.2786 -27.9111 0
      vertex 15.6627 -30.7397 0
    endloop
  endfacet
  facet normal 0 0 -1
    outer loop
      vertex 24.3952 -24.3952 0
      vertex 14.7209 -16.3492 0
      vertex 17.7984 -12.9313 0
    endloop
  endfacet
  facet normal 0 0 -1
    outer loop
      vertex 20.2786 -27.9111 0
      vertex 11 -19.0526 0
      vertex 14.7209 -16.3492 0
    endloop
  endfacet
  facet normal 0 0 -1
    outer loop
      vertex 6.79837 -20.9232 0
      vertex 15.6627 -30.7397 0
      vertex 10.6611 -32.8114 0
    endloop
  endfacet
  facet normal 0 0 -1
    outer loop
      vertex 15.6627 -30.7397 0
      vertex 6.79837 -20.9232 0
      vertex 11 -19.0526 0
    endloop
  endfacet
  facet normal 0 0 -1
    outer loop
      vertex 5.39699 -34.0752 0
      vertex 6.79837 -20.9232 0
      vertex 10.6611 -32.8114 0
    endloop
  endfacet
  facet normal 0 0 -1
    outer loop
      vertex 5.39699 -34.0752 0
      vertex 2.29963 -21.8795 0
      vertex 6.79837 -20.9232 0
    endloop
  endfacet
  facet normal 0 0 -1
    outer loop
      vertex 0 -34.5 0
      vertex 2.29963 -21.8795 0
      vertex 5.39699 -34.0752 0
    endloop
  endfacet
  facet normal 0 0 -1
    outer loop
      vertex 0 -34.5 0
      vertex -2.29963 -21.8795 0
      vertex 2.29963 -21.8795 0
    endloop
  endfacet
  facet normal 0 0 -1
    outer loop
      vertex -5.39699 -34.0752 0
      vertex -2.29963 -21.8795 0
      vertex 0 -34.5 0
    endloop
  endfacet
  facet normal 0 0 -1
    outer loop
      vertex -5.39699 -34.0752 0
      vertex -6.79837 -20.9232 0
      vertex -2.29963 -21.8795 0
    endloop
  endfacet
  facet normal 0 0 -1
    outer loop
      vertex -10.6611 -32.8114 0
      vertex -6.79837 -20.9232 0
      vertex -5.39699 -34.0752 0
    endloop
  endfacet
  facet normal 0 0 -1
    outer loop
      vertex -15.6627 -30.7397 0
      vertex -6.79837 -20.9232 0
      vertex -10.6611 -32.8114 0
    endloop
  endfacet
  facet normal -0 0 -1
    outer loop
      vertex -6.79837 -20.9232 0
      vertex -15.6627 -30.7397 0
      vertex -11 -19.0526 0
    endloop
  endfacet
  facet normal 0 0 -1
    outer loop
      vertex -20.2786 -27.9111 0
      vertex -11 -19.0526 0
      vertex -15.6627 -30.7397 0
    endloop
  endfacet
  facet normal -0 0 -1
    outer loop
      vertex -11 -19.0526 0
      vertex -20.2786 -27.9111 0
      vertex -14.7209 -16.3492 0
    endloop
  endfacet
  facet normal 0 0 -1
    outer loop
      vertex -24.3952 -24.3952 0
      vertex -14.7209 -16.3492 0
      vertex -20.2786 -27.9111 0
    endloop
  endfacet
  facet normal -0 0 -1
    outer loop
      vertex -14.7209 -16.3492 0
      vertex -24.3952 -24.3952 0
      vertex -17.7984 -12.9313 0
    endloop
  endfacet
  facet normal 0 0 -1
    outer loop
      vertex -27.9111 -20.2786 0
      vertex -17.7984 -12.9313 0
      vertex -24.3952 -24.3952 0
    endloop
  endfacet
  facet normal 0 0 -1
    outer loop
      vertex -30.7397 -15.6627 0
      vertex -17.7984 -12.9313 0
      vertex -27.9111 -20.2786 0
    endloop
  endfacet
  facet normal -0 0 -1
    outer loop
      vertex -17.7984 -12.9313 0
      vertex -30.7397 -15.6627 0
      vertex -20.098 -8.94821 0
    endloop
  endfacet
  facet normal 0 0 -1
    outer loop
      vertex 17.7984 12.9313 0
      vertex 30.7397 15.6627 0
      vertex 20.098 8.94821 0
    endloop
  endfacet
  facet normal -0 0 -1
    outer loop
      vertex 30.7397 15.6627 0
      vertex 17.7984 12.9313 0
      vertex 27.9111 20.2786 0
    endloop
  endfacet
  facet normal -0 0 -1
    outer loop
      vertex 27.9111 20.2786 0
      vertex 17.7984 12.9313 0
      vertex 24.3952 24.3952 0
    endloop
  endfacet
  facet normal 0 0 -1
    outer loop
      vertex 14.7209 16.3492 0
      vertex 24.3952 24.3952 0
      vertex 17.7984 12.9313 0
    endloop
  endfacet
  facet normal -0 0 -1
    outer loop
      vertex 24.3952 24.3952 0
      vertex 14.7209 16.3492 0
      vertex 20.2786 27.9111 0
    endloop
  endfacet
  facet normal 0 0 -1
    outer loop
      vertex 11 19.0526 0
      vertex 20.2786 27.9111 0
      vertex 14.7209 16.3492 0
    endloop
  endfacet
  facet normal -0 0 -1
    outer loop
      vertex 20.2786 27.9111 0
      vertex 11 19.0526 0
      vertex 15.6627 30.7397 0
    endloop
  endfacet
  facet normal 0 0 -1
    outer loop
      vertex 6.79837 20.9232 0
      vertex 15.6627 30.7397 0
      vertex 11 19.0526 0
    endloop
  endfacet
  facet normal -0 0 -1
    outer loop
      vertex 15.6627 30.7397 0
      vertex 6.79837 20.9232 0
      vertex 10.6611 32.8114 0
    endloop
  endfacet
  facet normal 0 0 -1
    outer loop
      vertex 6.79837 20.9232 0
      vertex 5.39699 34.0752 0
      vertex 10.6611 32.8114 0
    endloop
  endfacet
  facet normal 0 0 -1
    outer loop
      vertex 2.29963 21.8795 0
      vertex 5.39699 34.0752 0
      vertex 6.79837 20.9232 0
    endloop
  endfacet
  facet normal 0 0 -1
    outer loop
      vertex 2.29963 21.8795 0
      vertex 0 34.5 0
      vertex 5.39699 34.0752 0
    endloop
  endfacet
  facet normal 0 0 -1
    outer loop
      vertex -2.29963 21.8795 0
      vertex 0 34.5 0
      vertex 2.29963 21.8795 0
    endloop
  endfacet
  facet normal 0 0 -1
    outer loop
      vertex -2.29963 21.8795 0
      vertex -5.39699 34.0752 0
      vertex 0 34.5 0
    endloop
  endfacet
  facet normal 0 0 -1
    outer loop
      vertex -6.79837 20.9232 0
      vertex -5.39699 34.0752 0
      vertex -2.29963 21.8795 0
    endloop
  endfacet
  facet normal 0 0 -1
    outer loop
      vertex -6.79837 20.9232 0
      vertex -10.6611 32.8114 0
      vertex -5.39699 34.0752 0
    endloop
  endfacet
  facet normal 0 0 -1
    outer loop
      vertex -15.6627 30.7397 0
      vertex -6.79837 20.9232 0
      vertex -11 19.0526 0
    endloop
  endfacet
  facet normal 0 0 -1
    outer loop
      vertex -20.2786 27.9111 0
      vertex -11 19.0526 0
      vertex -14.7209 16.3492 0
    endloop
  endfacet
  facet normal 0 0 -1
    outer loop
      vertex -6.79837 20.9232 0
      vertex -15.6627 30.7397 0
      vertex -10.6611 32.8114 0
    endloop
  endfacet
  facet normal 0 0 -1
    outer loop
      vertex -24.3952 24.3952 0
      vertex -14.7209 16.3492 0
      vertex -17.7984 12.9313 0
    endloop
  endfacet
  facet normal 0 0 -1
    outer loop
      vertex -30.7397 15.6627 0
      vertex -17.7984 12.9313 0
      vertex -20.098 8.94821 0
    endloop
  endfacet
  facet normal 0 0 -1
    outer loop
      vertex -11 19.0526 0
      vertex -20.2786 27.9111 0
      vertex -15.6627 30.7397 0
    endloop
  endfacet
  facet normal 0 0 -1
    outer loop
      vertex -32.8114 10.6611 0
      vertex -20.098 8.94821 0
      vertex -21.5192 4.57406 0
    endloop
  endfacet
  facet normal 0 0 -1
    outer loop
      vertex -34.0752 5.39699 0
      vertex -21.5192 4.57406 0
      vertex -22 0 0
    endloop
  endfacet
  facet normal 0 0 -1
    outer loop
      vertex -32.8114 -10.6611 0
      vertex -20.098 -8.94821 0
      vertex -30.7397 -15.6627 0
    endloop
  endfacet
  facet normal 0 0 -1
    outer loop
      vertex -14.7209 16.3492 0
      vertex -24.3952 24.3952 0
      vertex -20.2786 27.9111 0
    endloop
  endfacet
  facet normal -0 0 -1
    outer loop
      vertex -20.098 -8.94821 0
      vertex -32.8114 -10.6611 0
      vertex -21.5192 -4.57406 0
    endloop
  endfacet
  facet normal 0 0 -1
    outer loop
      vertex -17.7984 12.9313 0
      vertex -27.9111 20.2786 0
      vertex -24.3952 24.3952 0
    endloop
  endfacet
  facet normal 0 0 -1
    outer loop
      vertex -34.0752 -5.39699 0
      vertex -21.5192 -4.57406 0
      vertex -32.8114 -10.6611 0
    endloop
  endfacet
  facet normal 0 0 -1
    outer loop
      vertex -17.7984 12.9313 0
      vertex -30.7397 15.6627 0
      vertex -27.9111 20.2786 0
    endloop
  endfacet
  facet normal -0 0 -1
    outer loop
      vertex -21.5192 -4.57406 0
      vertex -34.0752 -5.39699 0
      vertex -22 0 0
    endloop
  endfacet
  facet normal 0 0 -1
    outer loop
      vertex -20.098 8.94821 0
      vertex -32.8114 10.6611 0
      vertex -30.7397 15.6627 0
    endloop
  endfacet
  facet normal 0 0 -1
    outer loop
      vertex -34.5 0 0
      vertex -22 0 0
      vertex -34.0752 -5.39699 0
    endloop
  endfacet
  facet normal 0 0 -1
    outer loop
      vertex -21.5192 4.57406 0
      vertex -34.0752 5.39699 0
      vertex -32.8114 10.6611 0
    endloop
  endfacet
  facet normal 0 0 -1
    outer loop
      vertex -22 0 0
      vertex -34.5 0 0
      vertex -34.0752 5.39699 0
    endloop
  endfacet
  facet normal -0.233156 -0.971164 0.049784
    outer loop
      vertex -9.88854 -30.4338 50
      vertex -10.6611 -32.8114 0
      vertex -5.0059 -31.606 50
    endloop
  endfacet
  facet normal 0.648643 -0.759463 0.0497841
    outer loop
      vertex 22.6274 -22.6274 50
      vertex 20.2786 -27.9111 0
      vertex 24.3952 -24.3952 0
    endloop
  endfacet
  facet normal 0.971164 -0.233157 0.0497841
    outer loop
      vertex 34.0752 -5.39699 0
      vertex 31.606 -5.0059 50
      vertex 32.8114 -10.6611 0
    endloop
  endfacet
  facet normal 0.851583 0.521851 0.0497841
    outer loop
      vertex 27.9111 20.2786 0
      vertex 25.8885 18.8091 50
      vertex 28.5122 14.5277 50
    endloop
  endfacet
  facet normal 0.971164 0.233157 0.0497841
    outer loop
      vertex 32.8114 10.6611 0
      vertex 31.606 5.0059 50
      vertex 34.0752 5.39699 0
    endloop
  endfacet
  facet normal -0.233156 0.971164 0.049784
    outer loop
      vertex -5.0059 31.606 50
      vertex -10.6611 32.8114 0
      vertex -9.88854 30.4338 50
    endloop
  endfacet
  facet normal 0.759463 0.648643 0.0497841
    outer loop
      vertex 27.9111 20.2786 0
      vertex 22.6274 22.6274 50
      vertex 25.8885 18.8091 50
    endloop
  endfacet
  facet normal -0.971164 -0.233157 0.0497841
    outer loop
      vertex -31.606 -5.0059 50
      vertex -34.0752 -5.39699 0
      vertex -32.8114 -10.6611 0
    endloop
  endfacet
  facet normal -0.995681 -0.0783616 0.0497841
    outer loop
      vertex -31.606 -5.0059 50
      vertex -34.5 0 0
      vertex -34.0752 -5.39699 0
    endloop
  endfacet
  facet normal -0.382209 -0.922734 0.049784
    outer loop
      vertex -9.88854 -30.4338 50
      vertex -15.6627 -30.7397 0
      vertex -10.6611 -32.8114 0
    endloop
  endfacet
  facet normal 0.0783616 -0.995681 0.0497841
    outer loop
      vertex 5.0059 -31.606 50
      vertex 0 -34.5 0
      vertex 5.39699 -34.0752 0
    endloop
  endfacet
  facet normal 0.233156 -0.971164 0.049784
    outer loop
      vertex 9.88854 -30.4338 50
      vertex 5.0059 -31.606 50
      vertex 10.6611 -32.8114 0
    endloop
  endfacet
  facet normal 0.233157 -0.971164 0.0497841
    outer loop
      vertex 10.6611 -32.8114 0
      vertex 5.0059 -31.606 50
      vertex 5.39699 -34.0752 0
    endloop
  endfacet
  facet normal 0.971164 -0.233156 0.049784
    outer loop
      vertex 31.606 -5.0059 50
      vertex 30.4338 -9.88854 50
      vertex 32.8114 -10.6611 0
    endloop
  endfacet
  facet normal 0.759463 -0.648643 0.0497841
    outer loop
      vertex 27.9111 -20.2786 0
      vertex 22.6274 -22.6274 50
      vertex 24.3952 -24.3952 0
    endloop
  endfacet
  facet normal 0.995681 -0.0783616 0.0497841
    outer loop
      vertex 34.5 0 0
      vertex 31.606 -5.0059 50
      vertex 34.0752 -5.39699 0
    endloop
  endfacet
  facet normal 0.995681 -0.0783621 0.0497841
    outer loop
      vertex 32 0 50
      vertex 31.606 -5.0059 50
      vertex 34.5 0 0
    endloop
  endfacet
  facet normal -0.995681 0.0783621 0.0497841
    outer loop
      vertex -31.606 5.0059 50
      vertex -34.5 0 0
      vertex -32 0 50
    endloop
  endfacet
  facet normal -0.648643 0.759463 0.0497841
    outer loop
      vertex -20.2786 27.9111 0
      vertex -22.6274 22.6274 50
      vertex -18.8091 25.8885 50
    endloop
  endfacet
  facet normal -0.52185 0.851583 0.0497841
    outer loop
      vertex -15.6627 30.7397 0
      vertex -20.2786 27.9111 0
      vertex -14.5277 28.5122 50
    endloop
  endfacet
  facet normal 0.759463 0.648643 0.0497841
    outer loop
      vertex 24.3952 24.3952 0
      vertex 22.6274 22.6274 50
      vertex 27.9111 20.2786 0
    endloop
  endfacet
  facet normal 0.648643 0.759463 0.0497841
    outer loop
      vertex 24.3952 24.3952 0
      vertex 20.2786 27.9111 0
      vertex 22.6274 22.6274 50
    endloop
  endfacet
  facet normal 0.52185 0.851583 0.0497841
    outer loop
      vertex 15.6627 30.7397 0
      vertex 14.5277 28.5122 50
      vertex 20.2786 27.9111 0
    endloop
  endfacet
  facet normal 0.0783616 0.995681 0.0497841
    outer loop
      vertex 5.39699 34.0752 0
      vertex 0 34.5 0
      vertex 5.0059 31.606 50
    endloop
  endfacet
  facet normal 0.382209 0.922734 0.049784
    outer loop
      vertex 10.6611 32.8114 0
      vertex 9.88854 30.4338 50
      vertex 15.6627 30.7397 0
    endloop
  endfacet
  facet normal 0.382209 0.922734 0.0497841
    outer loop
      vertex 15.6627 30.7397 0
      vertex 9.88854 30.4338 50
      vertex 14.5277 28.5122 50
    endloop
  endfacet
  facet normal -0.851583 -0.52185 0.0497841
    outer loop
      vertex -28.5122 -14.5277 50
      vertex -30.7397 -15.6627 0
      vertex -27.9111 -20.2786 0
    endloop
  endfacet
  facet normal -0.233157 -0.971164 0.0497841
    outer loop
      vertex -5.0059 -31.606 50
      vertex -10.6611 -32.8114 0
      vertex -5.39699 -34.0752 0
    endloop
  endfacet
  facet normal -0.0783616 -0.995681 0.0497841
    outer loop
      vertex -5.0059 -31.606 50
      vertex -5.39699 -34.0752 0
      vertex 0 -34.5 0
    endloop
  endfacet
  facet normal -0.648643 -0.759463 0.0497841
    outer loop
      vertex -18.8091 -25.8885 50
      vertex -22.6274 -22.6274 50
      vertex -20.2786 -27.9111 0
    endloop
  endfacet
  facet normal -0.648643 -0.759463 0.0497841
    outer loop
      vertex -22.6274 -22.6274 50
      vertex -24.3952 -24.3952 0
      vertex -20.2786 -27.9111 0
    endloop
  endfacet
  facet normal 0.0783621 -0.995681 0.0497841
    outer loop
      vertex 0 -32 50
      vertex 0 -34.5 0
      vertex 5.0059 -31.606 50
    endloop
  endfacet
  facet normal 0.759463 -0.648643 0.0497841
    outer loop
      vertex 25.8885 -18.8091 50
      vertex 22.6274 -22.6274 50
      vertex 27.9111 -20.2786 0
    endloop
  endfacet
  facet normal 0.922734 -0.382209 0.049784
    outer loop
      vertex 32.8114 -10.6611 0
      vertex 30.4338 -9.88854 50
      vertex 30.7397 -15.6627 0
    endloop
  endfacet
  facet normal -0 0 1
    outer loop
      vertex 0 -24.8 50
      vertex 6 -28.6 50
      vertex 6 -24.8 50
    endloop
  endfacet
  facet normal 0 0 1
    outer loop
      vertex 6 -28.6 50
      vertex 0 -24.8 50
      vertex 0 -28.6 50
    endloop
  endfacet
  facet normal -0 0 1
    outer loop
      vertex 2.29963 -21.8795 50
      vertex 6 -23.9 50
      vertex 6.79837 -20.9232 50
    endloop
  endfacet
  facet normal 0 0 1
    outer loop
      vertex 2.29963 -21.8795 50
      vertex 0 -23.9 50
      vertex 6 -23.9 50
    endloop
  endfacet
  facet normal 0 0 1
    outer loop
      vertex -2.29963 -21.8795 50
      vertex 0 -24.8 50
      vertex 0 -23.9 50
    endloop
  endfacet
  facet normal 0 0 1
    outer loop
      vertex -5.0059 -31.606 50
      vertex 0 -24.8 50
      vertex -2.29963 -21.8795 50
    endloop
  endfacet
  facet normal 0 0 1
    outer loop
      vertex 0 -28.6 50
      vertex -5.0059 -31.606 50
      vertex 0 -29.4 50
    endloop
  endfacet
  facet normal -0 0 1
    outer loop
      vertex -2.29963 -21.8795 50
      vertex 0 -23.9 50
      vertex 2.29963 -21.8795 50
    endloop
  endfacet
  facet normal 0 0 1
    outer loop
      vertex 0 -24.8 50
      vertex -5.0059 -31.606 50
      vertex 0 -28.6 50
    endloop
  endfacet
  facet normal 0 0 1
    outer loop
      vertex 0 -29.4 50
      vertex -5.0059 -31.606 50
      vertex 0 -32 50
    endloop
  endfacet
  facet normal 0 0 1
    outer loop
      vertex -6.79837 -20.9232 50
      vertex -5.0059 -31.606 50
      vertex -2.29963 -21.8795 50
    endloop
  endfacet
  facet normal 0 0 1
    outer loop
      vertex -6.79837 -20.9232 50
      vertex -9.88854 -30.4338 50
      vertex -5.0059 -31.606 50
    endloop
  endfacet
  facet normal 0 0 1
    outer loop
      vertex -14.5277 -28.5122 50
      vertex -6.79837 -20.9232 50
      vertex -11 -19.0526 50
    endloop
  endfacet
  facet normal 0 0 1
    outer loop
      vertex -6.79837 -20.9232 50
      vertex -14.5277 -28.5122 50
      vertex -9.88854 -30.4338 50
    endloop
  endfacet
  facet normal 0 0 1
    outer loop
      vertex -18.8091 -25.8885 50
      vertex -11 -19.0526 50
      vertex -14.7209 -16.3492 50
    endloop
  endfacet
  facet normal 0 0 1
    outer loop
      vertex -22.6274 -22.6274 50
      vertex -14.7209 -16.3492 50
      vertex -17.7984 -12.9313 50
    endloop
  endfacet
  facet normal 0 0 1
    outer loop
      vertex -11 -19.0526 50
      vertex -18.8091 -25.8885 50
      vertex -14.5277 -28.5122 50
    endloop
  endfacet
  facet normal 0 0 1
    outer loop
      vertex -28.5122 -14.5277 50
      vertex -17.7984 -12.9313 50
      vertex -20.098 -8.94821 50
    endloop
  endfacet
  facet normal 0 0 1
    outer loop
      vertex -30.4338 -9.88854 50
      vertex -20.098 -8.94821 50
      vertex -21.5192 -4.57406 50
    endloop
  endfacet
  facet normal 0 0 1
    outer loop
      vertex -14.7209 -16.3492 50
      vertex -22.6274 -22.6274 50
      vertex -18.8091 -25.8885 50
    endloop
  endfacet
  facet normal 0 0 1
    outer loop
      vertex -31.606 -5.0059 50
      vertex -21.5192 -4.57406 50
      vertex -22 0 50
    endloop
  endfacet
  facet normal -0 0 1
    outer loop
      vertex -30.4338 9.88854 50
      vertex -20.098 8.94821 50
      vertex -28.5122 14.5277 50
    endloop
  endfacet
  facet normal 0 0 1
    outer loop
      vertex -20.098 8.94821 50
      vertex -30.4338 9.88854 50
      vertex -21.5192 4.57406 50
    endloop
  endfacet
  facet normal 0 0 1
    outer loop
      vertex -17.7984 -12.9313 50
      vertex -25.8885 -18.8091 50
      vertex -22.6274 -22.6274 50
    endloop
  endfacet
  facet normal -0 0 1
    outer loop
      vertex -31.606 5.0059 50
      vertex -21.5192 4.57406 50
      vertex -30.4338 9.88854 50
    endloop
  endfacet
  facet normal 0 0 1
    outer loop
      vertex -17.7984 -12.9313 50
      vertex -28.5122 -14.5277 50
      vertex -25.8885 -18.8091 50
    endloop
  endfacet
  facet normal 0 0 1
    outer loop
      vertex -21.5192 4.57406 50
      vertex -31.606 5.0059 50
      vertex -22 0 50
    endloop
  endfacet
  facet normal 0 0 1
    outer loop
      vertex -20.098 -8.94821 50
      vertex -30.4338 -9.88854 50
      vertex -28.5122 -14.5277 50
    endloop
  endfacet
  facet normal 0 0 1
    outer loop
      vertex -32 0 50
      vertex -22 0 50
      vertex -31.606 5.0059 50
    endloop
  endfacet
  facet normal 0 0 1
    outer loop
      vertex -21.5192 -4.57406 50
      vertex -31.606 -5.0059 50
      vertex -30.4338 -9.88854 50
    endloop
  endfacet
  facet normal 0 0 1
    outer loop
      vertex -22 0 50
      vertex -32 0 50
      vertex -31.606 -5.0059 50
    endloop
  endfacet
  facet normal -0 0 1
    outer loop
      vertex 0 28.6 50
      vertex 6 24.8 50
      vertex 6 28.6 50
    endloop
  endfacet
  facet normal 0 0 1
    outer loop
      vertex 6 24.8 50
      vertex 0 28.6 50
      vertex 0 24.8 50
    endloop
  endfacet
  facet normal 0 0 1
    outer loop
      vertex 22 0 50
      vertex 32 0 50
      vertex 31.606 5.0059 50
    endloop
  endfacet
  facet normal 0 0 1
    outer loop
      vertex 21.5192 4.57406 50
      vertex 31.606 5.0059 50
      vertex 30.4338 9.88854 50
    endloop
  endfacet
  facet normal 0 0 1
    outer loop
      vertex 32 0 50
      vertex 22 0 50
      vertex 31.606 -5.0059 50
    endloop
  endfacet
  facet normal 0 0 1
    outer loop
      vertex 20.098 8.94821 50
      vertex 30.4338 9.88854 50
      vertex 28.5122 14.5277 50
    endloop
  endfacet
  facet normal -0 0 1
    outer loop
      vertex 21.5192 -4.57406 50
      vertex 31.606 -5.0059 50
      vertex 22 0 50
    endloop
  endfacet
  facet normal 0 0 1
    outer loop
      vertex 17.7984 12.9313 50
      vertex 28.5122 14.5277 50
      vertex 25.8885 18.8091 50
    endloop
  endfacet
  facet normal 0 0 1
    outer loop
      vertex 31.606 -5.0059 50
      vertex 21.5192 -4.57406 50
      vertex 30.4338 -9.88854 50
    endloop
  endfacet
  facet normal 0 0 1
    outer loop
      vertex 17.7984 12.9313 50
      vertex 25.8885 18.8091 50
      vertex 22.6274 22.6274 50
    endloop
  endfacet
  facet normal -0 0 1
    outer loop
      vertex 20.098 -8.94821 50
      vertex 30.4338 -9.88854 50
      vertex 21.5192 -4.57406 50
    endloop
  endfacet
  facet normal 0 0 1
    outer loop
      vertex 30.4338 -9.88854 50
      vertex 20.098 -8.94821 50
      vertex 28.5122 -14.5277 50
    endloop
  endfacet
  facet normal 0 0 1
    outer loop
      vertex 31.606 5.0059 50
      vertex 21.5192 4.57406 50
      vertex 22 0 50
    endloop
  endfacet
  facet normal 0 0 1
    outer loop
      vertex 30.4338 9.88854 50
      vertex 20.098 8.94821 50
      vertex 21.5192 4.57406 50
    endloop
  endfacet
  facet normal 0 0 1
    outer loop
      vertex 14.7209 16.3492 50
      vertex 22.6274 22.6274 50
      vertex 18.8091 25.8885 50
    endloop
  endfacet
  facet normal 0 0 1
    outer loop
      vertex 28.5122 14.5277 50
      vertex 17.7984 12.9313 50
      vertex 20.098 8.94821 50
    endloop
  endfacet
  facet normal 0 0 1
    outer loop
      vertex 22.6274 22.6274 50
      vertex 14.7209 16.3492 50
      vertex 17.7984 12.9313 50
    endloop
  endfacet
  facet normal 0 0 1
    outer loop
      vertex 11 19.0526 50
      vertex 18.8091 25.8885 50
      vertex 14.5277 28.5122 50
    endloop
  endfacet
  facet normal 0 0 1
    outer loop
      vertex 18.8091 25.8885 50
      vertex 11 19.0526 50
      vertex 14.7209 16.3492 50
    endloop
  endfacet
  facet normal 0 0 1
    outer loop
      vertex 6 24.8 50
      vertex 14.5277 28.5122 50
      vertex 9.88854 30.4338 50
    endloop
  endfacet
  facet normal 0 0 1
    outer loop
      vertex 6 24 50
      vertex 14.5277 28.5122 50
      vertex 6 24.8 50
    endloop
  endfacet
  facet normal 0 0 1
    outer loop
      vertex 6 28.6 50
      vertex 9.88854 30.4338 50
      vertex 6 29.5 50
    endloop
  endfacet
  facet normal 0 0 1
    outer loop
      vertex 5.0059 31.606 50
      vertex 6 29.5 50
      vertex 9.88854 30.4338 50
    endloop
  endfacet
  facet normal 0 0 1
    outer loop
      vertex 0 29.5 50
      vertex 5.0059 31.606 50
      vertex 0 32 50
    endloop
  endfacet
  facet normal 0 0 1
    outer loop
      vertex 5.0059 31.606 50
      vertex 0 29.5 50
      vertex 6 29.5 50
    endloop
  endfacet
  facet normal -0 0 1
    outer loop
      vertex -5.0059 31.606 50
      vertex 0 29.5 50
      vertex 0 32 50
    endloop
  endfacet
  facet normal 0 0 1
    outer loop
      vertex 0 29.5 50
      vertex -5.0059 31.606 50
      vertex 0 28.6 50
    endloop
  endfacet
  facet normal 0 0 1
    outer loop
      vertex 0 28.6 50
      vertex -5.0059 31.606 50
      vertex 0 24.8 50
    endloop
  endfacet
  facet normal 0 -0 1
    outer loop
      vertex -2.29963 21.8795 50
      vertex 0 24.8 50
      vertex -5.0059 31.606 50
    endloop
  endfacet
  facet normal 0 0 1
    outer loop
      vertex 0 24.8 50
      vertex -2.29963 21.8795 50
      vertex 0 24 50
    endloop
  endfacet
  facet normal 0 0 1
    outer loop
      vertex -5.0059 31.606 50
      vertex -6.79837 20.9232 50
      vertex -2.29963 21.8795 50
    endloop
  endfacet
  facet normal -0 0 1
    outer loop
      vertex -9.88854 30.4338 50
      vertex -6.79837 20.9232 50
      vertex -5.0059 31.606 50
    endloop
  endfacet
  facet normal -0 0 1
    outer loop
      vertex -14.5277 28.5122 50
      vertex -6.79837 20.9232 50
      vertex -9.88854 30.4338 50
    endloop
  endfacet
  facet normal 0 0 1
    outer loop
      vertex -6.79837 20.9232 50
      vertex -14.5277 28.5122 50
      vertex -11 19.0526 50
    endloop
  endfacet
  facet normal -0 0 1
    outer loop
      vertex -18.8091 25.8885 50
      vertex -11 19.0526 50
      vertex -14.5277 28.5122 50
    endloop
  endfacet
  facet normal 0 0 1
    outer loop
      vertex -11 19.0526 50
      vertex -18.8091 25.8885 50
      vertex -14.7209 16.3492 50
    endloop
  endfacet
  facet normal -0 0 1
    outer loop
      vertex -22.6274 22.6274 50
      vertex -14.7209 16.3492 50
      vertex -18.8091 25.8885 50
    endloop
  endfacet
  facet normal 0 0 1
    outer loop
      vertex -14.7209 16.3492 50
      vertex -22.6274 22.6274 50
      vertex -17.7984 12.9313 50
    endloop
  endfacet
  facet normal -0 0 1
    outer loop
      vertex -25.8885 18.8091 50
      vertex -17.7984 12.9313 50
      vertex -22.6274 22.6274 50
    endloop
  endfacet
  facet normal 0 0 1
    outer loop
      vertex -17.7984 12.9313 50
      vertex -28.5122 14.5277 50
      vertex -20.098 8.94821 50
    endloop
  endfacet
  facet normal -0 0 1
    outer loop
      vertex -28.5122 14.5277 50
      vertex -17.7984 12.9313 50
      vertex -25.8885 18.8091 50
    endloop
  endfacet
  facet normal -0 0 1
    outer loop
      vertex 17.7984 -12.9313 50
      vertex 28.5122 -14.5277 50
      vertex 20.098 -8.94821 50
    endloop
  endfacet
  facet normal 0 0 1
    outer loop
      vertex 28.5122 -14.5277 50
      vertex 17.7984 -12.9313 50
      vertex 25.8885 -18.8091 50
    endloop
  endfacet
  facet normal 0 0 1
    outer loop
      vertex 25.8885 -18.8091 50
      vertex 17.7984 -12.9313 50
      vertex 22.6274 -22.6274 50
    endloop
  endfacet
  facet normal -0 0 1
    outer loop
      vertex 14.7209 -16.3492 50
      vertex 22.6274 -22.6274 50
      vertex 17.7984 -12.9313 50
    endloop
  endfacet
  facet normal 0 0 1
    outer loop
      vertex 22.6274 -22.6274 50
      vertex 14.7209 -16.3492 50
      vertex 18.8091 -25.8885 50
    endloop
  endfacet
  facet normal -0 0 1
    outer loop
      vertex 11 -19.0526 50
      vertex 18.8091 -25.8885 50
      vertex 14.7209 -16.3492 50
    endloop
  endfacet
  facet normal 0 0 1
    outer loop
      vertex 18.8091 -25.8885 50
      vertex 11 -19.0526 50
      vertex 14.5277 -28.5122 50
    endloop
  endfacet
  facet normal -0 0 1
    outer loop
      vertex 6 -24.8 50
      vertex 14.5277 -28.5122 50
      vertex 11 -19.0526 50
    endloop
  endfacet
  facet normal 0 0 1
    outer loop
      vertex 6 -23.9 50
      vertex 11 -19.0526 50
      vertex 6.79837 -20.9232 50
    endloop
  endfacet
  facet normal 0 0 1
    outer loop
      vertex 6 -24.8 50
      vertex 11 -19.0526 50
      vertex 6 -23.9 50
    endloop
  endfacet
  facet normal 0 0 1
    outer loop
      vertex 14.5277 -28.5122 50
      vertex 6 -24.8 50
      vertex 9.88854 -30.4338 50
    endloop
  endfacet
  facet normal -0 0 1
    outer loop
      vertex 6 -28.6 50
      vertex 9.88854 -30.4338 50
      vertex 6 -24.8 50
    endloop
  endfacet
  facet normal -0 0 1
    outer loop
      vertex 6 -29.4 50
      vertex 9.88854 -30.4338 50
      vertex 6 -28.6 50
    endloop
  endfacet
  facet normal 0 0 1
    outer loop
      vertex 6 -29.4 50
      vertex 5.0059 -31.606 50
      vertex 9.88854 -30.4338 50
    endloop
  endfacet
  facet normal -0 0 1
    outer loop
      vertex 0 -29.4 50
      vertex 5.0059 -31.606 50
      vertex 6 -29.4 50
    endloop
  endfacet
  facet normal 0 0 1
    outer loop
      vertex 5.0059 -31.606 50
      vertex 0 -29.4 50
      vertex 0 -32 50
    endloop
  endfacet
  facet normal 0 0 1
    outer loop
      vertex 6 24.8 50
      vertex 9.88854 30.4338 50
      vertex 6 28.6 50
    endloop
  endfacet
  facet normal 0 0 1
    outer loop
      vertex 14.5277 28.5122 50
      vertex 6 24 50
      vertex 11 19.0526 50
    endloop
  endfacet
  facet normal 0 0 1
    outer loop
      vertex 11 19.0526 50
      vertex 6 24 50
      vertex 6.79837 20.9232 50
    endloop
  endfacet
  facet normal 0 0 1
    outer loop
      vertex 6 24 50
      vertex 2.29963 21.8795 50
      vertex 6.79837 20.9232 50
    endloop
  endfacet
  facet normal -0 0 1
    outer loop
      vertex 0 24 50
      vertex 2.29963 21.8795 50
      vertex 6 24 50
    endloop
  endfacet
  facet normal 0 0 1
    outer loop
      vertex 2.29963 21.8795 50
      vertex 0 24 50
      vertex -2.29963 21.8795 50
    endloop
  endfacet
  facet normal -0.971164 0.233156 0.049784
    outer loop
      vertex -30.4338 9.88854 50
      vertex -32.8114 10.6611 0
      vertex -31.606 5.0059 50
    endloop
  endfacet
  facet normal -0.922734 0.382209 0.049784
    outer loop
      vertex -30.7397 15.6627 0
      vertex -32.8114 10.6611 0
      vertex -30.4338 9.88854 50
    endloop
  endfacet
  facet normal -0.922734 0.382209 0.0497841
    outer loop
      vertex -28.5122 14.5277 50
      vertex -30.7397 15.6627 0
      vertex -30.4338 9.88854 50
    endloop
  endfacet
  facet normal -0.851583 0.52185 0.0497841
    outer loop
      vertex -27.9111 20.2786 0
      vertex -30.7397 15.6627 0
      vertex -28.5122 14.5277 50
    endloop
  endfacet
  facet normal -0.851583 0.521851 0.0497841
    outer loop
      vertex -27.9111 20.2786 0
      vertex -28.5122 14.5277 50
      vertex -25.8885 18.8091 50
    endloop
  endfacet
  facet normal -0.759463 0.648643 0.0497841
    outer loop
      vertex -22.6274 22.6274 50
      vertex -27.9111 20.2786 0
      vertex -25.8885 18.8091 50
    endloop
  endfacet
  facet normal -0.382209 0.922734 0.049784
    outer loop
      vertex -10.6611 32.8114 0
      vertex -15.6627 30.7397 0
      vertex -9.88854 30.4338 50
    endloop
  endfacet
  facet normal -0.233157 0.971164 0.0497841
    outer loop
      vertex -5.39699 34.0752 0
      vertex -10.6611 32.8114 0
      vertex -5.0059 31.606 50
    endloop
  endfacet
  facet normal -0.0783616 0.995681 0.0497841
    outer loop
      vertex 0 34.5 0
      vertex -5.39699 34.0752 0
      vertex -5.0059 31.606 50
    endloop
  endfacet
  facet normal 0.922734 0.382209 0.049784
    outer loop
      vertex 30.7397 15.6627 0
      vertex 30.4338 9.88854 50
      vertex 32.8114 10.6611 0
    endloop
  endfacet
  facet normal 0.0783621 0.995681 0.0497841
    outer loop
      vertex 0 34.5 0
      vertex 0 32 50
      vertex 5.0059 31.606 50
    endloop
  endfacet
  facet normal 0.233156 0.971164 0.049784
    outer loop
      vertex 10.6611 32.8114 0
      vertex 5.0059 31.606 50
      vertex 9.88854 30.4338 50
    endloop
  endfacet
  facet normal 0.233157 0.971164 0.0497841
    outer loop
      vertex 5.39699 34.0752 0
      vertex 5.0059 31.606 50
      vertex 10.6611 32.8114 0
    endloop
  endfacet
  facet normal -0.851583 -0.521851 0.0497841
    outer loop
      vertex -25.8885 -18.8091 50
      vertex -28.5122 -14.5277 50
      vertex -27.9111 -20.2786 0
    endloop
  endfacet
  facet normal -0.759463 -0.648643 0.0497841
    outer loop
      vertex -25.8885 -18.8091 50
      vertex -27.9111 -20.2786 0
      vertex -22.6274 -22.6274 50
    endloop
  endfacet
  facet normal -0.922734 -0.382209 0.0497841
    outer loop
      vertex -30.4338 -9.88854 50
      vertex -30.7397 -15.6627 0
      vertex -28.5122 -14.5277 50
    endloop
  endfacet
  facet normal -0.922734 -0.382209 0.049784
    outer loop
      vertex -30.4338 -9.88854 50
      vertex -32.8114 -10.6611 0
      vertex -30.7397 -15.6627 0
    endloop
  endfacet
  facet normal -0.382209 -0.922734 0.0497841
    outer loop
      vertex -14.5277 -28.5122 50
      vertex -15.6627 -30.7397 0
      vertex -9.88854 -30.4338 50
    endloop
  endfacet
  facet normal -0.52185 -0.851583 0.0497841
    outer loop
      vertex -14.5277 -28.5122 50
      vertex -20.2786 -27.9111 0
      vertex -15.6627 -30.7397 0
    endloop
  endfacet
  facet normal -0.521851 -0.851583 0.0497841
    outer loop
      vertex -18.8091 -25.8885 50
      vertex -20.2786 -27.9111 0
      vertex -14.5277 -28.5122 50
    endloop
  endfacet
  facet normal 0.382209 -0.922734 0.0497841
    outer loop
      vertex 14.5277 -28.5122 50
      vertex 9.88854 -30.4338 50
      vertex 15.6627 -30.7397 0
    endloop
  endfacet
  facet normal 0.648643 -0.759463 0.0497841
    outer loop
      vertex 22.6274 -22.6274 50
      vertex 18.8091 -25.8885 50
      vertex 20.2786 -27.9111 0
    endloop
  endfacet
  facet normal 0.52185 -0.851583 0.0497841
    outer loop
      vertex 20.2786 -27.9111 0
      vertex 14.5277 -28.5122 50
      vertex 15.6627 -30.7397 0
    endloop
  endfacet
  facet normal 0.382209 -0.922734 0.049784
    outer loop
      vertex 15.6627 -30.7397 0
      vertex 9.88854 -30.4338 50
      vertex 10.6611 -32.8114 0
    endloop
  endfacet
  facet normal 0.922734 -0.382209 0.0497841
    outer loop
      vertex 30.4338 -9.88854 50
      vertex 28.5122 -14.5277 50
      vertex 30.7397 -15.6627 0
    endloop
  endfacet
  facet normal 0.851583 -0.521851 0.0497841
    outer loop
      vertex 28.5122 -14.5277 50
      vertex 25.8885 -18.8091 50
      vertex 27.9111 -20.2786 0
    endloop
  endfacet
  facet normal 0.851583 -0.52185 0.0497841
    outer loop
      vertex 28.5122 -14.5277 50
      vertex 27.9111 -20.2786 0
      vertex 30.7397 -15.6627 0
    endloop
  endfacet
  facet normal -0.971164 0.233157 0.0497841
    outer loop
      vertex -32.8114 10.6611 0
      vertex -34.0752 5.39699 0
      vertex -31.606 5.0059 50
    endloop
  endfacet
  facet normal -0.759463 0.648643 0.0497841
    outer loop
      vertex -24.3952 24.3952 0
      vertex -27.9111 20.2786 0
      vertex -22.6274 22.6274 50
    endloop
  endfacet
  facet normal -0.648643 0.759463 0.0497841
    outer loop
      vertex -20.2786 27.9111 0
      vertex -24.3952 24.3952 0
      vertex -22.6274 22.6274 50
    endloop
  endfacet
  facet normal -0.521851 0.851583 0.0497841
    outer loop
      vertex -14.5277 28.5122 50
      vertex -20.2786 27.9111 0
      vertex -18.8091 25.8885 50
    endloop
  endfacet
  facet normal 0.922734 0.382209 0.0497841
    outer loop
      vertex 30.7397 15.6627 0
      vertex 28.5122 14.5277 50
      vertex 30.4338 9.88854 50
    endloop
  endfacet
  facet normal 0.851583 0.52185 0.0497841
    outer loop
      vertex 30.7397 15.6627 0
      vertex 27.9111 20.2786 0
      vertex 28.5122 14.5277 50
    endloop
  endfacet
  facet normal 0.521851 0.851583 0.0497841
    outer loop
      vertex 20.2786 27.9111 0
      vertex 14.5277 28.5122 50
      vertex 18.8091 25.8885 50
    endloop
  endfacet
  facet normal 0.521851 -0.851583 0.0497841
    outer loop
      vertex 18.8091 -25.8885 50
      vertex 14.5277 -28.5122 50
      vertex 20.2786 -27.9111 0
    endloop
  endfacet
  facet normal -0.382209 0.922734 0.0497841
    outer loop
      vertex -9.88854 30.4338 50
      vertex -15.6627 30.7397 0
      vertex -14.5277 28.5122 50
    endloop
  endfacet
  facet normal 0.951057 -0.309017 0
    outer loop
      vertex -21.5192 4.57406 50
      vertex -20.098 8.94821 0
      vertex -20.098 8.94821 50
    endloop
  endfacet
  facet normal 0.951057 -0.309017 0
    outer loop
      vertex -20.098 8.94821 0
      vertex -21.5192 4.57406 50
      vertex -21.5192 4.57406 0
    endloop
  endfacet
  facet normal -0.866025 -0.5 0
    outer loop
      vertex 20.098 8.94821 0
      vertex 17.7984 12.9313 50
      vertex 17.7984 12.9313 0
    endloop
  endfacet
  facet normal -0.866025 -0.5 0
    outer loop
      vertex 17.7984 12.9313 50
      vertex 20.098 8.94821 0
      vertex 20.098 8.94821 50
    endloop
  endfacet
  facet normal -0.951057 -0.309017 0
    outer loop
      vertex 21.5192 4.57406 0
      vertex 20.098 8.94821 50
      vertex 20.098 8.94821 0
    endloop
  endfacet
  facet normal -0.951057 -0.309017 0
    outer loop
      vertex 20.098 8.94821 50
      vertex 21.5192 4.57406 0
      vertex 21.5192 4.57406 50
    endloop
  endfacet
  facet normal -0.406736 -0.913546 0
    outer loop
      vertex 6.79837 20.9232 0
      vertex 11 19.0526 50
      vertex 6.79837 20.9232 50
    endloop
  endfacet
  facet normal -0.406736 -0.913546 -0
    outer loop
      vertex 11 19.0526 50
      vertex 6.79837 20.9232 0
      vertex 11 19.0526 0
    endloop
  endfacet
  facet normal 0.207912 -0.978148 0
    outer loop
      vertex -6.79837 20.9232 0
      vertex -2.29963 21.8795 50
      vertex -6.79837 20.9232 50
    endloop
  endfacet
  facet normal 0.207912 -0.978148 0
    outer loop
      vertex -2.29963 21.8795 50
      vertex -6.79837 20.9232 0
      vertex -2.29963 21.8795 0
    endloop
  endfacet
  facet normal 0.866025 -0.5 0
    outer loop
      vertex -20.098 8.94821 50
      vertex -17.7984 12.9313 0
      vertex -17.7984 12.9313 50
    endloop
  endfacet
  facet normal 0.866025 -0.5 0
    outer loop
      vertex -17.7984 12.9313 0
      vertex -20.098 8.94821 50
      vertex -20.098 8.94821 0
    endloop
  endfacet
  facet normal -0.994522 0.104529 0
    outer loop
      vertex 21.5192 -4.57406 0
      vertex 22 0 50
      vertex 22 0 0
    endloop
  endfacet
  facet normal -0.994522 0.104529 0
    outer loop
      vertex 22 0 50
      vertex 21.5192 -4.57406 0
      vertex 21.5192 -4.57406 50
    endloop
  endfacet
  facet normal -0.207912 0.978148 0
    outer loop
      vertex 6.79837 -20.9232 0
      vertex 2.29963 -21.8795 50
      vertex 6.79837 -20.9232 50
    endloop
  endfacet
  facet normal -0.207912 0.978148 0
    outer loop
      vertex 2.29963 -21.8795 50
      vertex 6.79837 -20.9232 0
      vertex 2.29963 -21.8795 0
    endloop
  endfacet
  facet normal -0.743145 -0.669131 0
    outer loop
      vertex 17.7984 12.9313 0
      vertex 14.7209 16.3492 50
      vertex 14.7209 16.3492 0
    endloop
  endfacet
  facet normal -0.743145 -0.669131 0
    outer loop
      vertex 14.7209 16.3492 50
      vertex 17.7984 12.9313 0
      vertex 17.7984 12.9313 50
    endloop
  endfacet
  facet normal 0 -1 0
    outer loop
      vertex -2.29963 21.8795 0
      vertex 2.29963 21.8795 50
      vertex -2.29963 21.8795 50
    endloop
  endfacet
  facet normal 0 -1 -0
    outer loop
      vertex 2.29963 21.8795 50
      vertex -2.29963 21.8795 0
      vertex 2.29963 21.8795 0
    endloop
  endfacet
  facet normal -0.587785 -0.809017 0
    outer loop
      vertex 11 19.0526 0
      vertex 14.7209 16.3492 50
      vertex 11 19.0526 50
    endloop
  endfacet
  facet normal -0.587785 -0.809017 -0
    outer loop
      vertex 14.7209 16.3492 50
      vertex 11 19.0526 0
      vertex 14.7209 16.3492 0
    endloop
  endfacet
  facet normal 0.994522 -0.104529 0
    outer loop
      vertex -22 0 50
      vertex -21.5192 4.57406 0
      vertex -21.5192 4.57406 50
    endloop
  endfacet
  facet normal 0.994522 -0.104529 0
    outer loop
      vertex -21.5192 4.57406 0
      vertex -22 0 50
      vertex -22 0 0
    endloop
  endfacet
  facet normal 0.743145 -0.669131 0
    outer loop
      vertex -17.7984 12.9313 50
      vertex -14.7209 16.3492 0
      vertex -14.7209 16.3492 50
    endloop
  endfacet
  facet normal 0.743145 -0.669131 0
    outer loop
      vertex -14.7209 16.3492 0
      vertex -17.7984 12.9313 50
      vertex -17.7984 12.9313 0
    endloop
  endfacet
  facet normal 0.406737 -0.913546 0
    outer loop
      vertex -11 19.0526 0
      vertex -6.79837 20.9232 50
      vertex -11 19.0526 50
    endloop
  endfacet
  facet normal 0.406737 -0.913546 0
    outer loop
      vertex -6.79837 20.9232 50
      vertex -11 19.0526 0
      vertex -6.79837 20.9232 0
    endloop
  endfacet
  facet normal 0.587785 -0.809017 0
    outer loop
      vertex -14.7209 16.3492 0
      vertex -11 19.0526 50
      vertex -14.7209 16.3492 50
    endloop
  endfacet
  facet normal 0.587785 -0.809017 0
    outer loop
      vertex -11 19.0526 50
      vertex -14.7209 16.3492 0
      vertex -11 19.0526 0
    endloop
  endfacet
  facet normal -0.994522 -0.104529 0
    outer loop
      vertex 22 0 0
      vertex 21.5192 4.57406 50
      vertex 21.5192 4.57406 0
    endloop
  endfacet
  facet normal -0.994522 -0.104529 0
    outer loop
      vertex 21.5192 4.57406 50
      vertex 22 0 0
      vertex 22 0 50
    endloop
  endfacet
  facet normal -0.951057 0.309017 0
    outer loop
      vertex 20.098 -8.94821 0
      vertex 21.5192 -4.57406 50
      vertex 21.5192 -4.57406 0
    endloop
  endfacet
  facet normal -0.951057 0.309017 0
    outer loop
      vertex 21.5192 -4.57406 50
      vertex 20.098 -8.94821 0
      vertex 20.098 -8.94821 50
    endloop
  endfacet
  facet normal 0.587785 0.809017 -0
    outer loop
      vertex -11 -19.0526 0
      vertex -14.7209 -16.3492 50
      vertex -11 -19.0526 50
    endloop
  endfacet
  facet normal 0.587785 0.809017 0
    outer loop
      vertex -14.7209 -16.3492 50
      vertex -11 -19.0526 0
      vertex -14.7209 -16.3492 0
    endloop
  endfacet
  facet normal 0.866025 0.5 0
    outer loop
      vertex -17.7984 -12.9313 50
      vertex -20.098 -8.94821 0
      vertex -20.098 -8.94821 50
    endloop
  endfacet
  facet normal 0.866025 0.5 0
    outer loop
      vertex -20.098 -8.94821 0
      vertex -17.7984 -12.9313 50
      vertex -17.7984 -12.9313 0
    endloop
  endfacet
  facet normal -0.587785 0.809017 0
    outer loop
      vertex 14.7209 -16.3492 0
      vertex 11 -19.0526 50
      vertex 14.7209 -16.3492 50
    endloop
  endfacet
  facet normal -0.587785 0.809017 0
    outer loop
      vertex 11 -19.0526 50
      vertex 14.7209 -16.3492 0
      vertex 11 -19.0526 0
    endloop
  endfacet
  facet normal -0.207912 -0.978148 0
    outer loop
      vertex 2.29963 21.8795 0
      vertex 6.79837 20.9232 50
      vertex 2.29963 21.8795 50
    endloop
  endfacet
  facet normal -0.207912 -0.978148 -0
    outer loop
      vertex 6.79837 20.9232 50
      vertex 2.29963 21.8795 0
      vertex 6.79837 20.9232 0
    endloop
  endfacet
  facet normal -0.866025 0.5 0
    outer loop
      vertex 17.7984 -12.9313 0
      vertex 20.098 -8.94821 50
      vertex 20.098 -8.94821 0
    endloop
  endfacet
  facet normal -0.866025 0.5 0
    outer loop
      vertex 20.098 -8.94821 50
      vertex 17.7984 -12.9313 0
      vertex 17.7984 -12.9313 50
    endloop
  endfacet
  facet normal 0.994522 0.104529 0
    outer loop
      vertex -21.5192 -4.57406 50
      vertex -22 0 0
      vertex -22 0 50
    endloop
  endfacet
  facet normal 0.994522 0.104529 0
    outer loop
      vertex -22 0 0
      vertex -21.5192 -4.57406 50
      vertex -21.5192 -4.57406 0
    endloop
  endfacet
  facet normal 0.743145 0.669131 0
    outer loop
      vertex -14.7209 -16.3492 50
      vertex -17.7984 -12.9313 0
      vertex -17.7984 -12.9313 50
    endloop
  endfacet
  facet normal 0.743145 0.669131 0
    outer loop
      vertex -17.7984 -12.9313 0
      vertex -14.7209 -16.3492 50
      vertex -14.7209 -16.3492 0
    endloop
  endfacet
  facet normal -0.406736 0.913546 0
    outer loop
      vertex 11 -19.0526 0
      vertex 6.79837 -20.9232 50
      vertex 11 -19.0526 50
    endloop
  endfacet
  facet normal -0.406736 0.913546 0
    outer loop
      vertex 6.79837 -20.9232 50
      vertex 11 -19.0526 0
      vertex 6.79837 -20.9232 0
    endloop
  endfacet
  facet normal 0.406736 0.913546 -0
    outer loop
      vertex -6.79837 -20.9232 0
      vertex -11 -19.0526 50
      vertex -6.79837 -20.9232 50
    endloop
  endfacet
  facet normal 0.406736 0.913546 0
    outer loop
      vertex -11 -19.0526 50
      vertex -6.79837 -20.9232 0
      vertex -11 -19.0526 0
    endloop
  endfacet
  facet normal 0 1 -0
    outer loop
      vertex 2.29963 -21.8795 0
      vertex -2.29963 -21.8795 50
      vertex 2.29963 -21.8795 50
    endloop
  endfacet
  facet normal 0 1 0
    outer loop
      vertex -2.29963 -21.8795 50
      vertex 2.29963 -21.8795 0
      vertex -2.29963 -21.8795 0
    endloop
  endfacet
  facet normal 0.951057 0.309017 0
    outer loop
      vertex -20.098 -8.94821 50
      vertex -21.5192 -4.57406 0
      vertex -21.5192 -4.57406 50
    endloop
  endfacet
  facet normal 0.951057 0.309017 0
    outer loop
      vertex -21.5192 -4.57406 0
      vertex -20.098 -8.94821 50
      vertex -20.098 -8.94821 0
    endloop
  endfacet
  facet normal -0.743145 0.669131 0
    outer loop
      vertex 14.7209 -16.3492 0
      vertex 17.7984 -12.9313 50
      vertex 17.7984 -12.9313 0
    endloop
  endfacet
  facet normal -0.743145 0.669131 0
    outer loop
      vertex 17.7984 -12.9313 50
      vertex 14.7209 -16.3492 0
      vertex 14.7209 -16.3492 50
    endloop
  endfacet
  facet normal 0.207912 0.978148 -0
    outer loop
      vertex -2.29963 -21.8795 0
      vertex -6.79837 -20.9232 50
      vertex -2.29963 -21.8795 50
    endloop
  endfacet
  facet normal 0.207912 0.978148 0
    outer loop
      vertex -6.79837 -20.9232 50
      vertex -2.29963 -21.8795 0
      vertex -6.79837 -20.9232 0
    endloop
  endfacet
  facet normal -1 0 0
    outer loop
      vertex 0 24.8 50
      vertex 0 24 50
      vertex 0 24.8 53.8
    endloop
  endfacet
  facet normal -1 0 0
    outer loop
      vertex 0 28.6 53.8
      vertex 0 29.5 50
      vertex 0 28.6 50
    endloop
  endfacet
  facet normal -1 0 0
    outer loop
      vertex 0 29.5 50
      vertex 0 28.6 53.8
      vertex 0 29.5 55
    endloop
  endfacet
  facet normal -1 0 0
    outer loop
      vertex 0 24 55
      vertex 0 28.6 53.8
      vertex 0 24.8 53.8
    endloop
  endfacet
  facet normal -1 0 0
    outer loop
      vertex 0 28.6 53.8
      vertex 0 24 55
      vertex 0 29.5 55
    endloop
  endfacet
  facet normal -1 0 0
    outer loop
      vertex 0 24 55
      vertex 0 24.8 53.8
      vertex 0 24 50
    endloop
  endfacet
  facet normal -0 0 1
    outer loop
      vertex 0 29.5 55
      vertex 6 24 55
      vertex 6 29.5 55
    endloop
  endfacet
  facet normal 0 0 1
    outer loop
      vertex 6 24 55
      vertex 0 29.5 55
      vertex 0 24 55
    endloop
  endfacet
  facet normal 1 0 0
    outer loop
      vertex 6 29.5 55
      vertex 6 28.6 53.8
      vertex 6 29.5 50
    endloop
  endfacet
  facet normal 1 -0 0
    outer loop
      vertex 6 24 55
      vertex 6 28.6 53.8
      vertex 6 29.5 55
    endloop
  endfacet
  facet normal 1 0 0
    outer loop
      vertex 6 28.6 53.8
      vertex 6 24 55
      vertex 6 24.8 53.8
    endloop
  endfacet
  facet normal 1 0 0
    outer loop
      vertex 6 24 50
      vertex 6 24.8 53.8
      vertex 6 24 55
    endloop
  endfacet
  facet normal 1 0 0
    outer loop
      vertex 6 24.8 53.8
      vertex 6 24 50
      vertex 6 24.8 50
    endloop
  endfacet
  facet normal 1 0 0
    outer loop
      vertex 6 29.5 50
      vertex 6 28.6 53.8
      vertex 6 28.6 50
    endloop
  endfacet
  facet normal 0 -1 0
    outer loop
      vertex 0 24 50
      vertex 6 24 55
      vertex 0 24 55
    endloop
  endfacet
  facet normal 0 -1 -0
    outer loop
      vertex 6 24 55
      vertex 0 24 50
      vertex 6 24 50
    endloop
  endfacet
  facet normal 0 1 -0
    outer loop
      vertex 6 29.5 50
      vertex 0 29.5 55
      vertex 6 29.5 55
    endloop
  endfacet
  facet normal 0 1 0
    outer loop
      vertex 0 29.5 55
      vertex 6 29.5 50
      vertex 0 29.5 50
    endloop
  endfacet
  facet normal 0 0 -1
    outer loop
      vertex 0 24.8 53.8
      vertex 6 28.6 53.8
      vertex 6 24.8 53.8
    endloop
  endfacet
  facet normal -0 0 -1
    outer loop
      vertex 6 28.6 53.8
      vertex 0 24.8 53.8
      vertex 0 28.6 53.8
    endloop
  endfacet
  facet normal 0 1 -0
    outer loop
      vertex 6 24.8 50
      vertex 0 24.8 53.8
      vertex 6 24.8 53.8
    endloop
  endfacet
  facet normal 0 1 0
    outer loop
      vertex 0 24.8 53.8
      vertex 6 24.8 50
      vertex 0 24.8 50
    endloop
  endfacet
  facet normal 0 -1 0
    outer loop
      vertex 0 28.6 50
      vertex 6 28.6 53.8
      vertex 0 28.6 53.8
    endloop
  endfacet
  facet normal 0 -1 -0
    outer loop
      vertex 6 28.6 53.8
      vertex 0 28.6 50
      vertex 6 28.6 50
    endloop
  endfacet
  facet normal -1 0 0
    outer loop
      vertex 0 -28.6 50
      vertex 0 -29.4 50
      vertex 0 -28.6 53.8
    endloop
  endfacet
  facet normal -1 0 0
    outer loop
      vertex 0 -24.8 53.8
      vertex 0 -23.9 50
      vertex 0 -24.8 50
    endloop
  endfacet
  facet normal -1 0 0
    outer loop
      vertex 0 -23.9 50
      vertex 0 -24.8 53.8
      vertex 0 -23.9 55
    endloop
  endfacet
  facet normal -1 0 0
    outer loop
      vertex 0 -29.4 55
      vertex 0 -24.8 53.8
      vertex 0 -28.6 53.8
    endloop
  endfacet
  facet normal -1 0 0
    outer loop
      vertex 0 -24.8 53.8
      vertex 0 -29.4 55
      vertex 0 -23.9 55
    endloop
  endfacet
  facet normal -1 0 0
    outer loop
      vertex 0 -29.4 55
      vertex 0 -28.6 53.8
      vertex 0 -29.4 50
    endloop
  endfacet
  facet normal -0 0 1
    outer loop
      vertex 0 -23.9 55
      vertex 6 -29.4 55
      vertex 6 -23.9 55
    endloop
  endfacet
  facet normal 0 0 1
    outer loop
      vertex 6 -29.4 55
      vertex 0 -23.9 55
      vertex 0 -29.4 55
    endloop
  endfacet
  facet normal 1 0 0
    outer loop
      vertex 6 -23.9 55
      vertex 6 -24.8 53.8
      vertex 6 -23.9 50
    endloop
  endfacet
  facet normal 1 -0 0
    outer loop
      vertex 6 -29.4 55
      vertex 6 -24.8 53.8
      vertex 6 -23.9 55
    endloop
  endfacet
  facet normal 1 0 0
    outer loop
      vertex 6 -24.8 53.8
      vertex 6 -29.4 55
      vertex 6 -28.6 53.8
    endloop
  endfacet
  facet normal 1 0 0
    outer loop
      vertex 6 -29.4 50
      vertex 6 -28.6 53.8
      vertex 6 -29.4 55
    endloop
  endfacet
  facet normal 1 0 0
    outer loop
      vertex 6 -28.6 53.8
      vertex 6 -29.4 50
      vertex 6 -28.6 50
    endloop
  endfacet
  facet normal 1 0 0
    outer loop
      vertex 6 -23.9 50
      vertex 6 -24.8 53.8
      vertex 6 -24.8 50
    endloop
  endfacet
  facet normal 0 -1 0
    outer loop
      vertex 0 -29.4 50
      vertex 6 -29.4 55
      vertex 0 -29.4 55
    endloop
  endfacet
  facet normal 0 -1 -0
    outer loop
      vertex 6 -29.4 55
      vertex 0 -29.4 50
      vertex 6 -29.4 50
    endloop
  endfacet
  facet normal 0 1 -0
    outer loop
      vertex 6 -23.9 50
      vertex 0 -23.9 55
      vertex 6 -23.9 55
    endloop
  endfacet
  facet normal 0 1 0
    outer loop
      vertex 0 -23.9 55
      vertex 6 -23.9 50
      vertex 0 -23.9 50
    endloop
  endfacet
  facet normal 0 0 -1
    outer loop
      vertex 0 -28.6 53.8
      vertex 6 -24.8 53.8
      vertex 6 -28.6 53.8
    endloop
  endfacet
  facet normal -0 0 -1
    outer loop
      vertex 6 -24.8 53.8
      vertex 0 -28.6 53.8
      vertex 0 -24.8 53.8
    endloop
  endfacet
  facet normal 0 1 -0
    outer loop
      vertex 6 -28.6 50
      vertex 0 -28.6 53.8
      vertex 6 -28.6 53.8
    endloop
  endfacet
  facet normal 0 1 0
    outer loop
      vertex 0 -28.6 53.8
      vertex 6 -28.6 50
      vertex 0 -28.6 50
    endloop
  endfacet
  facet normal 0 -1 0
    outer loop
      vertex 0 -24.8 50
      vertex 6 -24.8 53.8
      vertex 0 -24.8 53.8
    endloop
  endfacet
  facet normal 0 -1 -0
    outer loop
      vertex 6 -24.8 53.8
      vertex 0 -24.8 50
      vertex 6 -24.8 50
    endloop
  endfacet
endsolid OpenSCAD_Model
