  0
SECTION
  2
HEADER
  9
$ACADVER
  1
AC1009
  9
$EXTMIN
 10
0.00000000
 20
0.00000000
 30
0.0
  9
$EXTMAX
 10
1012.00000000
 20
1012.00000000
 30
0.0
  0
ENDSEC
  0
SECTION
  2
ENTITIES
  0
POLYLINE
  8
0
 66
   1
 70
    1
  0
VERTEX
  8
0
 10
622.00000000
 20
247.50000000
 42
0.41421356
  0
VERTEX
  8
0
 10
619.50000000
 20
250.00000000
 42
0.41421356
  0
VERTEX
  8
0
 10
617.00000000
 20
247.50000000
 42
0.41421356
  0
VERTEX
  8
0
 10
619.50000000
 20
245.00000000
 42
0.41421356
  0
VERTEX
  8
0
 10
622.00000000
 20
247.50000000
  0
SEQEND
  0
POLYLINE
  8
0
 66
   1
 70
    1
  0
VERTEX
  8
0
 10
662.00000000
 20
392.50000000
 42
0.41421356
  0
VERTEX
  8
0
 10
659.50000000
 20
395.00000000
 42
0.41421356
  0
VERTEX
  8
0
 10
657.00000000
 20
392.50000000
 42
0.41421356
  0
VERTEX
  8
0
 10
659.50000000
 20
390.00000000
 42
0.41421356
  0
VERTEX
  8
0
 10
662.00000000
 20
392.50000000
  0
SEQEND
  0
POLYLINE
  8
0
 66
   1
 70
    1
  0
VERTEX
  8
0
 10
767.00000000
 20
207.50000000
 42
0.41421356
  0
VERTEX
  8
0
 10
764.50000000
 20
210.00000000
 42
0.41421356
  0
VERTEX
  8
0
 10
762.00000000
 20
207.50000000
 42
0.41421356
  0
VERTEX
  8
0
 10
764.50000000
 20
205.00000000
 42
0.41421356
  0
VERTEX
  8
0
 10
767.00000000
 20
207.50000000
  0
SEQEND
  0
POLYLINE
  8
0
 66
   1
 70
    1
  0
VERTEX
  8
0
 10
612.00000000
 20
60.00000000
  0
VERTEX
  8
0
 10
627.00000000
 20
60.00000000
  0
VERTEX
  8
0
 10
627.00000000
 20
120.00000000
  0
VERTEX
  8
0
 10
612.00000000
 20
120.00000000
  0
VERTEX
  8
0
 10
612.00000000
 20
60.00000000
  0
SEQEND
  0
POLYLINE
  8
0
 66
   1
 70
    1
  0
VERTEX
  8
0
 10
892.00000000
 20
215.00000000
  0
VERTEX
  8
0
 10
892.00000000
 20
200.00000000
  0
VERTEX
  8
0
 10
952.00000000
 20
200.00000000
  0
VERTEX
  8
0
 10
952.00000000
 20
215.00000000
  0
VERTEX
  8
0
 10
892.00000000
 20
215.00000000
  0
SEQEND
  0
POLYLINE
  8
0
 66
   1
 70
    1
  0
VERTEX
  8
0
 10
812.00000000
 20
320.00000000
  0
VERTEX
  8
0
 10
797.00000000
 20
320.00000000
  0
VERTEX
  8
0
 10
797.00000000
 20
200.00000000
  0
VERTEX
  8
0
 10
812.00000000
 20
200.00000000
  0
VERTEX
  8
0
 10
812.00000000
 20
320.00000000
  0
SEQEND
  0
POLYLINE
  8
0
 66
   1
 70
    1
  0
VERTEX
  8
0
 10
812.00000000
 20
385.00000000
  0
VERTEX
  8
0
 10
812.00000000
 20
400.00000000
  0
VERTEX
  8
0
 10
692.00000000
 20
400.00000000
  0
VERTEX
  8
0
 10
692.00000000
 20
385.00000000
  0
VERTEX
  8
0
 10
812.00000000
 20
385.00000000
  0
SEQEND
  0
POLYLINE
  8
0
 66
   1
 70
    1
  0
VERTEX
  8
0
 10
627.00000000
 20
280.00000000
  0
VERTEX
  8
0
 10
612.00000000
 20
280.00000000
  0
VERTEX
  8
0
 10
612.00000000
 20
400.00000000
  0
VERTEX
  8
0
 10
627.00000000
 20
400.00000000
  0
VERTEX
  8
0
 10
627.00000000
 20
280.00000000
  0
SEQEND
  0
POLYLINE
  8
0
 66
   1
 70
    1
  0
VERTEX
  8
0
 10
803.25000000
 20
350.33493649
 42
-0.41421356
  0
VERTEX
  8
0
 10
802.33493649
 20
353.75000000
 42
-0.41421356
  0
VERTEX
  8
0
 10
805.75000000
 20
354.66506351
 42
-0.41421356
  0
VERTEX
  8
0
 10
806.66506351
 20
351.25000000
 42
-0.41421356
  0
VERTEX
  8
0
 10
803.25000000
 20
350.33493649
  0
SEQEND
  0
POLYLINE
  8
0
 66
   1
 70
    1
  0
VERTEX
  8
0
 10
612.00000000
 20
200.00000000
  0
VERTEX
  8
0
 10
612.00000000
 20
215.00000000
  0
VERTEX
  8
0
 10
732.00000000
 20
215.00000000
  0
VERTEX
  8
0
 10
732.00000000
 20
200.00000000
  0
VERTEX
  8
0
 10
612.00000000
 20
200.00000000
  0
SEQEND
  0
POLYLINE
  8
0
 66
   1
 70
    1
  0
VERTEX
  8
0
 10
472.00000000
 20
385.00000000
  0
VERTEX
  8
0
 10
532.00000000
 20
385.00000000
  0
VERTEX
  8
0
 10
532.00000000
 20
400.00000000
  0
VERTEX
  8
0
 10
472.00000000
 20
400.00000000
  0
VERTEX
  8
0
 10
472.00000000
 20
385.00000000
  0
SEQEND
  0
POLYLINE
  8
0
 66
   1
 70
    1
  0
VERTEX
  8
0
 10
797.00000000
 20
480.00000000
  0
VERTEX
  8
0
 10
812.00000000
 20
480.00000000
  0
VERTEX
  8
0
 10
812.00000000
 20
540.00000000
  0
VERTEX
  8
0
 10
797.00000000
 20
540.00000000
  0
VERTEX
  8
0
 10
797.00000000
 20
480.00000000
  0
SEQEND
  0
POLYLINE
  8
0
 66
   1
 70
    1
  0
VERTEX
  8
0
 10
435.47431426
 20
12.39879958
  0
VERTEX
  8
0
 10
442.00000000
 20
8.03847577
  0
VERTEX
  8
0
 10
449.03899406
 20
4.56722805
  0
VERTEX
  8
0
 10
456.47085729
 20
2.04445042
  0
VERTEX
  8
0
 10
464.16842847
 20
0.51330832
  0
VERTEX
  8
0
 10
472.00000000
 20
0.00000000
  0
VERTEX
  8
0
 10
952.00000000
 20
0.00000000
  0
VERTEX
  8
0
 10
959.83157153
 20
0.51330832
  0
VERTEX
  8
0
 10
967.52914271
 20
2.04445042
  0
VERTEX
  8
0
 10
974.96100594
 20
4.56722805
  0
VERTEX
  8
0
 10
982.00000000
 20
8.03847577
  0
VERTEX
  8
0
 10
988.52568574
 20
12.39879958
  0
VERTEX
  8
0
 10
994.42640687
 20
17.57359313
  0
VERTEX
  8
0
 10
999.60120042
 20
23.47431426
  0
VERTEX
  8
0
 10
1003.96152423
 20
30.00000000
  0
VERTEX
  8
0
 10
1007.43277195
 20
37.03899406
  0
VERTEX
  8
0
 10
1009.95554958
 20
44.47085729
  0
VERTEX
  8
0
 10
1011.48669168
 20
52.16842847
  0
VERTEX
  8
0
 10
1012.00000000
 20
60.00000000
  0
VERTEX
  8
0
 10
1012.00000000
 20
540.00000000
  0
VERTEX
  8
0
 10
1011.48669168
 20
547.83157153
  0
VERTEX
  8
0
 10
1009.95554958
 20
555.52914271
  0
VERTEX
  8
0
 10
1007.43277195
 20
562.96100594
  0
VERTEX
  8
0
 10
1003.96152423
 20
570.00000000
  0
VERTEX
  8
0
 10
999.60120042
 20
576.52568574
  0
VERTEX
  8
0
 10
994.42640687
 20
582.42640687
  0
VERTEX
  8
0
 10
988.52568574
 20
587.60120042
  0
VERTEX
  8
0
 10
982.00000000
 20
591.96152423
  0
VERTEX
  8
0
 10
974.96100594
 20
595.43277195
  0
VERTEX
  8
0
 10
967.52914271
 20
597.95554958
  0
VERTEX
  8
0
 10
959.83157153
 20
599.48669168
  0
VERTEX
  8
0
 10
952.00000000
 20
600.00000000
  0
VERTEX
  8
0
 10
472.00000000
 20
600.00000000
  0
VERTEX
  8
0
 10
464.16842847
 20
599.48669168
  0
VERTEX
  8
0
 10
456.47085729
 20
597.95554958
  0
VERTEX
  8
0
 10
449.03899406
 20
595.43277195
  0
VERTEX
  8
0
 10
442.00000000
 20
591.96152423
  0
VERTEX
  8
0
 10
435.47431426
 20
587.60120042
  0
VERTEX
  8
0
 10
429.57359313
 20
582.42640687
  0
VERTEX
  8
0
 10
424.39879958
 20
576.52568574
  0
VERTEX
  8
0
 10
420.03847577
 20
570.00000000
  0
VERTEX
  8
0
 10
416.56722805
 20
562.96100594
  0
VERTEX
  8
0
 10
414.04445042
 20
555.52914271
  0
VERTEX
  8
0
 10
412.51330832
 20
547.83157153
  0
VERTEX
  8
0
 10
412.00000000
 20
540.00000000
  0
VERTEX
  8
0
 10
412.00000000
 20
60.00000000
  0
VERTEX
  8
0
 10
412.51330832
 20
52.16842847
  0
VERTEX
  8
0
 10
414.04445042
 20
44.47085729
  0
VERTEX
  8
0
 10
416.56722805
 20
37.03899406
  0
VERTEX
  8
0
 10
420.03847577
 20
30.00000000
  0
VERTEX
  8
0
 10
424.39879958
 20
23.47431426
  0
VERTEX
  8
0
 10
429.57359313
 20
17.57359313
  0
VERTEX
  8
0
 10
435.47431426
 20
12.39879958
  0
SEQEND
  0
POLYLINE
  8
0
 66
   1
 70
    1
  0
VERTEX
  8
0
 10
522.00000000
 20
687.00000000
  0
VERTEX
  8
0
 10
522.00000000
 20
872.00000000
  0
VERTEX
  8
0
 10
521.31558891
 20
882.44209538
  0
VERTEX
  8
0
 10
519.27406610
 20
892.70552361
  0
VERTEX
  8
0
 10
515.91036260
 20
902.61467459
  0
VERTEX
  8
0
 10
511.28203230
 20
912.00000000
  0
VERTEX
  8
0
 10
505.46826722
 20
920.70091432
  0
VERTEX
  8
0
 10
498.56854249
 20
928.56854250
  0
VERTEX
  8
0
 10
490.70091432
 20
935.46826722
  0
VERTEX
  8
0
 10
482.00000000
 20
941.28203230
  0
VERTEX
  8
0
 10
472.61467459
 20
945.91036260
  0
VERTEX
  8
0
 10
462.70552361
 20
949.27406610
  0
VERTEX
  8
0
 10
452.44209538
 20
951.31558891
  0
VERTEX
  8
0
 10
442.00000000
 20
952.00000000
  0
VERTEX
  8
0
 10
412.00000000
 20
952.00000000
  0
VERTEX
  8
0
 10
412.00000000
 20
1012.00000000
  0
VERTEX
  8
0
 10
1012.00000000
 20
1012.00000000
  0
VERTEX
  8
0
 10
1012.00000000
 20
952.00000000
  0
VERTEX
  8
0
 10
1001.20715064
 20
952.00000000
 42
0.45156766
  0
VERTEX
  8
0
 10
996.81856868
 20
952.05945560
 42
0.33945426
  0
VERTEX
  8
0
 10
996.44612267
 20
948.42592548
 42
0.13165250
  0
VERTEX
  8
0
 10
997.00000000
 20
947.77560504
  0
VERTEX
  8
0
 10
997.00000000
 20
872.00000000
  0
VERTEX
  8
0
 10
981.21441272
 20
872.00000000
 42
0.36992542
  0
VERTEX
  8
0
 10
977.50000000
 20
872.59807621
 42
0.41421356
  0
VERTEX
  8
0
 10
976.40192379
 20
868.50000000
 42
0.13165250
  0
VERTEX
  8
0
 10
977.00000000
 20
867.78558728
  0
VERTEX
  8
0
 10
977.00000000
 20
861.21026977
 42
0.36929469
  0
VERTEX
  8
0
 10
976.47395931
 20
857.36358747
 42
0.36929469
  0
VERTEX
  8
0
 10
980.19246957
 20
856.24718029
 42
0.13165250
  0
VERTEX
  8
0
 10
981.20361370
 20
857.00000000
  0
VERTEX
  8
0
 10
997.00000000
 20
857.00000000
  0
VERTEX
  8
0
 10
997.00000000
 20
796.20449395
 42
0.45547837
  0
VERTEX
  8
0
 10
996.97359586
 20
791.78783223
 42
0.33945426
  0
VERTEX
  8
0
 10
1000.61231800
 20
791.47009276
 42
0.13165250
  0
VERTEX
  8
0
 10
1001.23064963
 20
792.00000000
  0
VERTEX
  8
0
 10
1012.00000000
 20
792.00000000
  0
VERTEX
  8
0
 10
1012.00000000
 20
672.00000000
  0
VERTEX
  8
0
 10
977.00000000
 20
672.00000000
  0
VERTEX
  8
0
 10
977.00000000
 20
682.79812079
 42
0.54233222
  0
VERTEX
  8
0
 10
976.31617445
 20
687.69586439
 42
0.33730100
  0
VERTEX
  8
0
 10
972.77163604
 20
687.00000000
  0
VERTEX
  8
0
 10
952.00000000
 20
687.00000000
  0
VERTEX
  8
0
 10
952.00000000
 20
892.00000000
  0
VERTEX
  8
0
 10
951.48669168
 20
899.83157153
  0
VERTEX
  8
0
 10
949.95554958
 20
907.52914271
  0
VERTEX
  8
0
 10
947.43277195
 20
914.96100594
  0
VERTEX
  8
0
 10
943.96152423
 20
922.00000000
  0
VERTEX
  8
0
 10
939.60120042
 20
928.52568574
  0
VERTEX
  8
0
 10
934.42640687
 20
934.42640687
  0
VERTEX
  8
0
 10
928.52568574
 20
939.60120042
  0
VERTEX
  8
0
 10
922.00000000
 20
943.96152423
  0
VERTEX
  8
0
 10
914.96100594
 20
947.43277195
  0
VERTEX
  8
0
 10
907.52914271
 20
949.95554958
  0
VERTEX
  8
0
 10
899.83157153
 20
951.48669168
  0
VERTEX
  8
0
 10
892.00000000
 20
952.00000000
  0
VERTEX
  8
0
 10
672.00000000
 20
952.00000000
  0
VERTEX
  8
0
 10
661.55790462
 20
951.31558891
  0
VERTEX
  8
0
 10
651.29447639
 20
949.27406610
  0
VERTEX
  8
0
 10
641.38532541
 20
945.91036260
  0
VERTEX
  8
0
 10
632.00000000
 20
941.28203230
  0
VERTEX
  8
0
 10
623.29908568
 20
935.46826722
  0
VERTEX
  8
0
 10
615.43145751
 20
928.56854250
  0
VERTEX
  8
0
 10
608.53173278
 20
920.70091432
  0
VERTEX
  8
0
 10
602.71796770
 20
912.00000000
  0
VERTEX
  8
0
 10
598.08963740
 20
902.61467459
  0
VERTEX
  8
0
 10
594.72593390
 20
892.70552361
  0
VERTEX
  8
0
 10
592.68441109
 20
882.44209538
  0
VERTEX
  8
0
 10
592.00000000
 20
872.00000000
  0
VERTEX
  8
0
 10
566.21441272
 20
872.00000000
 42
0.36992542
  0
VERTEX
  8
0
 10
562.50000000
 20
872.59807621
 42
0.41421356
  0
VERTEX
  8
0
 10
561.40192379
 20
868.50000000
 42
0.13165250
  0
VERTEX
  8
0
 10
562.00000000
 20
867.78558728
  0
VERTEX
  8
0
 10
562.00000000
 20
861.21441272
 42
0.36992542
  0
VERTEX
  8
0
 10
561.40192379
 20
857.50000000
 42
0.41421356
  0
VERTEX
  8
0
 10
565.50000000
 20
856.40192379
 42
0.13165250
  0
VERTEX
  8
0
 10
566.21441272
 20
857.00000000
  0
VERTEX
  8
0
 10
592.00000000
 20
857.00000000
  0
VERTEX
  8
0
 10
592.00000000
 20
672.00000000
  0
VERTEX
  8
0
 10
562.00000000
 20
672.00000000
  0
VERTEX
  8
0
 10
562.00000000
 20
682.79756278
 42
0.54012959
  0
VERTEX
  8
0
 10
561.33792117
 20
687.68513816
 42
0.33945426
  0
VERTEX
  8
0
 10
557.75263518
 20
686.98729751
  0
VERTEX
  8
0
 10
522.00000000
 20
687.00000000
  0
SEQEND
  0
POLYLINE
  8
0
 66
   1
 70
    1
  0
VERTEX
  8
0
 10
412.00000000
 20
606.00000000
  0
VERTEX
  8
0
 10
1012.00000000
 20
606.00000000
  0
VERTEX
  8
0
 10
1012.00000000
 20
666.00000000
  0
VERTEX
  8
0
 10
982.00000000
 20
666.00000000
  0
VERTEX
  8
0
 10
971.55790462
 20
666.68441109
  0
VERTEX
  8
0
 10
961.29447639
 20
668.72593390
  0
VERTEX
  8
0
 10
951.38532541
 20
672.08963740
  0
VERTEX
  8
0
 10
942.00000000
 20
676.71796770
  0
VERTEX
  8
0
 10
933.29908568
 20
682.53173278
  0
VERTEX
  8
0
 10
925.43145751
 20
689.43145751
  0
VERTEX
  8
0
 10
918.53173278
 20
697.29908568
  0
VERTEX
  8
0
 10
912.71796770
 20
706.00000000
  0
VERTEX
  8
0
 10
908.08963740
 20
715.38532541
  0
VERTEX
  8
0
 10
904.72593390
 20
725.29447639
  0
VERTEX
  8
0
 10
902.68441109
 20
735.55790462
  0
VERTEX
  8
0
 10
902.00000000
 20
746.00000000
  0
VERTEX
  8
0
 10
902.00000000
 20
931.00000000
  0
VERTEX
  8
0
 10
866.24736482
 20
931.01270249
 42
-0.37637335
  0
VERTEX
  8
0
 10
862.32304407
 20
930.51246732
 42
-0.37637335
  0
VERTEX
  8
0
 10
861.31486184
 20
934.33792117
 42
-0.13165250
  0
VERTEX
  8
0
 10
862.00000000
 20
935.20243722
  0
VERTEX
  8
0
 10
862.00000000
 20
946.00000000
  0
VERTEX
  8
0
 10
832.00000000
 20
946.00000000
  0
VERTEX
  8
0
 10
832.00000000
 20
761.00000000
  0
VERTEX
  8
0
 10
857.78558728
 20
761.00000000
 42
-0.36992542
  0
VERTEX
  8
0
 10
861.50000000
 20
761.59807621
 42
-0.41421356
  0
VERTEX
  8
0
 10
862.59807621
 20
757.50000000
 42
-0.13165250
  0
VERTEX
  8
0
 10
862.00000000
 20
756.78558728
  0
VERTEX
  8
0
 10
862.00000000
 20
750.21441272
 42
-0.36992542
  0
VERTEX
  8
0
 10
862.59807621
 20
746.50000000
 42
-0.41421356
  0
VERTEX
  8
0
 10
858.50000000
 20
745.40192379
 42
-0.13165250
  0
VERTEX
  8
0
 10
857.78558728
 20
746.00000000
  0
VERTEX
  8
0
 10
832.00000000
 20
746.00000000
  0
VERTEX
  8
0
 10
831.31558891
 20
735.55790462
  0
VERTEX
  8
0
 10
829.27406610
 20
725.29447639
  0
VERTEX
  8
0
 10
825.91036260
 20
715.38532541
  0
VERTEX
  8
0
 10
821.28203230
 20
706.00000000
  0
VERTEX
  8
0
 10
815.46826722
 20
697.29908568
  0
VERTEX
  8
0
 10
808.56854249
 20
689.43145751
  0
VERTEX
  8
0
 10
800.70091432
 20
682.53173278
  0
VERTEX
  8
0
 10
792.00000000
 20
676.71796770
  0
VERTEX
  8
0
 10
782.61467459
 20
672.08963740
  0
VERTEX
  8
0
 10
772.70552361
 20
668.72593390
  0
VERTEX
  8
0
 10
762.44209538
 20
666.68441109
  0
VERTEX
  8
0
 10
752.00000000
 20
666.00000000
  0
VERTEX
  8
0
 10
532.00000000
 20
666.00000000
  0
VERTEX
  8
0
 10
524.16842847
 20
666.51330832
  0
VERTEX
  8
0
 10
516.47085729
 20
668.04445042
  0
VERTEX
  8
0
 10
509.03899406
 20
670.56722805
  0
VERTEX
  8
0
 10
502.00000000
 20
674.03847577
  0
VERTEX
  8
0
 10
495.47431426
 20
678.39879958
  0
VERTEX
  8
0
 10
489.57359313
 20
683.57359313
  0
VERTEX
  8
0
 10
484.39879958
 20
689.47431426
  0
VERTEX
  8
0
 10
480.03847577
 20
696.00000000
  0
VERTEX
  8
0
 10
476.56722805
 20
703.03899406
  0
VERTEX
  8
0
 10
474.04445042
 20
710.47085729
  0
VERTEX
  8
0
 10
472.51330832
 20
718.16842847
  0
VERTEX
  8
0
 10
472.00000000
 20
726.00000000
  0
VERTEX
  8
0
 10
472.00000000
 20
931.00000000
  0
VERTEX
  8
0
 10
451.22836396
 20
931.00000000
 42
-0.37472984
  0
VERTEX
  8
0
 10
447.32057509
 20
930.51138705
 42
-0.37472984
  0
VERTEX
  8
0
 10
446.30413561
 20
934.31617445
 42
-0.13165250
  0
VERTEX
  8
0
 10
447.00000000
 20
935.20187921
  0
VERTEX
  8
0
 10
447.00000000
 20
946.00000000
  0
VERTEX
  8
0
 10
412.00000000
 20
946.00000000
  0
VERTEX
  8
0
 10
412.00000000
 20
826.00000000
  0
VERTEX
  8
0
 10
422.76935037
 20
826.00000000
 42
-0.28917473
  0
VERTEX
  8
0
 10
425.64883358
 20
826.92899556
 42
-0.49314543
  0
VERTEX
  8
0
 10
427.66126197
 20
822.61519506
 42
-0.13165250
  0
VERTEX
  8
0
 10
427.00000000
 20
821.79550605
  0
VERTEX
  8
0
 10
427.00000000
 20
761.00000000
  0
VERTEX
  8
0
 10
442.79638630
 20
761.00000000
 42
-0.36541195
  0
VERTEX
  8
0
 10
446.60181056
 20
761.55414475
 42
-0.36541195
  0
VERTEX
  8
0
 10
447.78974080
 20
757.89666584
 42
-0.13165250
  0
VERTEX
  8
0
 10
447.00000000
 20
756.78973023
  0
VERTEX
  8
0
 10
447.00000000
 20
750.21441272
 42
-0.36992542
  0
VERTEX
  8
0
 10
447.59807621
 20
746.50000000
 42
-0.41421356
  0
VERTEX
  8
0
 10
443.50000000
 20
745.40192379
 42
-0.13165250
  0
VERTEX
  8
0
 10
442.78558728
 20
746.00000000
  0
VERTEX
  8
0
 10
427.00000000
 20
746.00000000
  0
VERTEX
  8
0
 10
427.00000000
 20
670.22439496
 42
-0.36220201
  0
VERTEX
  8
0
 10
427.64012719
 20
666.57531462
 42
-0.41421356
  0
VERTEX
  8
0
 10
423.57531462
 20
665.35987281
 42
-0.13165250
  0
VERTEX
  8
0
 10
422.79284936
 20
666.00000000
  0
VERTEX
  8
0
 10
412.00000000
 20
666.00000000
  0
VERTEX
  8
0
 10
412.00000000
 20
606.00000000
  0
SEQEND
  0
POLYLINE
  8
0
 66
   1
 70
    1
  0
VERTEX
  8
0
 10
81.00000000
 20
110.00000000
  0
VERTEX
  8
0
 10
80.98729751
 20
145.75263518
 42
0.37637335
  0
VERTEX
  8
0
 10
81.48753268
 20
149.67695593
 42
0.37637335
  0
VERTEX
  8
0
 10
77.66207883
 20
150.68513816
 42
0.13165250
  0
VERTEX
  8
0
 10
76.79756278
 20
150.00000000
  0
VERTEX
  8
0
 10
66.00000000
 20
150.00000000
  0
VERTEX
  8
0
 10
66.00000000
 20
180.00000000
  0
VERTEX
  8
0
 10
251.00000000
 20
180.00000000
  0
VERTEX
  8
0
 10
251.00000000
 20
154.21441272
 42
0.36992542
  0
VERTEX
  8
0
 10
250.40192379
 20
150.50000000
 42
0.41421356
  0
VERTEX
  8
0
 10
254.50000000
 20
149.40192379
 42
0.13165250
  0
VERTEX
  8
0
 10
255.21441272
 20
150.00000000
  0
VERTEX
  8
0
 10
261.78558728
 20
150.00000000
 42
0.36992542
  0
VERTEX
  8
0
 10
265.50000000
 20
149.40192379
 42
0.41421356
  0
VERTEX
  8
0
 10
266.59807621
 20
153.50000000
 42
0.13165250
  0
VERTEX
  8
0
 10
266.00000000
 20
154.21441272
  0
VERTEX
  8
0
 10
266.00000000
 20
180.00000000
  0
VERTEX
  8
0
 10
276.44209538
 20
180.68441109
  0
VERTEX
  8
0
 10
286.70552361
 20
182.72593390
  0
VERTEX
  8
0
 10
296.61467459
 20
186.08963740
  0
VERTEX
  8
0
 10
306.00000000
 20
190.71796770
  0
VERTEX
  8
0
 10
314.70091432
 20
196.53173278
  0
VERTEX
  8
0
 10
322.56854250
 20
203.43145751
  0
VERTEX
  8
0
 10
329.46826722
 20
211.29908568
  0
VERTEX
  8
0
 10
335.28203230
 20
220.00000000
  0
VERTEX
  8
0
 10
339.91036260
 20
229.38532541
  0
VERTEX
  8
0
 10
343.27406610
 20
239.29447639
  0
VERTEX
  8
0
 10
345.31558891
 20
249.55790462
  0
VERTEX
  8
0
 10
346.00000000
 20
260.00000000
  0
VERTEX
  8
0
 10
346.00000000
 20
480.00000000
  0
VERTEX
  8
0
 10
345.48669168
 20
487.83157153
  0
VERTEX
  8
0
 10
343.95554958
 20
495.52914271
  0
VERTEX
  8
0
 10
341.43277195
 20
502.96100594
  0
VERTEX
  8
0
 10
337.96152423
 20
510.00000000
  0
VERTEX
  8
0
 10
333.60120042
 20
516.52568574
  0
VERTEX
  8
0
 10
328.42640687
 20
522.42640687
  0
VERTEX
  8
0
 10
322.52568574
 20
527.60120042
  0
VERTEX
  8
0
 10
316.00000000
 20
531.96152423
  0
VERTEX
  8
0
 10
308.96100594
 20
535.43277195
  0
VERTEX
  8
0
 10
301.52914271
 20
537.95554958
  0
VERTEX
  8
0
 10
293.83157153
 20
539.48669168
  0
VERTEX
  8
0
 10
286.00000000
 20
540.00000000
  0
VERTEX
  8
0
 10
81.00000000
 20
540.00000000
  0
VERTEX
  8
0
 10
81.00000000
 20
560.77163604
 42
0.37472984
  0
VERTEX
  8
0
 10
81.48861295
 20
564.67942491
 42
0.37472984
  0
VERTEX
  8
0
 10
77.68382555
 20
565.69586439
 42
0.13165250
  0
VERTEX
  8
0
 10
76.79812079
 20
565.00000000
  0
VERTEX
  8
0
 10
66.00000000
 20
565.00000000
  0
VERTEX
  8
0
 10
66.00000000
 20
600.00000000
  0
VERTEX
  8
0
 10
186.00000000
 20
600.00000000
  0
VERTEX
  8
0
 10
186.00000000
 20
589.23064963
 42
0.28917473
  0
VERTEX
  8
0
 10
185.07100444
 20
586.35116642
 42
0.49314543
  0
VERTEX
  8
0
 10
189.38480494
 20
584.33873803
 42
0.13165250
  0
VERTEX
  8
0
 10
190.20449395
 20
585.00000000
  0
VERTEX
  8
0
 10
251.00000000
 20
585.00000000
  0
VERTEX
  8
0
 10
251.00000000
 20
569.20361370
 42
0.36541195
  0
VERTEX
  8
0
 10
250.44585525
 20
565.39818944
 42
0.36541195
  0
VERTEX
  8
0
 10
254.10333416
 20
564.21025920
 42
0.13165250
  0
VERTEX
  8
0
 10
255.21026977
 20
565.00000000
  0
VERTEX
  8
0
 10
261.78558728
 20
565.00000000
 42
0.36992542
  0
VERTEX
  8
0
 10
265.50000000
 20
564.40192379
 42
0.41421356
  0
VERTEX
  8
0
 10
266.59807621
 20
568.50000000
 42
0.13165250
  0
VERTEX
  8
0
 10
266.00000000
 20
569.21441272
  0
VERTEX
  8
0
 10
266.00000000
 20
585.00000000
  0
VERTEX
  8
0
 10
341.77560504
 20
585.00000000
 42
0.36220201
  0
VERTEX
  8
0
 10
345.42468538
 20
584.35987281
 42
0.41421356
  0
VERTEX
  8
0
 10
346.64012719
 20
588.42468538
 42
0.13165250
  0
VERTEX
  8
0
 10
346.00000000
 20
589.20715064
  0
VERTEX
  8
0
 10
346.00000000
 20
600.00000000
  0
VERTEX
  8
0
 10
406.00000000
 20
600.00000000
  0
VERTEX
  8
0
 10
406.00000000
 20
0.00000000
  0
VERTEX
  8
0
 10
346.00000000
 20
0.00000000
  0
VERTEX
  8
0
 10
346.00000000
 20
30.00000000
  0
VERTEX
  8
0
 10
345.31558891
 20
40.44209538
  0
VERTEX
  8
0
 10
343.27406610
 20
50.70552361
  0
VERTEX
  8
0
 10
339.91036260
 20
60.61467459
  0
VERTEX
  8
0
 10
335.28203230
 20
70.00000000
  0
VERTEX
  8
0
 10
329.46826722
 20
78.70091432
  0
VERTEX
  8
0
 10
322.56854250
 20
86.56854250
  0
VERTEX
  8
0
 10
314.70091432
 20
93.46826722
  0
VERTEX
  8
0
 10
306.00000000
 20
99.28203230
  0
VERTEX
  8
0
 10
296.61467459
 20
103.91036260
  0
VERTEX
  8
0
 10
286.70552361
 20
107.27406610
  0
VERTEX
  8
0
 10
276.44209538
 20
109.31558891
  0
VERTEX
  8
0
 10
266.00000000
 20
110.00000000
  0
VERTEX
  8
0
 10
81.00000000
 20
110.00000000
  0
SEQEND
  0
POLYLINE
  8
0
 66
   1
 70
    1
  0
VERTEX
  8
0
 10
0.00000000
 20
0.00000000
  0
VERTEX
  8
0
 10
60.00000000
 20
0.00000000
  0
VERTEX
  8
0
 10
60.00000000
 20
10.79284936
 42
-0.45156766
  0
VERTEX
  8
0
 10
59.94054440
 20
15.18143132
 42
-0.33945426
  0
VERTEX
  8
0
 10
63.57407452
 20
15.55387733
 42
-0.13165250
  0
VERTEX
  8
0
 10
64.22439496
 20
15.00000000
  0
VERTEX
  8
0
 10
140.00000000
 20
15.00000000
  0
VERTEX
  8
0
 10
140.00000000
 20
30.78558728
 42
-0.36992542
  0
VERTEX
  8
0
 10
139.40192379
 20
34.50000000
 42
-0.41421356
  0
VERTEX
  8
0
 10
143.50000000
 20
35.59807621
 42
-0.13165250
  0
VERTEX
  8
0
 10
144.21441272
 20
35.00000000
  0
VERTEX
  8
0
 10
150.78973023
 20
35.00000000
 42
-0.36929469
  0
VERTEX
  8
0
 10
154.63641253
 20
35.52604069
 42
-0.36929469
  0
VERTEX
  8
0
 10
155.75281971
 20
31.80753043
 42
-0.13165250
  0
VERTEX
  8
0
 10
155.00000000
 20
30.79638630
  0
VERTEX
  8
0
 10
155.00000000
 20
15.00000000
  0
VERTEX
  8
0
 10
215.79550605
 20
15.00000000
 42
-0.45547837
  0
VERTEX
  8
0
 10
220.21216777
 20
15.02640414
 42
-0.33945426
  0
VERTEX
  8
0
 10
220.52990724
 20
11.38768200
 42
-0.13165250
  0
VERTEX
  8
0
 10
220.00000000
 20
10.76935037
  0
VERTEX
  8
0
 10
220.00000000
 20
0.00000000
  0
VERTEX
  8
0
 10
340.00000000
 20
0.00000000
  0
VERTEX
  8
0
 10
340.00000000
 20
35.00000000
  0
VERTEX
  8
0
 10
329.20187921
 20
35.00000000
 42
-0.54233222
  0
VERTEX
  8
0
 10
324.30413561
 20
35.68382555
 42
-0.33730100
  0
VERTEX
  8
0
 10
325.00000000
 20
39.22836396
  0
VERTEX
  8
0
 10
325.00000000
 20
60.00000000
  0
VERTEX
  8
0
 10
120.00000000
 20
60.00000000
  0
VERTEX
  8
0
 10
112.16842847
 20
60.51330832
  0
VERTEX
  8
0
 10
104.47085729
 20
62.04445042
  0
VERTEX
  8
0
 10
97.03899406
 20
64.56722805
  0
VERTEX
  8
0
 10
90.00000000
 20
68.03847577
  0
VERTEX
  8
0
 10
83.47431426
 20
72.39879958
  0
VERTEX
  8
0
 10
77.57359313
 20
77.57359313
  0
VERTEX
  8
0
 10
72.39879958
 20
83.47431426
  0
VERTEX
  8
0
 10
68.03847577
 20
90.00000000
  0
VERTEX
  8
0
 10
64.56722805
 20
97.03899406
  0
VERTEX
  8
0
 10
62.04445042
 20
104.47085729
  0
VERTEX
  8
0
 10
60.51330832
 20
112.16842847
  0
VERTEX
  8
0
 10
60.00000000
 20
120.00000000
  0
VERTEX
  8
0
 10
60.00000000
 20
340.00000000
  0
VERTEX
  8
0
 10
60.68441109
 20
350.44209538
  0
VERTEX
  8
0
 10
62.72593390
 20
360.70552361
  0
VERTEX
  8
0
 10
66.08963740
 20
370.61467459
  0
VERTEX
  8
0
 10
70.71796770
 20
380.00000000
  0
VERTEX
  8
0
 10
76.53173278
 20
388.70091432
  0
VERTEX
  8
0
 10
83.43145751
 20
396.56854249
  0
VERTEX
  8
0
 10
91.29908568
 20
403.46826722
  0
VERTEX
  8
0
 10
100.00000000
 20
409.28203230
  0
VERTEX
  8
0
 10
109.38532541
 20
413.91036260
  0
VERTEX
  8
0
 10
119.29447639
 20
417.27406610
  0
VERTEX
  8
0
 10
129.55790462
 20
419.31558891
  0
VERTEX
  8
0
 10
140.00000000
 20
420.00000000
  0
VERTEX
  8
0
 10
140.00000000
 20
445.78558728
 42
-0.36992542
  0
VERTEX
  8
0
 10
139.40192379
 20
449.50000000
 42
-0.41421356
  0
VERTEX
  8
0
 10
143.50000000
 20
450.59807621
 42
-0.13165250
  0
VERTEX
  8
0
 10
144.21441272
 20
450.00000000
  0
VERTEX
  8
0
 10
150.78558728
 20
450.00000000
 42
-0.36992542
  0
VERTEX
  8
0
 10
154.50000000
 20
450.59807621
 42
-0.41421356
  0
VERTEX
  8
0
 10
155.59807621
 20
446.50000000
 42
-0.13165250
  0
VERTEX
  8
0
 10
155.00000000
 20
445.78558728
  0
VERTEX
  8
0
 10
155.00000000
 20
420.00000000
  0
VERTEX
  8
0
 10
340.00000000
 20
420.00000000
  0
VERTEX
  8
0
 10
340.00000000
 20
450.00000000
  0
VERTEX
  8
0
 10
329.20243722
 20
450.00000000
 42
-0.54012959
  0
VERTEX
  8
0
 10
324.31486184
 20
450.66207883
 42
-0.33945426
  0
VERTEX
  8
0
 10
325.01270249
 20
454.24736482
  0
VERTEX
  8
0
 10
325.00000000
 20
490.00000000
  0
VERTEX
  8
0
 10
140.00000000
 20
490.00000000
  0
VERTEX
  8
0
 10
129.55790462
 20
490.68441109
  0
VERTEX
  8
0
 10
119.29447639
 20
492.72593390
  0
VERTEX
  8
0
 10
109.38532541
 20
496.08963740
  0
VERTEX
  8
0
 10
100.00000000
 20
500.71796770
  0
VERTEX
  8
0
 10
91.29908568
 20
506.53173278
  0
VERTEX
  8
0
 10
83.43145751
 20
513.43145751
  0
VERTEX
  8
0
 10
76.53173278
 20
521.29908568
  0
VERTEX
  8
0
 10
70.71796770
 20
530.00000000
  0
VERTEX
  8
0
 10
66.08963740
 20
539.38532541
  0
VERTEX
  8
0
 10
62.72593390
 20
549.29447639
  0
VERTEX
  8
0
 10
60.68441109
 20
559.55790462
  0
VERTEX
  8
0
 10
60.00000000
 20
570.00000000
  0
VERTEX
  8
0
 10
60.00000000
 20
600.00000000
  0
VERTEX
  8
0
 10
0.00000000
 20
600.00000000
  0
VERTEX
  8
0
 10
0.00000000
 20
0.00000000
  0
SEQEND
  0
ENDSEC
  0
EOF
