<?xml version="1.0" encoding="UTF-8" standalone="no"?>
<svg
   xmlns:dc="http://purl.org/dc/elements/1.1/"
   xmlns:cc="http://creativecommons.org/ns#"
   xmlns:rdf="http://www.w3.org/1999/02/22-rdf-syntax-ns#"
   xmlns:svg="http://www.w3.org/2000/svg"
   xmlns="http://www.w3.org/2000/svg"
   xmlns:sodipodi="http://sodipodi.sourceforge.net/DTD/sodipodi-0.dtd"
   xmlns:inkscape="http://www.inkscape.org/namespaces/inkscape"
   width="17.7778in"
   height="20.7361in"
   viewBox="0 0 1280 1493"
   id="svg3353"
   version="1.1"
   inkscape:version="0.91 r13725"
   sodipodi:docname="bass_clef2_jpg-magnum-scaled-down-15.svg">
  <metadata
     id="metadata3360">
    <rdf:RDF>
      <cc:Work
         rdf:about="">
        <dc:format>image/svg+xml</dc:format>
        <dc:type
           rdf:resource="http://purl.org/dc/dcmitype/StillImage" />
        <dc:title></dc:title>
      </cc:Work>
    </rdf:RDF>
  </metadata>
  <defs
     id="defs3358" />
  <sodipodi:namedview
     pagecolor="#ffffff"
     bordercolor="#666666"
     borderopacity="1"
     objecttolerance="10"
     gridtolerance="10"
     guidetolerance="10"
     inkscape:pageopacity="0"
     inkscape:pageshadow="2"
     inkscape:window-width="1265"
     inkscape:window-height="876"
     id="namedview3356"
     showgrid="false"
     inkscape:zoom="0.91"
     inkscape:cx="800.00098"
     inkscape:cy="933.12447"
     inkscape:window-x="1580"
     inkscape:window-y="236"
     inkscape:window-maximized="0"
     inkscape:current-layer="svg3353" />
  <path
     id="Selection"
     d="m 639.8208,691.36142 c 1.887,-1.164 6.444,-3.0705 8.613,-3.4245 0,0 1.35,-0.0825 1.35,-0.0825 0,0 1.8,-0.2445 1.8,-0.2445 0,0 2.1,0.246 2.1,0.246 0,0 1.2,0.081 1.2,0.081 4.9605,0.813 10.497,4.044 13.173,8.361 1.584,2.5545 2.5455,5.5845 2.8965,8.55 0.0855,0.732 0.264,0.651 0.2805,1.65 0,0 0.297,3.9 0.297,3.9 0,0 -0.297,3.45 -0.297,3.45 -0.0135,0.99 -0.159,0.8925 -0.2685,1.65 -0.4515,3.1125 -1.6035,6.3075 -3.3285,8.958 -4.386,6.735 -12.1755,8.9805 -19.803,8.892 -1.5735,-0.0195 -4.785,-0.528 -6.3,-0.9855 -2.985,-0.9 -6.111,-2.61 -8.4,-4.728 -1.869,-1.7295 -3.1035,-3.7635 -4.2795,-5.9865 -0.7605,-1.4355 -1.533,-2.961 -2.061,-4.5 -1.6245,-4.7385 -2.217,-9.7155 -2.2095,-14.7 0,0 0.444,-4.8 0.444,-4.8 0,0 0,-1.05 0,-1.05 0,0 0.2775,-1.05 0.2775,-1.05 0.9855,-6.033 2.9385,-10.7535 6.21,-15.9 1.008,-1.587 2.0655,-3.165 3.321,-4.575 1.2255,-1.3785 2.5575,-2.736 3.9465,-3.948 0,0 1.188,-0.9285 1.188,-0.9285 0,0 4.845,-3.6795 4.845,-3.6795 0,0 3.768,-2.0955 3.768,-2.0955 3.7245,-1.9155 6.888,-3.1755 10.95,-4.179 0,0 2.4,-0.639 2.4,-0.639 0,0 1.65,-0.3165 1.65,-0.3165 0,0 1.05,-0.087 1.05,-0.087 0,0 1.05,-0.2595 1.05,-0.2595 0,0 1.2,0 1.2,0 0,0 1.35,-0.2865 1.35,-0.2865 0,0 1.5,0 1.5,0 0,0 1.5,-0.156 1.5,-0.156 0,0 9.45,0.1635 9.45,0.1635 0,0 1.8,0.2895 1.8,0.2895 0,0 1.2,0 1.2,0 0,0 1.05,0.291 1.05,0.291 0,0 1.05,0 1.05,0 0,0 1.05,0.267 1.05,0.267 0,0 0.9,0.078 0.9,0.078 0,0 2.55,0.654 2.55,0.654 0,0 3.3,0.7635 3.3,0.7635 4.179,1.1655 9.549,3.2655 13.2015,5.58 7.377,4.6725 13.596,11.8305 17.694,19.5135 1.7235,3.2325 3.3585,7.44 4.4355,10.95 0,0 0.9015,3 0.9015,3 0,0 0.747,3.6 0.747,3.6 0,0 0.3135,1.05 0.3135,1.05 0,0 0.0885,1.05 0.0885,1.05 0,0 0.2625,1.05 0.2625,1.05 0,0 0,1.35 0,1.35 0.1455,1.0815 0.2835,0.3345 0.306,2.25 0,0 0.3,2.55 0.3,2.55 0,0 0.3,4.95 0.3,4.95 0,0 0,9.6 0,9.6 0,0 -0.3,3.75 -0.3,3.75 -0.009,1.671 -0.1365,1.1145 -0.3015,2.25 0,0 0,1.5 0,1.5 0,0 -0.3015,1.05 -0.3015,1.05 0,0 0,1.05 0,1.05 0,0 -0.258,0.9 -0.258,0.9 0,0 -0.0945,0.9 -0.0945,0.9 0,0 -0.606,2.55 -0.606,2.55 0,0 -0.7545,3.45 -0.7545,3.45 0,0 -1.902,6.15 -1.902,6.15 -2.2935,6.8535 -5.211,13.149 -8.9325,19.35 0,0 -2.49,3.75 -2.49,3.75 -4.8765,7.221 -10.119,13.044 -16.503,18.9585 0,0 -1.431,1.2285 -1.431,1.2285 -10.248,9.327 -21.903,17.058 -34.1625,23.478 0,0 -6.9885,3.618 -6.9885,3.618 0,0 -3.7245,1.6305 -3.7245,1.6305 0,0 -8.763,3.9375 -8.763,3.9375 0,0 -2.145,0.8025 -2.145,0.8025 0,0 -11.742,4.3635 -11.742,4.3635 0,0 -7.05,2.3895 -7.05,2.3895 -1.164,0.375 -1.986,0.909 -3.3,0.942 -1.287,0.03 -4.407,-0.771 -2.883,-2.5635 0.18,-0.213 0.4515,-0.459 0.678,-0.6225 0.9555,-0.6915 2.7285,-1.3425 3.855,-1.8345 0,0 5.25,-2.3835 5.25,-2.3835 0,0 10.2,-4.461 10.2,-4.461 0,0 7.38,-3.708 7.38,-3.708 0,0 5.5065,-2.9445 5.5065,-2.9445 0,0 5.562,-3.564 5.562,-3.564 0,0 3.3015,-2.073 3.3015,-2.073 0,0 5.1255,-3.744 5.1255,-3.744 0,0 5.61,-4.356 5.61,-4.356 0,0 1.272,-1.1925 1.272,-1.1925 0,0 5.2365,-4.7025 5.2365,-4.7025 0,0 2.0535,-2.193 2.0535,-2.193 0,0 3.477,-3.606 3.477,-3.606 0,0 2.613,-3.1515 2.613,-3.1515 0,0 3.8655,-4.812 3.8655,-4.812 0,0 2.928,-4.3365 2.928,-4.3365 0,0 3.198,-5.1 3.198,-5.1 3.168,-5.4915 6.4635,-13.2375 8.16,-19.35 0,0 1.758,-7.5 1.758,-7.5 0,0 0,-0.9 0,-0.9 0,0 0.303,-1.05 0.303,-1.05 0,0 0,-1.05 0,-1.05 0,0 0.2745,-1.05 0.2745,-1.05 0,0 0.2025,-1.8 0.2025,-1.8 0.144,-1.1625 0.264,-0.57 0.273,-2.25 0,0 0.3135,-2.85 0.3135,-2.85 0,0 0,-1.8 0,-1.8 0.1245,-1.0515 0.2835,-0.7605 0.2865,-2.25 0,0 0,-12.75 0,-12.75 -0.003,-1.4895 -0.162,-1.1985 -0.288,-2.25 0,0 0,-2.4 0,-2.4 -0.027,-1.098 -0.225,-1.023 -0.3165,-1.8 0,0 0,-1.35 0,-1.35 0,0 -0.6975,-4.2 -0.6975,-4.2 0,0 -0.087,-1.2 -0.087,-1.2 0,0 -0.258,-0.9 -0.258,-0.9 0,0 0,-1.05 0,-1.05 0,0 -0.2475,-0.9 -0.2475,-0.9 0,0 -0.111,-0.9 -0.111,-0.9 0,0 -0.639,-2.85 -0.639,-2.85 0,0 -0.411,-2.4 -0.411,-2.4 0,0 -1.647,-6.3 -1.647,-6.3 -0.531,-1.659 -1.209,-3.2295 -1.944,-4.8 0,0 -0.8085,-1.8135 -0.8085,-1.8135 -2.499,-5.025 -5.5485,-9.141 -9.945,-12.654 -2.583,-2.0625 -3.843,-2.781 -6.9,-4.005 0,0 -1.65,-0.621 -1.65,-0.621 0,0 -5.25,-1.1565 -5.25,-1.1565 0,0 -1.65,0 -1.65,0 0,0 -1.65,-0.2865 -1.65,-0.2865 0,0 -2.25,0 -2.25,0 0,0 -2.1,0.261 -2.1,0.261 0,0 -1.95,0.0945 -1.95,0.0945 0,0 -1.5,0.354 -1.5,0.354 -2.7945,0.3525 -3.9975,0.813 -6.6,1.6245 -4.086,1.2735 -7.1865,2.865 -10.65,5.373 -1.9335,1.3995 -3.9195,2.8395 -5.5275,4.626 0,0 -0.8535,1.0905 -0.8535,1.0905 -1.9935,2.448 -2.736,3.729 -3.882,6.663 -0.4515,1.158 -0.894,2.364 -1.134,3.6 0,0 0,0.9 0,0.9 -0.171,0.975 -0.3,0.4995 -0.303,1.95 0,0 0,1.05 0,1.05 10e-4,0.66 -0.009,0.846 0.15,1.5 0,0 4.737,-3.4365 4.737,-3.4365 z m 120.363,-16.3695 c 1.4145,0.069 2.0145,0.2265 3.3135,0.7845 4.5945,1.974 6.957,5.9625 6.7755,10.9215 -0.081,2.178 -0.687,4.1985 -1.9095,6.018 -1.686,2.511 -5.1105,4.626 -8.1795,4.632 0,0 -2.85,0 -2.85,0 -1.104,-0.0195 -2.2215,-0.447 -3.2115,-0.8955 -0.951,-0.432 -1.6515,-0.7725 -2.4885,-1.4325 -2.2065,-1.737 -3.8955,-4.887 -3.9,-7.722 0,0 0,-2.4 0,-2.4 0.015,-1.182 0.555,-2.9775 1.0635,-4.05 1.446,-3.0495 4.5435,-5.085 7.7865,-5.772 0,0 1.65,-0.165 1.65,-0.165 1.0455,-0.123 1.029,0.0375 1.95,0.081 z m -0.15,51.906 c 1.2465,10e-4 1.704,0.201 2.85,0.654 3.6045,1.4205 6.3135,4.1775 7.086,8.046 0.147,0.7365 0.249,0.624 0.264,1.5 0.033,2.0865 -0.0135,3.8595 -0.867,5.8245 -1.128,2.595 -3.9165,5.142 -6.633,5.955 -1.089,0.3255 -1.3455,0.2955 -2.4,0.396 -0.615,0.0585 -0.816,0.1455 -1.5,0.1185 0,0 -2.4,-0.183 -2.4,-0.183 -1.917,-0.3135 -4.29,-1.668 -5.6565,-3.0255 -1.6905,-1.6785 -3.0315,-4.431 -3.0435,-6.8355 0,0 0,-2.4 0,-2.4 0.0315,-2.628 1.5045,-5.475 3.3765,-7.275 1.4925,-1.4325 3.5265,-2.151 5.4735,-2.6865 0.8625,-0.1575 2.505,-0.09 3.45,-0.0885 z"
     inkscape:connector-curvature="0"
     style="fill:none;stroke:#000000;stroke-width:0.15000001" />
</svg>
