<?xml version="1.0" encoding="UTF-8" standalone="no"?>
<!DOCTYPE svg PUBLIC "-//W3C//DTD SVG 20010904//EN"
              "http://www.w3.org/TR/2001/REC-SVG-20010904/DTD/svg10.dtd">

<svg xmlns="http://www.w3.org/2000/svg"
     width="6.16667in" height="7.56944in"
     viewBox="0 0 444 545">
  <path id="Selection"
        fill="none" stroke="black" stroke-width="1"
        d="M 236.00,212.00
           C 236.00,212.00 252.00,213.00 252.00,213.00
             252.00,213.00 277.00,213.00 277.00,213.00
             279.39,213.00 282.69,213.21 284.79,211.98
             287.53,210.38 290.27,204.85 291.74,202.00
             291.74,202.00 303.00,181.00 303.00,181.00
             303.00,181.00 328.78,133.00 328.78,133.00
             328.78,133.00 341.37,109.00 341.37,109.00
             341.37,109.00 345.28,70.00 345.28,70.00
             346.65,58.62 348.98,57.64 354.58,48.00
             354.58,48.00 370.99,20.00 370.99,20.00
             379.55,5.43 378.17,5.02 388.00,5.00
             388.00,5.00 437.00,5.00 437.00,5.00
             437.00,5.00 437.00,55.00 437.00,55.00
             437.00,55.00 435.86,72.00 435.86,72.00
             435.86,72.00 435.86,114.00 435.86,114.00
             436.00,116.12 436.08,118.98 435.86,121.00
             435.86,121.00 419.42,151.00 419.42,151.00
             419.42,151.00 378.85,223.00 378.85,223.00
             378.85,223.00 348.42,277.00 348.42,277.00
             346.17,280.94 340.54,292.84 336.82,294.40
             335.10,295.12 331.91,295.00 330.00,295.00
             330.00,295.00 302.00,295.00 302.00,295.00
             302.00,295.00 288.00,296.00 288.00,296.00
             288.00,296.00 254.00,296.00 254.00,296.00
             251.91,296.00 248.94,295.88 247.00,296.60
             242.69,298.18 233.70,309.08 230.17,313.00
             230.17,313.00 186.00,362.04 186.00,362.04
             186.00,362.04 197.00,362.04 197.00,362.04
             197.00,362.04 207.00,363.00 207.00,363.00
             207.00,363.00 224.00,363.00 224.00,363.00
             224.00,363.00 245.00,364.00 245.00,364.00
             245.00,364.00 225.00,382.08 225.00,382.08
             225.00,382.08 184.00,417.00 184.00,417.00
             184.00,417.00 199.27,433.00 199.27,433.00
             199.27,433.00 219.27,456.00 219.27,456.00
             219.27,456.00 237.00,478.00 237.00,478.00
             237.00,478.00 156.00,457.00 156.00,457.00
             156.00,457.00 131.00,531.00 131.00,531.00
             127.08,528.37 123.06,516.77 121.00,512.00
             121.00,512.00 101.00,466.00 101.00,466.00
             101.00,466.00 22.00,490.00 22.00,490.00
             22.00,490.00 47.66,450.00 47.66,450.00
             47.66,450.00 68.00,419.00 68.00,419.00
             68.00,419.00 35.00,396.02 35.00,396.02
             35.00,396.02 8.00,376.00 8.00,376.00
             8.00,376.00 56.00,371.83 56.00,371.83
             56.00,371.83 87.00,369.00 87.00,369.00
             87.00,369.00 85.09,345.00 85.09,345.00
             85.09,345.00 82.91,309.00 82.91,309.00
             82.91,309.00 82.00,299.00 82.00,299.00
             88.37,302.01 94.86,309.92 100.00,315.00
             100.00,315.00 111.00,325.04 111.00,325.04
             111.00,325.04 128.00,342.00 128.00,342.00
             128.00,342.00 145.00,295.00 145.00,295.00
             145.00,295.00 115.00,294.00 115.00,294.00
             112.07,294.00 98.27,293.21 96.41,291.98
             94.41,290.65 92.80,286.25 91.77,284.00
             91.77,284.00 84.30,267.00 84.30,267.00
             82.90,263.86 81.09,260.49 82.17,257.00
             82.17,257.00 87.72,247.00 87.72,247.00
             87.72,247.00 101.72,223.00 101.72,223.00
             101.72,223.00 147.85,144.00 147.85,144.00
             147.85,144.00 167.39,110.00 167.39,110.00
             167.39,110.00 175.93,62.00 175.93,62.00
             175.93,62.00 192.22,30.00 192.22,30.00
             192.22,30.00 200.58,14.00 200.58,14.00
             201.76,11.92 203.40,8.29 205.39,7.02
             207.40,5.74 211.62,5.96 214.00,6.01
             214.00,6.01 228.00,7.00 228.00,7.00
             228.00,7.00 242.00,7.00 242.00,7.00
             242.00,7.00 254.00,7.96 254.00,7.96
             254.00,7.96 266.00,7.96 266.00,7.96
             266.00,7.96 266.00,51.00 266.00,51.00
             266.00,51.00 267.00,68.00 267.00,68.00
             267.00,68.00 267.00,106.00 267.00,106.00
             267.00,106.00 266.30,114.00 266.30,114.00
             266.30,114.00 250.60,141.00 250.60,141.00
             250.60,141.00 208.00,212.00 208.00,212.00
             208.00,212.00 236.00,212.00 236.00,212.00 Z" />
</svg>
