solid OpenSCAD_Model
  facet normal 1 -0 0
    outer loop
      vertex 16 0 2
      vertex 16 12 0
      vertex 16 12 2
    endloop
  endfacet
  facet normal 1 0 0
    outer loop
      vertex 16 12 0
      vertex 16 0 2
      vertex 16 0 0
    endloop
  endfacet
  facet normal -1 0 0
    outer loop
      vertex 28 0 0
      vertex 28 12 2
      vertex 28 12 0
    endloop
  endfacet
  facet normal -1 -0 0
    outer loop
      vertex 28 12 2
      vertex 28 0 0
      vertex 28 0 2
    endloop
  endfacet
  facet normal 0 1 -0
    outer loop
      vertex 28 0 0
      vertex 16 0 2
      vertex 28 0 2
    endloop
  endfacet
  facet normal 0 1 0
    outer loop
      vertex 16 0 2
      vertex 28 0 0
      vertex 16 0 0
    endloop
  endfacet
  facet normal 0 -1 0
    outer loop
      vertex 16 12 0
      vertex 28 12 2
      vertex 16 12 2
    endloop
  endfacet
  facet normal 0 -1 -0
    outer loop
      vertex 28 12 2
      vertex 16 12 0
      vertex 28 12 0
    endloop
  endfacet
  facet normal 1 -0 0
    outer loop
      vertex 16 15 2
      vertex 16 27 0
      vertex 16 27 2
    endloop
  endfacet
  facet normal 1 0 0
    outer loop
      vertex 16 27 0
      vertex 16 15 2
      vertex 16 15 0
    endloop
  endfacet
  facet normal -1 0 0
    outer loop
      vertex 28 15 0
      vertex 28 27 2
      vertex 28 27 0
    endloop
  endfacet
  facet normal -1 -0 0
    outer loop
      vertex 28 27 2
      vertex 28 15 0
      vertex 28 15 2
    endloop
  endfacet
  facet normal 0 1 -0
    outer loop
      vertex 28 15 0
      vertex 16 15 2
      vertex 28 15 2
    endloop
  endfacet
  facet normal 0 1 0
    outer loop
      vertex 16 15 2
      vertex 28 15 0
      vertex 16 15 0
    endloop
  endfacet
  facet normal 0 -1 0
    outer loop
      vertex 16 27 0
      vertex 28 27 2
      vertex 16 27 2
    endloop
  endfacet
  facet normal 0 -1 -0
    outer loop
      vertex 28 27 2
      vertex 16 27 0
      vertex 28 27 0
    endloop
  endfacet
  facet normal 1 -0 0
    outer loop
      vertex 16 30 2
      vertex 16 42 0
      vertex 16 42 2
    endloop
  endfacet
  facet normal 1 0 0
    outer loop
      vertex 16 42 0
      vertex 16 30 2
      vertex 16 30 0
    endloop
  endfacet
  facet normal -1 0 0
    outer loop
      vertex 28 30 0
      vertex 28 42 2
      vertex 28 42 0
    endloop
  endfacet
  facet normal -1 -0 0
    outer loop
      vertex 28 42 2
      vertex 28 30 0
      vertex 28 30 2
    endloop
  endfacet
  facet normal 0 -1 0
    outer loop
      vertex 16 42 0
      vertex 28 42 2
      vertex 16 42 2
    endloop
  endfacet
  facet normal 0 -1 -0
    outer loop
      vertex 28 42 2
      vertex 16 42 0
      vertex 28 42 0
    endloop
  endfacet
  facet normal 0 1 -0
    outer loop
      vertex 28 30 0
      vertex 16 30 2
      vertex 28 30 2
    endloop
  endfacet
  facet normal 0 1 0
    outer loop
      vertex 16 30 2
      vertex 28 30 0
      vertex 16 30 0
    endloop
  endfacet
  facet normal 1 -0 0
    outer loop
      vertex 16 45 2
      vertex 16 57 0
      vertex 16 57 2
    endloop
  endfacet
  facet normal 1 0 0
    outer loop
      vertex 16 57 0
      vertex 16 45 2
      vertex 16 45 0
    endloop
  endfacet
  facet normal -1 0 0
    outer loop
      vertex 28 45 0
      vertex 28 57 2
      vertex 28 57 0
    endloop
  endfacet
  facet normal -1 -0 0
    outer loop
      vertex 28 57 2
      vertex 28 45 0
      vertex 28 45 2
    endloop
  endfacet
  facet normal 0 1 -0
    outer loop
      vertex 28 45 0
      vertex 16 45 2
      vertex 28 45 2
    endloop
  endfacet
  facet normal 0 1 0
    outer loop
      vertex 16 45 2
      vertex 28 45 0
      vertex 16 45 0
    endloop
  endfacet
  facet normal 0 -1 0
    outer loop
      vertex 16 57 0
      vertex 28 57 2
      vertex 16 57 2
    endloop
  endfacet
  facet normal 0 -1 -0
    outer loop
      vertex 28 57 2
      vertex 16 57 0
      vertex 28 57 0
    endloop
  endfacet
  facet normal 1 -0 0
    outer loop
      vertex 31.5 0 2
      vertex 31.5 58.5 0
      vertex 31.5 58.5 2
    endloop
  endfacet
  facet normal 1 0 0
    outer loop
      vertex 31.5 58.5 0
      vertex 31.5 0 2
      vertex 31.5 0 0
    endloop
  endfacet
  facet normal -0.987688 -0.156435 0
    outer loop
      vertex -2.85317 -0.927051 0
      vertex -3 0 2
      vertex -3 0 0
    endloop
  endfacet
  facet normal -0.987688 -0.156435 0
    outer loop
      vertex -3 0 2
      vertex -2.85317 -0.927051 0
      vertex -2.85317 -0.927051 2
    endloop
  endfacet
  facet normal 0.156434 -0.987688 0
    outer loop
      vertex 28.5 -3 0
      vertex 29.4271 -2.85317 2
      vertex 28.5 -3 2
    endloop
  endfacet
  facet normal 0.156434 -0.987688 0
    outer loop
      vertex 29.4271 -2.85317 2
      vertex 28.5 -3 0
      vertex 29.4271 -2.85317 0
    endloop
  endfacet
  facet normal -0 0 1
    outer loop
      vertex 16 15 2
      vertex 28 12 2
      vertex 28 15 2
    endloop
  endfacet
  facet normal 0 0 1
    outer loop
      vertex 28 12 2
      vertex 16 15 2
      vertex 16 12 2
    endloop
  endfacet
  facet normal -0 0 1
    outer loop
      vertex 16 30 2
      vertex 28 27 2
      vertex 28 30 2
    endloop
  endfacet
  facet normal 0 0 1
    outer loop
      vertex 28 27 2
      vertex 16 30 2
      vertex 16 27 2
    endloop
  endfacet
  facet normal -0 0 1
    outer loop
      vertex 16 45 2
      vertex 28 42 2
      vertex 28 45 2
    endloop
  endfacet
  facet normal 0 0 1
    outer loop
      vertex 28 42 2
      vertex 16 45 2
      vertex 16 42 2
    endloop
  endfacet
  facet normal 0 0 1
    outer loop
      vertex 28 57 2
      vertex 31.5 58.5 2
      vertex 31.3532 59.4271 2
    endloop
  endfacet
  facet normal 0 0 1
    outer loop
      vertex 31.5 58.5 2
      vertex 28 30 2
      vertex 31.5 0 2
    endloop
  endfacet
  facet normal 0 0 1
    outer loop
      vertex 28 57 2
      vertex 31.3532 59.4271 2
      vertex 30.9271 60.2634 2
    endloop
  endfacet
  facet normal -0 0 1
    outer loop
      vertex 28 27 2
      vertex 31.5 0 2
      vertex 28 30 2
    endloop
  endfacet
  facet normal 0 0 1
    outer loop
      vertex 28 57 2
      vertex 30.9271 60.2634 2
      vertex 30.2634 60.9271 2
    endloop
  endfacet
  facet normal -0 0 1
    outer loop
      vertex 28 15 2
      vertex 31.5 0 2
      vertex 28 27 2
    endloop
  endfacet
  facet normal 0 0 1
    outer loop
      vertex 28 57 2
      vertex 30.2634 60.9271 2
      vertex 29.4271 61.3532 2
    endloop
  endfacet
  facet normal -0 0 1
    outer loop
      vertex 28 12 2
      vertex 31.5 0 2
      vertex 28 15 2
    endloop
  endfacet
  facet normal 0 0 1
    outer loop
      vertex 28 57 2
      vertex 29.4271 61.3532 2
      vertex 28.5 61.5 2
    endloop
  endfacet
  facet normal 0 0 1
    outer loop
      vertex 28 0 2
      vertex 31.5 0 2
      vertex 28 12 2
    endloop
  endfacet
  facet normal 0 0 1
    outer loop
      vertex 31.5 58.5 2
      vertex 28 57 2
      vertex 28 45 2
    endloop
  endfacet
  facet normal 0 0 1
    outer loop
      vertex 28.5 61.5 2
      vertex 16 57 2
      vertex 28 57 2
    endloop
  endfacet
  facet normal 0 0 1
    outer loop
      vertex -3 58.5 2
      vertex 16 45 2
      vertex 16 57 2
    endloop
  endfacet
  facet normal 0 0 1
    outer loop
      vertex 16 45 2
      vertex -3 58.5 2
      vertex 16 42 2
    endloop
  endfacet
  facet normal 0 0 1
    outer loop
      vertex 16 42 2
      vertex -3 58.5 2
      vertex 16 30 2
    endloop
  endfacet
  facet normal 0 0 1
    outer loop
      vertex -3 0 2
      vertex 16 30 2
      vertex -3 58.5 2
    endloop
  endfacet
  facet normal 0 0 1
    outer loop
      vertex 16 30 2
      vertex -3 0 2
      vertex 16 27 2
    endloop
  endfacet
  facet normal 0 0 1
    outer loop
      vertex 16 27 2
      vertex -3 0 2
      vertex 16 15 2
    endloop
  endfacet
  facet normal -0 0 1
    outer loop
      vertex -3 58.5 2
      vertex 16 57 2
      vertex 0 61.5 2
    endloop
  endfacet
  facet normal -0 0 1
    outer loop
      vertex 0 61.5 2
      vertex 16 57 2
      vertex 28.5 61.5 2
    endloop
  endfacet
  facet normal 0 0 1
    outer loop
      vertex 31.5 58.5 2
      vertex 28 45 2
      vertex 28 42 2
    endloop
  endfacet
  facet normal 0 0 1
    outer loop
      vertex 31.5 58.5 2
      vertex 28 42 2
      vertex 28 30 2
    endloop
  endfacet
  facet normal 0 0 1
    outer loop
      vertex 31.5 0 2
      vertex 28 0 2
      vertex 31.3532 -0.927051 2
    endloop
  endfacet
  facet normal 0 0 1
    outer loop
      vertex 31.3532 -0.927051 2
      vertex 28 0 2
      vertex 30.9271 -1.76336 2
    endloop
  endfacet
  facet normal 0 0 1
    outer loop
      vertex 30.9271 -1.76336 2
      vertex 28 0 2
      vertex 30.2634 -2.42705 2
    endloop
  endfacet
  facet normal 0 0 1
    outer loop
      vertex 30.2634 -2.42705 2
      vertex 28 0 2
      vertex 29.4271 -2.85317 2
    endloop
  endfacet
  facet normal 0 0 1
    outer loop
      vertex 29.4271 -2.85317 2
      vertex 28 0 2
      vertex 28.5 -3 2
    endloop
  endfacet
  facet normal -0 0 1
    outer loop
      vertex 16 0 2
      vertex 28.5 -3 2
      vertex 28 0 2
    endloop
  endfacet
  facet normal 0 0 1
    outer loop
      vertex 16 0 2
      vertex 0 -3 2
      vertex 28.5 -3 2
    endloop
  endfacet
  facet normal 0 0 1
    outer loop
      vertex 16 15 2
      vertex -3 0 2
      vertex 16 12 2
    endloop
  endfacet
  facet normal 0 0 1
    outer loop
      vertex -3 58.5 2
      vertex 0 61.5 2
      vertex -0.927051 61.3532 2
    endloop
  endfacet
  facet normal 0 -0 1
    outer loop
      vertex 0 -3 2
      vertex 16 12 2
      vertex -3 0 2
    endloop
  endfacet
  facet normal 0 0 1
    outer loop
      vertex -3 58.5 2
      vertex -0.927051 61.3532 2
      vertex -1.76336 60.9271 2
    endloop
  endfacet
  facet normal 0 0 1
    outer loop
      vertex 16 12 2
      vertex 0 -3 2
      vertex 16 0 2
    endloop
  endfacet
  facet normal 0 0 1
    outer loop
      vertex -3 58.5 2
      vertex -1.76336 60.9271 2
      vertex -2.42705 60.2634 2
    endloop
  endfacet
  facet normal 0 0 1
    outer loop
      vertex 0 -3 2
      vertex -3 0 2
      vertex -0.927051 -2.85317 2
    endloop
  endfacet
  facet normal 0 0 1
    outer loop
      vertex -3 58.5 2
      vertex -2.42705 60.2634 2
      vertex -2.85317 59.4271 2
    endloop
  endfacet
  facet normal 0 0 1
    outer loop
      vertex -0.927051 -2.85317 2
      vertex -3 0 2
      vertex -1.76336 -2.42705 2
    endloop
  endfacet
  facet normal 0 0 1
    outer loop
      vertex -1.76336 -2.42705 2
      vertex -3 0 2
      vertex -2.42705 -1.76336 2
    endloop
  endfacet
  facet normal 0 0 1
    outer loop
      vertex -2.42705 -1.76336 2
      vertex -3 0 2
      vertex -2.85317 -0.927051 2
    endloop
  endfacet
  facet normal -0.987688 0.156434 0
    outer loop
      vertex -3 58.5 0
      vertex -2.85317 59.4271 2
      vertex -2.85317 59.4271 0
    endloop
  endfacet
  facet normal -0.987688 0.156434 0
    outer loop
      vertex -2.85317 59.4271 2
      vertex -3 58.5 0
      vertex -3 58.5 2
    endloop
  endfacet
  facet normal 0 -1 0
    outer loop
      vertex 0 -3 0
      vertex 28.5 -3 2
      vertex 0 -3 2
    endloop
  endfacet
  facet normal 0 -1 -0
    outer loop
      vertex 28.5 -3 2
      vertex 0 -3 0
      vertex 28.5 -3 0
    endloop
  endfacet
  facet normal -0.891006 0.453991 0
    outer loop
      vertex -2.85317 59.4271 0
      vertex -2.42705 60.2634 2
      vertex -2.42705 60.2634 0
    endloop
  endfacet
  facet normal -0.891006 0.453991 0
    outer loop
      vertex -2.42705 60.2634 2
      vertex -2.85317 59.4271 0
      vertex -2.85317 59.4271 2
    endloop
  endfacet
  facet normal -1 0 0
    outer loop
      vertex -3 0 0
      vertex -3 58.5 2
      vertex -3 58.5 0
    endloop
  endfacet
  facet normal -1 -0 0
    outer loop
      vertex -3 58.5 2
      vertex -3 0 0
      vertex -3 0 2
    endloop
  endfacet
  facet normal -0.156436 0.987688 0
    outer loop
      vertex 0 61.5 0
      vertex -0.927051 61.3532 2
      vertex 0 61.5 2
    endloop
  endfacet
  facet normal -0.156436 0.987688 0
    outer loop
      vertex -0.927051 61.3532 2
      vertex 0 61.5 0
      vertex -0.927051 61.3532 0
    endloop
  endfacet
  facet normal 0 1 -0
    outer loop
      vertex 28.5 61.5 0
      vertex 0 61.5 2
      vertex 28.5 61.5 2
    endloop
  endfacet
  facet normal 0 1 0
    outer loop
      vertex 0 61.5 2
      vertex 28.5 61.5 0
      vertex 0 61.5 0
    endloop
  endfacet
  facet normal 0 0 -1
    outer loop
      vertex 16 42 0
      vertex 28 45 0
      vertex 28 42 0
    endloop
  endfacet
  facet normal -0 0 -1
    outer loop
      vertex 28 45 0
      vertex 16 42 0
      vertex 16 45 0
    endloop
  endfacet
  facet normal 0 0 -1
    outer loop
      vertex 16 27 0
      vertex 28 30 0
      vertex 28 27 0
    endloop
  endfacet
  facet normal -0 0 -1
    outer loop
      vertex 28 30 0
      vertex 16 27 0
      vertex 16 30 0
    endloop
  endfacet
  facet normal 0 0 -1
    outer loop
      vertex 16 12 0
      vertex 28 15 0
      vertex 28 12 0
    endloop
  endfacet
  facet normal -0 0 -1
    outer loop
      vertex 28 15 0
      vertex 16 12 0
      vertex 16 15 0
    endloop
  endfacet
  facet normal 0 0 -1
    outer loop
      vertex 28 0 0
      vertex 31.5 0 0
      vertex 31.3532 -0.927051 0
    endloop
  endfacet
  facet normal 0 0 -1
    outer loop
      vertex 31.5 0 0
      vertex 28 27 0
      vertex 31.5 58.5 0
    endloop
  endfacet
  facet normal 0 0 -1
    outer loop
      vertex 28 0 0
      vertex 31.3532 -0.927051 0
      vertex 30.9271 -1.76336 0
    endloop
  endfacet
  facet normal 0 0 -1
    outer loop
      vertex 28 30 0
      vertex 31.5 58.5 0
      vertex 28 27 0
    endloop
  endfacet
  facet normal 0 0 -1
    outer loop
      vertex 28 0 0
      vertex 30.9271 -1.76336 0
      vertex 30.2634 -2.42705 0
    endloop
  endfacet
  facet normal 0 0 -1
    outer loop
      vertex 28 42 0
      vertex 31.5 58.5 0
      vertex 28 30 0
    endloop
  endfacet
  facet normal 0 0 -1
    outer loop
      vertex 28 0 0
      vertex 30.2634 -2.42705 0
      vertex 29.4271 -2.85317 0
    endloop
  endfacet
  facet normal 0 0 -1
    outer loop
      vertex 28 45 0
      vertex 31.5 58.5 0
      vertex 28 42 0
    endloop
  endfacet
  facet normal 0 0 -1
    outer loop
      vertex 28 0 0
      vertex 29.4271 -2.85317 0
      vertex 28.5 -3 0
    endloop
  endfacet
  facet normal 0 0 -1
    outer loop
      vertex 28 57 0
      vertex 31.5 58.5 0
      vertex 28 45 0
    endloop
  endfacet
  facet normal 0 0 -1
    outer loop
      vertex 31.5 0 0
      vertex 28 0 0
      vertex 28 12 0
    endloop
  endfacet
  facet normal 0 0 -1
    outer loop
      vertex 28.5 -3 0
      vertex 16 0 0
      vertex 28 0 0
    endloop
  endfacet
  facet normal 0 0 -1
    outer loop
      vertex 0 -3 0
      vertex 16 12 0
      vertex 16 0 0
    endloop
  endfacet
  facet normal -0 0 -1
    outer loop
      vertex 16 12 0
      vertex -3 0 0
      vertex 16 15 0
    endloop
  endfacet
  facet normal -0 0 -1
    outer loop
      vertex 16 15 0
      vertex -3 0 0
      vertex 16 27 0
    endloop
  endfacet
  facet normal -0 0 -1
    outer loop
      vertex 16 27 0
      vertex -3 0 0
      vertex 16 30 0
    endloop
  endfacet
  facet normal 0 0 -1
    outer loop
      vertex -3 58.5 0
      vertex 16 30 0
      vertex -3 0 0
    endloop
  endfacet
  facet normal 0 0 -1
    outer loop
      vertex 16 30 0
      vertex -3 58.5 0
      vertex 16 42 0
    endloop
  endfacet
  facet normal 0 0 -1
    outer loop
      vertex 16 12 0
      vertex 0 -3 0
      vertex -3 0 0
    endloop
  endfacet
  facet normal 0 0 -1
    outer loop
      vertex 0 -3 0
      vertex 16 0 0
      vertex 28.5 -3 0
    endloop
  endfacet
  facet normal 0 0 -1
    outer loop
      vertex 31.5 0 0
      vertex 28 12 0
      vertex 28 15 0
    endloop
  endfacet
  facet normal 0 0 -1
    outer loop
      vertex 31.5 0 0
      vertex 28 15 0
      vertex 28 27 0
    endloop
  endfacet
  facet normal -0 0 -1
    outer loop
      vertex 31.5 58.5 0
      vertex 28 57 0
      vertex 31.3532 59.4271 0
    endloop
  endfacet
  facet normal -0 0 -1
    outer loop
      vertex 31.3532 59.4271 0
      vertex 28 57 0
      vertex 30.9271 60.2634 0
    endloop
  endfacet
  facet normal -0 0 -1
    outer loop
      vertex 30.9271 60.2634 0
      vertex 28 57 0
      vertex 30.2634 60.9271 0
    endloop
  endfacet
  facet normal -0 0 -1
    outer loop
      vertex 30.2634 60.9271 0
      vertex 28 57 0
      vertex 29.4271 61.3532 0
    endloop
  endfacet
  facet normal -0 0 -1
    outer loop
      vertex 29.4271 61.3532 0
      vertex 28 57 0
      vertex 28.5 61.5 0
    endloop
  endfacet
  facet normal 0 0 -1
    outer loop
      vertex 16 57 0
      vertex 28.5 61.5 0
      vertex 28 57 0
    endloop
  endfacet
  facet normal 0 0 -1
    outer loop
      vertex 16 57 0
      vertex 0 61.5 0
      vertex 28.5 61.5 0
    endloop
  endfacet
  facet normal 0 0 -1
    outer loop
      vertex 16 42 0
      vertex -3 58.5 0
      vertex 16 45 0
    endloop
  endfacet
  facet normal 0 0 -1
    outer loop
      vertex -3 0 0
      vertex 0 -3 0
      vertex -0.927051 -2.85317 0
    endloop
  endfacet
  facet normal 0 0 -1
    outer loop
      vertex 16 45 0
      vertex -3 58.5 0
      vertex 16 57 0
    endloop
  endfacet
  facet normal 0 0 -1
    outer loop
      vertex -3 0 0
      vertex -0.927051 -2.85317 0
      vertex -1.76336 -2.42705 0
    endloop
  endfacet
  facet normal 0 0 -1
    outer loop
      vertex 16 57 0
      vertex -3 58.5 0
      vertex 0 61.5 0
    endloop
  endfacet
  facet normal 0 0 -1
    outer loop
      vertex -3 0 0
      vertex -1.76336 -2.42705 0
      vertex -2.42705 -1.76336 0
    endloop
  endfacet
  facet normal 0 0 -1
    outer loop
      vertex 0 61.5 0
      vertex -3 58.5 0
      vertex -0.927051 61.3532 0
    endloop
  endfacet
  facet normal 0 0 -1
    outer loop
      vertex -3 0 0
      vertex -2.42705 -1.76336 0
      vertex -2.85317 -0.927051 0
    endloop
  endfacet
  facet normal 0 0 -1
    outer loop
      vertex -0.927051 61.3532 0
      vertex -3 58.5 0
      vertex -1.76336 60.9271 0
    endloop
  endfacet
  facet normal 0 0 -1
    outer loop
      vertex -1.76336 60.9271 0
      vertex -3 58.5 0
      vertex -2.42705 60.2634 0
    endloop
  endfacet
  facet normal 0 0 -1
    outer loop
      vertex -2.42705 60.2634 0
      vertex -3 58.5 0
      vertex -2.85317 59.4271 0
    endloop
  endfacet
  facet normal -0.891006 -0.453991 0
    outer loop
      vertex -2.42705 -1.76336 0
      vertex -2.85317 -0.927051 2
      vertex -2.85317 -0.927051 0
    endloop
  endfacet
  facet normal -0.891006 -0.453991 0
    outer loop
      vertex -2.85317 -0.927051 2
      vertex -2.42705 -1.76336 0
      vertex -2.42705 -1.76336 2
    endloop
  endfacet
  facet normal -0.707107 -0.707107 0
    outer loop
      vertex -1.76336 -2.42705 0
      vertex -2.42705 -1.76336 2
      vertex -2.42705 -1.76336 0
    endloop
  endfacet
  facet normal -0.707107 -0.707107 0
    outer loop
      vertex -2.42705 -1.76336 2
      vertex -1.76336 -2.42705 0
      vertex -1.76336 -2.42705 2
    endloop
  endfacet
  facet normal -0.156435 -0.987688 0
    outer loop
      vertex -0.927051 -2.85317 0
      vertex 0 -3 2
      vertex -0.927051 -2.85317 2
    endloop
  endfacet
  facet normal -0.156435 -0.987688 -0
    outer loop
      vertex 0 -3 2
      vertex -0.927051 -2.85317 0
      vertex 0 -3 0
    endloop
  endfacet
  facet normal 0.453991 -0.891006 0
    outer loop
      vertex 29.4271 -2.85317 0
      vertex 30.2634 -2.42705 2
      vertex 29.4271 -2.85317 2
    endloop
  endfacet
  facet normal 0.453991 -0.891006 0
    outer loop
      vertex 30.2634 -2.42705 2
      vertex 29.4271 -2.85317 0
      vertex 30.2634 -2.42705 0
    endloop
  endfacet
  facet normal 0.987688 -0.156436 0
    outer loop
      vertex 31.3532 -0.927051 2
      vertex 31.5 0 0
      vertex 31.5 0 2
    endloop
  endfacet
  facet normal 0.987688 -0.156436 0
    outer loop
      vertex 31.5 0 0
      vertex 31.3532 -0.927051 2
      vertex 31.3532 -0.927051 0
    endloop
  endfacet
  facet normal -0.707107 0.707106 0
    outer loop
      vertex -2.42705 60.2634 0
      vertex -1.76336 60.9271 2
      vertex -1.76336 60.9271 0
    endloop
  endfacet
  facet normal -0.707107 0.707106 0
    outer loop
      vertex -1.76336 60.9271 2
      vertex -2.42705 60.2634 0
      vertex -2.42705 60.2634 2
    endloop
  endfacet
  facet normal -0.453989 0.891007 0
    outer loop
      vertex -0.927051 61.3532 0
      vertex -1.76336 60.9271 2
      vertex -0.927051 61.3532 2
    endloop
  endfacet
  facet normal -0.453989 0.891007 0
    outer loop
      vertex -1.76336 60.9271 2
      vertex -0.927051 61.3532 0
      vertex -1.76336 60.9271 0
    endloop
  endfacet
  facet normal 0.45399 0.891007 -0
    outer loop
      vertex 30.2634 60.9271 0
      vertex 29.4271 61.3532 2
      vertex 30.2634 60.9271 2
    endloop
  endfacet
  facet normal 0.45399 0.891007 0
    outer loop
      vertex 29.4271 61.3532 2
      vertex 30.2634 60.9271 0
      vertex 29.4271 61.3532 0
    endloop
  endfacet
  facet normal 0.891007 0.45399 0
    outer loop
      vertex 31.3532 59.4271 2
      vertex 30.9271 60.2634 0
      vertex 30.9271 60.2634 2
    endloop
  endfacet
  facet normal 0.891007 0.45399 0
    outer loop
      vertex 30.9271 60.2634 0
      vertex 31.3532 59.4271 2
      vertex 31.3532 59.4271 0
    endloop
  endfacet
  facet normal 0.987688 0.156435 0
    outer loop
      vertex 31.5 58.5 2
      vertex 31.3532 59.4271 0
      vertex 31.3532 59.4271 2
    endloop
  endfacet
  facet normal 0.987688 0.156435 0
    outer loop
      vertex 31.3532 59.4271 0
      vertex 31.5 58.5 2
      vertex 31.5 58.5 0
    endloop
  endfacet
  facet normal -0.453991 -0.891006 0
    outer loop
      vertex -1.76336 -2.42705 0
      vertex -0.927051 -2.85317 2
      vertex -1.76336 -2.42705 2
    endloop
  endfacet
  facet normal -0.453991 -0.891006 -0
    outer loop
      vertex -0.927051 -2.85317 2
      vertex -1.76336 -2.42705 0
      vertex -0.927051 -2.85317 0
    endloop
  endfacet
  facet normal 0.891007 -0.453989 0
    outer loop
      vertex 30.9271 -1.76336 2
      vertex 31.3532 -0.927051 0
      vertex 31.3532 -0.927051 2
    endloop
  endfacet
  facet normal 0.891007 -0.453989 0
    outer loop
      vertex 31.3532 -0.927051 0
      vertex 30.9271 -1.76336 2
      vertex 30.9271 -1.76336 0
    endloop
  endfacet
  facet normal 0.707106 -0.707107 0
    outer loop
      vertex 30.2634 -2.42705 0
      vertex 30.9271 -1.76336 2
      vertex 30.2634 -2.42705 2
    endloop
  endfacet
  facet normal 0.707106 -0.707107 0
    outer loop
      vertex 30.9271 -1.76336 2
      vertex 30.2634 -2.42705 0
      vertex 30.9271 -1.76336 0
    endloop
  endfacet
  facet normal 0.707107 0.707107 0
    outer loop
      vertex 30.9271 60.2634 2
      vertex 30.2634 60.9271 0
      vertex 30.2634 60.9271 2
    endloop
  endfacet
  facet normal 0.707107 0.707107 0
    outer loop
      vertex 30.2634 60.9271 0
      vertex 30.9271 60.2634 2
      vertex 30.9271 60.2634 0
    endloop
  endfacet
  facet normal 0.156435 0.987688 -0
    outer loop
      vertex 29.4271 61.3532 0
      vertex 28.5 61.5 2
      vertex 29.4271 61.3532 2
    endloop
  endfacet
  facet normal 0.156435 0.987688 0
    outer loop
      vertex 28.5 61.5 2
      vertex 29.4271 61.3532 0
      vertex 28.5 61.5 0
    endloop
  endfacet
endsolid OpenSCAD_Model
