solid OpenSCAD_Model
  facet normal -1 0 0
    outer loop
      vertex 0 0 0
      vertex 0 96 6
      vertex 0 96 0
    endloop
  endfacet
  facet normal -1 -0 0
    outer loop
      vertex 0 96 6
      vertex 0 0 0
      vertex 0 0 6
    endloop
  endfacet
  facet normal 0 0 1
    outer loop
      vertex 84 96 6
      vertex 61 48 6
      vertex 84 0 6
    endloop
  endfacet
  facet normal 0 0 1
    outer loop
      vertex 84 96 6
      vertex 60.5848 51.9503 6
      vertex 61 48 6
    endloop
  endfacet
  facet normal 0 0 1
    outer loop
      vertex 84 96 6
      vertex 59.3574 55.728 6
      vertex 60.5848 51.9503 6
    endloop
  endfacet
  facet normal 0 0 1
    outer loop
      vertex 84 96 6
      vertex 57.3713 59.1679 6
      vertex 59.3574 55.728 6
    endloop
  endfacet
  facet normal 0 0 1
    outer loop
      vertex 84 96 6
      vertex 54.7135 62.1198 6
      vertex 57.3713 59.1679 6
    endloop
  endfacet
  facet normal 0 0 1
    outer loop
      vertex 84 96 6
      vertex 51.5 64.4545 6
      vertex 54.7135 62.1198 6
    endloop
  endfacet
  facet normal 0 0 1
    outer loop
      vertex 84 96 6
      vertex 47.8713 66.0701 6
      vertex 51.5 64.4545 6
    endloop
  endfacet
  facet normal 0 0 1
    outer loop
      vertex 84 96 6
      vertex 43.986 66.8959 6
      vertex 47.8713 66.0701 6
    endloop
  endfacet
  facet normal 0 0 1
    outer loop
      vertex 84 96 6
      vertex 40.014 66.8959 6
      vertex 43.986 66.8959 6
    endloop
  endfacet
  facet normal -0 0 1
    outer loop
      vertex 0 96 6
      vertex 40.014 66.8959 6
      vertex 84 96 6
    endloop
  endfacet
  facet normal 0 0 1
    outer loop
      vertex 40.014 66.8959 6
      vertex 0 96 6
      vertex 36.1287 66.0701 6
    endloop
  endfacet
  facet normal 0 0 1
    outer loop
      vertex 23.4152 51.9503 6
      vertex 0 96 6
      vertex 23 48 6
    endloop
  endfacet
  facet normal 0 0 1
    outer loop
      vertex 24.6426 55.728 6
      vertex 0 96 6
      vertex 23.4152 51.9503 6
    endloop
  endfacet
  facet normal 0 0 1
    outer loop
      vertex 26.6287 59.1679 6
      vertex 0 96 6
      vertex 24.6426 55.728 6
    endloop
  endfacet
  facet normal 0 0 1
    outer loop
      vertex 29.2865 62.1198 6
      vertex 0 96 6
      vertex 26.6287 59.1679 6
    endloop
  endfacet
  facet normal 0 0 1
    outer loop
      vertex 32.5 64.4545 6
      vertex 0 96 6
      vertex 29.2865 62.1198 6
    endloop
  endfacet
  facet normal 0 0 1
    outer loop
      vertex 36.1287 66.0701 6
      vertex 0 96 6
      vertex 32.5 64.4545 6
    endloop
  endfacet
  facet normal -0 0 1
    outer loop
      vertex 60.5848 44.0497 6
      vertex 84 0 6
      vertex 61 48 6
    endloop
  endfacet
  facet normal -0 0 1
    outer loop
      vertex 59.3574 40.272 6
      vertex 84 0 6
      vertex 60.5848 44.0497 6
    endloop
  endfacet
  facet normal -0 0 1
    outer loop
      vertex 57.3713 36.8321 6
      vertex 84 0 6
      vertex 59.3574 40.272 6
    endloop
  endfacet
  facet normal -0 0 1
    outer loop
      vertex 54.7135 33.8802 6
      vertex 84 0 6
      vertex 57.3713 36.8321 6
    endloop
  endfacet
  facet normal -0 0 1
    outer loop
      vertex 51.5 31.5455 6
      vertex 84 0 6
      vertex 54.7135 33.8802 6
    endloop
  endfacet
  facet normal -0 0 1
    outer loop
      vertex 47.8713 29.9299 6
      vertex 84 0 6
      vertex 51.5 31.5455 6
    endloop
  endfacet
  facet normal -0 0 1
    outer loop
      vertex 43.986 29.1041 6
      vertex 84 0 6
      vertex 47.8713 29.9299 6
    endloop
  endfacet
  facet normal -0 0 1
    outer loop
      vertex 40.014 29.1041 6
      vertex 84 0 6
      vertex 43.986 29.1041 6
    endloop
  endfacet
  facet normal 0 0 1
    outer loop
      vertex 0 0 6
      vertex 40.014 29.1041 6
      vertex 36.1287 29.9299 6
    endloop
  endfacet
  facet normal 0 0 1
    outer loop
      vertex 0 0 6
      vertex 36.1287 29.9299 6
      vertex 32.5 31.5455 6
    endloop
  endfacet
  facet normal 0 0 1
    outer loop
      vertex 0 0 6
      vertex 23 48 6
      vertex 0 96 6
    endloop
  endfacet
  facet normal 0 0 1
    outer loop
      vertex 23 48 6
      vertex 0 0 6
      vertex 23.4152 44.0497 6
    endloop
  endfacet
  facet normal 0 0 1
    outer loop
      vertex 40.014 29.1041 6
      vertex 0 0 6
      vertex 84 0 6
    endloop
  endfacet
  facet normal 0 0 1
    outer loop
      vertex 29.2865 33.8802 6
      vertex 0 0 6
      vertex 32.5 31.5455 6
    endloop
  endfacet
  facet normal 0 0 1
    outer loop
      vertex 26.6287 36.8321 6
      vertex 0 0 6
      vertex 29.2865 33.8802 6
    endloop
  endfacet
  facet normal 0 0 1
    outer loop
      vertex 24.6426 40.272 6
      vertex 0 0 6
      vertex 26.6287 36.8321 6
    endloop
  endfacet
  facet normal 0 0 1
    outer loop
      vertex 23.4152 44.0497 6
      vertex 0 0 6
      vertex 24.6426 40.272 6
    endloop
  endfacet
  facet normal 1 -0 0
    outer loop
      vertex 84 0 6
      vertex 84 96 0
      vertex 84 96 6
    endloop
  endfacet
  facet normal 1 0 0
    outer loop
      vertex 84 96 0
      vertex 84 0 6
      vertex 84 0 0
    endloop
  endfacet
  facet normal 0 0 -1
    outer loop
      vertex 81 91.5 0
      vertex 84 0 0
      vertex 81 1.5 0
    endloop
  endfacet
  facet normal 0 0 -1
    outer loop
      vertex 84 0 0
      vertex 3 1.5 0
      vertex 81 1.5 0
    endloop
  endfacet
  facet normal -0 0 -1
    outer loop
      vertex 3 1.5 0
      vertex 0 0 0
      vertex 3 91.5 0
    endloop
  endfacet
  facet normal 0 0 -1
    outer loop
      vertex 0 0 0
      vertex 3 1.5 0
      vertex 84 0 0
    endloop
  endfacet
  facet normal 0 0 -1
    outer loop
      vertex 84 0 0
      vertex 81 91.5 0
      vertex 84 96 0
    endloop
  endfacet
  facet normal 0 0 -1
    outer loop
      vertex 3 91.5 0
      vertex 84 96 0
      vertex 81 91.5 0
    endloop
  endfacet
  facet normal 0 0 -1
    outer loop
      vertex 3 91.5 0
      vertex 0 96 0
      vertex 84 96 0
    endloop
  endfacet
  facet normal 0 0 -1
    outer loop
      vertex 0 96 0
      vertex 3 91.5 0
      vertex 0 0 0
    endloop
  endfacet
  facet normal 0 -1 0
    outer loop
      vertex 0 0 0
      vertex 84 0 6
      vertex 0 0 6
    endloop
  endfacet
  facet normal 0 -1 -0
    outer loop
      vertex 84 0 6
      vertex 0 0 0
      vertex 84 0 0
    endloop
  endfacet
  facet normal 0 1 -0
    outer loop
      vertex 84 96 0
      vertex 0 96 6
      vertex 84 96 6
    endloop
  endfacet
  facet normal 0 1 0
    outer loop
      vertex 0 96 6
      vertex 84 96 0
      vertex 0 96 0
    endloop
  endfacet
  facet normal 1 -0 0
    outer loop
      vertex 3 1.5 3
      vertex 3 91.5 0
      vertex 3 91.5 3
    endloop
  endfacet
  facet normal 1 0 0
    outer loop
      vertex 3 91.5 0
      vertex 3 1.5 3
      vertex 3 1.5 0
    endloop
  endfacet
  facet normal 0 0 -1
    outer loop
      vertex 81 1.5 3
      vertex 61 48 3
      vertex 81 91.5 3
    endloop
  endfacet
  facet normal 0 0 -1
    outer loop
      vertex 81 1.5 3
      vertex 60.5848 44.0497 3
      vertex 61 48 3
    endloop
  endfacet
  facet normal 0 0 -1
    outer loop
      vertex 81 1.5 3
      vertex 59.3574 40.272 3
      vertex 60.5848 44.0497 3
    endloop
  endfacet
  facet normal 0 0 -1
    outer loop
      vertex 81 1.5 3
      vertex 57.3713 36.8321 3
      vertex 59.3574 40.272 3
    endloop
  endfacet
  facet normal 0 0 -1
    outer loop
      vertex 81 1.5 3
      vertex 54.7135 33.8802 3
      vertex 57.3713 36.8321 3
    endloop
  endfacet
  facet normal 0 0 -1
    outer loop
      vertex 81 1.5 3
      vertex 51.5 31.5455 3
      vertex 54.7135 33.8802 3
    endloop
  endfacet
  facet normal 0 0 -1
    outer loop
      vertex 81 1.5 3
      vertex 47.8713 29.9299 3
      vertex 51.5 31.5455 3
    endloop
  endfacet
  facet normal 0 0 -1
    outer loop
      vertex 81 1.5 3
      vertex 43.986 29.1041 3
      vertex 47.8713 29.9299 3
    endloop
  endfacet
  facet normal 0 0 -1
    outer loop
      vertex 81 1.5 3
      vertex 40.014 29.1041 3
      vertex 43.986 29.1041 3
    endloop
  endfacet
  facet normal 0 0 -1
    outer loop
      vertex 3 1.5 3
      vertex 40.014 29.1041 3
      vertex 81 1.5 3
    endloop
  endfacet
  facet normal -0 0 -1
    outer loop
      vertex 40.014 29.1041 3
      vertex 3 1.5 3
      vertex 36.1287 29.9299 3
    endloop
  endfacet
  facet normal -0 0 -1
    outer loop
      vertex 23.4152 44.0497 3
      vertex 3 1.5 3
      vertex 23 48 3
    endloop
  endfacet
  facet normal -0 0 -1
    outer loop
      vertex 24.6426 40.272 3
      vertex 3 1.5 3
      vertex 23.4152 44.0497 3
    endloop
  endfacet
  facet normal -0 0 -1
    outer loop
      vertex 26.6287 36.8321 3
      vertex 3 1.5 3
      vertex 24.6426 40.272 3
    endloop
  endfacet
  facet normal -0 0 -1
    outer loop
      vertex 29.2865 33.8802 3
      vertex 3 1.5 3
      vertex 26.6287 36.8321 3
    endloop
  endfacet
  facet normal -0 0 -1
    outer loop
      vertex 32.5 31.5455 3
      vertex 3 1.5 3
      vertex 29.2865 33.8802 3
    endloop
  endfacet
  facet normal -0 0 -1
    outer loop
      vertex 36.1287 29.9299 3
      vertex 3 1.5 3
      vertex 32.5 31.5455 3
    endloop
  endfacet
  facet normal 0 0 -1
    outer loop
      vertex 60.5848 51.9503 3
      vertex 81 91.5 3
      vertex 61 48 3
    endloop
  endfacet
  facet normal 0 0 -1
    outer loop
      vertex 59.3574 55.728 3
      vertex 81 91.5 3
      vertex 60.5848 51.9503 3
    endloop
  endfacet
  facet normal 0 0 -1
    outer loop
      vertex 57.3713 59.1679 3
      vertex 81 91.5 3
      vertex 59.3574 55.728 3
    endloop
  endfacet
  facet normal 0 0 -1
    outer loop
      vertex 54.7135 62.1198 3
      vertex 81 91.5 3
      vertex 57.3713 59.1679 3
    endloop
  endfacet
  facet normal 0 0 -1
    outer loop
      vertex 51.5 64.4545 3
      vertex 81 91.5 3
      vertex 54.7135 62.1198 3
    endloop
  endfacet
  facet normal 0 0 -1
    outer loop
      vertex 47.8713 66.0701 3
      vertex 81 91.5 3
      vertex 51.5 64.4545 3
    endloop
  endfacet
  facet normal 0 0 -1
    outer loop
      vertex 43.986 66.8959 3
      vertex 81 91.5 3
      vertex 47.8713 66.0701 3
    endloop
  endfacet
  facet normal 0 0 -1
    outer loop
      vertex 40.014 66.8959 3
      vertex 81 91.5 3
      vertex 43.986 66.8959 3
    endloop
  endfacet
  facet normal 0 0 -1
    outer loop
      vertex 3 91.5 3
      vertex 40.014 66.8959 3
      vertex 36.1287 66.0701 3
    endloop
  endfacet
  facet normal 0 0 -1
    outer loop
      vertex 3 91.5 3
      vertex 36.1287 66.0701 3
      vertex 32.5 64.4545 3
    endloop
  endfacet
  facet normal 0 0 -1
    outer loop
      vertex 3 91.5 3
      vertex 23 48 3
      vertex 3 1.5 3
    endloop
  endfacet
  facet normal 0 0 -1
    outer loop
      vertex 23 48 3
      vertex 3 91.5 3
      vertex 23.4152 51.9503 3
    endloop
  endfacet
  facet normal 0 0 -1
    outer loop
      vertex 40.014 66.8959 3
      vertex 3 91.5 3
      vertex 81 91.5 3
    endloop
  endfacet
  facet normal 0 0 -1
    outer loop
      vertex 29.2865 62.1198 3
      vertex 3 91.5 3
      vertex 32.5 64.4545 3
    endloop
  endfacet
  facet normal 0 0 -1
    outer loop
      vertex 26.6287 59.1679 3
      vertex 3 91.5 3
      vertex 29.2865 62.1198 3
    endloop
  endfacet
  facet normal 0 0 -1
    outer loop
      vertex 24.6426 55.728 3
      vertex 3 91.5 3
      vertex 26.6287 59.1679 3
    endloop
  endfacet
  facet normal 0 0 -1
    outer loop
      vertex 23.4152 51.9503 3
      vertex 3 91.5 3
      vertex 24.6426 55.728 3
    endloop
  endfacet
  facet normal -1 0 0
    outer loop
      vertex 81 1.5 0
      vertex 81 91.5 3
      vertex 81 91.5 0
    endloop
  endfacet
  facet normal -1 -0 0
    outer loop
      vertex 81 91.5 3
      vertex 81 1.5 0
      vertex 81 1.5 3
    endloop
  endfacet
  facet normal 0 -1 0
    outer loop
      vertex 3 91.5 0
      vertex 81 91.5 3
      vertex 3 91.5 3
    endloop
  endfacet
  facet normal 0 -1 -0
    outer loop
      vertex 81 91.5 3
      vertex 3 91.5 0
      vertex 81 91.5 0
    endloop
  endfacet
  facet normal 0 1 -0
    outer loop
      vertex 81 1.5 0
      vertex 3 1.5 3
      vertex 81 1.5 3
    endloop
  endfacet
  facet normal 0 1 0
    outer loop
      vertex 3 1.5 3
      vertex 81 1.5 0
      vertex 3 1.5 0
    endloop
  endfacet
  facet normal -0.994522 -0.104528 0
    outer loop
      vertex 61 48 3
      vertex 60.5848 51.9503 6
      vertex 60.5848 51.9503 3
    endloop
  endfacet
  facet normal -0.994522 -0.104528 0
    outer loop
      vertex 60.5848 51.9503 6
      vertex 61 48 3
      vertex 61 48 6
    endloop
  endfacet
  facet normal 0 -1 0
    outer loop
      vertex 40.014 66.8959 3
      vertex 43.986 66.8959 6
      vertex 40.014 66.8959 6
    endloop
  endfacet
  facet normal 0 -1 -0
    outer loop
      vertex 43.986 66.8959 6
      vertex 40.014 66.8959 3
      vertex 43.986 66.8959 3
    endloop
  endfacet
  facet normal 0.587785 0.809017 -0
    outer loop
      vertex 32.5 31.5455 3
      vertex 29.2865 33.8802 6
      vertex 32.5 31.5455 6
    endloop
  endfacet
  facet normal 0.587785 0.809017 0
    outer loop
      vertex 29.2865 33.8802 6
      vertex 32.5 31.5455 3
      vertex 29.2865 33.8802 3
    endloop
  endfacet
  facet normal -0.587785 -0.809017 0
    outer loop
      vertex 51.5 64.4545 3
      vertex 54.7135 62.1198 6
      vertex 51.5 64.4545 6
    endloop
  endfacet
  facet normal -0.587785 -0.809017 -0
    outer loop
      vertex 54.7135 62.1198 6
      vertex 51.5 64.4545 3
      vertex 54.7135 62.1198 3
    endloop
  endfacet
  facet normal 0.743145 -0.669131 0
    outer loop
      vertex 26.6287 59.1679 6
      vertex 29.2865 62.1198 3
      vertex 29.2865 62.1198 6
    endloop
  endfacet
  facet normal 0.743145 -0.669131 0
    outer loop
      vertex 29.2865 62.1198 3
      vertex 26.6287 59.1679 6
      vertex 26.6287 59.1679 3
    endloop
  endfacet
  facet normal 0.406737 -0.913545 0
    outer loop
      vertex 32.5 64.4545 3
      vertex 36.1287 66.0701 6
      vertex 32.5 64.4545 6
    endloop
  endfacet
  facet normal 0.406737 -0.913545 0
    outer loop
      vertex 36.1287 66.0701 6
      vertex 32.5 64.4545 3
      vertex 36.1287 66.0701 3
    endloop
  endfacet
  facet normal -0.743145 0.669131 0
    outer loop
      vertex 54.7135 33.8802 3
      vertex 57.3713 36.8321 6
      vertex 57.3713 36.8321 3
    endloop
  endfacet
  facet normal -0.743145 0.669131 0
    outer loop
      vertex 57.3713 36.8321 6
      vertex 54.7135 33.8802 3
      vertex 54.7135 33.8802 6
    endloop
  endfacet
  facet normal -0.866026 -0.5 0
    outer loop
      vertex 59.3574 55.728 3
      vertex 57.3713 59.1679 6
      vertex 57.3713 59.1679 3
    endloop
  endfacet
  facet normal -0.866026 -0.5 0
    outer loop
      vertex 57.3713 59.1679 6
      vertex 59.3574 55.728 3
      vertex 59.3574 55.728 6
    endloop
  endfacet
  facet normal -0.951056 -0.309018 0
    outer loop
      vertex 60.5848 51.9503 3
      vertex 59.3574 55.728 6
      vertex 59.3574 55.728 3
    endloop
  endfacet
  facet normal -0.951056 -0.309018 0
    outer loop
      vertex 59.3574 55.728 6
      vertex 60.5848 51.9503 3
      vertex 60.5848 51.9503 6
    endloop
  endfacet
  facet normal -0.743145 -0.669131 0
    outer loop
      vertex 57.3713 59.1679 3
      vertex 54.7135 62.1198 6
      vertex 54.7135 62.1198 3
    endloop
  endfacet
  facet normal -0.743145 -0.669131 0
    outer loop
      vertex 54.7135 62.1198 6
      vertex 57.3713 59.1679 3
      vertex 57.3713 59.1679 6
    endloop
  endfacet
  facet normal -0.207912 -0.978148 0
    outer loop
      vertex 43.986 66.8959 3
      vertex 47.8713 66.0701 6
      vertex 43.986 66.8959 6
    endloop
  endfacet
  facet normal -0.207912 -0.978148 -0
    outer loop
      vertex 47.8713 66.0701 6
      vertex 43.986 66.8959 3
      vertex 47.8713 66.0701 3
    endloop
  endfacet
  facet normal -0.406737 -0.913545 0
    outer loop
      vertex 47.8713 66.0701 3
      vertex 51.5 64.4545 6
      vertex 47.8713 66.0701 6
    endloop
  endfacet
  facet normal -0.406737 -0.913545 -0
    outer loop
      vertex 51.5 64.4545 6
      vertex 47.8713 66.0701 3
      vertex 51.5 64.4545 3
    endloop
  endfacet
  facet normal 0.951057 -0.309017 0
    outer loop
      vertex 23.4152 51.9503 6
      vertex 24.6426 55.728 3
      vertex 24.6426 55.728 6
    endloop
  endfacet
  facet normal 0.951057 -0.309017 0
    outer loop
      vertex 24.6426 55.728 3
      vertex 23.4152 51.9503 6
      vertex 23.4152 51.9503 3
    endloop
  endfacet
  facet normal 0.866025 -0.5 0
    outer loop
      vertex 24.6426 55.728 6
      vertex 26.6287 59.1679 3
      vertex 26.6287 59.1679 6
    endloop
  endfacet
  facet normal 0.866025 -0.5 0
    outer loop
      vertex 26.6287 59.1679 3
      vertex 24.6426 55.728 6
      vertex 24.6426 55.728 3
    endloop
  endfacet
  facet normal 0.994522 -0.104528 0
    outer loop
      vertex 23 48 6
      vertex 23.4152 51.9503 3
      vertex 23.4152 51.9503 6
    endloop
  endfacet
  facet normal 0.994522 -0.104528 0
    outer loop
      vertex 23.4152 51.9503 3
      vertex 23 48 6
      vertex 23 48 3
    endloop
  endfacet
  facet normal 0.587785 -0.809017 0
    outer loop
      vertex 29.2865 62.1198 3
      vertex 32.5 64.4545 6
      vertex 29.2865 62.1198 6
    endloop
  endfacet
  facet normal 0.587785 -0.809017 0
    outer loop
      vertex 32.5 64.4545 6
      vertex 29.2865 62.1198 3
      vertex 32.5 64.4545 3
    endloop
  endfacet
  facet normal 0.207912 -0.978148 0
    outer loop
      vertex 36.1287 66.0701 3
      vertex 40.014 66.8959 6
      vertex 36.1287 66.0701 6
    endloop
  endfacet
  facet normal 0.207912 -0.978148 0
    outer loop
      vertex 40.014 66.8959 6
      vertex 36.1287 66.0701 3
      vertex 40.014 66.8959 3
    endloop
  endfacet
  facet normal -0.994522 0.104528 0
    outer loop
      vertex 60.5848 44.0497 3
      vertex 61 48 6
      vertex 61 48 3
    endloop
  endfacet
  facet normal -0.994522 0.104528 0
    outer loop
      vertex 61 48 6
      vertex 60.5848 44.0497 3
      vertex 60.5848 44.0497 6
    endloop
  endfacet
  facet normal -0.207911 0.978148 0
    outer loop
      vertex 47.8713 29.9299 3
      vertex 43.986 29.1041 6
      vertex 47.8713 29.9299 6
    endloop
  endfacet
  facet normal -0.207911 0.978148 0
    outer loop
      vertex 43.986 29.1041 6
      vertex 47.8713 29.9299 3
      vertex 43.986 29.1041 3
    endloop
  endfacet
  facet normal -0.587785 0.809017 0
    outer loop
      vertex 54.7135 33.8802 3
      vertex 51.5 31.5455 6
      vertex 54.7135 33.8802 6
    endloop
  endfacet
  facet normal -0.587785 0.809017 0
    outer loop
      vertex 51.5 31.5455 6
      vertex 54.7135 33.8802 3
      vertex 51.5 31.5455 3
    endloop
  endfacet
  facet normal 0.406737 0.913545 -0
    outer loop
      vertex 36.1287 29.9299 3
      vertex 32.5 31.5455 6
      vertex 36.1287 29.9299 6
    endloop
  endfacet
  facet normal 0.406737 0.913545 0
    outer loop
      vertex 32.5 31.5455 6
      vertex 36.1287 29.9299 3
      vertex 32.5 31.5455 3
    endloop
  endfacet
  facet normal 0 1 -0
    outer loop
      vertex 43.986 29.1041 3
      vertex 40.014 29.1041 6
      vertex 43.986 29.1041 6
    endloop
  endfacet
  facet normal 0 1 0
    outer loop
      vertex 40.014 29.1041 6
      vertex 43.986 29.1041 3
      vertex 40.014 29.1041 3
    endloop
  endfacet
  facet normal 0.743145 0.669131 0
    outer loop
      vertex 29.2865 33.8802 6
      vertex 26.6287 36.8321 3
      vertex 26.6287 36.8321 6
    endloop
  endfacet
  facet normal 0.743145 0.669131 0
    outer loop
      vertex 26.6287 36.8321 3
      vertex 29.2865 33.8802 6
      vertex 29.2865 33.8802 3
    endloop
  endfacet
  facet normal 0.951057 0.309017 0
    outer loop
      vertex 24.6426 40.272 6
      vertex 23.4152 44.0497 3
      vertex 23.4152 44.0497 6
    endloop
  endfacet
  facet normal 0.951057 0.309017 0
    outer loop
      vertex 23.4152 44.0497 3
      vertex 24.6426 40.272 6
      vertex 24.6426 40.272 3
    endloop
  endfacet
  facet normal 0.994522 0.104528 0
    outer loop
      vertex 23.4152 44.0497 6
      vertex 23 48 3
      vertex 23 48 6
    endloop
  endfacet
  facet normal 0.994522 0.104528 0
    outer loop
      vertex 23 48 3
      vertex 23.4152 44.0497 6
      vertex 23.4152 44.0497 3
    endloop
  endfacet
  facet normal -0.406737 0.913545 0
    outer loop
      vertex 51.5 31.5455 3
      vertex 47.8713 29.9299 6
      vertex 51.5 31.5455 6
    endloop
  endfacet
  facet normal -0.406737 0.913545 0
    outer loop
      vertex 47.8713 29.9299 6
      vertex 51.5 31.5455 3
      vertex 47.8713 29.9299 3
    endloop
  endfacet
  facet normal -0.951056 0.309018 0
    outer loop
      vertex 59.3574 40.272 3
      vertex 60.5848 44.0497 6
      vertex 60.5848 44.0497 3
    endloop
  endfacet
  facet normal -0.951056 0.309018 0
    outer loop
      vertex 60.5848 44.0497 6
      vertex 59.3574 40.272 3
      vertex 59.3574 40.272 6
    endloop
  endfacet
  facet normal -0.866026 0.5 0
    outer loop
      vertex 57.3713 36.8321 3
      vertex 59.3574 40.272 6
      vertex 59.3574 40.272 3
    endloop
  endfacet
  facet normal -0.866026 0.5 0
    outer loop
      vertex 59.3574 40.272 6
      vertex 57.3713 36.8321 3
      vertex 57.3713 36.8321 6
    endloop
  endfacet
  facet normal 0.207912 0.978148 -0
    outer loop
      vertex 40.014 29.1041 3
      vertex 36.1287 29.9299 6
      vertex 40.014 29.1041 6
    endloop
  endfacet
  facet normal 0.207912 0.978148 0
    outer loop
      vertex 36.1287 29.9299 6
      vertex 40.014 29.1041 3
      vertex 36.1287 29.9299 3
    endloop
  endfacet
  facet normal 0.866025 0.5 0
    outer loop
      vertex 26.6287 36.8321 6
      vertex 24.6426 40.272 3
      vertex 24.6426 40.272 6
    endloop
  endfacet
  facet normal 0.866025 0.5 0
    outer loop
      vertex 24.6426 40.272 3
      vertex 26.6287 36.8321 6
      vertex 26.6287 36.8321 3
    endloop
  endfacet
endsolid OpenSCAD_Model
