solid OpenSCAD_Model
  facet normal 1 0 0
    outer loop
      vertex 17 4.5 15
      vertex 17 0 15
      vertex 17 4.5 2
    endloop
  endfacet
  facet normal 1 -0 0
    outer loop
      vertex 17 4.5 2
      vertex 17 10 0
      vertex 17 10 2
    endloop
  endfacet
  facet normal 1 0 0
    outer loop
      vertex 17 4.5 2
      vertex 17 0 0
      vertex 17 10 0
    endloop
  endfacet
  facet normal 1 0 0
    outer loop
      vertex 17 0 0
      vertex 17 4.5 2
      vertex 17 0 15
    endloop
  endfacet
  facet normal -0 0 1
    outer loop
      vertex 0 4.5 15
      vertex 17 0 15
      vertex 17 4.5 15
    endloop
  endfacet
  facet normal 0 0 1
    outer loop
      vertex 17 0 15
      vertex 0 4.5 15
      vertex 0 0 15
    endloop
  endfacet
  facet normal 0 0 -1
    outer loop
      vertex 0 0 0
      vertex 17 10 0
      vertex 17 0 0
    endloop
  endfacet
  facet normal -0 0 -1
    outer loop
      vertex 17 10 0
      vertex 0 0 0
      vertex 0 10 0
    endloop
  endfacet
  facet normal -1 0 0
    outer loop
      vertex 0 10 0
      vertex 0 4.5 2
      vertex 0 10 2
    endloop
  endfacet
  facet normal -1 0 0
    outer loop
      vertex 0 0 0
      vertex 0 4.5 2
      vertex 0 10 0
    endloop
  endfacet
  facet normal -1 0 0
    outer loop
      vertex 0 0 15
      vertex 0 4.5 2
      vertex 0 0 0
    endloop
  endfacet
  facet normal -1 0 0
    outer loop
      vertex 0 4.5 2
      vertex 0 0 15
      vertex 0 4.5 15
    endloop
  endfacet
  facet normal 0 1 -0
    outer loop
      vertex 17 10 0
      vertex 0 10 2
      vertex 17 10 2
    endloop
  endfacet
  facet normal 0 1 0
    outer loop
      vertex 0 10 2
      vertex 17 10 0
      vertex 0 10 0
    endloop
  endfacet
  facet normal 0 -1 0
    outer loop
      vertex 0 0 0
      vertex 17 0 15
      vertex 0 0 15
    endloop
  endfacet
  facet normal 0 -1 -0
    outer loop
      vertex 17 0 15
      vertex 0 0 0
      vertex 17 0 0
    endloop
  endfacet
  facet normal -0 0 1
    outer loop
      vertex 0 10 2
      vertex 17 4.5 2
      vertex 17 10 2
    endloop
  endfacet
  facet normal 0 0 1
    outer loop
      vertex 17 4.5 2
      vertex 0 10 2
      vertex 0 4.5 2
    endloop
  endfacet
  facet normal 0 1 -0
    outer loop
      vertex 17 4.5 2
      vertex 0 4.5 15
      vertex 17 4.5 15
    endloop
  endfacet
  facet normal 0 1 0
    outer loop
      vertex 0 4.5 15
      vertex 17 4.5 2
      vertex 0 4.5 2
    endloop
  endfacet
endsolid OpenSCAD_Model
