<?xml version="1.0" encoding="UTF-8" standalone="no"?>
<!DOCTYPE svg PUBLIC "-//W3C//DTD SVG 20010904//EN"
              "http://www.w3.org/TR/2001/REC-SVG-20010904/DTD/svg10.dtd">

<svg xmlns="http://www.w3.org/2000/svg"
     width="5.30623in" height="5.05958in"
     viewBox="0 0 796 759">
  <path id="Selection"
        fill="none" stroke="black" stroke-width="1"
        d="M 398.00,0.00
           C 398.00,0.00 398.00,127.00 398.00,127.00
             398.02,138.06 402.16,138.76 411.00,144.67
             415.62,147.75 427.06,155.77 432.00,156.87
             432.00,156.87 441.00,156.87 441.00,156.87
             448.69,157.10 455.88,159.88 462.00,164.52
             466.81,168.17 471.26,173.25 477.00,175.44
             477.00,175.44 505.00,181.37 505.00,181.37
             515.15,183.92 516.87,186.42 523.00,188.07
             523.00,188.07 542.00,190.44 542.00,190.44
             542.00,190.44 559.00,194.54 559.00,194.54
             570.52,196.56 585.02,187.15 595.00,189.39
             604.79,191.59 609.00,205.44 621.00,204.29
             633.06,203.14 646.90,193.63 659.00,190.04
             668.56,187.20 672.50,187.93 682.00,188.96
             682.00,188.96 691.00,188.96 691.00,188.96
             701.96,189.85 708.72,193.51 718.00,198.77
             726.24,203.45 733.98,205.31 743.00,207.63
             746.78,208.60 753.80,210.30 756.26,213.39
             758.32,215.97 757.99,219.88 758.00,223.00
             758.00,223.00 758.00,261.00 758.00,261.00
             758.00,261.00 759.00,278.00 759.00,278.00
             759.02,291.62 758.44,308.09 763.09,321.00
             767.01,331.89 779.25,343.44 785.74,356.00
             789.59,363.45 792.32,370.53 793.10,379.00
             793.10,379.00 793.10,388.00 793.10,388.00
             793.10,388.00 796.00,411.00 796.00,411.00
             796.08,417.99 796.62,424.40 793.91,431.00
             791.37,437.18 787.58,440.07 783.44,445.00
             778.74,450.59 773.99,457.72 770.20,464.00
             766.57,470.01 760.08,484.56 754.96,488.03
             746.56,493.74 731.11,492.02 723.00,497.65
             709.81,506.81 704.53,530.97 689.00,542.22
             673.99,553.09 655.24,553.86 639.00,561.49
             621.39,569.76 617.95,581.89 605.00,592.68
             595.41,600.67 585.02,602.32 576.34,613.00
             570.15,620.61 569.05,632.02 565.13,641.00
             559.47,653.94 547.94,662.03 546.51,683.00
             545.52,697.62 557.91,720.53 563.86,734.00
             566.10,739.07 569.53,746.43 569.79,752.00
             570.11,758.98 565.45,759.00 560.00,759.00
             551.54,759.00 543.06,756.71 535.00,754.28
             518.61,749.35 496.24,740.85 481.00,733.25
             471.99,728.75 463.12,724.91 456.46,716.99
             442.14,699.94 441.74,674.36 432.11,654.00
             432.11,654.00 411.00,620.00 411.00,620.00
             396.88,596.52 377.90,565.01 359.83,545.00
             353.88,538.40 344.04,528.88 337.00,523.50
             337.00,523.50 326.00,515.68 326.00,515.68
             316.48,507.74 309.43,495.44 300.00,489.56
             292.49,484.88 279.72,483.90 271.00,484.00
             257.38,484.16 247.00,489.51 238.33,500.00
             225.13,515.97 220.57,535.96 195.00,533.91
             185.83,533.17 176.68,527.40 169.00,522.80
             169.00,522.80 134.00,500.85 134.00,500.85
             126.63,495.50 121.01,491.38 116.81,483.00
             109.49,468.41 111.58,452.20 107.64,440.00
             102.11,422.85 88.10,409.00 75.00,397.17
             75.00,397.17 19.00,350.00 19.00,350.00
             10.45,341.46 1.14,330.58 0.00,318.00
             0.00,318.00 201.00,318.00 201.00,318.00
             201.00,318.00 201.00,0.00 201.00,0.00
             201.00,0.00 398.00,0.00 398.00,0.00 Z" />
</svg>
