solid OpenSCAD_Model
  facet normal -0.999507 0.0314119 0
    outer loop
      vertex -10 12 -2
      vertex -9.98027 12.6279 2
      vertex -9.98027 12.6279 -2
    endloop
  endfacet
  facet normal -0.999507 0.0314119 0
    outer loop
      vertex -9.98027 12.6279 2
      vertex -10 12 -2
      vertex -10 12 2
    endloop
  endfacet
  facet normal 0.0314119 0.999507 -0
    outer loop
      vertex 0.627905 21.9803 -2
      vertex 0 22 2
      vertex 0.627905 21.9803 2
    endloop
  endfacet
  facet normal 0.0314119 0.999507 0
    outer loop
      vertex 0 22 2
      vertex 0.627905 21.9803 -2
      vertex 0 22 -2
    endloop
  endfacet
  facet normal -0.0314119 -0.999507 0
    outer loop
      vertex -0.627905 2.01973 -2
      vertex 0 2 2
      vertex -0.627905 2.01973 2
    endloop
  endfacet
  facet normal -0.0314119 -0.999507 -0
    outer loop
      vertex 0 2 2
      vertex -0.627905 2.01973 -2
      vertex 0 2 -2
    endloop
  endfacet
  facet normal -0.750112 -0.661311 0
    outer loop
      vertex -7.28969 5.15453 -2
      vertex -7.70513 5.62576 2
      vertex -7.70513 5.62576 -2
    endloop
  endfacet
  facet normal -0.750112 -0.661311 0
    outer loop
      vertex -7.70513 5.62576 2
      vertex -7.28969 5.15453 -2
      vertex -7.28969 5.15453 2
    endloop
  endfacet
  facet normal -0.661311 0.750112 0
    outer loop
      vertex -6.37424 19.7051 -2
      vertex -6.84547 19.2897 2
      vertex -6.37424 19.7051 2
    endloop
  endfacet
  facet normal -0.661311 0.750112 0
    outer loop
      vertex -6.84547 19.2897 2
      vertex -6.37424 19.7051 -2
      vertex -6.84547 19.2897 -2
    endloop
  endfacet
  facet normal -0.338739 0.94088 0
    outer loop
      vertex -3.09017 21.5106 -2
      vertex -3.68124 21.2978 2
      vertex -3.09017 21.5106 2
    endloop
  endfacet
  facet normal -0.338739 0.94088 0
    outer loop
      vertex -3.68124 21.2978 2
      vertex -3.09017 21.5106 -2
      vertex -3.68124 21.2978 -2
    endloop
  endfacet
  facet normal -0.827081 0.562082 0
    outer loop
      vertex -8.44328 17.3583 -2
      vertex -8.09017 17.8779 2
      vertex -8.09017 17.8779 -2
    endloop
  endfacet
  facet normal -0.827081 0.562082 0
    outer loop
      vertex -8.09017 17.8779 2
      vertex -8.44328 17.3583 -2
      vertex -8.44328 17.3583 2
    endloop
  endfacet
  facet normal -0.750112 0.661311 0
    outer loop
      vertex -7.70513 18.3742 -2
      vertex -7.28969 18.8455 2
      vertex -7.28969 18.8455 -2
    endloop
  endfacet
  facet normal -0.750112 0.661311 0
    outer loop
      vertex -7.28969 18.8455 2
      vertex -7.70513 18.3742 -2
      vertex -7.70513 18.3742 2
    endloop
  endfacet
  facet normal -0.156434 0.987688 0
    outer loop
      vertex -1.25333 21.9211 -2
      vertex -1.87381 21.8229 2
      vertex -1.25333 21.9211 2
    endloop
  endfacet
  facet normal -0.156434 0.987688 0
    outer loop
      vertex -1.87381 21.8229 2
      vertex -1.25333 21.9211 -2
      vertex -1.87381 21.8229 -2
    endloop
  endfacet
  facet normal -0.338738 -0.940881 0
    outer loop
      vertex -3.68124 2.70224 -2
      vertex -3.09017 2.48944 2
      vertex -3.68124 2.70224 2
    endloop
  endfacet
  facet normal -0.338738 -0.940881 -0
    outer loop
      vertex -3.09017 2.48944 2
      vertex -3.68124 2.70224 -2
      vertex -3.09017 2.48944 -2
    endloop
  endfacet
  facet normal -0.790154 -0.612909 0
    outer loop
      vertex -7.70513 5.62576 -2
      vertex -8.09017 6.12215 2
      vertex -8.09017 6.12215 -2
    endloop
  endfacet
  facet normal -0.790154 -0.612909 0
    outer loop
      vertex -8.09017 6.12215 2
      vertex -7.70513 5.62576 -2
      vertex -7.70513 5.62576 2
    endloop
  endfacet
  facet normal 0.156431 0.987689 -0
    outer loop
      vertex 1.51172 21.8802 -2
      vertex 1.25333 21.9211 2
      vertex 1.51172 21.8802 2
    endloop
  endfacet
  facet normal 0.156431 0.987689 0
    outer loop
      vertex 1.25333 21.9211 2
      vertex 1.51172 21.8802 -2
      vertex 1.25333 21.9211 -2
    endloop
  endfacet
  facet normal -0.960294 0.278991 0
    outer loop
      vertex -9.68583 14.4869 -2
      vertex -9.51056 15.0902 2
      vertex -9.51056 15.0902 -2
    endloop
  endfacet
  facet normal -0.960294 0.278991 0
    outer loop
      vertex -9.51056 15.0902 2
      vertex -9.68583 14.4869 -2
      vertex -9.68583 14.4869 2
    endloop
  endfacet
  facet normal -0.707107 0.707107 0
    outer loop
      vertex -7.28969 18.8455 -2
      vertex -6.84547 19.2897 2
      vertex -6.84547 19.2897 -2
    endloop
  endfacet
  facet normal -0.707107 0.707107 0
    outer loop
      vertex -6.84547 19.2897 2
      vertex -7.28969 18.8455 -2
      vertex -7.28969 18.8455 2
    endloop
  endfacet
  facet normal -0.860743 0.50904 0
    outer loop
      vertex -8.76307 16.8175 -2
      vertex -8.44328 17.3583 2
      vertex -8.44328 17.3583 -2
    endloop
  endfacet
  facet normal -0.860743 0.50904 0
    outer loop
      vertex -8.44328 17.3583 2
      vertex -8.76307 16.8175 -2
      vertex -8.76307 16.8175 2
    endloop
  endfacet
  facet normal -0.940881 0.338738 0
    outer loop
      vertex -9.51056 15.0902 -2
      vertex -9.29776 15.6812 2
      vertex -9.29776 15.6812 -2
    endloop
  endfacet
  facet normal -0.940881 0.338738 0
    outer loop
      vertex -9.29776 15.6812 2
      vertex -9.51056 15.0902 -2
      vertex -9.51056 15.0902 2
    endloop
  endfacet
  facet normal -0.987688 0.156434 0
    outer loop
      vertex -9.92115 13.2533 -2
      vertex -9.82287 13.8738 2
      vertex -9.82287 13.8738 -2
    endloop
  endfacet
  facet normal -0.987688 0.156434 0
    outer loop
      vertex -9.82287 13.8738 2
      vertex -9.92115 13.2533 -2
      vertex -9.92115 13.2533 2
    endloop
  endfacet
  facet normal -0.453993 0.891005 0
    outer loop
      vertex -4.25779 21.0483 -2
      vertex -4.81754 20.7631 2
      vertex -4.25779 21.0483 2
    endloop
  endfacet
  facet normal -0.453993 0.891005 0
    outer loop
      vertex -4.81754 20.7631 2
      vertex -4.25779 21.0483 -2
      vertex -4.81754 20.7631 -2
    endloop
  endfacet
  facet normal -0.50904 0.860743 0
    outer loop
      vertex -4.81754 20.7631 -2
      vertex -5.35827 20.4433 2
      vertex -4.81754 20.7631 2
    endloop
  endfacet
  facet normal -0.50904 0.860743 0
    outer loop
      vertex -5.35827 20.4433 2
      vertex -4.81754 20.7631 -2
      vertex -5.35827 20.4433 -2
    endloop
  endfacet
  facet normal -0.562083 0.827081 0
    outer loop
      vertex -5.35827 20.4433 -2
      vertex -5.87785 20.0902 2
      vertex -5.35827 20.4433 2
    endloop
  endfacet
  facet normal -0.562083 0.827081 0
    outer loop
      vertex -5.87785 20.0902 2
      vertex -5.35827 20.4433 -2
      vertex -5.87785 20.0902 -2
    endloop
  endfacet
  facet normal -0.278991 0.960294 0
    outer loop
      vertex -2.4869 21.6858 -2
      vertex -3.09017 21.5106 2
      vertex -2.4869 21.6858 2
    endloop
  endfacet
  facet normal -0.278991 0.960294 0
    outer loop
      vertex -3.09017 21.5106 2
      vertex -2.4869 21.6858 -2
      vertex -3.09017 21.5106 -2
    endloop
  endfacet
  facet normal -0.0941082 0.995562 0
    outer loop
      vertex -0.627905 21.9803 -2
      vertex -1.25333 21.9211 2
      vertex -0.627905 21.9803 2
    endloop
  endfacet
  facet normal -0.0941082 0.995562 0
    outer loop
      vertex -1.25333 21.9211 2
      vertex -0.627905 21.9803 -2
      vertex -1.25333 21.9211 -2
    endloop
  endfacet
  facet normal -0.278991 -0.960294 0
    outer loop
      vertex -3.09017 2.48944 -2
      vertex -2.4869 2.31417 2
      vertex -3.09017 2.48944 2
    endloop
  endfacet
  facet normal -0.278991 -0.960294 -0
    outer loop
      vertex -2.4869 2.31417 2
      vertex -3.09017 2.48944 -2
      vertex -2.4869 2.31417 -2
    endloop
  endfacet
  facet normal -0.707107 -0.707107 0
    outer loop
      vertex -6.84547 4.71031 -2
      vertex -7.28969 5.15453 2
      vertex -7.28969 5.15453 -2
    endloop
  endfacet
  facet normal -0.707107 -0.707107 0
    outer loop
      vertex -7.28969 5.15453 2
      vertex -6.84547 4.71031 -2
      vertex -6.84547 4.71031 2
    endloop
  endfacet
  facet normal -0.661311 -0.750112 0
    outer loop
      vertex -6.84547 4.71031 -2
      vertex -6.37424 4.29487 2
      vertex -6.84547 4.71031 2
    endloop
  endfacet
  facet normal -0.661311 -0.750112 -0
    outer loop
      vertex -6.37424 4.29487 2
      vertex -6.84547 4.71031 -2
      vertex -6.37424 4.29487 -2
    endloop
  endfacet
  facet normal -0.397148 -0.917755 0
    outer loop
      vertex -4.25779 2.95173 -2
      vertex -3.68124 2.70224 2
      vertex -4.25779 2.95173 2
    endloop
  endfacet
  facet normal -0.397148 -0.917755 -0
    outer loop
      vertex -3.68124 2.70224 2
      vertex -4.25779 2.95173 -2
      vertex -3.68124 2.70224 -2
    endloop
  endfacet
  facet normal -0.156434 -0.987688 0
    outer loop
      vertex -1.87381 2.17713 -2
      vertex -1.25333 2.07885 2
      vertex -1.87381 2.17713 2
    endloop
  endfacet
  facet normal -0.156434 -0.987688 -0
    outer loop
      vertex -1.25333 2.07885 2
      vertex -1.87381 2.17713 -2
      vertex -1.25333 2.07885 -2
    endloop
  endfacet
  facet normal -0.860742 -0.509042 0
    outer loop
      vertex -8.44328 6.64173 -2
      vertex -8.76307 7.18246 2
      vertex -8.76307 7.18246 -2
    endloop
  endfacet
  facet normal -0.860742 -0.509042 0
    outer loop
      vertex -8.76307 7.18246 2
      vertex -8.44328 6.64173 -2
      vertex -8.44328 6.64173 2
    endloop
  endfacet
  facet normal -0.827081 -0.562082 0
    outer loop
      vertex -8.09017 6.12215 -2
      vertex -8.44328 6.64173 2
      vertex -8.44328 6.64173 -2
    endloop
  endfacet
  facet normal -0.827081 -0.562082 0
    outer loop
      vertex -8.44328 6.64173 2
      vertex -8.09017 6.12215 -2
      vertex -8.09017 6.12215 2
    endloop
  endfacet
  facet normal -0.940881 -0.338738 0
    outer loop
      vertex -9.29776 8.31876 -2
      vertex -9.51056 8.90983 2
      vertex -9.51056 8.90983 -2
    endloop
  endfacet
  facet normal -0.940881 -0.338738 0
    outer loop
      vertex -9.51056 8.90983 2
      vertex -9.29776 8.31876 -2
      vertex -9.29776 8.31876 2
    endloop
  endfacet
  facet normal 0 0 -1
    outer loop
      vertex 1.25333 2.07885 -2
      vertex 1.47329 2.1459 -2
      vertex 1.51172 2.11978 -2
    endloop
  endfacet
  facet normal 0 0 -1
    outer loop
      vertex 1.25333 2.07885 -2
      vertex 1.17546 2.37692 -2
      vertex 1.47329 2.1459 -2
    endloop
  endfacet
  facet normal 0 0 -1
    outer loop
      vertex 0.627905 2.01973 -2
      vertex 1.17546 2.37692 -2
      vertex 1.25333 2.07885 -2
    endloop
  endfacet
  facet normal -0 0 -1
    outer loop
      vertex 1.17546 2.37692 -2
      vertex 0.627905 2.01973 -2
      vertex 0.892717 2.62619 -2
    endloop
  endfacet
  facet normal 0 0 -1
    outer loop
      vertex 0.627905 2.01973 -2
      vertex 0.626187 2.89272 -2
      vertex 0.892717 2.62619 -2
    endloop
  endfacet
  facet normal 0 0 -1
    outer loop
      vertex 0 2 -2
      vertex 0.626187 2.89272 -2
      vertex 0.627905 2.01973 -2
    endloop
  endfacet
  facet normal -0 0 -1
    outer loop
      vertex 0.626187 2.89272 -2
      vertex 0 2 -2
      vertex 0.37692 3.17546 -2
    endloop
  endfacet
  facet normal 0 0 -1
    outer loop
      vertex -0.627905 2.01973 -2
      vertex 0.37692 3.17546 -2
      vertex 0 2 -2
    endloop
  endfacet
  facet normal -0 0 -1
    outer loop
      vertex 0.37692 3.17546 -2
      vertex -0.627905 2.01973 -2
      vertex 0.145898 3.47329 -2
    endloop
  endfacet
  facet normal -0 0 -1
    outer loop
      vertex 0.145898 3.47329 -2
      vertex -0.627905 2.01973 -2
      vertex -0.0659666 3.78504 -2
    endloop
  endfacet
  facet normal 0 0 -1
    outer loop
      vertex -1.25333 2.07885 -2
      vertex -0.0659666 3.78504 -2
      vertex -0.627905 2.01973 -2
    endloop
  endfacet
  facet normal -0 0 -1
    outer loop
      vertex -0.0659666 3.78504 -2
      vertex -1.25333 2.07885 -2
      vertex -0.257839 4.10948 -2
    endloop
  endfacet
  facet normal 0 0 -1
    outer loop
      vertex -1.87381 2.17713 -2
      vertex -0.257839 4.10948 -2
      vertex -1.25333 2.07885 -2
    endloop
  endfacet
  facet normal -0 0 -1
    outer loop
      vertex -0.257839 4.10948 -2
      vertex -1.87381 2.17713 -2
      vertex -0.428962 4.44532 -2
    endloop
  endfacet
  facet normal 0 0 -1
    outer loop
      vertex -2.4869 2.31417 -2
      vertex -0.428962 4.44532 -2
      vertex -1.87381 2.17713 -2
    endloop
  endfacet
  facet normal -0 0 -1
    outer loop
      vertex -0.428962 4.44532 -2
      vertex -2.4869 2.31417 -2
      vertex -0.578658 4.79125 -2
    endloop
  endfacet
  facet normal 0 0 -1
    outer loop
      vertex -3.09017 2.48944 -2
      vertex -0.578658 4.79125 -2
      vertex -2.4869 2.31417 -2
    endloop
  endfacet
  facet normal -0 0 -1
    outer loop
      vertex -0.578658 4.79125 -2
      vertex -3.09017 2.48944 -2
      vertex -0.706339 5.1459 -2
    endloop
  endfacet
  facet normal 0 0 -1
    outer loop
      vertex -4.25779 2.95173 -2
      vertex -0.811499 5.50786 -2
      vertex -3.68124 2.70224 -2
    endloop
  endfacet
  facet normal -0 0 -1
    outer loop
      vertex -0.706339 5.1459 -2
      vertex -3.68124 2.70224 -2
      vertex -0.811499 5.50786 -2
    endloop
  endfacet
  facet normal 0 0 -1
    outer loop
      vertex -3.68124 2.70224 -2
      vertex -0.706339 5.1459 -2
      vertex -3.09017 2.48944 -2
    endloop
  endfacet
  facet normal 0 0 -1
    outer loop
      vertex 1.47329 11.8541 -2
      vertex 1.47329 12.1459 -2
      vertex 1.68797 12 -2
    endloop
  endfacet
  facet normal 0 0 -1
    outer loop
      vertex 1.17546 11.6231 -2
      vertex 1.47329 12.1459 -2
      vertex 1.47329 11.8541 -2
    endloop
  endfacet
  facet normal 0 0 -1
    outer loop
      vertex 1.17546 11.6231 -2
      vertex 1.17546 12.3769 -2
      vertex 1.47329 12.1459 -2
    endloop
  endfacet
  facet normal 0 0 -1
    outer loop
      vertex 0.892717 11.3738 -2
      vertex 1.17546 12.3769 -2
      vertex 1.17546 11.6231 -2
    endloop
  endfacet
  facet normal 0 0 -1
    outer loop
      vertex 0.892717 11.3738 -2
      vertex 0.892717 12.6262 -2
      vertex 1.17546 12.3769 -2
    endloop
  endfacet
  facet normal 0 0 -1
    outer loop
      vertex 0.626187 11.1073 -2
      vertex 0.892717 12.6262 -2
      vertex 0.892717 11.3738 -2
    endloop
  endfacet
  facet normal 0 0 -1
    outer loop
      vertex 0.626187 11.1073 -2
      vertex 0.626187 12.8927 -2
      vertex 0.892717 12.6262 -2
    endloop
  endfacet
  facet normal 0 0 -1
    outer loop
      vertex 0.37692 10.8245 -2
      vertex 0.626187 12.8927 -2
      vertex 0.626187 11.1073 -2
    endloop
  endfacet
  facet normal 0 0 -1
    outer loop
      vertex 0.37692 10.8245 -2
      vertex 0.37692 13.1755 -2
      vertex 0.626187 12.8927 -2
    endloop
  endfacet
  facet normal 0 0 -1
    outer loop
      vertex 0.145898 10.5267 -2
      vertex 0.37692 13.1755 -2
      vertex 0.37692 10.8245 -2
    endloop
  endfacet
  facet normal 0 0 -1
    outer loop
      vertex 0.145898 10.5267 -2
      vertex 0.145898 13.4733 -2
      vertex 0.37692 13.1755 -2
    endloop
  endfacet
  facet normal 0 0 -1
    outer loop
      vertex -0.0659666 10.215 -2
      vertex 0.145898 13.4733 -2
      vertex 0.145898 10.5267 -2
    endloop
  endfacet
  facet normal 0 0 -1
    outer loop
      vertex -0.0659666 10.215 -2
      vertex -0.0659666 13.785 -2
      vertex 0.145898 13.4733 -2
    endloop
  endfacet
  facet normal 0 0 -1
    outer loop
      vertex -0.257839 9.89052 -2
      vertex -0.0659666 13.785 -2
      vertex -0.0659666 10.215 -2
    endloop
  endfacet
  facet normal 0 0 -1
    outer loop
      vertex -0.257839 9.89052 -2
      vertex -0.257839 14.1095 -2
      vertex -0.0659666 13.785 -2
    endloop
  endfacet
  facet normal 0 0 -1
    outer loop
      vertex -0.428962 9.55468 -2
      vertex -0.257839 14.1095 -2
      vertex -0.257839 9.89052 -2
    endloop
  endfacet
  facet normal 0 0 -1
    outer loop
      vertex -0.428962 9.55468 -2
      vertex -0.428962 14.4453 -2
      vertex -0.257839 14.1095 -2
    endloop
  endfacet
  facet normal 0 0 -1
    outer loop
      vertex -0.578658 9.20875 -2
      vertex -0.428962 14.4453 -2
      vertex -0.428962 9.55468 -2
    endloop
  endfacet
  facet normal 0 0 -1
    outer loop
      vertex -0.578658 9.20875 -2
      vertex -0.578658 14.7913 -2
      vertex -0.428962 14.4453 -2
    endloop
  endfacet
  facet normal 0 0 -1
    outer loop
      vertex -0.706339 8.8541 -2
      vertex -0.578658 14.7913 -2
      vertex -0.578658 9.20875 -2
    endloop
  endfacet
  facet normal 0 0 -1
    outer loop
      vertex -0.706339 8.8541 -2
      vertex -0.706339 15.1459 -2
      vertex -0.578658 14.7913 -2
    endloop
  endfacet
  facet normal 0 0 -1
    outer loop
      vertex -0.811499 8.49214 -2
      vertex -0.706339 15.1459 -2
      vertex -0.706339 8.8541 -2
    endloop
  endfacet
  facet normal 0 0 -1
    outer loop
      vertex -0.811499 8.49214 -2
      vertex -0.811499 15.5079 -2
      vertex -0.706339 15.1459 -2
    endloop
  endfacet
  facet normal 0 0 -1
    outer loop
      vertex -0.893723 8.12429 -2
      vertex -0.811499 15.5079 -2
      vertex -0.811499 8.49214 -2
    endloop
  endfacet
  facet normal 0 0 -1
    outer loop
      vertex -0.893723 8.12429 -2
      vertex -0.893723 15.8757 -2
      vertex -0.811499 15.5079 -2
    endloop
  endfacet
  facet normal 0 0 -1
    outer loop
      vertex -0.952687 7.752 -2
      vertex -0.893723 15.8757 -2
      vertex -0.893723 8.12429 -2
    endloop
  endfacet
  facet normal 0 0 -1
    outer loop
      vertex -0.952687 7.752 -2
      vertex -0.952687 16.248 -2
      vertex -0.893723 15.8757 -2
    endloop
  endfacet
  facet normal 0 0 -1
    outer loop
      vertex -0.98816 7.37674 -2
      vertex -0.952687 16.248 -2
      vertex -0.952687 7.752 -2
    endloop
  endfacet
  facet normal 0 0 -1
    outer loop
      vertex -0.98816 7.37674 -2
      vertex -0.98816 16.6233 -2
      vertex -0.952687 16.248 -2
    endloop
  endfacet
  facet normal 0 0 -1
    outer loop
      vertex -1 7 -2
      vertex -0.98816 16.6233 -2
      vertex -0.98816 7.37674 -2
    endloop
  endfacet
  facet normal -0 0 -1
    outer loop
      vertex -0.98816 16.6233 -2
      vertex -1 7 -2
      vertex -1 17 -2
    endloop
  endfacet
  facet normal 0 0 -1
    outer loop
      vertex 1.47329 21.8541 -2
      vertex 1.25333 21.9211 -2
      vertex 1.51172 21.8802 -2
    endloop
  endfacet
  facet normal 0 0 -1
    outer loop
      vertex 1.17546 21.6231 -2
      vertex 1.25333 21.9211 -2
      vertex 1.47329 21.8541 -2
    endloop
  endfacet
  facet normal 0 0 -1
    outer loop
      vertex 0.627905 21.9803 -2
      vertex 1.17546 21.6231 -2
      vertex 0.892717 21.3738 -2
    endloop
  endfacet
  facet normal 0 0 -1
    outer loop
      vertex 1.17546 21.6231 -2
      vertex 0.627905 21.9803 -2
      vertex 1.25333 21.9211 -2
    endloop
  endfacet
  facet normal 0 0 -1
    outer loop
      vertex 0.626187 21.1073 -2
      vertex 0.627905 21.9803 -2
      vertex 0.892717 21.3738 -2
    endloop
  endfacet
  facet normal 0 0 -1
    outer loop
      vertex 0 22 -2
      vertex 0.626187 21.1073 -2
      vertex 0.37692 20.8245 -2
    endloop
  endfacet
  facet normal 0 0 -1
    outer loop
      vertex -0.627905 21.9803 -2
      vertex 0.37692 20.8245 -2
      vertex 0.145898 20.5267 -2
    endloop
  endfacet
  facet normal 0 0 -1
    outer loop
      vertex 0.626187 21.1073 -2
      vertex 0 22 -2
      vertex 0.627905 21.9803 -2
    endloop
  endfacet
  facet normal 0 0 -1
    outer loop
      vertex -0.627905 21.9803 -2
      vertex 0.145898 20.5267 -2
      vertex -0.0659666 20.215 -2
    endloop
  endfacet
  facet normal 0 0 -1
    outer loop
      vertex -1.25333 21.9211 -2
      vertex -0.0659666 20.215 -2
      vertex -0.257839 19.8905 -2
    endloop
  endfacet
  facet normal 0 0 -1
    outer loop
      vertex -1.87381 21.8229 -2
      vertex -0.257839 19.8905 -2
      vertex -0.428962 19.5547 -2
    endloop
  endfacet
  facet normal 0 0 -1
    outer loop
      vertex -2.4869 21.6858 -2
      vertex -0.428962 19.5547 -2
      vertex -0.578658 19.2087 -2
    endloop
  endfacet
  facet normal 0 0 -1
    outer loop
      vertex 0.37692 20.8245 -2
      vertex -0.627905 21.9803 -2
      vertex 0 22 -2
    endloop
  endfacet
  facet normal 0 0 -1
    outer loop
      vertex -3.09017 21.5106 -2
      vertex -0.578658 19.2087 -2
      vertex -0.706339 18.8541 -2
    endloop
  endfacet
  facet normal 0 0 -1
    outer loop
      vertex -3.68124 21.2978 -2
      vertex -0.706339 18.8541 -2
      vertex -0.811499 18.4921 -2
    endloop
  endfacet
  facet normal 0 0 -1
    outer loop
      vertex -4.25779 21.0483 -2
      vertex -0.811499 18.4921 -2
      vertex -0.893723 18.1243 -2
    endloop
  endfacet
  facet normal 0 0 -1
    outer loop
      vertex -4.81754 20.7631 -2
      vertex -0.893723 18.1243 -2
      vertex -0.952687 17.752 -2
    endloop
  endfacet
  facet normal 0 0 -1
    outer loop
      vertex -5.35827 20.4433 -2
      vertex -0.952687 17.752 -2
      vertex -0.98816 17.3767 -2
    endloop
  endfacet
  facet normal 0 0 -1
    outer loop
      vertex -0.0659666 20.215 -2
      vertex -1.25333 21.9211 -2
      vertex -0.627905 21.9803 -2
    endloop
  endfacet
  facet normal 0 0 -1
    outer loop
      vertex -6.37424 19.7051 -2
      vertex -0.98816 17.3767 -2
      vertex -1 17 -2
    endloop
  endfacet
  facet normal -0 0 -1
    outer loop
      vertex -0.811499 5.50786 -2
      vertex -4.25779 2.95173 -2
      vertex -0.893723 5.87571 -2
    endloop
  endfacet
  facet normal 0 0 -1
    outer loop
      vertex -4.81754 3.23693 -2
      vertex -0.893723 5.87571 -2
      vertex -4.25779 2.95173 -2
    endloop
  endfacet
  facet normal 0 0 -1
    outer loop
      vertex -0.257839 19.8905 -2
      vertex -1.87381 21.8229 -2
      vertex -1.25333 21.9211 -2
    endloop
  endfacet
  facet normal -0 0 -1
    outer loop
      vertex -0.893723 5.87571 -2
      vertex -4.81754 3.23693 -2
      vertex -0.952687 6.248 -2
    endloop
  endfacet
  facet normal 0 0 -1
    outer loop
      vertex -0.428962 19.5547 -2
      vertex -2.4869 21.6858 -2
      vertex -1.87381 21.8229 -2
    endloop
  endfacet
  facet normal 0 0 -1
    outer loop
      vertex -5.35827 3.55672 -2
      vertex -0.952687 6.248 -2
      vertex -4.81754 3.23693 -2
    endloop
  endfacet
  facet normal 0 0 -1
    outer loop
      vertex -0.578658 19.2087 -2
      vertex -3.09017 21.5106 -2
      vertex -2.4869 21.6858 -2
    endloop
  endfacet
  facet normal -0 0 -1
    outer loop
      vertex -0.952687 6.248 -2
      vertex -5.35827 3.55672 -2
      vertex -0.98816 6.62326 -2
    endloop
  endfacet
  facet normal 0 0 -1
    outer loop
      vertex -0.706339 18.8541 -2
      vertex -3.68124 21.2978 -2
      vertex -3.09017 21.5106 -2
    endloop
  endfacet
  facet normal 0 0 -1
    outer loop
      vertex -5.87785 3.90983 -2
      vertex -0.98816 6.62326 -2
      vertex -5.35827 3.55672 -2
    endloop
  endfacet
  facet normal 0 0 -1
    outer loop
      vertex -0.811499 18.4921 -2
      vertex -4.25779 21.0483 -2
      vertex -3.68124 21.2978 -2
    endloop
  endfacet
  facet normal 0 0 -1
    outer loop
      vertex -6.37424 4.29487 -2
      vertex -0.98816 6.62326 -2
      vertex -5.87785 3.90983 -2
    endloop
  endfacet
  facet normal 0 0 -1
    outer loop
      vertex -0.893723 18.1243 -2
      vertex -4.81754 20.7631 -2
      vertex -4.25779 21.0483 -2
    endloop
  endfacet
  facet normal -0 0 -1
    outer loop
      vertex -0.98816 6.62326 -2
      vertex -6.37424 4.29487 -2
      vertex -1 7 -2
    endloop
  endfacet
  facet normal 0 0 -1
    outer loop
      vertex -0.952687 17.752 -2
      vertex -5.35827 20.4433 -2
      vertex -4.81754 20.7631 -2
    endloop
  endfacet
  facet normal 0 0 -1
    outer loop
      vertex -6.84547 4.71031 -2
      vertex -1 7 -2
      vertex -6.37424 4.29487 -2
    endloop
  endfacet
  facet normal 0 0 -1
    outer loop
      vertex -0.98816 17.3767 -2
      vertex -5.87785 20.0902 -2
      vertex -5.35827 20.4433 -2
    endloop
  endfacet
  facet normal 0 0 -1
    outer loop
      vertex -7.28969 5.15453 -2
      vertex -1 7 -2
      vertex -6.84547 4.71031 -2
    endloop
  endfacet
  facet normal 0 0 -1
    outer loop
      vertex -0.98816 17.3767 -2
      vertex -6.37424 19.7051 -2
      vertex -5.87785 20.0902 -2
    endloop
  endfacet
  facet normal 0 0 -1
    outer loop
      vertex -7.70513 5.62576 -2
      vertex -1 7 -2
      vertex -7.28969 5.15453 -2
    endloop
  endfacet
  facet normal 0 0 -1
    outer loop
      vertex -1 17 -2
      vertex -6.84547 19.2897 -2
      vertex -6.37424 19.7051 -2
    endloop
  endfacet
  facet normal 0 0 -1
    outer loop
      vertex -8.09017 6.12215 -2
      vertex -1 7 -2
      vertex -7.70513 5.62576 -2
    endloop
  endfacet
  facet normal 0 0 -1
    outer loop
      vertex -1 17 -2
      vertex -7.28969 18.8455 -2
      vertex -6.84547 19.2897 -2
    endloop
  endfacet
  facet normal 0 0 -1
    outer loop
      vertex -8.44328 6.64173 -2
      vertex -1 7 -2
      vertex -8.09017 6.12215 -2
    endloop
  endfacet
  facet normal 0 0 -1
    outer loop
      vertex -1 17 -2
      vertex -7.70513 18.3742 -2
      vertex -7.28969 18.8455 -2
    endloop
  endfacet
  facet normal 0 0 -1
    outer loop
      vertex -8.76307 7.18246 -2
      vertex -1 7 -2
      vertex -8.44328 6.64173 -2
    endloop
  endfacet
  facet normal 0 0 -1
    outer loop
      vertex -1 17 -2
      vertex -8.09017 17.8779 -2
      vertex -7.70513 18.3742 -2
    endloop
  endfacet
  facet normal 0 0 -1
    outer loop
      vertex -9.04827 7.74221 -2
      vertex -1 7 -2
      vertex -8.76307 7.18246 -2
    endloop
  endfacet
  facet normal 0 0 -1
    outer loop
      vertex -1 17 -2
      vertex -8.44328 17.3583 -2
      vertex -8.09017 17.8779 -2
    endloop
  endfacet
  facet normal 0 0 -1
    outer loop
      vertex -9.29776 8.31876 -2
      vertex -1 7 -2
      vertex -9.04827 7.74221 -2
    endloop
  endfacet
  facet normal -0 0 -1
    outer loop
      vertex -1 17 -2
      vertex -8.76307 16.8175 -2
      vertex -8.44328 17.3583 -2
    endloop
  endfacet
  facet normal 0 0 -1
    outer loop
      vertex -9.51056 8.90983 -2
      vertex -1 7 -2
      vertex -9.29776 8.31876 -2
    endloop
  endfacet
  facet normal 0 0 -1
    outer loop
      vertex -1 17 -2
      vertex -9.04827 16.2578 -2
      vertex -8.76307 16.8175 -2
    endloop
  endfacet
  facet normal 0 0 -1
    outer loop
      vertex -9.68583 9.5131 -2
      vertex -1 7 -2
      vertex -9.51056 8.90983 -2
    endloop
  endfacet
  facet normal 0 0 -1
    outer loop
      vertex -1 17 -2
      vertex -9.29776 15.6812 -2
      vertex -9.04827 16.2578 -2
    endloop
  endfacet
  facet normal 0 0 -1
    outer loop
      vertex -9.82287 10.1262 -2
      vertex -1 7 -2
      vertex -9.68583 9.5131 -2
    endloop
  endfacet
  facet normal 0 0 -1
    outer loop
      vertex -1 17 -2
      vertex -9.51056 15.0902 -2
      vertex -9.29776 15.6812 -2
    endloop
  endfacet
  facet normal 0 0 -1
    outer loop
      vertex -9.92115 10.7467 -2
      vertex -1 7 -2
      vertex -9.82287 10.1262 -2
    endloop
  endfacet
  facet normal 0 0 -1
    outer loop
      vertex -1 17 -2
      vertex -9.68583 14.4869 -2
      vertex -9.51056 15.0902 -2
    endloop
  endfacet
  facet normal 0 0 -1
    outer loop
      vertex -9.98027 11.3721 -2
      vertex -1 7 -2
      vertex -9.92115 10.7467 -2
    endloop
  endfacet
  facet normal 0 0 -1
    outer loop
      vertex -1 17 -2
      vertex -9.82287 13.8738 -2
      vertex -9.68583 14.4869 -2
    endloop
  endfacet
  facet normal 0 0 -1
    outer loop
      vertex -10 12 -2
      vertex -1 7 -2
      vertex -9.98027 11.3721 -2
    endloop
  endfacet
  facet normal 0 0 -1
    outer loop
      vertex -1 17 -2
      vertex -9.92115 13.2533 -2
      vertex -9.82287 13.8738 -2
    endloop
  endfacet
  facet normal 0 0 -1
    outer loop
      vertex -1 7 -2
      vertex -10 12 -2
      vertex -1 17 -2
    endloop
  endfacet
  facet normal 0 0 -1
    outer loop
      vertex -1 17 -2
      vertex -9.98027 12.6279 -2
      vertex -9.92115 13.2533 -2
    endloop
  endfacet
  facet normal 0 0 -1
    outer loop
      vertex -1 17 -2
      vertex -10 12 -2
      vertex -9.98027 12.6279 -2
    endloop
  endfacet
  facet normal 0.0941082 0.995562 -0
    outer loop
      vertex 1.25333 21.9211 -2
      vertex 0.627905 21.9803 2
      vertex 1.25333 21.9211 2
    endloop
  endfacet
  facet normal 0.0941082 0.995562 0
    outer loop
      vertex 0.627905 21.9803 2
      vertex 1.25333 21.9211 -2
      vertex 0.627905 21.9803 -2
    endloop
  endfacet
  facet normal -0.917755 0.397147 0
    outer loop
      vertex -9.29776 15.6812 -2
      vertex -9.04827 16.2578 2
      vertex -9.04827 16.2578 -2
    endloop
  endfacet
  facet normal -0.917755 0.397147 0
    outer loop
      vertex -9.04827 16.2578 2
      vertex -9.29776 15.6812 -2
      vertex -9.29776 15.6812 2
    endloop
  endfacet
  facet normal -0.975917 0.218144 0
    outer loop
      vertex -9.82287 13.8738 -2
      vertex -9.68583 14.4869 2
      vertex -9.68583 14.4869 -2
    endloop
  endfacet
  facet normal -0.975917 0.218144 0
    outer loop
      vertex -9.68583 14.4869 2
      vertex -9.82287 13.8738 -2
      vertex -9.82287 13.8738 2
    endloop
  endfacet
  facet normal -0.995562 0.0941082 0
    outer loop
      vertex -9.98027 12.6279 -2
      vertex -9.92115 13.2533 2
      vertex -9.92115 13.2533 -2
    endloop
  endfacet
  facet normal -0.995562 0.0941082 0
    outer loop
      vertex -9.92115 13.2533 2
      vertex -9.98027 12.6279 -2
      vertex -9.98027 12.6279 2
    endloop
  endfacet
  facet normal 0 0 1
    outer loop
      vertex 1.25333 21.9211 2
      vertex 1.47329 21.8541 2
      vertex 1.51172 21.8802 2
    endloop
  endfacet
  facet normal 0 0 1
    outer loop
      vertex 1.25333 21.9211 2
      vertex 1.17546 21.6231 2
      vertex 1.47329 21.8541 2
    endloop
  endfacet
  facet normal 0 0 1
    outer loop
      vertex 0.627905 21.9803 2
      vertex 1.17546 21.6231 2
      vertex 1.25333 21.9211 2
    endloop
  endfacet
  facet normal 0 0 1
    outer loop
      vertex 1.17546 21.6231 2
      vertex 0.627905 21.9803 2
      vertex 0.892717 21.3738 2
    endloop
  endfacet
  facet normal 0 0 1
    outer loop
      vertex 0.627905 21.9803 2
      vertex 0.626187 21.1073 2
      vertex 0.892717 21.3738 2
    endloop
  endfacet
  facet normal 0 0 1
    outer loop
      vertex 0 22 2
      vertex 0.626187 21.1073 2
      vertex 0.627905 21.9803 2
    endloop
  endfacet
  facet normal 0 0 1
    outer loop
      vertex 0.626187 21.1073 2
      vertex 0 22 2
      vertex 0.37692 20.8245 2
    endloop
  endfacet
  facet normal -0 0 1
    outer loop
      vertex -0.627905 21.9803 2
      vertex 0.37692 20.8245 2
      vertex 0 22 2
    endloop
  endfacet
  facet normal 0 0 1
    outer loop
      vertex 0.37692 20.8245 2
      vertex -0.627905 21.9803 2
      vertex 0.145898 20.5267 2
    endloop
  endfacet
  facet normal 0 0 1
    outer loop
      vertex 0.145898 20.5267 2
      vertex -0.627905 21.9803 2
      vertex -0.0659666 20.215 2
    endloop
  endfacet
  facet normal -0 0 1
    outer loop
      vertex -1.25333 21.9211 2
      vertex -0.0659666 20.215 2
      vertex -0.627905 21.9803 2
    endloop
  endfacet
  facet normal 0 0 1
    outer loop
      vertex -0.0659666 20.215 2
      vertex -1.25333 21.9211 2
      vertex -0.257839 19.8905 2
    endloop
  endfacet
  facet normal -0 0 1
    outer loop
      vertex -1.87381 21.8229 2
      vertex -0.257839 19.8905 2
      vertex -1.25333 21.9211 2
    endloop
  endfacet
  facet normal 0 0 1
    outer loop
      vertex -0.257839 19.8905 2
      vertex -1.87381 21.8229 2
      vertex -0.428962 19.5547 2
    endloop
  endfacet
  facet normal -0 0 1
    outer loop
      vertex -2.4869 21.6858 2
      vertex -0.428962 19.5547 2
      vertex -1.87381 21.8229 2
    endloop
  endfacet
  facet normal 0 0 1
    outer loop
      vertex -0.428962 19.5547 2
      vertex -2.4869 21.6858 2
      vertex -0.578658 19.2087 2
    endloop
  endfacet
  facet normal -0 0 1
    outer loop
      vertex -3.09017 21.5106 2
      vertex -0.578658 19.2087 2
      vertex -2.4869 21.6858 2
    endloop
  endfacet
  facet normal 0 0 1
    outer loop
      vertex -0.578658 19.2087 2
      vertex -3.09017 21.5106 2
      vertex -0.706339 18.8541 2
    endloop
  endfacet
  facet normal -0 0 1
    outer loop
      vertex -4.25779 21.0483 2
      vertex -0.811499 18.4921 2
      vertex -3.68124 21.2978 2
    endloop
  endfacet
  facet normal 0 0 1
    outer loop
      vertex -0.706339 18.8541 2
      vertex -3.68124 21.2978 2
      vertex -0.811499 18.4921 2
    endloop
  endfacet
  facet normal -0 0 1
    outer loop
      vertex -3.68124 21.2978 2
      vertex -0.706339 18.8541 2
      vertex -3.09017 21.5106 2
    endloop
  endfacet
  facet normal 0 0 1
    outer loop
      vertex 1.47329 12.1459 2
      vertex 1.47329 11.8541 2
      vertex 1.68797 12 2
    endloop
  endfacet
  facet normal 0 0 1
    outer loop
      vertex 1.17546 12.3769 2
      vertex 1.47329 11.8541 2
      vertex 1.47329 12.1459 2
    endloop
  endfacet
  facet normal 0 0 1
    outer loop
      vertex 1.17546 12.3769 2
      vertex 1.17546 11.6231 2
      vertex 1.47329 11.8541 2
    endloop
  endfacet
  facet normal 0 0 1
    outer loop
      vertex 0.892717 12.6262 2
      vertex 1.17546 11.6231 2
      vertex 1.17546 12.3769 2
    endloop
  endfacet
  facet normal 0 0 1
    outer loop
      vertex 0.892717 12.6262 2
      vertex 0.892717 11.3738 2
      vertex 1.17546 11.6231 2
    endloop
  endfacet
  facet normal 0 0 1
    outer loop
      vertex 0.626187 12.8927 2
      vertex 0.892717 11.3738 2
      vertex 0.892717 12.6262 2
    endloop
  endfacet
  facet normal 0 0 1
    outer loop
      vertex 0.626187 12.8927 2
      vertex 0.626187 11.1073 2
      vertex 0.892717 11.3738 2
    endloop
  endfacet
  facet normal 0 0 1
    outer loop
      vertex 0.37692 13.1755 2
      vertex 0.626187 11.1073 2
      vertex 0.626187 12.8927 2
    endloop
  endfacet
  facet normal 0 0 1
    outer loop
      vertex 0.37692 13.1755 2
      vertex 0.37692 10.8245 2
      vertex 0.626187 11.1073 2
    endloop
  endfacet
  facet normal 0 0 1
    outer loop
      vertex 0.145898 13.4733 2
      vertex 0.37692 10.8245 2
      vertex 0.37692 13.1755 2
    endloop
  endfacet
  facet normal 0 0 1
    outer loop
      vertex 0.145898 13.4733 2
      vertex 0.145898 10.5267 2
      vertex 0.37692 10.8245 2
    endloop
  endfacet
  facet normal 0 0 1
    outer loop
      vertex -0.0659666 13.785 2
      vertex 0.145898 10.5267 2
      vertex 0.145898 13.4733 2
    endloop
  endfacet
  facet normal 0 0 1
    outer loop
      vertex -0.0659666 13.785 2
      vertex -0.0659666 10.215 2
      vertex 0.145898 10.5267 2
    endloop
  endfacet
  facet normal 0 0 1
    outer loop
      vertex -0.257839 14.1095 2
      vertex -0.0659666 10.215 2
      vertex -0.0659666 13.785 2
    endloop
  endfacet
  facet normal 0 0 1
    outer loop
      vertex -0.257839 14.1095 2
      vertex -0.257839 9.89052 2
      vertex -0.0659666 10.215 2
    endloop
  endfacet
  facet normal 0 0 1
    outer loop
      vertex -0.428962 14.4453 2
      vertex -0.257839 9.89052 2
      vertex -0.257839 14.1095 2
    endloop
  endfacet
  facet normal 0 0 1
    outer loop
      vertex -0.428962 14.4453 2
      vertex -0.428962 9.55468 2
      vertex -0.257839 9.89052 2
    endloop
  endfacet
  facet normal 0 0 1
    outer loop
      vertex -0.578658 14.7913 2
      vertex -0.428962 9.55468 2
      vertex -0.428962 14.4453 2
    endloop
  endfacet
  facet normal 0 0 1
    outer loop
      vertex -0.578658 14.7913 2
      vertex -0.578658 9.20875 2
      vertex -0.428962 9.55468 2
    endloop
  endfacet
  facet normal 0 0 1
    outer loop
      vertex -0.706339 15.1459 2
      vertex -0.578658 9.20875 2
      vertex -0.578658 14.7913 2
    endloop
  endfacet
  facet normal 0 0 1
    outer loop
      vertex -0.706339 15.1459 2
      vertex -0.706339 8.8541 2
      vertex -0.578658 9.20875 2
    endloop
  endfacet
  facet normal 0 0 1
    outer loop
      vertex -0.811499 15.5079 2
      vertex -0.706339 8.8541 2
      vertex -0.706339 15.1459 2
    endloop
  endfacet
  facet normal 0 0 1
    outer loop
      vertex -0.811499 15.5079 2
      vertex -0.811499 8.49214 2
      vertex -0.706339 8.8541 2
    endloop
  endfacet
  facet normal 0 0 1
    outer loop
      vertex -0.893723 15.8757 2
      vertex -0.811499 8.49214 2
      vertex -0.811499 15.5079 2
    endloop
  endfacet
  facet normal 0 0 1
    outer loop
      vertex -0.893723 15.8757 2
      vertex -0.893723 8.12429 2
      vertex -0.811499 8.49214 2
    endloop
  endfacet
  facet normal 0 0 1
    outer loop
      vertex -0.952687 16.248 2
      vertex -0.893723 8.12429 2
      vertex -0.893723 15.8757 2
    endloop
  endfacet
  facet normal 0 0 1
    outer loop
      vertex -0.952687 16.248 2
      vertex -0.952687 7.752 2
      vertex -0.893723 8.12429 2
    endloop
  endfacet
  facet normal 0 0 1
    outer loop
      vertex -0.98816 16.6233 2
      vertex -0.952687 7.752 2
      vertex -0.952687 16.248 2
    endloop
  endfacet
  facet normal 0 0 1
    outer loop
      vertex -0.98816 16.6233 2
      vertex -0.98816 7.37674 2
      vertex -0.952687 7.752 2
    endloop
  endfacet
  facet normal 0 0 1
    outer loop
      vertex -1 17 2
      vertex -0.98816 7.37674 2
      vertex -0.98816 16.6233 2
    endloop
  endfacet
  facet normal 0 0 1
    outer loop
      vertex -0.98816 7.37674 2
      vertex -1 17 2
      vertex -1 7 2
    endloop
  endfacet
  facet normal 0 0 1
    outer loop
      vertex 1.47329 2.1459 2
      vertex 1.25333 2.07885 2
      vertex 1.51172 2.11978 2
    endloop
  endfacet
  facet normal 0 0 1
    outer loop
      vertex 1.17546 2.37692 2
      vertex 1.25333 2.07885 2
      vertex 1.47329 2.1459 2
    endloop
  endfacet
  facet normal 0 0 1
    outer loop
      vertex 0.627905 2.01973 2
      vertex 1.17546 2.37692 2
      vertex 0.892717 2.62619 2
    endloop
  endfacet
  facet normal 0 0 1
    outer loop
      vertex 1.17546 2.37692 2
      vertex 0.627905 2.01973 2
      vertex 1.25333 2.07885 2
    endloop
  endfacet
  facet normal 0 0 1
    outer loop
      vertex 0.626187 2.89272 2
      vertex 0.627905 2.01973 2
      vertex 0.892717 2.62619 2
    endloop
  endfacet
  facet normal 0 0 1
    outer loop
      vertex 0 2 2
      vertex 0.626187 2.89272 2
      vertex 0.37692 3.17546 2
    endloop
  endfacet
  facet normal 0 0 1
    outer loop
      vertex -0.627905 2.01973 2
      vertex 0.37692 3.17546 2
      vertex 0.145898 3.47329 2
    endloop
  endfacet
  facet normal 0 0 1
    outer loop
      vertex 0.626187 2.89272 2
      vertex 0 2 2
      vertex 0.627905 2.01973 2
    endloop
  endfacet
  facet normal 0 0 1
    outer loop
      vertex -0.627905 2.01973 2
      vertex 0.145898 3.47329 2
      vertex -0.0659666 3.78504 2
    endloop
  endfacet
  facet normal 0 0 1
    outer loop
      vertex -1.25333 2.07885 2
      vertex -0.0659666 3.78504 2
      vertex -0.257839 4.10948 2
    endloop
  endfacet
  facet normal 0 0 1
    outer loop
      vertex -1.87381 2.17713 2
      vertex -0.257839 4.10948 2
      vertex -0.428962 4.44532 2
    endloop
  endfacet
  facet normal 0 0 1
    outer loop
      vertex -2.4869 2.31417 2
      vertex -0.428962 4.44532 2
      vertex -0.578658 4.79125 2
    endloop
  endfacet
  facet normal 0 0 1
    outer loop
      vertex 0.37692 3.17546 2
      vertex -0.627905 2.01973 2
      vertex 0 2 2
    endloop
  endfacet
  facet normal 0 0 1
    outer loop
      vertex -3.09017 2.48944 2
      vertex -0.578658 4.79125 2
      vertex -0.706339 5.1459 2
    endloop
  endfacet
  facet normal 0 0 1
    outer loop
      vertex -3.68124 2.70224 2
      vertex -0.706339 5.1459 2
      vertex -0.811499 5.50786 2
    endloop
  endfacet
  facet normal 0 0 1
    outer loop
      vertex -4.25779 2.95173 2
      vertex -0.811499 5.50786 2
      vertex -0.893723 5.87571 2
    endloop
  endfacet
  facet normal 0 0 1
    outer loop
      vertex -4.81754 3.23693 2
      vertex -0.893723 5.87571 2
      vertex -0.952687 6.248 2
    endloop
  endfacet
  facet normal 0 0 1
    outer loop
      vertex -5.35827 3.55672 2
      vertex -0.952687 6.248 2
      vertex -0.98816 6.62326 2
    endloop
  endfacet
  facet normal 0 0 1
    outer loop
      vertex -0.0659666 3.78504 2
      vertex -1.25333 2.07885 2
      vertex -0.627905 2.01973 2
    endloop
  endfacet
  facet normal 0 0 1
    outer loop
      vertex -6.37424 4.29487 2
      vertex -0.98816 6.62326 2
      vertex -1 7 2
    endloop
  endfacet
  facet normal 0 0 1
    outer loop
      vertex -0.811499 18.4921 2
      vertex -4.25779 21.0483 2
      vertex -0.893723 18.1243 2
    endloop
  endfacet
  facet normal -0 0 1
    outer loop
      vertex -4.81754 20.7631 2
      vertex -0.893723 18.1243 2
      vertex -4.25779 21.0483 2
    endloop
  endfacet
  facet normal 0 0 1
    outer loop
      vertex -0.257839 4.10948 2
      vertex -1.87381 2.17713 2
      vertex -1.25333 2.07885 2
    endloop
  endfacet
  facet normal 0 0 1
    outer loop
      vertex -0.893723 18.1243 2
      vertex -4.81754 20.7631 2
      vertex -0.952687 17.752 2
    endloop
  endfacet
  facet normal 0 0 1
    outer loop
      vertex -0.428962 4.44532 2
      vertex -2.4869 2.31417 2
      vertex -1.87381 2.17713 2
    endloop
  endfacet
  facet normal -0 0 1
    outer loop
      vertex -5.35827 20.4433 2
      vertex -0.952687 17.752 2
      vertex -4.81754 20.7631 2
    endloop
  endfacet
  facet normal 0 0 1
    outer loop
      vertex -0.578658 4.79125 2
      vertex -3.09017 2.48944 2
      vertex -2.4869 2.31417 2
    endloop
  endfacet
  facet normal 0 0 1
    outer loop
      vertex -0.952687 17.752 2
      vertex -5.35827 20.4433 2
      vertex -0.98816 17.3767 2
    endloop
  endfacet
  facet normal 0 0 1
    outer loop
      vertex -0.706339 5.1459 2
      vertex -3.68124 2.70224 2
      vertex -3.09017 2.48944 2
    endloop
  endfacet
  facet normal -0 0 1
    outer loop
      vertex -5.87785 20.0902 2
      vertex -0.98816 17.3767 2
      vertex -5.35827 20.4433 2
    endloop
  endfacet
  facet normal 0 0 1
    outer loop
      vertex -0.811499 5.50786 2
      vertex -4.25779 2.95173 2
      vertex -3.68124 2.70224 2
    endloop
  endfacet
  facet normal -0 0 1
    outer loop
      vertex -6.37424 19.7051 2
      vertex -0.98816 17.3767 2
      vertex -5.87785 20.0902 2
    endloop
  endfacet
  facet normal 0 0 1
    outer loop
      vertex -0.893723 5.87571 2
      vertex -4.81754 3.23693 2
      vertex -4.25779 2.95173 2
    endloop
  endfacet
  facet normal 0 0 1
    outer loop
      vertex -0.98816 17.3767 2
      vertex -6.37424 19.7051 2
      vertex -1 17 2
    endloop
  endfacet
  facet normal 0 0 1
    outer loop
      vertex -0.952687 6.248 2
      vertex -5.35827 3.55672 2
      vertex -4.81754 3.23693 2
    endloop
  endfacet
  facet normal -0 0 1
    outer loop
      vertex -6.84547 19.2897 2
      vertex -1 17 2
      vertex -6.37424 19.7051 2
    endloop
  endfacet
  facet normal 0 0 1
    outer loop
      vertex -0.98816 6.62326 2
      vertex -5.87785 3.90983 2
      vertex -5.35827 3.55672 2
    endloop
  endfacet
  facet normal -0 0 1
    outer loop
      vertex -7.28969 18.8455 2
      vertex -1 17 2
      vertex -6.84547 19.2897 2
    endloop
  endfacet
  facet normal 0 0 1
    outer loop
      vertex -0.98816 6.62326 2
      vertex -6.37424 4.29487 2
      vertex -5.87785 3.90983 2
    endloop
  endfacet
  facet normal -0 0 1
    outer loop
      vertex -7.70513 18.3742 2
      vertex -1 17 2
      vertex -7.28969 18.8455 2
    endloop
  endfacet
  facet normal 0 0 1
    outer loop
      vertex -1 7 2
      vertex -6.84547 4.71031 2
      vertex -6.37424 4.29487 2
    endloop
  endfacet
  facet normal -0 0 1
    outer loop
      vertex -8.09017 17.8779 2
      vertex -1 17 2
      vertex -7.70513 18.3742 2
    endloop
  endfacet
  facet normal 0 0 1
    outer loop
      vertex -1 7 2
      vertex -7.28969 5.15453 2
      vertex -6.84547 4.71031 2
    endloop
  endfacet
  facet normal -0 0 1
    outer loop
      vertex -8.44328 17.3583 2
      vertex -1 17 2
      vertex -8.09017 17.8779 2
    endloop
  endfacet
  facet normal 0 0 1
    outer loop
      vertex -1 7 2
      vertex -7.70513 5.62576 2
      vertex -7.28969 5.15453 2
    endloop
  endfacet
  facet normal 0 0 1
    outer loop
      vertex -8.76307 16.8175 2
      vertex -1 17 2
      vertex -8.44328 17.3583 2
    endloop
  endfacet
  facet normal 0 0 1
    outer loop
      vertex -1 7 2
      vertex -8.09017 6.12215 2
      vertex -7.70513 5.62576 2
    endloop
  endfacet
  facet normal 0 0 1
    outer loop
      vertex -9.04827 16.2578 2
      vertex -1 17 2
      vertex -8.76307 16.8175 2
    endloop
  endfacet
  facet normal 0 0 1
    outer loop
      vertex -1 7 2
      vertex -8.44328 6.64173 2
      vertex -8.09017 6.12215 2
    endloop
  endfacet
  facet normal 0 0 1
    outer loop
      vertex -9.29776 15.6812 2
      vertex -1 17 2
      vertex -9.04827 16.2578 2
    endloop
  endfacet
  facet normal 0 0 1
    outer loop
      vertex -1 7 2
      vertex -8.76307 7.18246 2
      vertex -8.44328 6.64173 2
    endloop
  endfacet
  facet normal 0 0 1
    outer loop
      vertex -9.51056 15.0902 2
      vertex -1 17 2
      vertex -9.29776 15.6812 2
    endloop
  endfacet
  facet normal 0 0 1
    outer loop
      vertex -1 7 2
      vertex -9.04827 7.74221 2
      vertex -8.76307 7.18246 2
    endloop
  endfacet
  facet normal 0 0 1
    outer loop
      vertex -9.68583 14.4869 2
      vertex -1 17 2
      vertex -9.51056 15.0902 2
    endloop
  endfacet
  facet normal 0 0 1
    outer loop
      vertex -1 7 2
      vertex -9.29776 8.31876 2
      vertex -9.04827 7.74221 2
    endloop
  endfacet
  facet normal 0 0 1
    outer loop
      vertex -9.82287 13.8738 2
      vertex -1 17 2
      vertex -9.68583 14.4869 2
    endloop
  endfacet
  facet normal 0 0 1
    outer loop
      vertex -1 7 2
      vertex -9.51056 8.90983 2
      vertex -9.29776 8.31876 2
    endloop
  endfacet
  facet normal 0 0 1
    outer loop
      vertex -9.92115 13.2533 2
      vertex -1 17 2
      vertex -9.82287 13.8738 2
    endloop
  endfacet
  facet normal 0 0 1
    outer loop
      vertex -1 7 2
      vertex -9.68583 9.5131 2
      vertex -9.51056 8.90983 2
    endloop
  endfacet
  facet normal 0 0 1
    outer loop
      vertex -9.98027 12.6279 2
      vertex -1 17 2
      vertex -9.92115 13.2533 2
    endloop
  endfacet
  facet normal 0 0 1
    outer loop
      vertex -1 7 2
      vertex -9.82287 10.1262 2
      vertex -9.68583 9.5131 2
    endloop
  endfacet
  facet normal 0 0 1
    outer loop
      vertex -10 12 2
      vertex -1 17 2
      vertex -9.98027 12.6279 2
    endloop
  endfacet
  facet normal 0 0 1
    outer loop
      vertex -1 7 2
      vertex -9.92115 10.7467 2
      vertex -9.82287 10.1262 2
    endloop
  endfacet
  facet normal 0 0 1
    outer loop
      vertex -1 17 2
      vertex -10 12 2
      vertex -1 7 2
    endloop
  endfacet
  facet normal 0 0 1
    outer loop
      vertex -1 7 2
      vertex -9.98027 11.3721 2
      vertex -9.92115 10.7467 2
    endloop
  endfacet
  facet normal 0 0 1
    outer loop
      vertex -1 7 2
      vertex -10 12 2
      vertex -9.98027 11.3721 2
    endloop
  endfacet
  facet normal -0.397145 0.917756 0
    outer loop
      vertex -3.68124 21.2978 -2
      vertex -4.25779 21.0483 2
      vertex -3.68124 21.2978 2
    endloop
  endfacet
  facet normal -0.397145 0.917756 0
    outer loop
      vertex -4.25779 21.0483 2
      vertex -3.68124 21.2978 -2
      vertex -4.25779 21.0483 -2
    endloop
  endfacet
  facet normal -0.612909 0.790154 0
    outer loop
      vertex -5.87785 20.0902 -2
      vertex -6.37424 19.7051 2
      vertex -5.87785 20.0902 2
    endloop
  endfacet
  facet normal -0.612909 0.790154 0
    outer loop
      vertex -6.37424 19.7051 2
      vertex -5.87785 20.0902 -2
      vertex -6.37424 19.7051 -2
    endloop
  endfacet
  facet normal -0.218144 0.975917 0
    outer loop
      vertex -1.87381 21.8229 -2
      vertex -2.4869 21.6858 2
      vertex -1.87381 21.8229 2
    endloop
  endfacet
  facet normal -0.218144 0.975917 0
    outer loop
      vertex -2.4869 21.6858 2
      vertex -1.87381 21.8229 -2
      vertex -2.4869 21.6858 -2
    endloop
  endfacet
  facet normal -0.0314119 0.999507 0
    outer loop
      vertex 0 22 -2
      vertex -0.627905 21.9803 2
      vertex 0 22 2
    endloop
  endfacet
  facet normal -0.0314119 0.999507 0
    outer loop
      vertex -0.627905 21.9803 2
      vertex 0 22 -2
      vertex -0.627905 21.9803 -2
    endloop
  endfacet
  facet normal 0.0314119 -0.999507 0
    outer loop
      vertex 0 2 -2
      vertex 0.627905 2.01973 2
      vertex 0 2 2
    endloop
  endfacet
  facet normal 0.0314119 -0.999507 0
    outer loop
      vertex 0.627905 2.01973 2
      vertex 0 2 -2
      vertex 0.627905 2.01973 -2
    endloop
  endfacet
  facet normal 0.156434 -0.987688 0
    outer loop
      vertex 1.25333 2.07885 -2
      vertex 1.51172 2.11978 2
      vertex 1.25333 2.07885 2
    endloop
  endfacet
  facet normal 0.156434 -0.987688 0
    outer loop
      vertex 1.51172 2.11978 2
      vertex 1.25333 2.07885 -2
      vertex 1.51172 2.11978 -2
    endloop
  endfacet
  facet normal -0.562082 -0.827081 0
    outer loop
      vertex -5.87785 3.90983 -2
      vertex -5.35827 3.55672 2
      vertex -5.87785 3.90983 2
    endloop
  endfacet
  facet normal -0.562082 -0.827081 -0
    outer loop
      vertex -5.35827 3.55672 2
      vertex -5.87785 3.90983 -2
      vertex -5.35827 3.55672 -2
    endloop
  endfacet
  facet normal -0.453991 -0.891006 0
    outer loop
      vertex -4.81754 3.23693 -2
      vertex -4.25779 2.95173 2
      vertex -4.81754 3.23693 2
    endloop
  endfacet
  facet normal -0.453991 -0.891006 -0
    outer loop
      vertex -4.25779 2.95173 2
      vertex -4.81754 3.23693 -2
      vertex -4.25779 2.95173 -2
    endloop
  endfacet
  facet normal -0.0941082 -0.995562 0
    outer loop
      vertex -1.25333 2.07885 -2
      vertex -0.627905 2.01973 2
      vertex -1.25333 2.07885 2
    endloop
  endfacet
  facet normal -0.0941082 -0.995562 -0
    outer loop
      vertex -0.627905 2.01973 2
      vertex -1.25333 2.07885 -2
      vertex -0.627905 2.01973 -2
    endloop
  endfacet
  facet normal -0.917755 -0.397148 0
    outer loop
      vertex -9.04827 7.74221 -2
      vertex -9.29776 8.31876 2
      vertex -9.29776 8.31876 -2
    endloop
  endfacet
  facet normal -0.917755 -0.397148 0
    outer loop
      vertex -9.29776 8.31876 2
      vertex -9.04827 7.74221 -2
      vertex -9.04827 7.74221 2
    endloop
  endfacet
  facet normal -0.975917 -0.218144 0
    outer loop
      vertex -9.68583 9.5131 -2
      vertex -9.82287 10.1262 2
      vertex -9.82287 10.1262 -2
    endloop
  endfacet
  facet normal -0.975917 -0.218144 0
    outer loop
      vertex -9.82287 10.1262 2
      vertex -9.68583 9.5131 -2
      vertex -9.68583 9.5131 2
    endloop
  endfacet
  facet normal -0.987688 -0.156434 0
    outer loop
      vertex -9.82287 10.1262 -2
      vertex -9.92115 10.7467 2
      vertex -9.92115 10.7467 -2
    endloop
  endfacet
  facet normal -0.987688 -0.156434 0
    outer loop
      vertex -9.92115 10.7467 2
      vertex -9.82287 10.1262 -2
      vertex -9.82287 10.1262 2
    endloop
  endfacet
  facet normal -0.999507 -0.0314119 0
    outer loop
      vertex -9.98027 11.3721 -2
      vertex -10 12 2
      vertex -10 12 -2
    endloop
  endfacet
  facet normal -0.999507 -0.0314119 0
    outer loop
      vertex -10 12 2
      vertex -9.98027 11.3721 -2
      vertex -9.98027 11.3721 2
    endloop
  endfacet
  facet normal -0.790153 0.612909 0
    outer loop
      vertex -8.09017 17.8779 -2
      vertex -7.70513 18.3742 2
      vertex -7.70513 18.3742 -2
    endloop
  endfacet
  facet normal -0.790153 0.612909 0
    outer loop
      vertex -7.70513 18.3742 2
      vertex -8.09017 17.8779 -2
      vertex -8.09017 17.8779 2
    endloop
  endfacet
  facet normal -0.891006 0.453992 0
    outer loop
      vertex -9.04827 16.2578 -2
      vertex -8.76307 16.8175 2
      vertex -8.76307 16.8175 -2
    endloop
  endfacet
  facet normal -0.891006 0.453992 0
    outer loop
      vertex -8.76307 16.8175 2
      vertex -9.04827 16.2578 -2
      vertex -9.04827 16.2578 2
    endloop
  endfacet
  facet normal 0.0941082 -0.995562 0
    outer loop
      vertex 0.627905 2.01973 -2
      vertex 1.25333 2.07885 2
      vertex 0.627905 2.01973 2
    endloop
  endfacet
  facet normal 0.0941082 -0.995562 0
    outer loop
      vertex 1.25333 2.07885 2
      vertex 0.627905 2.01973 -2
      vertex 1.25333 2.07885 -2
    endloop
  endfacet
  facet normal -0.612909 -0.790154 0
    outer loop
      vertex -6.37424 4.29487 -2
      vertex -5.87785 3.90983 2
      vertex -6.37424 4.29487 2
    endloop
  endfacet
  facet normal -0.612909 -0.790154 -0
    outer loop
      vertex -5.87785 3.90983 2
      vertex -6.37424 4.29487 -2
      vertex -5.87785 3.90983 -2
    endloop
  endfacet
  facet normal -0.509042 -0.860742 0
    outer loop
      vertex -5.35827 3.55672 -2
      vertex -4.81754 3.23693 2
      vertex -5.35827 3.55672 2
    endloop
  endfacet
  facet normal -0.509042 -0.860742 -0
    outer loop
      vertex -4.81754 3.23693 2
      vertex -5.35827 3.55672 -2
      vertex -4.81754 3.23693 -2
    endloop
  endfacet
  facet normal -0.218144 -0.975917 0
    outer loop
      vertex -2.4869 2.31417 -2
      vertex -1.87381 2.17713 2
      vertex -2.4869 2.31417 2
    endloop
  endfacet
  facet normal -0.218144 -0.975917 -0
    outer loop
      vertex -1.87381 2.17713 2
      vertex -2.4869 2.31417 -2
      vertex -1.87381 2.17713 -2
    endloop
  endfacet
  facet normal -0.891006 -0.453991 0
    outer loop
      vertex -8.76307 7.18246 -2
      vertex -9.04827 7.74221 2
      vertex -9.04827 7.74221 -2
    endloop
  endfacet
  facet normal -0.891006 -0.453991 0
    outer loop
      vertex -9.04827 7.74221 2
      vertex -8.76307 7.18246 -2
      vertex -8.76307 7.18246 2
    endloop
  endfacet
  facet normal -0.960294 -0.278991 0
    outer loop
      vertex -9.51056 8.90983 -2
      vertex -9.68583 9.5131 2
      vertex -9.68583 9.5131 -2
    endloop
  endfacet
  facet normal -0.960294 -0.278991 0
    outer loop
      vertex -9.68583 9.5131 2
      vertex -9.51056 8.90983 -2
      vertex -9.51056 8.90983 2
    endloop
  endfacet
  facet normal -0.995562 -0.0941082 0
    outer loop
      vertex -9.92115 10.7467 -2
      vertex -9.98027 11.3721 2
      vertex -9.98027 11.3721 -2
    endloop
  endfacet
  facet normal -0.995562 -0.0941082 0
    outer loop
      vertex -9.98027 11.3721 2
      vertex -9.92115 10.7467 -2
      vertex -9.92115 10.7467 2
    endloop
  endfacet
  facet normal 0.707108 -0.707106 0
    outer loop
      vertex 0.626187 21.1073 2
      vertex 0.892717 21.3738 -2
      vertex 0.892717 21.3738 2
    endloop
  endfacet
  facet normal 0.707108 -0.707106 0
    outer loop
      vertex 0.892717 21.3738 -2
      vertex 0.626187 21.1073 2
      vertex 0.626187 21.1073 -2
    endloop
  endfacet
  facet normal 0.940881 -0.338738 0
    outer loop
      vertex -0.706339 18.8541 2
      vertex -0.578658 19.2087 -2
      vertex -0.578658 19.2087 2
    endloop
  endfacet
  facet normal 0.940881 -0.338738 0
    outer loop
      vertex -0.578658 19.2087 -2
      vertex -0.706339 18.8541 2
      vertex -0.706339 18.8541 -2
    endloop
  endfacet
  facet normal 0.790156 -0.612906 0
    outer loop
      vertex 0.145898 20.5267 2
      vertex 0.37692 20.8245 -2
      vertex 0.37692 20.8245 2
    endloop
  endfacet
  facet normal 0.790156 -0.612906 0
    outer loop
      vertex 0.37692 20.8245 -2
      vertex 0.145898 20.5267 2
      vertex 0.145898 20.5267 -2
    endloop
  endfacet
  facet normal 0.987689 -0.156432 0
    outer loop
      vertex -0.952687 17.752 2
      vertex -0.893723 18.1243 -2
      vertex -0.893723 18.1243 2
    endloop
  endfacet
  facet normal 0.987689 -0.156432 0
    outer loop
      vertex -0.893723 18.1243 -2
      vertex -0.952687 17.752 2
      vertex -0.952687 17.752 -2
    endloop
  endfacet
  facet normal 0.827082 -0.562082 0
    outer loop
      vertex -0.0659666 20.215 2
      vertex 0.145898 20.5267 -2
      vertex 0.145898 20.5267 2
    endloop
  endfacet
  facet normal 0.827082 -0.562082 0
    outer loop
      vertex 0.145898 20.5267 -2
      vertex -0.0659666 20.215 2
      vertex -0.0659666 20.215 -2
    endloop
  endfacet
  facet normal 0.891006 -0.453992 0
    outer loop
      vertex -0.428962 19.5547 2
      vertex -0.257839 19.8905 -2
      vertex -0.257839 19.8905 2
    endloop
  endfacet
  facet normal 0.891006 -0.453992 0
    outer loop
      vertex -0.257839 19.8905 -2
      vertex -0.428962 19.5547 2
      vertex -0.428962 19.5547 -2
    endloop
  endfacet
  facet normal 0.975917 -0.218144 0
    outer loop
      vertex -0.893723 18.1243 2
      vertex -0.811499 18.4921 -2
      vertex -0.811499 18.4921 2
    endloop
  endfacet
  facet normal 0.975917 -0.218144 0
    outer loop
      vertex -0.811499 18.4921 -2
      vertex -0.893723 18.1243 2
      vertex -0.893723 18.1243 -2
    endloop
  endfacet
  facet normal 0.661312 -0.750111 0
    outer loop
      vertex 0.892717 21.3738 -2
      vertex 1.17546 21.6231 2
      vertex 0.892717 21.3738 2
    endloop
  endfacet
  facet normal 0.661312 -0.750111 0
    outer loop
      vertex 1.17546 21.6231 2
      vertex 0.892717 21.3738 -2
      vertex 1.17546 21.6231 -2
    endloop
  endfacet
  facet normal 0.891007 0.453991 0
    outer loop
      vertex -0.257839 14.1095 2
      vertex -0.428962 14.4453 -2
      vertex -0.428962 14.4453 2
    endloop
  endfacet
  facet normal 0.891007 0.453991 0
    outer loop
      vertex -0.428962 14.4453 -2
      vertex -0.257839 14.1095 2
      vertex -0.257839 14.1095 -2
    endloop
  endfacet
  facet normal 0.75011 -0.661313 0
    outer loop
      vertex 0.37692 20.8245 2
      vertex 0.626187 21.1073 -2
      vertex 0.626187 21.1073 2
    endloop
  endfacet
  facet normal 0.75011 -0.661313 0
    outer loop
      vertex 0.626187 21.1073 -2
      vertex 0.37692 20.8245 2
      vertex 0.37692 20.8245 -2
    endloop
  endfacet
  facet normal 0.860742 -0.509042 0
    outer loop
      vertex -0.257839 19.8905 2
      vertex -0.0659666 20.215 -2
      vertex -0.0659666 20.215 2
    endloop
  endfacet
  facet normal 0.860742 -0.509042 0
    outer loop
      vertex -0.0659666 20.215 -2
      vertex -0.257839 19.8905 2
      vertex -0.257839 19.8905 -2
    endloop
  endfacet
  facet normal 0.917755 -0.397148 0
    outer loop
      vertex -0.578658 19.2087 2
      vertex -0.428962 19.5547 -2
      vertex -0.428962 19.5547 2
    endloop
  endfacet
  facet normal 0.917755 -0.397148 0
    outer loop
      vertex -0.428962 19.5547 -2
      vertex -0.578658 19.2087 2
      vertex -0.578658 19.2087 -2
    endloop
  endfacet
  facet normal 0.999507 -0.0314114 0
    outer loop
      vertex -1 17 2
      vertex -0.98816 17.3767 -2
      vertex -0.98816 17.3767 2
    endloop
  endfacet
  facet normal 0.999507 -0.0314114 0
    outer loop
      vertex -0.98816 17.3767 -2
      vertex -1 17 2
      vertex -1 17 -2
    endloop
  endfacet
  facet normal 0.999507 0.0314114 0
    outer loop
      vertex -0.98816 16.6233 2
      vertex -1 17 -2
      vertex -1 17 2
    endloop
  endfacet
  facet normal 0.999507 0.0314114 0
    outer loop
      vertex -1 17 -2
      vertex -0.98816 16.6233 2
      vertex -0.98816 16.6233 -2
    endloop
  endfacet
  facet normal 0.562094 -0.827073 0
    outer loop
      vertex 1.47329 21.8541 -2
      vertex 1.51172 21.8802 2
      vertex 1.47329 21.8541 2
    endloop
  endfacet
  facet normal 0.562094 -0.827073 0
    outer loop
      vertex 1.51172 21.8802 2
      vertex 1.47329 21.8541 -2
      vertex 1.51172 21.8802 -2
    endloop
  endfacet
  facet normal 0.960294 0.278991 0
    outer loop
      vertex -0.706339 15.1459 2
      vertex -0.811499 15.5079 -2
      vertex -0.811499 15.5079 2
    endloop
  endfacet
  facet normal 0.960294 0.278991 0
    outer loop
      vertex -0.811499 15.5079 -2
      vertex -0.706339 15.1459 2
      vertex -0.706339 15.1459 -2
    endloop
  endfacet
  facet normal 0.960294 -0.27899 0
    outer loop
      vertex -0.811499 18.4921 2
      vertex -0.706339 18.8541 -2
      vertex -0.706339 18.8541 2
    endloop
  endfacet
  facet normal 0.960294 -0.27899 0
    outer loop
      vertex -0.706339 18.8541 -2
      vertex -0.811499 18.4921 2
      vertex -0.811499 18.4921 -2
    endloop
  endfacet
  facet normal 0.995562 -0.0941103 0
    outer loop
      vertex -0.98816 17.3767 2
      vertex -0.952687 17.752 -2
      vertex -0.952687 17.752 2
    endloop
  endfacet
  facet normal 0.995562 -0.0941103 0
    outer loop
      vertex -0.952687 17.752 -2
      vertex -0.98816 17.3767 2
      vertex -0.98816 17.3767 -2
    endloop
  endfacet
  facet normal 0.612907 -0.790155 0
    outer loop
      vertex 1.17546 21.6231 -2
      vertex 1.47329 21.8541 2
      vertex 1.17546 21.6231 2
    endloop
  endfacet
  facet normal 0.612907 -0.790155 0
    outer loop
      vertex 1.47329 21.8541 2
      vertex 1.17546 21.6231 -2
      vertex 1.47329 21.8541 -2
    endloop
  endfacet
  facet normal 0.707107 0.707107 0
    outer loop
      vertex 0.892717 12.6262 2
      vertex 0.626187 12.8927 -2
      vertex 0.626187 12.8927 2
    endloop
  endfacet
  facet normal 0.707107 0.707107 0
    outer loop
      vertex 0.626187 12.8927 -2
      vertex 0.892717 12.6262 2
      vertex 0.892717 12.6262 -2
    endloop
  endfacet
  facet normal 0.790155 0.612907 0
    outer loop
      vertex 0.37692 13.1755 2
      vertex 0.145898 13.4733 -2
      vertex 0.145898 13.4733 2
    endloop
  endfacet
  facet normal 0.790155 0.612907 0
    outer loop
      vertex 0.145898 13.4733 -2
      vertex 0.37692 13.1755 2
      vertex 0.37692 13.1755 -2
    endloop
  endfacet
  facet normal 0.750111 0.661312 0
    outer loop
      vertex 0.626187 12.8927 2
      vertex 0.37692 13.1755 -2
      vertex 0.37692 13.1755 2
    endloop
  endfacet
  facet normal 0.750111 0.661312 0
    outer loop
      vertex 0.37692 13.1755 -2
      vertex 0.626187 12.8927 2
      vertex 0.626187 12.8927 -2
    endloop
  endfacet
  facet normal 0.975917 0.218144 0
    outer loop
      vertex -0.811499 15.5079 2
      vertex -0.893723 15.8757 -2
      vertex -0.893723 15.8757 2
    endloop
  endfacet
  facet normal 0.975917 0.218144 0
    outer loop
      vertex -0.893723 15.8757 -2
      vertex -0.811499 15.5079 2
      vertex -0.811499 15.5079 -2
    endloop
  endfacet
  facet normal 0.827082 0.562081 0
    outer loop
      vertex 0.145898 13.4733 2
      vertex -0.0659666 13.785 -2
      vertex -0.0659666 13.785 2
    endloop
  endfacet
  facet normal 0.827082 0.562081 0
    outer loop
      vertex -0.0659666 13.785 -2
      vertex 0.145898 13.4733 2
      vertex 0.145898 13.4733 -2
    endloop
  endfacet
  facet normal 0.860742 0.509042 0
    outer loop
      vertex -0.0659666 13.785 2
      vertex -0.257839 14.1095 -2
      vertex -0.257839 14.1095 2
    endloop
  endfacet
  facet normal 0.860742 0.509042 0
    outer loop
      vertex -0.257839 14.1095 -2
      vertex -0.0659666 13.785 2
      vertex -0.0659666 13.785 -2
    endloop
  endfacet
  facet normal 0.917755 0.397148 0
    outer loop
      vertex -0.428962 14.4453 2
      vertex -0.578658 14.7913 -2
      vertex -0.578658 14.7913 2
    endloop
  endfacet
  facet normal 0.917755 0.397148 0
    outer loop
      vertex -0.578658 14.7913 -2
      vertex -0.428962 14.4453 2
      vertex -0.428962 14.4453 -2
    endloop
  endfacet
  facet normal 0.94088 0.338739 0
    outer loop
      vertex -0.578658 14.7913 2
      vertex -0.706339 15.1459 -2
      vertex -0.706339 15.1459 2
    endloop
  endfacet
  facet normal 0.94088 0.338739 0
    outer loop
      vertex -0.706339 15.1459 -2
      vertex -0.578658 14.7913 2
      vertex -0.578658 14.7913 -2
    endloop
  endfacet
  facet normal 0.987689 0.156432 0
    outer loop
      vertex -0.893723 15.8757 2
      vertex -0.952687 16.248 -2
      vertex -0.952687 16.248 2
    endloop
  endfacet
  facet normal 0.987689 0.156432 0
    outer loop
      vertex -0.952687 16.248 -2
      vertex -0.893723 15.8757 2
      vertex -0.893723 15.8757 -2
    endloop
  endfacet
  facet normal 0.995562 0.0941103 0
    outer loop
      vertex -0.952687 16.248 2
      vertex -0.98816 16.6233 -2
      vertex -0.98816 16.6233 2
    endloop
  endfacet
  facet normal 0.995562 0.0941103 0
    outer loop
      vertex -0.98816 16.6233 -2
      vertex -0.952687 16.248 2
      vertex -0.952687 16.248 -2
    endloop
  endfacet
  facet normal 0.661312 0.750111 -0
    outer loop
      vertex 1.17546 12.3769 -2
      vertex 0.892717 12.6262 2
      vertex 1.17546 12.3769 2
    endloop
  endfacet
  facet normal 0.661312 0.750111 0
    outer loop
      vertex 0.892717 12.6262 2
      vertex 1.17546 12.3769 -2
      vertex 0.892717 12.6262 -2
    endloop
  endfacet
  facet normal 0.612907 0.790155 -0
    outer loop
      vertex 1.47329 12.1459 -2
      vertex 1.17546 12.3769 2
      vertex 1.47329 12.1459 2
    endloop
  endfacet
  facet normal 0.612907 0.790155 0
    outer loop
      vertex 1.17546 12.3769 2
      vertex 1.47329 12.1459 -2
      vertex 1.17546 12.3769 -2
    endloop
  endfacet
  facet normal 0.562081 0.827082 -0
    outer loop
      vertex 1.68797 12 -2
      vertex 1.47329 12.1459 2
      vertex 1.68797 12 2
    endloop
  endfacet
  facet normal 0.562081 0.827082 0
    outer loop
      vertex 1.47329 12.1459 2
      vertex 1.68797 12 -2
      vertex 1.47329 12.1459 -2
    endloop
  endfacet
  facet normal 0.999507 -0.0314115 0
    outer loop
      vertex -1 7 2
      vertex -0.98816 7.37674 -2
      vertex -0.98816 7.37674 2
    endloop
  endfacet
  facet normal 0.999507 -0.0314115 0
    outer loop
      vertex -0.98816 7.37674 -2
      vertex -1 7 2
      vertex -1 7 -2
    endloop
  endfacet
  facet normal 0.661312 -0.750111 0
    outer loop
      vertex 0.892717 11.3738 -2
      vertex 1.17546 11.6231 2
      vertex 0.892717 11.3738 2
    endloop
  endfacet
  facet normal 0.661312 -0.750111 0
    outer loop
      vertex 1.17546 11.6231 2
      vertex 0.892717 11.3738 -2
      vertex 1.17546 11.6231 -2
    endloop
  endfacet
  facet normal 0.891007 -0.453991 0
    outer loop
      vertex -0.428962 9.55468 2
      vertex -0.257839 9.89052 -2
      vertex -0.257839 9.89052 2
    endloop
  endfacet
  facet normal 0.891007 -0.453991 0
    outer loop
      vertex -0.257839 9.89052 -2
      vertex -0.428962 9.55468 2
      vertex -0.428962 9.55468 -2
    endloop
  endfacet
  facet normal 0.750111 0.661312 0
    outer loop
      vertex 0.626187 2.89272 2
      vertex 0.37692 3.17546 -2
      vertex 0.37692 3.17546 2
    endloop
  endfacet
  facet normal 0.750111 0.661312 0
    outer loop
      vertex 0.37692 3.17546 -2
      vertex 0.626187 2.89272 2
      vertex 0.626187 2.89272 -2
    endloop
  endfacet
  facet normal 0.995562 0.0941101 0
    outer loop
      vertex -0.952687 6.248 2
      vertex -0.98816 6.62326 -2
      vertex -0.98816 6.62326 2
    endloop
  endfacet
  facet normal 0.995562 0.0941101 0
    outer loop
      vertex -0.98816 6.62326 -2
      vertex -0.952687 6.248 2
      vertex -0.952687 6.248 -2
    endloop
  endfacet
  facet normal 0.960294 -0.278991 0
    outer loop
      vertex -0.811499 8.49214 2
      vertex -0.706339 8.8541 -2
      vertex -0.706339 8.8541 2
    endloop
  endfacet
  facet normal 0.960294 -0.278991 0
    outer loop
      vertex -0.706339 8.8541 -2
      vertex -0.811499 8.49214 2
      vertex -0.811499 8.49214 -2
    endloop
  endfacet
  facet normal 0.750111 -0.661312 0
    outer loop
      vertex 0.37692 10.8245 2
      vertex 0.626187 11.1073 -2
      vertex 0.626187 11.1073 2
    endloop
  endfacet
  facet normal 0.750111 -0.661312 0
    outer loop
      vertex 0.626187 11.1073 -2
      vertex 0.37692 10.8245 2
      vertex 0.37692 10.8245 -2
    endloop
  endfacet
  facet normal 0.707107 -0.707107 0
    outer loop
      vertex 0.626187 11.1073 2
      vertex 0.892717 11.3738 -2
      vertex 0.892717 11.3738 2
    endloop
  endfacet
  facet normal 0.707107 -0.707107 0
    outer loop
      vertex 0.892717 11.3738 -2
      vertex 0.626187 11.1073 2
      vertex 0.626187 11.1073 -2
    endloop
  endfacet
  facet normal 0.94088 -0.338739 0
    outer loop
      vertex -0.706339 8.8541 2
      vertex -0.578658 9.20875 -2
      vertex -0.578658 9.20875 2
    endloop
  endfacet
  facet normal 0.94088 -0.338739 0
    outer loop
      vertex -0.578658 9.20875 -2
      vertex -0.706339 8.8541 2
      vertex -0.706339 8.8541 -2
    endloop
  endfacet
  facet normal 0.562081 -0.827082 0
    outer loop
      vertex 1.47329 11.8541 -2
      vertex 1.68797 12 2
      vertex 1.47329 11.8541 2
    endloop
  endfacet
  facet normal 0.562081 -0.827082 0
    outer loop
      vertex 1.68797 12 2
      vertex 1.47329 11.8541 -2
      vertex 1.68797 12 -2
    endloop
  endfacet
  facet normal 0.661312 0.750111 -0
    outer loop
      vertex 1.17546 2.37692 -2
      vertex 0.892717 2.62619 2
      vertex 1.17546 2.37692 2
    endloop
  endfacet
  facet normal 0.661312 0.750111 0
    outer loop
      vertex 0.892717 2.62619 2
      vertex 1.17546 2.37692 -2
      vertex 0.892717 2.62619 -2
    endloop
  endfacet
  facet normal 0.707107 0.707107 0
    outer loop
      vertex 0.892717 2.62619 2
      vertex 0.626187 2.89272 -2
      vertex 0.626187 2.89272 2
    endloop
  endfacet
  facet normal 0.707107 0.707107 0
    outer loop
      vertex 0.626187 2.89272 -2
      vertex 0.892717 2.62619 2
      vertex 0.892717 2.62619 -2
    endloop
  endfacet
  facet normal 0.860742 0.509042 0
    outer loop
      vertex -0.0659666 3.78504 2
      vertex -0.257839 4.10948 -2
      vertex -0.257839 4.10948 2
    endloop
  endfacet
  facet normal 0.860742 0.509042 0
    outer loop
      vertex -0.257839 4.10948 -2
      vertex -0.0659666 3.78504 2
      vertex -0.0659666 3.78504 -2
    endloop
  endfacet
  facet normal 0.827082 0.562081 0
    outer loop
      vertex 0.145898 3.47329 2
      vertex -0.0659666 3.78504 -2
      vertex -0.0659666 3.78504 2
    endloop
  endfacet
  facet normal 0.827082 0.562081 0
    outer loop
      vertex -0.0659666 3.78504 -2
      vertex 0.145898 3.47329 2
      vertex 0.145898 3.47329 -2
    endloop
  endfacet
  facet normal 0.94088 0.338739 0
    outer loop
      vertex -0.578658 4.79125 2
      vertex -0.706339 5.1459 -2
      vertex -0.706339 5.1459 2
    endloop
  endfacet
  facet normal 0.94088 0.338739 0
    outer loop
      vertex -0.706339 5.1459 -2
      vertex -0.578658 4.79125 2
      vertex -0.578658 4.79125 -2
    endloop
  endfacet
  facet normal 0.999507 0.0314114 0
    outer loop
      vertex -0.98816 6.62326 2
      vertex -1 7 -2
      vertex -1 7 2
    endloop
  endfacet
  facet normal 0.999507 0.0314114 0
    outer loop
      vertex -1 7 -2
      vertex -0.98816 6.62326 2
      vertex -0.98816 6.62326 -2
    endloop
  endfacet
  facet normal 0.790155 -0.612907 0
    outer loop
      vertex 0.145898 10.5267 2
      vertex 0.37692 10.8245 -2
      vertex 0.37692 10.8245 2
    endloop
  endfacet
  facet normal 0.790155 -0.612907 0
    outer loop
      vertex 0.37692 10.8245 -2
      vertex 0.145898 10.5267 2
      vertex 0.145898 10.5267 -2
    endloop
  endfacet
  facet normal 0.827082 -0.562081 0
    outer loop
      vertex -0.0659666 10.215 2
      vertex 0.145898 10.5267 -2
      vertex 0.145898 10.5267 2
    endloop
  endfacet
  facet normal 0.827082 -0.562081 0
    outer loop
      vertex 0.145898 10.5267 -2
      vertex -0.0659666 10.215 2
      vertex -0.0659666 10.215 -2
    endloop
  endfacet
  facet normal 0.860742 -0.509042 0
    outer loop
      vertex -0.257839 9.89052 2
      vertex -0.0659666 10.215 -2
      vertex -0.0659666 10.215 2
    endloop
  endfacet
  facet normal 0.860742 -0.509042 0
    outer loop
      vertex -0.0659666 10.215 -2
      vertex -0.257839 9.89052 2
      vertex -0.257839 9.89052 -2
    endloop
  endfacet
  facet normal 0.975917 -0.218144 0
    outer loop
      vertex -0.893723 8.12429 2
      vertex -0.811499 8.49214 -2
      vertex -0.811499 8.49214 2
    endloop
  endfacet
  facet normal 0.975917 -0.218144 0
    outer loop
      vertex -0.811499 8.49214 -2
      vertex -0.893723 8.12429 2
      vertex -0.893723 8.12429 -2
    endloop
  endfacet
  facet normal 0.987689 -0.156432 0
    outer loop
      vertex -0.952687 7.752 2
      vertex -0.893723 8.12429 -2
      vertex -0.893723 8.12429 2
    endloop
  endfacet
  facet normal 0.987689 -0.156432 0
    outer loop
      vertex -0.893723 8.12429 -2
      vertex -0.952687 7.752 2
      vertex -0.952687 7.752 -2
    endloop
  endfacet
  facet normal 0.995562 -0.0941101 0
    outer loop
      vertex -0.98816 7.37674 2
      vertex -0.952687 7.752 -2
      vertex -0.952687 7.752 2
    endloop
  endfacet
  facet normal 0.995562 -0.0941101 0
    outer loop
      vertex -0.952687 7.752 -2
      vertex -0.98816 7.37674 2
      vertex -0.98816 7.37674 -2
    endloop
  endfacet
  facet normal 0.56208 0.827083 -0
    outer loop
      vertex 1.51172 2.11978 -2
      vertex 1.47329 2.1459 2
      vertex 1.51172 2.11978 2
    endloop
  endfacet
  facet normal 0.56208 0.827083 0
    outer loop
      vertex 1.47329 2.1459 2
      vertex 1.51172 2.11978 -2
      vertex 1.47329 2.1459 -2
    endloop
  endfacet
  facet normal 0.917755 0.397148 0
    outer loop
      vertex -0.428962 4.44532 2
      vertex -0.578658 4.79125 -2
      vertex -0.578658 4.79125 2
    endloop
  endfacet
  facet normal 0.917755 0.397148 0
    outer loop
      vertex -0.578658 4.79125 -2
      vertex -0.428962 4.44532 2
      vertex -0.428962 4.44532 -2
    endloop
  endfacet
  facet normal 0.790155 0.612907 0
    outer loop
      vertex 0.37692 3.17546 2
      vertex 0.145898 3.47329 -2
      vertex 0.145898 3.47329 2
    endloop
  endfacet
  facet normal 0.790155 0.612907 0
    outer loop
      vertex 0.145898 3.47329 -2
      vertex 0.37692 3.17546 2
      vertex 0.37692 3.17546 -2
    endloop
  endfacet
  facet normal 0.891007 0.453991 0
    outer loop
      vertex -0.257839 4.10948 2
      vertex -0.428962 4.44532 -2
      vertex -0.428962 4.44532 2
    endloop
  endfacet
  facet normal 0.891007 0.453991 0
    outer loop
      vertex -0.428962 4.44532 -2
      vertex -0.257839 4.10948 2
      vertex -0.257839 4.10948 -2
    endloop
  endfacet
  facet normal 0.975917 0.218144 0
    outer loop
      vertex -0.811499 5.50786 2
      vertex -0.893723 5.87571 -2
      vertex -0.893723 5.87571 2
    endloop
  endfacet
  facet normal 0.975917 0.218144 0
    outer loop
      vertex -0.893723 5.87571 -2
      vertex -0.811499 5.50786 2
      vertex -0.811499 5.50786 -2
    endloop
  endfacet
  facet normal 0.960294 0.278991 0
    outer loop
      vertex -0.706339 5.1459 2
      vertex -0.811499 5.50786 -2
      vertex -0.811499 5.50786 2
    endloop
  endfacet
  facet normal 0.960294 0.278991 0
    outer loop
      vertex -0.811499 5.50786 -2
      vertex -0.706339 5.1459 2
      vertex -0.706339 5.1459 -2
    endloop
  endfacet
  facet normal 0.987689 0.156432 0
    outer loop
      vertex -0.893723 5.87571 2
      vertex -0.952687 6.248 -2
      vertex -0.952687 6.248 2
    endloop
  endfacet
  facet normal 0.987689 0.156432 0
    outer loop
      vertex -0.952687 6.248 -2
      vertex -0.893723 5.87571 2
      vertex -0.893723 5.87571 -2
    endloop
  endfacet
  facet normal 0.917755 -0.397148 0
    outer loop
      vertex -0.578658 9.20875 2
      vertex -0.428962 9.55468 -2
      vertex -0.428962 9.55468 2
    endloop
  endfacet
  facet normal 0.917755 -0.397148 0
    outer loop
      vertex -0.428962 9.55468 -2
      vertex -0.578658 9.20875 2
      vertex -0.578658 9.20875 -2
    endloop
  endfacet
  facet normal 0.612907 -0.790155 0
    outer loop
      vertex 1.17546 11.6231 -2
      vertex 1.47329 11.8541 2
      vertex 1.17546 11.6231 2
    endloop
  endfacet
  facet normal 0.612907 -0.790155 0
    outer loop
      vertex 1.47329 11.8541 2
      vertex 1.17546 11.6231 -2
      vertex 1.47329 11.8541 -2
    endloop
  endfacet
  facet normal 0.612907 0.790155 -0
    outer loop
      vertex 1.47329 2.1459 -2
      vertex 1.17546 2.37692 2
      vertex 1.47329 2.1459 2
    endloop
  endfacet
  facet normal 0.612907 0.790155 0
    outer loop
      vertex 1.17546 2.37692 2
      vertex 1.47329 2.1459 -2
      vertex 1.17546 2.37692 -2
    endloop
  endfacet
endsolid OpenSCAD_Model
