<?xml version="1.0" encoding="UTF-8" standalone="no"?>
<!DOCTYPE svg PUBLIC "-//W3C//DTD SVG 20010904//EN"
              "http://www.w3.org/TR/2001/REC-SVG-20010904/DTD/svg10.dtd">

<svg xmlns="http://www.w3.org/2000/svg"
     width="0.68in" height="0.726667in"
     viewBox="0 0 204 218">
  <path id="Selection"
        fill="none" stroke="black" stroke-width="1"
        d="M 173.58,25.72
           C 190.25,39.19 198.50,58.60 202.31,79.00
             203.63,86.06 204.48,87.22 203.91,95.00
             203.91,95.00 202.26,104.00 202.26,104.00
             199.04,121.27 194.72,132.23 183.39,146.00
             176.04,154.93 166.42,161.91 156.00,166.83
             140.79,174.02 131.59,175.13 115.00,175.00
             115.00,175.00 100.09,175.69 100.09,175.69
             100.09,175.69 89.00,169.80 89.00,169.80
             72.15,162.89 59.04,153.33 48.82,138.00
             33.36,114.80 30.63,81.34 42.31,56.00
             47.74,44.22 53.98,36.64 63.15,27.70
             65.79,25.13 69.17,21.12 72.04,19.14
             75.22,16.95 77.59,17.02 81.00,15.65
             90.13,12.00 97.14,9.05 107.00,7.43
             130.27,4.55 155.20,10.87 173.58,25.72 Z
           M 82.00,24.00
           C 82.00,24.00 82.00,27.00 82.00,27.00
             86.65,28.97 99.22,34.27 103.99,33.11
             106.96,32.39 109.00,29.42 111.00,27.29
             115.29,22.72 119.26,20.75 122.00,15.00
             105.75,15.00 96.70,16.46 82.00,24.00 Z
           M 155.00,23.64
           C 148.76,20.32 133.83,14.10 127.00,16.85
             123.38,18.32 118.84,23.06 116.18,25.96
             113.51,28.88 112.30,30.25 111.00,34.05
             120.52,36.71 137.83,34.55 148.00,34.05
             148.00,34.05 170.00,36.00 170.00,36.00
             167.04,30.04 160.71,26.68 155.00,23.64 Z
           M 87.00,33.19
           C 84.64,32.01 80.23,28.99 78.00,28.64
             74.43,28.08 71.47,30.88 69.00,33.05
             63.68,37.74 57.76,42.91 56.00,50.00
             56.00,50.00 78.00,49.00 78.00,49.00
             81.46,49.04 90.60,50.84 92.79,49.81
             95.64,48.47 99.75,40.94 101.00,38.00
             96.43,36.96 91.19,35.28 87.00,33.19 Z
           M 195.00,96.00
           C 195.18,80.54 194.22,60.79 181.00,50.39
             171.33,42.78 154.82,42.02 143.00,42.00
             143.00,42.00 123.00,41.00 123.00,41.00
             119.22,40.95 108.71,39.04 106.17,40.19
             102.57,41.83 99.32,48.42 98.00,52.00
             121.15,58.76 142.35,71.68 160.00,88.09
             160.00,88.09 179.02,107.00 179.02,107.00
             183.10,111.35 185.57,115.41 191.00,118.00
             192.85,109.80 194.89,104.88 195.00,96.00 Z
           M 64.00,53.00
           C 60.95,53.04 54.95,53.38 52.47,55.16
             49.88,57.01 47.68,63.93 46.67,67.00
             43.27,77.31 42.88,83.31 43.00,94.00
             43.06,98.50 43.25,103.32 46.00,107.00
             50.94,96.51 54.49,86.10 63.51,78.04
             66.43,75.43 70.12,73.18 73.96,72.31
             76.73,71.68 80.80,72.12 82.52,70.95
             84.73,69.45 89.16,57.94 90.00,55.00
             80.28,52.55 73.86,52.89 64.00,53.00 Z
           M 166.57,106.00
           C 166.57,106.00 152.91,91.83 152.91,91.83
             146.66,85.80 138.16,78.67 131.00,73.75
             123.46,68.56 115.43,64.03 107.00,60.43
             104.66,59.43 99.53,57.16 97.10,57.50
             92.93,58.08 89.52,68.26 89.47,71.96
             89.42,76.08 94.21,78.50 97.00,81.09
             104.22,87.78 106.98,92.90 112.05,101.00
             112.05,101.00 138.44,146.00 138.44,146.00
             140.74,149.29 147.10,158.37 151.01,159.06
             153.53,159.51 156.87,157.47 159.00,156.26
             165.27,152.70 170.30,148.24 175.15,142.96
             179.50,138.24 183.02,134.21 185.00,128.00
             185.00,128.00 166.57,106.00 166.57,106.00 Z
           M 75.00,125.00
           C 74.93,109.83 73.79,112.08 76.80,96.00
             76.80,96.00 80.04,82.02 80.04,82.02
             80.44,80.19 80.63,78.57 78.67,77.60
             74.92,75.76 68.88,79.26 66.01,81.53
             59.76,86.46 49.39,105.21 47.67,113.00
             46.71,117.39 49.79,123.21 51.86,127.00
             57.90,138.05 66.62,149.14 78.00,155.00
             78.00,155.00 75.00,125.00 75.00,125.00 Z
           M 82.99,102.00
           C 82.99,102.00 82.07,115.04 82.07,115.04
             82.02,123.06 84.33,136.09 86.26,144.00
             87.31,148.32 88.47,158.51 91.51,161.44
             93.59,163.45 100.06,164.92 103.00,165.58
             113.08,167.83 130.44,167.98 140.00,164.00
             140.00,164.00 123.64,137.00 123.64,137.00
             112.79,116.60 105.17,96.10 88.00,80.00
             83.86,85.17 83.17,95.48 82.99,102.00 Z" />
</svg>
