solid OpenSCAD_Model
  facet normal 0.994522 0.104525 0
    outer loop
      vertex 44.5 0 0.6
      vertex 43.5276 9.25207 -0.6
      vertex 43.5276 9.25207 0.6
    endloop
  endfacet
  facet normal 0.994522 0.104525 0
    outer loop
      vertex 43.5276 9.25207 -0.6
      vertex 44.5 0 0.6
      vertex 44.5 0 -0.6
    endloop
  endfacet
  facet normal 0.951057 0.309017 0
    outer loop
      vertex 43.5276 9.25207 0.6
      vertex 40.6528 18.0998 -0.6
      vertex 40.6528 18.0998 0.6
    endloop
  endfacet
  facet normal 0.951057 0.309017 0
    outer loop
      vertex 40.6528 18.0998 -0.6
      vertex 43.5276 9.25207 0.6
      vertex 43.5276 9.25207 -0.6
    endloop
  endfacet
  facet normal 0.866024 0.500002 0
    outer loop
      vertex 40.6528 18.0998 0.6
      vertex 36.0013 26.1564 -0.6
      vertex 36.0013 26.1564 0.6
    endloop
  endfacet
  facet normal 0.866024 0.500002 0
    outer loop
      vertex 36.0013 26.1564 -0.6
      vertex 40.6528 18.0998 0.6
      vertex 40.6528 18.0998 -0.6
    endloop
  endfacet
  facet normal 0.743142 0.669134 0
    outer loop
      vertex 36.0013 26.1564 0.6
      vertex 29.7763 33.0699 -0.6
      vertex 29.7763 33.0699 0.6
    endloop
  endfacet
  facet normal 0.743142 0.669134 0
    outer loop
      vertex 29.7763 33.0699 -0.6
      vertex 36.0013 26.1564 0.6
      vertex 36.0013 26.1564 -0.6
    endloop
  endfacet
  facet normal 0.587787 0.809016 -0
    outer loop
      vertex 29.7763 33.0699 -0.6
      vertex 22.25 38.5381 0.6
      vertex 29.7763 33.0699 0.6
    endloop
  endfacet
  facet normal 0.587787 0.809016 0
    outer loop
      vertex 22.25 38.5381 0.6
      vertex 29.7763 33.0699 -0.6
      vertex 22.25 38.5381 -0.6
    endloop
  endfacet
  facet normal 0.40674 0.913544 -0
    outer loop
      vertex 22.25 38.5381 -0.6
      vertex 13.7513 42.322 0.6
      vertex 22.25 38.5381 0.6
    endloop
  endfacet
  facet normal 0.40674 0.913544 0
    outer loop
      vertex 13.7513 42.322 0.6
      vertex 22.25 38.5381 -0.6
      vertex 13.7513 42.322 -0.6
    endloop
  endfacet
  facet normal 0.20791 0.978148 -0
    outer loop
      vertex 13.7513 42.322 -0.6
      vertex 4.65152 44.2562 0.6
      vertex 13.7513 42.322 0.6
    endloop
  endfacet
  facet normal 0.20791 0.978148 0
    outer loop
      vertex 4.65152 44.2562 0.6
      vertex 13.7513 42.322 -0.6
      vertex 4.65152 44.2562 -0.6
    endloop
  endfacet
  facet normal 0 1 -0
    outer loop
      vertex 4.65152 44.2562 -0.6
      vertex -4.65152 44.2562 0.6
      vertex 4.65152 44.2562 0.6
    endloop
  endfacet
  facet normal 0 1 0
    outer loop
      vertex -4.65152 44.2562 0.6
      vertex 4.65152 44.2562 -0.6
      vertex -4.65152 44.2562 -0.6
    endloop
  endfacet
  facet normal -0.20791 0.978148 0
    outer loop
      vertex -4.65152 44.2562 -0.6
      vertex -13.7513 42.322 0.6
      vertex -4.65152 44.2562 0.6
    endloop
  endfacet
  facet normal -0.20791 0.978148 0
    outer loop
      vertex -13.7513 42.322 0.6
      vertex -4.65152 44.2562 -0.6
      vertex -13.7513 42.322 -0.6
    endloop
  endfacet
  facet normal -0.40674 0.913544 0
    outer loop
      vertex -13.7513 42.322 -0.6
      vertex -22.25 38.5381 0.6
      vertex -13.7513 42.322 0.6
    endloop
  endfacet
  facet normal -0.40674 0.913544 0
    outer loop
      vertex -22.25 38.5381 0.6
      vertex -13.7513 42.322 -0.6
      vertex -22.25 38.5381 -0.6
    endloop
  endfacet
  facet normal -0.587787 0.809016 0
    outer loop
      vertex -22.25 38.5381 -0.6
      vertex -29.7763 33.0699 0.6
      vertex -22.25 38.5381 0.6
    endloop
  endfacet
  facet normal -0.587787 0.809016 0
    outer loop
      vertex -29.7763 33.0699 0.6
      vertex -22.25 38.5381 -0.6
      vertex -29.7763 33.0699 -0.6
    endloop
  endfacet
  facet normal -0.743142 0.669134 0
    outer loop
      vertex -36.0013 26.1564 -0.6
      vertex -29.7763 33.0699 0.6
      vertex -29.7763 33.0699 -0.6
    endloop
  endfacet
  facet normal -0.743142 0.669134 0
    outer loop
      vertex -29.7763 33.0699 0.6
      vertex -36.0013 26.1564 -0.6
      vertex -36.0013 26.1564 0.6
    endloop
  endfacet
  facet normal -0.866024 0.500002 0
    outer loop
      vertex -40.6528 18.0998 -0.6
      vertex -36.0013 26.1564 0.6
      vertex -36.0013 26.1564 -0.6
    endloop
  endfacet
  facet normal -0.866024 0.500002 0
    outer loop
      vertex -36.0013 26.1564 0.6
      vertex -40.6528 18.0998 -0.6
      vertex -40.6528 18.0998 0.6
    endloop
  endfacet
  facet normal -0.951057 0.309017 0
    outer loop
      vertex -43.5276 9.25207 -0.6
      vertex -40.6528 18.0998 0.6
      vertex -40.6528 18.0998 -0.6
    endloop
  endfacet
  facet normal -0.951057 0.309017 0
    outer loop
      vertex -40.6528 18.0998 0.6
      vertex -43.5276 9.25207 -0.6
      vertex -43.5276 9.25207 0.6
    endloop
  endfacet
  facet normal -0.994522 0.104525 0
    outer loop
      vertex -44.5 2.52116e-14 -0.6
      vertex -43.5276 9.25207 0.6
      vertex -43.5276 9.25207 -0.6
    endloop
  endfacet
  facet normal -0.994522 0.104525 0
    outer loop
      vertex -43.5276 9.25207 0.6
      vertex -44.5 2.52116e-14 -0.6
      vertex -44.5 2.52116e-14 0.6
    endloop
  endfacet
  facet normal -0.994522 -0.104525 0
    outer loop
      vertex -43.5276 -9.25207 -0.6
      vertex -44.5 2.52116e-14 0.6
      vertex -44.5 2.52116e-14 -0.6
    endloop
  endfacet
  facet normal -0.994522 -0.104525 0
    outer loop
      vertex -44.5 2.52116e-14 0.6
      vertex -43.5276 -9.25207 -0.6
      vertex -43.5276 -9.25207 0.6
    endloop
  endfacet
  facet normal -0.951057 -0.309017 0
    outer loop
      vertex -40.6528 -18.0998 -0.6
      vertex -43.5276 -9.25207 0.6
      vertex -43.5276 -9.25207 -0.6
    endloop
  endfacet
  facet normal -0.951057 -0.309017 0
    outer loop
      vertex -43.5276 -9.25207 0.6
      vertex -40.6528 -18.0998 -0.6
      vertex -40.6528 -18.0998 0.6
    endloop
  endfacet
  facet normal -0.866024 -0.500002 0
    outer loop
      vertex -36.0013 -26.1564 -0.6
      vertex -40.6528 -18.0998 0.6
      vertex -40.6528 -18.0998 -0.6
    endloop
  endfacet
  facet normal -0.866024 -0.500002 0
    outer loop
      vertex -40.6528 -18.0998 0.6
      vertex -36.0013 -26.1564 -0.6
      vertex -36.0013 -26.1564 0.6
    endloop
  endfacet
  facet normal -0.743142 -0.669134 0
    outer loop
      vertex -29.7763 -33.0699 -0.6
      vertex -36.0013 -26.1564 0.6
      vertex -36.0013 -26.1564 -0.6
    endloop
  endfacet
  facet normal -0.743142 -0.669134 0
    outer loop
      vertex -36.0013 -26.1564 0.6
      vertex -29.7763 -33.0699 -0.6
      vertex -29.7763 -33.0699 0.6
    endloop
  endfacet
  facet normal -0.587787 -0.809016 0
    outer loop
      vertex -29.7763 -33.0699 -0.6
      vertex -22.25 -38.5381 0.6
      vertex -29.7763 -33.0699 0.6
    endloop
  endfacet
  facet normal -0.587787 -0.809016 -0
    outer loop
      vertex -22.25 -38.5381 0.6
      vertex -29.7763 -33.0699 -0.6
      vertex -22.25 -38.5381 -0.6
    endloop
  endfacet
  facet normal -0.40674 -0.913544 0
    outer loop
      vertex -22.25 -38.5381 -0.6
      vertex -13.7513 -42.322 0.6
      vertex -22.25 -38.5381 0.6
    endloop
  endfacet
  facet normal -0.40674 -0.913544 -0
    outer loop
      vertex -13.7513 -42.322 0.6
      vertex -22.25 -38.5381 -0.6
      vertex -13.7513 -42.322 -0.6
    endloop
  endfacet
  facet normal -0.20791 -0.978148 0
    outer loop
      vertex -13.7513 -42.322 -0.6
      vertex -4.65152 -44.2562 0.6
      vertex -13.7513 -42.322 0.6
    endloop
  endfacet
  facet normal -0.20791 -0.978148 -0
    outer loop
      vertex -4.65152 -44.2562 0.6
      vertex -13.7513 -42.322 -0.6
      vertex -4.65152 -44.2562 -0.6
    endloop
  endfacet
  facet normal 0 -1 0
    outer loop
      vertex -4.65152 -44.2562 -0.6
      vertex 4.65152 -44.2562 0.6
      vertex -4.65152 -44.2562 0.6
    endloop
  endfacet
  facet normal 0 -1 -0
    outer loop
      vertex 4.65152 -44.2562 0.6
      vertex -4.65152 -44.2562 -0.6
      vertex 4.65152 -44.2562 -0.6
    endloop
  endfacet
  facet normal 0.20791 -0.978148 0
    outer loop
      vertex 4.65152 -44.2562 -0.6
      vertex 13.7513 -42.322 0.6
      vertex 4.65152 -44.2562 0.6
    endloop
  endfacet
  facet normal 0.20791 -0.978148 0
    outer loop
      vertex 13.7513 -42.322 0.6
      vertex 4.65152 -44.2562 -0.6
      vertex 13.7513 -42.322 -0.6
    endloop
  endfacet
  facet normal 0.40674 -0.913544 0
    outer loop
      vertex 13.7513 -42.322 -0.6
      vertex 22.25 -38.5381 0.6
      vertex 13.7513 -42.322 0.6
    endloop
  endfacet
  facet normal 0.40674 -0.913544 0
    outer loop
      vertex 22.25 -38.5381 0.6
      vertex 13.7513 -42.322 -0.6
      vertex 22.25 -38.5381 -0.6
    endloop
  endfacet
  facet normal 0.587787 -0.809016 0
    outer loop
      vertex 22.25 -38.5381 -0.6
      vertex 29.7763 -33.0699 0.6
      vertex 22.25 -38.5381 0.6
    endloop
  endfacet
  facet normal 0.587787 -0.809016 0
    outer loop
      vertex 29.7763 -33.0699 0.6
      vertex 22.25 -38.5381 -0.6
      vertex 29.7763 -33.0699 -0.6
    endloop
  endfacet
  facet normal 0.743142 -0.669134 0
    outer loop
      vertex 29.7763 -33.0699 0.6
      vertex 36.0013 -26.1564 -0.6
      vertex 36.0013 -26.1564 0.6
    endloop
  endfacet
  facet normal 0.743142 -0.669134 0
    outer loop
      vertex 36.0013 -26.1564 -0.6
      vertex 29.7763 -33.0699 0.6
      vertex 29.7763 -33.0699 -0.6
    endloop
  endfacet
  facet normal 0.866024 -0.500002 0
    outer loop
      vertex 36.0013 -26.1564 0.6
      vertex 40.6528 -18.0998 -0.6
      vertex 40.6528 -18.0998 0.6
    endloop
  endfacet
  facet normal 0.866024 -0.500002 0
    outer loop
      vertex 40.6528 -18.0998 -0.6
      vertex 36.0013 -26.1564 0.6
      vertex 36.0013 -26.1564 -0.6
    endloop
  endfacet
  facet normal 0.951057 -0.309017 0
    outer loop
      vertex 40.6528 -18.0998 0.6
      vertex 43.5276 -9.25207 -0.6
      vertex 43.5276 -9.25207 0.6
    endloop
  endfacet
  facet normal 0.951057 -0.309017 0
    outer loop
      vertex 43.5276 -9.25207 -0.6
      vertex 40.6528 -18.0998 0.6
      vertex 40.6528 -18.0998 -0.6
    endloop
  endfacet
  facet normal 0.994522 -0.104525 0
    outer loop
      vertex 43.5276 -9.25207 0.6
      vertex 44.5 0 -0.6
      vertex 44.5 0 0.6
    endloop
  endfacet
  facet normal 0.994522 -0.104525 0
    outer loop
      vertex 44.5 0 -0.6
      vertex 43.5276 -9.25207 0.6
      vertex 43.5276 -9.25207 -0.6
    endloop
  endfacet
  facet normal 0 0 -1
    outer loop
      vertex 43.5276 -9.25207 -0.6
      vertex 43.5276 9.25207 -0.6
      vertex 44.5 0 -0.6
    endloop
  endfacet
  facet normal 0 0 -1
    outer loop
      vertex 40.6528 -18.0998 -0.6
      vertex 43.5276 9.25207 -0.6
      vertex 43.5276 -9.25207 -0.6
    endloop
  endfacet
  facet normal 0 0 -1
    outer loop
      vertex 40.6528 -18.0998 -0.6
      vertex 40.6528 18.0998 -0.6
      vertex 43.5276 9.25207 -0.6
    endloop
  endfacet
  facet normal 0 0 -1
    outer loop
      vertex 36.0013 -26.1564 -0.6
      vertex 40.6528 18.0998 -0.6
      vertex 40.6528 -18.0998 -0.6
    endloop
  endfacet
  facet normal 0 0 -1
    outer loop
      vertex 36.0013 -26.1564 -0.6
      vertex 36.0013 26.1564 -0.6
      vertex 40.6528 18.0998 -0.6
    endloop
  endfacet
  facet normal 0 0 -1
    outer loop
      vertex 29.7763 -33.0699 -0.6
      vertex 36.0013 26.1564 -0.6
      vertex 36.0013 -26.1564 -0.6
    endloop
  endfacet
  facet normal 0 0 -1
    outer loop
      vertex 29.7763 -33.0699 -0.6
      vertex 29.7763 33.0699 -0.6
      vertex 36.0013 26.1564 -0.6
    endloop
  endfacet
  facet normal 0 0 -1
    outer loop
      vertex 22.25 -38.5381 -0.6
      vertex 29.7763 33.0699 -0.6
      vertex 29.7763 -33.0699 -0.6
    endloop
  endfacet
  facet normal 0 0 -1
    outer loop
      vertex 22.25 -38.5381 -0.6
      vertex 22.25 38.5381 -0.6
      vertex 29.7763 33.0699 -0.6
    endloop
  endfacet
  facet normal 0 0 -1
    outer loop
      vertex 13.7513 -42.322 -0.6
      vertex 22.25 38.5381 -0.6
      vertex 22.25 -38.5381 -0.6
    endloop
  endfacet
  facet normal 0 0 -1
    outer loop
      vertex 13.7513 -42.322 -0.6
      vertex 13.7513 42.322 -0.6
      vertex 22.25 38.5381 -0.6
    endloop
  endfacet
  facet normal 0 0 -1
    outer loop
      vertex 4.65152 -44.2562 -0.6
      vertex 13.7513 42.322 -0.6
      vertex 13.7513 -42.322 -0.6
    endloop
  endfacet
  facet normal 0 0 -1
    outer loop
      vertex 4.65152 -44.2562 -0.6
      vertex 4.65152 44.2562 -0.6
      vertex 13.7513 42.322 -0.6
    endloop
  endfacet
  facet normal 0 0 -1
    outer loop
      vertex -4.65152 -44.2562 -0.6
      vertex 4.65152 44.2562 -0.6
      vertex 4.65152 -44.2562 -0.6
    endloop
  endfacet
  facet normal 0 0 -1
    outer loop
      vertex -4.65152 -44.2562 -0.6
      vertex -4.65152 44.2562 -0.6
      vertex 4.65152 44.2562 -0.6
    endloop
  endfacet
  facet normal 0 0 -1
    outer loop
      vertex -13.7513 -42.322 -0.6
      vertex -4.65152 44.2562 -0.6
      vertex -4.65152 -44.2562 -0.6
    endloop
  endfacet
  facet normal 0 0 -1
    outer loop
      vertex -13.7513 -42.322 -0.6
      vertex -13.7513 42.322 -0.6
      vertex -4.65152 44.2562 -0.6
    endloop
  endfacet
  facet normal 0 0 -1
    outer loop
      vertex -22.25 -38.5381 -0.6
      vertex -13.7513 42.322 -0.6
      vertex -13.7513 -42.322 -0.6
    endloop
  endfacet
  facet normal 0 0 -1
    outer loop
      vertex -22.25 -38.5381 -0.6
      vertex -22.25 38.5381 -0.6
      vertex -13.7513 42.322 -0.6
    endloop
  endfacet
  facet normal 0 0 -1
    outer loop
      vertex -29.7763 -33.0699 -0.6
      vertex -22.25 38.5381 -0.6
      vertex -22.25 -38.5381 -0.6
    endloop
  endfacet
  facet normal 0 0 -1
    outer loop
      vertex -29.7763 -33.0699 -0.6
      vertex -29.7763 33.0699 -0.6
      vertex -22.25 38.5381 -0.6
    endloop
  endfacet
  facet normal 0 0 -1
    outer loop
      vertex -36.0013 -26.1564 -0.6
      vertex -29.7763 33.0699 -0.6
      vertex -29.7763 -33.0699 -0.6
    endloop
  endfacet
  facet normal 0 0 -1
    outer loop
      vertex -36.0013 -26.1564 -0.6
      vertex -36.0013 26.1564 -0.6
      vertex -29.7763 33.0699 -0.6
    endloop
  endfacet
  facet normal 0 0 -1
    outer loop
      vertex -40.6528 -18.0998 -0.6
      vertex -36.0013 26.1564 -0.6
      vertex -36.0013 -26.1564 -0.6
    endloop
  endfacet
  facet normal 0 0 -1
    outer loop
      vertex -40.6528 -18.0998 -0.6
      vertex -40.6528 18.0998 -0.6
      vertex -36.0013 26.1564 -0.6
    endloop
  endfacet
  facet normal 0 0 -1
    outer loop
      vertex -43.5276 -9.25207 -0.6
      vertex -40.6528 18.0998 -0.6
      vertex -40.6528 -18.0998 -0.6
    endloop
  endfacet
  facet normal 0 0 -1
    outer loop
      vertex -43.5276 -9.25207 -0.6
      vertex -43.5276 9.25207 -0.6
      vertex -40.6528 18.0998 -0.6
    endloop
  endfacet
  facet normal 0 -0 -1
    outer loop
      vertex -43.5276 9.25207 -0.6
      vertex -43.5276 -9.25207 -0.6
      vertex -44.5 2.52116e-14 -0.6
    endloop
  endfacet
  facet normal 0 0 1
    outer loop
      vertex 43.5276 9.25207 0.6
      vertex 43.5276 -9.25207 0.6
      vertex 44.5 0 0.6
    endloop
  endfacet
  facet normal 0 0 1
    outer loop
      vertex 40.6528 18.0998 0.6
      vertex 43.5276 -9.25207 0.6
      vertex 43.5276 9.25207 0.6
    endloop
  endfacet
  facet normal 0 0 1
    outer loop
      vertex 40.6528 18.0998 0.6
      vertex 40.6528 -18.0998 0.6
      vertex 43.5276 -9.25207 0.6
    endloop
  endfacet
  facet normal 0 0 1
    outer loop
      vertex 36.0013 26.1564 0.6
      vertex 40.6528 -18.0998 0.6
      vertex 40.6528 18.0998 0.6
    endloop
  endfacet
  facet normal 0 0 1
    outer loop
      vertex 36.0013 26.1564 0.6
      vertex 36.0013 -26.1564 0.6
      vertex 40.6528 -18.0998 0.6
    endloop
  endfacet
  facet normal 0 0 1
    outer loop
      vertex 29.7763 33.0699 0.6
      vertex 36.0013 -26.1564 0.6
      vertex 36.0013 26.1564 0.6
    endloop
  endfacet
  facet normal 0 0 1
    outer loop
      vertex 29.7763 33.0699 0.6
      vertex 29.7763 -33.0699 0.6
      vertex 36.0013 -26.1564 0.6
    endloop
  endfacet
  facet normal 0 0 1
    outer loop
      vertex 22.25 38.5381 0.6
      vertex 29.7763 -33.0699 0.6
      vertex 29.7763 33.0699 0.6
    endloop
  endfacet
  facet normal 0 0 1
    outer loop
      vertex 22.25 38.5381 0.6
      vertex 22.25 -38.5381 0.6
      vertex 29.7763 -33.0699 0.6
    endloop
  endfacet
  facet normal 0 0 1
    outer loop
      vertex 13.7513 42.322 0.6
      vertex 22.25 -38.5381 0.6
      vertex 22.25 38.5381 0.6
    endloop
  endfacet
  facet normal 0 0 1
    outer loop
      vertex 13.7513 42.322 0.6
      vertex 13.7513 -42.322 0.6
      vertex 22.25 -38.5381 0.6
    endloop
  endfacet
  facet normal 0 0 1
    outer loop
      vertex 4.65152 44.2562 0.6
      vertex 13.7513 -42.322 0.6
      vertex 13.7513 42.322 0.6
    endloop
  endfacet
  facet normal 0 0 1
    outer loop
      vertex 4.65152 44.2562 0.6
      vertex 4.65152 -44.2562 0.6
      vertex 13.7513 -42.322 0.6
    endloop
  endfacet
  facet normal -0 0 1
    outer loop
      vertex -4.65152 44.2562 0.6
      vertex 4.65152 -44.2562 0.6
      vertex 4.65152 44.2562 0.6
    endloop
  endfacet
  facet normal 0 0 1
    outer loop
      vertex -4.65152 44.2562 0.6
      vertex -4.65152 -44.2562 0.6
      vertex 4.65152 -44.2562 0.6
    endloop
  endfacet
  facet normal -0 0 1
    outer loop
      vertex -13.7513 42.322 0.6
      vertex -4.65152 -44.2562 0.6
      vertex -4.65152 44.2562 0.6
    endloop
  endfacet
  facet normal 0 0 1
    outer loop
      vertex -13.7513 42.322 0.6
      vertex -13.7513 -42.322 0.6
      vertex -4.65152 -44.2562 0.6
    endloop
  endfacet
  facet normal -0 0 1
    outer loop
      vertex -22.25 38.5381 0.6
      vertex -13.7513 -42.322 0.6
      vertex -13.7513 42.322 0.6
    endloop
  endfacet
  facet normal 0 0 1
    outer loop
      vertex -22.25 38.5381 0.6
      vertex -22.25 -38.5381 0.6
      vertex -13.7513 -42.322 0.6
    endloop
  endfacet
  facet normal -0 0 1
    outer loop
      vertex -29.7763 33.0699 0.6
      vertex -22.25 -38.5381 0.6
      vertex -22.25 38.5381 0.6
    endloop
  endfacet
  facet normal 0 0 1
    outer loop
      vertex -29.7763 33.0699 0.6
      vertex -29.7763 -33.0699 0.6
      vertex -22.25 -38.5381 0.6
    endloop
  endfacet
  facet normal -0 0 1
    outer loop
      vertex -36.0013 26.1564 0.6
      vertex -29.7763 -33.0699 0.6
      vertex -29.7763 33.0699 0.6
    endloop
  endfacet
  facet normal 0 0 1
    outer loop
      vertex -36.0013 26.1564 0.6
      vertex -36.0013 -26.1564 0.6
      vertex -29.7763 -33.0699 0.6
    endloop
  endfacet
  facet normal -0 0 1
    outer loop
      vertex -40.6528 18.0998 0.6
      vertex -36.0013 -26.1564 0.6
      vertex -36.0013 26.1564 0.6
    endloop
  endfacet
  facet normal 0 0 1
    outer loop
      vertex -40.6528 18.0998 0.6
      vertex -40.6528 -18.0998 0.6
      vertex -36.0013 -26.1564 0.6
    endloop
  endfacet
  facet normal -0 0 1
    outer loop
      vertex -43.5276 9.25207 0.6
      vertex -40.6528 -18.0998 0.6
      vertex -40.6528 18.0998 0.6
    endloop
  endfacet
  facet normal 0 0 1
    outer loop
      vertex -43.5276 9.25207 0.6
      vertex -43.5276 -9.25207 0.6
      vertex -40.6528 -18.0998 0.6
    endloop
  endfacet
  facet normal 0 -0 1
    outer loop
      vertex -43.5276 -9.25207 0.6
      vertex -43.5276 9.25207 0.6
      vertex -44.5 2.52116e-14 0.6
    endloop
  endfacet
endsolid OpenSCAD_Model
