solid OpenSCAD_Model
  facet normal 0.995681 0.0783622 0.0497841
    outer loop
      vertex 39.0137 6.17916 0
      vertex 37 0 50
      vertex 39.5 0 0
    endloop
  endfacet
  facet normal -0.0783622 -0.995681 0.0497841
    outer loop
      vertex 0 -37 50
      vertex -6.17916 -39.0137 0
      vertex 0 -39.5 0
    endloop
  endfacet
  facet normal -0.995681 -0.0783622 0.0497841
    outer loop
      vertex -37 0 50
      vertex -39.5 0 0
      vertex -39.0137 -6.17916 0
    endloop
  endfacet
  facet normal -0.0783622 0.995681 0.0497841
    outer loop
      vertex 0 39.5 0
      vertex -6.17916 39.0137 0
      vertex 0 37 50
    endloop
  endfacet
  facet normal -0.971164 -0.233156 0.049784
    outer loop
      vertex -36.5445 -5.78807 50
      vertex -39.0137 -6.17916 0
      vertex -35.1891 -11.4336 50
    endloop
  endfacet
  facet normal 0.648643 0.759463 0.0497841
    outer loop
      vertex 27.9307 27.9307 0
      vertex 23.2175 31.9562 0
      vertex 26.163 26.163 50
    endloop
  endfacet
  facet normal -0.995681 0.0783622 0.0497841
    outer loop
      vertex -39.0137 6.17916 0
      vertex -39.5 0 0
      vertex -37 0 50
    endloop
  endfacet
  facet normal -0.521851 0.851583 0.0497841
    outer loop
      vertex -16.7976 32.9672 50
      vertex -23.2175 31.9562 0
      vertex -21.7481 29.9336 50
    endloop
  endfacet
  facet normal 0 0 -1
    outer loop
      vertex 27 0 0
      vertex 39.5 0 0
      vertex 39.0137 -6.17916 0
    endloop
  endfacet
  facet normal 0 0 -1
    outer loop
      vertex 26.41 -5.61362 0
      vertex 39.0137 -6.17916 0
      vertex 37.5667 -12.2062 0
    endloop
  endfacet
  facet normal 0 0 -1
    outer loop
      vertex 39.5 0 0
      vertex 27 0 0
      vertex 39.0137 6.17916 0
    endloop
  endfacet
  facet normal 0 0 -1
    outer loop
      vertex 24.6657 -10.9819 0
      vertex 37.5667 -12.2062 0
      vertex 35.1948 -17.9326 0
    endloop
  endfacet
  facet normal 0 0 -1
    outer loop
      vertex 26.41 5.61362 0
      vertex 39.0137 6.17916 0
      vertex 27 0 0
    endloop
  endfacet
  facet normal 0 0 -1
    outer loop
      vertex 21.8435 -15.8702 0
      vertex 35.1948 -17.9326 0
      vertex 31.9562 -23.2175 0
    endloop
  endfacet
  facet normal -0 0 -1
    outer loop
      vertex 39.0137 6.17916 0
      vertex 26.41 5.61362 0
      vertex 37.5667 12.2062 0
    endloop
  endfacet
  facet normal 0 0 -1
    outer loop
      vertex 21.8435 -15.8702 0
      vertex 31.9562 -23.2175 0
      vertex 27.9307 -27.9307 0
    endloop
  endfacet
  facet normal 0 0 -1
    outer loop
      vertex 24.6657 10.9819 0
      vertex 37.5667 12.2062 0
      vertex 26.41 5.61362 0
    endloop
  endfacet
  facet normal -0 0 -1
    outer loop
      vertex 37.5667 12.2062 0
      vertex 24.6657 10.9819 0
      vertex 35.1948 17.9326 0
    endloop
  endfacet
  facet normal 0 0 -1
    outer loop
      vertex 39.0137 -6.17916 0
      vertex 26.41 -5.61362 0
      vertex 27 0 0
    endloop
  endfacet
  facet normal 0 0 -1
    outer loop
      vertex 37.5667 -12.2062 0
      vertex 24.6657 -10.9819 0
      vertex 26.41 -5.61362 0
    endloop
  endfacet
  facet normal 0 0 -1
    outer loop
      vertex 18.0665 -20.0649 0
      vertex 27.9307 -27.9307 0
      vertex 23.2175 -31.9562 0
    endloop
  endfacet
  facet normal 0 0 -1
    outer loop
      vertex 35.1948 -17.9326 0
      vertex 21.8435 -15.8702 0
      vertex 24.6657 -10.9819 0
    endloop
  endfacet
  facet normal 0 0 -1
    outer loop
      vertex 27.9307 -27.9307 0
      vertex 18.0665 -20.0649 0
      vertex 21.8435 -15.8702 0
    endloop
  endfacet
  facet normal 0 0 -1
    outer loop
      vertex 13.5 -23.3827 0
      vertex 23.2175 -31.9562 0
      vertex 17.9326 -35.1948 0
    endloop
  endfacet
  facet normal 0 0 -1
    outer loop
      vertex 23.2175 -31.9562 0
      vertex 13.5 -23.3827 0
      vertex 18.0665 -20.0649 0
    endloop
  endfacet
  facet normal 0 0 -1
    outer loop
      vertex 8.34346 -25.6785 0
      vertex 17.9326 -35.1948 0
      vertex 12.2062 -37.5667 0
    endloop
  endfacet
  facet normal 0 0 -1
    outer loop
      vertex 17.9326 -35.1948 0
      vertex 8.34346 -25.6785 0
      vertex 13.5 -23.3827 0
    endloop
  endfacet
  facet normal 0 0 -1
    outer loop
      vertex 6.17916 -39.0137 0
      vertex 8.34346 -25.6785 0
      vertex 12.2062 -37.5667 0
    endloop
  endfacet
  facet normal 0 0 -1
    outer loop
      vertex 6.17916 -39.0137 0
      vertex 2.82227 -26.8521 0
      vertex 8.34346 -25.6785 0
    endloop
  endfacet
  facet normal 0 0 -1
    outer loop
      vertex 0 -39.5 0
      vertex 2.82227 -26.8521 0
      vertex 6.17916 -39.0137 0
    endloop
  endfacet
  facet normal 0 0 -1
    outer loop
      vertex 0 -39.5 0
      vertex -2.82227 -26.8521 0
      vertex 2.82227 -26.8521 0
    endloop
  endfacet
  facet normal 0 0 -1
    outer loop
      vertex -6.17916 -39.0137 0
      vertex -2.82227 -26.8521 0
      vertex 0 -39.5 0
    endloop
  endfacet
  facet normal 0 0 -1
    outer loop
      vertex -6.17916 -39.0137 0
      vertex -8.34346 -25.6785 0
      vertex -2.82227 -26.8521 0
    endloop
  endfacet
  facet normal 0 0 -1
    outer loop
      vertex -12.2062 -37.5667 0
      vertex -8.34346 -25.6785 0
      vertex -6.17916 -39.0137 0
    endloop
  endfacet
  facet normal 0 0 -1
    outer loop
      vertex -17.9326 -35.1948 0
      vertex -8.34346 -25.6785 0
      vertex -12.2062 -37.5667 0
    endloop
  endfacet
  facet normal -0 0 -1
    outer loop
      vertex -8.34346 -25.6785 0
      vertex -17.9326 -35.1948 0
      vertex -13.5 -23.3827 0
    endloop
  endfacet
  facet normal 0 0 -1
    outer loop
      vertex -23.2175 -31.9562 0
      vertex -13.5 -23.3827 0
      vertex -17.9326 -35.1948 0
    endloop
  endfacet
  facet normal -0 0 -1
    outer loop
      vertex -13.5 -23.3827 0
      vertex -23.2175 -31.9562 0
      vertex -18.0665 -20.0649 0
    endloop
  endfacet
  facet normal 0 0 -1
    outer loop
      vertex -27.9307 -27.9307 0
      vertex -18.0665 -20.0649 0
      vertex -23.2175 -31.9562 0
    endloop
  endfacet
  facet normal -0 0 -1
    outer loop
      vertex -18.0665 -20.0649 0
      vertex -27.9307 -27.9307 0
      vertex -21.8435 -15.8702 0
    endloop
  endfacet
  facet normal 0 0 -1
    outer loop
      vertex -31.9562 -23.2175 0
      vertex -21.8435 -15.8702 0
      vertex -27.9307 -27.9307 0
    endloop
  endfacet
  facet normal -0 0 -1
    outer loop
      vertex -21.8435 -15.8702 0
      vertex -35.1948 -17.9326 0
      vertex -24.6657 -10.9819 0
    endloop
  endfacet
  facet normal 0 0 -1
    outer loop
      vertex -35.1948 -17.9326 0
      vertex -21.8435 -15.8702 0
      vertex -31.9562 -23.2175 0
    endloop
  endfacet
  facet normal 0 0 -1
    outer loop
      vertex 21.8435 15.8702 0
      vertex 35.1948 17.9326 0
      vertex 24.6657 10.9819 0
    endloop
  endfacet
  facet normal -0 0 -1
    outer loop
      vertex 35.1948 17.9326 0
      vertex 21.8435 15.8702 0
      vertex 31.9562 23.2175 0
    endloop
  endfacet
  facet normal -0 0 -1
    outer loop
      vertex 31.9562 23.2175 0
      vertex 21.8435 15.8702 0
      vertex 27.9307 27.9307 0
    endloop
  endfacet
  facet normal 0 0 -1
    outer loop
      vertex 18.0665 20.0649 0
      vertex 27.9307 27.9307 0
      vertex 21.8435 15.8702 0
    endloop
  endfacet
  facet normal -0 0 -1
    outer loop
      vertex 27.9307 27.9307 0
      vertex 18.0665 20.0649 0
      vertex 23.2175 31.9562 0
    endloop
  endfacet
  facet normal 0 0 -1
    outer loop
      vertex 13.5 23.3827 0
      vertex 23.2175 31.9562 0
      vertex 18.0665 20.0649 0
    endloop
  endfacet
  facet normal -0 0 -1
    outer loop
      vertex 23.2175 31.9562 0
      vertex 13.5 23.3827 0
      vertex 17.9326 35.1948 0
    endloop
  endfacet
  facet normal 0 0 -1
    outer loop
      vertex 8.34346 25.6785 0
      vertex 17.9326 35.1948 0
      vertex 13.5 23.3827 0
    endloop
  endfacet
  facet normal -0 0 -1
    outer loop
      vertex 17.9326 35.1948 0
      vertex 8.34346 25.6785 0
      vertex 12.2062 37.5667 0
    endloop
  endfacet
  facet normal 0 0 -1
    outer loop
      vertex 8.34346 25.6785 0
      vertex 6.17916 39.0137 0
      vertex 12.2062 37.5667 0
    endloop
  endfacet
  facet normal 0 0 -1
    outer loop
      vertex 2.82227 26.8521 0
      vertex 6.17916 39.0137 0
      vertex 8.34346 25.6785 0
    endloop
  endfacet
  facet normal 0 0 -1
    outer loop
      vertex 2.82227 26.8521 0
      vertex 0 39.5 0
      vertex 6.17916 39.0137 0
    endloop
  endfacet
  facet normal 0 0 -1
    outer loop
      vertex -2.82227 26.8521 0
      vertex 0 39.5 0
      vertex 2.82227 26.8521 0
    endloop
  endfacet
  facet normal 0 0 -1
    outer loop
      vertex -2.82227 26.8521 0
      vertex -6.17916 39.0137 0
      vertex 0 39.5 0
    endloop
  endfacet
  facet normal 0 0 -1
    outer loop
      vertex -8.34346 25.6785 0
      vertex -6.17916 39.0137 0
      vertex -2.82227 26.8521 0
    endloop
  endfacet
  facet normal 0 0 -1
    outer loop
      vertex -8.34346 25.6785 0
      vertex -12.2062 37.5667 0
      vertex -6.17916 39.0137 0
    endloop
  endfacet
  facet normal 0 0 -1
    outer loop
      vertex -17.9326 35.1948 0
      vertex -8.34346 25.6785 0
      vertex -13.5 23.3827 0
    endloop
  endfacet
  facet normal 0 0 -1
    outer loop
      vertex -8.34346 25.6785 0
      vertex -17.9326 35.1948 0
      vertex -12.2062 37.5667 0
    endloop
  endfacet
  facet normal 0 0 -1
    outer loop
      vertex -23.2175 31.9562 0
      vertex -13.5 23.3827 0
      vertex -18.0665 20.0649 0
    endloop
  endfacet
  facet normal 0 0 -1
    outer loop
      vertex -27.9307 27.9307 0
      vertex -18.0665 20.0649 0
      vertex -21.8435 15.8702 0
    endloop
  endfacet
  facet normal 0 0 -1
    outer loop
      vertex -13.5 23.3827 0
      vertex -23.2175 31.9562 0
      vertex -17.9326 35.1948 0
    endloop
  endfacet
  facet normal 0 0 -1
    outer loop
      vertex -35.1948 17.9326 0
      vertex -21.8435 15.8702 0
      vertex -24.6657 10.9819 0
    endloop
  endfacet
  facet normal 0 0 -1
    outer loop
      vertex -37.5667 12.2062 0
      vertex -24.6657 10.9819 0
      vertex -26.41 5.61362 0
    endloop
  endfacet
  facet normal 0 0 -1
    outer loop
      vertex -18.0665 20.0649 0
      vertex -27.9307 27.9307 0
      vertex -23.2175 31.9562 0
    endloop
  endfacet
  facet normal 0 0 -1
    outer loop
      vertex -39.0137 6.17916 0
      vertex -26.41 5.61362 0
      vertex -27 0 0
    endloop
  endfacet
  facet normal 0 0 -1
    outer loop
      vertex -37.5667 -12.2062 0
      vertex -24.6657 -10.9819 0
      vertex -35.1948 -17.9326 0
    endloop
  endfacet
  facet normal -0 0 -1
    outer loop
      vertex -24.6657 -10.9819 0
      vertex -37.5667 -12.2062 0
      vertex -26.41 -5.61362 0
    endloop
  endfacet
  facet normal 0 0 -1
    outer loop
      vertex -21.8435 15.8702 0
      vertex -31.9562 23.2175 0
      vertex -27.9307 27.9307 0
    endloop
  endfacet
  facet normal 0 0 -1
    outer loop
      vertex -39.0137 -6.17916 0
      vertex -26.41 -5.61362 0
      vertex -37.5667 -12.2062 0
    endloop
  endfacet
  facet normal 0 0 -1
    outer loop
      vertex -21.8435 15.8702 0
      vertex -35.1948 17.9326 0
      vertex -31.9562 23.2175 0
    endloop
  endfacet
  facet normal -0 0 -1
    outer loop
      vertex -26.41 -5.61362 0
      vertex -39.0137 -6.17916 0
      vertex -27 0 0
    endloop
  endfacet
  facet normal 0 0 -1
    outer loop
      vertex -24.6657 10.9819 0
      vertex -37.5667 12.2062 0
      vertex -35.1948 17.9326 0
    endloop
  endfacet
  facet normal 0 0 -1
    outer loop
      vertex -39.5 0 0
      vertex -27 0 0
      vertex -39.0137 -6.17916 0
    endloop
  endfacet
  facet normal 0 0 -1
    outer loop
      vertex -26.41 5.61362 0
      vertex -39.0137 6.17916 0
      vertex -37.5667 12.2062 0
    endloop
  endfacet
  facet normal 0 0 -1
    outer loop
      vertex -27 0 0
      vertex -39.5 0 0
      vertex -39.0137 6.17916 0
    endloop
  endfacet
  facet normal -0.233156 -0.971164 0.049784
    outer loop
      vertex -11.4336 -35.1891 50
      vertex -12.2062 -37.5667 0
      vertex -6.17916 -39.0137 0
    endloop
  endfacet
  facet normal 0.648643 -0.759463 0.0497841
    outer loop
      vertex 26.163 -26.163 50
      vertex 23.2175 -31.9562 0
      vertex 27.9307 -27.9307 0
    endloop
  endfacet
  facet normal 0.759463 0.648643 0.0497841
    outer loop
      vertex 31.9562 23.2175 0
      vertex 26.163 26.163 50
      vertex 29.9336 21.7481 50
    endloop
  endfacet
  facet normal 0.922734 0.382209 0.049784
    outer loop
      vertex 35.1948 17.9326 0
      vertex 32.9672 16.7976 50
      vertex 37.5667 12.2062 0
    endloop
  endfacet
  facet normal 0.851583 0.521851 0.0497841
    outer loop
      vertex 31.9562 23.2175 0
      vertex 29.9336 21.7481 50
      vertex 32.9672 16.7976 50
    endloop
  endfacet
  facet normal 0.851583 0.52185 0.049784
    outer loop
      vertex 35.1948 17.9326 0
      vertex 31.9562 23.2175 0
      vertex 32.9672 16.7976 50
    endloop
  endfacet
  facet normal 0.971164 0.233156 0.049784
    outer loop
      vertex 39.0137 6.17916 0
      vertex 35.1891 11.4336 50
      vertex 36.5445 5.78807 50
    endloop
  endfacet
  facet normal 0.995681 -0.0783622 0.0497841
    outer loop
      vertex 39.5 0 0
      vertex 37 0 50
      vertex 39.0137 -6.17916 0
    endloop
  endfacet
  facet normal -0.995681 0.0783619 0.049784
    outer loop
      vertex -36.5445 5.78807 50
      vertex -39.0137 6.17916 0
      vertex -37 0 50
    endloop
  endfacet
  facet normal -0.0783619 0.995681 0.049784
    outer loop
      vertex 0 37 50
      vertex -6.17916 39.0137 0
      vertex -5.78807 36.5445 50
    endloop
  endfacet
  facet normal -0.759463 0.648643 0.0497841
    outer loop
      vertex -27.9307 27.9307 0
      vertex -31.9562 23.2175 0
      vertex -26.163 26.163 50
    endloop
  endfacet
  facet normal -0.759463 -0.648643 0.0497841
    outer loop
      vertex -26.163 -26.163 50
      vertex -31.9562 -23.2175 0
      vertex -27.9307 -27.9307 0
    endloop
  endfacet
  facet normal -0.995681 -0.0783619 0.049784
    outer loop
      vertex -37 0 50
      vertex -39.0137 -6.17916 0
      vertex -36.5445 -5.78807 50
    endloop
  endfacet
  facet normal 0.0783619 -0.995681 0.049784
    outer loop
      vertex 5.78807 -36.5445 50
      vertex 0 -37 50
      vertex 6.17916 -39.0137 0
    endloop
  endfacet
  facet normal 0.0783622 -0.995681 0.0497841
    outer loop
      vertex 0 -37 50
      vertex 0 -39.5 0
      vertex 6.17916 -39.0137 0
    endloop
  endfacet
  facet normal 0.382209 -0.922734 0.049784
    outer loop
      vertex 16.7976 -32.9672 50
      vertex 12.2062 -37.5667 0
      vertex 17.9326 -35.1948 0
    endloop
  endfacet
  facet normal 0.971164 -0.233156 0.049784
    outer loop
      vertex 39.0137 -6.17916 0
      vertex 35.1891 -11.4336 50
      vertex 37.5667 -12.2062 0
    endloop
  endfacet
  facet normal 0.759463 -0.648643 0.0497841
    outer loop
      vertex 31.9562 -23.2175 0
      vertex 26.163 -26.163 50
      vertex 27.9307 -27.9307 0
    endloop
  endfacet
  facet normal 0.759463 0.648643 0.0497841
    outer loop
      vertex 27.9307 27.9307 0
      vertex 26.163 26.163 50
      vertex 31.9562 23.2175 0
    endloop
  endfacet
  facet normal 0.922734 0.382209 0.049784
    outer loop
      vertex 37.5667 12.2062 0
      vertex 32.9672 16.7976 50
      vertex 35.1891 11.4336 50
    endloop
  endfacet
  facet normal 0.971164 0.233156 0.049784
    outer loop
      vertex 37.5667 12.2062 0
      vertex 35.1891 11.4336 50
      vertex 39.0137 6.17916 0
    endloop
  endfacet
  facet normal 0.995681 0.0783619 0.049784
    outer loop
      vertex 39.0137 6.17916 0
      vertex 36.5445 5.78807 50
      vertex 37 0 50
    endloop
  endfacet
  facet normal 0 0 1
    outer loop
      vertex 27 0 50
      vertex 37 0 50
      vertex 36.5445 5.78807 50
    endloop
  endfacet
  facet normal 0 0 1
    outer loop
      vertex 26.41 5.61362 50
      vertex 36.5445 5.78807 50
      vertex 35.1891 11.4336 50
    endloop
  endfacet
  facet normal 0 0 1
    outer loop
      vertex 37 0 50
      vertex 27 0 50
      vertex 36.5445 -5.78807 50
    endloop
  endfacet
  facet normal 0 0 1
    outer loop
      vertex 24.6657 10.9819 50
      vertex 35.1891 11.4336 50
      vertex 32.9672 16.7976 50
    endloop
  endfacet
  facet normal -0 0 1
    outer loop
      vertex 26.41 -5.61362 50
      vertex 36.5445 -5.78807 50
      vertex 27 0 50
    endloop
  endfacet
  facet normal 0 0 1
    outer loop
      vertex 21.8435 15.8702 50
      vertex 32.9672 16.7976 50
      vertex 29.9336 21.7481 50
    endloop
  endfacet
  facet normal 0 0 1
    outer loop
      vertex 36.5445 -5.78807 50
      vertex 26.41 -5.61362 50
      vertex 35.1891 -11.4336 50
    endloop
  endfacet
  facet normal -0 0 1
    outer loop
      vertex 24.6657 -10.9819 50
      vertex 35.1891 -11.4336 50
      vertex 26.41 -5.61362 50
    endloop
  endfacet
  facet normal 0 0 1
    outer loop
      vertex 36.5445 5.78807 50
      vertex 26.41 5.61362 50
      vertex 27 0 50
    endloop
  endfacet
  facet normal 0 0 1
    outer loop
      vertex 21.8435 15.8702 50
      vertex 29.9336 21.7481 50
      vertex 26.163 26.163 50
    endloop
  endfacet
  facet normal 0 0 1
    outer loop
      vertex 35.1891 11.4336 50
      vertex 24.6657 10.9819 50
      vertex 26.41 5.61362 50
    endloop
  endfacet
  facet normal 0 0 1
    outer loop
      vertex 32.9672 16.7976 50
      vertex 21.8435 15.8702 50
      vertex 24.6657 10.9819 50
    endloop
  endfacet
  facet normal 0 0 1
    outer loop
      vertex 18.0665 20.0649 50
      vertex 26.163 26.163 50
      vertex 21.7481 29.9336 50
    endloop
  endfacet
  facet normal 0 0 1
    outer loop
      vertex 26.163 26.163 50
      vertex 18.0665 20.0649 50
      vertex 21.8435 15.8702 50
    endloop
  endfacet
  facet normal 0 0 1
    outer loop
      vertex 13.5 23.3827 50
      vertex 21.7481 29.9336 50
      vertex 16.7976 32.9672 50
    endloop
  endfacet
  facet normal 0 0 1
    outer loop
      vertex 21.7481 29.9336 50
      vertex 13.5 23.3827 50
      vertex 18.0665 20.0649 50
    endloop
  endfacet
  facet normal 0 0 1
    outer loop
      vertex 8.34346 25.6785 50
      vertex 16.7976 32.9672 50
      vertex 11.4336 35.1891 50
    endloop
  endfacet
  facet normal 0 0 1
    outer loop
      vertex 16.7976 32.9672 50
      vertex 8.34346 25.6785 50
      vertex 13.5 23.3827 50
    endloop
  endfacet
  facet normal 0 0 1
    outer loop
      vertex 5.78807 36.5445 50
      vertex 8.34346 25.6785 50
      vertex 11.4336 35.1891 50
    endloop
  endfacet
  facet normal 0 0 1
    outer loop
      vertex 5.78807 36.5445 50
      vertex 2.82227 26.8521 50
      vertex 8.34346 25.6785 50
    endloop
  endfacet
  facet normal 0 0 1
    outer loop
      vertex 0 37 50
      vertex 2.82227 26.8521 50
      vertex 5.78807 36.5445 50
    endloop
  endfacet
  facet normal 0 0 1
    outer loop
      vertex 0 37 50
      vertex -2.82227 26.8521 50
      vertex 2.82227 26.8521 50
    endloop
  endfacet
  facet normal -0 0 1
    outer loop
      vertex -5.78807 36.5445 50
      vertex -2.82227 26.8521 50
      vertex 0 37 50
    endloop
  endfacet
  facet normal 0 0 1
    outer loop
      vertex -5.78807 36.5445 50
      vertex -8.34346 25.6785 50
      vertex -2.82227 26.8521 50
    endloop
  endfacet
  facet normal -0 0 1
    outer loop
      vertex -11.4336 35.1891 50
      vertex -8.34346 25.6785 50
      vertex -5.78807 36.5445 50
    endloop
  endfacet
  facet normal -0 0 1
    outer loop
      vertex -16.7976 32.9672 50
      vertex -8.34346 25.6785 50
      vertex -11.4336 35.1891 50
    endloop
  endfacet
  facet normal 0 0 1
    outer loop
      vertex -8.34346 25.6785 50
      vertex -16.7976 32.9672 50
      vertex -13.5 23.3827 50
    endloop
  endfacet
  facet normal -0 0 1
    outer loop
      vertex -21.7481 29.9336 50
      vertex -13.5 23.3827 50
      vertex -16.7976 32.9672 50
    endloop
  endfacet
  facet normal 0 0 1
    outer loop
      vertex -13.5 23.3827 50
      vertex -21.7481 29.9336 50
      vertex -18.0665 20.0649 50
    endloop
  endfacet
  facet normal -0 0 1
    outer loop
      vertex -26.163 26.163 50
      vertex -18.0665 20.0649 50
      vertex -21.7481 29.9336 50
    endloop
  endfacet
  facet normal 0 0 1
    outer loop
      vertex -18.0665 20.0649 50
      vertex -26.163 26.163 50
      vertex -21.8435 15.8702 50
    endloop
  endfacet
  facet normal -0 0 1
    outer loop
      vertex -29.9336 21.7481 50
      vertex -21.8435 15.8702 50
      vertex -26.163 26.163 50
    endloop
  endfacet
  facet normal -0 0 1
    outer loop
      vertex -32.9672 16.7976 50
      vertex -21.8435 15.8702 50
      vertex -29.9336 21.7481 50
    endloop
  endfacet
  facet normal 0 0 1
    outer loop
      vertex -21.8435 15.8702 50
      vertex -32.9672 16.7976 50
      vertex -24.6657 10.9819 50
    endloop
  endfacet
  facet normal -0 0 1
    outer loop
      vertex -35.1891 11.4336 50
      vertex -24.6657 10.9819 50
      vertex -32.9672 16.7976 50
    endloop
  endfacet
  facet normal 0 0 1
    outer loop
      vertex 35.1891 -11.4336 50
      vertex 24.6657 -10.9819 50
      vertex 32.9672 -16.7976 50
    endloop
  endfacet
  facet normal -0 0 1
    outer loop
      vertex 21.8435 -15.8702 50
      vertex 32.9672 -16.7976 50
      vertex 24.6657 -10.9819 50
    endloop
  endfacet
  facet normal 0 0 1
    outer loop
      vertex 32.9672 -16.7976 50
      vertex 21.8435 -15.8702 50
      vertex 29.9336 -21.7481 50
    endloop
  endfacet
  facet normal 0 0 1
    outer loop
      vertex 29.9336 -21.7481 50
      vertex 21.8435 -15.8702 50
      vertex 26.163 -26.163 50
    endloop
  endfacet
  facet normal -0 0 1
    outer loop
      vertex 18.0665 -20.0649 50
      vertex 26.163 -26.163 50
      vertex 21.8435 -15.8702 50
    endloop
  endfacet
  facet normal 0 0 1
    outer loop
      vertex 26.163 -26.163 50
      vertex 18.0665 -20.0649 50
      vertex 21.7481 -29.9336 50
    endloop
  endfacet
  facet normal -0 0 1
    outer loop
      vertex 13.5 -23.3827 50
      vertex 21.7481 -29.9336 50
      vertex 18.0665 -20.0649 50
    endloop
  endfacet
  facet normal 0 0 1
    outer loop
      vertex 21.7481 -29.9336 50
      vertex 13.5 -23.3827 50
      vertex 16.7976 -32.9672 50
    endloop
  endfacet
  facet normal -0 0 1
    outer loop
      vertex 8.34346 -25.6785 50
      vertex 16.7976 -32.9672 50
      vertex 13.5 -23.3827 50
    endloop
  endfacet
  facet normal 0 0 1
    outer loop
      vertex 16.7976 -32.9672 50
      vertex 8.34346 -25.6785 50
      vertex 11.4336 -35.1891 50
    endloop
  endfacet
  facet normal 0 0 1
    outer loop
      vertex 8.34346 -25.6785 50
      vertex 5.78807 -36.5445 50
      vertex 11.4336 -35.1891 50
    endloop
  endfacet
  facet normal -0 0 1
    outer loop
      vertex 2.82227 -26.8521 50
      vertex 5.78807 -36.5445 50
      vertex 8.34346 -25.6785 50
    endloop
  endfacet
  facet normal 0 0 1
    outer loop
      vertex 2.82227 -26.8521 50
      vertex 0 -37 50
      vertex 5.78807 -36.5445 50
    endloop
  endfacet
  facet normal -0 0 1
    outer loop
      vertex -2.82227 -26.8521 50
      vertex 0 -37 50
      vertex 2.82227 -26.8521 50
    endloop
  endfacet
  facet normal 0 0 1
    outer loop
      vertex -2.82227 -26.8521 50
      vertex -5.78807 -36.5445 50
      vertex 0 -37 50
    endloop
  endfacet
  facet normal 0 0 1
    outer loop
      vertex -8.34346 -25.6785 50
      vertex -5.78807 -36.5445 50
      vertex -2.82227 -26.8521 50
    endloop
  endfacet
  facet normal 0 0 1
    outer loop
      vertex -8.34346 -25.6785 50
      vertex -11.4336 -35.1891 50
      vertex -5.78807 -36.5445 50
    endloop
  endfacet
  facet normal 0 0 1
    outer loop
      vertex -16.7976 -32.9672 50
      vertex -8.34346 -25.6785 50
      vertex -13.5 -23.3827 50
    endloop
  endfacet
  facet normal 0 0 1
    outer loop
      vertex -8.34346 -25.6785 50
      vertex -16.7976 -32.9672 50
      vertex -11.4336 -35.1891 50
    endloop
  endfacet
  facet normal 0 0 1
    outer loop
      vertex -21.7481 -29.9336 50
      vertex -13.5 -23.3827 50
      vertex -18.0665 -20.0649 50
    endloop
  endfacet
  facet normal 0 0 1
    outer loop
      vertex -13.5 -23.3827 50
      vertex -21.7481 -29.9336 50
      vertex -16.7976 -32.9672 50
    endloop
  endfacet
  facet normal 0 0 1
    outer loop
      vertex -26.163 -26.163 50
      vertex -18.0665 -20.0649 50
      vertex -21.8435 -15.8702 50
    endloop
  endfacet
  facet normal 0 0 1
    outer loop
      vertex -32.9672 -16.7976 50
      vertex -21.8435 -15.8702 50
      vertex -24.6657 -10.9819 50
    endloop
  endfacet
  facet normal 0 0 1
    outer loop
      vertex -18.0665 -20.0649 50
      vertex -26.163 -26.163 50
      vertex -21.7481 -29.9336 50
    endloop
  endfacet
  facet normal 0 0 1
    outer loop
      vertex -35.1891 -11.4336 50
      vertex -24.6657 -10.9819 50
      vertex -26.41 -5.61362 50
    endloop
  endfacet
  facet normal 0 0 1
    outer loop
      vertex -36.5445 -5.78807 50
      vertex -26.41 -5.61362 50
      vertex -27 0 50
    endloop
  endfacet
  facet normal 0 0 1
    outer loop
      vertex -24.6657 10.9819 50
      vertex -35.1891 11.4336 50
      vertex -26.41 5.61362 50
    endloop
  endfacet
  facet normal 0 0 1
    outer loop
      vertex -21.8435 -15.8702 50
      vertex -29.9336 -21.7481 50
      vertex -26.163 -26.163 50
    endloop
  endfacet
  facet normal -0 0 1
    outer loop
      vertex -36.5445 5.78807 50
      vertex -26.41 5.61362 50
      vertex -35.1891 11.4336 50
    endloop
  endfacet
  facet normal 0 0 1
    outer loop
      vertex -21.8435 -15.8702 50
      vertex -32.9672 -16.7976 50
      vertex -29.9336 -21.7481 50
    endloop
  endfacet
  facet normal 0 0 1
    outer loop
      vertex -26.41 5.61362 50
      vertex -36.5445 5.78807 50
      vertex -27 0 50
    endloop
  endfacet
  facet normal 0 0 1
    outer loop
      vertex -24.6657 -10.9819 50
      vertex -35.1891 -11.4336 50
      vertex -32.9672 -16.7976 50
    endloop
  endfacet
  facet normal 0 0 1
    outer loop
      vertex -37 0 50
      vertex -27 0 50
      vertex -36.5445 5.78807 50
    endloop
  endfacet
  facet normal 0 0 1
    outer loop
      vertex -26.41 -5.61362 50
      vertex -36.5445 -5.78807 50
      vertex -35.1891 -11.4336 50
    endloop
  endfacet
  facet normal 0 0 1
    outer loop
      vertex -27 0 50
      vertex -37 0 50
      vertex -36.5445 -5.78807 50
    endloop
  endfacet
  facet normal -0.922734 0.382209 0.049784
    outer loop
      vertex -35.1948 17.9326 0
      vertex -37.5667 12.2062 0
      vertex -32.9672 16.7976 50
    endloop
  endfacet
  facet normal -0.851583 0.52185 0.049784
    outer loop
      vertex -31.9562 23.2175 0
      vertex -35.1948 17.9326 0
      vertex -32.9672 16.7976 50
    endloop
  endfacet
  facet normal -0.52185 0.851583 0.049784
    outer loop
      vertex -17.9326 35.1948 0
      vertex -23.2175 31.9562 0
      vertex -16.7976 32.9672 50
    endloop
  endfacet
  facet normal -0.648643 0.759463 0.0497841
    outer loop
      vertex -23.2175 31.9562 0
      vertex -26.163 26.163 50
      vertex -21.7481 29.9336 50
    endloop
  endfacet
  facet normal -0.648643 0.759463 0.0497841
    outer loop
      vertex -23.2175 31.9562 0
      vertex -27.9307 27.9307 0
      vertex -26.163 26.163 50
    endloop
  endfacet
  facet normal -0.922734 -0.382209 0.049784
    outer loop
      vertex -32.9672 -16.7976 50
      vertex -37.5667 -12.2062 0
      vertex -35.1948 -17.9326 0
    endloop
  endfacet
  facet normal -0.971164 -0.233156 0.049784
    outer loop
      vertex -35.1891 -11.4336 50
      vertex -39.0137 -6.17916 0
      vertex -37.5667 -12.2062 0
    endloop
  endfacet
  facet normal -0.851583 -0.52185 0.049784
    outer loop
      vertex -32.9672 -16.7976 50
      vertex -35.1948 -17.9326 0
      vertex -31.9562 -23.2175 0
    endloop
  endfacet
  facet normal -0.648643 -0.759463 0.0497841
    outer loop
      vertex -21.7481 -29.9336 50
      vertex -26.163 -26.163 50
      vertex -23.2175 -31.9562 0
    endloop
  endfacet
  facet normal -0.648643 -0.759463 0.0497841
    outer loop
      vertex -26.163 -26.163 50
      vertex -27.9307 -27.9307 0
      vertex -23.2175 -31.9562 0
    endloop
  endfacet
  facet normal 0.52185 -0.851583 0.049784
    outer loop
      vertex 23.2175 -31.9562 0
      vertex 16.7976 -32.9672 50
      vertex 17.9326 -35.1948 0
    endloop
  endfacet
  facet normal 0.382209 -0.922734 0.049784
    outer loop
      vertex 16.7976 -32.9672 50
      vertex 11.4336 -35.1891 50
      vertex 12.2062 -37.5667 0
    endloop
  endfacet
  facet normal 0.759463 -0.648643 0.0497841
    outer loop
      vertex 29.9336 -21.7481 50
      vertex 26.163 -26.163 50
      vertex 31.9562 -23.2175 0
    endloop
  endfacet
  facet normal 0.851583 -0.52185 0.049784
    outer loop
      vertex 32.9672 -16.7976 50
      vertex 31.9562 -23.2175 0
      vertex 35.1948 -17.9326 0
    endloop
  endfacet
  facet normal 0.922734 -0.382209 0.049784
    outer loop
      vertex 35.1891 -11.4336 50
      vertex 32.9672 -16.7976 50
      vertex 37.5667 -12.2062 0
    endloop
  endfacet
  facet normal 0.922734 -0.382209 0.049784
    outer loop
      vertex 37.5667 -12.2062 0
      vertex 32.9672 -16.7976 50
      vertex 35.1948 -17.9326 0
    endloop
  endfacet
  facet normal 0.971164 -0.233156 0.049784
    outer loop
      vertex 36.5445 -5.78807 50
      vertex 35.1891 -11.4336 50
      vertex 39.0137 -6.17916 0
    endloop
  endfacet
  facet normal 0.995681 -0.0783619 0.049784
    outer loop
      vertex 37 0 50
      vertex 36.5445 -5.78807 50
      vertex 39.0137 -6.17916 0
    endloop
  endfacet
  facet normal 0.52185 0.851583 0.049784
    outer loop
      vertex 17.9326 35.1948 0
      vertex 16.7976 32.9672 50
      vertex 23.2175 31.9562 0
    endloop
  endfacet
  facet normal 0.648643 0.759463 0.0497841
    outer loop
      vertex 23.2175 31.9562 0
      vertex 21.7481 29.9336 50
      vertex 26.163 26.163 50
    endloop
  endfacet
  facet normal 0.0783622 0.995681 0.0497841
    outer loop
      vertex 0 39.5 0
      vertex 0 37 50
      vertex 6.17916 39.0137 0
    endloop
  endfacet
  facet normal -0.922734 0.382209 0.049784
    outer loop
      vertex -32.9672 16.7976 50
      vertex -37.5667 12.2062 0
      vertex -35.1891 11.4336 50
    endloop
  endfacet
  facet normal -0.971164 0.233156 0.049784
    outer loop
      vertex -37.5667 12.2062 0
      vertex -39.0137 6.17916 0
      vertex -35.1891 11.4336 50
    endloop
  endfacet
  facet normal -0.233156 0.971164 0.049784
    outer loop
      vertex -6.17916 39.0137 0
      vertex -11.4336 35.1891 50
      vertex -5.78807 36.5445 50
    endloop
  endfacet
  facet normal -0.233156 0.971164 0.049784
    outer loop
      vertex -6.17916 39.0137 0
      vertex -12.2062 37.5667 0
      vertex -11.4336 35.1891 50
    endloop
  endfacet
  facet normal -0.382209 0.922734 0.049784
    outer loop
      vertex -12.2062 37.5667 0
      vertex -16.7976 32.9672 50
      vertex -11.4336 35.1891 50
    endloop
  endfacet
  facet normal -0.382209 0.922734 0.049784
    outer loop
      vertex -12.2062 37.5667 0
      vertex -17.9326 35.1948 0
      vertex -16.7976 32.9672 50
    endloop
  endfacet
  facet normal -0.759463 0.648643 0.0497841
    outer loop
      vertex -26.163 26.163 50
      vertex -31.9562 23.2175 0
      vertex -29.9336 21.7481 50
    endloop
  endfacet
  facet normal -0.851583 0.521851 0.0497841
    outer loop
      vertex -31.9562 23.2175 0
      vertex -32.9672 16.7976 50
      vertex -29.9336 21.7481 50
    endloop
  endfacet
  facet normal -0.922734 -0.382209 0.049784
    outer loop
      vertex -35.1891 -11.4336 50
      vertex -37.5667 -12.2062 0
      vertex -32.9672 -16.7976 50
    endloop
  endfacet
  facet normal -0.851583 -0.521851 0.0497841
    outer loop
      vertex -29.9336 -21.7481 50
      vertex -32.9672 -16.7976 50
      vertex -31.9562 -23.2175 0
    endloop
  endfacet
  facet normal -0.759463 -0.648643 0.0497841
    outer loop
      vertex -29.9336 -21.7481 50
      vertex -31.9562 -23.2175 0
      vertex -26.163 -26.163 50
    endloop
  endfacet
  facet normal -0.521851 -0.851583 0.0497841
    outer loop
      vertex -21.7481 -29.9336 50
      vertex -23.2175 -31.9562 0
      vertex -16.7976 -32.9672 50
    endloop
  endfacet
  facet normal -0.52185 -0.851583 0.049784
    outer loop
      vertex -16.7976 -32.9672 50
      vertex -23.2175 -31.9562 0
      vertex -17.9326 -35.1948 0
    endloop
  endfacet
  facet normal -0.382209 -0.922734 0.049784
    outer loop
      vertex -11.4336 -35.1891 50
      vertex -16.7976 -32.9672 50
      vertex -12.2062 -37.5667 0
    endloop
  endfacet
  facet normal -0.382209 -0.922734 0.049784
    outer loop
      vertex -16.7976 -32.9672 50
      vertex -17.9326 -35.1948 0
      vertex -12.2062 -37.5667 0
    endloop
  endfacet
  facet normal -0.233156 -0.971164 0.049784
    outer loop
      vertex -5.78807 -36.5445 50
      vertex -11.4336 -35.1891 50
      vertex -6.17916 -39.0137 0
    endloop
  endfacet
  facet normal -0.0783619 -0.995681 0.049784
    outer loop
      vertex -5.78807 -36.5445 50
      vertex -6.17916 -39.0137 0
      vertex 0 -37 50
    endloop
  endfacet
  facet normal 0.521851 -0.851583 0.0497841
    outer loop
      vertex 21.7481 -29.9336 50
      vertex 16.7976 -32.9672 50
      vertex 23.2175 -31.9562 0
    endloop
  endfacet
  facet normal 0.648643 -0.759463 0.0497841
    outer loop
      vertex 26.163 -26.163 50
      vertex 21.7481 -29.9336 50
      vertex 23.2175 -31.9562 0
    endloop
  endfacet
  facet normal 0.233156 -0.971164 0.049784
    outer loop
      vertex 11.4336 -35.1891 50
      vertex 5.78807 -36.5445 50
      vertex 6.17916 -39.0137 0
    endloop
  endfacet
  facet normal 0.233156 -0.971164 0.049784
    outer loop
      vertex 11.4336 -35.1891 50
      vertex 6.17916 -39.0137 0
      vertex 12.2062 -37.5667 0
    endloop
  endfacet
  facet normal 0.851583 -0.521851 0.0497841
    outer loop
      vertex 32.9672 -16.7976 50
      vertex 29.9336 -21.7481 50
      vertex 31.9562 -23.2175 0
    endloop
  endfacet
  facet normal 0.521851 0.851583 0.0497841
    outer loop
      vertex 23.2175 31.9562 0
      vertex 16.7976 32.9672 50
      vertex 21.7481 29.9336 50
    endloop
  endfacet
  facet normal 0.233156 0.971164 0.049784
    outer loop
      vertex 12.2062 37.5667 0
      vertex 6.17916 39.0137 0
      vertex 11.4336 35.1891 50
    endloop
  endfacet
  facet normal -0.971164 0.233156 0.049784
    outer loop
      vertex -35.1891 11.4336 50
      vertex -39.0137 6.17916 0
      vertex -36.5445 5.78807 50
    endloop
  endfacet
  facet normal 0.382209 0.922734 0.049784
    outer loop
      vertex 12.2062 37.5667 0
      vertex 11.4336 35.1891 50
      vertex 16.7976 32.9672 50
    endloop
  endfacet
  facet normal 0.382209 0.922734 0.049784
    outer loop
      vertex 17.9326 35.1948 0
      vertex 12.2062 37.5667 0
      vertex 16.7976 32.9672 50
    endloop
  endfacet
  facet normal 0.233156 0.971164 0.049784
    outer loop
      vertex 6.17916 39.0137 0
      vertex 5.78807 36.5445 50
      vertex 11.4336 35.1891 50
    endloop
  endfacet
  facet normal 0.0783619 0.995681 0.049784
    outer loop
      vertex 6.17916 39.0137 0
      vertex 0 37 50
      vertex 5.78807 36.5445 50
    endloop
  endfacet
  facet normal -0.866025 -0.5 0
    outer loop
      vertex 24.6657 10.9819 0
      vertex 21.8435 15.8702 50
      vertex 21.8435 15.8702 0
    endloop
  endfacet
  facet normal -0.866025 -0.5 0
    outer loop
      vertex 21.8435 15.8702 50
      vertex 24.6657 10.9819 0
      vertex 24.6657 10.9819 50
    endloop
  endfacet
  facet normal 0.951056 -0.309017 0
    outer loop
      vertex -26.41 5.61362 50
      vertex -24.6657 10.9819 0
      vertex -24.6657 10.9819 50
    endloop
  endfacet
  facet normal 0.951056 -0.309017 0
    outer loop
      vertex -24.6657 10.9819 0
      vertex -26.41 5.61362 50
      vertex -26.41 5.61362 0
    endloop
  endfacet
  facet normal -0.743145 -0.669131 0
    outer loop
      vertex 21.8435 15.8702 0
      vertex 18.0665 20.0649 50
      vertex 18.0665 20.0649 0
    endloop
  endfacet
  facet normal -0.743145 -0.669131 0
    outer loop
      vertex 18.0665 20.0649 50
      vertex 21.8435 15.8702 0
      vertex 21.8435 15.8702 50
    endloop
  endfacet
  facet normal 0.207912 -0.978148 0
    outer loop
      vertex -8.34346 25.6785 0
      vertex -2.82227 26.8521 50
      vertex -8.34346 25.6785 50
    endloop
  endfacet
  facet normal 0.207912 -0.978148 0
    outer loop
      vertex -2.82227 26.8521 50
      vertex -8.34346 25.6785 0
      vertex -2.82227 26.8521 0
    endloop
  endfacet
  facet normal 0.866025 -0.5 0
    outer loop
      vertex -24.6657 10.9819 50
      vertex -21.8435 15.8702 0
      vertex -21.8435 15.8702 50
    endloop
  endfacet
  facet normal 0.866025 -0.5 0
    outer loop
      vertex -21.8435 15.8702 0
      vertex -24.6657 10.9819 50
      vertex -24.6657 10.9819 0
    endloop
  endfacet
  facet normal -0.994522 0.104529 0
    outer loop
      vertex 26.41 -5.61362 0
      vertex 27 0 50
      vertex 27 0 0
    endloop
  endfacet
  facet normal -0.994522 0.104529 0
    outer loop
      vertex 27 0 50
      vertex 26.41 -5.61362 0
      vertex 26.41 -5.61362 50
    endloop
  endfacet
  facet normal -0.951056 -0.309017 0
    outer loop
      vertex 26.41 5.61362 0
      vertex 24.6657 10.9819 50
      vertex 24.6657 10.9819 0
    endloop
  endfacet
  facet normal -0.951056 -0.309017 0
    outer loop
      vertex 24.6657 10.9819 50
      vertex 26.41 5.61362 0
      vertex 26.41 5.61362 50
    endloop
  endfacet
  facet normal -0.587785 -0.809017 0
    outer loop
      vertex 13.5 23.3827 0
      vertex 18.0665 20.0649 50
      vertex 13.5 23.3827 50
    endloop
  endfacet
  facet normal -0.587785 -0.809017 -0
    outer loop
      vertex 18.0665 20.0649 50
      vertex 13.5 23.3827 0
      vertex 18.0665 20.0649 0
    endloop
  endfacet
  facet normal 0 -1 0
    outer loop
      vertex -2.82227 26.8521 0
      vertex 2.82227 26.8521 50
      vertex -2.82227 26.8521 50
    endloop
  endfacet
  facet normal 0 -1 -0
    outer loop
      vertex 2.82227 26.8521 50
      vertex -2.82227 26.8521 0
      vertex 2.82227 26.8521 0
    endloop
  endfacet
  facet normal -0.406736 -0.913546 0
    outer loop
      vertex 8.34346 25.6785 0
      vertex 13.5 23.3827 50
      vertex 8.34346 25.6785 50
    endloop
  endfacet
  facet normal -0.406736 -0.913546 -0
    outer loop
      vertex 13.5 23.3827 50
      vertex 8.34346 25.6785 0
      vertex 13.5 23.3827 0
    endloop
  endfacet
  facet normal 0.994522 -0.104529 0
    outer loop
      vertex -27 0 50
      vertex -26.41 5.61362 0
      vertex -26.41 5.61362 50
    endloop
  endfacet
  facet normal 0.994522 -0.104529 0
    outer loop
      vertex -26.41 5.61362 0
      vertex -27 0 50
      vertex -27 0 0
    endloop
  endfacet
  facet normal 0.743145 -0.669131 0
    outer loop
      vertex -21.8435 15.8702 50
      vertex -18.0665 20.0649 0
      vertex -18.0665 20.0649 50
    endloop
  endfacet
  facet normal 0.743145 -0.669131 0
    outer loop
      vertex -18.0665 20.0649 0
      vertex -21.8435 15.8702 50
      vertex -21.8435 15.8702 0
    endloop
  endfacet
  facet normal 0.406737 -0.913545 0
    outer loop
      vertex -13.5 23.3827 0
      vertex -8.34346 25.6785 50
      vertex -13.5 23.3827 50
    endloop
  endfacet
  facet normal 0.406737 -0.913545 0
    outer loop
      vertex -8.34346 25.6785 50
      vertex -13.5 23.3827 0
      vertex -8.34346 25.6785 0
    endloop
  endfacet
  facet normal 0.587785 -0.809017 0
    outer loop
      vertex -18.0665 20.0649 0
      vertex -13.5 23.3827 50
      vertex -18.0665 20.0649 50
    endloop
  endfacet
  facet normal 0.587785 -0.809017 0
    outer loop
      vertex -13.5 23.3827 50
      vertex -18.0665 20.0649 0
      vertex -13.5 23.3827 0
    endloop
  endfacet
  facet normal -0.994522 -0.104529 0
    outer loop
      vertex 27 0 0
      vertex 26.41 5.61362 50
      vertex 26.41 5.61362 0
    endloop
  endfacet
  facet normal -0.994522 -0.104529 0
    outer loop
      vertex 26.41 5.61362 50
      vertex 27 0 0
      vertex 27 0 50
    endloop
  endfacet
  facet normal -0.951056 0.309017 0
    outer loop
      vertex 24.6657 -10.9819 0
      vertex 26.41 -5.61362 50
      vertex 26.41 -5.61362 0
    endloop
  endfacet
  facet normal -0.951056 0.309017 0
    outer loop
      vertex 26.41 -5.61362 50
      vertex 24.6657 -10.9819 0
      vertex 24.6657 -10.9819 50
    endloop
  endfacet
  facet normal 0.587785 0.809017 -0
    outer loop
      vertex -13.5 -23.3827 0
      vertex -18.0665 -20.0649 50
      vertex -13.5 -23.3827 50
    endloop
  endfacet
  facet normal 0.587785 0.809017 0
    outer loop
      vertex -18.0665 -20.0649 50
      vertex -13.5 -23.3827 0
      vertex -18.0665 -20.0649 0
    endloop
  endfacet
  facet normal 0.866025 0.5 0
    outer loop
      vertex -21.8435 -15.8702 50
      vertex -24.6657 -10.9819 0
      vertex -24.6657 -10.9819 50
    endloop
  endfacet
  facet normal 0.866025 0.5 0
    outer loop
      vertex -24.6657 -10.9819 0
      vertex -21.8435 -15.8702 50
      vertex -21.8435 -15.8702 0
    endloop
  endfacet
  facet normal -0.587785 0.809017 0
    outer loop
      vertex 18.0665 -20.0649 0
      vertex 13.5 -23.3827 50
      vertex 18.0665 -20.0649 50
    endloop
  endfacet
  facet normal -0.587785 0.809017 0
    outer loop
      vertex 13.5 -23.3827 50
      vertex 18.0665 -20.0649 0
      vertex 13.5 -23.3827 0
    endloop
  endfacet
  facet normal -0.207912 -0.978148 0
    outer loop
      vertex 2.82227 26.8521 0
      vertex 8.34346 25.6785 50
      vertex 2.82227 26.8521 50
    endloop
  endfacet
  facet normal -0.207912 -0.978148 -0
    outer loop
      vertex 8.34346 25.6785 50
      vertex 2.82227 26.8521 0
      vertex 8.34346 25.6785 0
    endloop
  endfacet
  facet normal -0.866025 0.5 0
    outer loop
      vertex 21.8435 -15.8702 0
      vertex 24.6657 -10.9819 50
      vertex 24.6657 -10.9819 0
    endloop
  endfacet
  facet normal -0.866025 0.5 0
    outer loop
      vertex 24.6657 -10.9819 50
      vertex 21.8435 -15.8702 0
      vertex 21.8435 -15.8702 50
    endloop
  endfacet
  facet normal 0.994522 0.104529 0
    outer loop
      vertex -26.41 -5.61362 50
      vertex -27 0 0
      vertex -27 0 50
    endloop
  endfacet
  facet normal 0.994522 0.104529 0
    outer loop
      vertex -27 0 0
      vertex -26.41 -5.61362 50
      vertex -26.41 -5.61362 0
    endloop
  endfacet
  facet normal 0.743145 0.669131 0
    outer loop
      vertex -18.0665 -20.0649 50
      vertex -21.8435 -15.8702 0
      vertex -21.8435 -15.8702 50
    endloop
  endfacet
  facet normal 0.743145 0.669131 0
    outer loop
      vertex -21.8435 -15.8702 0
      vertex -18.0665 -20.0649 50
      vertex -18.0665 -20.0649 0
    endloop
  endfacet
  facet normal -0.207912 0.978148 0
    outer loop
      vertex 8.34346 -25.6785 0
      vertex 2.82227 -26.8521 50
      vertex 8.34346 -25.6785 50
    endloop
  endfacet
  facet normal -0.207912 0.978148 0
    outer loop
      vertex 2.82227 -26.8521 50
      vertex 8.34346 -25.6785 0
      vertex 2.82227 -26.8521 0
    endloop
  endfacet
  facet normal -0.406736 0.913546 0
    outer loop
      vertex 13.5 -23.3827 0
      vertex 8.34346 -25.6785 50
      vertex 13.5 -23.3827 50
    endloop
  endfacet
  facet normal -0.406736 0.913546 0
    outer loop
      vertex 8.34346 -25.6785 50
      vertex 13.5 -23.3827 0
      vertex 8.34346 -25.6785 0
    endloop
  endfacet
  facet normal 0.406736 0.913546 -0
    outer loop
      vertex -8.34346 -25.6785 0
      vertex -13.5 -23.3827 50
      vertex -8.34346 -25.6785 50
    endloop
  endfacet
  facet normal 0.406736 0.913546 0
    outer loop
      vertex -13.5 -23.3827 50
      vertex -8.34346 -25.6785 0
      vertex -13.5 -23.3827 0
    endloop
  endfacet
  facet normal 0 1 -0
    outer loop
      vertex 2.82227 -26.8521 0
      vertex -2.82227 -26.8521 50
      vertex 2.82227 -26.8521 50
    endloop
  endfacet
  facet normal 0 1 0
    outer loop
      vertex -2.82227 -26.8521 50
      vertex 2.82227 -26.8521 0
      vertex -2.82227 -26.8521 0
    endloop
  endfacet
  facet normal 0.951056 0.309017 0
    outer loop
      vertex -24.6657 -10.9819 50
      vertex -26.41 -5.61362 0
      vertex -26.41 -5.61362 50
    endloop
  endfacet
  facet normal 0.951056 0.309017 0
    outer loop
      vertex -26.41 -5.61362 0
      vertex -24.6657 -10.9819 50
      vertex -24.6657 -10.9819 0
    endloop
  endfacet
  facet normal -0.743145 0.669131 0
    outer loop
      vertex 18.0665 -20.0649 0
      vertex 21.8435 -15.8702 50
      vertex 21.8435 -15.8702 0
    endloop
  endfacet
  facet normal -0.743145 0.669131 0
    outer loop
      vertex 21.8435 -15.8702 50
      vertex 18.0665 -20.0649 0
      vertex 18.0665 -20.0649 50
    endloop
  endfacet
  facet normal 0.207912 0.978148 -0
    outer loop
      vertex -2.82227 -26.8521 0
      vertex -8.34346 -25.6785 50
      vertex -2.82227 -26.8521 50
    endloop
  endfacet
  facet normal 0.207912 0.978148 0
    outer loop
      vertex -8.34346 -25.6785 50
      vertex -2.82227 -26.8521 0
      vertex -8.34346 -25.6785 0
    endloop
  endfacet
endsolid OpenSCAD_Model
