<?xml version="1.0" encoding="UTF-8" standalone="no"?>
<!DOCTYPE svg PUBLIC "-//W3C//DTD SVG 20010904//EN"
              "http://www.w3.org/TR/2001/REC-SVG-20010904/DTD/svg10.dtd">

<svg xmlns="http://www.w3.org/2000/svg"
     width="13.3333in" height="10in"
     viewBox="0 0 4000 3000">
  <path id="Selection"
        fill="none" stroke="black" stroke-width="1"
        d="M 252.00,711.00
           C 252.00,711.00 256.17,756.00 256.17,756.00
             256.17,756.00 258.00,778.00 258.00,778.00
             258.00,778.00 258.00,825.00 258.00,825.00
             258.00,825.00 261.91,867.00 261.91,867.00
             262.33,873.11 261.45,874.73 261.04,880.00
             261.04,880.00 261.04,889.00 261.04,889.00
             261.04,889.00 260.00,904.00 260.00,904.00
             260.00,904.00 260.00,932.00 260.00,932.00
             260.00,932.00 267.66,999.00 267.66,999.00
             267.66,999.00 260.00,1044.00 260.00,1044.00
             260.00,1044.00 260.00,1082.00 260.00,1082.00
             260.02,1097.57 271.43,1118.92 271.96,1131.00
             271.96,1131.00 271.00,1147.00 271.00,1147.00
             271.00,1147.00 270.00,1170.00 270.00,1170.00
             270.00,1170.00 267.83,1200.00 267.83,1200.00
             267.83,1200.00 266.09,1217.00 266.09,1217.00
             266.09,1217.00 272.59,1258.00 272.59,1258.00
             273.79,1265.19 276.50,1286.82 279.38,1292.00
             285.14,1302.38 299.51,1319.51 308.00,1328.00
             311.60,1331.60 318.04,1338.49 322.00,1341.03
             322.00,1341.03 356.00,1357.69 356.00,1357.69
             356.00,1357.69 374.00,1370.17 374.00,1370.17
             377.78,1373.40 384.72,1380.35 389.00,1381.97
             389.00,1381.97 432.00,1391.69 432.00,1391.69
             432.00,1391.69 471.00,1407.31 471.00,1407.31
             471.00,1407.31 494.00,1417.91 494.00,1417.91
             494.00,1417.91 539.00,1430.15 539.00,1430.15
             539.00,1430.15 574.00,1441.12 574.00,1441.12
             574.00,1441.12 632.00,1455.15 632.00,1455.15
             632.00,1455.15 661.00,1467.38 661.00,1467.38
             661.00,1467.38 694.00,1471.17 694.00,1471.17
             703.50,1472.12 712.82,1474.87 722.00,1477.42
             722.00,1477.42 793.00,1495.37 793.00,1495.37
             793.00,1495.37 832.00,1505.58 832.00,1505.58
             832.00,1505.58 881.00,1514.42 881.00,1514.42
             881.00,1514.42 923.00,1525.69 923.00,1525.69
             923.00,1525.69 961.00,1529.92 961.00,1529.92
             961.00,1529.92 995.00,1541.49 995.00,1541.49
             995.00,1541.49 1023.00,1544.17 1023.00,1544.17
             1023.00,1544.17 1041.00,1546.00 1041.00,1546.00
             1041.00,1546.00 1050.00,1546.00 1050.00,1546.00
             1050.00,1546.00 1060.00,1547.00 1060.00,1547.00
             1083.21,1547.27 1110.91,1552.26 1134.00,1556.42
             1148.65,1559.07 1163.02,1562.82 1178.00,1563.00
             1178.00,1563.00 1203.00,1564.61 1203.00,1564.61
             1215.58,1566.83 1236.20,1572.13 1248.00,1572.00
             1248.00,1572.00 1263.00,1570.96 1263.00,1570.96
             1263.00,1570.96 1275.00,1570.96 1275.00,1570.96
             1275.00,1570.96 1287.00,1570.00 1287.00,1570.00
             1287.00,1570.00 1313.00,1570.00 1313.00,1570.00
             1313.00,1570.00 1339.00,1571.91 1339.00,1571.91
             1339.00,1571.91 1365.00,1574.00 1365.00,1574.00
             1365.00,1574.00 1374.00,1574.00 1374.00,1574.00
             1374.00,1574.00 1386.00,1575.00 1386.00,1575.00
             1386.00,1575.00 1410.00,1576.00 1410.00,1576.00
             1410.00,1576.00 1425.00,1574.96 1425.00,1574.96
             1425.00,1574.96 1436.00,1574.96 1436.00,1574.96
             1436.00,1574.96 1446.00,1574.05 1446.00,1574.05
             1446.00,1574.05 1465.00,1574.05 1465.00,1574.05
             1465.00,1574.05 1477.00,1575.00 1477.00,1575.00
             1477.00,1575.00 1499.00,1575.00 1499.00,1575.00
             1499.00,1575.00 1514.00,1576.00 1514.00,1576.00
             1514.00,1576.00 1553.00,1574.09 1553.00,1574.09
             1553.00,1574.09 1599.00,1570.91 1599.00,1570.91
             1599.00,1570.91 1625.00,1569.00 1625.00,1569.00
             1625.00,1569.00 1644.00,1568.00 1644.00,1568.00
             1644.00,1568.00 1683.00,1568.00 1683.00,1568.00
             1683.00,1568.00 1695.00,1569.00 1695.00,1569.00
             1695.00,1569.00 1707.00,1569.00 1707.00,1569.00
             1707.00,1569.00 1717.00,1570.00 1717.00,1570.00
             1717.00,1570.00 1759.00,1570.00 1759.00,1570.00
             1771.80,1569.98 1784.36,1565.93 1797.00,1564.29
             1797.00,1564.29 1841.00,1562.00 1841.00,1562.00
             1841.00,1562.00 1853.00,1561.00 1853.00,1561.00
             1853.00,1561.00 1865.00,1561.00 1865.00,1561.00
             1865.00,1561.00 1875.00,1560.00 1875.00,1560.00
             1875.00,1560.00 1899.00,1561.00 1899.00,1561.00
             1899.00,1561.00 1916.00,1561.96 1916.00,1561.96
             1916.00,1561.96 1949.00,1558.08 1949.00,1558.08
             1949.00,1558.08 1957.00,1558.91 1957.00,1558.91
             1957.00,1558.91 1986.00,1561.09 1986.00,1561.09
             1986.00,1561.09 1994.00,1561.96 1994.00,1561.96
             1999.08,1562.16 2000.51,1561.44 2005.00,1561.08
             2005.00,1561.08 2043.00,1556.59 2043.00,1556.59
             2043.00,1556.59 2074.00,1552.00 2074.00,1552.00
             2074.00,1552.00 2158.00,1552.00 2158.00,1552.00
             2158.00,1552.00 2192.00,1550.00 2192.00,1550.00
             2192.00,1550.00 2211.00,1549.00 2211.00,1549.00
             2222.69,1548.86 2235.42,1546.22 2247.00,1544.42
             2271.82,1540.57 2296.87,1535.29 2322.00,1535.00
             2322.00,1535.00 2332.00,1534.00 2332.00,1534.00
             2332.00,1534.00 2340.00,1534.00 2340.00,1534.00
             2340.00,1534.00 2359.00,1532.09 2359.00,1532.09
             2364.95,1531.68 2382.30,1531.00 2387.00,1529.16
             2393.27,1526.72 2405.01,1516.07 2414.00,1513.04
             2414.00,1513.04 2449.00,1504.19 2449.00,1504.19
             2452.62,1502.81 2464.94,1494.29 2467.87,1491.54
             2472.56,1487.14 2478.81,1467.93 2481.42,1461.00
             2481.42,1461.00 2493.52,1424.00 2493.52,1424.00
             2493.52,1424.00 2504.42,1363.00 2504.42,1363.00
             2504.42,1363.00 2514.00,1329.00 2514.00,1329.00
             2515.28,1324.58 2518.89,1311.25 2520.83,1308.00
             2520.83,1308.00 2546.93,1275.00 2546.93,1275.00
             2546.93,1275.00 2555.67,1250.00 2555.67,1250.00
             2557.00,1246.01 2557.98,1241.51 2561.22,1238.61
             2561.22,1238.61 2580.00,1227.78 2580.00,1227.78
             2589.75,1222.60 2611.72,1211.85 2622.00,1209.53
             2624.66,1208.93 2627.29,1209.00 2630.00,1209.00
             2630.00,1209.00 2664.00,1209.00 2664.00,1209.00
             2664.00,1209.00 2664.00,813.00 2664.00,813.00
             2664.00,813.00 2650.00,812.04 2650.00,812.04
             2650.00,812.04 2637.00,812.04 2637.00,812.04
             2637.00,812.04 2624.00,811.00 2624.00,811.00
             2624.00,811.00 2567.00,809.00 2567.00,809.00
             2567.00,809.00 2550.00,808.00 2550.00,808.00
             2550.00,808.00 2519.00,807.00 2519.00,807.00
             2519.00,807.00 2506.00,806.00 2506.00,806.00
             2506.00,806.00 2472.00,805.00 2472.00,805.00
             2472.00,805.00 2458.00,804.00 2458.00,804.00
             2458.00,804.00 2446.00,804.00 2446.00,804.00
             2446.00,804.00 2426.00,803.00 2426.00,803.00
             2426.00,803.00 2414.00,802.04 2414.00,802.04
             2414.00,802.04 2402.00,802.04 2402.00,802.04
             2402.00,802.04 2387.00,801.00 2387.00,801.00
             2387.00,801.00 2355.00,800.00 2355.00,800.00
             2355.00,800.00 2343.00,799.04 2343.00,799.04
             2343.00,799.04 2331.00,799.04 2331.00,799.04
             2331.00,799.04 2319.00,798.04 2319.00,798.04
             2319.00,798.04 2307.00,798.04 2307.00,798.04
             2307.00,798.04 2292.00,796.96 2292.00,796.96
             2292.00,796.96 2279.00,796.96 2279.00,796.96
             2279.00,796.96 2269.00,796.00 2269.00,796.00
             2269.00,796.00 2236.00,795.00 2236.00,795.00
             2236.00,795.00 2222.00,794.00 2222.00,794.00
             2222.00,794.00 2188.00,793.00 2188.00,793.00
             2188.00,793.00 2166.00,792.00 2166.00,792.00
             2166.00,792.00 2154.00,791.04 2154.00,791.04
             2154.00,791.04 2142.00,791.04 2142.00,791.04
             2142.00,791.04 2125.00,790.00 2125.00,790.00
             2125.00,790.00 2071.00,788.00 2071.00,788.00
             2071.00,788.00 2056.00,787.00 2056.00,787.00
             2056.00,787.00 2044.00,787.00 2044.00,787.00
             2044.00,787.00 2024.00,786.00 2024.00,786.00
             2024.00,786.00 2012.00,785.04 2012.00,785.04
             2012.00,785.04 2000.00,785.04 2000.00,785.04
             2000.00,785.04 1977.00,784.00 1977.00,784.00
             1977.00,784.00 1962.00,783.00 1962.00,783.00
             1962.00,783.00 1928.00,782.00 1928.00,782.00
             1928.00,782.00 1913.00,781.00 1913.00,781.00
             1913.00,781.00 1882.00,780.00 1882.00,780.00
             1882.00,780.00 1870.00,779.04 1870.00,779.04
             1870.00,779.04 1858.00,779.04 1858.00,779.04
             1858.00,779.04 1835.00,778.00 1835.00,778.00
             1835.00,778.00 1823.00,777.04 1823.00,777.04
             1823.00,777.04 1810.00,777.04 1810.00,777.04
             1810.00,777.04 1795.00,776.00 1795.00,776.00
             1795.00,776.00 1763.00,775.00 1763.00,775.00
             1763.00,775.00 1749.00,774.00 1749.00,774.00
             1749.00,774.00 1716.00,773.00 1716.00,773.00
             1716.00,773.00 1702.00,772.00 1702.00,772.00
             1702.00,772.00 1668.00,771.00 1668.00,771.00
             1668.00,771.00 1646.00,770.00 1646.00,770.00
             1646.00,770.00 1634.00,769.04 1634.00,769.04
             1634.00,769.04 1622.00,769.04 1622.00,769.04
             1622.00,769.04 1607.00,768.00 1607.00,768.00
             1607.00,768.00 1574.00,767.00 1574.00,767.00
             1574.00,767.00 1560.00,766.00 1560.00,766.00
             1560.00,766.00 1527.00,765.00 1527.00,765.00
             1527.00,765.00 1515.00,764.04 1515.00,764.04
             1515.00,764.04 1503.00,764.04 1503.00,764.04
             1503.00,764.04 1487.00,763.00 1487.00,763.00
             1487.00,763.00 1433.00,761.00 1433.00,761.00
             1433.00,761.00 1418.00,760.00 1418.00,760.00
             1418.00,760.00 1406.00,760.00 1406.00,760.00
             1406.00,760.00 1386.00,759.00 1386.00,759.00
             1386.00,759.00 1374.00,758.04 1374.00,758.04
             1374.00,758.04 1362.00,758.04 1362.00,758.04
             1362.00,758.04 1350.00,757.04 1350.00,757.04
             1350.00,757.04 1338.00,757.04 1338.00,757.04
             1338.00,757.04 1323.00,756.00 1323.00,756.00
             1323.00,756.00 1289.00,755.00 1289.00,755.00
             1289.00,755.00 1275.00,754.00 1275.00,754.00
             1275.00,754.00 1244.00,753.00 1244.00,753.00
             1244.00,753.00 1232.00,752.04 1232.00,752.04
             1232.00,752.04 1220.00,752.04 1220.00,752.04
             1220.00,752.04 1208.00,751.04 1208.00,751.04
             1208.00,751.04 1196.00,751.04 1196.00,751.04
             1196.00,751.04 1179.00,750.00 1179.00,750.00
             1179.00,750.00 1125.00,748.00 1125.00,748.00
             1125.00,748.00 1102.00,747.00 1102.00,747.00
             1102.00,747.00 1087.00,746.00 1087.00,746.00
             1087.00,746.00 1054.00,745.00 1054.00,745.00
             1054.00,745.00 1042.00,744.04 1042.00,744.04
             1042.00,744.04 1030.00,744.04 1030.00,744.04
             1030.00,744.04 1013.00,743.00 1013.00,743.00
             1013.00,743.00 982.00,742.00 982.00,742.00
             982.00,742.00 969.00,741.00 969.00,741.00
             969.00,741.00 936.00,740.00 936.00,740.00
             936.00,740.00 924.00,739.04 924.00,739.04
             924.00,739.04 911.00,739.04 911.00,739.04
             911.00,739.04 896.00,738.00 896.00,738.00
             896.00,738.00 864.00,737.00 864.00,737.00
             864.00,737.00 850.00,736.00 850.00,736.00
             850.00,736.00 817.00,735.00 817.00,735.00
             817.00,735.00 803.00,734.00 803.00,734.00
             803.00,734.00 769.00,733.00 769.00,733.00
             769.00,733.00 747.00,732.00 747.00,732.00
             747.00,732.00 730.00,730.96 730.00,730.96
             730.00,730.96 718.00,730.96 718.00,730.96
             718.00,730.96 706.00,730.00 706.00,730.00
             706.00,730.00 683.00,729.00 683.00,729.00
             683.00,729.00 651.00,728.00 651.00,728.00
             651.00,728.00 636.00,726.96 636.00,726.96
             636.00,726.96 624.00,726.96 624.00,726.96
             624.00,726.96 614.00,726.00 614.00,726.00
             614.00,726.00 582.00,725.00 582.00,725.00
             582.00,725.00 570.00,724.04 570.00,724.04
             570.00,724.04 558.00,724.04 558.00,724.04
             558.00,724.04 546.00,723.04 546.00,723.04
             546.00,723.04 534.00,723.04 534.00,723.04
             534.00,723.04 519.00,722.00 519.00,722.00
             519.00,722.00 486.00,721.00 486.00,721.00
             486.00,721.00 472.00,720.00 472.00,720.00
             472.00,720.00 440.00,719.00 440.00,719.00
             440.00,719.00 428.00,718.04 428.00,718.04
             428.00,718.04 416.00,718.04 416.00,718.04
             416.00,718.04 404.00,717.04 404.00,717.04
             404.00,717.04 391.00,717.04 391.00,717.04
             391.00,717.04 376.00,716.00 376.00,716.00
             376.00,716.00 344.00,715.00 344.00,715.00
             344.00,715.00 330.00,714.00 330.00,714.00
             330.00,714.00 273.00,712.00 273.00,712.00
             273.00,712.00 252.00,711.00 252.00,711.00 Z" />
</svg>
