solid OpenSCAD_Model
  facet normal -0.994522 -0.104529 0
    outer loop
      vertex 3.5 0 15.01
      vertex 3.42352 0.727691 25
      vertex 3.42352 0.727691 15.01
    endloop
  endfacet
  facet normal -0.994522 -0.104529 0
    outer loop
      vertex 3.42352 0.727691 25
      vertex 3.5 0 15.01
      vertex 3.5 0 25
    endloop
  endfacet
  facet normal 0.994522 -0.104529 0
    outer loop
      vertex -3.5 0 25
      vertex -3.42352 0.727691 15.01
      vertex -3.42352 0.727691 25
    endloop
  endfacet
  facet normal 0.994522 -0.104529 0
    outer loop
      vertex -3.42352 0.727691 15.01
      vertex -3.5 0 25
      vertex -3.5 0 15.01
    endloop
  endfacet
  facet normal 0 -1 0
    outer loop
      vertex -0.365849 3.48083 0
      vertex 0.365849 3.48083 25
      vertex -0.365849 3.48083 25
    endloop
  endfacet
  facet normal 0 -1 -0
    outer loop
      vertex 0.365849 3.48083 25
      vertex -0.365849 3.48083 0
      vertex 0.365849 3.48083 0
    endloop
  endfacet
  facet normal 0 1 -0
    outer loop
      vertex 0.365849 -3.48083 0
      vertex -0.365849 -3.48083 25
      vertex 0.365849 -3.48083 25
    endloop
  endfacet
  facet normal 0 1 0
    outer loop
      vertex -0.365849 -3.48083 25
      vertex 0.365849 -3.48083 0
      vertex -0.365849 -3.48083 0
    endloop
  endfacet
  facet normal -0.587786 -0.809017 0
    outer loop
      vertex 1.75 3.03109 0
      vertex 2.34196 2.60101 25
      vertex 1.75 3.03109 25
    endloop
  endfacet
  facet normal -0.587786 -0.809017 -0
    outer loop
      vertex 2.34196 2.60101 25
      vertex 1.75 3.03109 0
      vertex 2.34196 2.60101 0
    endloop
  endfacet
  facet normal 0.587785 -0.809017 0
    outer loop
      vertex -2.34196 2.60101 0
      vertex -1.75 3.03109 25
      vertex -2.34196 2.60101 25
    endloop
  endfacet
  facet normal 0.587785 -0.809017 0
    outer loop
      vertex -1.75 3.03109 25
      vertex -2.34196 2.60101 0
      vertex -1.75 3.03109 0
    endloop
  endfacet
  facet normal 0.406736 -0.913546 0
    outer loop
      vertex -1.75 3.03109 0
      vertex -1.08156 3.3287 25
      vertex -1.75 3.03109 25
    endloop
  endfacet
  facet normal 0.406736 -0.913546 0
    outer loop
      vertex -1.08156 3.3287 25
      vertex -1.75 3.03109 0
      vertex -1.08156 3.3287 0
    endloop
  endfacet
  facet normal -0.866025 -0.5 -0
    outer loop
      vertex 2.86461 2 15.01
      vertex 2.83156 2.05725 0
      vertex 2.86461 2 0
    endloop
  endfacet
  facet normal -0.866025 -0.5 0
    outer loop
      vertex 2.83156 2.05725 0
      vertex 2.86461 2 15.01
      vertex 2.83156 2.05725 25
    endloop
  endfacet
  facet normal -0.866026 -0.499999 -3.59651e-009
    outer loop
      vertex 3.19741 1.42358 15.01
      vertex 2.83156 2.05725 25
      vertex 2.86461 2 15.01
    endloop
  endfacet
  facet normal -0.866026 -0.499999 0
    outer loop
      vertex 2.83156 2.05725 25
      vertex 3.19741 1.42358 15.01
      vertex 3.19741 1.42358 25
    endloop
  endfacet
  facet normal -0.951056 -0.309017 0
    outer loop
      vertex 3.42352 0.727691 15.01
      vertex 3.19741 1.42358 25
      vertex 3.19741 1.42358 15.01
    endloop
  endfacet
  facet normal -0.951056 -0.309017 0
    outer loop
      vertex 3.19741 1.42358 25
      vertex 3.42352 0.727691 15.01
      vertex 3.42352 0.727691 25
    endloop
  endfacet
  facet normal -0.743145 -0.66913 0
    outer loop
      vertex 2.83156 2.05725 0
      vertex 2.34196 2.60101 25
      vertex 2.34196 2.60101 0
    endloop
  endfacet
  facet normal -0.743145 -0.66913 0
    outer loop
      vertex 2.34196 2.60101 25
      vertex 2.83156 2.05725 0
      vertex 2.83156 2.05725 25
    endloop
  endfacet
  facet normal -0.207912 -0.978147 0
    outer loop
      vertex 0.365849 3.48083 0
      vertex 1.08156 3.3287 25
      vertex 0.365849 3.48083 25
    endloop
  endfacet
  facet normal -0.207912 -0.978147 -0
    outer loop
      vertex 1.08156 3.3287 25
      vertex 0.365849 3.48083 0
      vertex 1.08156 3.3287 0
    endloop
  endfacet
  facet normal -0.406736 -0.913546 0
    outer loop
      vertex 1.08156 3.3287 0
      vertex 1.75 3.03109 25
      vertex 1.08156 3.3287 25
    endloop
  endfacet
  facet normal -0.406736 -0.913546 -0
    outer loop
      vertex 1.75 3.03109 25
      vertex 1.08156 3.3287 0
      vertex 1.75 3.03109 0
    endloop
  endfacet
  facet normal 0.866025 -0.5 0
    outer loop
      vertex -2.83156 2.05725 25
      vertex -2.86461 2 15.01
      vertex -2.83156 2.05725 0
    endloop
  endfacet
  facet normal 0.866026 -0.499999 -3.27159e-009
    outer loop
      vertex -3.19741 1.42358 25
      vertex -2.86461 2 15.01
      vertex -2.83156 2.05725 25
    endloop
  endfacet
  facet normal 0.866026 -0.499999 0
    outer loop
      vertex -2.86461 2 15.01
      vertex -3.19741 1.42358 25
      vertex -3.19741 1.42358 15.01
    endloop
  endfacet
  facet normal 0.866025 -0.5 0
    outer loop
      vertex -2.83156 2.05725 0
      vertex -2.86461 2 15.01
      vertex -2.86461 2 0
    endloop
  endfacet
  facet normal 0.743145 -0.66913 0
    outer loop
      vertex -2.83156 2.05725 25
      vertex -2.34196 2.60101 0
      vertex -2.34196 2.60101 25
    endloop
  endfacet
  facet normal 0.743145 -0.66913 0
    outer loop
      vertex -2.34196 2.60101 0
      vertex -2.83156 2.05725 25
      vertex -2.83156 2.05725 0
    endloop
  endfacet
  facet normal 0.951056 -0.309017 0
    outer loop
      vertex -3.42352 0.727691 25
      vertex -3.19741 1.42358 15.01
      vertex -3.19741 1.42358 25
    endloop
  endfacet
  facet normal 0.951056 -0.309017 0
    outer loop
      vertex -3.19741 1.42358 15.01
      vertex -3.42352 0.727691 25
      vertex -3.42352 0.727691 15.01
    endloop
  endfacet
  facet normal 0.207912 -0.978147 0
    outer loop
      vertex -1.08156 3.3287 0
      vertex -0.365849 3.48083 25
      vertex -1.08156 3.3287 25
    endloop
  endfacet
  facet normal 0.207912 -0.978147 0
    outer loop
      vertex -0.365849 3.48083 25
      vertex -1.08156 3.3287 0
      vertex -0.365849 3.48083 0
    endloop
  endfacet
  facet normal -0.994522 0.104529 0
    outer loop
      vertex 3.42352 -0.727691 0
      vertex 3.5 0 15.01
      vertex 3.5 0 0
    endloop
  endfacet
  facet normal -0.994522 0.104529 0
    outer loop
      vertex 3.42352 -0.727691 25
      vertex 3.5 0 15.01
      vertex 3.42352 -0.727691 0
    endloop
  endfacet
  facet normal -0.994522 0.104529 0
    outer loop
      vertex 3.5 0 15.01
      vertex 3.42352 -0.727691 25
      vertex 3.5 0 25
    endloop
  endfacet
  facet normal -0.743145 0.66913 0
    outer loop
      vertex 2.34196 -2.60101 0
      vertex 2.83156 -2.05725 25
      vertex 2.83156 -2.05725 0
    endloop
  endfacet
  facet normal -0.743145 0.66913 0
    outer loop
      vertex 2.83156 -2.05725 25
      vertex 2.34196 -2.60101 0
      vertex 2.34196 -2.60101 25
    endloop
  endfacet
  facet normal -0.951056 0.309017 0
    outer loop
      vertex 3.19741 -1.42358 0
      vertex 3.42352 -0.727691 25
      vertex 3.42352 -0.727691 0
    endloop
  endfacet
  facet normal -0.951056 0.309017 0
    outer loop
      vertex 3.42352 -0.727691 25
      vertex 3.19741 -1.42358 0
      vertex 3.19741 -1.42358 25
    endloop
  endfacet
  facet normal -0.866026 0.499999 0
    outer loop
      vertex 2.83156 -2.05725 0
      vertex 3.19741 -1.42358 25
      vertex 3.19741 -1.42358 0
    endloop
  endfacet
  facet normal -0.866026 0.499999 0
    outer loop
      vertex 3.19741 -1.42358 25
      vertex 2.83156 -2.05725 0
      vertex 2.83156 -2.05725 25
    endloop
  endfacet
  facet normal 0.587786 0.809017 -0
    outer loop
      vertex -1.75 -3.03109 0
      vertex -2.34196 -2.60101 25
      vertex -1.75 -3.03109 25
    endloop
  endfacet
  facet normal 0.587786 0.809017 0
    outer loop
      vertex -2.34196 -2.60101 25
      vertex -1.75 -3.03109 0
      vertex -2.34196 -2.60101 0
    endloop
  endfacet
  facet normal 0.866026 0.499999 0
    outer loop
      vertex -2.83156 -2.05725 25
      vertex -3.19741 -1.42358 0
      vertex -3.19741 -1.42358 25
    endloop
  endfacet
  facet normal 0.866026 0.499999 0
    outer loop
      vertex -3.19741 -1.42358 0
      vertex -2.83156 -2.05725 25
      vertex -2.83156 -2.05725 0
    endloop
  endfacet
  facet normal -0.587786 0.809017 0
    outer loop
      vertex 2.34196 -2.60101 0
      vertex 1.75 -3.03109 25
      vertex 2.34196 -2.60101 25
    endloop
  endfacet
  facet normal -0.587786 0.809017 0
    outer loop
      vertex 1.75 -3.03109 25
      vertex 2.34196 -2.60101 0
      vertex 1.75 -3.03109 0
    endloop
  endfacet
  facet normal 0.207912 0.978147 -0
    outer loop
      vertex -0.365849 -3.48083 0
      vertex -1.08156 -3.3287 25
      vertex -0.365849 -3.48083 25
    endloop
  endfacet
  facet normal 0.207912 0.978147 0
    outer loop
      vertex -1.08156 -3.3287 25
      vertex -0.365849 -3.48083 0
      vertex -1.08156 -3.3287 0
    endloop
  endfacet
  facet normal 0.406736 0.913546 -0
    outer loop
      vertex -1.08156 -3.3287 0
      vertex -1.75 -3.03109 25
      vertex -1.08156 -3.3287 25
    endloop
  endfacet
  facet normal 0.406736 0.913546 0
    outer loop
      vertex -1.75 -3.03109 25
      vertex -1.08156 -3.3287 0
      vertex -1.75 -3.03109 0
    endloop
  endfacet
  facet normal 0.743145 0.66913 0
    outer loop
      vertex -2.34196 -2.60101 25
      vertex -2.83156 -2.05725 0
      vertex -2.83156 -2.05725 25
    endloop
  endfacet
  facet normal 0.743145 0.66913 0
    outer loop
      vertex -2.83156 -2.05725 0
      vertex -2.34196 -2.60101 25
      vertex -2.34196 -2.60101 0
    endloop
  endfacet
  facet normal 0.951056 0.309017 0
    outer loop
      vertex -3.19741 -1.42358 25
      vertex -3.42352 -0.727691 0
      vertex -3.42352 -0.727691 25
    endloop
  endfacet
  facet normal 0.951056 0.309017 0
    outer loop
      vertex -3.42352 -0.727691 0
      vertex -3.19741 -1.42358 25
      vertex -3.19741 -1.42358 0
    endloop
  endfacet
  facet normal 0.994522 0.104529 0
    outer loop
      vertex -3.42352 -0.727691 25
      vertex -3.5 0 15.01
      vertex -3.5 0 25
    endloop
  endfacet
  facet normal 0.994522 0.104529 -0
    outer loop
      vertex -3.42352 -0.727691 0
      vertex -3.5 0 15.01
      vertex -3.42352 -0.727691 25
    endloop
  endfacet
  facet normal 0.994522 0.104529 0
    outer loop
      vertex -3.5 0 15.01
      vertex -3.42352 -0.727691 0
      vertex -3.5 0 0
    endloop
  endfacet
  facet normal -0.406736 0.913546 0
    outer loop
      vertex 1.75 -3.03109 0
      vertex 1.08156 -3.3287 25
      vertex 1.75 -3.03109 25
    endloop
  endfacet
  facet normal -0.406736 0.913546 0
    outer loop
      vertex 1.08156 -3.3287 25
      vertex 1.75 -3.03109 0
      vertex 1.08156 -3.3287 0
    endloop
  endfacet
  facet normal -0.207912 0.978147 0
    outer loop
      vertex 1.08156 -3.3287 0
      vertex 0.365849 -3.48083 25
      vertex 1.08156 -3.3287 25
    endloop
  endfacet
  facet normal -0.207912 0.978147 0
    outer loop
      vertex 0.365849 -3.48083 25
      vertex 1.08156 -3.3287 0
      vertex 0.365849 -3.48083 0
    endloop
  endfacet
  facet normal 1 -0 0
    outer loop
      vertex -4.125 0 15.01
      vertex -4.125 2 0
      vertex -4.125 2 15.01
    endloop
  endfacet
  facet normal 1 0 0
    outer loop
      vertex -4.125 2 0
      vertex -4.125 0 15.01
      vertex -4.125 0 0
    endloop
  endfacet
  facet normal 0 0 -1
    outer loop
      vertex -4.125 0 15.01
      vertex -3.42352 0.727691 15.01
      vertex -3.5 0 15.01
    endloop
  endfacet
  facet normal 0 0 -1
    outer loop
      vertex -4.125 2 15.01
      vertex -3.42352 0.727691 15.01
      vertex -4.125 0 15.01
    endloop
  endfacet
  facet normal 0 0 -1
    outer loop
      vertex -3.42352 0.727691 15.01
      vertex -4.125 2 15.01
      vertex -3.19741 1.42358 15.01
    endloop
  endfacet
  facet normal 0 0 -1
    outer loop
      vertex -3.19741 1.42358 15.01
      vertex -4.125 2 15.01
      vertex -2.86461 2 15.01
    endloop
  endfacet
  facet normal 0 0 -1
    outer loop
      vertex 3.42352 0.727691 15.01
      vertex 4.125 0 15.01
      vertex 3.5 0 15.01
    endloop
  endfacet
  facet normal 0 0 -1
    outer loop
      vertex 4.125 0 15.01
      vertex 3.42352 0.727691 15.01
      vertex 4.125 2 15.01
    endloop
  endfacet
  facet normal 0 0 -1
    outer loop
      vertex 3.19741 1.42358 15.01
      vertex 4.125 2 15.01
      vertex 3.42352 0.727691 15.01
    endloop
  endfacet
  facet normal -0 0 -1
    outer loop
      vertex 4.125 2 15.01
      vertex 3.19741 1.42358 15.01
      vertex 2.86461 2 15.01
    endloop
  endfacet
  facet normal -1 0 0
    outer loop
      vertex 4.125 0 0
      vertex 4.125 2 15.01
      vertex 4.125 2 0
    endloop
  endfacet
  facet normal -1 -0 0
    outer loop
      vertex 4.125 2 15.01
      vertex 4.125 0 0
      vertex 4.125 0 15.01
    endloop
  endfacet
  facet normal 0 1 -0
    outer loop
      vertex -3.5 0 0
      vertex -4.125 0 15.01
      vertex -3.5 0 15.01
    endloop
  endfacet
  facet normal 0 1 0
    outer loop
      vertex -4.125 0 15.01
      vertex -3.5 0 0
      vertex -4.125 0 0
    endloop
  endfacet
  facet normal 0 1 -0
    outer loop
      vertex 4.125 0 0
      vertex 3.5 0 15.01
      vertex 4.125 0 15.01
    endloop
  endfacet
  facet normal 0 1 0
    outer loop
      vertex 3.5 0 15.01
      vertex 4.125 0 0
      vertex 3.5 0 0
    endloop
  endfacet
  facet normal 0 -1 0
    outer loop
      vertex 2.86461 2 0
      vertex 4.125 2 15.01
      vertex 2.86461 2 15.01
    endloop
  endfacet
  facet normal 0 -1 -0
    outer loop
      vertex 4.125 2 15.01
      vertex 2.86461 2 0
      vertex 4.125 2 0
    endloop
  endfacet
  facet normal 0 -1 0
    outer loop
      vertex -4.125 2 0
      vertex -2.86461 2 15.01
      vertex -4.125 2 15.01
    endloop
  endfacet
  facet normal 0 -1 -0
    outer loop
      vertex -2.86461 2 15.01
      vertex -4.125 2 0
      vertex -2.86461 2 0
    endloop
  endfacet
  facet normal 0.994522 0.104529 0
    outer loop
      vertex 6 0 25
      vertex 5.86889 1.24747 0
      vertex 5.86889 1.24747 25
    endloop
  endfacet
  facet normal 0.994522 0.104529 0
    outer loop
      vertex 5.86889 1.24747 0
      vertex 6 0 25
      vertex 6 0 0
    endloop
  endfacet
  facet normal -0.994522 0.104529 0
    outer loop
      vertex -6 0 0
      vertex -5.86889 1.24747 25
      vertex -5.86889 1.24747 0
    endloop
  endfacet
  facet normal -0.994522 0.104529 0
    outer loop
      vertex -5.86889 1.24747 25
      vertex -6 0 0
      vertex -6 0 25
    endloop
  endfacet
  facet normal 0 1 -0
    outer loop
      vertex 0.627171 5.96713 0
      vertex -0.627171 5.96713 25
      vertex 0.627171 5.96713 25
    endloop
  endfacet
  facet normal 0 1 0
    outer loop
      vertex -0.627171 5.96713 25
      vertex 0.627171 5.96713 0
      vertex -0.627171 5.96713 0
    endloop
  endfacet
  facet normal 0 -1 0
    outer loop
      vertex -0.627171 -5.96713 0
      vertex 0.627171 -5.96713 25
      vertex -0.627171 -5.96713 25
    endloop
  endfacet
  facet normal 0 -1 -0
    outer loop
      vertex 0.627171 -5.96713 25
      vertex -0.627171 -5.96713 0
      vertex 0.627171 -5.96713 0
    endloop
  endfacet
  facet normal 0.587786 0.809017 -0
    outer loop
      vertex 4.01478 4.45887 0
      vertex 3 5.19615 25
      vertex 4.01478 4.45887 25
    endloop
  endfacet
  facet normal 0.587786 0.809017 0
    outer loop
      vertex 3 5.19615 25
      vertex 4.01478 4.45887 0
      vertex 3 5.19615 0
    endloop
  endfacet
  facet normal 0.406737 0.913545 -0
    outer loop
      vertex 3 5.19615 0
      vertex 1.8541 5.70634 25
      vertex 3 5.19615 25
    endloop
  endfacet
  facet normal 0.406737 0.913545 0
    outer loop
      vertex 1.8541 5.70634 25
      vertex 3 5.19615 0
      vertex 1.8541 5.70634 0
    endloop
  endfacet
  facet normal -0.743145 0.669131 0
    outer loop
      vertex -4.8541 3.52671 0
      vertex -4.01478 4.45887 25
      vertex -4.01478 4.45887 0
    endloop
  endfacet
  facet normal -0.743145 0.669131 0
    outer loop
      vertex -4.01478 4.45887 25
      vertex -4.8541 3.52671 0
      vertex -4.8541 3.52671 25
    endloop
  endfacet
  facet normal -0.866025 0.5 0
    outer loop
      vertex -5.48127 2.44042 0
      vertex -4.8541 3.52671 25
      vertex -4.8541 3.52671 0
    endloop
  endfacet
  facet normal -0.866025 0.5 0
    outer loop
      vertex -4.8541 3.52671 25
      vertex -5.48127 2.44042 0
      vertex -5.48127 2.44042 25
    endloop
  endfacet
  facet normal -0.406737 0.913545 0
    outer loop
      vertex -1.8541 5.70634 0
      vertex -3 5.19615 25
      vertex -1.8541 5.70634 25
    endloop
  endfacet
  facet normal -0.406737 0.913545 0
    outer loop
      vertex -3 5.19615 25
      vertex -1.8541 5.70634 0
      vertex -3 5.19615 0
    endloop
  endfacet
  facet normal 0.951057 -0.309017 0
    outer loop
      vertex 5.48127 -2.44042 25
      vertex 5.86889 -1.24747 0
      vertex 5.86889 -1.24747 25
    endloop
  endfacet
  facet normal 0.951057 -0.309017 0
    outer loop
      vertex 5.86889 -1.24747 0
      vertex 5.48127 -2.44042 25
      vertex 5.48127 -2.44042 0
    endloop
  endfacet
  facet normal 0.866025 0.5 0
    outer loop
      vertex 5.48127 2.44042 25
      vertex 4.8541 3.52671 0
      vertex 4.8541 3.52671 25
    endloop
  endfacet
  facet normal 0.866025 0.5 0
    outer loop
      vertex 4.8541 3.52671 0
      vertex 5.48127 2.44042 25
      vertex 5.48127 2.44042 0
    endloop
  endfacet
  facet normal 0.951057 0.309017 0
    outer loop
      vertex 5.86889 1.24747 25
      vertex 5.48127 2.44042 0
      vertex 5.48127 2.44042 25
    endloop
  endfacet
  facet normal 0.951057 0.309017 0
    outer loop
      vertex 5.48127 2.44042 0
      vertex 5.86889 1.24747 25
      vertex 5.86889 1.24747 0
    endloop
  endfacet
  facet normal 0.743145 0.669131 0
    outer loop
      vertex 4.8541 3.52671 25
      vertex 4.01478 4.45887 0
      vertex 4.01478 4.45887 25
    endloop
  endfacet
  facet normal 0.743145 0.669131 0
    outer loop
      vertex 4.01478 4.45887 0
      vertex 4.8541 3.52671 25
      vertex 4.8541 3.52671 0
    endloop
  endfacet
  facet normal 0.207911 0.978148 -0
    outer loop
      vertex 1.8541 5.70634 0
      vertex 0.627171 5.96713 25
      vertex 1.8541 5.70634 25
    endloop
  endfacet
  facet normal 0.207911 0.978148 0
    outer loop
      vertex 0.627171 5.96713 25
      vertex 1.8541 5.70634 0
      vertex 0.627171 5.96713 0
    endloop
  endfacet
  facet normal -0.951057 0.309017 0
    outer loop
      vertex -5.86889 1.24747 0
      vertex -5.48127 2.44042 25
      vertex -5.48127 2.44042 0
    endloop
  endfacet
  facet normal -0.951057 0.309017 0
    outer loop
      vertex -5.48127 2.44042 25
      vertex -5.86889 1.24747 0
      vertex -5.86889 1.24747 25
    endloop
  endfacet
  facet normal 0 0 1
    outer loop
      vertex 3.5 0 25
      vertex 6 0 25
      vertex 5.86889 1.24747 25
    endloop
  endfacet
  facet normal 0 0 1
    outer loop
      vertex 3.42352 0.727691 25
      vertex 5.86889 1.24747 25
      vertex 5.48127 2.44042 25
    endloop
  endfacet
  facet normal 0 0 1
    outer loop
      vertex 6 0 25
      vertex 3.5 0 25
      vertex 5.86889 -1.24747 25
    endloop
  endfacet
  facet normal 0 0 1
    outer loop
      vertex 3.19741 1.42358 25
      vertex 5.48127 2.44042 25
      vertex 4.8541 3.52671 25
    endloop
  endfacet
  facet normal -0 0 1
    outer loop
      vertex 3.42352 -0.727691 25
      vertex 5.86889 -1.24747 25
      vertex 3.5 0 25
    endloop
  endfacet
  facet normal 0 0 1
    outer loop
      vertex 2.83156 2.05725 25
      vertex 4.8541 3.52671 25
      vertex 4.01478 4.45887 25
    endloop
  endfacet
  facet normal 0 0 1
    outer loop
      vertex 5.86889 -1.24747 25
      vertex 3.42352 -0.727691 25
      vertex 5.48127 -2.44042 25
    endloop
  endfacet
  facet normal -0 0 1
    outer loop
      vertex 3.19741 -1.42358 25
      vertex 5.48127 -2.44042 25
      vertex 3.42352 -0.727691 25
    endloop
  endfacet
  facet normal 0 0 1
    outer loop
      vertex 5.86889 1.24747 25
      vertex 3.42352 0.727691 25
      vertex 3.5 0 25
    endloop
  endfacet
  facet normal 0 0 1
    outer loop
      vertex 5.48127 2.44042 25
      vertex 3.19741 1.42358 25
      vertex 3.42352 0.727691 25
    endloop
  endfacet
  facet normal 0 0 1
    outer loop
      vertex 2.34196 2.60101 25
      vertex 4.01478 4.45887 25
      vertex 3 5.19615 25
    endloop
  endfacet
  facet normal 0 0 1
    outer loop
      vertex 4.8541 3.52671 25
      vertex 2.83156 2.05725 25
      vertex 3.19741 1.42358 25
    endloop
  endfacet
  facet normal 0 0 1
    outer loop
      vertex 4.01478 4.45887 25
      vertex 2.34196 2.60101 25
      vertex 2.83156 2.05725 25
    endloop
  endfacet
  facet normal 0 0 1
    outer loop
      vertex 1.75 3.03109 25
      vertex 3 5.19615 25
      vertex 1.8541 5.70634 25
    endloop
  endfacet
  facet normal 0 0 1
    outer loop
      vertex 3 5.19615 25
      vertex 1.75 3.03109 25
      vertex 2.34196 2.60101 25
    endloop
  endfacet
  facet normal 0 0 1
    outer loop
      vertex 1.8541 5.70634 25
      vertex 1.08156 3.3287 25
      vertex 1.75 3.03109 25
    endloop
  endfacet
  facet normal 0 0 1
    outer loop
      vertex 0.627171 5.96713 25
      vertex 1.08156 3.3287 25
      vertex 1.8541 5.70634 25
    endloop
  endfacet
  facet normal 0 0 1
    outer loop
      vertex 0.627171 5.96713 25
      vertex 0.365849 3.48083 25
      vertex 1.08156 3.3287 25
    endloop
  endfacet
  facet normal 0 0 1
    outer loop
      vertex 0.627171 5.96713 25
      vertex -0.365849 3.48083 25
      vertex 0.365849 3.48083 25
    endloop
  endfacet
  facet normal -0 0 1
    outer loop
      vertex -0.627171 5.96713 25
      vertex -0.365849 3.48083 25
      vertex 0.627171 5.96713 25
    endloop
  endfacet
  facet normal 0 0 1
    outer loop
      vertex -0.627171 5.96713 25
      vertex -1.08156 3.3287 25
      vertex -0.365849 3.48083 25
    endloop
  endfacet
  facet normal -0 0 1
    outer loop
      vertex -1.8541 5.70634 25
      vertex -1.08156 3.3287 25
      vertex -0.627171 5.96713 25
    endloop
  endfacet
  facet normal 0 0 1
    outer loop
      vertex -1.08156 3.3287 25
      vertex -1.8541 5.70634 25
      vertex -1.75 3.03109 25
    endloop
  endfacet
  facet normal -0 0 1
    outer loop
      vertex -3 5.19615 25
      vertex -1.75 3.03109 25
      vertex -1.8541 5.70634 25
    endloop
  endfacet
  facet normal 0 0 1
    outer loop
      vertex -1.75 3.03109 25
      vertex -3 5.19615 25
      vertex -2.34196 2.60101 25
    endloop
  endfacet
  facet normal -0 0 1
    outer loop
      vertex -4.01478 4.45887 25
      vertex -2.34196 2.60101 25
      vertex -3 5.19615 25
    endloop
  endfacet
  facet normal 0 0 1
    outer loop
      vertex -2.34196 2.60101 25
      vertex -4.01478 4.45887 25
      vertex -2.83156 2.05725 25
    endloop
  endfacet
  facet normal -0 0 1
    outer loop
      vertex -4.8541 3.52671 25
      vertex -2.83156 2.05725 25
      vertex -4.01478 4.45887 25
    endloop
  endfacet
  facet normal 0 0 1
    outer loop
      vertex -2.83156 2.05725 25
      vertex -4.8541 3.52671 25
      vertex -3.19741 1.42358 25
    endloop
  endfacet
  facet normal -0 0 1
    outer loop
      vertex -5.48127 2.44042 25
      vertex -3.19741 1.42358 25
      vertex -4.8541 3.52671 25
    endloop
  endfacet
  facet normal 0 0 1
    outer loop
      vertex 5.48127 -2.44042 25
      vertex 3.19741 -1.42358 25
      vertex 4.8541 -3.52671 25
    endloop
  endfacet
  facet normal -0 0 1
    outer loop
      vertex 2.83156 -2.05725 25
      vertex 4.8541 -3.52671 25
      vertex 3.19741 -1.42358 25
    endloop
  endfacet
  facet normal 0 0 1
    outer loop
      vertex 4.8541 -3.52671 25
      vertex 2.83156 -2.05725 25
      vertex 4.01478 -4.45887 25
    endloop
  endfacet
  facet normal -0 0 1
    outer loop
      vertex 2.34196 -2.60101 25
      vertex 4.01478 -4.45887 25
      vertex 2.83156 -2.05725 25
    endloop
  endfacet
  facet normal 0 0 1
    outer loop
      vertex 4.01478 -4.45887 25
      vertex 2.34196 -2.60101 25
      vertex 3 -5.19615 25
    endloop
  endfacet
  facet normal -0 0 1
    outer loop
      vertex 1.75 -3.03109 25
      vertex 3 -5.19615 25
      vertex 2.34196 -2.60101 25
    endloop
  endfacet
  facet normal 0 0 1
    outer loop
      vertex 3 -5.19615 25
      vertex 1.75 -3.03109 25
      vertex 1.8541 -5.70634 25
    endloop
  endfacet
  facet normal -0 0 1
    outer loop
      vertex 1.08156 -3.3287 25
      vertex 1.8541 -5.70634 25
      vertex 1.75 -3.03109 25
    endloop
  endfacet
  facet normal 0 0 1
    outer loop
      vertex 1.08156 -3.3287 25
      vertex 0.627171 -5.96713 25
      vertex 1.8541 -5.70634 25
    endloop
  endfacet
  facet normal -0 0 1
    outer loop
      vertex 0.365849 -3.48083 25
      vertex 0.627171 -5.96713 25
      vertex 1.08156 -3.3287 25
    endloop
  endfacet
  facet normal -0 0 1
    outer loop
      vertex -0.365849 -3.48083 25
      vertex 0.627171 -5.96713 25
      vertex 0.365849 -3.48083 25
    endloop
  endfacet
  facet normal 0 0 1
    outer loop
      vertex -0.365849 -3.48083 25
      vertex -0.627171 -5.96713 25
      vertex 0.627171 -5.96713 25
    endloop
  endfacet
  facet normal 0 0 1
    outer loop
      vertex -1.08156 -3.3287 25
      vertex -0.627171 -5.96713 25
      vertex -0.365849 -3.48083 25
    endloop
  endfacet
  facet normal 0 0 1
    outer loop
      vertex -1.8541 -5.70634 25
      vertex -1.08156 -3.3287 25
      vertex -1.75 -3.03109 25
    endloop
  endfacet
  facet normal 0 0 1
    outer loop
      vertex -1.08156 -3.3287 25
      vertex -1.8541 -5.70634 25
      vertex -0.627171 -5.96713 25
    endloop
  endfacet
  facet normal 0 0 1
    outer loop
      vertex -3 -5.19615 25
      vertex -1.75 -3.03109 25
      vertex -2.34196 -2.60101 25
    endloop
  endfacet
  facet normal 0 0 1
    outer loop
      vertex -4.01478 -4.45887 25
      vertex -2.34196 -2.60101 25
      vertex -2.83156 -2.05725 25
    endloop
  endfacet
  facet normal 0 0 1
    outer loop
      vertex -1.75 -3.03109 25
      vertex -3 -5.19615 25
      vertex -1.8541 -5.70634 25
    endloop
  endfacet
  facet normal 0 0 1
    outer loop
      vertex -4.8541 -3.52671 25
      vertex -2.83156 -2.05725 25
      vertex -3.19741 -1.42358 25
    endloop
  endfacet
  facet normal 0 0 1
    outer loop
      vertex -5.48127 -2.44042 25
      vertex -3.19741 -1.42358 25
      vertex -3.42352 -0.727691 25
    endloop
  endfacet
  facet normal 0 0 1
    outer loop
      vertex -5.86889 -1.24747 25
      vertex -3.42352 -0.727691 25
      vertex -3.5 0 25
    endloop
  endfacet
  facet normal 0 0 1
    outer loop
      vertex -3.19741 1.42358 25
      vertex -5.48127 2.44042 25
      vertex -3.42352 0.727691 25
    endloop
  endfacet
  facet normal 0 0 1
    outer loop
      vertex -2.34196 -2.60101 25
      vertex -4.01478 -4.45887 25
      vertex -3 -5.19615 25
    endloop
  endfacet
  facet normal -0 0 1
    outer loop
      vertex -5.86889 1.24747 25
      vertex -3.42352 0.727691 25
      vertex -5.48127 2.44042 25
    endloop
  endfacet
  facet normal 0 0 1
    outer loop
      vertex -2.83156 -2.05725 25
      vertex -4.8541 -3.52671 25
      vertex -4.01478 -4.45887 25
    endloop
  endfacet
  facet normal 0 0 1
    outer loop
      vertex -3.42352 0.727691 25
      vertex -5.86889 1.24747 25
      vertex -3.5 0 25
    endloop
  endfacet
  facet normal 0 0 1
    outer loop
      vertex -3.19741 -1.42358 25
      vertex -5.48127 -2.44042 25
      vertex -4.8541 -3.52671 25
    endloop
  endfacet
  facet normal 0 0 1
    outer loop
      vertex -6 0 25
      vertex -3.5 0 25
      vertex -5.86889 1.24747 25
    endloop
  endfacet
  facet normal 0 0 1
    outer loop
      vertex -3.42352 -0.727691 25
      vertex -5.86889 -1.24747 25
      vertex -5.48127 -2.44042 25
    endloop
  endfacet
  facet normal 0 0 1
    outer loop
      vertex -3.5 0 25
      vertex -6 0 25
      vertex -5.86889 -1.24747 25
    endloop
  endfacet
  facet normal -0.587785 0.809017 0
    outer loop
      vertex -3 5.19615 0
      vertex -4.01478 4.45887 25
      vertex -3 5.19615 25
    endloop
  endfacet
  facet normal -0.587785 0.809017 0
    outer loop
      vertex -4.01478 4.45887 25
      vertex -3 5.19615 0
      vertex -4.01478 4.45887 0
    endloop
  endfacet
  facet normal -0.207911 0.978148 0
    outer loop
      vertex -0.627171 5.96713 0
      vertex -1.8541 5.70634 25
      vertex -0.627171 5.96713 25
    endloop
  endfacet
  facet normal -0.207911 0.978148 0
    outer loop
      vertex -1.8541 5.70634 25
      vertex -0.627171 5.96713 0
      vertex -1.8541 5.70634 0
    endloop
  endfacet
  facet normal 0.994522 -0.104529 0
    outer loop
      vertex 5.86889 -1.24747 25
      vertex 6 0 0
      vertex 6 0 25
    endloop
  endfacet
  facet normal 0.994522 -0.104529 0
    outer loop
      vertex 6 0 0
      vertex 5.86889 -1.24747 25
      vertex 5.86889 -1.24747 0
    endloop
  endfacet
  facet normal 0 0 -1
    outer loop
      vertex 4.125 0 0
      vertex 6 0 0
      vertex 5.86889 -1.24747 0
    endloop
  endfacet
  facet normal 0 0 -1
    outer loop
      vertex 3.42352 -0.727691 0
      vertex 5.86889 -1.24747 0
      vertex 5.48127 -2.44042 0
    endloop
  endfacet
  facet normal 0 0 -1
    outer loop
      vertex 6 0 0
      vertex 4.125 0 0
      vertex 5.86889 1.24747 0
    endloop
  endfacet
  facet normal 0 0 -1
    outer loop
      vertex 3.19741 -1.42358 0
      vertex 5.48127 -2.44042 0
      vertex 4.8541 -3.52671 0
    endloop
  endfacet
  facet normal 0 0 -1
    outer loop
      vertex 4.125 2 0
      vertex 5.86889 1.24747 0
      vertex 4.125 0 0
    endloop
  endfacet
  facet normal 0 0 -1
    outer loop
      vertex 5.86889 1.24747 0
      vertex 4.125 2 0
      vertex 5.48127 2.44042 0
    endloop
  endfacet
  facet normal 0 0 -1
    outer loop
      vertex 2.83156 -2.05725 0
      vertex 4.8541 -3.52671 0
      vertex 4.01478 -4.45887 0
    endloop
  endfacet
  facet normal 0 0 -1
    outer loop
      vertex 5.48127 -2.44042 0
      vertex 3.19741 -1.42358 0
      vertex 3.42352 -0.727691 0
    endloop
  endfacet
  facet normal -0 0 -1
    outer loop
      vertex 4.125 0 0
      vertex 3.42352 -0.727691 0
      vertex 3.5 0 0
    endloop
  endfacet
  facet normal 0 0 -1
    outer loop
      vertex 5.86889 -1.24747 0
      vertex 3.42352 -0.727691 0
      vertex 4.125 0 0
    endloop
  endfacet
  facet normal 0 0 -1
    outer loop
      vertex 2.34196 -2.60101 0
      vertex 4.01478 -4.45887 0
      vertex 3 -5.19615 0
    endloop
  endfacet
  facet normal 0 0 -1
    outer loop
      vertex 4.8541 -3.52671 0
      vertex 2.83156 -2.05725 0
      vertex 3.19741 -1.42358 0
    endloop
  endfacet
  facet normal 0 0 -1
    outer loop
      vertex 4.01478 -4.45887 0
      vertex 2.34196 -2.60101 0
      vertex 2.83156 -2.05725 0
    endloop
  endfacet
  facet normal 0 0 -1
    outer loop
      vertex 1.75 -3.03109 0
      vertex 3 -5.19615 0
      vertex 1.8541 -5.70634 0
    endloop
  endfacet
  facet normal 0 0 -1
    outer loop
      vertex 3 -5.19615 0
      vertex 1.75 -3.03109 0
      vertex 2.34196 -2.60101 0
    endloop
  endfacet
  facet normal 0 0 -1
    outer loop
      vertex 1.8541 -5.70634 0
      vertex 1.08156 -3.3287 0
      vertex 1.75 -3.03109 0
    endloop
  endfacet
  facet normal 0 0 -1
    outer loop
      vertex 0.627171 -5.96713 0
      vertex 1.08156 -3.3287 0
      vertex 1.8541 -5.70634 0
    endloop
  endfacet
  facet normal 0 0 -1
    outer loop
      vertex 0.627171 -5.96713 0
      vertex 0.365849 -3.48083 0
      vertex 1.08156 -3.3287 0
    endloop
  endfacet
  facet normal 0 0 -1
    outer loop
      vertex 0.627171 -5.96713 0
      vertex -0.365849 -3.48083 0
      vertex 0.365849 -3.48083 0
    endloop
  endfacet
  facet normal 0 0 -1
    outer loop
      vertex -0.627171 -5.96713 0
      vertex -0.365849 -3.48083 0
      vertex 0.627171 -5.96713 0
    endloop
  endfacet
  facet normal 0 0 -1
    outer loop
      vertex -0.627171 -5.96713 0
      vertex -1.08156 -3.3287 0
      vertex -0.365849 -3.48083 0
    endloop
  endfacet
  facet normal 0 0 -1
    outer loop
      vertex -1.8541 -5.70634 0
      vertex -1.08156 -3.3287 0
      vertex -0.627171 -5.96713 0
    endloop
  endfacet
  facet normal -0 0 -1
    outer loop
      vertex -1.08156 -3.3287 0
      vertex -1.8541 -5.70634 0
      vertex -1.75 -3.03109 0
    endloop
  endfacet
  facet normal 0 0 -1
    outer loop
      vertex -3 -5.19615 0
      vertex -1.75 -3.03109 0
      vertex -1.8541 -5.70634 0
    endloop
  endfacet
  facet normal -0 0 -1
    outer loop
      vertex -1.75 -3.03109 0
      vertex -3 -5.19615 0
      vertex -2.34196 -2.60101 0
    endloop
  endfacet
  facet normal 0 0 -1
    outer loop
      vertex -4.01478 -4.45887 0
      vertex -2.34196 -2.60101 0
      vertex -3 -5.19615 0
    endloop
  endfacet
  facet normal -0 0 -1
    outer loop
      vertex -2.34196 -2.60101 0
      vertex -4.01478 -4.45887 0
      vertex -2.83156 -2.05725 0
    endloop
  endfacet
  facet normal 0 0 -1
    outer loop
      vertex -4.8541 -3.52671 0
      vertex -2.83156 -2.05725 0
      vertex -4.01478 -4.45887 0
    endloop
  endfacet
  facet normal -0 0 -1
    outer loop
      vertex -2.83156 -2.05725 0
      vertex -4.8541 -3.52671 0
      vertex -3.19741 -1.42358 0
    endloop
  endfacet
  facet normal 0 0 -1
    outer loop
      vertex -5.48127 -2.44042 0
      vertex -3.19741 -1.42358 0
      vertex -4.8541 -3.52671 0
    endloop
  endfacet
  facet normal -0 0 -1
    outer loop
      vertex -3.19741 -1.42358 0
      vertex -5.48127 -2.44042 0
      vertex -3.42352 -0.727691 0
    endloop
  endfacet
  facet normal 0 0 -1
    outer loop
      vertex -3.42352 -0.727691 0
      vertex -4.125 0 0
      vertex -3.5 0 0
    endloop
  endfacet
  facet normal 0 0 -1
    outer loop
      vertex -5.86889 -1.24747 0
      vertex -3.42352 -0.727691 0
      vertex -5.48127 -2.44042 0
    endloop
  endfacet
  facet normal -0 0 -1
    outer loop
      vertex 5.48127 2.44042 0
      vertex 4.125 2 0
      vertex 4.8541 3.52671 0
    endloop
  endfacet
  facet normal 0 0 -1
    outer loop
      vertex 4.125 2 0
      vertex 4.01478 4.45887 0
      vertex 4.8541 3.52671 0
    endloop
  endfacet
  facet normal 0 0 -1
    outer loop
      vertex 2.34196 2.60101 0
      vertex 4.01478 4.45887 0
      vertex 4.125 2 0
    endloop
  endfacet
  facet normal 0 0 -1
    outer loop
      vertex 2.83156 2.05725 0
      vertex 4.125 2 0
      vertex 2.86461 2 0
    endloop
  endfacet
  facet normal 0 0 -1
    outer loop
      vertex 2.34196 2.60101 0
      vertex 4.125 2 0
      vertex 2.83156 2.05725 0
    endloop
  endfacet
  facet normal -0 0 -1
    outer loop
      vertex 4.01478 4.45887 0
      vertex 2.34196 2.60101 0
      vertex 3 5.19615 0
    endloop
  endfacet
  facet normal 0 0 -1
    outer loop
      vertex 1.75 3.03109 0
      vertex 3 5.19615 0
      vertex 2.34196 2.60101 0
    endloop
  endfacet
  facet normal -0 0 -1
    outer loop
      vertex 3 5.19615 0
      vertex 1.75 3.03109 0
      vertex 1.8541 5.70634 0
    endloop
  endfacet
  facet normal 0 0 -1
    outer loop
      vertex 1.08156 3.3287 0
      vertex 1.8541 5.70634 0
      vertex 1.75 3.03109 0
    endloop
  endfacet
  facet normal 0 0 -1
    outer loop
      vertex 1.08156 3.3287 0
      vertex 0.627171 5.96713 0
      vertex 1.8541 5.70634 0
    endloop
  endfacet
  facet normal 0 0 -1
    outer loop
      vertex 0.365849 3.48083 0
      vertex 0.627171 5.96713 0
      vertex 1.08156 3.3287 0
    endloop
  endfacet
  facet normal 0 0 -1
    outer loop
      vertex -0.365849 3.48083 0
      vertex 0.627171 5.96713 0
      vertex 0.365849 3.48083 0
    endloop
  endfacet
  facet normal 0 0 -1
    outer loop
      vertex -0.365849 3.48083 0
      vertex -0.627171 5.96713 0
      vertex 0.627171 5.96713 0
    endloop
  endfacet
  facet normal 0 0 -1
    outer loop
      vertex -1.08156 3.3287 0
      vertex -0.627171 5.96713 0
      vertex -0.365849 3.48083 0
    endloop
  endfacet
  facet normal 0 0 -1
    outer loop
      vertex -1.8541 5.70634 0
      vertex -1.08156 3.3287 0
      vertex -1.75 3.03109 0
    endloop
  endfacet
  facet normal 0 0 -1
    outer loop
      vertex -1.08156 3.3287 0
      vertex -1.8541 5.70634 0
      vertex -0.627171 5.96713 0
    endloop
  endfacet
  facet normal 0 0 -1
    outer loop
      vertex -3 5.19615 0
      vertex -1.75 3.03109 0
      vertex -2.34196 2.60101 0
    endloop
  endfacet
  facet normal 0 0 -1
    outer loop
      vertex -4.125 2 0
      vertex -2.34196 2.60101 0
      vertex -2.83156 2.05725 0
    endloop
  endfacet
  facet normal 0 0 -1
    outer loop
      vertex -4.125 2 0
      vertex -2.83156 2.05725 0
      vertex -2.86461 2 0
    endloop
  endfacet
  facet normal 0 0 -1
    outer loop
      vertex -1.75 3.03109 0
      vertex -3 5.19615 0
      vertex -1.8541 5.70634 0
    endloop
  endfacet
  facet normal 0 0 -1
    outer loop
      vertex -2.34196 2.60101 0
      vertex -4.01478 4.45887 0
      vertex -3 5.19615 0
    endloop
  endfacet
  facet normal -0 0 -1
    outer loop
      vertex -2.34196 2.60101 0
      vertex -4.125 2 0
      vertex -4.01478 4.45887 0
    endloop
  endfacet
  facet normal -0 0 -1
    outer loop
      vertex -3.42352 -0.727691 0
      vertex -5.86889 -1.24747 0
      vertex -4.125 0 0
    endloop
  endfacet
  facet normal 0 0 -1
    outer loop
      vertex -4.125 2 0
      vertex -4.8541 3.52671 0
      vertex -4.01478 4.45887 0
    endloop
  endfacet
  facet normal 0 0 -1
    outer loop
      vertex -6 0 0
      vertex -4.125 0 0
      vertex -5.86889 -1.24747 0
    endloop
  endfacet
  facet normal 0 0 -1
    outer loop
      vertex -4.125 2 0
      vertex -5.48127 2.44042 0
      vertex -4.8541 3.52671 0
    endloop
  endfacet
  facet normal 0 -0 -1
    outer loop
      vertex -5.86889 1.24747 0
      vertex -4.125 0 0
      vertex -6 0 0
    endloop
  endfacet
  facet normal -0 0 -1
    outer loop
      vertex -4.125 2 0
      vertex -5.86889 1.24747 0
      vertex -5.48127 2.44042 0
    endloop
  endfacet
  facet normal 0 0 -1
    outer loop
      vertex -4.125 0 0
      vertex -5.86889 1.24747 0
      vertex -4.125 2 0
    endloop
  endfacet
  facet normal 0.207911 -0.978148 0
    outer loop
      vertex 0.627171 -5.96713 0
      vertex 1.8541 -5.70634 25
      vertex 0.627171 -5.96713 25
    endloop
  endfacet
  facet normal 0.207911 -0.978148 0
    outer loop
      vertex 1.8541 -5.70634 25
      vertex 0.627171 -5.96713 0
      vertex 1.8541 -5.70634 0
    endloop
  endfacet
  facet normal 0.866025 -0.5 0
    outer loop
      vertex 4.8541 -3.52671 25
      vertex 5.48127 -2.44042 0
      vertex 5.48127 -2.44042 25
    endloop
  endfacet
  facet normal 0.866025 -0.5 0
    outer loop
      vertex 5.48127 -2.44042 0
      vertex 4.8541 -3.52671 25
      vertex 4.8541 -3.52671 0
    endloop
  endfacet
  facet normal -0.866025 -0.5 0
    outer loop
      vertex -4.8541 -3.52671 0
      vertex -5.48127 -2.44042 25
      vertex -5.48127 -2.44042 0
    endloop
  endfacet
  facet normal -0.866025 -0.5 0
    outer loop
      vertex -5.48127 -2.44042 25
      vertex -4.8541 -3.52671 0
      vertex -4.8541 -3.52671 25
    endloop
  endfacet
  facet normal 0.587786 -0.809017 0
    outer loop
      vertex 3 -5.19615 0
      vertex 4.01478 -4.45887 25
      vertex 3 -5.19615 25
    endloop
  endfacet
  facet normal 0.587786 -0.809017 0
    outer loop
      vertex 4.01478 -4.45887 25
      vertex 3 -5.19615 0
      vertex 4.01478 -4.45887 0
    endloop
  endfacet
  facet normal 0.406737 -0.913545 0
    outer loop
      vertex 1.8541 -5.70634 0
      vertex 3 -5.19615 25
      vertex 1.8541 -5.70634 25
    endloop
  endfacet
  facet normal 0.406737 -0.913545 0
    outer loop
      vertex 3 -5.19615 25
      vertex 1.8541 -5.70634 0
      vertex 3 -5.19615 0
    endloop
  endfacet
  facet normal -0.207911 -0.978148 0
    outer loop
      vertex -1.8541 -5.70634 0
      vertex -0.627171 -5.96713 25
      vertex -1.8541 -5.70634 25
    endloop
  endfacet
  facet normal -0.207911 -0.978148 -0
    outer loop
      vertex -0.627171 -5.96713 25
      vertex -1.8541 -5.70634 0
      vertex -0.627171 -5.96713 0
    endloop
  endfacet
  facet normal -0.743145 -0.669131 0
    outer loop
      vertex -4.01478 -4.45887 0
      vertex -4.8541 -3.52671 25
      vertex -4.8541 -3.52671 0
    endloop
  endfacet
  facet normal -0.743145 -0.669131 0
    outer loop
      vertex -4.8541 -3.52671 25
      vertex -4.01478 -4.45887 0
      vertex -4.01478 -4.45887 25
    endloop
  endfacet
  facet normal -0.951057 -0.309017 0
    outer loop
      vertex -5.48127 -2.44042 0
      vertex -5.86889 -1.24747 25
      vertex -5.86889 -1.24747 0
    endloop
  endfacet
  facet normal -0.951057 -0.309017 0
    outer loop
      vertex -5.86889 -1.24747 25
      vertex -5.48127 -2.44042 0
      vertex -5.48127 -2.44042 25
    endloop
  endfacet
  facet normal -0.994522 -0.104529 0
    outer loop
      vertex -5.86889 -1.24747 0
      vertex -6 0 25
      vertex -6 0 0
    endloop
  endfacet
  facet normal -0.994522 -0.104529 0
    outer loop
      vertex -6 0 25
      vertex -5.86889 -1.24747 0
      vertex -5.86889 -1.24747 25
    endloop
  endfacet
  facet normal 0.743145 -0.669131 0
    outer loop
      vertex 4.01478 -4.45887 25
      vertex 4.8541 -3.52671 0
      vertex 4.8541 -3.52671 25
    endloop
  endfacet
  facet normal 0.743145 -0.669131 0
    outer loop
      vertex 4.8541 -3.52671 0
      vertex 4.01478 -4.45887 25
      vertex 4.01478 -4.45887 0
    endloop
  endfacet
  facet normal -0.406737 -0.913545 0
    outer loop
      vertex -3 -5.19615 0
      vertex -1.8541 -5.70634 25
      vertex -3 -5.19615 25
    endloop
  endfacet
  facet normal -0.406737 -0.913545 -0
    outer loop
      vertex -1.8541 -5.70634 25
      vertex -3 -5.19615 0
      vertex -1.8541 -5.70634 0
    endloop
  endfacet
  facet normal -0.587786 -0.809017 0
    outer loop
      vertex -4.01478 -4.45887 0
      vertex -3 -5.19615 25
      vertex -4.01478 -4.45887 25
    endloop
  endfacet
  facet normal -0.587786 -0.809017 -0
    outer loop
      vertex -3 -5.19615 25
      vertex -4.01478 -4.45887 0
      vertex -3 -5.19615 0
    endloop
  endfacet
endsolid OpenSCAD_Model
