<?xml version="1.0" encoding="UTF-8" standalone="no"?>
<!DOCTYPE svg PUBLIC "-//W3C//DTD SVG 20010904//EN"
              "http://www.w3.org/TR/2001/REC-SVG-20010904/DTD/svg10.dtd">

<svg xmlns="http://www.w3.org/2000/svg"
     width="8.52778in" height="7.61111in"
     viewBox="0 0 614 548">
  <path id="Selection"
        fill="none" stroke="black" stroke-width="1"
        d="M 289.00,0.00
           C 289.00,0.00 337.00,0.00 337.00,0.00
             339.41,0.00 343.52,-0.24 345.52,1.17
             348.41,3.23 349.82,16.08 350.60,20.00
             350.60,20.00 358.20,61.00 358.20,61.00
             358.20,61.00 361.70,77.96 361.70,77.96
             363.96,82.98 370.28,84.44 375.00,86.42
             375.00,86.42 415.00,102.65 415.00,102.65
             420.52,103.97 426.57,97.97 431.00,95.00
             431.00,95.00 469.00,69.00 469.00,69.00
             473.48,66.00 482.59,57.54 488.00,60.04
             490.91,61.38 499.24,70.24 502.00,73.00
             502.00,73.00 532.00,103.00 532.00,103.00
             535.86,106.86 544.18,112.94 542.14,119.00
             541.11,122.08 534.55,130.76 532.34,134.00
             532.34,134.00 509.67,167.00 509.67,167.00
             507.54,170.15 500.52,179.89 500.03,183.00
             499.68,185.19 500.49,187.03 501.29,189.00
             501.29,189.00 516.72,225.00 516.72,225.00
             518.63,229.42 521.06,237.34 525.11,239.91
             527.96,241.73 538.10,243.23 542.00,244.00
             542.00,244.00 582.00,251.40 582.00,251.40
             585.92,252.18 598.77,253.59 600.83,256.48
             602.24,258.48 602.00,262.59 602.00,265.00
             602.00,265.00 602.00,328.00 602.00,328.00
             602.00,330.27 602.21,333.77 600.98,335.72
             598.65,339.42 587.34,340.36 583.00,341.20
             583.00,341.20 547.00,347.92 547.00,347.92
             543.36,348.54 530.53,350.55 528.04,351.98
             523.15,354.81 520.84,362.89 518.80,368.00
             518.80,368.00 502.48,409.00 502.48,409.00
             500.55,415.65 507.15,421.85 510.66,427.00
             510.66,427.00 534.66,462.00 534.66,462.00
             536.89,465.28 543.02,473.19 542.55,477.00
             542.06,481.09 533.11,488.89 530.00,492.00
             530.00,492.00 502.00,520.00 502.00,520.00
             499.13,522.87 491.16,531.39 488.00,532.78
             482.90,535.03 474.13,527.49 470.00,524.58
             470.00,524.58 436.00,501.14 436.00,501.14
             432.39,498.57 425.56,492.81 421.00,493.80
             421.00,493.80 402.00,503.58 402.00,503.58
             399.44,505.01 395.24,507.49 392.22,506.36
             389.60,505.38 388.32,501.40 387.28,499.00
             387.28,499.00 378.20,477.00 378.20,477.00
             378.20,477.00 348.40,405.00 348.40,405.00
             348.40,405.00 340.58,386.00 340.58,386.00
             339.56,383.58 337.50,379.61 337.76,377.01
             338.25,372.08 350.89,364.92 355.00,361.77
             367.54,352.13 373.97,343.04 380.74,329.00
             396.76,295.82 384.32,254.83 356.00,232.52
             339.03,219.15 322.16,214.76 301.00,215.00
             289.88,215.13 278.83,218.77 269.00,223.76
             228.30,244.40 211.29,294.66 233.31,335.00
             240.36,347.90 248.37,355.90 260.00,364.63
             263.78,367.47 273.38,372.26 273.57,377.04
             273.67,379.68 271.36,384.49 270.28,387.00
             270.28,387.00 262.80,405.00 262.80,405.00
             262.80,405.00 233.42,476.00 233.42,476.00
             233.42,476.00 224.80,497.00 224.80,497.00
             223.76,499.58 222.03,504.51 219.61,505.96
             216.24,507.98 211.94,504.88 209.00,503.31
             209.00,503.31 190.00,493.74 190.00,493.74
             187.98,493.38 186.80,493.75 185.00,494.66
             185.00,494.66 143.00,523.33 143.00,523.33
             139.53,525.65 129.54,533.22 126.00,533.38
             121.21,533.60 114.29,525.29 111.00,522.00
             111.00,522.00 79.00,490.00 79.00,490.00
             75.84,486.84 68.40,480.67 68.62,476.00
             68.78,472.49 76.36,462.43 78.67,459.00
             78.67,459.00 100.00,428.00 100.00,428.00
             101.72,425.43 108.41,416.07 109.06,414.00
             110.31,409.98 106.19,401.97 104.60,398.00
             104.60,398.00 87.59,356.04 87.59,356.04
             84.04,350.05 77.20,350.39 71.00,349.20
             71.00,349.20 28.00,341.20 28.00,341.20
             23.82,340.39 12.20,339.18 10.02,335.72
             8.79,333.77 9.00,330.27 9.00,328.00
             9.00,328.00 9.00,265.00 9.00,265.00
             9.00,262.68 8.80,259.24 10.02,257.23
             12.39,253.35 25.38,252.05 30.00,251.25
             30.00,251.25 72.00,243.42 72.00,243.42
             79.59,242.05 86.11,242.54 90.18,235.00
             90.18,235.00 107.00,196.00 107.00,196.00
             108.84,191.68 112.59,185.65 110.68,181.00
             110.68,181.00 98.72,163.00 98.72,163.00
             98.72,163.00 78.14,133.00 78.14,133.00
             75.13,128.77 66.93,119.21 69.22,114.00
             70.79,110.42 86.20,95.80 90.00,92.00
             90.00,92.00 114.00,68.00 114.00,68.00
             116.59,65.41 121.34,59.89 125.00,59.45
             128.81,58.98 136.72,65.11 140.00,67.34
             140.00,67.34 178.00,93.42 178.00,93.42
             182.32,96.48 190.62,103.63 196.00,102.69
             196.00,102.69 213.00,96.00 213.00,96.00
             213.00,96.00 243.98,83.18 243.98,83.18
             251.66,78.99 251.32,69.75 252.80,62.00
             252.80,62.00 260.80,19.00 260.80,19.00
             261.92,13.17 261.82,5.30 266.28,1.02
             271.34,-0.87 283.09,0.00 289.00,0.00 Z" />
</svg>
