<?xml version="1.0" encoding="UTF-8" standalone="no"?>
<!DOCTYPE svg PUBLIC "-//W3C//DTD SVG 20010904//EN"
              "http://www.w3.org/TR/2001/REC-SVG-20010904/DTD/svg10.dtd">

<svg xmlns="http://www.w3.org/2000/svg"
     width="11.3333in" height="14.6667in"
     viewBox="0 0 816 1056">
  <path id="Selection"
        fill="none" stroke="black" stroke-width="1"
        d="M 145.02,241.94
           C 143.74,239.61 144.00,235.66 144.15,233.00
             144.15,233.00 144.15,226.00 144.15,226.00
             146.32,212.48 156.64,215.00 167.00,215.00
             172.68,215.00 180.16,213.68 183.72,219.19
             186.25,223.10 186.64,235.43 185.77,239.96
             185.10,243.51 181.96,246.70 178.22,244.77
             175.01,243.12 173.96,236.57 172.00,233.00
             172.82,250.57 183.10,262.90 183.00,285.00
             182.97,292.12 182.15,298.66 175.96,303.20
             166.09,310.44 147.22,307.33 144.47,293.00
             142.11,280.72 147.18,269.15 151.42,258.00
             153.60,252.27 156.81,246.25 156.00,240.00
             153.37,244.74 148.66,248.57 145.02,241.94 Z
           M 214.81,305.00
           C 207.73,309.96 195.13,308.24 192.57,299.00
             191.35,294.58 193.57,286.35 195.00,282.00
             197.97,272.97 203.36,260.26 202.96,251.00
             202.44,239.01 194.48,235.21 195.11,225.00
             195.91,211.84 213.56,213.67 216.82,219.22
             219.61,223.97 214.75,230.80 214.00,237.75
             220.72,237.39 230.11,232.67 235.77,237.75
             242.36,243.14 236.87,253.08 236.62,260.00
             236.47,264.35 243.16,281.81 245.05,287.00
             246.84,291.90 249.02,295.78 246.43,300.96
             242.10,309.60 228.86,307.24 225.14,304.42
             222.87,302.69 221.48,299.43 220.00,297.00
             218.75,300.25 217.81,302.90 214.81,305.00 Z
           M 309.18,225.42
           C 312.32,220.64 326.92,220.74 329.59,226.22
             331.30,229.72 328.66,234.00 327.00,237.00
             331.76,238.22 336.63,238.57 336.36,244.96
             336.05,252.37 326.84,247.58 326.66,256.00
             326.48,264.66 338.81,280.15 337.81,292.00
             336.85,303.45 327.42,307.88 317.00,306.24
             314.04,305.78 311.52,305.36 309.05,303.49
             303.54,299.32 302.39,291.34 303.90,285.00
             307.71,268.99 311.00,270.05 311.00,251.00
             306.22,250.20 302.20,248.87 302.93,243.02
             303.11,241.55 303.59,239.95 304.73,238.95
             305.84,237.99 308.54,237.41 310.00,237.00
             308.92,233.66 307.02,228.68 309.18,225.42 Z
           M 262.39,240.21
           C 265.87,236.40 272.01,234.89 277.00,234.52
             281.96,234.15 290.45,236.09 292.66,241.09
             294.78,245.91 289.42,257.31 290.22,264.00
             291.33,273.27 309.10,298.87 288.00,305.22
             288.00,305.22 279.00,306.82 279.00,306.82
             275.97,307.04 272.97,306.44 270.00,305.92
             266.11,305.23 262.22,304.36 259.21,301.61
             252.14,295.14 253.06,277.09 256.53,269.00
             258.45,264.54 261.76,260.56 265.00,257.00
             257.17,254.24 257.41,245.67 262.39,240.21 Z
           M 273.00,248.00
           C 273.00,248.00 272.00,253.00 272.00,253.00
             272.00,253.00 276.00,248.00 276.00,248.00
             276.00,248.00 273.00,248.00 273.00,248.00 Z
           M 219.00,254.00
           C 219.00,259.44 217.72,267.54 221.00,272.00
             221.00,272.00 221.00,254.00 221.00,254.00
             221.00,254.00 219.00,254.00 219.00,254.00 Z
           M 273.00,266.00
           C 273.00,266.00 274.00,273.00 274.00,273.00
             274.00,273.00 275.00,266.00 275.00,266.00
             275.00,266.00 273.00,266.00 273.00,266.00 Z
           M 190.91,340.00
           C 191.73,351.16 185.63,374.45 173.02,377.09
             171.52,377.40 169.99,377.37 168.84,376.22
             165.50,372.88 169.95,367.28 171.12,364.00
             171.44,362.49 171.55,361.57 171.12,360.00
             171.12,360.00 165.64,347.00 165.64,347.00
             163.32,338.50 169.32,328.84 177.00,325.66
             186.55,324.18 190.30,331.65 190.91,340.00 Z
           M 205.15,361.72
           C 202.17,360.35 201.92,356.84 202.18,354.00
             203.06,344.17 206.64,338.14 217.00,338.00
             224.29,337.91 237.80,336.41 242.40,343.11
             245.45,347.56 241.66,351.15 239.64,355.00
             237.50,359.07 235.96,365.40 236.32,370.00
             236.32,370.00 243.82,412.00 243.82,412.00
             243.32,418.56 240.74,424.47 234.00,426.61
             232.43,427.11 227.72,427.81 226.00,427.91
             209.43,428.85 195.38,418.99 199.53,401.00
             203.12,385.45 220.94,376.64 221.00,355.00
             212.44,356.39 210.48,364.17 205.15,361.72 Z
           M 294.55,358.00
           C 300.80,373.43 302.80,389.76 298.62,406.00
             296.16,415.59 291.19,423.88 281.00,426.49
             265.35,430.48 257.84,423.38 252.70,409.00
             246.73,392.31 248.84,375.46 254.33,359.00
             257.37,349.89 260.01,341.73 270.00,338.53
             284.35,336.17 289.75,346.15 294.55,358.00 Z
           M 272.72,352.29
           C 270.48,355.43 269.39,365.48 272.72,368.38
             277.20,372.58 279.08,365.41 278.91,362.00
             278.91,362.00 278.24,357.00 278.24,357.00
             277.67,353.81 277.36,352.92 276.00,350.00
             274.56,350.79 273.96,350.83 272.72,352.29 Z
           M 310.74,375.00
           C 304.99,359.96 327.71,350.92 337.77,360.39
             341.06,363.49 342.74,372.76 339.26,376.26
             337.98,377.55 336.63,377.63 335.00,378.00
             337.39,380.41 340.24,383.10 342.00,386.00
             346.12,392.79 346.90,404.41 344.84,412.00
             343.74,416.07 341.81,420.78 338.79,423.79
             333.16,429.39 322.69,430.24 316.04,426.00
             307.11,420.29 306.99,408.34 307.00,399.00
             307.01,394.95 307.26,384.81 312.12,383.34
             314.43,382.64 317.76,385.82 320.00,387.00
             316.84,380.63 312.76,380.28 310.74,375.00 Z
           M 325.00,370.00
           C 325.00,370.00 328.00,373.00 328.00,373.00
             328.00,373.00 325.00,370.00 325.00,370.00 Z
           M 217.17,473.89
           C 216.09,471.94 215.90,469.18 216.21,467.00
             218.22,453.01 236.06,455.13 237.76,466.00
             238.05,467.88 237.75,470.19 237.20,472.00
             236.31,474.89 234.55,477.43 233.00,480.00
             245.96,486.51 232.43,497.29 234.33,509.00
             234.33,509.00 243.33,533.00 243.33,533.00
             246.93,550.27 223.41,556.38 214.21,547.72
             201.32,535.60 217.60,518.66 218.09,504.17
             218.34,496.75 212.81,491.53 213.75,486.02
             214.48,481.75 218.65,479.95 222.00,478.00
             219.89,476.80 218.43,476.15 217.17,473.89 Z
           M 159.56,472.00
           C 161.30,457.49 183.19,454.07 192.90,462.39
             198.23,466.96 200.07,475.65 193.79,480.40
             191.91,481.83 188.38,482.29 186.00,483.00
             203.36,491.94 206.54,509.30 202.58,527.00
             199.83,539.25 193.44,548.49 180.00,549.67
             162.29,551.23 155.07,535.09 155.00,520.00
             154.98,514.73 155.12,499.15 159.65,496.00
             162.24,494.19 168.61,496.65 172.00,497.00
             169.27,486.97 158.21,483.17 159.56,472.00 Z
           M 182.41,476.00
           C 181.80,474.39 181.00,472.03 179.50,471.04
             177.50,469.72 174.63,470.63 174.63,473.11
             174.63,476.97 180.99,479.85 184.00,481.00
             184.00,481.00 182.41,476.00 182.41,476.00 Z
           M 252.36,496.00
           C 249.92,482.41 266.23,476.78 277.00,477.51
             282.09,477.86 290.19,478.92 292.65,484.05
             295.45,489.91 289.35,499.27 289.48,505.00
             289.78,517.90 304.84,536.07 290.96,546.35
             289.18,547.67 287.10,548.57 285.00,549.23
             282.66,549.96 278.44,550.77 276.00,550.91
             258.92,551.90 248.37,542.20 249.04,525.00
             249.33,517.57 249.84,508.46 258.00,506.00
             255.85,502.86 253.05,499.85 252.36,496.00 Z
           M 326.35,547.30
           C 321.46,551.93 301.66,554.19 303.34,537.00
             304.37,526.47 312.90,512.88 312.82,504.00
             312.74,495.09 303.15,489.45 307.46,482.23
             310.96,476.34 317.29,480.98 320.17,480.62
             320.17,480.62 326.00,478.55 326.00,478.55
             331.18,477.07 342.73,476.32 346.26,481.15
             350.84,487.40 345.28,497.58 345.35,503.00
             345.48,512.05 358.08,529.78 355.77,541.96
             354.19,550.32 336.30,553.55 331.00,543.00
             331.00,543.00 329.00,543.00 329.00,543.00
             328.23,544.59 327.68,546.04 326.35,547.30 Z
           M 269.00,493.00
           C 269.00,493.00 276.00,492.00 276.00,492.00
             276.00,492.00 269.00,493.00 269.00,493.00 Z
           M 329.00,519.00
           C 332.62,513.41 332.80,499.04 330.00,493.00
             326.09,498.28 327.26,512.86 329.00,519.00 Z
           M 264.00,508.00
           C 269.15,510.13 272.46,511.02 276.00,506.00
             276.00,506.00 264.00,508.00 264.00,508.00 Z" />
</svg>
