<?xml version="1.0" encoding="UTF-8" standalone="no"?>
<!DOCTYPE svg PUBLIC "-//W3C//DTD SVG 20010904//EN"
              "http://www.w3.org/TR/2001/REC-SVG-20010904/DTD/svg10.dtd">

<svg xmlns="http://www.w3.org/2000/svg"
     width="11.3333in" height="14.6667in"
     viewBox="0 0 816 1056">
  <path id="Selection"
        fill="none" stroke="black" stroke-width="1"
        d="M 204.00,220.00
           C 200.94,219.83 200.17,219.06 200.00,216.00
             203.07,217.07 202.93,216.93 204.00,220.00 Z
           M 330.00,217.00
           C 330.00,217.00 330.00,240.00 330.00,240.00
             330.00,240.00 327.00,238.00 327.00,238.00
             324.78,238.66 322.39,239.62 320.11,238.64
             315.01,236.47 314.89,227.76 319.23,224.89
             321.90,222.94 324.29,224.05 327.00,224.89
             327.00,224.89 327.00,217.00 327.00,217.00
             327.00,217.00 330.00,217.00 330.00,217.00 Z
           M 357.10,217.00
           C 357.10,217.00 357.10,231.00 357.10,231.00
             357.10,231.00 359.00,240.00 359.00,240.00
             359.00,240.00 355.02,237.58 355.02,237.58
             355.02,237.58 354.00,217.00 354.00,217.00
             354.00,217.00 357.10,217.00 357.10,217.00 Z
           M 84.00,218.00
           C 84.00,218.00 84.00,236.00 84.00,236.00
             84.00,236.00 92.00,236.00 92.00,236.00
             92.00,236.00 92.00,240.00 92.00,240.00
             92.00,240.00 80.00,240.00 80.00,240.00
             80.00,240.00 80.00,218.00 80.00,218.00
             80.00,218.00 84.00,218.00 84.00,218.00 Z
           M 104.00,239.22
           C 96.37,240.23 91.60,227.70 102.02,223.84
             113.49,223.83 112.38,238.11 104.00,239.22 Z
           M 119.00,226.00
           C 119.00,226.00 126.00,223.00 126.00,223.00
             126.00,223.00 120.17,231.05 120.17,231.05
             120.17,231.05 119.00,240.00 119.00,240.00
             119.00,240.00 116.00,240.00 116.00,240.00
             116.00,240.00 116.00,223.00 116.00,223.00
             116.00,223.00 119.00,226.00 119.00,226.00 Z
           M 134.02,239.09
           C 132.69,238.89 131.43,238.28 130.43,237.35
             121.72,229.26 137.22,216.71 140.79,228.05
             141.02,229.58 140.96,231.42 140.79,233.00
             140.79,233.00 132.00,233.00 132.00,233.00
             135.08,236.04 135.78,235.85 140.00,236.00
             140.00,236.00 140.00,239.09 140.00,239.09
             138.16,239.20 135.82,239.59 134.02,239.09 Z
           M 160.00,226.00
           C 170.14,217.74 169.00,234.84 169.00,240.00
             169.00,240.00 165.00,240.00 165.00,240.00
             165.00,237.57 165.57,230.30 163.42,228.91
             158.53,225.74 159.00,238.21 159.00,240.00
             159.00,240.00 155.00,240.00 155.00,240.00
             155.00,237.57 155.57,230.30 153.42,228.91
             148.53,225.74 149.00,238.21 149.00,240.00
             149.00,240.00 146.00,240.00 146.00,240.00
             146.00,240.00 146.00,223.00 146.00,223.00
             146.00,223.00 160.00,226.00 160.00,226.00 Z
           M 203.00,223.00
           C 203.00,223.00 203.00,240.00 203.00,240.00
             203.00,240.00 200.00,240.00 200.00,240.00
             200.00,240.00 200.00,223.00 200.00,223.00
             200.00,223.00 203.00,223.00 203.00,223.00 Z
           M 213.00,224.91
           C 215.62,224.22 218.22,223.15 220.77,224.91
             225.17,227.72 224.91,236.51 219.89,238.64
             217.61,239.62 215.22,238.66 213.00,238.00
             213.00,238.00 213.00,246.00 213.00,246.00
             213.00,246.00 210.00,246.00 210.00,246.00
             210.00,246.00 210.00,223.00 210.00,223.00
             210.00,223.00 213.00,224.91 213.00,224.91 Z
           M 227.96,228.91
           C 227.09,225.16 232.07,221.04 238.00,226.00
             238.00,226.00 231.00,227.00 231.00,227.00
             232.64,228.79 236.81,231.73 237.37,233.33
             238.56,236.77 235.06,239.26 232.00,239.33
             230.07,239.37 228.72,238.67 227.00,238.00
             227.00,238.00 228.00,235.00 228.00,235.00
             228.00,235.00 235.00,236.00 235.00,236.00
             232.94,233.79 228.52,231.29 227.96,228.91 Z
           M 247.00,223.00
           C 247.00,225.46 246.24,234.80 250.08,234.80
             253.88,234.80 253.00,225.45 253.00,223.00
             253.00,223.00 257.00,223.00 257.00,223.00
             257.00,223.00 257.00,240.00 257.00,240.00
             257.00,240.00 254.00,237.00 254.00,237.00
             252.68,237.65 250.46,238.88 249.04,239.08
             242.22,240.07 244.00,227.15 244.00,223.00
             244.00,223.00 247.00,223.00 247.00,223.00 Z
           M 277.00,226.00
           C 287.14,217.74 286.00,234.84 286.00,240.00
             286.00,240.00 282.00,240.00 282.00,240.00
             282.00,237.57 282.57,230.30 280.42,228.91
             275.53,225.74 276.00,238.21 276.00,240.00
             276.00,240.00 272.00,240.00 272.00,240.00
             272.00,237.57 272.57,230.30 270.42,228.91
             265.53,225.74 266.00,238.21 266.00,240.00
             266.00,240.00 263.00,240.00 263.00,240.00
             263.00,240.00 263.00,223.00 263.00,223.00
             263.00,223.00 277.00,226.00 277.00,226.00 Z
           M 343.00,239.22
           C 335.37,240.23 330.60,227.70 341.02,223.84
             352.49,223.83 351.38,238.11 343.00,239.22 Z
           M 372.00,239.22
           C 364.37,240.23 359.60,227.70 370.02,223.84
             381.49,223.83 380.38,238.11 372.00,239.22 Z
           M 386.00,226.00
           C 386.00,226.00 393.00,223.00 393.00,223.00
             393.00,223.00 387.17,231.05 387.17,231.05
             387.17,231.05 386.00,240.00 386.00,240.00
             386.00,240.00 383.00,240.00 383.00,240.00
             383.00,240.00 383.00,223.00 383.00,223.00
             383.00,223.00 386.00,226.00 386.00,226.00 Z
           M 103.91,235.26
           C 107.17,234.34 108.41,228.02 102.30,227.74
             98.22,230.84 100.54,236.21 103.91,235.26 Z
           M 132.00,227.00
           C 132.00,227.00 132.00,230.00 132.00,230.00
             132.00,230.00 138.00,230.00 138.00,230.00
             138.00,230.00 138.00,227.00 138.00,227.00
             138.00,227.00 132.00,227.00 132.00,227.00 Z
           M 217.73,235.35
           C 220.12,234.36 221.73,228.00 216.09,227.74
             210.64,231.24 214.28,236.79 217.73,235.35 Z
           M 324.59,235.37
           C 327.08,234.36 328.86,227.12 322.30,227.66
             317.85,231.28 321.08,236.80 324.59,235.37 Z
           M 342.91,235.26
           C 346.17,234.34 347.41,228.02 341.30,227.74
             337.22,230.84 339.54,236.21 342.91,235.26 Z
           M 371.91,235.26
           C 375.17,234.34 376.41,228.02 370.30,227.74
             366.22,230.84 368.54,236.21 371.91,235.26 Z
           M 99.00,263.00
           C 95.45,262.80 95.20,262.55 95.00,259.00
             98.07,260.07 97.93,259.93 99.00,263.00 Z
           M 108.00,262.00
           C 108.00,262.00 108.00,266.00 108.00,266.00
             108.00,266.00 112.00,266.00 112.00,266.00
             112.00,266.00 112.00,270.00 112.00,270.00
             112.00,270.00 108.00,270.00 108.00,270.00
             108.06,274.68 107.61,276.52 112.00,279.00
             112.00,279.00 111.00,283.00 111.00,283.00
             104.13,281.15 105.14,279.20 103.78,273.09
             103.42,271.47 102.53,269.61 102.78,268.00
             102.78,268.00 105.00,262.00 105.00,262.00
             105.00,262.00 108.00,262.00 108.00,262.00 Z
           M 194.00,262.00
           C 194.00,262.00 194.00,266.00 194.00,266.00
             194.00,266.00 198.00,266.00 198.00,266.00
             198.00,266.00 198.00,270.00 198.00,270.00
             198.00,270.00 194.00,270.00 194.00,270.00
             194.06,274.68 193.61,276.52 198.00,279.00
             198.00,279.00 197.00,283.00 197.00,283.00
             190.13,281.15 191.14,279.20 189.78,273.09
             189.42,271.47 188.53,269.61 188.78,268.00
             188.78,268.00 191.00,262.00 191.00,262.00
             191.00,262.00 194.00,262.00 194.00,262.00 Z
           M 326.00,262.00
           C 326.00,262.00 326.00,266.00 326.00,266.00
             326.00,266.00 330.00,266.00 330.00,266.00
             330.00,266.00 330.00,270.00 330.00,270.00
             330.00,270.00 326.00,270.00 326.00,270.00
             326.06,274.68 325.61,276.52 330.00,279.00
             330.00,279.00 329.00,283.00 329.00,283.00
             322.13,281.15 323.14,279.20 321.78,273.09
             321.42,271.47 320.53,269.61 320.78,268.00
             320.78,268.00 323.00,262.00 323.00,262.00
             323.00,262.00 326.00,262.00 326.00,262.00 Z
           M 355.00,262.00
           C 355.00,262.00 355.00,266.00 355.00,266.00
             355.00,266.00 359.00,266.00 359.00,266.00
             359.00,266.00 359.00,270.00 359.00,270.00
             359.00,270.00 355.00,270.00 355.00,270.00
             355.06,274.68 354.61,276.52 359.00,279.00
             359.00,279.00 358.00,283.00 358.00,283.00
             351.13,281.15 352.14,279.20 350.78,273.09
             350.42,271.47 349.53,269.61 349.78,268.00
             349.78,268.00 352.00,262.00 352.00,262.00
             352.00,262.00 355.00,262.00 355.00,262.00 Z
           M 79.96,271.91
           C 79.09,268.16 84.07,264.04 90.00,269.00
             90.00,269.00 83.00,270.00 83.00,270.00
             84.64,271.79 88.81,274.73 89.37,276.33
             90.56,279.77 87.06,282.26 84.00,282.33
             82.07,282.37 80.72,281.67 79.00,281.00
             79.00,281.00 80.00,278.00 80.00,278.00
             80.00,278.00 87.00,279.00 87.00,279.00
             84.94,276.79 80.52,274.29 79.96,271.91 Z
           M 98.00,266.00
           C 98.00,266.00 98.00,283.00 98.00,283.00
             98.00,283.00 95.00,283.00 95.00,283.00
             95.00,283.00 95.00,266.00 95.00,266.00
             95.00,266.00 98.00,266.00 98.00,266.00 Z
           M 137.26,270.07
           C 138.31,272.52 138.00,280.04 138.00,283.00
             138.00,283.00 127.32,281.16 127.32,281.16
             126.30,280.42 125.63,279.28 125.63,278.00
             125.63,273.70 130.87,273.18 134.00,273.00
             130.83,269.96 130.15,270.58 126.00,270.07
             128.80,265.85 135.04,265.08 137.26,270.07 Z
           M 158.00,269.00
           C 168.14,260.74 167.00,277.84 167.00,283.00
             167.00,283.00 163.00,283.00 163.00,283.00
             163.00,280.57 163.57,273.30 161.42,271.91
             156.53,268.74 157.00,281.21 157.00,283.00
             157.00,283.00 153.00,283.00 153.00,283.00
             153.00,280.57 153.57,273.30 151.42,271.91
             146.53,268.74 147.00,281.21 147.00,283.00
             147.00,283.00 144.00,283.00 144.00,283.00
             144.00,283.00 144.00,266.00 144.00,266.00
             144.00,266.00 158.00,269.00 158.00,269.00 Z
           M 178.02,282.09
           C 176.69,281.89 175.43,281.28 174.43,280.35
             165.72,272.26 181.22,259.71 184.79,271.05
             185.02,272.58 184.96,274.42 184.79,276.00
             184.79,276.00 176.00,276.00 176.00,276.00
             179.08,279.04 179.78,278.85 184.00,279.00
             184.00,279.00 184.00,282.09 184.00,282.09
             182.16,282.20 179.82,282.59 178.02,282.09 Z
           M 227.00,282.33
           C 220.67,282.19 218.02,273.92 221.74,269.42
             224.54,266.01 229.27,265.27 231.00,270.00
             222.38,271.41 222.95,278.66 231.00,278.00
             231.00,278.00 232.00,281.00 232.00,281.00
             230.28,281.68 228.93,282.37 227.00,282.33 Z
           M 243.00,282.22
           C 235.37,283.23 230.60,270.70 241.02,266.84
             252.49,266.83 251.38,281.11 243.00,282.22 Z
           M 264.69,267.28
           C 268.09,269.16 267.00,279.41 267.00,283.00
             267.00,283.00 264.00,283.00 264.00,283.00
             264.00,280.32 264.66,272.46 261.59,271.34
             256.39,269.44 257.00,280.55 257.00,283.00
             257.00,283.00 254.00,283.00 254.00,283.00
             254.00,283.00 254.00,266.00 254.00,266.00
             254.00,266.00 264.69,267.28 264.69,267.28 Z
           M 273.96,271.91
           C 273.09,268.16 278.07,264.04 284.00,269.00
             284.00,269.00 277.00,270.00 277.00,270.00
             278.64,271.79 282.81,274.73 283.37,276.33
             284.56,279.77 281.06,282.26 278.00,282.33
             276.07,282.37 274.72,281.67 273.00,281.00
             273.00,281.00 274.00,278.00 274.00,278.00
             274.00,278.00 281.00,279.00 281.00,279.00
             278.94,276.79 274.52,274.29 273.96,271.91 Z
           M 294.02,282.09
           C 292.69,281.89 291.43,281.28 290.43,280.35
             281.72,272.26 297.22,259.71 300.79,271.05
             301.02,272.58 300.96,274.42 300.79,276.00
             300.79,276.00 292.00,276.00 292.00,276.00
             295.08,279.04 295.78,278.85 300.00,279.00
             300.00,279.00 300.00,282.09 300.00,282.09
             298.16,282.20 295.82,282.59 294.02,282.09 Z
           M 312.00,282.33
           C 305.67,282.19 303.02,273.92 306.74,269.42
             309.54,266.01 314.27,265.27 316.00,270.00
             307.38,271.41 307.95,278.66 316.00,278.00
             316.00,278.00 317.00,281.00 317.00,281.00
             315.28,281.68 313.93,282.37 312.00,282.33 Z
           M 339.02,282.09
           C 337.69,281.89 336.43,281.28 335.43,280.35
             326.72,272.26 342.22,259.71 345.79,271.05
             346.02,272.58 345.96,274.42 345.79,276.00
             345.79,276.00 337.00,276.00 337.00,276.00
             340.08,279.04 340.78,278.85 345.00,279.00
             345.00,279.00 345.00,282.09 345.00,282.09
             343.16,282.20 340.82,282.59 339.02,282.09 Z
           M 367.00,266.00
           C 367.00,268.46 366.24,277.80 370.08,277.80
             373.88,277.80 373.00,268.45 373.00,266.00
             373.00,266.00 377.00,266.00 377.00,266.00
             377.00,266.00 377.00,283.00 377.00,283.00
             377.00,283.00 374.00,280.00 374.00,280.00
             372.68,280.65 370.46,281.88 369.04,282.08
             362.22,283.07 364.00,270.15 364.00,266.00
             364.00,266.00 367.00,266.00 367.00,266.00 Z
           M 386.00,269.00
           C 386.00,269.00 393.00,266.00 393.00,266.00
             393.00,266.00 387.17,274.05 387.17,274.05
             387.17,274.05 386.00,283.00 386.00,283.00
             386.00,283.00 383.00,283.00 383.00,283.00
             383.00,283.00 383.00,266.00 383.00,266.00
             383.00,266.00 386.00,269.00 386.00,269.00 Z
           M 176.00,270.00
           C 176.00,270.00 176.00,273.00 176.00,273.00
             176.00,273.00 182.00,273.00 182.00,273.00
             182.00,273.00 182.00,270.00 182.00,270.00
             182.00,270.00 176.00,270.00 176.00,270.00 Z
           M 242.91,278.26
           C 246.17,277.34 247.41,271.02 241.30,270.74
             237.22,273.84 239.54,279.21 242.91,278.26 Z
           M 292.00,270.00
           C 292.00,270.00 292.00,273.00 292.00,273.00
             292.00,273.00 298.00,273.00 298.00,273.00
             298.00,273.00 298.00,270.00 298.00,270.00
             298.00,270.00 292.00,270.00 292.00,270.00 Z
           M 337.00,270.00
           C 337.00,270.00 337.00,273.00 337.00,273.00
             337.00,273.00 343.00,273.00 343.00,273.00
             343.00,273.00 343.00,270.00 343.00,270.00
             343.00,270.00 337.00,270.00 337.00,270.00 Z
           M 129.00,279.00
           C 132.54,278.38 132.80,278.42 134.00,275.00
             130.46,275.62 130.20,275.58 129.00,279.00 Z
           M 201.00,288.00
           C 201.00,288.00 205.00,283.00 205.00,283.00
             205.00,283.00 202.00,278.00 202.00,278.00
             209.69,279.35 207.72,287.59 201.00,288.00 Z
           M 121.00,307.00
           C 117.94,306.83 117.17,306.06 117.00,303.00
             120.07,304.07 119.93,303.93 121.00,307.00 Z
           M 150.00,307.00
           C 146.94,306.83 146.17,306.06 146.00,303.00
             149.07,304.07 148.93,303.93 150.00,307.00 Z
           M 190.00,307.00
           C 186.94,306.83 186.17,306.06 186.00,303.00
             189.07,304.07 188.93,303.93 190.00,307.00 Z
           M 291.00,307.00
           C 287.42,306.80 287.20,306.58 287.00,303.00
             290.07,304.07 289.93,303.93 291.00,307.00 Z
           M 111.00,304.00
           C 111.00,304.00 111.00,327.00 111.00,327.00
             111.00,327.00 108.00,325.00 108.00,325.00
             105.78,325.66 103.39,326.62 101.11,325.64
             96.01,323.47 95.89,314.76 100.23,311.89
             102.90,309.94 105.29,311.05 108.00,311.89
             108.00,311.89 108.00,304.00 108.00,304.00
             108.00,304.00 111.00,304.00 111.00,304.00 Z
           M 279.10,304.00
           C 279.10,304.00 279.10,318.00 279.10,318.00
             279.10,318.00 281.00,327.00 281.00,327.00
             281.00,327.00 277.02,324.58 277.02,324.58
             277.02,324.58 276.00,304.00 276.00,304.00
             276.00,304.00 279.10,304.00 279.10,304.00 Z
           M 391.00,304.00
           C 391.00,304.00 391.00,327.00 391.00,327.00
             391.00,327.00 388.00,325.00 388.00,325.00
             385.78,325.66 383.39,326.62 381.11,325.64
             376.01,323.47 375.89,314.76 380.23,311.89
             382.90,309.94 385.29,311.05 388.00,311.89
             388.00,311.89 388.00,304.00 388.00,304.00
             388.00,304.00 391.00,304.00 391.00,304.00 Z
           M 300.00,306.00
           C 300.00,306.00 300.00,310.00 300.00,310.00
             300.00,310.00 304.00,310.00 304.00,310.00
             304.00,310.00 304.00,314.00 304.00,314.00
             304.00,314.00 300.00,314.00 300.00,314.00
             300.06,318.68 299.61,320.52 304.00,323.00
             304.00,323.00 303.00,327.00 303.00,327.00
             296.13,325.15 297.14,323.20 295.78,317.09
             295.42,315.47 294.53,313.61 294.78,312.00
             294.78,312.00 297.00,306.00 297.00,306.00
             297.00,306.00 300.00,306.00 300.00,306.00 Z
           M 91.26,314.07
           C 92.31,316.52 92.00,324.04 92.00,327.00
             92.00,327.00 81.32,325.16 81.32,325.16
             80.30,324.42 79.63,323.28 79.63,322.00
             79.63,317.70 84.87,317.18 88.00,317.00
             84.83,313.96 84.15,314.58 80.00,314.07
             82.80,309.85 89.04,309.08 91.26,314.07 Z
           M 120.00,310.00
           C 120.00,310.00 120.00,327.00 120.00,327.00
             120.00,327.00 117.00,327.00 117.00,327.00
             117.00,327.00 117.00,310.00 117.00,310.00
             117.00,310.00 120.00,310.00 120.00,310.00 Z
           M 130.00,311.91
           C 132.62,311.22 135.22,310.15 137.77,311.91
             142.17,314.72 141.91,323.51 136.89,325.64
             134.61,326.62 132.22,325.66 130.00,325.00
             130.00,325.00 130.00,333.00 130.00,333.00
             130.00,333.00 127.00,333.00 127.00,333.00
             127.00,333.00 127.00,310.00 127.00,310.00
             127.00,310.00 130.00,311.91 130.00,311.91 Z
           M 149.00,310.00
           C 149.00,310.00 149.00,327.00 149.00,327.00
             149.00,327.00 146.00,327.00 146.00,327.00
             146.00,327.00 146.00,310.00 146.00,310.00
             146.00,310.00 149.00,310.00 149.00,310.00 Z
           M 154.96,315.91
           C 154.09,312.16 159.07,308.04 165.00,313.00
             165.00,313.00 158.00,314.00 158.00,314.00
             159.64,315.79 163.81,318.73 164.37,320.33
             165.56,323.77 162.06,326.26 159.00,326.33
             157.07,326.37 155.72,325.67 154.00,325.00
             154.00,325.00 155.00,322.00 155.00,322.00
             155.00,322.00 162.00,323.00 162.00,323.00
             159.94,320.79 155.52,318.29 154.96,315.91 Z
           M 176.00,326.33
           C 169.67,326.19 167.02,317.92 170.74,313.42
             173.54,310.01 178.27,309.27 180.00,314.00
             171.38,315.41 171.95,322.66 180.00,322.00
             180.00,322.00 181.00,325.00 181.00,325.00
             179.28,325.68 177.93,326.37 176.00,326.33 Z
           M 189.00,310.00
           C 189.00,310.00 189.00,327.00 189.00,327.00
             189.00,327.00 186.00,327.00 186.00,327.00
             186.00,327.00 186.00,310.00 186.00,310.00
             186.00,310.00 189.00,310.00 189.00,310.00 Z
           M 205.69,311.28
           C 209.09,313.16 208.00,323.41 208.00,327.00
             208.00,327.00 205.00,327.00 205.00,327.00
             205.00,324.32 205.66,316.46 202.59,315.34
             197.39,313.44 198.00,324.55 198.00,327.00
             198.00,327.00 195.00,327.00 195.00,327.00
             195.00,327.00 195.00,310.00 195.00,310.00
             195.00,310.00 205.69,311.28 205.69,311.28 Z
           M 227.29,325.51
           C 230.54,329.83 222.32,334.52 217.15,332.26
             215.97,331.74 215.15,331.05 214.87,329.81
             214.20,328.37 214.89,326.25 214.87,324.72
             215.62,318.55 213.23,315.52 215.75,312.70
             218.34,309.80 224.43,310.01 228.00,310.00
             226.51,316.33 225.32,320.56 218.00,320.00
             218.00,320.00 217.00,323.00 217.00,323.00
             219.97,323.03 225.31,322.86 227.29,325.51 Z
           M 264.02,326.09
           C 262.69,325.89 261.43,325.28 260.43,324.35
             251.72,316.26 267.22,303.71 270.79,315.05
             271.02,316.58 270.96,318.42 270.79,320.00
             270.79,320.00 262.00,320.00 262.00,320.00
             265.08,323.04 265.78,322.85 270.00,323.00
             270.00,323.00 270.00,326.09 270.00,326.09
             268.16,326.20 265.82,326.59 264.02,326.09 Z
           M 290.00,310.00
           C 290.00,310.00 290.00,327.00 290.00,327.00
             290.00,327.00 287.00,327.00 287.00,327.00
             287.00,327.00 287.00,310.00 287.00,310.00
             287.00,310.00 290.00,310.00 290.00,310.00 Z
           M 344.96,315.91
           C 344.09,312.16 349.07,308.04 355.00,313.00
             355.00,313.00 348.00,314.00 348.00,314.00
             349.64,315.79 353.81,318.73 354.37,320.33
             355.56,323.77 352.06,326.26 349.00,326.33
             347.07,326.37 345.72,325.67 344.00,325.00
             344.00,325.00 345.00,322.00 345.00,322.00
             345.00,322.00 352.00,323.00 352.00,323.00
             349.94,320.79 345.52,318.29 344.96,315.91 Z
           M 365.02,326.09
           C 363.69,325.89 362.43,325.28 361.43,324.35
             352.72,316.26 368.22,303.71 371.79,315.05
             372.02,316.58 371.96,318.42 371.79,320.00
             371.79,320.00 363.00,320.00 363.00,320.00
             366.08,323.04 366.78,322.85 371.00,323.00
             371.00,323.00 371.00,326.09 371.00,326.09
             369.16,326.20 366.82,326.59 365.02,326.09 Z
           M 218.00,318.00
           C 218.00,318.00 223.00,318.00 223.00,318.00
             222.00,312.33 219.00,312.33 218.00,318.00 Z
           M 105.59,322.37
           C 108.08,321.36 109.86,314.12 103.30,314.66
             98.85,318.28 102.08,323.80 105.59,322.37 Z
           M 134.73,322.35
           C 137.12,321.36 138.73,315.00 133.09,314.74
             127.64,318.24 131.28,323.79 134.73,322.35 Z
           M 262.00,314.00
           C 262.00,314.00 262.00,317.00 262.00,317.00
             262.00,317.00 268.00,317.00 268.00,317.00
             268.00,317.00 268.00,314.00 268.00,314.00
             268.00,314.00 262.00,314.00 262.00,314.00 Z
           M 363.00,314.00
           C 363.00,314.00 363.00,317.00 363.00,317.00
             363.00,317.00 369.00,317.00 369.00,317.00
             369.00,317.00 369.00,314.00 369.00,314.00
             369.00,314.00 363.00,314.00 363.00,314.00 Z
           M 385.59,322.37
           C 388.08,321.36 389.86,314.12 383.30,314.66
             378.85,318.28 382.08,323.80 385.59,322.37 Z
           M 83.00,323.00
           C 86.54,322.38 86.80,322.42 88.00,319.00
             84.46,319.62 84.20,319.58 83.00,323.00 Z
           M 307.00,332.00
           C 307.00,332.00 311.00,327.00 311.00,327.00
             311.00,327.00 308.00,322.00 308.00,322.00
             315.69,323.35 313.72,331.59 307.00,332.00 Z
           M 218.00,326.00
           C 218.00,326.00 217.00,330.00 217.00,330.00
             220.95,329.95 222.66,330.50 225.00,327.00
             225.00,327.00 218.00,326.00 218.00,326.00 Z
           M 160.00,350.00
           C 156.94,349.83 156.17,349.06 156.00,346.00
             159.07,347.07 158.93,346.93 160.00,350.00 Z
           M 93.00,347.00
           C 93.00,347.00 93.00,370.00 93.00,370.00
             93.00,370.00 90.00,368.00 90.00,368.00
             87.78,368.66 85.39,369.62 83.11,368.64
             78.01,366.47 77.89,357.76 82.23,354.89
             84.90,352.94 87.29,354.05 90.00,354.89
             90.00,354.89 90.00,347.00 90.00,347.00
             90.00,347.00 93.00,347.00 93.00,347.00 Z
           M 260.00,347.00
           C 260.00,347.00 260.00,370.00 260.00,370.00
             260.00,370.00 257.00,368.00 257.00,368.00
             254.78,368.66 252.39,369.62 250.11,368.64
             245.01,366.47 244.89,357.76 249.23,354.89
             251.90,352.94 254.29,354.05 257.00,354.89
             257.00,354.89 257.00,347.00 257.00,347.00
             257.00,347.00 260.00,347.00 260.00,347.00 Z
           M 291.00,349.00
           C 291.00,349.00 291.00,353.00 291.00,353.00
             291.00,353.00 295.00,353.00 295.00,353.00
             295.00,353.00 295.00,357.00 295.00,357.00
             295.00,357.00 291.00,357.00 291.00,357.00
             291.06,361.68 290.61,363.52 295.00,366.00
             295.00,366.00 294.00,370.00 294.00,370.00
             287.13,368.15 288.14,366.20 286.78,360.09
             286.42,358.47 285.53,356.61 285.78,355.00
             285.78,355.00 288.00,349.00 288.00,349.00
             288.00,349.00 291.00,349.00 291.00,349.00 Z
           M 107.00,369.22
           C 99.37,370.23 94.60,357.70 105.02,353.84
             116.49,353.83 115.38,368.11 107.00,369.22 Z
           M 143.02,369.09
           C 141.69,368.89 140.43,368.28 139.43,367.35
             130.72,359.26 146.22,346.71 149.79,358.05
             150.02,359.58 149.96,361.42 149.79,363.00
             149.79,363.00 141.00,363.00 141.00,363.00
             144.08,366.04 144.78,365.85 149.00,366.00
             149.00,366.00 149.00,369.09 149.00,369.09
             147.16,369.20 144.82,369.59 143.02,369.09 Z
           M 159.00,353.00
           C 159.00,353.00 159.00,370.00 159.00,370.00
             159.00,370.00 156.00,370.00 156.00,370.00
             156.00,370.00 156.00,353.00 156.00,353.00
             156.00,353.00 159.00,353.00 159.00,353.00 Z
           M 168.00,353.00
           C 168.00,355.46 167.24,364.80 171.08,364.80
             174.88,364.80 174.00,355.45 174.00,353.00
             174.00,353.00 178.00,353.00 178.00,353.00
             178.00,353.00 178.00,370.00 178.00,370.00
             178.00,370.00 175.00,367.00 175.00,367.00
             173.68,367.65 171.46,368.88 170.04,369.08
             163.22,370.07 165.00,357.15 165.00,353.00
             165.00,353.00 168.00,353.00 168.00,353.00 Z
           M 183.96,358.91
           C 183.09,355.16 188.07,351.04 194.00,356.00
             194.00,356.00 187.00,357.00 187.00,357.00
             188.64,358.79 192.81,361.73 193.37,363.33
             194.56,366.77 191.06,369.26 188.00,369.33
             186.07,369.37 184.72,368.67 183.00,368.00
             183.00,368.00 184.00,365.00 184.00,365.00
             184.00,365.00 191.00,366.00 191.00,366.00
             188.94,363.79 184.52,361.29 183.96,358.91 Z
           M 213.00,356.00
           C 223.14,347.74 222.00,364.84 222.00,370.00
             222.00,370.00 218.00,370.00 218.00,370.00
             218.00,367.57 218.57,360.30 216.42,358.91
             211.53,355.74 212.00,368.21 212.00,370.00
             212.00,370.00 208.00,370.00 208.00,370.00
             208.00,367.57 208.57,360.30 206.42,358.91
             201.53,355.74 202.00,368.21 202.00,370.00
             202.00,370.00 199.00,370.00 199.00,370.00
             199.00,370.00 199.00,353.00 199.00,353.00
             199.00,353.00 213.00,356.00 213.00,356.00 Z
           M 236.00,369.22
           C 228.37,370.23 223.60,357.70 234.02,353.84
             245.49,353.83 244.38,368.11 236.00,369.22 Z
           M 304.02,369.09
           C 302.69,368.89 301.43,368.28 300.43,367.35
             291.72,359.26 307.22,346.71 310.79,358.05
             311.02,359.58 310.96,361.42 310.79,363.00
             310.79,363.00 302.00,363.00 302.00,363.00
             305.08,366.04 305.78,365.85 310.00,366.00
             310.00,366.00 310.00,369.09 310.00,369.09
             308.16,369.20 305.82,369.59 304.02,369.09 Z
           M 330.00,356.00
           C 340.14,347.74 339.00,364.84 339.00,370.00
             339.00,370.00 335.00,370.00 335.00,370.00
             335.00,367.57 335.57,360.30 333.42,358.91
             328.53,355.74 329.00,368.21 329.00,370.00
             329.00,370.00 325.00,370.00 325.00,370.00
             325.00,367.57 325.57,360.30 323.42,358.91
             318.53,355.74 319.00,368.21 319.00,370.00
             319.00,370.00 316.00,370.00 316.00,370.00
             316.00,370.00 316.00,353.00 316.00,353.00
             316.00,353.00 330.00,356.00 330.00,356.00 Z
           M 348.00,354.91
           C 350.62,354.22 353.22,353.15 355.77,354.91
             360.17,357.72 359.91,366.51 354.89,368.64
             352.61,369.62 350.22,368.66 348.00,368.00
             348.00,368.00 348.00,376.00 348.00,376.00
             348.00,376.00 345.00,376.00 345.00,376.00
             345.00,376.00 345.00,353.00 345.00,353.00
             345.00,353.00 348.00,354.91 348.00,354.91 Z
           M 372.00,369.22
           C 364.37,370.23 359.60,357.70 370.02,353.84
             381.49,353.83 380.38,368.11 372.00,369.22 Z
           M 386.00,356.00
           C 386.00,356.00 393.00,353.00 393.00,353.00
             393.00,353.00 387.17,361.05 387.17,361.05
             387.17,361.05 386.00,370.00 386.00,370.00
             386.00,370.00 383.00,370.00 383.00,370.00
             383.00,370.00 383.00,353.00 383.00,353.00
             383.00,353.00 386.00,356.00 386.00,356.00 Z
           M 87.59,365.37
           C 90.08,364.36 91.86,357.12 85.30,357.66
             80.85,361.28 84.08,366.80 87.59,365.37 Z
           M 106.91,365.26
           C 110.17,364.34 111.41,358.02 105.30,357.74
             101.22,360.84 103.54,366.21 106.91,365.26 Z
           M 141.00,357.00
           C 141.00,357.00 141.00,360.00 141.00,360.00
             141.00,360.00 147.00,360.00 147.00,360.00
             147.00,360.00 147.00,357.00 147.00,357.00
             147.00,357.00 141.00,357.00 141.00,357.00 Z
           M 235.91,365.26
           C 239.17,364.34 240.41,358.02 234.30,357.74
             230.22,360.84 232.54,366.21 235.91,365.26 Z
           M 254.59,365.37
           C 257.08,364.36 258.86,357.12 252.30,357.66
             247.85,361.28 251.08,366.80 254.59,365.37 Z
           M 302.00,357.00
           C 302.00,357.00 302.00,360.00 302.00,360.00
             302.00,360.00 308.00,360.00 308.00,360.00
             308.00,360.00 308.00,357.00 308.00,357.00
             308.00,357.00 302.00,357.00 302.00,357.00 Z
           M 352.73,365.35
           C 355.12,364.36 356.73,358.00 351.09,357.74
             345.64,361.24 349.28,366.79 352.73,365.35 Z
           M 371.91,365.26
           C 375.17,364.34 376.41,358.02 370.30,357.74
             366.22,360.84 368.54,366.21 371.91,365.26 Z
           M 84.00,393.00
           C 80.63,392.81 80.19,392.37 80.00,389.00
             83.07,390.07 82.93,389.93 84.00,393.00 Z
           M 129.00,393.00
           C 125.45,392.80 125.20,392.55 125.00,389.00
             128.07,390.07 127.93,389.93 129.00,393.00 Z
           M 157.00,393.00
           C 153.63,392.81 153.19,392.37 153.00,389.00
             156.07,390.07 155.93,389.93 157.00,393.00 Z
           M 147.00,390.00
           C 147.00,390.00 147.00,413.00 147.00,413.00
             147.00,413.00 144.00,411.00 144.00,411.00
             141.78,411.66 139.39,412.62 137.11,411.64
             132.01,409.47 131.89,400.76 136.23,397.89
             138.90,395.94 141.29,397.05 144.00,397.89
             144.00,397.89 144.00,390.00 144.00,390.00
             144.00,390.00 147.00,390.00 147.00,390.00 Z
           M 176.00,390.00
           C 176.00,390.00 176.00,413.00 176.00,413.00
             176.00,413.00 173.00,411.00 173.00,411.00
             170.78,411.66 168.39,412.62 166.11,411.64
             161.01,409.47 160.89,400.76 165.23,397.89
             167.90,395.94 170.29,397.05 173.00,397.89
             173.00,397.89 173.00,390.00 173.00,390.00
             173.00,390.00 176.00,390.00 176.00,390.00 Z
           M 304.10,390.00
           C 304.10,390.00 304.10,404.00 304.10,404.00
             304.10,404.00 306.00,413.00 306.00,413.00
             306.00,413.00 302.02,410.58 302.02,410.58
             302.02,410.58 301.00,390.00 301.00,390.00
             301.00,390.00 304.10,390.00 304.10,390.00 Z
           M 331.00,390.00
           C 331.00,390.00 331.00,398.00 331.00,398.00
             333.11,397.51 335.80,396.54 337.89,397.38
             342.66,399.30 343.04,407.28 339.57,410.53
             337.38,412.58 331.47,412.23 328.00,413.00
             328.00,413.00 328.00,390.00 328.00,390.00
             328.00,390.00 331.00,390.00 331.00,390.00 Z
           M 224.00,392.00
           C 224.00,392.00 224.00,396.00 224.00,396.00
             224.00,396.00 228.00,396.00 228.00,396.00
             228.00,396.00 228.00,400.00 228.00,400.00
             228.00,400.00 224.00,400.00 224.00,400.00
             224.06,404.68 223.61,406.52 228.00,409.00
             228.00,409.00 227.00,413.00 227.00,413.00
             220.13,411.15 221.14,409.20 219.78,403.09
             219.42,401.47 218.53,399.61 218.78,398.00
             218.78,398.00 221.00,392.00 221.00,392.00
             221.00,392.00 224.00,392.00 224.00,392.00 Z
           M 274.00,392.00
           C 274.00,392.00 274.00,396.00 274.00,396.00
             274.00,396.00 278.00,396.00 278.00,396.00
             278.00,396.00 278.00,400.00 278.00,400.00
             278.00,400.00 274.00,400.00 274.00,400.00
             274.06,404.68 273.61,406.52 278.00,409.00
             278.00,409.00 277.00,413.00 277.00,413.00
             270.13,411.15 271.14,409.20 269.78,403.09
             269.42,401.47 268.53,399.61 268.78,398.00
             268.78,398.00 271.00,392.00 271.00,392.00
             271.00,392.00 274.00,392.00 274.00,392.00 Z
           M 83.00,396.00
           C 83.00,396.00 83.00,413.00 83.00,413.00
             83.00,413.00 80.00,413.00 80.00,413.00
             80.00,413.00 80.00,396.00 80.00,396.00
             80.00,396.00 83.00,396.00 83.00,396.00 Z
           M 99.69,397.28
           C 103.09,399.16 102.00,409.41 102.00,413.00
             102.00,413.00 99.00,413.00 99.00,413.00
             99.00,410.32 99.66,402.46 96.59,401.34
             91.39,399.44 92.00,410.55 92.00,413.00
             92.00,413.00 89.00,413.00 89.00,413.00
             89.00,413.00 89.00,396.00 89.00,396.00
             89.00,396.00 99.69,397.28 99.69,397.28 Z
           M 115.00,412.33
           C 108.67,412.19 106.02,403.92 109.74,399.42
             112.54,396.01 117.27,395.27 119.00,400.00
             110.38,401.41 110.95,408.66 119.00,408.00
             119.00,408.00 120.00,411.00 120.00,411.00
             118.28,411.68 116.93,412.37 115.00,412.33 Z
           M 128.00,396.00
           C 128.00,396.00 128.00,413.00 128.00,413.00
             128.00,413.00 125.00,413.00 125.00,413.00
             125.00,413.00 125.00,396.00 125.00,396.00
             125.00,396.00 128.00,396.00 128.00,396.00 Z
           M 156.00,396.00
           C 156.00,396.00 156.00,413.00 156.00,413.00
             156.00,413.00 153.00,413.00 153.00,413.00
             153.00,413.00 153.00,396.00 153.00,396.00
             153.00,396.00 156.00,396.00 156.00,396.00 Z
           M 185.00,396.00
           C 185.00,398.46 184.24,407.80 188.08,407.80
             191.88,407.80 191.00,398.45 191.00,396.00
             191.00,396.00 195.00,396.00 195.00,396.00
             195.00,396.00 195.00,413.00 195.00,413.00
             195.00,413.00 192.00,410.00 192.00,410.00
             190.68,410.65 188.46,411.88 187.04,412.08
             180.22,413.07 182.00,400.15 182.00,396.00
             182.00,396.00 185.00,396.00 185.00,396.00 Z
           M 211.69,397.28
           C 215.09,399.16 214.00,409.41 214.00,413.00
             214.00,413.00 211.00,413.00 211.00,413.00
             211.00,410.32 211.66,402.46 208.59,401.34
             203.39,399.44 204.00,410.55 204.00,413.00
             204.00,413.00 201.00,413.00 201.00,413.00
             201.00,413.00 201.00,396.00 201.00,396.00
             201.00,396.00 211.69,397.28 211.69,397.28 Z
           M 254.00,396.00
           C 254.00,398.46 253.24,407.80 257.08,407.80
             260.88,407.80 260.00,398.45 260.00,396.00
             260.00,396.00 264.00,396.00 264.00,396.00
             264.00,396.00 264.00,413.00 264.00,413.00
             264.00,413.00 261.00,410.00 261.00,410.00
             259.68,410.65 257.46,411.88 256.04,412.08
             249.22,413.07 251.00,400.15 251.00,396.00
             251.00,396.00 254.00,396.00 254.00,396.00 Z
           M 321.26,400.07
           C 322.31,402.52 322.00,410.04 322.00,413.00
             322.00,413.00 311.32,411.16 311.32,411.16
             310.30,410.42 309.63,409.28 309.63,408.00
             309.63,403.70 314.87,403.18 318.00,403.00
             314.83,399.96 314.15,400.58 310.00,400.07
             312.80,395.85 319.04,395.08 321.26,400.07 Z
           M 355.00,412.22
           C 347.37,413.23 342.60,400.70 353.02,396.84
             364.49,396.83 363.38,411.11 355.00,412.22 Z
           M 370.00,399.00
           C 370.00,399.00 377.00,396.00 377.00,396.00
             377.00,396.00 371.17,404.05 371.17,404.05
             371.17,404.05 370.00,413.00 370.00,413.00
             370.00,413.00 367.00,413.00 367.00,413.00
             367.00,413.00 367.00,396.00 367.00,396.00
             367.00,396.00 370.00,399.00 370.00,399.00 Z
           M 384.02,412.09
           C 382.69,411.89 381.43,411.28 380.43,410.35
             371.72,402.26 387.22,389.71 390.79,401.05
             391.02,402.58 390.96,404.42 390.79,406.00
             390.79,406.00 382.00,406.00 382.00,406.00
             385.08,409.04 385.78,408.85 390.00,409.00
             390.00,409.00 390.00,412.09 390.00,412.09
             388.16,412.20 385.82,412.59 384.02,412.09 Z
           M 141.59,408.37
           C 144.08,407.36 145.86,400.12 139.30,400.66
             134.85,404.28 138.08,409.80 141.59,408.37 Z
           M 170.59,408.37
           C 173.08,407.36 174.86,400.12 168.30,400.66
             163.85,404.28 167.08,409.80 170.59,408.37 Z
           M 335.73,408.35
           C 338.12,407.36 339.73,401.00 334.09,400.74
             328.64,404.24 332.28,409.79 335.73,408.35 Z
           M 354.91,408.26
           C 358.17,407.34 359.41,401.02 353.30,400.74
             349.22,403.84 351.54,409.21 354.91,408.26 Z
           M 382.00,400.00
           C 382.00,400.00 382.00,403.00 382.00,403.00
             382.00,403.00 388.00,403.00 388.00,403.00
             388.00,403.00 388.00,400.00 388.00,400.00
             388.00,400.00 382.00,400.00 382.00,400.00 Z
           M 313.00,409.00
           C 316.54,408.38 316.80,408.42 318.00,405.00
             314.46,405.62 314.20,405.58 313.00,409.00 Z
           M 167.00,434.00
           C 167.00,434.00 167.00,457.00 167.00,457.00
             167.00,457.00 164.00,455.00 164.00,455.00
             161.78,455.66 159.39,456.62 157.11,455.64
             152.01,453.47 151.89,444.76 156.23,441.89
             158.90,439.94 161.29,441.05 164.00,441.89
             164.00,441.89 164.00,434.00 164.00,434.00
             164.00,434.00 167.00,434.00 167.00,434.00 Z
           M 195.10,434.00
           C 195.10,434.00 195.10,448.00 195.10,448.00
             195.10,448.00 197.00,457.00 197.00,457.00
             197.00,457.00 193.02,454.58 193.02,454.58
             193.02,454.58 192.00,434.00 192.00,434.00
             192.00,434.00 195.10,434.00 195.10,434.00 Z
           M 101.00,436.00
           C 101.00,436.00 101.00,440.00 101.00,440.00
             101.00,440.00 105.00,440.00 105.00,440.00
             105.00,440.00 105.00,444.00 105.00,444.00
             105.00,444.00 101.00,444.00 101.00,444.00
             101.06,448.68 100.61,450.52 105.00,453.00
             105.00,453.00 104.00,457.00 104.00,457.00
             97.13,455.15 98.14,453.20 96.78,447.09
             96.42,445.47 95.53,443.61 95.78,442.00
             95.78,442.00 98.00,436.00 98.00,436.00
             98.00,436.00 101.00,436.00 101.00,436.00 Z
           M 85.02,456.09
           C 83.69,455.89 82.43,455.28 81.43,454.35
             72.72,446.26 88.22,433.71 91.79,445.05
             92.02,446.58 91.96,448.42 91.79,450.00
             91.79,450.00 83.00,450.00 83.00,450.00
             86.08,453.04 86.78,452.85 91.00,453.00
             91.00,453.00 91.00,456.09 91.00,456.09
             89.16,456.20 86.82,456.59 85.02,456.09 Z
           M 181.00,456.22
           C 173.37,457.23 168.60,444.70 179.02,440.84
             190.49,440.83 189.38,455.11 181.00,456.22 Z
           M 209.00,456.22
           C 201.37,457.23 196.60,444.70 207.02,440.84
             218.49,440.83 217.38,455.11 209.00,456.22 Z
           M 224.00,443.00
           C 224.00,443.00 231.00,440.00 231.00,440.00
             231.00,440.00 225.17,448.05 225.17,448.05
             225.17,448.05 224.00,457.00 224.00,457.00
             224.00,457.00 221.00,457.00 221.00,457.00
             221.00,457.00 221.00,440.00 221.00,440.00
             221.00,440.00 224.00,443.00 224.00,443.00 Z
           M 239.02,456.09
           C 237.69,455.89 236.43,455.28 235.43,454.35
             226.72,446.26 242.22,433.71 245.79,445.05
             246.02,446.58 245.96,448.42 245.79,450.00
             245.79,450.00 237.00,450.00 237.00,450.00
             240.08,453.04 240.78,452.85 245.00,453.00
             245.00,453.00 245.00,456.09 245.00,456.09
             243.16,456.20 240.82,456.59 239.02,456.09 Z
           M 309.00,443.00
           C 319.14,434.74 318.00,451.84 318.00,457.00
             318.00,457.00 314.00,457.00 314.00,457.00
             314.00,454.57 314.57,447.30 312.42,445.91
             307.53,442.74 308.00,455.21 308.00,457.00
             308.00,457.00 304.00,457.00 304.00,457.00
             304.00,454.57 304.57,447.30 302.42,445.91
             297.53,442.74 298.00,455.21 298.00,457.00
             298.00,457.00 295.00,457.00 295.00,457.00
             295.00,457.00 295.00,440.00 295.00,440.00
             295.00,440.00 309.00,443.00 309.00,443.00 Z
           M 335.26,444.07
           C 336.31,446.52 336.00,454.04 336.00,457.00
             336.00,457.00 325.32,455.16 325.32,455.16
             324.30,454.42 323.63,453.28 323.63,452.00
             323.63,447.70 328.87,447.18 332.00,447.00
             328.83,443.96 328.15,444.58 324.00,444.07
             326.80,439.85 333.04,439.08 335.26,444.07 Z
           M 354.29,455.51
           C 357.54,459.83 349.32,464.52 344.15,462.26
             342.97,461.74 342.15,461.05 341.87,459.81
             341.20,458.37 341.89,456.25 341.87,454.72
             342.62,448.55 340.23,445.52 342.75,442.70
             345.34,439.80 351.43,440.01 355.00,440.00
             353.51,446.33 352.32,450.56 345.00,450.00
             345.00,450.00 344.00,453.00 344.00,453.00
             346.97,453.03 352.31,452.86 354.29,455.51 Z
           M 370.69,441.28
           C 374.09,443.16 373.00,453.41 373.00,457.00
             373.00,457.00 370.00,457.00 370.00,457.00
             370.00,454.32 370.66,446.46 367.59,445.34
             362.39,443.44 363.00,454.55 363.00,457.00
             363.00,457.00 360.00,457.00 360.00,457.00
             360.00,457.00 360.00,440.00 360.00,440.00
             360.00,440.00 370.69,441.28 370.69,441.28 Z
           M 390.26,444.07
           C 391.31,446.52 391.00,454.04 391.00,457.00
             391.00,457.00 380.32,455.16 380.32,455.16
             379.30,454.42 378.63,453.28 378.63,452.00
             378.63,447.70 383.87,447.18 387.00,447.00
             383.83,443.96 383.15,444.58 379.00,444.07
             381.80,439.85 388.04,439.08 390.26,444.07 Z
           M 345.00,448.00
           C 345.00,448.00 350.00,448.00 350.00,448.00
             349.00,442.33 346.00,442.33 345.00,448.00 Z
           M 83.00,444.00
           C 83.00,444.00 83.00,447.00 83.00,447.00
             83.00,447.00 89.00,447.00 89.00,447.00
             89.00,447.00 89.00,444.00 89.00,444.00
             89.00,444.00 83.00,444.00 83.00,444.00 Z
           M 161.59,452.37
           C 164.08,451.36 165.86,444.12 159.30,444.66
             154.85,448.28 158.08,453.80 161.59,452.37 Z
           M 180.91,452.26
           C 184.17,451.34 185.41,445.02 179.30,444.74
             175.22,447.84 177.54,453.21 180.91,452.26 Z
           M 208.91,452.26
           C 212.17,451.34 213.41,445.02 207.30,444.74
             203.22,447.84 205.54,453.21 208.91,452.26 Z
           M 237.00,444.00
           C 237.00,444.00 237.00,447.00 237.00,447.00
             237.00,447.00 243.00,447.00 243.00,447.00
             243.00,447.00 243.00,444.00 243.00,444.00
             243.00,444.00 237.00,444.00 237.00,444.00 Z
           M 327.00,453.00
           C 330.54,452.38 330.80,452.42 332.00,449.00
             328.46,449.62 328.20,449.58 327.00,453.00 Z
           M 382.00,453.00
           C 385.54,452.38 385.80,452.42 387.00,449.00
             383.46,449.62 383.20,449.58 382.00,453.00 Z
           M 345.00,456.00
           C 345.00,456.00 344.00,460.00 344.00,460.00
             347.95,459.95 349.66,460.50 352.00,457.00
             352.00,457.00 345.00,456.00 345.00,456.00 Z
           M 112.00,480.00
           C 108.63,479.81 108.19,479.37 108.00,476.00
             111.07,477.07 110.93,476.93 112.00,480.00 Z
           M 101.10,477.00
           C 101.10,477.00 101.10,491.00 101.10,491.00
             101.10,491.00 103.00,500.00 103.00,500.00
             103.00,500.00 99.02,497.58 99.02,497.58
             99.02,497.58 98.00,477.00 98.00,477.00
             98.00,477.00 101.10,477.00 101.10,477.00 Z
           M 91.26,487.07
           C 92.31,489.52 92.00,497.04 92.00,500.00
             92.00,500.00 81.32,498.16 81.32,498.16
             80.30,497.42 79.63,496.28 79.63,495.00
             79.63,490.70 84.87,490.18 88.00,490.00
             84.83,486.96 84.15,487.58 80.00,487.07
             82.80,482.85 89.04,482.08 91.26,487.07 Z
           M 111.00,483.00
           C 111.00,483.00 111.00,500.00 111.00,500.00
             111.00,500.00 108.00,500.00 108.00,500.00
             108.00,500.00 108.00,483.00 108.00,483.00
             108.00,483.00 111.00,483.00 111.00,483.00 Z
           M 120.11,498.64
           C 115.67,496.75 115.04,489.75 117.74,486.23
             120.46,482.68 124.60,484.13 130.00,483.00
             130.00,483.00 130.00,506.00 130.00,506.00
             130.00,506.00 127.00,506.00 127.00,506.00
             127.00,506.00 127.00,498.00 127.00,498.00
             124.78,498.66 122.39,499.62 120.11,498.64 Z
           M 139.00,483.00
           C 139.00,485.46 138.24,494.80 142.08,494.80
             145.88,494.80 145.00,485.45 145.00,483.00
             145.00,483.00 149.00,483.00 149.00,483.00
             149.00,483.00 149.00,500.00 149.00,500.00
             149.00,500.00 146.00,497.00 146.00,497.00
             144.68,497.65 142.46,498.88 141.04,499.08
             134.22,500.07 136.00,487.15 136.00,483.00
             136.00,483.00 139.00,483.00 139.00,483.00 Z
           M 166.26,487.07
           C 167.31,489.52 167.00,497.04 167.00,500.00
             167.00,500.00 156.32,498.16 156.32,498.16
             155.30,497.42 154.63,496.28 154.63,495.00
             154.63,490.70 159.87,490.18 163.00,490.00
             159.83,486.96 159.15,487.58 155.00,487.07
             157.80,482.85 164.04,482.08 166.26,487.07 Z
           M 124.59,495.37
           C 127.08,494.36 128.86,487.12 122.30,487.66
             117.85,491.28 121.08,496.80 124.59,495.37 Z
           M 83.00,496.00
           C 86.54,495.38 86.80,495.42 88.00,492.00
             84.46,492.62 84.20,492.58 83.00,496.00 Z
           M 158.00,496.00
           C 161.54,495.38 161.80,495.42 163.00,492.00
             159.46,492.62 159.20,492.58 158.00,496.00 Z
           M 176.00,494.00
           C 176.00,494.00 177.00,499.00 177.00,499.00
             177.00,499.00 173.00,499.00 173.00,499.00
             173.00,499.00 174.00,494.00 174.00,494.00
             174.00,494.00 176.00,494.00 176.00,494.00 Z" />
</svg>
