<?xml version="1.0" encoding="UTF-8" standalone="no"?>
<svg
   xmlns:dc="http://purl.org/dc/elements/1.1/"
   xmlns:cc="http://creativecommons.org/ns#"
   xmlns:rdf="http://www.w3.org/1999/02/22-rdf-syntax-ns#"
   xmlns:svg="http://www.w3.org/2000/svg"
   xmlns="http://www.w3.org/2000/svg"
   xmlns:sodipodi="http://sodipodi.sourceforge.net/DTD/sodipodi-0.dtd"
   xmlns:inkscape="http://www.inkscape.org/namespaces/inkscape"
   width="20.3889in"
   height="48.5972in"
   viewBox="0 0 1468 3499"
   id="svg2"
   version="1.1"
   inkscape:version="0.91 r13725"
   sodipodi:docname="treble-clef-scaled-down.svg">
  <metadata
     id="metadata9">
    <rdf:RDF>
      <cc:Work
         rdf:about="">
        <dc:format>image/svg+xml</dc:format>
        <dc:type
           rdf:resource="http://purl.org/dc/dcmitype/StillImage" />
        <dc:title></dc:title>
      </cc:Work>
    </rdf:RDF>
  </metadata>
  <defs
     id="defs7" />
  <sodipodi:namedview
     pagecolor="#ffffff"
     bordercolor="#666666"
     borderopacity="1"
     objecttolerance="10"
     gridtolerance="10"
     guidetolerance="10"
     inkscape:pageopacity="0"
     inkscape:pageshadow="2"
     inkscape:window-width="1146"
     inkscape:window-height="798"
     id="namedview5"
     showgrid="false"
     inkscape:zoom="0.0539583"
     inkscape:cx="917.50053"
     inkscape:cy="2186.8739"
     inkscape:window-x="1582"
     inkscape:window-y="310"
     inkscape:window-maximized="0"
     inkscape:current-layer="svg2" />
  <path
     id="Selection"
     d="m 680.69977,1985.2088 c 4.1235,3.048 10.089,4.7325 15.15,5.2395 0,0 4.5,0.4245 4.5,0.4245 0,0 2.25,0 2.25,0 0,0 1.65,0.102 1.65,0.102 0,0 1.95,-0.102 1.95,-0.102 3.1305,-0.015 7.398,-1.092 10.35,-2.1465 8.7525,-3.1245 16.8675,-9.2835 22.368,-16.7535 1.3605,-1.848 2.931,-4.326 3.792,-6.45 2.6445,-6.531 2.6505,-14.208 2.64,-21.15 0,0 -0.15,-2.4 -0.15,-2.4 0,0 0,-0.6 0,-0.6 0,0 -0.15,-1.5 -0.15,-1.5 0,0 0,-1.35 0,-1.35 0,0 -0.4245,-4.35 -0.4245,-4.35 0,0 -0.5175,-4.95 -0.5175,-4.95 0,0 -0.945,-5.85 -0.945,-5.85 0,0 -2.5935,-16.35 -2.5935,-16.35 0,0 -2.508,-15.9 -2.508,-15.9 0,0 -0.624,-3.9 -0.624,-3.9 -0.0615,-0.375 -0.15,-1.305 -0.426,-1.5465 -0.2685,-0.234 -0.786,-0.1275 -1.1115,-0.084 0,0 -3,0.423 -3,0.423 0,0 -6.3,0.6075 -6.3,0.6075 0,0 -3.45,0.15 -3.45,0.15 0,0 -2.25,0.15 -2.25,0.15 0,0 -9.45,0 -9.45,0 0,0 -2.25,-0.15 -2.25,-0.15 0,0 -3.75,-0.15 -3.75,-0.15 0,0 -1.5,-0.1365 -1.5,-0.1365 0,0 -5.85,-0.5715 -5.85,-0.5715 -4.851,-0.633 -9.6555,-1.521 -14.25,-3.255 -4.578,-1.7295 -12.63,-6.195 -16.95,-8.787 -13.212,-7.9275 -25.125,-17.778 -33.849,-30.6 -6.8895,-10.1265 -10.854,-22.071 -13.014,-34.05 -0.69,-3.8235 -1.341,-7.68 -1.7115,-11.55 0,0 -0.201,-2.7 -0.201,-2.7 0,0 -0.4245,-4.65 -0.4245,-4.65 0,0 0,-2.4 0,-2.4 0,0 -0.15,-2.25 -0.15,-2.25 0,0 0.15,-4.65 0.15,-4.65 0,0 0.156,-1.5 0.156,-1.5 0,0 0,-1.35 0,-1.35 0,0 1.281,-8.85 1.281,-8.85 2.055,-11.388 6.4095,-22.6395 11.796,-32.85 2.5155,-4.77 5.154,-9.477 8.178,-13.95 4.7955,-7.0905 10.179,-13.7655 16.095,-19.95 0,0 2.544,-2.406 2.544,-2.406 0,0 2.55,-2.5305 2.55,-2.5305 0,0 2.7,-2.427 2.7,-2.427 5.2185,-4.8525 10.5885,-9.5655 16.05,-14.148 0,0 14.85,-11.9565 14.85,-11.9565 0,0 4.5,-3.4845 4.5,-3.4845 0.426,-0.33 1.905,-1.401 2.118,-1.773 0.2925,-0.5145 -0.1725,-2.325 -0.2805,-2.9745 0,0 -1.197,-7.95 -1.197,-7.95 0,0 -1.1325,-8.7 -1.1325,-8.7 0,0 -0.6825,-5.4 -0.6825,-5.4 0,0 -0.489,-7.35 -0.489,-7.35 0,0 -0.4365,-7.05 -0.4365,-7.05 0,0 -0.144,-1.5 -0.144,-1.5 0,0 0,-1.65 0,-1.65 0,0 -0.156,-2.25 -0.156,-2.25 0,0 0,-2.7 0,-2.7 0,0 -0.1365,-2.1 -0.1365,-2.1 0,0 0.1365,-1.8 0.1365,-1.8 0,0 0,-4.5 0,-4.5 0,0 0.15,-2.55 0.15,-2.55 0,0 0.2865,-4.95 0.2865,-4.95 0,0 0.189,-3.75 0.189,-3.75 0,0 0.7005,-6.3 0.7005,-6.3 0.456,-4.2675 1.485,-11.2365 2.5965,-15.3 3.081,-11.259 9.0675,-22.38 15.2145,-32.25 3.6105,-5.7975 8.3925,-12.525 13.563,-16.9695 2.958,-2.5425 6.3315,-4.6785 10.35,-4.6305 2.0595,0.025 3.9,1.2885 5.4,2.5935 2.9295,2.55 6.3675,8.2665 8.1375,11.8065 5.109,10.218 9.117,20.949 12.1755,31.95 1.4235,5.118 2.5455,10.4655 3.111,15.75 0,0 0.426,4.5 0.426,4.5 0,0 0.15,2.85 0.15,2.85 0,0 0,7.2 0,7.2 0,0 -0.15,2.25 -0.15,2.25 -0.0105,6.618 -1.074,15.6885 -2.4,22.2 -2.0895,10.251 -5.2095,17.844 -9.8625,27.15 -3.543,7.083 -6.5415,12.486 -11.2695,18.9 0,0 -8.898,11.55 -8.898,11.55 0,0 -4.7835,5.85 -4.7835,5.85 -1.977,2.1225 -4.1115,4.065 -6.2865,5.9775 0,0 -3.6,2.904 -3.6,2.904 0,0 -4.2,3.3555 -4.2,3.3555 0,0 -2.1,1.653 -2.1,1.653 -0.309,0.249 -0.81,0.5895 -0.918,0.9855 -0.072,0.267 0.057,0.885 0.1065,1.1745 0,0 0.474,2.7 0.474,2.7 0,0 1.626,9.6 1.626,9.6 0,0 4.149,24.45 4.149,24.45 0,0 1.3245,7.8 1.3245,7.8 0,0 0.588,3.75 0.588,3.75 0,0 5.1,-0.45 5.1,-0.45 0,0 5.85,0 5.85,0 0,0 1.8,0.15 1.8,0.15 0,0 1.35,0 1.35,0 0,0 2.7,0.2745 2.7,0.2745 9.6645,0.924 19.038,3.3075 27,9.1215 14.1555,10.335 22.524,25.1955 25.284,42.354 0.4545,2.82 0.9615,7.0845 0.966,9.9 0,0 0.15,2.55 0.15,2.55 0,0 0,3.15 0,3.15 0,0 -0.15,2.4 -0.15,2.4 -0.007,4.671 -1.7115,12.774 -3.2025,17.25 -3.606,10.8165 -10.419,21.561 -18.573,29.508 -2.43,2.367 -5.0685,4.509 -7.7745,6.5475 -4.332,3.264 -9.7395,6.5655 -14.7,8.7735 0,0 -4.5,1.971 -4.5,1.971 0,0 1.8405,12.6 1.8405,12.6 0,0 3.3,22.05 3.3,22.05 0,0 1.7175,11.25 1.7175,11.25 0,0 1.236,10.95 1.236,10.95 0,0 0,1.35 0,1.35 0,0 0.306,4.2 0.306,4.2 0,0 0,7.35 0,7.35 0,0 -0.1365,1.5 -0.1365,1.5 -0.2595,3.7785 -0.789,7.509 -2.067,11.1 -2.136,6.0015 -7.2855,12.936 -11.6385,17.5365 0,0 -1.158,1.0695 -1.158,1.0695 -1.7865,1.7085 -3.663,3.2445 -5.7,4.647 -6.3015,4.344 -13.4415,6.9135 -21,7.9665 0,0 -6,0.5805 -6,0.5805 0,0 -4.8,0 -4.8,0 0,0 -1.8,-0.156 -1.8,-0.156 0,0 -1.35,0 -1.35,0 -2.7465,-0.2805 -5.553,-0.663 -8.25,-1.257 -4.878,-1.077 -9.5685,-2.76 -14.1,-4.8405 -8.0625,-3.702 -15.2145,-8.343 -19.7355,-16.2465 -2.2575,-3.9435 -3.498,-8.385 -3.828,-12.9 0,0 -0.1545,-1.65 -0.1545,-1.65 0,0 0,-2.85 0,-2.85 0,0 0,-1.35 0,-1.35 0,0 0,-1.35 0,-1.35 0.0345,-1.41 0.411,-3.828 0.6765,-5.25 1.7025,-9.096 7.4085,-18.3195 16.1415,-22.0695 5.0235,-2.157 11.757,-2.8755 17.1,-1.6815 7.257,1.623 14.94,7.512 18.2595,14.151 1.626,3.252 2.208,6.1665 2.454,9.75 0,0 0.1365,2.4 0.1365,2.4 -0.0225,1.833 -0.396,4.6875 -0.9,6.45 -0.5955,2.0865 -1.353,4.1265 -2.4675,6 -5.3265,8.9535 -15.573,13.2585 -25.1325,16.05 1.4355,1.6545 2.3805,2.892 4.2,4.236 z m 28.8,-328.596 c 0,0 3.75,-3.09 3.75,-3.09 3.9285,-3.39 7.7295,-6.8295 11.4,-10.5 8.5965,-8.5965 16.5735,-18.0105 23.013,-28.35 4.254,-6.831 8.4825,-15.237 9.771,-23.25 0.48,-2.9835 0.5505,-5.1015 0.516,-8.1 0,0 -0.4275,-4.35 -0.4275,-4.35 -0.7545,-6.324 -2.877,-14.151 -9.1725,-17.0535 -2.292,-1.0575 -4.2915,-1.125 -6.75,-1.0965 -1.854,0.023 -4.413,0.63 -6.15,1.287 -8.796,3.3195 -14.139,12.105 -18.039,20.163 -4.848,10.0185 -7.764,20.8545 -9.573,31.8 0,0 -1.3125,10.2 -1.3125,10.2 0,0 -0.189,3.45 -0.189,3.45 0,0 -0.2865,4.2 -0.2865,4.2 0,0 0,2.55 0,2.55 0,0 -0.15,2.4 -0.15,2.4 0,0 0,5.85 0,5.85 0,0 0.15,2.25 0.15,2.25 0,0 0.15,3.3 0.15,3.3 0,0 0.3255,4.65 0.3255,4.65 0,0 0.5745,5.4 0.5745,5.4 0.888,-0.378 1.6485,-1.1085 2.4,-1.71 z m -5.7,51.102 c 0,0 -7.8,5.9205 -7.8,5.9205 -7.977,6.5895 -15.7845,13.422 -23.1,20.7375 -3.876,3.876 -7.647,7.8105 -11.187,12 -6.4485,7.635 -11.577,15.7335 -16.152,24.6 -3.8925,7.545 -7.1865,15.3795 -9.024,23.7 -0.6495,2.94 -1.095,5.85 -1.3005,8.85 0,0 -0.1365,1.8 -0.1365,1.8 0,0 0,4.2 0,4.2 0,0 0.1365,1.8 0.1365,1.8 0.4035,5.7615 1.6365,11.9685 3.621,17.4 2.052,5.6145 4.7715,10.851 8.2005,15.75 4.629,6.6135 10.485,12.5085 16.842,17.463 7.8075,6.0855 16.344,10.644 25.8,13.584 5.0715,1.575 10.317,2.6505 15.6,3.1785 0,0 3.3,0.288 3.3,0.288 0,0 1.5,0.1365 1.5,0.1365 0,0 3,0.15 3,0.15 0,0 3.45,0 3.45,0 0,0 2.55,-0.15 2.55,-0.15 3.7605,-0.01 7.5315,-0.543 11.25,-1.0905 0,0 5.55,-1.0095 5.55,-1.0095 0,0 -1.188,-7.2 -1.188,-7.2 0,0 -2.3505,-14.1 -2.3505,-14.1 0,0 -7.1745,-43.95 -7.1745,-43.95 0,0 -2.85,-17.7 -2.85,-17.7 0,0 -1.287,-8.1 -1.287,-8.1 -2.994,0.243 -6.06,0.402 -9,1.0845 -8.7555,2.034 -16.0485,6.606 -20.841,14.3655 -2.649,4.29 -4.32,9.219 -4.6725,14.25 0,0 -0.1365,1.8 -0.1365,1.8 0,0 0,2.7 0,2.7 0.003,2.2845 0.486,5.4465 1.1145,7.65 1.5225,5.337 4.2765,10.002 7.605,14.4 2.244,2.9655 4.6395,5.481 7.6305,7.7055 1.0125,0.753 2.7225,1.9725 3.9,2.3445 -0.99,0.8595 -1.908,1.5855 -2.4,2.85 -0.9525,-0.2715 -4.647,-2.3325 -5.7,-2.937 -4.398,-2.5215 -8.5575,-5.4705 -12.15,-9.063 -6.7515,-6.75 -11.6985,-16.422 -14.0055,-25.65 -0.657,-2.625 -1.563,-7.5555 -1.5945,-10.2 0,0 0,-4.05 0,-4.05 0,0 0.258,-2.85 0.258,-2.85 0.6345,-5.1525 2.1555,-9.9675 4.263,-14.7 5.7585,-12.936 16.422,-23.9325 29.079,-30.2445 0,0 1.65,-0.6975 1.65,-0.6975 2.43,-1.0455 4.509,-1.8015 7.05,-2.529 0,0 2.55,-0.729 2.55,-0.729 0,0 -1.7385,-10.5 -1.7385,-10.5 0,0 -3.699,-22.35 -3.699,-22.35 0,0 -2.2125,-13.5 -2.2125,-13.5 -1.1265,0.3585 -3.1665,1.869 -4.2,2.592 z m 59.889,152.208 c 2.0865,-2.8875 3.8895,-6.2475 5.1075,-9.6 0,0 0.954,-3 0.954,-3 1.182,-3.636 1.7505,-8.04 2.013,-11.85 0,0 0.1365,-1.8 0.1365,-1.8 0,0 0,-6.6 0,-6.6 0,0 -0.15,-1.5 -0.15,-1.5 0,0 0,-1.35 0,-1.35 0,0 -0.2745,-2.25 -0.2745,-2.25 -1.032,-10.3125 -4.2465,-20.2005 -12.0255,-27.4365 -1.371,-1.275 -3.0495,-2.439 -4.65,-3.4035 -5.1525,-3.108 -9.99,-4.4235 -15.9,-5.202 0,0 -1.65,-0.252 -1.65,-0.252 0,0 -1.35,0 -1.35,0 0,0 -1.5,-0.156 -1.5,-0.156 0,0 -2.1,-0.123 -2.1,-0.123 0,0 -1.8,0.123 -1.8,0.123 0,0 -2.85,0 -2.85,0 0,0 1.263,7.8 1.263,7.8 0,0 2.55,15.9 2.55,15.9 0,0 6.474,40.2 6.474,40.2 0,0 2.55,15.9 2.55,15.9 0,0 1.563,9.6 1.563,9.6 8.4555,-2.9325 16.317,-7.6365 21.639,-15 z"
     inkscape:connector-curvature="0"
     style="fill:none;stroke:#000000;stroke-width:0.15000001" />
</svg>
