<?xml version="1.0" encoding="UTF-8" standalone="no"?>
<!DOCTYPE svg PUBLIC "-//W3C//DTD SVG 20010904//EN"
              "http://www.w3.org/TR/2001/REC-SVG-20010904/DTD/svg10.dtd">

<svg xmlns="http://www.w3.org/2000/svg"
     width="0.966669in" height="0.966669in"
     viewBox="0 0 580 580">
  <path id="Selection"
        fill="none" stroke="black" stroke-width="1"
        d="M 307.00,0.21
           C 315.75,0.01 324.39,1.40 333.00,2.73
             361.55,7.13 387.88,14.51 414.00,27.06
             448.95,43.85 478.50,65.37 504.82,93.96
             544.03,136.56 568.91,190.97 577.71,248.00
             580.66,267.17 580.22,287.60 580.00,307.00
             579.86,318.36 576.27,342.75 573.67,354.00
             562.45,402.35 540.87,444.54 508.28,482.00
             487.65,505.72 459.68,528.65 432.00,543.69
             402.67,559.62 371.93,570.96 339.00,576.68
             317.74,580.37 295.53,580.25 274.00,580.00
             274.00,580.00 264.00,579.09 264.00,579.09
             246.62,577.87 232.82,575.45 216.00,570.92
             216.00,570.92 195.00,564.92 195.00,564.92
             115.98,537.82 51.87,476.19 20.45,399.00
             11.19,376.25 6.43,356.12 2.71,332.00
             1.42,323.67 0.01,315.49 0.00,307.00
             0.00,307.00 0.00,273.00 0.00,273.00
             0.03,254.71 6.01,225.74 11.28,208.00
             33.45,133.32 83.80,70.01 153.00,33.48
             177.49,20.56 203.86,10.87 231.00,5.28
             231.00,5.28 255.00,1.29 255.00,1.29
             255.00,1.29 265.00,0.21 265.00,0.21
             265.00,0.21 307.00,0.21 307.00,0.21 Z
           M 255.00,11.17
           C 243.18,12.35 220.35,17.14 209.00,20.74
             130.97,45.51 68.61,98.10 34.31,173.00
             -14.20,278.92 8.58,403.27 89.04,487.00
             102.93,501.46 122.99,516.96 140.00,527.68
             161.42,541.18 185.63,552.47 210.00,559.42
             230.23,565.19 250.06,568.66 271.00,570.09
             271.00,570.09 281.00,571.00 281.00,571.00
             327.57,571.54 372.08,563.20 414.00,542.25
             439.07,529.71 459.33,516.10 480.00,497.08
             480.00,497.08 490.91,487.00 490.91,487.00
             518.57,457.45 539.98,425.11 553.95,387.00
             595.18,274.53 560.12,147.16 467.00,71.61
             440.27,49.93 409.78,33.28 377.00,22.81
             352.99,15.13 334.10,11.67 309.00,9.91
             309.00,9.91 299.00,9.14 299.00,9.14
             299.00,9.14 276.00,9.14 276.00,9.14
             276.00,9.14 255.00,11.17 255.00,11.17 Z
           M 36.04,313.83
           C 36.04,313.83 56.00,295.58 56.00,295.58
             67.73,285.45 79.18,274.79 92.00,266.03
             92.00,266.03 115.00,252.00 115.00,252.00
             115.00,252.00 147.00,231.66 147.00,231.66
             155.01,226.21 166.51,218.08 172.83,211.00
             172.83,211.00 186.01,191.00 186.01,191.00
             194.64,179.99 204.21,173.02 216.00,165.81
             250.49,144.73 307.17,130.37 347.00,121.58
             347.00,121.58 434.00,104.75 434.00,104.75
             434.00,104.75 481.00,97.17 481.00,97.17
             495.17,96.07 481.57,108.58 478.00,111.91
             466.93,122.23 450.05,134.81 436.00,140.55
             423.44,145.67 409.45,147.77 396.00,145.20
             383.31,142.76 371.27,136.50 358.00,137.04
             352.15,137.28 335.93,143.47 330.00,146.00
             339.95,145.78 340.94,143.11 350.00,143.00
             364.39,142.84 374.55,149.30 388.00,153.09
             400.61,156.17 419.26,156.09 432.00,153.09
             446.79,150.13 463.53,142.48 476.00,133.97
             476.00,133.97 497.00,118.00 497.00,118.00
             497.00,118.00 507.20,130.00 507.20,130.00
             515.26,139.98 522.57,150.71 528.69,162.00
             545.31,192.66 555.03,226.48 559.15,261.00
             559.15,261.00 561.00,281.00 561.00,281.00
             561.00,281.00 561.00,299.00 561.00,299.00
             560.98,308.67 557.58,331.19 555.42,341.00
             555.42,341.00 546.42,375.00 546.42,375.00
             544.53,381.44 541.09,391.83 537.00,397.00
             531.12,371.97 504.32,357.34 480.00,357.34
             474.71,357.34 468.19,358.96 463.00,360.00
             472.62,337.63 472.04,326.63 472.00,303.00
             471.97,284.77 467.76,264.26 457.48,249.00
             442.98,227.47 419.66,214.36 395.00,207.88
             384.86,205.22 362.82,201.21 353.00,204.00
             361.06,204.38 374.14,208.14 382.00,210.66
             408.35,219.10 434.02,234.34 448.13,259.00
             469.59,296.52 460.10,352.32 431.83,384.00
             425.82,390.73 418.17,398.04 410.00,402.02
             410.00,402.02 383.00,412.48 383.00,412.48
             363.53,422.70 341.53,445.83 340.37,469.00
             339.78,480.94 348.31,488.46 360.00,484.30
             375.43,478.81 385.18,464.31 397.00,454.00
             393.56,469.07 381.52,486.86 371.02,498.00
             348.06,522.34 323.78,536.17 290.00,537.41
             279.09,537.81 268.22,535.66 258.00,531.95
             254.65,530.73 244.77,525.61 242.01,526.41
             239.20,527.23 235.31,532.67 233.00,535.00
             229.36,526.71 226.45,516.97 229.00,508.00
             215.90,505.55 191.66,490.67 184.00,480.00
             195.65,485.01 207.99,490.47 221.00,489.96
             241.81,489.15 258.75,478.41 273.00,464.00
             298.52,438.19 310.60,404.63 313.09,369.00
             313.09,369.00 314.00,359.00 314.00,359.00
             314.08,352.05 313.03,340.66 311.24,334.00
             310.08,329.67 307.67,323.84 305.37,320.00
             286.39,288.36 244.20,296.81 215.00,305.98
             215.00,305.98 197.00,312.28 197.00,312.28
             197.00,312.28 176.00,322.23 176.00,322.23
             166.88,327.12 159.16,331.78 151.00,338.21
             135.13,350.71 119.25,368.65 119.00,390.00
             118.71,414.95 132.31,433.72 149.04,451.00
             149.04,451.00 166.00,467.00 166.00,467.00
             137.76,455.77 121.01,448.38 98.01,427.17
             88.20,418.11 76.52,404.50 74.00,391.00
             66.58,396.46 64.94,395.59 57.78,382.00
             50.74,368.63 47.00,354.08 47.00,339.00
             37.99,337.59 31.62,332.59 24.00,328.00
             26.94,321.49 30.99,318.54 36.04,313.83 Z
           M 222.00,176.67
           C 216.89,180.06 206.38,187.33 202.32,191.44
             202.32,191.44 194.99,201.00 194.99,201.00
             194.99,201.00 180.99,216.99 180.99,216.99
             180.99,216.99 162.00,233.58 162.00,233.58
             162.00,233.58 150.00,243.00 150.00,243.00
             167.51,240.53 189.84,229.38 205.00,220.40
             209.27,217.87 219.12,213.35 221.83,210.79
             229.28,203.74 240.63,182.80 254.09,170.43
             258.82,166.08 264.32,161.91 270.00,158.89
             274.29,156.61 278.01,155.89 282.00,153.00
             261.58,153.18 238.65,165.62 222.00,176.67 Z" />
</svg>
