<?xml version="1.0" encoding="UTF-8" standalone="no"?>
<!DOCTYPE svg PUBLIC "-//W3C//DTD SVG 20010904//EN"
              "http://www.w3.org/TR/2001/REC-SVG-20010904/DTD/svg10.dtd">

<svg xmlns="http://www.w3.org/2000/svg"
     width="27.7778in" height="27.7778in"
     viewBox="0 0 2000 2000">
  <path id="Selection"
        fill="none" stroke="black" stroke-width="1"
        d="M 865.75,286.00
           C 865.75,286.00 836.95,236.00 836.95,236.00
             834.38,231.97 825.94,222.63 827.54,218.00
             828.44,215.36 837.52,205.65 839.93,203.00
             839.93,203.00 864.58,175.00 864.58,175.00
             864.58,175.00 959.72,67.00 959.72,67.00
             959.72,67.00 990.58,32.00 990.58,32.00
             992.55,29.71 999.27,21.20 1002.09,21.20
             1005.48,21.20 1011.64,29.41 1014.00,32.00
             1014.00,32.00 1043.05,65.00 1043.05,65.00
             1043.05,65.00 1138.15,173.00 1138.15,173.00
             1138.15,173.00 1165.42,204.00 1165.42,204.00
             1167.81,206.76 1174.94,213.83 1175.60,217.00
             1176.32,220.41 1168.78,230.67 1166.68,234.00
             1166.68,234.00 1143.11,277.00 1143.11,277.00
             1122.09,320.20 1105.01,365.51 1096.75,413.00
             1096.75,413.00 1092.58,442.00 1092.58,442.00
             1091.84,447.54 1090.53,455.79 1092.00,461.00
             1095.88,450.85 1112.44,431.95 1119.92,423.00
             1147.04,390.56 1180.54,361.96 1215.00,337.58
             1215.00,337.58 1248.00,316.40 1248.00,316.40
             1250.93,314.64 1258.79,309.31 1262.00,309.87
             1265.34,310.46 1268.95,315.52 1271.16,318.00
             1271.16,318.00 1290.84,340.00 1290.84,340.00
             1290.84,340.00 1345.07,401.00 1345.07,401.00
             1345.07,401.00 1362.00,420.00 1362.00,420.00
             1365.83,424.19 1371.66,430.04 1374.00,435.00
             1345.84,444.77 1312.24,465.81 1289.00,484.40
             1251.80,514.15 1219.15,550.54 1195.43,592.00
             1181.91,615.63 1171.27,643.20 1162.67,669.00
             1150.60,705.19 1142.17,742.26 1136.73,780.00
             1136.73,780.00 1131.91,828.00 1131.91,828.00
             1131.91,828.00 1131.00,840.00 1131.00,840.00
             1131.00,840.00 1131.00,885.00 1131.00,885.00
             1131.00,885.00 1131.91,897.00 1131.91,897.00
             1131.91,897.00 1136.75,941.00 1136.75,941.00
             1152.48,1035.38 1200.13,1132.31 1299.00,1160.71
             1310.80,1164.10 1330.85,1167.85 1343.00,1168.00
             1402.74,1168.70 1457.08,1144.67 1505.00,1110.42
             1515.46,1102.94 1537.17,1086.41 1546.00,1077.96
             1562.73,1061.96 1581.89,1038.67 1595.87,1020.00
             1651.99,945.07 1691.06,854.76 1704.73,762.00
             1704.73,762.00 1709.09,719.00 1709.09,719.00
             1709.09,719.00 1710.00,707.00 1710.00,707.00
             1710.00,707.00 1710.00,658.00 1710.00,658.00
             1710.00,658.00 1709.09,648.00 1709.09,648.00
             1709.09,648.00 1704.27,602.00 1704.27,602.00
             1696.77,549.99 1680.89,496.42 1660.58,448.00
             1660.58,448.00 1643.31,410.00 1643.31,410.00
             1616.28,351.13 1571.89,284.92 1531.79,234.00
             1531.79,234.00 1498.91,194.00 1498.91,194.00
             1496.71,191.63 1484.85,179.22 1497.00,181.94
             1504.83,183.69 1511.63,189.50 1518.00,194.15
             1518.00,194.15 1551.00,218.63 1551.00,218.63
             1595.18,251.76 1638.09,286.79 1678.00,324.96
             1678.00,324.96 1706.96,353.00 1706.96,353.00
             1760.07,408.53 1806.80,469.74 1844.14,537.00
             1896.21,630.81 1928.71,734.46 1946.41,840.00
             1952.11,873.97 1955.85,907.77 1959.17,942.00
             1959.17,942.00 1962.68,993.00 1962.68,993.00
             1962.68,993.00 1962.00,1003.00 1962.00,1003.00
             1962.00,1003.00 1962.00,1018.00 1962.00,1018.00
             1962.00,1018.00 1961.00,1032.00 1961.00,1032.00
             1961.00,1032.00 1959.09,1064.00 1959.09,1064.00
             1956.57,1100.88 1952.13,1137.48 1946.08,1174.00
             1914.82,1362.81 1835.18,1544.06 1704.09,1685.00
             1704.09,1685.00 1662.00,1727.91 1662.00,1727.91
             1545.04,1836.88 1404.71,1910.91 1249.00,1946.65
             1204.65,1956.83 1163.26,1963.64 1118.00,1968.17
             1118.00,1968.17 1080.00,1971.09 1080.00,1971.09
             1080.00,1971.09 1070.00,1972.00 1070.00,1972.00
             1070.00,1972.00 1052.00,1973.00 1052.00,1973.00
             1052.00,1973.00 1032.00,1973.00 1032.00,1973.00
             1032.00,1973.00 1015.00,1973.96 1015.00,1973.96
             1015.00,1973.96 998.00,1973.96 998.00,1973.96
             998.00,1973.96 988.00,1973.00 988.00,1973.00
             988.00,1973.00 969.00,1973.00 969.00,1973.00
             969.00,1973.00 950.00,1972.00 950.00,1972.00
             950.00,1972.00 940.00,1971.09 940.00,1971.09
             910.53,1969.07 881.20,1965.91 852.00,1961.08
             779.33,1949.05 707.96,1929.09 640.00,1900.58
             379.79,1791.38 183.61,1574.70 96.33,1307.00
             77.53,1249.32 64.56,1191.14 56.72,1131.00
             56.72,1131.00 50.96,1071.00 50.96,1071.00
             50.96,1071.00 50.00,1060.00 50.00,1060.00
             50.00,1060.00 49.00,1040.00 49.00,1040.00
             49.00,1040.00 49.00,970.00 49.00,970.00
             49.00,970.00 50.00,950.00 50.00,950.00
             50.00,950.00 50.91,940.00 50.91,940.00
             52.86,911.52 56.04,883.25 60.42,855.00
             84.17,702.08 147.39,555.64 240.13,432.00
             265.28,398.46 292.34,365.66 322.00,336.00
             322.00,336.00 356.00,302.09 356.00,302.09
             389.39,270.98 424.48,242.47 461.00,215.13
             461.00,215.13 496.00,190.67 496.00,190.67
             502.75,186.16 506.60,181.64 515.00,184.00
             512.71,190.72 506.94,195.70 502.43,201.00
             502.43,201.00 478.47,231.00 478.47,231.00
             453.78,263.93 431.08,298.41 410.42,334.00
             362.29,416.93 320.95,517.87 306.27,613.00
             306.27,613.00 299.91,671.00 299.91,671.00
             299.91,671.00 299.00,683.00 299.00,683.00
             299.00,683.00 299.00,731.00 299.00,731.00
             299.00,731.00 299.91,741.00 299.91,741.00
             299.91,741.00 303.73,779.00 303.73,779.00
             311.92,835.82 328.05,884.73 353.75,936.00
             364.89,958.21 378.30,979.78 392.71,1000.00
             409.81,1024.00 428.40,1046.90 448.99,1068.00
             448.99,1068.00 458.04,1077.83 458.04,1077.83
             471.49,1090.55 488.57,1103.04 504.00,1113.33
             561.85,1151.90 635.36,1179.44 705.00,1159.57
             723.87,1154.19 741.66,1145.83 758.00,1135.00
             775.79,1123.21 797.56,1103.65 810.71,1087.00
             830.04,1062.53 848.76,1017.11 858.02,987.00
             892.57,874.69 879.17,760.92 836.00,653.00
             836.00,653.00 813.25,603.00 813.25,603.00
             813.25,603.00 805.22,586.00 805.22,586.00
             796.54,569.29 783.81,551.29 771.57,537.00
             733.24,492.22 682.94,458.20 629.00,435.00
             632.17,428.28 647.88,412.64 653.72,406.00
             653.72,406.00 714.28,339.00 714.28,339.00
             714.28,339.00 734.28,317.00 734.28,317.00
             736.54,314.44 740.36,309.82 744.00,309.70
             747.05,309.60 756.04,314.89 759.00,316.58
             759.00,316.58 793.00,337.72 793.00,337.72
             826.01,360.79 855.74,388.27 881.73,419.00
             881.73,419.00 912.00,459.00 912.00,459.00
             912.00,403.47 890.45,335.40 865.75,286.00 Z" />
</svg>
