solid OpenSCAD_Model
  facet normal 0.577382 0.187549 -0.794642
    outer loop
      vertex 32.309 0 -0.951056
      vertex 32.25 0.181635 -0.951056
      vertex 32.6545 0.475528 -0.587785
    endloop
  endfacet
  facet normal 0.577382 -0.187549 -0.794642
    outer loop
      vertex 32.6545 -0.475528 -0.587785
      vertex 32.25 -0.181635 -0.951056
      vertex 32.309 0 -0.951056
    endloop
  endfacet
  facet normal -0.419014 -0.419015 0.805515
    outer loop
      vertex -28.25 -0.181635 30.9511
      vertex -0.654508 -28.4755 30.5878
      vertex -0.249999 -28.1816 30.9511
    endloop
  endfacet
  facet normal -0.419021 -0.419021 0.805508
    outer loop
      vertex -0.654508 -28.4755 30.5878
      vertex -28.25 -0.181635 30.9511
      vertex -28.6545 -0.475528 30.5878
    endloop
  endfacet
  facet normal 0 0 -1
    outer loop
      vertex 32.25 -0.181635 -0.951056
      vertex 32.25 0.181635 -0.951056
      vertex 32.309 0 -0.951056
    endloop
  endfacet
  facet normal 0 0 -1
    outer loop
      vertex 0.249999 -32.1816 -0.951056
      vertex 32.25 0.181635 -0.951056
      vertex 32.25 -0.181635 -0.951056
    endloop
  endfacet
  facet normal 0 0 -1
    outer loop
      vertex 0.249999 -32.1816 -0.951056
      vertex 0.249999 32.1816 -0.951056
      vertex 32.25 0.181635 -0.951056
    endloop
  endfacet
  facet normal 0 0 -1
    outer loop
      vertex -0.249999 -32.1816 -0.951056
      vertex 0.249999 -32.1816 -0.951056
      vertex 0.0954914 -32.2939 -0.951056
    endloop
  endfacet
  facet normal 0 0 -1
    outer loop
      vertex 0.249999 -32.1816 -0.951056
      vertex -0.249999 -32.1816 -0.951056
      vertex 0.249999 32.1816 -0.951056
    endloop
  endfacet
  facet normal 0 0 -1
    outer loop
      vertex -0.249999 -32.1816 -0.951056
      vertex 0.0954914 -32.2939 -0.951056
      vertex -0.0954914 -32.2939 -0.951056
    endloop
  endfacet
  facet normal 0 0 -1
    outer loop
      vertex -0.249999 32.1816 -0.951056
      vertex 0.249999 32.1816 -0.951056
      vertex -0.249999 -32.1816 -0.951056
    endloop
  endfacet
  facet normal 0 0 -1
    outer loop
      vertex 0.249999 32.1816 -0.951056
      vertex -0.249999 32.1816 -0.951056
      vertex 0.0954914 32.2939 -0.951056
    endloop
  endfacet
  facet normal -0 0 -1
    outer loop
      vertex 0.0954914 32.2939 -0.951056
      vertex -0.249999 32.1816 -0.951056
      vertex -0.0954914 32.2939 -0.951056
    endloop
  endfacet
  facet normal 0 0 -1
    outer loop
      vertex -32.25 -0.181635 -0.951056
      vertex -0.249999 32.1816 -0.951056
      vertex -0.249999 -32.1816 -0.951056
    endloop
  endfacet
  facet normal 0 0 -1
    outer loop
      vertex -32.25 -0.181635 -0.951056
      vertex -32.25 0.181635 -0.951056
      vertex -0.249999 32.1816 -0.951056
    endloop
  endfacet
  facet normal 0 -0 -1
    outer loop
      vertex -32.25 0.181635 -0.951056
      vertex -32.25 -0.181635 -0.951056
      vertex -32.309 0 -0.951056
    endloop
  endfacet
  facet normal -0.703985 0.703985 0.0938646
    outer loop
      vertex -32.809 0.587785 0
      vertex -0.809016 28.5878 30
      vertex -0.809016 32.5878 0
    endloop
  endfacet
  facet normal -0.703985 0.703984 0.0938647
    outer loop
      vertex -0.809016 28.5878 30
      vertex -32.809 0.587785 0
      vertex -28.809 0.587785 30
    endloop
  endfacet
  facet normal 0.561602 -0.772918 -0.295296
    outer loop
      vertex 0.809016 -32.5878 0
      vertex 0.309016 -32.9511 0
      vertex 0.654508 -32.4755 -0.587785
    endloop
  endfacet
  facet normal 0.908658 -0.295225 -0.295267
    outer loop
      vertex 33 0 0
      vertex 32.6545 -0.475528 -0.587785
      vertex 32.809 0 -0.587785
    endloop
  endfacet
  facet normal -0.57738 0.187592 0.794633
    outer loop
      vertex -28.6545 0.475528 30.5878
      vertex -28.809 0 30.5878
      vertex -28.309 0 30.9511
    endloop
  endfacet
  facet normal -0.584426 0.804329 0.107244
    outer loop
      vertex -0.309016 32.9511 0
      vertex -0.809016 28.5878 30
      vertex -0.309016 28.9511 30
    endloop
  endfacet
  facet normal -0.584426 0.804329 0.107244
    outer loop
      vertex -0.809016 28.5878 30
      vertex -0.309016 32.9511 0
      vertex -0.809016 32.5878 0
    endloop
  endfacet
  facet normal 0.561578 -0.772928 -0.295318
    outer loop
      vertex 0.309016 -32.9511 0
      vertex 0.249999 -32.7694 -0.587785
      vertex 0.654508 -32.4755 -0.587785
    endloop
  endfacet
  facet normal -0.356839 0.491136 -0.794639
    outer loop
      vertex -0.0954914 32.2939 -0.951056
      vertex -0.654508 32.4755 -0.587785
      vertex -0.249999 32.7694 -0.587785
    endloop
  endfacet
  facet normal 0.561604 0.77292 0.29529
    outer loop
      vertex 0.809016 28.5878 30
      vertex 0.309016 28.9511 30
      vertex 0.654508 28.4755 30.5878
    endloop
  endfacet
  facet normal 0.703985 0.703984 0.0938647
    outer loop
      vertex 32.809 0.587785 0
      vertex 0.809016 28.5878 30
      vertex 28.809 0.587785 30
    endloop
  endfacet
  facet normal 0.703985 0.703985 0.0938646
    outer loop
      vertex 0.809016 28.5878 30
      vertex 32.809 0.587785 0
      vertex 0.809016 32.5878 0
    endloop
  endfacet
  facet normal 0.673287 -0.673288 -0.305561
    outer loop
      vertex 32.809 -0.587785 0
      vertex 0.654508 -32.4755 -0.587785
      vertex 32.6545 -0.475528 -0.587785
    endloop
  endfacet
  facet normal 0.673276 -0.673275 -0.305614
    outer loop
      vertex 0.654508 -32.4755 -0.587785
      vertex 32.809 -0.587785 0
      vertex 0.809016 -32.5878 0
    endloop
  endfacet
  facet normal -0.908658 0.295225 -0.295267
    outer loop
      vertex -32.809 0 -0.587785
      vertex -33 0 0
      vertex -32.6545 0.475528 -0.587785
    endloop
  endfacet
  facet normal 0.673276 0.673275 -0.305614
    outer loop
      vertex 32.809 0.587785 0
      vertex 0.654508 32.4755 -0.587785
      vertex 0.809016 32.5878 0
    endloop
  endfacet
  facet normal 0.673287 0.673288 -0.305561
    outer loop
      vertex 0.654508 32.4755 -0.587785
      vertex 32.809 0.587785 0
      vertex 32.6545 0.475528 -0.587785
    endloop
  endfacet
  facet normal -0.577382 0.187549 -0.794642
    outer loop
      vertex -32.309 0 -0.951056
      vertex -32.6545 0.475528 -0.587785
      vertex -32.25 0.181635 -0.951056
    endloop
  endfacet
  facet normal -0.577351 0.187583 -0.794656
    outer loop
      vertex -32.309 0 -0.951056
      vertex -32.809 0 -0.587785
      vertex -32.6545 0.475528 -0.587785
    endloop
  endfacet
  facet normal 0.90866 0.295225 0.29526
    outer loop
      vertex 29 0 30
      vertex 28.6545 0.475528 30.5878
      vertex 28.809 0 30.5878
    endloop
  endfacet
  facet normal 0.419021 0.419021 0.805508
    outer loop
      vertex 0.654508 28.4755 30.5878
      vertex 28.25 0.181635 30.9511
      vertex 28.6545 0.475528 30.5878
    endloop
  endfacet
  facet normal 0.419014 0.419015 0.805515
    outer loop
      vertex 28.25 0.181635 30.9511
      vertex 0.654508 28.4755 30.5878
      vertex 0.249999 28.1816 30.9511
    endloop
  endfacet
  facet normal 0.703985 -0.703984 0.0938647
    outer loop
      vertex 0.809016 -28.5878 30
      vertex 32.809 -0.587785 0
      vertex 28.809 -0.587785 30
    endloop
  endfacet
  facet normal 0.703985 -0.703985 0.0938646
    outer loop
      vertex 32.809 -0.587785 0
      vertex 0.809016 -28.5878 30
      vertex 0.809016 -32.5878 0
    endloop
  endfacet
  facet normal 0.908658 -0.295267 0.295225
    outer loop
      vertex 29 0 30
      vertex 28.6545 -0.475528 30.5878
      vertex 28.809 -0.587785 30
    endloop
  endfacet
  facet normal 0.943493 -0.306587 0.125799
    outer loop
      vertex 28.809 -0.587785 30
      vertex 33 0 0
      vertex 29 0 30
    endloop
  endfacet
  facet normal 0.943493 -0.306587 0.125799
    outer loop
      vertex 33 0 0
      vertex 28.809 -0.587785 30
      vertex 32.809 -0.587785 0
    endloop
  endfacet
  facet normal 0.908658 0.295225 -0.295267
    outer loop
      vertex 32.809 0 -0.587785
      vertex 32.6545 0.475528 -0.587785
      vertex 33 0 0
    endloop
  endfacet
  facet normal -0.418993 -0.418993 -0.805537
    outer loop
      vertex -0.654508 -32.4755 -0.587785
      vertex -32.25 -0.181635 -0.951056
      vertex -0.249999 -32.1816 -0.951056
    endloop
  endfacet
  facet normal -0.418999 -0.418999 -0.805531
    outer loop
      vertex -32.25 -0.181635 -0.951056
      vertex -0.654508 -32.4755 -0.587785
      vertex -32.6545 -0.475528 -0.587785
    endloop
  endfacet
  facet normal -0.673287 -0.673288 -0.305561
    outer loop
      vertex -0.654508 -32.4755 -0.587785
      vertex -32.809 -0.587785 0
      vertex -32.6545 -0.475528 -0.587785
    endloop
  endfacet
  facet normal -0.673276 -0.673275 -0.305614
    outer loop
      vertex -32.809 -0.587785 0
      vertex -0.654508 -32.4755 -0.587785
      vertex -0.809016 -32.5878 0
    endloop
  endfacet
  facet normal -0.561602 -0.772918 -0.295296
    outer loop
      vertex -0.309016 -32.9511 0
      vertex -0.809016 -32.5878 0
      vertex -0.654508 -32.4755 -0.587785
    endloop
  endfacet
  facet normal -0.943493 -0.306587 0.125799
    outer loop
      vertex -32.809 -0.587785 0
      vertex -29 0 30
      vertex -33 0 0
    endloop
  endfacet
  facet normal -0.943493 -0.306587 0.125799
    outer loop
      vertex -29 0 30
      vertex -32.809 -0.587785 0
      vertex -28.809 -0.587785 30
    endloop
  endfacet
  facet normal -0.577382 -0.187549 -0.794642
    outer loop
      vertex -32.25 -0.181635 -0.951056
      vertex -32.6545 -0.475528 -0.587785
      vertex -32.309 0 -0.951056
    endloop
  endfacet
  facet normal -0.703985 -0.703984 0.0938647
    outer loop
      vertex -32.809 -0.587785 0
      vertex -0.809016 -28.5878 30
      vertex -28.809 -0.587785 30
    endloop
  endfacet
  facet normal -0.703985 -0.703985 0.0938646
    outer loop
      vertex -0.809016 -28.5878 30
      vertex -32.809 -0.587785 0
      vertex -0.809016 -32.5878 0
    endloop
  endfacet
  facet normal -0.673289 -0.673289 0.305554
    outer loop
      vertex -28.809 -0.587785 30
      vertex -0.654508 -28.4755 30.5878
      vertex -28.6545 -0.475528 30.5878
    endloop
  endfacet
  facet normal -0.673278 -0.673277 0.305607
    outer loop
      vertex -0.654508 -28.4755 30.5878
      vertex -28.809 -0.587785 30
      vertex -0.809016 -28.5878 30
    endloop
  endfacet
  facet normal 0.561602 0.772918 -0.295296
    outer loop
      vertex 0.654508 32.4755 -0.587785
      vertex 0.309016 32.9511 0
      vertex 0.809016 32.5878 0
    endloop
  endfacet
  facet normal 0.418999 0.418999 -0.805531
    outer loop
      vertex 32.25 0.181635 -0.951056
      vertex 0.654508 32.4755 -0.587785
      vertex 32.6545 0.475528 -0.587785
    endloop
  endfacet
  facet normal 0.418993 0.418993 -0.805537
    outer loop
      vertex 0.654508 32.4755 -0.587785
      vertex 32.25 0.181635 -0.951056
      vertex 0.249999 32.1816 -0.951056
    endloop
  endfacet
  facet normal 0.356839 0.491136 -0.794639
    outer loop
      vertex 0.654508 32.4755 -0.587785
      vertex 0.0954914 32.2939 -0.951056
      vertex 0.249999 32.7694 -0.587785
    endloop
  endfacet
  facet normal 0 0.607085 -0.794637
    outer loop
      vertex -0.0954914 32.2939 -0.951056
      vertex 0.249999 32.7694 -0.587785
      vertex 0.0954914 32.2939 -0.951056
    endloop
  endfacet
  facet normal 0 0.607085 -0.794637
    outer loop
      vertex 0.249999 32.7694 -0.587785
      vertex -0.0954914 32.2939 -0.951056
      vertex -0.249999 32.7694 -0.587785
    endloop
  endfacet
  facet normal -0.561604 0.77292 0.29529
    outer loop
      vertex -0.309016 28.9511 30
      vertex -0.809016 28.5878 30
      vertex -0.654508 28.4755 30.5878
    endloop
  endfacet
  facet normal -0.57738 -0.187592 0.794633
    outer loop
      vertex -28.309 0 30.9511
      vertex -28.809 0 30.5878
      vertex -28.6545 -0.475528 30.5878
    endloop
  endfacet
  facet normal -0.356857 0.49116 0.794616
    outer loop
      vertex -0.249999 28.7694 30.5878
      vertex -0.654508 28.4755 30.5878
      vertex -0.0954914 28.2939 30.9511
    endloop
  endfacet
  facet normal -0.419014 0.419015 0.805515
    outer loop
      vertex -0.654508 28.4755 30.5878
      vertex -28.25 0.181635 30.9511
      vertex -0.249999 28.1816 30.9511
    endloop
  endfacet
  facet normal -0.419021 0.419021 0.805508
    outer loop
      vertex -28.25 0.181635 30.9511
      vertex -0.654508 28.4755 30.5878
      vertex -28.6545 0.475528 30.5878
    endloop
  endfacet
  facet normal -0.356896 0.491035 -0.794676
    outer loop
      vertex -0.249999 32.1816 -0.951056
      vertex -0.654508 32.4755 -0.587785
      vertex -0.0954914 32.2939 -0.951056
    endloop
  endfacet
  facet normal 0.90866 -0.295225 0.29526
    outer loop
      vertex 28.809 0 30.5878
      vertex 28.6545 -0.475528 30.5878
      vertex 29 0 30
    endloop
  endfacet
  facet normal 0 0.955395 0.295331
    outer loop
      vertex 0.309016 28.9511 30
      vertex -0.249999 28.7694 30.5878
      vertex 0.249999 28.7694 30.5878
    endloop
  endfacet
  facet normal 0 0.955395 0.295331
    outer loop
      vertex -0.249999 28.7694 30.5878
      vertex 0.309016 28.9511 30
      vertex -0.309016 28.9511 30
    endloop
  endfacet
  facet normal 0.584426 0.804329 0.107244
    outer loop
      vertex 0.809016 32.5878 0
      vertex 0.309016 28.9511 30
      vertex 0.809016 28.5878 30
    endloop
  endfacet
  facet normal 0.584426 0.804329 0.107244
    outer loop
      vertex 0.309016 28.9511 30
      vertex 0.809016 32.5878 0
      vertex 0.309016 32.9511 0
    endloop
  endfacet
  facet normal 0.57738 -0.187592 0.794633
    outer loop
      vertex 28.809 0 30.5878
      vertex 28.309 0 30.9511
      vertex 28.6545 -0.475528 30.5878
    endloop
  endfacet
  facet normal 0.673278 0.673277 0.305607
    outer loop
      vertex 0.654508 28.4755 30.5878
      vertex 28.809 0.587785 30
      vertex 0.809016 28.5878 30
    endloop
  endfacet
  facet normal 0.673289 0.673289 0.305554
    outer loop
      vertex 28.809 0.587785 30
      vertex 0.654508 28.4755 30.5878
      vertex 28.6545 0.475528 30.5878
    endloop
  endfacet
  facet normal 0.356857 -0.49116 0.794616
    outer loop
      vertex 0.654508 -28.4755 30.5878
      vertex 0.0954914 -28.2939 30.9511
      vertex 0.249999 -28.7694 30.5878
    endloop
  endfacet
  facet normal 0.908656 -0.295267 -0.295232
    outer loop
      vertex 32.809 -0.587785 0
      vertex 32.6545 -0.475528 -0.587785
      vertex 33 0 0
    endloop
  endfacet
  facet normal 0.673289 -0.673289 0.305554
    outer loop
      vertex 0.654508 -28.4755 30.5878
      vertex 28.809 -0.587785 30
      vertex 28.6545 -0.475528 30.5878
    endloop
  endfacet
  facet normal 0.673278 -0.673277 0.305607
    outer loop
      vertex 28.809 -0.587785 30
      vertex 0.654508 -28.4755 30.5878
      vertex 0.809016 -28.5878 30
    endloop
  endfacet
  facet normal 0.577351 -0.187583 -0.794656
    outer loop
      vertex 32.6545 -0.475528 -0.587785
      vertex 32.309 0 -0.951056
      vertex 32.809 0 -0.587785
    endloop
  endfacet
  facet normal 0.577351 0.187583 -0.794656
    outer loop
      vertex 32.809 0 -0.587785
      vertex 32.309 0 -0.951056
      vertex 32.6545 0.475528 -0.587785
    endloop
  endfacet
  facet normal 0.418999 -0.418999 -0.805531
    outer loop
      vertex 0.654508 -32.4755 -0.587785
      vertex 32.25 -0.181635 -0.951056
      vertex 32.6545 -0.475528 -0.587785
    endloop
  endfacet
  facet normal 0.418993 -0.418993 -0.805537
    outer loop
      vertex 32.25 -0.181635 -0.951056
      vertex 0.654508 -32.4755 -0.587785
      vertex 0.249999 -32.1816 -0.951056
    endloop
  endfacet
  facet normal -0.908658 -0.295267 0.295225
    outer loop
      vertex -28.6545 -0.475528 30.5878
      vertex -29 0 30
      vertex -28.809 -0.587785 30
    endloop
  endfacet
  facet normal -0.356896 -0.491035 -0.794676
    outer loop
      vertex -0.0954914 -32.2939 -0.951056
      vertex -0.654508 -32.4755 -0.587785
      vertex -0.249999 -32.1816 -0.951056
    endloop
  endfacet
  facet normal -0.561578 -0.772928 -0.295318
    outer loop
      vertex -0.309016 -32.9511 0
      vertex -0.654508 -32.4755 -0.587785
      vertex -0.249999 -32.7694 -0.587785
    endloop
  endfacet
  facet normal 0.561578 0.772928 -0.295318
    outer loop
      vertex 0.654508 32.4755 -0.587785
      vertex 0.249999 32.7694 -0.587785
      vertex 0.309016 32.9511 0
    endloop
  endfacet
  facet normal 0.356896 0.491035 -0.794676
    outer loop
      vertex 0.249999 32.1816 -0.951056
      vertex 0.0954914 32.2939 -0.951056
      vertex 0.654508 32.4755 -0.587785
    endloop
  endfacet
  facet normal -0.577411 -0.187559 0.794618
    outer loop
      vertex -28.309 0 30.9511
      vertex -28.6545 -0.475528 30.5878
      vertex -28.25 -0.181635 30.9511
    endloop
  endfacet
  facet normal -0.90866 0.295225 0.29526
    outer loop
      vertex -28.6545 0.475528 30.5878
      vertex -29 0 30
      vertex -28.809 0 30.5878
    endloop
  endfacet
  facet normal -0.90866 -0.295225 0.29526
    outer loop
      vertex -28.809 0 30.5878
      vertex -29 0 30
      vertex -28.6545 -0.475528 30.5878
    endloop
  endfacet
  facet normal -0.577411 0.187559 0.794618
    outer loop
      vertex -28.25 0.181635 30.9511
      vertex -28.6545 0.475528 30.5878
      vertex -28.309 0 30.9511
    endloop
  endfacet
  facet normal 0 0 1
    outer loop
      vertex 28.25 0.181635 30.9511
      vertex 28.25 -0.181635 30.9511
      vertex 28.309 0 30.9511
    endloop
  endfacet
  facet normal 0 0 1
    outer loop
      vertex 28.25 0.181635 30.9511
      vertex 14 0 30.9511
      vertex 28.25 -0.181635 30.9511
    endloop
  endfacet
  facet normal 0 0 1
    outer loop
      vertex 28.25 0.181635 30.9511
      vertex 13.6941 2.91076 30.9511
      vertex 14 0 30.9511
    endloop
  endfacet
  facet normal 0 0 1
    outer loop
      vertex 28.25 0.181635 30.9511
      vertex 12.7896 5.69431 30.9511
      vertex 13.6941 2.91076 30.9511
    endloop
  endfacet
  facet normal 0 0 1
    outer loop
      vertex 28.25 0.181635 30.9511
      vertex 11.3262 8.22899 30.9511
      vertex 12.7896 5.69431 30.9511
    endloop
  endfacet
  facet normal 0 0 1
    outer loop
      vertex 28.25 0.181635 30.9511
      vertex 9.36783 10.404 30.9511
      vertex 11.3262 8.22899 30.9511
    endloop
  endfacet
  facet normal 0 0 1
    outer loop
      vertex 0.249999 28.1816 30.9511
      vertex 9.36783 10.404 30.9511
      vertex 28.25 0.181635 30.9511
    endloop
  endfacet
  facet normal 0 0 1
    outer loop
      vertex 9.36783 10.404 30.9511
      vertex 0.249999 28.1816 30.9511
      vertex 7 12.1244 30.9511
    endloop
  endfacet
  facet normal 0 0 1
    outer loop
      vertex 0.249999 28.1816 30.9511
      vertex 4.32624 13.3148 30.9511
      vertex 7 12.1244 30.9511
    endloop
  endfacet
  facet normal 0 0 1
    outer loop
      vertex 0.249999 28.1816 30.9511
      vertex 1.4634 13.9233 30.9511
      vertex 4.32624 13.3148 30.9511
    endloop
  endfacet
  facet normal 0 0 1
    outer loop
      vertex -0.249999 28.1816 30.9511
      vertex 0.249999 28.1816 30.9511
      vertex 0.0954914 28.2939 30.9511
    endloop
  endfacet
  facet normal 0 0 1
    outer loop
      vertex -0.249999 28.1816 30.9511
      vertex 0.0954914 28.2939 30.9511
      vertex -0.0954914 28.2939 30.9511
    endloop
  endfacet
  facet normal 0 0 1
    outer loop
      vertex 0.249999 28.1816 30.9511
      vertex -0.249999 28.1816 30.9511
      vertex 1.4634 13.9233 30.9511
    endloop
  endfacet
  facet normal 0 0 1
    outer loop
      vertex -0.249999 28.1816 30.9511
      vertex -1.4634 13.9233 30.9511
      vertex 1.4634 13.9233 30.9511
    endloop
  endfacet
  facet normal 0 0 1
    outer loop
      vertex -0.249999 28.1816 30.9511
      vertex -4.32624 13.3148 30.9511
      vertex -1.4634 13.9233 30.9511
    endloop
  endfacet
  facet normal 0 0 1
    outer loop
      vertex -0.249999 28.1816 30.9511
      vertex -7 12.1244 30.9511
      vertex -4.32624 13.3148 30.9511
    endloop
  endfacet
  facet normal 0 0 1
    outer loop
      vertex -0.249999 28.1816 30.9511
      vertex -9.36783 10.404 30.9511
      vertex -7 12.1244 30.9511
    endloop
  endfacet
  facet normal 0 0 1
    outer loop
      vertex -28.25 0.181635 30.9511
      vertex -9.36783 10.404 30.9511
      vertex -0.249999 28.1816 30.9511
    endloop
  endfacet
  facet normal 0 0 1
    outer loop
      vertex -9.36783 10.404 30.9511
      vertex -28.25 0.181635 30.9511
      vertex -11.3262 8.22899 30.9511
    endloop
  endfacet
  facet normal 0 0 1
    outer loop
      vertex -13.6941 2.91076 30.9511
      vertex -28.25 0.181635 30.9511
      vertex -14 0 30.9511
    endloop
  endfacet
  facet normal 0 0 1
    outer loop
      vertex -12.7896 5.69431 30.9511
      vertex -28.25 0.181635 30.9511
      vertex -13.6941 2.91076 30.9511
    endloop
  endfacet
  facet normal 0 0 1
    outer loop
      vertex -11.3262 8.22899 30.9511
      vertex -28.25 0.181635 30.9511
      vertex -12.7896 5.69431 30.9511
    endloop
  endfacet
  facet normal 0 0 1
    outer loop
      vertex 13.6941 -2.91076 30.9511
      vertex 28.25 -0.181635 30.9511
      vertex 14 0 30.9511
    endloop
  endfacet
  facet normal 0 0 1
    outer loop
      vertex 12.7896 -5.69431 30.9511
      vertex 28.25 -0.181635 30.9511
      vertex 13.6941 -2.91076 30.9511
    endloop
  endfacet
  facet normal 0 0 1
    outer loop
      vertex 11.3262 -8.22899 30.9511
      vertex 28.25 -0.181635 30.9511
      vertex 12.7896 -5.69431 30.9511
    endloop
  endfacet
  facet normal 0 0 1
    outer loop
      vertex 9.36783 -10.404 30.9511
      vertex 28.25 -0.181635 30.9511
      vertex 11.3262 -8.22899 30.9511
    endloop
  endfacet
  facet normal 0 0 1
    outer loop
      vertex 0.249999 -28.1816 30.9511
      vertex 9.36783 -10.404 30.9511
      vertex 7 -12.1244 30.9511
    endloop
  endfacet
  facet normal -0 0 1
    outer loop
      vertex 9.36783 -10.404 30.9511
      vertex 0.249999 -28.1816 30.9511
      vertex 28.25 -0.181635 30.9511
    endloop
  endfacet
  facet normal -0 0 1
    outer loop
      vertex 4.32624 -13.3148 30.9511
      vertex 0.249999 -28.1816 30.9511
      vertex 7 -12.1244 30.9511
    endloop
  endfacet
  facet normal -0 0 1
    outer loop
      vertex 1.4634 -13.9233 30.9511
      vertex 0.249999 -28.1816 30.9511
      vertex 4.32624 -13.3148 30.9511
    endloop
  endfacet
  facet normal 0 0 1
    outer loop
      vertex -0.249999 -28.1816 30.9511
      vertex 0.249999 -28.1816 30.9511
      vertex 1.4634 -13.9233 30.9511
    endloop
  endfacet
  facet normal 0 0 1
    outer loop
      vertex 0.249999 -28.1816 30.9511
      vertex -0.249999 -28.1816 30.9511
      vertex 0.0954914 -28.2939 30.9511
    endloop
  endfacet
  facet normal 0 0 1
    outer loop
      vertex 0.0954914 -28.2939 30.9511
      vertex -0.249999 -28.1816 30.9511
      vertex -0.0954914 -28.2939 30.9511
    endloop
  endfacet
  facet normal -0 0 1
    outer loop
      vertex -1.4634 -13.9233 30.9511
      vertex -0.249999 -28.1816 30.9511
      vertex 1.4634 -13.9233 30.9511
    endloop
  endfacet
  facet normal 0 0 1
    outer loop
      vertex -4.32624 -13.3148 30.9511
      vertex -0.249999 -28.1816 30.9511
      vertex -1.4634 -13.9233 30.9511
    endloop
  endfacet
  facet normal 0 0 1
    outer loop
      vertex -7 -12.1244 30.9511
      vertex -0.249999 -28.1816 30.9511
      vertex -4.32624 -13.3148 30.9511
    endloop
  endfacet
  facet normal 0 0 1
    outer loop
      vertex -9.36783 -10.404 30.9511
      vertex -0.249999 -28.1816 30.9511
      vertex -7 -12.1244 30.9511
    endloop
  endfacet
  facet normal 0 0 1
    outer loop
      vertex -28.25 -0.181635 30.9511
      vertex -9.36783 -10.404 30.9511
      vertex -11.3262 -8.22899 30.9511
    endloop
  endfacet
  facet normal 0 0 1
    outer loop
      vertex -28.25 -0.181635 30.9511
      vertex -11.3262 -8.22899 30.9511
      vertex -12.7896 -5.69431 30.9511
    endloop
  endfacet
  facet normal 0 0 1
    outer loop
      vertex -28.25 -0.181635 30.9511
      vertex -14 0 30.9511
      vertex -28.25 0.181635 30.9511
    endloop
  endfacet
  facet normal 0 0 1
    outer loop
      vertex -14 0 30.9511
      vertex -28.25 -0.181635 30.9511
      vertex -13.6941 -2.91076 30.9511
    endloop
  endfacet
  facet normal 0 0 1
    outer loop
      vertex -13.6941 -2.91076 30.9511
      vertex -28.25 -0.181635 30.9511
      vertex -12.7896 -5.69431 30.9511
    endloop
  endfacet
  facet normal 0 0 1
    outer loop
      vertex -9.36783 -10.404 30.9511
      vertex -28.25 -0.181635 30.9511
      vertex -0.249999 -28.1816 30.9511
    endloop
  endfacet
  facet normal 0 -0 1
    outer loop
      vertex -28.25 -0.181635 30.9511
      vertex -28.25 0.181635 30.9511
      vertex -28.309 0 30.9511
    endloop
  endfacet
  facet normal -0.943493 0.306587 0.125799
    outer loop
      vertex -33 0 0
      vertex -28.809 0.587785 30
      vertex -32.809 0.587785 0
    endloop
  endfacet
  facet normal -0.943493 0.306587 0.125799
    outer loop
      vertex -28.809 0.587785 30
      vertex -33 0 0
      vertex -29 0 30
    endloop
  endfacet
  facet normal -0.673276 0.673275 -0.305614
    outer loop
      vertex -0.654508 32.4755 -0.587785
      vertex -32.809 0.587785 0
      vertex -0.809016 32.5878 0
    endloop
  endfacet
  facet normal -0.673287 0.673288 -0.305561
    outer loop
      vertex -32.809 0.587785 0
      vertex -0.654508 32.4755 -0.587785
      vertex -32.6545 0.475528 -0.587785
    endloop
  endfacet
  facet normal -0.561578 0.772928 -0.295318
    outer loop
      vertex -0.249999 32.7694 -0.587785
      vertex -0.654508 32.4755 -0.587785
      vertex -0.309016 32.9511 0
    endloop
  endfacet
  facet normal -0.561602 0.772918 -0.295296
    outer loop
      vertex -0.654508 32.4755 -0.587785
      vertex -0.809016 32.5878 0
      vertex -0.309016 32.9511 0
    endloop
  endfacet
  facet normal 0.943493 0.306587 0.125799
    outer loop
      vertex 29 0 30
      vertex 32.809 0.587785 0
      vertex 28.809 0.587785 30
    endloop
  endfacet
  facet normal 0.943493 0.306587 0.125799
    outer loop
      vertex 32.809 0.587785 0
      vertex 29 0 30
      vertex 33 0 0
    endloop
  endfacet
  facet normal 0.908656 0.295267 -0.295232
    outer loop
      vertex 33 0 0
      vertex 32.6545 0.475528 -0.587785
      vertex 32.809 0.587785 0
    endloop
  endfacet
  facet normal 0.908658 0.295267 0.295225
    outer loop
      vertex 28.809 0.587785 30
      vertex 28.6545 0.475528 30.5878
      vertex 29 0 30
    endloop
  endfacet
  facet normal -0.561579 0.772929 0.295311
    outer loop
      vertex -0.309016 28.9511 30
      vertex -0.654508 28.4755 30.5878
      vertex -0.249999 28.7694 30.5878
    endloop
  endfacet
  facet normal 0.356914 -0.491059 0.794653
    outer loop
      vertex 0.249999 -28.1816 30.9511
      vertex 0.0954914 -28.2939 30.9511
      vertex 0.654508 -28.4755 30.5878
    endloop
  endfacet
  facet normal 0.419021 -0.419021 0.805508
    outer loop
      vertex 28.25 -0.181635 30.9511
      vertex 0.654508 -28.4755 30.5878
      vertex 28.6545 -0.475528 30.5878
    endloop
  endfacet
  facet normal 0.419014 -0.419015 0.805515
    outer loop
      vertex 0.654508 -28.4755 30.5878
      vertex 28.25 -0.181635 30.9511
      vertex 0.249999 -28.1816 30.9511
    endloop
  endfacet
  facet normal 0.577411 -0.187559 0.794618
    outer loop
      vertex 28.309 0 30.9511
      vertex 28.25 -0.181635 30.9511
      vertex 28.6545 -0.475528 30.5878
    endloop
  endfacet
  facet normal -0.356857 -0.49116 0.794616
    outer loop
      vertex -0.0954914 -28.2939 30.9511
      vertex -0.654508 -28.4755 30.5878
      vertex -0.249999 -28.7694 30.5878
    endloop
  endfacet
  facet normal -0.356914 -0.491059 0.794653
    outer loop
      vertex -0.249999 -28.1816 30.9511
      vertex -0.654508 -28.4755 30.5878
      vertex -0.0954914 -28.2939 30.9511
    endloop
  endfacet
  facet normal 0.356896 -0.491035 -0.794676
    outer loop
      vertex 0.654508 -32.4755 -0.587785
      vertex 0.0954914 -32.2939 -0.951056
      vertex 0.249999 -32.1816 -0.951056
    endloop
  endfacet
  facet normal 0.356839 -0.491136 -0.794639
    outer loop
      vertex 0.249999 -32.7694 -0.587785
      vertex 0.0954914 -32.2939 -0.951056
      vertex 0.654508 -32.4755 -0.587785
    endloop
  endfacet
  facet normal -0.908658 0.295267 0.295225
    outer loop
      vertex -28.809 0.587785 30
      vertex -29 0 30
      vertex -28.6545 0.475528 30.5878
    endloop
  endfacet
  facet normal -0.673278 0.673277 0.305607
    outer loop
      vertex -28.809 0.587785 30
      vertex -0.654508 28.4755 30.5878
      vertex -0.809016 28.5878 30
    endloop
  endfacet
  facet normal -0.673289 0.673289 0.305554
    outer loop
      vertex -0.654508 28.4755 30.5878
      vertex -28.809 0.587785 30
      vertex -28.6545 0.475528 30.5878
    endloop
  endfacet
  facet normal -0.561579 -0.772929 0.295311
    outer loop
      vertex -0.249999 -28.7694 30.5878
      vertex -0.654508 -28.4755 30.5878
      vertex -0.309016 -28.9511 30
    endloop
  endfacet
  facet normal 0 -0.955395 0.295331
    outer loop
      vertex -0.309016 -28.9511 30
      vertex 0.249999 -28.7694 30.5878
      vertex -0.249999 -28.7694 30.5878
    endloop
  endfacet
  facet normal 0 -0.955395 0.295331
    outer loop
      vertex 0.249999 -28.7694 30.5878
      vertex -0.309016 -28.9511 30
      vertex 0.309016 -28.9511 30
    endloop
  endfacet
  facet normal -0.584426 -0.804329 0.107244
    outer loop
      vertex -0.809016 -32.5878 0
      vertex -0.309016 -28.9511 30
      vertex -0.809016 -28.5878 30
    endloop
  endfacet
  facet normal -0.584426 -0.804329 0.107244
    outer loop
      vertex -0.309016 -28.9511 30
      vertex -0.809016 -32.5878 0
      vertex -0.309016 -32.9511 0
    endloop
  endfacet
  facet normal -0.561604 -0.77292 0.29529
    outer loop
      vertex -0.654508 -28.4755 30.5878
      vertex -0.809016 -28.5878 30
      vertex -0.309016 -28.9511 30
    endloop
  endfacet
  facet normal 0 -0.955393 -0.295337
    outer loop
      vertex -0.249999 -32.7694 -0.587785
      vertex 0.309016 -32.9511 0
      vertex -0.309016 -32.9511 0
    endloop
  endfacet
  facet normal 0 -0.955393 -0.295337
    outer loop
      vertex 0.309016 -32.9511 0
      vertex -0.249999 -32.7694 -0.587785
      vertex 0.249999 -32.7694 -0.587785
    endloop
  endfacet
  facet normal 0 -0.991228 0.132164
    outer loop
      vertex -0.309016 -32.9511 0
      vertex 0.309016 -28.9511 30
      vertex -0.309016 -28.9511 30
    endloop
  endfacet
  facet normal 0 -0.991228 0.132164
    outer loop
      vertex 0.309016 -28.9511 30
      vertex -0.309016 -32.9511 0
      vertex 0.309016 -32.9511 0
    endloop
  endfacet
  facet normal -0.418993 0.418993 -0.805537
    outer loop
      vertex -32.25 0.181635 -0.951056
      vertex -0.654508 32.4755 -0.587785
      vertex -0.249999 32.1816 -0.951056
    endloop
  endfacet
  facet normal -0.418999 0.418999 -0.805531
    outer loop
      vertex -0.654508 32.4755 -0.587785
      vertex -32.25 0.181635 -0.951056
      vertex -32.6545 0.475528 -0.587785
    endloop
  endfacet
  facet normal -0.577351 -0.187583 -0.794656
    outer loop
      vertex -32.6545 -0.475528 -0.587785
      vertex -32.809 0 -0.587785
      vertex -32.309 0 -0.951056
    endloop
  endfacet
  facet normal -0.908656 0.295267 -0.295232
    outer loop
      vertex -32.6545 0.475528 -0.587785
      vertex -33 0 0
      vertex -32.809 0.587785 0
    endloop
  endfacet
  facet normal 0 0.991228 0.132164
    outer loop
      vertex 0.309016 32.9511 0
      vertex -0.309016 28.9511 30
      vertex 0.309016 28.9511 30
    endloop
  endfacet
  facet normal 0 0.991228 0.132164
    outer loop
      vertex -0.309016 28.9511 30
      vertex 0.309016 32.9511 0
      vertex -0.309016 32.9511 0
    endloop
  endfacet
  facet normal 0 0.955393 -0.295337
    outer loop
      vertex 0.249999 32.7694 -0.587785
      vertex -0.309016 32.9511 0
      vertex 0.309016 32.9511 0
    endloop
  endfacet
  facet normal 0 0.955393 -0.295337
    outer loop
      vertex -0.309016 32.9511 0
      vertex 0.249999 32.7694 -0.587785
      vertex -0.249999 32.7694 -0.587785
    endloop
  endfacet
  facet normal 0.356914 0.491059 0.794653
    outer loop
      vertex 0.654508 28.4755 30.5878
      vertex 0.0954914 28.2939 30.9511
      vertex 0.249999 28.1816 30.9511
    endloop
  endfacet
  facet normal 0.561579 0.772929 0.295311
    outer loop
      vertex 0.309016 28.9511 30
      vertex 0.249999 28.7694 30.5878
      vertex 0.654508 28.4755 30.5878
    endloop
  endfacet
  facet normal 0.584426 -0.804329 0.107244
    outer loop
      vertex 0.309016 -32.9511 0
      vertex 0.809016 -28.5878 30
      vertex 0.309016 -28.9511 30
    endloop
  endfacet
  facet normal 0.584426 -0.804329 0.107244
    outer loop
      vertex 0.809016 -28.5878 30
      vertex 0.309016 -32.9511 0
      vertex 0.809016 -32.5878 0
    endloop
  endfacet
  facet normal 0 -0.607115 0.794614
    outer loop
      vertex -0.0954914 -28.2939 30.9511
      vertex 0.249999 -28.7694 30.5878
      vertex 0.0954914 -28.2939 30.9511
    endloop
  endfacet
  facet normal 0 -0.607115 0.794614
    outer loop
      vertex 0.249999 -28.7694 30.5878
      vertex -0.0954914 -28.2939 30.9511
      vertex -0.249999 -28.7694 30.5878
    endloop
  endfacet
  facet normal -0.356839 -0.491136 -0.794639
    outer loop
      vertex -0.249999 -32.7694 -0.587785
      vertex -0.654508 -32.4755 -0.587785
      vertex -0.0954914 -32.2939 -0.951056
    endloop
  endfacet
  facet normal 0 -0.607085 -0.794637
    outer loop
      vertex 0.249999 -32.7694 -0.587785
      vertex -0.0954914 -32.2939 -0.951056
      vertex 0.0954914 -32.2939 -0.951056
    endloop
  endfacet
  facet normal 0 -0.607085 -0.794637
    outer loop
      vertex -0.0954914 -32.2939 -0.951056
      vertex 0.249999 -32.7694 -0.587785
      vertex -0.249999 -32.7694 -0.587785
    endloop
  endfacet
  facet normal -0.908658 -0.295225 -0.295267
    outer loop
      vertex -32.6545 -0.475528 -0.587785
      vertex -33 0 0
      vertex -32.809 0 -0.587785
    endloop
  endfacet
  facet normal -0.908656 -0.295267 -0.295232
    outer loop
      vertex -32.809 -0.587785 0
      vertex -33 0 0
      vertex -32.6545 -0.475528 -0.587785
    endloop
  endfacet
  facet normal 0.577411 0.187559 0.794618
    outer loop
      vertex 28.6545 0.475528 30.5878
      vertex 28.25 0.181635 30.9511
      vertex 28.309 0 30.9511
    endloop
  endfacet
  facet normal 0.57738 0.187592 0.794633
    outer loop
      vertex 28.6545 0.475528 30.5878
      vertex 28.309 0 30.9511
      vertex 28.809 0 30.5878
    endloop
  endfacet
  facet normal 0 0.607115 0.794614
    outer loop
      vertex 0.249999 28.7694 30.5878
      vertex -0.0954914 28.2939 30.9511
      vertex 0.0954914 28.2939 30.9511
    endloop
  endfacet
  facet normal 0 0.607115 0.794614
    outer loop
      vertex -0.0954914 28.2939 30.9511
      vertex 0.249999 28.7694 30.5878
      vertex -0.249999 28.7694 30.5878
    endloop
  endfacet
  facet normal 0.356857 0.49116 0.794616
    outer loop
      vertex 0.249999 28.7694 30.5878
      vertex 0.0954914 28.2939 30.9511
      vertex 0.654508 28.4755 30.5878
    endloop
  endfacet
  facet normal -0.356914 0.491059 0.794653
    outer loop
      vertex -0.0954914 28.2939 30.9511
      vertex -0.654508 28.4755 30.5878
      vertex -0.249999 28.1816 30.9511
    endloop
  endfacet
  facet normal 0.561604 -0.77292 0.29529
    outer loop
      vertex 0.654508 -28.4755 30.5878
      vertex 0.309016 -28.9511 30
      vertex 0.809016 -28.5878 30
    endloop
  endfacet
  facet normal 0.561579 -0.772929 0.295311
    outer loop
      vertex 0.654508 -28.4755 30.5878
      vertex 0.249999 -28.7694 30.5878
      vertex 0.309016 -28.9511 30
    endloop
  endfacet
  facet normal -0.707107 -0.707106 0
    outer loop
      vertex 12.8374 5.54741 0
      vertex 18.3848 0 29
      vertex 12.8374 5.54741 29
    endloop
  endfacet
  facet normal -0.707107 -0.707106 -0
    outer loop
      vertex 18.3848 0 29
      vertex 12.8374 5.54741 0
      vertex 18.3848 0 0
    endloop
  endfacet
  facet normal -0.707108 -0.707106 0
    outer loop
      vertex 5.66688 12.7179 0
      vertex 0 18.3848 29
      vertex 0 18.3848 0
    endloop
  endfacet
  facet normal -0.707108 -0.707106 0
    outer loop
      vertex 0 18.3848 29
      vertex 5.66688 12.7179 0
      vertex 5.66688 12.7179 29
    endloop
  endfacet
  facet normal -0 0 -1
    outer loop
      vertex 18.3848 0 29
      vertex 13.6941 -2.91076 29
      vertex 14 0 29
    endloop
  endfacet
  facet normal 0 -0 -1
    outer loop
      vertex 13.6941 -2.91076 29
      vertex 18.3848 0 29
      vertex 12.8374 -5.54741 29
    endloop
  endfacet
  facet normal 0 0 -1
    outer loop
      vertex 13.6941 2.91076 29
      vertex 18.3848 0 29
      vertex 14 0 29
    endloop
  endfacet
  facet normal 0 0 -1
    outer loop
      vertex 18.3848 0 29
      vertex 13.6941 2.91076 29
      vertex 12.8374 5.54741 29
    endloop
  endfacet
  facet normal 0 0 -1
    outer loop
      vertex 0 -18.3848 29
      vertex 4.32624 -13.3148 29
      vertex 5.66688 -12.7179 29
    endloop
  endfacet
  facet normal 0 0 -1
    outer loop
      vertex 0 -18.3848 29
      vertex 1.4634 -13.9233 29
      vertex 4.32624 -13.3148 29
    endloop
  endfacet
  facet normal 0 0 -1
    outer loop
      vertex 0 -18.3848 29
      vertex -1.4634 -13.9233 29
      vertex 1.4634 -13.9233 29
    endloop
  endfacet
  facet normal 0 0 -1
    outer loop
      vertex 0 -18.3848 29
      vertex -4.32624 -13.3148 29
      vertex -1.4634 -13.9233 29
    endloop
  endfacet
  facet normal -0 -0 -1
    outer loop
      vertex -4.32624 -13.3148 29
      vertex 0 -18.3848 29
      vertex -5.66688 -12.7179 29
    endloop
  endfacet
  facet normal 0 0 -1
    outer loop
      vertex 4.32624 13.3148 29
      vertex 0 18.3848 29
      vertex 5.66688 12.7179 29
    endloop
  endfacet
  facet normal 0 0 -1
    outer loop
      vertex 1.4634 13.9233 29
      vertex 0 18.3848 29
      vertex 4.32624 13.3148 29
    endloop
  endfacet
  facet normal 0 0 -1
    outer loop
      vertex -1.4634 13.9233 29
      vertex 0 18.3848 29
      vertex 1.4634 13.9233 29
    endloop
  endfacet
  facet normal 0 0 -1
    outer loop
      vertex -4.32624 13.3148 29
      vertex 0 18.3848 29
      vertex -1.4634 13.9233 29
    endloop
  endfacet
  facet normal 0 0 -1
    outer loop
      vertex 0 18.3848 29
      vertex -4.32624 13.3148 29
      vertex -5.66688 12.7179 29
    endloop
  endfacet
  facet normal 0 0 -1
    outer loop
      vertex -13.6941 -2.91076 29
      vertex -18.3848 0 29
      vertex -14 0 29
    endloop
  endfacet
  facet normal 0 0 -1
    outer loop
      vertex -18.3848 0 29
      vertex -13.6941 -2.91076 29
      vertex -12.8374 -5.54741 29
    endloop
  endfacet
  facet normal -0 0 -1
    outer loop
      vertex -13.6941 2.91076 29
      vertex -18.3848 0 29
      vertex -12.8374 5.54741 29
    endloop
  endfacet
  facet normal 0 0 -1
    outer loop
      vertex -18.3848 0 29
      vertex -13.6941 2.91076 29
      vertex -14 0 29
    endloop
  endfacet
  facet normal 0.707108 -0.707106 0
    outer loop
      vertex -5.66688 12.7179 29
      vertex 0 18.3848 0
      vertex 0 18.3848 29
    endloop
  endfacet
  facet normal 0.707108 -0.707106 0
    outer loop
      vertex 0 18.3848 0
      vertex -5.66688 12.7179 29
      vertex -5.66688 12.7179 0
    endloop
  endfacet
  facet normal 0.707107 -0.707106 0
    outer loop
      vertex -18.3848 0 0
      vertex -12.8374 5.54741 29
      vertex -18.3848 0 29
    endloop
  endfacet
  facet normal 0.707107 -0.707106 0
    outer loop
      vertex -12.8374 5.54741 29
      vertex -18.3848 0 0
      vertex -12.8374 5.54741 0
    endloop
  endfacet
  facet normal 0.707108 0.707106 0
    outer loop
      vertex 0 -18.3848 29
      vertex -5.66688 -12.7179 0
      vertex -5.66688 -12.7179 29
    endloop
  endfacet
  facet normal 0.707108 0.707106 0
    outer loop
      vertex -5.66688 -12.7179 0
      vertex 0 -18.3848 29
      vertex 0 -18.3848 0
    endloop
  endfacet
  facet normal 0.707107 0.707106 -0
    outer loop
      vertex -12.8374 -5.54741 0
      vertex -18.3848 0 29
      vertex -12.8374 -5.54741 29
    endloop
  endfacet
  facet normal 0.707107 0.707106 0
    outer loop
      vertex -18.3848 0 29
      vertex -12.8374 -5.54741 0
      vertex -18.3848 0 0
    endloop
  endfacet
  facet normal 0 0 1
    outer loop
      vertex 12.8374 5.54741 0
      vertex 12.8374 -5.54741 0
      vertex 18.3848 0 0
    endloop
  endfacet
  facet normal 0 0 1
    outer loop
      vertex 11.3262 8.22899 0
      vertex 12.8374 5.54741 0
      vertex 12.7896 5.69431 0
    endloop
  endfacet
  facet normal 0 0 1
    outer loop
      vertex 5.66688 12.7179 0
      vertex 12.8374 5.54741 0
      vertex 11.3262 8.22899 0
    endloop
  endfacet
  facet normal 0 0 1
    outer loop
      vertex 12.8374 5.54741 0
      vertex 5.66688 12.7179 0
      vertex 12.8374 -5.54741 0
    endloop
  endfacet
  facet normal 0 0 1
    outer loop
      vertex 12.8374 -5.54741 0
      vertex 11.3262 -8.22899 0
      vertex 12.7896 -5.69431 0
    endloop
  endfacet
  facet normal 0 0 1
    outer loop
      vertex 5.66688 12.7179 0
      vertex 11.3262 8.22899 0
      vertex 9.36783 10.404 0
    endloop
  endfacet
  facet normal 0 0 1
    outer loop
      vertex 5.66688 -12.7179 0
      vertex 12.8374 -5.54741 0
      vertex 5.66688 12.7179 0
    endloop
  endfacet
  facet normal 0 0 1
    outer loop
      vertex 5.66688 12.7179 0
      vertex 9.36783 10.404 0
      vertex 7 12.1244 0
    endloop
  endfacet
  facet normal 0 0 1
    outer loop
      vertex 12.8374 -5.54741 0
      vertex 5.66688 -12.7179 0
      vertex 11.3262 -8.22899 0
    endloop
  endfacet
  facet normal 0 0 1
    outer loop
      vertex 11.3262 -8.22899 0
      vertex 5.66688 -12.7179 0
      vertex 9.36783 -10.404 0
    endloop
  endfacet
  facet normal 0 0 1
    outer loop
      vertex 9.36783 -10.404 0
      vertex 5.66688 -12.7179 0
      vertex 7 -12.1244 0
    endloop
  endfacet
  facet normal 0 0 1
    outer loop
      vertex -5.66688 12.7179 0
      vertex 5.66688 12.7179 0
      vertex 0 18.3848 0
    endloop
  endfacet
  facet normal 0 0 1
    outer loop
      vertex 5.66688 12.7179 0
      vertex -5.66688 12.7179 0
      vertex 5.66688 -12.7179 0
    endloop
  endfacet
  facet normal 0 0 1
    outer loop
      vertex -5.66688 -12.7179 0
      vertex 5.66688 -12.7179 0
      vertex -5.66688 12.7179 0
    endloop
  endfacet
  facet normal 0 0 1
    outer loop
      vertex 5.66688 -12.7179 0
      vertex -5.66688 -12.7179 0
      vertex 0 -18.3848 0
    endloop
  endfacet
  facet normal 0 0 1
    outer loop
      vertex -9.36783 10.404 0
      vertex -5.66688 12.7179 0
      vertex -7 12.1244 0
    endloop
  endfacet
  facet normal 0 0 1
    outer loop
      vertex -11.3262 8.22899 0
      vertex -5.66688 12.7179 0
      vertex -9.36783 10.404 0
    endloop
  endfacet
  facet normal 0 0 1
    outer loop
      vertex -12.8374 5.54741 0
      vertex -5.66688 12.7179 0
      vertex -11.3262 8.22899 0
    endloop
  endfacet
  facet normal 0 0 1
    outer loop
      vertex -5.66688 -12.7179 0
      vertex -9.36783 -10.404 0
      vertex -7 -12.1244 0
    endloop
  endfacet
  facet normal 0 0 1
    outer loop
      vertex -5.66688 12.7179 0
      vertex -12.8374 5.54741 0
      vertex -5.66688 -12.7179 0
    endloop
  endfacet
  facet normal 0 0 1
    outer loop
      vertex -5.66688 -12.7179 0
      vertex -11.3262 -8.22899 0
      vertex -9.36783 -10.404 0
    endloop
  endfacet
  facet normal 0 0 1
    outer loop
      vertex -12.8374 5.54741 0
      vertex -11.3262 8.22899 0
      vertex -12.7896 5.69431 0
    endloop
  endfacet
  facet normal -0 0 1
    outer loop
      vertex -12.8374 -5.54741 0
      vertex -5.66688 -12.7179 0
      vertex -12.8374 5.54741 0
    endloop
  endfacet
  facet normal 0 0 1
    outer loop
      vertex -5.66688 -12.7179 0
      vertex -12.8374 -5.54741 0
      vertex -11.3262 -8.22899 0
    endloop
  endfacet
  facet normal 0 0 1
    outer loop
      vertex -11.3262 -8.22899 0
      vertex -12.8374 -5.54741 0
      vertex -12.7896 -5.69431 0
    endloop
  endfacet
  facet normal 0 -0 1
    outer loop
      vertex -12.8374 -5.54741 0
      vertex -12.8374 5.54741 0
      vertex -18.3848 0 0
    endloop
  endfacet
  facet normal -0.707107 0.707106 0
    outer loop
      vertex 18.3848 0 0
      vertex 12.8374 -5.54741 29
      vertex 18.3848 0 29
    endloop
  endfacet
  facet normal -0.707107 0.707106 0
    outer loop
      vertex 12.8374 -5.54741 29
      vertex 18.3848 0 0
      vertex 12.8374 -5.54741 0
    endloop
  endfacet
  facet normal -0.707108 0.707106 0
    outer loop
      vertex 0 -18.3848 0
      vertex 5.66688 -12.7179 29
      vertex 5.66688 -12.7179 0
    endloop
  endfacet
  facet normal -0.707108 0.707106 0
    outer loop
      vertex 5.66688 -12.7179 29
      vertex 0 -18.3848 0
      vertex 0 -18.3848 29
    endloop
  endfacet
  facet normal -0.994523 -0.104517 0
    outer loop
      vertex 14 0 29
      vertex 13.6941 2.91076 30.9511
      vertex 13.6941 2.91076 29
    endloop
  endfacet
  facet normal -0.994523 -0.104517 0
    outer loop
      vertex 13.6941 2.91076 30.9511
      vertex 14 0 29
      vertex 14 0 30.9511
    endloop
  endfacet
  facet normal 0.994523 -0.104517 0
    outer loop
      vertex -14 0 30.9511
      vertex -13.6941 2.91076 29
      vertex -13.6941 2.91076 30.9511
    endloop
  endfacet
  facet normal 0.994523 -0.104517 0
    outer loop
      vertex -13.6941 2.91076 29
      vertex -14 0 30.9511
      vertex -14 0 29
    endloop
  endfacet
  facet normal 0 -1 0
    outer loop
      vertex -1.4634 13.9233 29
      vertex 1.4634 13.9233 30.9511
      vertex -1.4634 13.9233 30.9511
    endloop
  endfacet
  facet normal 0 -1 -0
    outer loop
      vertex 1.4634 13.9233 30.9511
      vertex -1.4634 13.9233 29
      vertex 1.4634 13.9233 29
    endloop
  endfacet
  facet normal 0 1 -0
    outer loop
      vertex 1.4634 -13.9233 29
      vertex -1.4634 -13.9233 30.9511
      vertex 1.4634 -13.9233 30.9511
    endloop
  endfacet
  facet normal 0 1 0
    outer loop
      vertex -1.4634 -13.9233 30.9511
      vertex 1.4634 -13.9233 29
      vertex -1.4634 -13.9233 29
    endloop
  endfacet
  facet normal -0.587801 -0.809005 0
    outer loop
      vertex 7 12.1244 0
      vertex 9.36783 10.404 30.9511
      vertex 7 12.1244 30.9511
    endloop
  endfacet
  facet normal -0.587801 -0.809005 -0
    outer loop
      vertex 9.36783 10.404 30.9511
      vertex 7 12.1244 0
      vertex 9.36783 10.404 0
    endloop
  endfacet
  facet normal 0.743148 -0.669127 0
    outer loop
      vertex -11.3262 8.22899 30.9511
      vertex -9.36783 10.404 0
      vertex -9.36783 10.404 30.9511
    endloop
  endfacet
  facet normal 0.743148 -0.669127 0
    outer loop
      vertex -9.36783 10.404 0
      vertex -11.3262 8.22899 30.9511
      vertex -11.3262 8.22899 0
    endloop
  endfacet
  facet normal 0.406727 -0.91355 1.21686e-05
    outer loop
      vertex -7 12.1244 30.9511
      vertex -5.66688 12.7179 29
      vertex -4.32624 13.3148 30.9511
    endloop
  endfacet
  facet normal 0.406712 -0.913556 0
    outer loop
      vertex -7 12.1244 0
      vertex -5.66688 12.7179 29
      vertex -7 12.1244 30.9511
    endloop
  endfacet
  facet normal 0.406712 -0.913556 0
    outer loop
      vertex -5.66688 12.7179 29
      vertex -7 12.1244 0
      vertex -5.66688 12.7179 0
    endloop
  endfacet
  facet normal 0.406742 -0.913543 0
    outer loop
      vertex -4.32624 13.3148 30.9511
      vertex -5.66688 12.7179 29
      vertex -4.32624 13.3148 29
    endloop
  endfacet
  facet normal -0.950925 0.309423 0
    outer loop
      vertex 12.8374 -5.54741 0
      vertex 12.7896 -5.69431 0
      vertex 12.8374 -5.54741 29
    endloop
  endfacet
  facet normal -0.951056 0.309017 0
    outer loop
      vertex 12.8374 -5.54741 29
      vertex 13.6941 -2.91076 30.9511
      vertex 13.6941 -2.91076 29
    endloop
  endfacet
  facet normal -0.95105 0.309039 -3.19831e-05
    outer loop
      vertex 12.8374 -5.54741 29
      vertex 12.7896 -5.69431 30.9511
      vertex 13.6941 -2.91076 30.9511
    endloop
  endfacet
  facet normal -0.950925 0.309423 0
    outer loop
      vertex 12.7896 -5.69431 30.9511
      vertex 12.8374 -5.54741 29
      vertex 12.7896 -5.69431 0
    endloop
  endfacet
  facet normal -0.866025 -0.5 0
    outer loop
      vertex 12.7896 5.69431 0
      vertex 11.3262 8.22899 30.9511
      vertex 11.3262 8.22899 0
    endloop
  endfacet
  facet normal -0.866025 -0.5 0
    outer loop
      vertex 11.3262 8.22899 30.9511
      vertex 12.7896 5.69431 0
      vertex 12.7896 5.69431 30.9511
    endloop
  endfacet
  facet normal -0.950925 -0.309423 -0
    outer loop
      vertex 12.8374 5.54741 29
      vertex 12.7896 5.69431 0
      vertex 12.8374 5.54741 0
    endloop
  endfacet
  facet normal -0.950925 -0.309423 0
    outer loop
      vertex 12.7896 5.69431 0
      vertex 12.8374 5.54741 29
      vertex 12.7896 5.69431 30.9511
    endloop
  endfacet
  facet normal -0.951056 -0.309017 -0
    outer loop
      vertex 13.6941 2.91076 30.9511
      vertex 12.8374 5.54741 29
      vertex 13.6941 2.91076 29
    endloop
  endfacet
  facet normal -0.95105 -0.309039 -3.19831e-05
    outer loop
      vertex 12.8374 5.54741 29
      vertex 13.6941 2.91076 30.9511
      vertex 12.7896 5.69431 30.9511
    endloop
  endfacet
  facet normal -0.743148 -0.669127 0
    outer loop
      vertex 11.3262 8.22899 0
      vertex 9.36783 10.404 30.9511
      vertex 9.36783 10.404 0
    endloop
  endfacet
  facet normal -0.743148 -0.669127 0
    outer loop
      vertex 9.36783 10.404 30.9511
      vertex 11.3262 8.22899 0
      vertex 11.3262 8.22899 30.9511
    endloop
  endfacet
  facet normal -0.207907 -0.978149 0
    outer loop
      vertex 1.4634 13.9233 29
      vertex 4.32624 13.3148 30.9511
      vertex 1.4634 13.9233 30.9511
    endloop
  endfacet
  facet normal -0.207907 -0.978149 -0
    outer loop
      vertex 4.32624 13.3148 30.9511
      vertex 1.4634 13.9233 29
      vertex 4.32624 13.3148 29
    endloop
  endfacet
  facet normal -0.406742 -0.913543 0
    outer loop
      vertex 5.66688 12.7179 29
      vertex 4.32624 13.3148 30.9511
      vertex 4.32624 13.3148 29
    endloop
  endfacet
  facet normal -0.406727 -0.91355 1.21686e-05
    outer loop
      vertex 4.32624 13.3148 30.9511
      vertex 5.66688 12.7179 29
      vertex 7 12.1244 30.9511
    endloop
  endfacet
  facet normal -0.406712 -0.913556 0
    outer loop
      vertex 7 12.1244 0
      vertex 5.66688 12.7179 29
      vertex 5.66688 12.7179 0
    endloop
  endfacet
  facet normal -0.406712 -0.913556 0
    outer loop
      vertex 5.66688 12.7179 29
      vertex 7 12.1244 0
      vertex 7 12.1244 30.9511
    endloop
  endfacet
  facet normal 0.866025 -0.5 0
    outer loop
      vertex -12.7896 5.69431 30.9511
      vertex -11.3262 8.22899 0
      vertex -11.3262 8.22899 30.9511
    endloop
  endfacet
  facet normal 0.866025 -0.5 0
    outer loop
      vertex -11.3262 8.22899 0
      vertex -12.7896 5.69431 30.9511
      vertex -12.7896 5.69431 0
    endloop
  endfacet
  facet normal 0.950925 -0.309423 0
    outer loop
      vertex -12.7896 5.69431 30.9511
      vertex -12.8374 5.54741 29
      vertex -12.7896 5.69431 0
    endloop
  endfacet
  facet normal 0.95105 -0.309039 -3.19831e-05
    outer loop
      vertex -13.6941 2.91076 30.9511
      vertex -12.8374 5.54741 29
      vertex -12.7896 5.69431 30.9511
    endloop
  endfacet
  facet normal 0.951056 -0.309017 0
    outer loop
      vertex -12.8374 5.54741 29
      vertex -13.6941 2.91076 30.9511
      vertex -13.6941 2.91076 29
    endloop
  endfacet
  facet normal 0.950925 -0.309423 0
    outer loop
      vertex -12.7896 5.69431 0
      vertex -12.8374 5.54741 29
      vertex -12.8374 5.54741 0
    endloop
  endfacet
  facet normal 0.587801 -0.809005 0
    outer loop
      vertex -9.36783 10.404 0
      vertex -7 12.1244 30.9511
      vertex -9.36783 10.404 30.9511
    endloop
  endfacet
  facet normal 0.587801 -0.809005 0
    outer loop
      vertex -7 12.1244 30.9511
      vertex -9.36783 10.404 0
      vertex -7 12.1244 0
    endloop
  endfacet
  facet normal 0.207907 -0.978149 0
    outer loop
      vertex -4.32624 13.3148 29
      vertex -1.4634 13.9233 30.9511
      vertex -4.32624 13.3148 30.9511
    endloop
  endfacet
  facet normal 0.207907 -0.978149 0
    outer loop
      vertex -1.4634 13.9233 30.9511
      vertex -4.32624 13.3148 29
      vertex -1.4634 13.9233 29
    endloop
  endfacet
  facet normal -0.994523 0.104517 0
    outer loop
      vertex 13.6941 -2.91076 29
      vertex 14 0 30.9511
      vertex 14 0 29
    endloop
  endfacet
  facet normal -0.994523 0.104517 0
    outer loop
      vertex 14 0 30.9511
      vertex 13.6941 -2.91076 29
      vertex 13.6941 -2.91076 30.9511
    endloop
  endfacet
  facet normal -0.866025 0.5 0
    outer loop
      vertex 11.3262 -8.22899 0
      vertex 12.7896 -5.69431 30.9511
      vertex 12.7896 -5.69431 0
    endloop
  endfacet
  facet normal -0.866025 0.5 0
    outer loop
      vertex 12.7896 -5.69431 30.9511
      vertex 11.3262 -8.22899 0
      vertex 11.3262 -8.22899 30.9511
    endloop
  endfacet
  facet normal -0.587801 0.809005 0
    outer loop
      vertex 9.36783 -10.404 0
      vertex 7 -12.1244 30.9511
      vertex 9.36783 -10.404 30.9511
    endloop
  endfacet
  facet normal -0.587801 0.809005 0
    outer loop
      vertex 7 -12.1244 30.9511
      vertex 9.36783 -10.404 0
      vertex 7 -12.1244 0
    endloop
  endfacet
  facet normal 0.207907 0.978149 -0
    outer loop
      vertex -1.4634 -13.9233 29
      vertex -4.32624 -13.3148 30.9511
      vertex -1.4634 -13.9233 30.9511
    endloop
  endfacet
  facet normal 0.207907 0.978149 0
    outer loop
      vertex -4.32624 -13.3148 30.9511
      vertex -1.4634 -13.9233 29
      vertex -4.32624 -13.3148 29
    endloop
  endfacet
  facet normal 0.743148 0.669127 0
    outer loop
      vertex -9.36783 -10.404 30.9511
      vertex -11.3262 -8.22899 0
      vertex -11.3262 -8.22899 30.9511
    endloop
  endfacet
  facet normal 0.743148 0.669127 0
    outer loop
      vertex -11.3262 -8.22899 0
      vertex -9.36783 -10.404 30.9511
      vertex -9.36783 -10.404 0
    endloop
  endfacet
  facet normal 0.866025 0.5 0
    outer loop
      vertex -11.3262 -8.22899 30.9511
      vertex -12.7896 -5.69431 0
      vertex -12.7896 -5.69431 30.9511
    endloop
  endfacet
  facet normal 0.866025 0.5 0
    outer loop
      vertex -12.7896 -5.69431 0
      vertex -11.3262 -8.22899 30.9511
      vertex -11.3262 -8.22899 0
    endloop
  endfacet
  facet normal 0.951056 0.309017 0
    outer loop
      vertex -13.6941 -2.91076 30.9511
      vertex -12.8374 -5.54741 29
      vertex -13.6941 -2.91076 29
    endloop
  endfacet
  facet normal 0.95105 0.309039 -3.19831e-05
    outer loop
      vertex -12.7896 -5.69431 30.9511
      vertex -12.8374 -5.54741 29
      vertex -13.6941 -2.91076 30.9511
    endloop
  endfacet
  facet normal 0.950925 0.309423 -0
    outer loop
      vertex -12.7896 -5.69431 0
      vertex -12.8374 -5.54741 29
      vertex -12.7896 -5.69431 30.9511
    endloop
  endfacet
  facet normal 0.950925 0.309423 0
    outer loop
      vertex -12.8374 -5.54741 29
      vertex -12.7896 -5.69431 0
      vertex -12.8374 -5.54741 0
    endloop
  endfacet
  facet normal 0.994523 0.104517 0
    outer loop
      vertex -13.6941 -2.91076 30.9511
      vertex -14 0 29
      vertex -14 0 30.9511
    endloop
  endfacet
  facet normal 0.994523 0.104517 0
    outer loop
      vertex -14 0 29
      vertex -13.6941 -2.91076 30.9511
      vertex -13.6941 -2.91076 29
    endloop
  endfacet
  facet normal -0.406727 0.91355 1.21686e-05
    outer loop
      vertex 7 -12.1244 30.9511
      vertex 5.66688 -12.7179 29
      vertex 4.32624 -13.3148 30.9511
    endloop
  endfacet
  facet normal -0.406712 0.913556 0
    outer loop
      vertex 7 -12.1244 0
      vertex 5.66688 -12.7179 29
      vertex 7 -12.1244 30.9511
    endloop
  endfacet
  facet normal -0.406712 0.913556 0
    outer loop
      vertex 5.66688 -12.7179 29
      vertex 7 -12.1244 0
      vertex 5.66688 -12.7179 0
    endloop
  endfacet
  facet normal -0.406742 0.913543 0
    outer loop
      vertex 4.32624 -13.3148 30.9511
      vertex 5.66688 -12.7179 29
      vertex 4.32624 -13.3148 29
    endloop
  endfacet
  facet normal -0.207907 0.978149 0
    outer loop
      vertex 4.32624 -13.3148 29
      vertex 1.4634 -13.9233 30.9511
      vertex 4.32624 -13.3148 30.9511
    endloop
  endfacet
  facet normal -0.207907 0.978149 0
    outer loop
      vertex 1.4634 -13.9233 30.9511
      vertex 4.32624 -13.3148 29
      vertex 1.4634 -13.9233 29
    endloop
  endfacet
  facet normal -0.743148 0.669127 0
    outer loop
      vertex 9.36783 -10.404 0
      vertex 11.3262 -8.22899 30.9511
      vertex 11.3262 -8.22899 0
    endloop
  endfacet
  facet normal -0.743148 0.669127 0
    outer loop
      vertex 11.3262 -8.22899 30.9511
      vertex 9.36783 -10.404 0
      vertex 9.36783 -10.404 30.9511
    endloop
  endfacet
  facet normal 0.406742 0.913543 0
    outer loop
      vertex -5.66688 -12.7179 29
      vertex -4.32624 -13.3148 30.9511
      vertex -4.32624 -13.3148 29
    endloop
  endfacet
  facet normal 0.406727 0.91355 1.21686e-05
    outer loop
      vertex -4.32624 -13.3148 30.9511
      vertex -5.66688 -12.7179 29
      vertex -7 -12.1244 30.9511
    endloop
  endfacet
  facet normal 0.406712 0.913556 0
    outer loop
      vertex -7 -12.1244 0
      vertex -5.66688 -12.7179 29
      vertex -5.66688 -12.7179 0
    endloop
  endfacet
  facet normal 0.406712 0.913556 0
    outer loop
      vertex -5.66688 -12.7179 29
      vertex -7 -12.1244 0
      vertex -7 -12.1244 30.9511
    endloop
  endfacet
  facet normal 0.587801 0.809005 -0
    outer loop
      vertex -7 -12.1244 0
      vertex -9.36783 -10.404 30.9511
      vertex -7 -12.1244 30.9511
    endloop
  endfacet
  facet normal 0.587801 0.809005 0
    outer loop
      vertex -9.36783 -10.404 30.9511
      vertex -7 -12.1244 0
      vertex -9.36783 -10.404 0
    endloop
  endfacet
endsolid OpenSCAD_Model
