<?xml version="1.0" encoding="UTF-8" standalone="no"?>
<!DOCTYPE svg PUBLIC "-//W3C//DTD SVG 20010904//EN"
              "http://www.w3.org/TR/2001/REC-SVG-20010904/DTD/svg10.dtd">

<svg xmlns="http://www.w3.org/2000/svg"
     width="10.6667in" height="14.2222in"
     viewBox="0 0 768 1024">
  <path id="Selection"
        fill="none" stroke="black" stroke-width="1"
        d="M 394.66,325.42
           C 410.42,344.89 432.11,377.21 445.54,398.72
             474.71,445.42 498.20,486.89 521.31,537.00
             521.31,537.00 544.26,593.00 544.26,593.00
             546.40,598.59 552.40,613.47 551.74,619.00
             551.04,624.85 544.35,631.78 540.54,636.09
             540.54,636.09 510.00,669.21 510.00,669.21
             506.77,672.43 498.05,682.65 493.22,681.27
             488.35,679.87 489.04,669.90 489.00,666.00
             489.00,666.00 487.96,656.00 487.96,656.00
             487.96,656.00 487.96,647.00 487.96,647.00
             485.46,622.22 476.42,591.81 459.56,573.09
             451.72,564.38 440.63,555.16 430.00,550.12
             417.69,544.29 401.59,541.02 388.00,541.00
             357.15,540.95 330.60,549.96 310.15,574.28
             293.59,593.99 284.59,623.66 281.96,649.00
             281.96,649.00 281.96,660.28 281.96,660.28
             281.96,660.28 281.00,670.00 281.00,670.00
             280.96,673.88 282.03,682.48 276.88,683.46
             271.52,684.48 262.92,674.76 259.61,671.09
             259.61,671.09 246.28,657.83 246.28,657.83
             246.28,657.83 236.25,646.09 236.25,646.09
             236.25,646.09 226.79,635.91 226.79,635.91
             223.02,631.46 216.58,624.89 216.12,619.00
             215.79,614.70 219.64,603.50 221.17,599.00
             221.17,599.00 239.58,553.00 239.58,553.00
             255.43,516.40 273.45,480.70 293.43,446.17
             293.43,446.17 317.53,406.00 317.53,406.00
             317.53,406.00 333.14,382.00 333.14,382.00
             333.14,382.00 367.63,333.00 367.63,333.00
             373.36,325.36 376.77,318.04 387.00,317.00
             387.00,317.00 394.66,325.42 394.66,325.42 Z" />
</svg>
