solid OpenSCAD_Model
  facet normal -1 0 0
    outer loop
      vertex -4 12.35 3
      vertex -4 54.5 5
      vertex -4 54.5 3
    endloop
  endfacet
  facet normal -1 -0 0
    outer loop
      vertex -4 54.5 5
      vertex -4 12.35 3
      vertex -4 12.35 5
    endloop
  endfacet
  facet normal 0 1 -0
    outer loop
      vertex 54.5 59.5 3
      vertex 1 59.5 5
      vertex 54.5 59.5 5
    endloop
  endfacet
  facet normal 0 1 0
    outer loop
      vertex 1 59.5 5
      vertex 54.5 59.5 3
      vertex 1 59.5 3
    endloop
  endfacet
  facet normal -0.891 0.454002 0
    outer loop
      vertex -3.75528 56.0451 3
      vertex -3.04508 57.4389 5
      vertex -3.04508 57.4389 3
    endloop
  endfacet
  facet normal -0.891 0.454002 0
    outer loop
      vertex -3.04508 57.4389 5
      vertex -3.75528 56.0451 3
      vertex -3.75528 56.0451 5
    endloop
  endfacet
  facet normal 1 -0 0
    outer loop
      vertex 59.5 1 5
      vertex 59.5 54.5 3
      vertex 59.5 54.5 5
    endloop
  endfacet
  facet normal 1 0 0
    outer loop
      vertex 59.5 54.5 3
      vertex 59.5 1 5
      vertex 59.5 1 3
    endloop
  endfacet
  facet normal 0.156435 -0.987688 0
    outer loop
      vertex 54.5 -4 3
      vertex 56.0451 -3.75528 5
      vertex 54.5 -4 5
    endloop
  endfacet
  facet normal 0.156435 -0.987688 0
    outer loop
      vertex 56.0451 -3.75528 5
      vertex 54.5 -4 3
      vertex 56.0451 -3.75528 3
    endloop
  endfacet
  facet normal 0.98769 0.156422 0
    outer loop
      vertex 59.5 54.5 5
      vertex 59.2553 56.0451 3
      vertex 59.2553 56.0451 5
    endloop
  endfacet
  facet normal 0.98769 0.156422 0
    outer loop
      vertex 59.2553 56.0451 3
      vertex 59.5 54.5 5
      vertex 59.5 54.5 3
    endloop
  endfacet
  facet normal 0.707091 -0.707123 0
    outer loop
      vertex 57.4389 -3.04508 5
      vertex 58.5451 -1.93893 3
      vertex 58.5451 -1.93893 5
    endloop
  endfacet
  facet normal 0.707091 -0.707123 0
    outer loop
      vertex 58.5451 -1.93893 3
      vertex 57.4389 -3.04508 5
      vertex 57.4389 -3.04508 3
    endloop
  endfacet
  facet normal 0.707107 0.707107 0
    outer loop
      vertex 58.5451 57.4389 5
      vertex 57.4389 58.5451 3
      vertex 57.4389 58.5451 5
    endloop
  endfacet
  facet normal 0.707107 0.707107 0
    outer loop
      vertex 57.4389 58.5451 3
      vertex 58.5451 57.4389 5
      vertex 58.5451 57.4389 3
    endloop
  endfacet
  facet normal 0.98769 -0.156424 0
    outer loop
      vertex 59.2553 -0.545085 5
      vertex 59.5 1 3
      vertex 59.5 1 5
    endloop
  endfacet
  facet normal 0.98769 -0.156424 0
    outer loop
      vertex 59.5 1 3
      vertex 59.2553 -0.545085 5
      vertex 59.2553 -0.545085 3
    endloop
  endfacet
  facet normal 0.454002 -0.891 0
    outer loop
      vertex 56.0451 -3.75528 3
      vertex 57.4389 -3.04508 5
      vertex 56.0451 -3.75528 5
    endloop
  endfacet
  facet normal 0.454002 -0.891 0
    outer loop
      vertex 57.4389 -3.04508 5
      vertex 56.0451 -3.75528 3
      vertex 57.4389 -3.04508 3
    endloop
  endfacet
  facet normal -0.707123 0.707091 0
    outer loop
      vertex -3.04508 57.4389 3
      vertex -1.93893 58.5451 5
      vertex -1.93893 58.5451 3
    endloop
  endfacet
  facet normal -0.707123 0.707091 0
    outer loop
      vertex -1.93893 58.5451 5
      vertex -3.04508 57.4389 3
      vertex -3.04508 57.4389 5
    endloop
  endfacet
  facet normal 0 0 1
    outer loop
      vertex 54.5 59.5 5
      vertex 59.5 54.5 5
      vertex 59.2553 56.0451 5
    endloop
  endfacet
  facet normal 0 0 1
    outer loop
      vertex 59.5 54.5 5
      vertex 11.3951 10.2889 5
      vertex 59.5 1 5
    endloop
  endfacet
  facet normal 0 0 1
    outer loop
      vertex 54.5 59.5 5
      vertex 59.2553 56.0451 5
      vertex 58.5451 57.4389 5
    endloop
  endfacet
  facet normal 0 0 1
    outer loop
      vertex 59.5 54.5 5
      vertex 54.5 59.5 5
      vertex 11.3951 10.2889 5
    endloop
  endfacet
  facet normal 0 0 1
    outer loop
      vertex 54.5 59.5 5
      vertex 58.5451 57.4389 5
      vertex 57.4389 58.5451 5
    endloop
  endfacet
  facet normal -0 -0 1
    outer loop
      vertex 12.1053 8.89508 5
      vertex 59.5 1 5
      vertex 11.3951 10.2889 5
    endloop
  endfacet
  facet normal 0 0 1
    outer loop
      vertex 54.5 59.5 5
      vertex 57.4389 58.5451 5
      vertex 56.0451 59.2553 5
    endloop
  endfacet
  facet normal 0 0 1
    outer loop
      vertex 59.2553 -0.545085 5
      vertex 54.5 -4 5
      vertex 58.5451 -1.93893 5
    endloop
  endfacet
  facet normal 0 0 1
    outer loop
      vertex 58.5451 -1.93893 5
      vertex 54.5 -4 5
      vertex 57.4389 -3.04508 5
    endloop
  endfacet
  facet normal 0 0 1
    outer loop
      vertex 57.4389 -3.04508 5
      vertex 54.5 -4 5
      vertex 56.0451 -3.75528 5
    endloop
  endfacet
  facet normal 0 -0 1
    outer loop
      vertex 54.5 -4 5
      vertex 59.5 1 5
      vertex 12.1053 8.89508 5
    endloop
  endfacet
  facet normal 0 0 1
    outer loop
      vertex 54.5 -4 5
      vertex 12.1053 8.89508 5
      vertex 12.35 7.35 5
    endloop
  endfacet
  facet normal 0 0 1
    outer loop
      vertex 59.5 1 5
      vertex 54.5 -4 5
      vertex 59.2553 -0.545085 5
    endloop
  endfacet
  facet normal 0 0 1
    outer loop
      vertex 54.5 59.5 5
      vertex 10.2889 11.3951 5
      vertex 11.3951 10.2889 5
    endloop
  endfacet
  facet normal -0 0 1
    outer loop
      vertex 1 59.5 5
      vertex 10.2889 11.3951 5
      vertex 54.5 59.5 5
    endloop
  endfacet
  facet normal 0 0 1
    outer loop
      vertex 10.2889 11.3951 5
      vertex 1 59.5 5
      vertex 8.89508 12.1053 5
    endloop
  endfacet
  facet normal -0 0 1
    outer loop
      vertex -4 54.5 5
      vertex 8.89508 12.1053 5
      vertex 1 59.5 5
    endloop
  endfacet
  facet normal 0 0 1
    outer loop
      vertex -4 54.5 5
      vertex 1 59.5 5
      vertex -0.545085 59.2553 5
    endloop
  endfacet
  facet normal 0 0 1
    outer loop
      vertex -4 54.5 5
      vertex -0.545085 59.2553 5
      vertex -1.93893 58.5451 5
    endloop
  endfacet
  facet normal 0 0 1
    outer loop
      vertex -4 54.5 5
      vertex -1.93893 58.5451 5
      vertex -3.04508 57.4389 5
    endloop
  endfacet
  facet normal 0 0 1
    outer loop
      vertex -4 54.5 5
      vertex -3.04508 57.4389 5
      vertex -3.75528 56.0451 5
    endloop
  endfacet
  facet normal 0 0 1
    outer loop
      vertex 8.89508 12.1053 5
      vertex -4 54.5 5
      vertex 7.35 12.35 5
    endloop
  endfacet
  facet normal 0 0 1
    outer loop
      vertex 7.35 12.35 5
      vertex -4 54.5 5
      vertex -4 12.35 5
    endloop
  endfacet
  facet normal 0 0 1
    outer loop
      vertex 54.5 -4 5
      vertex 12.35 7.35 5
      vertex 12.35 -4 5
    endloop
  endfacet
  facet normal 0.891 0.454002 0
    outer loop
      vertex 59.2553 56.0451 5
      vertex 58.5451 57.4389 3
      vertex 58.5451 57.4389 5
    endloop
  endfacet
  facet normal 0.891 0.454002 0
    outer loop
      vertex 58.5451 57.4389 3
      vertex 59.2553 56.0451 5
      vertex 59.2553 56.0451 3
    endloop
  endfacet
  facet normal 0.454002 0.891 -0
    outer loop
      vertex 57.4389 58.5451 3
      vertex 56.0451 59.2553 5
      vertex 57.4389 58.5451 5
    endloop
  endfacet
  facet normal 0.454002 0.891 0
    outer loop
      vertex 56.0451 59.2553 5
      vertex 57.4389 58.5451 3
      vertex 56.0451 59.2553 3
    endloop
  endfacet
  facet normal -0.156424 0.98769 0
    outer loop
      vertex 1 59.5 3
      vertex -0.545085 59.2553 5
      vertex 1 59.5 5
    endloop
  endfacet
  facet normal -0.156424 0.98769 0
    outer loop
      vertex -0.545085 59.2553 5
      vertex 1 59.5 3
      vertex -0.545085 59.2553 3
    endloop
  endfacet
  facet normal -0.453991 0.891006 0
    outer loop
      vertex -0.545085 59.2553 3
      vertex -1.93893 58.5451 5
      vertex -0.545085 59.2553 5
    endloop
  endfacet
  facet normal -0.453991 0.891006 0
    outer loop
      vertex -1.93893 58.5451 5
      vertex -0.545085 59.2553 3
      vertex -1.93893 58.5451 3
    endloop
  endfacet
  facet normal -0.987688 0.156435 0
    outer loop
      vertex -4 54.5 3
      vertex -3.75528 56.0451 5
      vertex -3.75528 56.0451 3
    endloop
  endfacet
  facet normal -0.987688 0.156435 0
    outer loop
      vertex -3.75528 56.0451 5
      vertex -4 54.5 3
      vertex -4 54.5 5
    endloop
  endfacet
  facet normal 0.156422 0.98769 -0
    outer loop
      vertex 56.0451 59.2553 3
      vertex 54.5 59.5 5
      vertex 56.0451 59.2553 5
    endloop
  endfacet
  facet normal 0.156422 0.98769 0
    outer loop
      vertex 54.5 59.5 5
      vertex 56.0451 59.2553 3
      vertex 54.5 59.5 3
    endloop
  endfacet
  facet normal 0 -1 0
    outer loop
      vertex 12.35 -4 3
      vertex 54.5 -4 5
      vertex 12.35 -4 5
    endloop
  endfacet
  facet normal 0 -1 -0
    outer loop
      vertex 54.5 -4 5
      vertex 12.35 -4 3
      vertex 54.5 -4 3
    endloop
  endfacet
  facet normal 0.891006 -0.453991 0
    outer loop
      vertex 58.5451 -1.93893 5
      vertex 59.2553 -0.545085 3
      vertex 59.2553 -0.545085 5
    endloop
  endfacet
  facet normal 0.891006 -0.453991 0
    outer loop
      vertex 59.2553 -0.545085 3
      vertex 58.5451 -1.93893 5
      vertex 58.5451 -1.93893 3
    endloop
  endfacet
  facet normal 0.98769 -0.156424 0
    outer loop
      vertex 60.2553 -1.54508 3
      vertex 60.5 0 0
      vertex 60.5 0 3
    endloop
  endfacet
  facet normal 0.98769 -0.156424 0
    outer loop
      vertex 60.5 0 0
      vertex 60.2553 -1.54508 3
      vertex 60.2553 -1.54508 0
    endloop
  endfacet
  facet normal 0.891 0.454002 0
    outer loop
      vertex 60.2553 57.0451 3
      vertex 59.5451 58.4389 0
      vertex 59.5451 58.4389 3
    endloop
  endfacet
  facet normal 0.891 0.454002 0
    outer loop
      vertex 59.5451 58.4389 0
      vertex 60.2553 57.0451 3
      vertex 60.2553 57.0451 0
    endloop
  endfacet
  facet normal 1 -0 0
    outer loop
      vertex 60.5 0 3
      vertex 60.5 55.5 0
      vertex 60.5 55.5 3
    endloop
  endfacet
  facet normal 1 0 0
    outer loop
      vertex 60.5 55.5 0
      vertex 60.5 0 3
      vertex 60.5 0 0
    endloop
  endfacet
  facet normal -1 0 0
    outer loop
      vertex -5 12.35 0
      vertex -5 55.5 3
      vertex -5 55.5 0
    endloop
  endfacet
  facet normal -1 -0 0
    outer loop
      vertex -5 55.5 3
      vertex -5 12.35 0
      vertex -5 12.35 3
    endloop
  endfacet
  facet normal 0.707091 -0.707123 0
    outer loop
      vertex 58.4389 -4.04508 3
      vertex 59.5451 -2.93893 0
      vertex 59.5451 -2.93893 3
    endloop
  endfacet
  facet normal 0.707091 -0.707123 0
    outer loop
      vertex 59.5451 -2.93893 0
      vertex 58.4389 -4.04508 3
      vertex 58.4389 -4.04508 0
    endloop
  endfacet
  facet normal 0.891007 -0.453989 0
    outer loop
      vertex 59.5451 -2.93893 3
      vertex 60.2553 -1.54508 0
      vertex 60.2553 -1.54508 3
    endloop
  endfacet
  facet normal 0.891007 -0.453989 0
    outer loop
      vertex 60.2553 -1.54508 0
      vertex 59.5451 -2.93893 3
      vertex 59.5451 -2.93893 0
    endloop
  endfacet
  facet normal 0.454002 -0.891 0
    outer loop
      vertex 57.0451 -4.75528 0
      vertex 58.4389 -4.04508 3
      vertex 57.0451 -4.75528 3
    endloop
  endfacet
  facet normal 0.454002 -0.891 0
    outer loop
      vertex 58.4389 -4.04508 3
      vertex 57.0451 -4.75528 0
      vertex 58.4389 -4.04508 0
    endloop
  endfacet
  facet normal 0.156435 -0.987688 0
    outer loop
      vertex 55.5 -5 0
      vertex 57.0451 -4.75528 3
      vertex 55.5 -5 3
    endloop
  endfacet
  facet normal 0.156435 -0.987688 0
    outer loop
      vertex 57.0451 -4.75528 3
      vertex 55.5 -5 0
      vertex 57.0451 -4.75528 0
    endloop
  endfacet
  facet normal 0 1 -0
    outer loop
      vertex 55.5 60.5 0
      vertex 0 60.5 3
      vertex 55.5 60.5 3
    endloop
  endfacet
  facet normal 0 1 0
    outer loop
      vertex 0 60.5 3
      vertex 55.5 60.5 0
      vertex 0 60.5 0
    endloop
  endfacet
  facet normal 0 -1 0
    outer loop
      vertex 12.35 -5 0
      vertex 55.5 -5 3
      vertex 12.35 -5 3
    endloop
  endfacet
  facet normal 0 -1 -0
    outer loop
      vertex 55.5 -5 3
      vertex 12.35 -5 0
      vertex 55.5 -5 0
    endloop
  endfacet
  facet normal 0.454002 0.891 -0
    outer loop
      vertex 58.4389 59.5451 0
      vertex 57.0451 60.2553 3
      vertex 58.4389 59.5451 3
    endloop
  endfacet
  facet normal 0.454002 0.891 0
    outer loop
      vertex 57.0451 60.2553 3
      vertex 58.4389 59.5451 0
      vertex 57.0451 60.2553 0
    endloop
  endfacet
  facet normal 0.707107 0.707107 0
    outer loop
      vertex 59.5451 58.4389 3
      vertex 58.4389 59.5451 0
      vertex 58.4389 59.5451 3
    endloop
  endfacet
  facet normal 0.707107 0.707107 0
    outer loop
      vertex 58.4389 59.5451 0
      vertex 59.5451 58.4389 3
      vertex 59.5451 58.4389 0
    endloop
  endfacet
  facet normal 0.98769 0.156422 0
    outer loop
      vertex 60.5 55.5 3
      vertex 60.2553 57.0451 0
      vertex 60.2553 57.0451 3
    endloop
  endfacet
  facet normal 0.98769 0.156422 0
    outer loop
      vertex 60.2553 57.0451 0
      vertex 60.5 55.5 3
      vertex 60.5 55.5 0
    endloop
  endfacet
  facet normal -0.987688 0.156435 0
    outer loop
      vertex -5 55.5 0
      vertex -4.75528 57.0451 3
      vertex -4.75528 57.0451 0
    endloop
  endfacet
  facet normal -0.987688 0.156435 0
    outer loop
      vertex -4.75528 57.0451 3
      vertex -5 55.5 0
      vertex -5 55.5 3
    endloop
  endfacet
  facet normal 0.156422 0.98769 -0
    outer loop
      vertex 57.0451 60.2553 0
      vertex 55.5 60.5 3
      vertex 57.0451 60.2553 3
    endloop
  endfacet
  facet normal 0.156422 0.98769 0
    outer loop
      vertex 55.5 60.5 3
      vertex 57.0451 60.2553 0
      vertex 55.5 60.5 0
    endloop
  endfacet
  facet normal 0 0 -1
    outer loop
      vertex 55.5 -5 0
      vertex 60.5 0 0
      vertex 60.2553 -1.54508 0
    endloop
  endfacet
  facet normal 0 0 -1
    outer loop
      vertex 60.5 0 0
      vertex 11.3951 10.2889 0
      vertex 60.5 55.5 0
    endloop
  endfacet
  facet normal 0 0 -1
    outer loop
      vertex 55.5 -5 0
      vertex 60.2553 -1.54508 0
      vertex 59.5451 -2.93893 0
    endloop
  endfacet
  facet normal 0 -0 -1
    outer loop
      vertex 55.5 60.5 0
      vertex 60.5 55.5 0
      vertex 11.3951 10.2889 0
    endloop
  endfacet
  facet normal 0 0 -1
    outer loop
      vertex 55.5 -5 0
      vertex 59.5451 -2.93893 0
      vertex 58.4389 -4.04508 0
    endloop
  endfacet
  facet normal -0 0 -1
    outer loop
      vertex 60.5 0 0
      vertex 55.5 -5 0
      vertex 12.1053 8.89508 0
    endloop
  endfacet
  facet normal 0 0 -1
    outer loop
      vertex 55.5 -5 0
      vertex 58.4389 -4.04508 0
      vertex 57.0451 -4.75528 0
    endloop
  endfacet
  facet normal 0 0 -1
    outer loop
      vertex 60.5 55.5 0
      vertex 55.5 60.5 0
      vertex 60.2553 57.0451 0
    endloop
  endfacet
  facet normal 0 0 -1
    outer loop
      vertex 59.5451 58.4389 0
      vertex 55.5 60.5 0
      vertex 58.4389 59.5451 0
    endloop
  endfacet
  facet normal 0 0 -1
    outer loop
      vertex 58.4389 59.5451 0
      vertex 55.5 60.5 0
      vertex 57.0451 60.2553 0
    endloop
  endfacet
  facet normal 0 0 -1
    outer loop
      vertex 12.35 7.35 0
      vertex 55.5 -5 0
      vertex 12.35 -5 0
    endloop
  endfacet
  facet normal 0 0 -1
    outer loop
      vertex 12.1053 8.89508 0
      vertex 55.5 -5 0
      vertex 12.35 7.35 0
    endloop
  endfacet
  facet normal 0 0 -1
    outer loop
      vertex 60.5 0 0
      vertex 12.1053 8.89508 0
      vertex 11.3951 10.2889 0
    endloop
  endfacet
  facet normal 0 0 -1
    outer loop
      vertex 60.2553 57.0451 0
      vertex 55.5 60.5 0
      vertex 59.5451 58.4389 0
    endloop
  endfacet
  facet normal 0 0 -1
    outer loop
      vertex 10.2889 11.3951 0
      vertex 55.5 60.5 0
      vertex 11.3951 10.2889 0
    endloop
  endfacet
  facet normal 0 0 -1
    outer loop
      vertex 0 60.5 0
      vertex 10.2889 11.3951 0
      vertex 8.89508 12.1053 0
    endloop
  endfacet
  facet normal 0 0 -1
    outer loop
      vertex -5 55.5 0
      vertex 8.89508 12.1053 0
      vertex 7.35 12.35 0
    endloop
  endfacet
  facet normal 0 0 -1
    outer loop
      vertex 10.2889 11.3951 0
      vertex 0 60.5 0
      vertex 55.5 60.5 0
    endloop
  endfacet
  facet normal 0 0 -1
    outer loop
      vertex 8.89508 12.1053 0
      vertex -5 55.5 0
      vertex 0 60.5 0
    endloop
  endfacet
  facet normal 0 0 -1
    outer loop
      vertex 0 60.5 0
      vertex -5 55.5 0
      vertex -1.54508 60.2553 0
    endloop
  endfacet
  facet normal 0 0 -1
    outer loop
      vertex -1.54508 60.2553 0
      vertex -5 55.5 0
      vertex -2.93893 59.5451 0
    endloop
  endfacet
  facet normal 0 0 -1
    outer loop
      vertex -2.93893 59.5451 0
      vertex -5 55.5 0
      vertex -4.04508 58.4389 0
    endloop
  endfacet
  facet normal 0 0 -1
    outer loop
      vertex -5 55.5 0
      vertex 7.35 12.35 0
      vertex -5 12.35 0
    endloop
  endfacet
  facet normal 0 0 -1
    outer loop
      vertex -4.04508 58.4389 0
      vertex -5 55.5 0
      vertex -4.75528 57.0451 0
    endloop
  endfacet
  facet normal -0.156424 0.98769 0
    outer loop
      vertex 0 60.5 0
      vertex -1.54508 60.2553 3
      vertex 0 60.5 3
    endloop
  endfacet
  facet normal -0.156424 0.98769 0
    outer loop
      vertex -1.54508 60.2553 3
      vertex 0 60.5 0
      vertex -1.54508 60.2553 0
    endloop
  endfacet
  facet normal -0.453989 0.891007 0
    outer loop
      vertex -1.54508 60.2553 0
      vertex -2.93893 59.5451 3
      vertex -1.54508 60.2553 3
    endloop
  endfacet
  facet normal -0.453989 0.891007 0
    outer loop
      vertex -2.93893 59.5451 3
      vertex -1.54508 60.2553 0
      vertex -2.93893 59.5451 0
    endloop
  endfacet
  facet normal -0.707123 0.707091 0
    outer loop
      vertex -4.04508 58.4389 0
      vertex -2.93893 59.5451 3
      vertex -2.93893 59.5451 0
    endloop
  endfacet
  facet normal -0.707123 0.707091 0
    outer loop
      vertex -2.93893 59.5451 3
      vertex -4.04508 58.4389 0
      vertex -4.04508 58.4389 3
    endloop
  endfacet
  facet normal -0.891 0.454002 0
    outer loop
      vertex -4.75528 57.0451 0
      vertex -4.04508 58.4389 3
      vertex -4.04508 58.4389 0
    endloop
  endfacet
  facet normal -0.891 0.454002 0
    outer loop
      vertex -4.04508 58.4389 3
      vertex -4.75528 57.0451 0
      vertex -4.75528 57.0451 3
    endloop
  endfacet
  facet normal -0 0 1
    outer loop
      vertex 59.2553 56.0451 3
      vertex 60.5 55.5 3
      vertex 60.2553 57.0451 3
    endloop
  endfacet
  facet normal 0 0 1
    outer loop
      vertex 60.5 55.5 3
      vertex 59.5 54.5 3
      vertex 60.5 0 3
    endloop
  endfacet
  facet normal -0 0 1
    outer loop
      vertex 58.5451 57.4389 3
      vertex 60.2553 57.0451 3
      vertex 59.5451 58.4389 3
    endloop
  endfacet
  facet normal -0 0 1
    outer loop
      vertex 59.5 1 3
      vertex 60.5 0 3
      vertex 59.5 54.5 3
    endloop
  endfacet
  facet normal 0 0 1
    outer loop
      vertex 59.2553 -0.545085 3
      vertex 60.5 0 3
      vertex 59.5 1 3
    endloop
  endfacet
  facet normal 0 0 1
    outer loop
      vertex 60.5 55.5 3
      vertex 59.2553 56.0451 3
      vertex 59.5 54.5 3
    endloop
  endfacet
  facet normal 0 0 1
    outer loop
      vertex 60.2553 57.0451 3
      vertex 58.5451 57.4389 3
      vertex 59.2553 56.0451 3
    endloop
  endfacet
  facet normal 0 0 1
    outer loop
      vertex 58.4389 59.5451 3
      vertex 58.5451 57.4389 3
      vertex 59.5451 58.4389 3
    endloop
  endfacet
  facet normal 0 0 1
    outer loop
      vertex 58.4389 59.5451 3
      vertex 57.4389 58.5451 3
      vertex 58.5451 57.4389 3
    endloop
  endfacet
  facet normal 0 0 1
    outer loop
      vertex 57.0451 60.2553 3
      vertex 57.4389 58.5451 3
      vertex 58.4389 59.5451 3
    endloop
  endfacet
  facet normal 0 0 1
    outer loop
      vertex 57.0451 60.2553 3
      vertex 56.0451 59.2553 3
      vertex 57.4389 58.5451 3
    endloop
  endfacet
  facet normal 0 0 1
    outer loop
      vertex 55.5 60.5 3
      vertex 56.0451 59.2553 3
      vertex 57.0451 60.2553 3
    endloop
  endfacet
  facet normal 0 0 1
    outer loop
      vertex 55.5 60.5 3
      vertex 54.5 59.5 3
      vertex 56.0451 59.2553 3
    endloop
  endfacet
  facet normal 0 0 1
    outer loop
      vertex 55.5 60.5 3
      vertex 1 59.5 3
      vertex 54.5 59.5 3
    endloop
  endfacet
  facet normal -0 0 1
    outer loop
      vertex 0 60.5 3
      vertex 1 59.5 3
      vertex 55.5 60.5 3
    endloop
  endfacet
  facet normal 0 0 1
    outer loop
      vertex 0 60.5 3
      vertex -0.545085 59.2553 3
      vertex 1 59.5 3
    endloop
  endfacet
  facet normal -0 0 1
    outer loop
      vertex -1.54508 60.2553 3
      vertex -0.545085 59.2553 3
      vertex 0 60.5 3
    endloop
  endfacet
  facet normal 0 0 1
    outer loop
      vertex -1.54508 60.2553 3
      vertex -1.93893 58.5451 3
      vertex -0.545085 59.2553 3
    endloop
  endfacet
  facet normal -0 0 1
    outer loop
      vertex -2.93893 59.5451 3
      vertex -1.93893 58.5451 3
      vertex -1.54508 60.2553 3
    endloop
  endfacet
  facet normal 0 0 1
    outer loop
      vertex -2.93893 59.5451 3
      vertex -3.04508 57.4389 3
      vertex -1.93893 58.5451 3
    endloop
  endfacet
  facet normal -0 0 1
    outer loop
      vertex -4.04508 58.4389 3
      vertex -3.04508 57.4389 3
      vertex -2.93893 59.5451 3
    endloop
  endfacet
  facet normal 0 0 1
    outer loop
      vertex -4.75528 57.0451 3
      vertex -3.04508 57.4389 3
      vertex -4.04508 58.4389 3
    endloop
  endfacet
  facet normal 0 0 1
    outer loop
      vertex -3.04508 57.4389 3
      vertex -4.75528 57.0451 3
      vertex -3.75528 56.0451 3
    endloop
  endfacet
  facet normal 0 0 1
    outer loop
      vertex -5 55.5 3
      vertex -3.75528 56.0451 3
      vertex -4.75528 57.0451 3
    endloop
  endfacet
  facet normal 0 0 1
    outer loop
      vertex -3.75528 56.0451 3
      vertex -5 55.5 3
      vertex -4 54.5 3
    endloop
  endfacet
  facet normal 0 0 1
    outer loop
      vertex -5 12.35 3
      vertex -4 54.5 3
      vertex -5 55.5 3
    endloop
  endfacet
  facet normal 0 0 1
    outer loop
      vertex -4 54.5 3
      vertex -5 12.35 3
      vertex -4 12.35 3
    endloop
  endfacet
  facet normal 0 0 1
    outer loop
      vertex 60.5 0 3
      vertex 59.2553 -0.545085 3
      vertex 60.2553 -1.54508 3
    endloop
  endfacet
  facet normal 0 0 1
    outer loop
      vertex 58.5451 -1.93893 3
      vertex 60.2553 -1.54508 3
      vertex 59.2553 -0.545085 3
    endloop
  endfacet
  facet normal 0 0 1
    outer loop
      vertex 60.2553 -1.54508 3
      vertex 58.5451 -1.93893 3
      vertex 59.5451 -2.93893 3
    endloop
  endfacet
  facet normal 0 0 1
    outer loop
      vertex 58.5451 -1.93893 3
      vertex 58.4389 -4.04508 3
      vertex 59.5451 -2.93893 3
    endloop
  endfacet
  facet normal -0 0 1
    outer loop
      vertex 57.4389 -3.04508 3
      vertex 58.4389 -4.04508 3
      vertex 58.5451 -1.93893 3
    endloop
  endfacet
  facet normal 0 0 1
    outer loop
      vertex 57.4389 -3.04508 3
      vertex 57.0451 -4.75528 3
      vertex 58.4389 -4.04508 3
    endloop
  endfacet
  facet normal -0 0 1
    outer loop
      vertex 56.0451 -3.75528 3
      vertex 57.0451 -4.75528 3
      vertex 57.4389 -3.04508 3
    endloop
  endfacet
  facet normal 0 0 1
    outer loop
      vertex 56.0451 -3.75528 3
      vertex 55.5 -5 3
      vertex 57.0451 -4.75528 3
    endloop
  endfacet
  facet normal -0 0 1
    outer loop
      vertex 54.5 -4 3
      vertex 55.5 -5 3
      vertex 56.0451 -3.75528 3
    endloop
  endfacet
  facet normal 0 0 1
    outer loop
      vertex 12.35 -5 3
      vertex 54.5 -4 3
      vertex 12.35 -4 3
    endloop
  endfacet
  facet normal 0 0 1
    outer loop
      vertex 54.5 -4 3
      vertex 12.35 -5 3
      vertex 55.5 -5 3
    endloop
  endfacet
  facet normal -1 0 0
    outer loop
      vertex 12.35 7.35 0
      vertex 12.35 -4 3
      vertex 12.35 7.35 5
    endloop
  endfacet
  facet normal -1 0 0
    outer loop
      vertex 12.35 -5 0
      vertex 12.35 -4 3
      vertex 12.35 7.35 0
    endloop
  endfacet
  facet normal -1 -0 0
    outer loop
      vertex 12.35 -4 3
      vertex 12.35 -5 0
      vertex 12.35 -5 3
    endloop
  endfacet
  facet normal -1 -0 0
    outer loop
      vertex 12.35 7.35 5
      vertex 12.35 -4 3
      vertex 12.35 -4 5
    endloop
  endfacet
  facet normal 0 -1 0
    outer loop
      vertex -5 12.35 3
      vertex -5 12.35 0
      vertex -4 12.35 3
    endloop
  endfacet
  facet normal 0 -1 0
    outer loop
      vertex -4 12.35 3
      vertex 7.35 12.35 5
      vertex -4 12.35 5
    endloop
  endfacet
  facet normal 0 -1 0
    outer loop
      vertex 7.35 12.35 0
      vertex -4 12.35 3
      vertex -5 12.35 0
    endloop
  endfacet
  facet normal 0 -1 0
    outer loop
      vertex -4 12.35 3
      vertex 7.35 12.35 0
      vertex 7.35 12.35 5
    endloop
  endfacet
  facet normal -0.156424 -0.98769 0
    outer loop
      vertex 7.35 12.35 0
      vertex 8.89508 12.1053 5
      vertex 7.35 12.35 5
    endloop
  endfacet
  facet normal -0.156424 -0.98769 -0
    outer loop
      vertex 8.89508 12.1053 5
      vertex 7.35 12.35 0
      vertex 8.89508 12.1053 0
    endloop
  endfacet
  facet normal -0.98769 -0.156424 0
    outer loop
      vertex 12.35 7.35 0
      vertex 12.1053 8.89508 5
      vertex 12.1053 8.89508 0
    endloop
  endfacet
  facet normal -0.98769 -0.156424 0
    outer loop
      vertex 12.1053 8.89508 5
      vertex 12.35 7.35 0
      vertex 12.35 7.35 5
    endloop
  endfacet
  facet normal -0.453997 -0.891003 0
    outer loop
      vertex 8.89508 12.1053 0
      vertex 10.2889 11.3951 5
      vertex 8.89508 12.1053 5
    endloop
  endfacet
  facet normal -0.453997 -0.891003 -0
    outer loop
      vertex 10.2889 11.3951 5
      vertex 8.89508 12.1053 0
      vertex 10.2889 11.3951 0
    endloop
  endfacet
  facet normal -0.891003 -0.453997 0
    outer loop
      vertex 12.1053 8.89508 0
      vertex 11.3951 10.2889 5
      vertex 11.3951 10.2889 0
    endloop
  endfacet
  facet normal -0.891003 -0.453997 0
    outer loop
      vertex 11.3951 10.2889 5
      vertex 12.1053 8.89508 0
      vertex 12.1053 8.89508 5
    endloop
  endfacet
  facet normal -0.707107 -0.707107 0
    outer loop
      vertex 11.3951 10.2889 0
      vertex 10.2889 11.3951 5
      vertex 10.2889 11.3951 0
    endloop
  endfacet
  facet normal -0.707107 -0.707107 0
    outer loop
      vertex 10.2889 11.3951 5
      vertex 11.3951 10.2889 0
      vertex 11.3951 10.2889 5
    endloop
  endfacet
endsolid OpenSCAD_Model
