<?xml version="1.0" encoding="UTF-8" standalone="no"?>
<!DOCTYPE svg PUBLIC "-//W3C//DTD SVG 20010904//EN"
              "http://www.w3.org/TR/2001/REC-SVG-20010904/DTD/svg10.dtd">

<svg xmlns="http://www.w3.org/2000/svg"
     width="6.86111in" height="5.44444in"
     viewBox="0 0 494 392">
  <path id="Selection"
        fill="none" stroke="black" stroke-width="1"
        d="M 155.00,14.00
           C 151.63,13.81 151.19,13.37 151.00,10.00
             154.07,11.07 153.93,10.93 155.00,14.00 Z
           M 256.00,11.00
           C 256.00,11.00 251.00,17.00 251.00,17.00
             253.71,18.13 253.45,18.13 254.00,21.00
             254.00,21.00 251.00,21.00 251.00,21.00
             251.00,21.00 251.00,34.00 251.00,34.00
             251.00,34.00 248.00,34.00 248.00,34.00
             248.00,29.29 249.29,23.87 245.00,21.00
             246.63,15.24 249.26,9.86 256.00,11.00 Z
           M 58.00,11.00
           C 58.00,11.00 58.00,19.00 58.00,19.00
             59.87,18.53 63.02,17.43 64.85,17.95
             69.39,19.24 68.00,30.17 68.00,34.00
             68.00,34.00 65.00,34.00 65.00,34.00
             65.00,31.32 65.66,23.46 62.59,22.34
             57.39,20.44 58.00,31.55 58.00,34.00
             58.00,34.00 55.00,34.00 55.00,34.00
             55.00,34.00 55.00,11.00 55.00,11.00
             55.00,11.00 58.00,11.00 58.00,11.00 Z
           M 205.00,11.00
           C 205.00,11.00 205.00,19.00 205.00,19.00
             206.87,18.53 210.02,17.43 211.85,17.95
             216.39,19.24 215.00,30.17 215.00,34.00
             215.00,34.00 212.00,34.00 212.00,34.00
             212.00,31.32 212.66,23.46 209.59,22.34
             204.39,20.44 205.00,31.55 205.00,34.00
             205.00,34.00 202.00,34.00 202.00,34.00
             202.00,34.00 202.00,11.00 202.00,11.00
             202.00,11.00 205.00,11.00 205.00,11.00 Z
           M 262.06,11.00
           C 262.06,11.00 262.06,25.96 262.06,25.96
             262.06,25.96 264.00,34.00 264.00,34.00
             262.22,33.36 261.05,33.15 259.74,31.58
             257.03,28.34 258.00,15.57 258.00,11.00
             258.00,11.00 262.06,11.00 262.06,11.00 Z
           M 304.00,11.00
           C 304.00,11.00 304.00,19.00 304.00,19.00
             305.87,18.53 309.02,17.43 310.85,17.95
             315.39,19.24 314.00,30.17 314.00,34.00
             314.00,34.00 311.00,34.00 311.00,34.00
             311.00,31.32 311.66,23.46 308.59,22.34
             303.39,20.44 304.00,31.55 304.00,34.00
             304.00,34.00 301.00,34.00 301.00,34.00
             301.00,34.00 301.00,11.00 301.00,11.00
             301.00,11.00 304.00,11.00 304.00,11.00 Z
           M 15.59,17.02
           C 16.33,14.83 17.53,11.35 20.63,12.62
             22.56,13.42 23.37,16.19 23.97,18.00
             25.50,22.65 27.57,29.25 28.00,34.00
             24.58,32.80 24.62,32.54 24.00,29.00
             24.00,29.00 15.00,29.00 15.00,29.00
             14.38,32.54 14.42,32.80 11.00,34.00
             11.82,28.17 13.72,22.58 15.59,17.02 Z
           M 46.00,13.00
           C 46.00,13.00 46.00,17.00 46.00,17.00
             46.00,17.00 50.00,17.00 50.00,17.00
             50.00,17.00 50.00,21.00 50.00,21.00
             50.00,21.00 46.00,21.00 46.00,21.00
             46.06,25.68 45.61,27.52 50.00,30.00
             48.04,35.53 44.14,33.49 42.72,28.96
             42.72,28.96 41.78,24.09 41.78,24.09
             39.93,15.79 40.81,20.80 43.00,13.00
             43.00,13.00 46.00,13.00 46.00,13.00 Z
           M 192.00,13.00
           C 192.00,13.00 192.00,17.00 192.00,17.00
             192.00,17.00 196.00,17.00 196.00,17.00
             196.00,17.00 196.00,21.00 196.00,21.00
             196.00,21.00 192.00,21.00 192.00,21.00
             192.06,25.68 191.61,27.52 196.00,30.00
             194.04,35.53 190.14,33.49 188.72,28.96
             188.72,28.96 187.78,24.09 187.78,24.09
             185.93,15.79 186.81,20.80 189.00,13.00
             189.00,13.00 192.00,13.00 192.00,13.00 Z
           M 17.00,25.00
           C 17.00,25.00 22.00,25.00 22.00,25.00
             22.00,25.00 20.00,16.00 20.00,16.00
             17.39,19.26 17.34,20.93 17.00,25.00 Z
           M 79.02,33.13
           C 77.63,32.99 76.47,32.47 75.43,31.49
             66.71,23.23 82.22,10.71 85.79,22.05
             86.02,23.58 85.96,25.42 85.79,27.00
             85.79,27.00 77.00,27.00 77.00,27.00
             80.08,30.04 80.78,29.85 85.00,30.00
             85.00,30.00 85.00,33.13 85.00,33.13
             83.25,33.19 80.71,33.60 79.02,33.13 Z
           M 99.00,33.24
           C 91.27,34.42 86.66,21.68 97.02,17.84
             108.40,17.83 107.48,31.96 99.00,33.24 Z
           M 113.00,20.00
           C 113.00,20.00 120.00,17.00 120.00,17.00
             120.00,17.00 114.17,25.05 114.17,25.05
             114.17,25.05 113.00,34.00 113.00,34.00
             113.00,34.00 110.00,34.00 110.00,34.00
             110.00,34.00 110.00,17.00 110.00,17.00
             110.00,17.00 113.00,20.00 113.00,20.00 Z
           M 129.00,29.00
           C 131.01,24.26 130.91,18.82 136.00,17.00
             135.36,21.06 131.03,34.79 128.35,37.49
             126.69,39.17 125.15,39.43 123.00,40.00
             123.00,40.00 123.00,36.00 123.00,36.00
             124.19,35.31 125.10,35.18 125.80,33.71
             127.18,30.77 122.29,20.25 121.00,17.00
             127.02,18.04 127.25,23.76 129.00,29.00 Z
           M 154.00,17.00
           C 154.00,17.00 154.00,34.00 154.00,34.00
             154.00,34.00 151.00,34.00 151.00,34.00
             151.00,34.00 151.00,17.00 151.00,17.00
             151.00,17.00 154.00,17.00 154.00,17.00 Z
           M 170.69,18.28
           C 174.09,20.16 173.00,30.41 173.00,34.00
             173.00,34.00 170.00,34.00 170.00,34.00
             170.00,31.32 170.66,23.46 167.59,22.34
             162.39,20.44 163.00,31.55 163.00,34.00
             163.00,34.00 160.00,34.00 160.00,34.00
             160.00,34.00 160.00,17.00 160.00,17.00
             160.00,17.00 170.69,18.28 170.69,18.28 Z
           M 226.02,33.13
           C 224.63,32.99 223.47,32.47 222.43,31.49
             213.71,23.23 229.22,10.71 232.79,22.05
             233.02,23.58 232.96,25.42 232.79,27.00
             232.79,27.00 224.00,27.00 224.00,27.00
             227.08,30.04 227.78,29.85 232.00,30.00
             232.00,30.00 232.00,33.13 232.00,33.13
             230.25,33.19 227.71,33.60 226.02,33.13 Z
           M 274.02,33.13
           C 272.63,32.99 271.47,32.47 270.43,31.49
             261.71,23.23 277.22,10.71 280.79,22.05
             281.02,23.58 280.96,25.42 280.79,27.00
             280.79,27.00 272.00,27.00 272.00,27.00
             275.08,30.04 275.78,29.85 280.00,30.00
             280.00,30.00 280.00,33.13 280.00,33.13
             278.25,33.19 275.71,33.60 274.02,33.13 Z
           M 285.96,22.91
           C 285.09,19.16 290.07,15.04 296.00,20.00
             296.00,20.00 289.00,21.00 289.00,21.00
             290.74,22.87 294.75,25.47 295.34,27.22
             297.63,33.90 288.93,33.54 285.00,32.00
             285.00,32.00 286.00,29.00 286.00,29.00
             286.00,29.00 293.00,30.00 293.00,30.00
             290.94,27.79 286.52,25.29 285.96,22.91 Z
           M 343.00,20.00
           C 353.14,11.74 352.00,28.84 352.00,34.00
             352.00,34.00 348.00,34.00 348.00,34.00
             348.00,31.57 348.57,24.30 346.42,22.91
             341.53,19.74 342.00,32.21 342.00,34.00
             342.00,34.00 338.00,34.00 338.00,34.00
             338.00,31.57 338.57,24.30 336.42,22.91
             331.53,19.74 332.00,32.21 332.00,34.00
             332.00,34.00 329.00,34.00 329.00,34.00
             329.00,34.00 329.00,17.00 329.00,17.00
             329.00,17.00 343.00,20.00 343.00,20.00 Z
           M 364.02,33.13
           C 362.63,32.99 361.47,32.47 360.43,31.49
             351.71,23.23 367.22,10.71 370.79,22.05
             371.02,23.58 370.96,25.42 370.79,27.00
             370.79,27.00 362.00,27.00 362.00,27.00
             365.08,30.04 365.78,29.85 370.00,30.00
             370.00,30.00 370.00,33.13 370.00,33.13
             368.25,33.19 365.71,33.60 364.02,33.13 Z
           M 386.26,21.07
           C 387.31,23.52 387.00,31.04 387.00,34.00
             387.00,34.00 376.32,32.16 376.32,32.16
             375.30,31.42 374.63,30.28 374.63,29.00
             374.63,24.70 379.87,24.18 383.00,24.00
             379.83,20.96 379.15,21.58 375.00,21.07
             377.80,16.85 384.04,16.08 386.26,21.07 Z
           M 403.69,18.28
           C 407.09,20.16 406.00,30.41 406.00,34.00
             406.00,34.00 403.00,34.00 403.00,34.00
             403.00,31.32 403.66,23.46 400.59,22.34
             395.39,20.44 396.00,31.55 396.00,34.00
             396.00,34.00 393.00,34.00 393.00,34.00
             393.00,34.00 393.00,17.00 393.00,17.00
             393.00,17.00 403.69,18.28 403.69,18.28 Z
           M 411.96,22.91
           C 411.09,19.16 416.07,15.04 422.00,20.00
             422.00,20.00 415.00,21.00 415.00,21.00
             416.74,22.87 420.75,25.47 421.34,27.22
             423.63,33.90 414.93,33.54 411.00,32.00
             411.00,32.00 412.00,29.00 412.00,29.00
             412.00,29.00 419.00,30.00 419.00,30.00
             416.94,27.79 412.52,25.29 411.96,22.91 Z
           M 444.00,33.24
           C 436.27,34.42 431.66,21.68 442.02,17.84
             453.40,17.83 452.48,31.96 444.00,33.24 Z
           M 465.69,18.28
           C 469.09,20.16 468.00,30.41 468.00,34.00
             468.00,34.00 465.00,34.00 465.00,34.00
             465.00,31.32 465.66,23.46 462.59,22.34
             457.39,20.44 458.00,31.55 458.00,34.00
             458.00,34.00 455.00,34.00 455.00,34.00
             455.00,34.00 455.00,17.00 455.00,17.00
             455.00,17.00 465.69,18.28 465.69,18.28 Z
           M 479.02,33.13
           C 477.63,32.99 476.47,32.47 475.43,31.49
             466.71,23.23 482.22,10.71 485.79,22.05
             486.02,23.58 485.96,25.42 485.79,27.00
             485.79,27.00 477.00,27.00 477.00,27.00
             480.08,30.04 480.78,29.85 485.00,30.00
             485.00,30.00 485.00,33.13 485.00,33.13
             483.25,33.19 480.71,33.60 479.02,33.13 Z
           M 77.00,24.00
           C 77.00,24.00 83.00,24.00 83.00,24.00
             83.00,24.00 83.00,21.00 83.00,21.00
             79.51,21.29 78.99,21.03 77.00,24.00 Z
           M 98.91,29.26
           C 102.17,28.34 103.41,22.02 97.30,21.74
             93.22,24.84 95.54,30.21 98.91,29.26 Z
           M 224.00,24.00
           C 224.00,24.00 230.00,24.00 230.00,24.00
             230.00,24.00 230.00,21.00 230.00,21.00
             226.51,21.29 225.99,21.03 224.00,24.00 Z
           M 272.00,24.00
           C 272.00,24.00 278.00,24.00 278.00,24.00
             278.00,24.00 278.00,21.00 278.00,21.00
             274.51,21.29 273.99,21.03 272.00,24.00 Z
           M 362.00,24.00
           C 362.00,24.00 368.00,24.00 368.00,24.00
             368.00,24.00 368.00,21.00 368.00,21.00
             364.51,21.29 363.99,21.03 362.00,24.00 Z
           M 443.91,29.26
           C 447.17,28.34 448.41,22.02 442.30,21.74
             438.22,24.84 440.54,30.21 443.91,29.26 Z
           M 477.00,24.00
           C 477.00,24.00 483.00,24.00 483.00,24.00
             483.00,24.00 483.00,21.00 483.00,21.00
             479.51,21.29 478.99,21.03 477.00,24.00 Z
           M 378.00,30.00
           C 381.54,29.38 381.80,29.42 383.00,26.00
             379.46,26.62 379.20,26.58 378.00,30.00 Z
           M 262.00,57.00
           C 258.51,56.80 258.20,56.49 258.00,53.00
             261.07,54.07 260.93,53.93 262.00,57.00 Z
           M 387.00,57.00
           C 383.42,56.80 383.20,56.58 383.00,53.00
             386.07,54.07 385.93,53.93 387.00,57.00 Z
           M 409.00,57.00
           C 405.42,56.80 405.20,56.58 405.00,53.00
             408.07,54.07 407.93,53.93 409.00,57.00 Z
           M 488.00,54.00
           C 488.00,54.00 483.00,60.00 483.00,60.00
             485.71,61.13 485.45,61.13 486.00,64.00
             486.00,64.00 483.00,64.00 483.00,64.00
             483.00,64.00 483.00,77.00 483.00,77.00
             483.00,77.00 480.00,77.00 480.00,77.00
             480.00,72.29 481.29,66.87 477.00,64.00
             478.68,58.06 481.15,53.12 488.00,54.00 Z
           M 42.00,54.00
           C 42.00,54.00 42.00,62.00 42.00,62.00
             43.87,61.53 47.02,60.43 48.85,60.95
             53.39,62.24 52.00,73.17 52.00,77.00
             52.00,77.00 49.00,77.00 49.00,77.00
             49.00,74.32 49.66,66.46 46.59,65.34
             41.39,63.44 42.00,74.55 42.00,77.00
             42.00,77.00 39.00,77.00 39.00,77.00
             39.00,77.00 39.00,54.00 39.00,54.00
             39.00,54.00 42.00,54.00 42.00,54.00 Z
           M 138.00,54.00
           C 138.00,54.00 138.00,62.00 138.00,62.00
             139.87,61.53 143.02,60.43 144.85,60.95
             149.39,62.24 148.00,73.17 148.00,77.00
             148.00,77.00 145.00,77.00 145.00,77.00
             145.00,74.32 145.66,66.46 142.59,65.34
             137.39,63.44 138.00,74.55 138.00,77.00
             138.00,77.00 135.00,77.00 135.00,77.00
             135.00,77.00 135.00,54.00 135.00,54.00
             135.00,54.00 138.00,54.00 138.00,54.00 Z
           M 209.00,54.00
           C 209.00,54.00 209.00,62.00 209.00,62.00
             210.87,61.53 214.02,60.43 215.85,60.95
             220.39,62.24 219.00,73.17 219.00,77.00
             219.00,77.00 216.00,77.00 216.00,77.00
             216.00,74.32 216.66,66.46 213.59,65.34
             208.39,63.44 209.00,74.55 209.00,77.00
             209.00,77.00 206.00,77.00 206.00,77.00
             206.00,77.00 206.00,54.00 206.00,54.00
             206.00,54.00 209.00,54.00 209.00,54.00 Z
           M 303.10,54.00
           C 303.10,54.00 303.10,68.00 303.10,68.00
             303.10,68.00 305.00,77.00 305.00,77.00
             305.00,77.00 301.02,74.58 301.02,74.58
             301.02,74.58 300.00,54.00 300.00,54.00
             300.00,54.00 303.10,54.00 303.10,54.00 Z
           M 375.10,54.00
           C 375.10,54.00 375.10,68.00 375.10,68.00
             375.10,68.00 377.00,77.00 377.00,77.00
             377.00,77.00 373.02,74.58 373.02,74.58
             373.02,74.58 372.00,54.00 372.00,54.00
             372.00,54.00 375.10,54.00 375.10,54.00 Z
           M 126.00,56.00
           C 126.00,56.00 126.00,60.00 126.00,60.00
             126.00,60.00 130.00,60.00 130.00,60.00
             130.00,60.00 130.00,64.00 130.00,64.00
             130.00,64.00 126.00,64.00 126.00,64.00
             126.06,68.68 125.61,70.52 130.00,73.00
             128.04,78.53 124.14,76.49 122.72,71.96
             122.72,71.96 121.78,67.09 121.78,67.09
             119.93,58.79 120.81,63.80 123.00,56.00
             123.00,56.00 126.00,56.00 126.00,56.00 Z
           M 396.00,56.00
           C 396.00,56.00 396.00,60.00 396.00,60.00
             396.00,60.00 400.00,60.00 400.00,60.00
             400.00,60.00 400.00,64.00 400.00,64.00
             400.00,64.00 396.00,64.00 396.00,64.00
             396.06,68.68 395.61,70.52 400.00,73.00
             398.04,78.53 394.14,76.49 392.72,71.96
             392.72,71.96 391.78,67.09 391.78,67.09
             389.93,58.79 390.81,63.80 393.00,56.00
             393.00,56.00 396.00,56.00 396.00,56.00 Z
           M 15.00,60.00
           C 15.00,60.00 18.00,73.00 18.00,73.00
             18.00,73.00 21.00,60.00 21.00,60.00
             21.00,60.00 25.00,60.00 25.00,60.00
             25.00,60.00 29.00,73.00 29.00,73.00
             29.37,68.43 29.19,61.88 34.00,60.00
             34.00,60.00 31.00,77.00 31.00,77.00
             24.08,76.45 24.50,72.08 24.00,66.00
             24.00,66.00 22.00,66.00 22.00,66.00
             21.50,72.08 21.92,76.45 15.00,77.00
             15.00,77.00 12.00,60.00 12.00,60.00
             12.00,60.00 15.00,60.00 15.00,60.00 Z
           M 64.02,76.13
           C 62.63,75.99 61.47,75.47 60.43,74.49
             51.71,66.23 67.22,53.71 70.79,65.05
             71.02,66.58 70.96,68.42 70.79,70.00
             70.79,70.00 62.00,70.00 62.00,70.00
             65.08,73.04 65.78,72.85 70.00,73.00
             70.00,73.00 70.00,76.13 70.00,76.13
             68.25,76.19 65.71,76.60 64.02,76.13 Z
           M 80.00,63.00
           C 80.00,63.00 87.00,60.00 87.00,60.00
             87.00,60.00 81.17,68.05 81.17,68.05
             81.17,68.05 80.00,77.00 80.00,77.00
             80.00,77.00 77.00,77.00 77.00,77.00
             77.00,77.00 77.00,60.00 77.00,60.00
             77.00,60.00 80.00,63.00 80.00,63.00 Z
           M 94.02,76.13
           C 92.63,75.99 91.47,75.47 90.43,74.49
             81.71,66.23 97.22,53.71 100.79,65.05
             101.02,66.58 100.96,68.42 100.79,70.00
             100.79,70.00 92.00,70.00 92.00,70.00
             95.08,73.04 95.78,72.85 100.00,73.00
             100.00,73.00 100.00,76.13 100.00,76.13
             98.25,76.19 95.71,76.60 94.02,76.13 Z
           M 159.02,76.13
           C 157.63,75.99 156.47,75.47 155.43,74.49
             146.71,66.23 162.22,53.71 165.79,65.05
             166.02,66.58 165.96,68.42 165.79,70.00
             165.79,70.00 157.00,70.00 157.00,70.00
             160.08,73.04 160.78,72.85 165.00,73.00
             165.00,73.00 165.00,76.13 165.00,76.13
             163.25,76.19 160.71,76.60 159.02,76.13 Z
           M 189.00,62.00
           C 191.26,61.33 193.60,60.39 195.94,61.36
             201.06,63.48 201.20,72.28 196.77,75.09
             194.33,76.77 192.42,75.87 190.00,75.09
             190.00,75.09 189.00,83.00 189.00,83.00
             189.00,83.00 186.00,83.00 186.00,83.00
             186.00,83.00 186.00,60.00 186.00,60.00
             186.00,60.00 189.00,62.00 189.00,62.00 Z
           M 231.00,72.00
           C 233.01,67.26 232.91,61.82 238.00,60.00
             237.36,64.06 233.03,77.79 230.35,80.49
             228.69,82.17 227.15,82.43 225.00,83.00
             225.00,83.00 225.00,79.00 225.00,79.00
             226.19,78.31 227.10,78.18 227.80,76.71
             229.18,73.77 224.29,63.25 223.00,60.00
             229.02,61.04 229.25,66.76 231.00,72.00 Z
           M 242.96,65.91
           C 242.09,62.16 247.07,58.04 253.00,63.00
             253.00,63.00 246.00,64.00 246.00,64.00
             247.74,65.87 251.75,68.47 252.34,70.22
             254.63,76.90 245.93,76.54 242.00,75.00
             242.00,75.00 243.00,72.00 243.00,72.00
             243.00,72.00 250.00,73.00 250.00,73.00
             247.94,70.79 243.52,68.29 242.96,65.91 Z
           M 261.00,60.00
           C 261.00,60.00 261.00,77.00 261.00,77.00
             261.00,77.00 258.00,77.00 258.00,77.00
             258.00,77.00 258.00,60.00 258.00,60.00
             258.00,60.00 261.00,60.00 261.00,60.00 Z
           M 273.00,76.33
           C 266.67,76.19 264.02,67.92 267.74,63.42
             270.54,60.01 275.27,59.27 277.00,64.00
             268.38,65.41 268.95,72.66 277.00,72.00
             277.00,72.00 278.00,75.00 278.00,75.00
             276.28,75.68 274.93,76.37 273.00,76.33 Z
           M 293.26,64.07
           C 294.31,66.52 294.00,74.04 294.00,77.00
             294.00,77.00 283.32,75.16 283.32,75.16
             282.30,74.42 281.63,73.28 281.63,72.00
             281.63,67.70 286.87,67.18 290.00,67.00
             286.83,63.96 286.15,64.58 282.00,64.07
             284.80,59.85 291.04,59.08 293.26,64.07 Z
           M 328.00,63.00
           C 328.00,63.00 335.00,60.00 335.00,60.00
             335.00,60.00 329.17,68.05 329.17,68.05
             329.17,68.05 328.00,77.00 328.00,77.00
             328.00,77.00 325.00,77.00 325.00,77.00
             325.00,77.00 325.00,60.00 325.00,60.00
             325.00,60.00 328.00,63.00 328.00,63.00 Z
           M 343.02,76.13
           C 341.63,75.99 340.47,75.47 339.43,74.49
             330.71,66.23 346.22,53.71 349.79,65.05
             350.02,66.58 349.96,68.42 349.79,70.00
             349.79,70.00 341.00,70.00 341.00,70.00
             344.08,73.04 344.78,72.85 349.00,73.00
             349.00,73.00 349.00,76.13 349.00,76.13
             347.25,76.19 344.71,76.60 343.02,76.13 Z
           M 365.26,64.07
           C 366.31,66.52 366.00,74.04 366.00,77.00
             366.00,77.00 355.32,75.16 355.32,75.16
             354.30,74.42 353.63,73.28 353.63,72.00
             353.63,67.70 358.87,67.18 362.00,67.00
             358.83,63.96 358.15,64.58 354.00,64.07
             356.80,59.85 363.04,59.08 365.26,64.07 Z
           M 386.00,60.00
           C 386.00,60.00 386.00,77.00 386.00,77.00
             386.00,77.00 383.00,77.00 383.00,77.00
             383.00,77.00 383.00,60.00 383.00,60.00
             383.00,60.00 386.00,60.00 386.00,60.00 Z
           M 408.00,60.00
           C 408.00,60.00 408.00,77.00 408.00,77.00
             408.00,77.00 405.00,77.00 405.00,77.00
             405.00,77.00 405.00,60.00 405.00,60.00
             405.00,60.00 408.00,60.00 408.00,60.00 Z
           M 420.02,76.13
           C 418.63,75.99 417.47,75.47 416.43,74.49
             407.71,66.23 423.22,53.71 426.79,65.05
             427.02,66.58 426.96,68.42 426.79,70.00
             426.79,70.00 418.00,70.00 418.00,70.00
             421.08,73.04 421.78,72.85 426.00,73.00
             426.00,73.00 426.00,76.13 426.00,76.13
             424.25,76.19 421.71,76.60 420.02,76.13 Z
           M 431.96,65.91
           C 431.09,62.16 436.07,58.04 442.00,63.00
             442.00,63.00 435.00,64.00 435.00,64.00
             436.74,65.87 440.75,68.47 441.34,70.22
             443.63,76.90 434.93,76.54 431.00,75.00
             431.00,75.00 432.00,72.00 432.00,72.00
             432.00,72.00 439.00,73.00 439.00,73.00
             436.94,70.79 432.52,68.29 431.96,65.91 Z
           M 469.00,76.24
           C 461.27,77.42 456.66,64.68 467.02,60.84
             478.40,60.83 477.48,74.96 469.00,76.24 Z
           M 62.00,67.00
           C 62.00,67.00 68.00,67.00 68.00,67.00
             68.00,67.00 68.00,64.00 68.00,64.00
             64.51,64.29 63.99,64.03 62.00,67.00 Z
           M 92.00,67.00
           C 92.00,67.00 98.00,67.00 98.00,67.00
             98.00,67.00 98.00,64.00 98.00,64.00
             94.51,64.29 93.99,64.03 92.00,67.00 Z
           M 157.00,67.00
           C 157.00,67.00 163.00,67.00 163.00,67.00
             163.00,67.00 163.00,64.00 163.00,64.00
             159.51,64.29 158.99,64.03 157.00,67.00 Z
           M 193.73,72.35
           C 196.12,71.36 197.73,65.00 192.09,64.74
             186.64,68.24 190.28,73.79 193.73,72.35 Z
           M 341.00,67.00
           C 341.00,67.00 347.00,67.00 347.00,67.00
             347.00,67.00 347.00,64.00 347.00,64.00
             343.51,64.29 342.99,64.03 341.00,67.00 Z
           M 418.00,67.00
           C 418.00,67.00 424.00,67.00 424.00,67.00
             424.00,67.00 424.00,64.00 424.00,64.00
             420.51,64.29 419.99,64.03 418.00,67.00 Z
           M 468.91,72.26
           C 472.17,71.34 473.41,65.02 467.30,64.74
             463.22,67.84 465.54,73.21 468.91,72.26 Z
           M 285.00,73.00
           C 288.54,72.38 288.80,72.42 290.00,69.00
             286.46,69.62 286.20,69.58 285.00,73.00 Z
           M 357.00,73.00
           C 360.54,72.38 360.80,72.42 362.00,69.00
             358.46,69.62 358.20,69.58 357.00,73.00 Z
           M 95.00,101.00
           C 91.94,100.83 91.17,100.06 91.00,97.00
             94.07,98.07 93.93,97.93 95.00,101.00 Z
           M 301.00,101.00
           C 297.94,100.83 297.17,100.06 297.00,97.00
             300.07,98.07 299.93,97.93 301.00,101.00 Z
           M 84.10,98.00
           C 84.10,98.00 84.10,112.00 84.10,112.00
             84.10,112.00 86.00,121.00 86.00,121.00
             86.00,121.00 82.02,118.58 82.02,118.58
             82.02,118.58 81.00,98.00 81.00,98.00
             81.00,98.00 84.10,98.00 84.10,98.00 Z
           M 282.00,98.00
           C 282.00,98.00 283.00,111.00 283.00,111.00
             286.68,106.82 287.33,104.93 293.00,104.00
             286.21,114.01 289.10,110.78 293.00,121.00
             288.11,120.18 287.47,118.56 286.00,114.00
             286.00,114.00 282.00,121.00 282.00,121.00
             282.00,121.00 279.00,121.00 279.00,121.00
             279.00,121.00 279.00,98.00 279.00,98.00
             279.00,98.00 282.00,98.00 282.00,98.00 Z
           M 379.10,98.00
           C 379.10,98.00 379.10,112.00 379.10,112.00
             379.10,112.00 381.00,121.00 381.00,121.00
             381.00,121.00 377.02,118.58 377.02,118.58
             377.02,118.58 376.00,98.00 376.00,98.00
             376.00,98.00 379.10,98.00 379.10,98.00 Z
           M 458.00,98.00
           C 458.00,98.00 458.00,106.00 458.00,106.00
             459.87,105.53 463.02,104.43 464.85,104.95
             469.39,106.24 468.00,117.17 468.00,121.00
             468.00,121.00 465.00,121.00 465.00,121.00
             465.00,118.32 465.66,110.46 462.59,109.34
             457.39,107.44 458.00,118.55 458.00,121.00
             458.00,121.00 455.00,121.00 455.00,121.00
             455.00,121.00 455.00,98.00 455.00,98.00
             455.00,98.00 458.00,98.00 458.00,98.00 Z
           M 446.00,100.00
           C 446.00,100.00 446.00,104.00 446.00,104.00
             446.00,104.00 450.00,104.00 450.00,104.00
             450.00,104.00 450.00,108.00 450.00,108.00
             450.00,108.00 446.00,108.00 446.00,108.00
             446.06,112.68 445.61,114.52 450.00,117.00
             448.04,122.53 444.14,120.49 442.72,115.96
             442.72,115.96 441.78,111.09 441.78,111.09
             439.93,102.79 440.81,107.80 443.00,100.00
             443.00,100.00 446.00,100.00 446.00,100.00 Z
           M 20.00,120.24
           C 12.27,121.42 7.66,108.68 18.02,104.84
             29.40,104.83 28.48,118.96 20.00,120.24 Z
           M 35.00,104.00
           C 35.00,106.46 34.24,115.80 38.08,115.80
             41.88,115.80 41.00,106.45 41.00,104.00
             41.00,104.00 45.00,104.00 45.00,104.00
             45.00,104.00 45.00,121.00 45.00,121.00
             45.00,121.00 42.00,118.00 42.00,118.00
             42.00,118.00 38.00,119.83 38.00,119.83
             29.84,122.13 32.00,108.68 32.00,104.00
             32.00,104.00 35.00,104.00 35.00,104.00 Z
           M 54.00,107.00
           C 54.00,107.00 61.00,104.00 61.00,104.00
             61.00,104.00 55.17,112.05 55.17,112.05
             55.17,112.05 54.00,121.00 54.00,121.00
             54.00,121.00 51.00,121.00 51.00,121.00
             51.00,121.00 51.00,104.00 51.00,104.00
             51.00,104.00 54.00,107.00 54.00,107.00 Z
           M 94.00,104.00
           C 94.00,104.00 94.00,121.00 94.00,121.00
             94.00,121.00 91.00,121.00 91.00,121.00
             91.00,121.00 91.00,104.00 91.00,104.00
             91.00,104.00 94.00,104.00 94.00,104.00 Z
           M 107.00,117.00
           C 108.94,112.45 108.96,105.82 114.00,104.00
             113.50,107.21 110.95,118.23 108.49,119.98
             107.13,120.94 105.56,120.87 104.00,121.00
             104.00,121.00 99.00,104.00 99.00,104.00
             105.34,105.09 103.46,108.66 107.00,117.00 Z
           M 123.02,120.13
           C 121.63,119.99 120.47,119.47 119.43,118.49
             110.71,110.23 126.22,97.71 129.79,109.05
             130.02,110.58 129.96,112.42 129.79,114.00
             129.79,114.00 121.00,114.00 121.00,114.00
             124.08,117.04 124.78,116.85 129.00,117.00
             129.00,117.00 129.00,120.13 129.00,120.13
             127.25,120.19 124.71,120.60 123.02,120.13 Z
           M 134.96,109.91
           C 134.09,106.16 139.07,102.04 145.00,107.00
             145.00,107.00 138.00,108.00 138.00,108.00
             139.74,109.87 143.75,112.47 144.34,114.22
             146.63,120.90 137.93,120.54 134.00,119.00
             134.00,119.00 135.00,116.00 135.00,116.00
             135.00,116.00 142.00,117.00 142.00,117.00
             139.94,114.79 135.52,112.29 134.96,109.91 Z
           M 202.00,120.24
           C 194.27,121.42 189.66,108.68 200.02,104.84
             211.40,104.83 210.48,118.96 202.00,120.24 Z
           M 217.00,104.00
           C 217.00,106.46 216.24,115.80 220.08,115.80
             223.88,115.80 223.00,106.45 223.00,104.00
             223.00,104.00 227.00,104.00 227.00,104.00
             227.00,104.00 227.00,121.00 227.00,121.00
             227.00,121.00 224.00,118.00 224.00,118.00
             224.00,118.00 220.00,119.83 220.00,119.83
             211.84,122.13 214.00,108.68 214.00,104.00
             214.00,104.00 217.00,104.00 217.00,104.00 Z
           M 236.00,107.00
           C 236.00,107.00 243.00,104.00 243.00,104.00
             243.00,104.00 237.17,112.05 237.17,112.05
             237.17,112.05 236.00,121.00 236.00,121.00
             236.00,121.00 233.00,121.00 233.00,121.00
             233.00,121.00 233.00,104.00 233.00,104.00
             233.00,104.00 236.00,107.00 236.00,107.00 Z
           M 263.96,109.91
           C 263.09,106.16 268.07,102.04 274.00,107.00
             274.00,107.00 267.00,108.00 267.00,108.00
             268.74,109.87 272.75,112.47 273.34,114.22
             275.63,120.90 266.93,120.54 263.00,119.00
             263.00,119.00 264.00,116.00 264.00,116.00
             264.00,116.00 271.00,117.00 271.00,117.00
             268.94,114.79 264.52,112.29 263.96,109.91 Z
           M 300.00,104.00
           C 300.00,104.00 300.00,121.00 300.00,121.00
             300.00,121.00 297.00,121.00 297.00,121.00
             297.00,121.00 297.00,104.00 297.00,104.00
             297.00,104.00 300.00,104.00 300.00,104.00 Z
           M 316.69,105.28
           C 320.09,107.16 319.00,117.41 319.00,121.00
             319.00,121.00 316.00,121.00 316.00,121.00
             316.00,118.32 316.66,110.46 313.59,109.34
             308.39,107.44 309.00,118.55 309.00,121.00
             309.00,121.00 306.00,121.00 306.00,121.00
             306.00,121.00 306.00,104.00 306.00,104.00
             306.00,104.00 316.69,105.28 316.69,105.28 Z
           M 349.00,120.33
           C 342.67,120.19 340.02,111.92 343.74,107.42
             346.54,104.01 351.27,103.27 353.00,108.00
             344.38,109.41 344.95,116.66 353.00,116.00
             353.00,116.00 354.00,119.00 354.00,119.00
             352.28,119.68 350.93,120.37 349.00,120.33 Z
           M 365.00,120.24
           C 357.27,121.42 352.66,108.68 363.02,104.84
             374.40,104.83 373.48,118.96 365.00,120.24 Z
           M 393.00,120.24
           C 385.27,121.42 380.66,108.68 391.02,104.84
             402.40,104.83 401.48,118.96 393.00,120.24 Z
           M 408.00,107.00
           C 408.00,107.00 415.00,104.00 415.00,104.00
             415.00,104.00 409.17,112.05 409.17,112.05
             409.17,112.05 408.00,121.00 408.00,121.00
             408.00,121.00 405.00,121.00 405.00,121.00
             405.00,121.00 405.00,104.00 405.00,104.00
             405.00,104.00 408.00,107.00 408.00,107.00 Z
           M 480.02,120.13
           C 478.63,119.99 477.47,119.47 476.43,118.49
             467.71,110.23 483.22,97.71 486.79,109.05
             487.02,110.58 486.96,112.42 486.79,114.00
             486.79,114.00 478.00,114.00 478.00,114.00
             481.08,117.04 481.78,116.85 486.00,117.00
             486.00,117.00 486.00,120.13 486.00,120.13
             484.25,120.19 481.71,120.60 480.02,120.13 Z
           M 19.91,116.26
           C 23.17,115.34 24.41,109.02 18.30,108.74
             14.22,111.84 16.54,117.21 19.91,116.26 Z
           M 121.00,111.00
           C 121.00,111.00 127.00,111.00 127.00,111.00
             127.00,111.00 127.00,108.00 127.00,108.00
             123.51,108.29 122.99,108.03 121.00,111.00 Z
           M 201.91,116.26
           C 205.17,115.34 206.41,109.02 200.30,108.74
             196.22,111.84 198.54,117.21 201.91,116.26 Z
           M 364.91,116.26
           C 368.17,115.34 369.41,109.02 363.30,108.74
             359.22,111.84 361.54,117.21 364.91,116.26 Z
           M 392.91,116.26
           C 396.17,115.34 397.41,109.02 391.30,108.74
             387.22,111.84 389.54,117.21 392.91,116.26 Z
           M 478.00,111.00
           C 478.00,111.00 484.00,111.00 484.00,111.00
             484.00,111.00 484.00,108.00 484.00,108.00
             480.51,108.29 479.99,108.03 478.00,111.00 Z
           M 173.00,111.00
           C 173.00,111.00 173.00,114.00 173.00,114.00
             173.00,114.00 166.00,114.00 166.00,114.00
             166.00,114.00 166.00,111.00 166.00,111.00
             166.00,111.00 173.00,111.00 173.00,111.00 Z
           M 414.00,126.00
           C 414.00,126.00 418.00,121.00 418.00,121.00
             418.00,121.00 415.00,116.00 415.00,116.00
             422.69,117.35 420.72,125.59 414.00,126.00 Z
           M 16.10,141.00
           C 16.10,141.00 16.10,155.00 16.10,155.00
             16.10,155.00 18.00,164.00 18.00,164.00
             18.00,164.00 14.02,161.58 14.02,161.58
             14.02,161.58 13.00,141.00 13.00,141.00
             13.00,141.00 16.10,141.00 16.10,141.00 Z
           M 73.00,141.00
           C 73.00,141.00 73.00,164.00 73.00,164.00
             73.00,164.00 70.00,162.00 70.00,162.00
             67.78,162.66 65.39,163.62 63.11,162.64
             58.01,160.47 57.89,151.76 62.23,148.89
             64.90,146.94 67.29,148.05 70.00,148.89
             70.00,148.89 70.00,141.00 70.00,141.00
             70.00,141.00 73.00,141.00 73.00,141.00 Z
           M 230.00,143.00
           C 230.00,143.00 230.00,147.00 230.00,147.00
             230.00,147.00 234.00,147.00 234.00,147.00
             234.00,147.00 234.00,151.00 234.00,151.00
             234.00,151.00 230.00,151.00 230.00,151.00
             230.06,155.68 229.61,157.52 234.00,160.00
             232.04,165.53 228.14,163.49 226.72,158.96
             226.72,158.96 225.78,154.09 225.78,154.09
             223.93,145.79 224.81,150.80 227.00,143.00
             227.00,143.00 230.00,143.00 230.00,143.00 Z
           M 34.26,151.07
           C 35.31,153.52 35.00,161.04 35.00,164.00
             35.00,164.00 24.32,162.16 24.32,162.16
             23.30,161.42 22.63,160.28 22.63,159.00
             22.63,154.70 27.87,154.18 31.00,154.00
             27.83,150.96 27.15,151.58 23.00,151.07
             25.80,146.85 32.04,146.08 34.26,151.07 Z
           M 51.69,148.28
           C 55.09,150.16 54.00,160.41 54.00,164.00
             54.00,164.00 51.00,164.00 51.00,164.00
             51.00,161.32 51.66,153.46 48.59,152.34
             43.39,150.44 44.00,161.55 44.00,164.00
             44.00,164.00 41.00,164.00 41.00,164.00
             41.00,164.00 41.00,147.00 41.00,147.00
             41.00,147.00 51.69,148.28 51.69,148.28 Z
           M 94.00,163.24
           C 86.27,164.42 81.66,151.68 92.02,147.84
             103.40,147.83 102.48,161.96 94.00,163.24 Z
           M 109.00,150.00
           C 109.00,150.00 116.00,147.00 116.00,147.00
             116.00,147.00 110.17,155.05 110.17,155.05
             110.17,155.05 109.00,164.00 109.00,164.00
             109.00,164.00 106.00,164.00 106.00,164.00
             106.00,164.00 106.00,147.00 106.00,147.00
             106.00,147.00 109.00,150.00 109.00,150.00 Z
           M 133.00,163.33
           C 126.67,163.19 124.02,154.92 127.74,150.42
             130.54,147.01 135.27,146.27 137.00,151.00
             128.38,152.41 128.95,159.66 137.00,159.00
             137.00,159.00 138.00,162.00 138.00,162.00
             136.28,162.68 134.93,163.37 133.00,163.33 Z
           M 149.00,163.24
           C 141.27,164.42 136.66,151.68 147.02,147.84
             158.40,147.83 157.48,161.96 149.00,163.24 Z
           M 170.69,148.28
           C 174.09,150.16 173.00,160.41 173.00,164.00
             173.00,164.00 170.00,164.00 170.00,164.00
             170.00,161.32 170.66,153.46 167.59,152.34
             162.39,150.44 163.00,161.55 163.00,164.00
             163.00,164.00 160.00,164.00 160.00,164.00
             160.00,164.00 160.00,147.00 160.00,147.00
             160.00,147.00 170.69,148.28 170.69,148.28 Z
           M 185.00,163.33
           C 178.67,163.19 176.02,154.92 179.74,150.42
             182.54,147.01 187.27,146.27 189.00,151.00
             180.38,152.41 180.95,159.66 189.00,159.00
             189.00,159.00 190.00,162.00 190.00,162.00
             188.28,162.68 186.93,163.37 185.00,163.33 Z
           M 199.00,150.00
           C 199.00,150.00 206.00,147.00 206.00,147.00
             206.00,147.00 200.17,155.05 200.17,155.05
             200.17,155.05 199.00,164.00 199.00,164.00
             199.00,164.00 196.00,164.00 196.00,164.00
             196.00,164.00 196.00,147.00 196.00,147.00
             196.00,147.00 199.00,150.00 199.00,150.00 Z
           M 214.02,163.13
           C 212.63,162.99 211.47,162.47 210.43,161.49
             201.71,153.23 217.22,140.71 220.79,152.05
             221.02,153.58 220.96,155.42 220.79,157.00
             220.79,157.00 212.00,157.00 212.00,157.00
             215.08,160.04 215.78,159.85 220.00,160.00
             220.00,160.00 220.00,163.13 220.00,163.13
             218.25,163.19 215.71,163.60 214.02,163.13 Z
           M 243.02,163.13
           C 241.63,162.99 240.47,162.47 239.43,161.49
             230.71,153.23 246.22,140.71 249.79,152.05
             250.02,153.58 249.96,155.42 249.79,157.00
             249.79,157.00 241.00,157.00 241.00,157.00
             244.08,160.04 244.78,159.85 249.00,160.00
             249.00,160.00 249.00,163.13 249.00,163.13
             247.25,163.19 244.71,163.60 243.02,163.13 Z
           M 265.00,147.00
           C 265.00,147.00 268.00,160.00 268.00,160.00
             268.00,160.00 271.00,147.00 271.00,147.00
             271.00,147.00 275.00,147.00 275.00,147.00
             275.00,147.00 279.00,160.00 279.00,160.00
             279.37,155.43 279.19,148.88 284.00,147.00
             284.00,147.00 281.00,164.00 281.00,164.00
             274.08,163.45 274.50,159.08 274.00,153.00
             274.00,153.00 272.00,153.00 272.00,153.00
             271.50,159.08 271.92,163.45 265.00,164.00
             265.00,164.00 262.00,147.00 262.00,147.00
             262.00,147.00 265.00,147.00 265.00,147.00 Z
           M 294.02,163.13
           C 292.63,162.99 291.47,162.47 290.43,161.49
             281.71,153.23 297.22,140.71 300.79,152.05
             301.02,153.58 300.96,155.42 300.79,157.00
             300.79,157.00 292.00,157.00 292.00,157.00
             295.08,160.04 295.78,159.85 300.00,160.00
             300.00,160.00 300.00,163.13 300.00,163.13
             298.25,163.19 295.71,163.60 294.02,163.13 Z
           M 327.29,162.51
           C 330.54,166.83 322.32,171.52 317.15,169.26
             315.97,168.74 315.15,168.05 314.87,166.81
             314.20,165.37 314.89,163.25 314.87,161.72
             315.62,155.55 313.23,152.52 315.75,149.70
             318.34,146.80 324.43,147.01 328.00,147.00
             326.51,153.33 325.32,157.56 318.00,157.00
             318.00,157.00 317.00,160.00 317.00,160.00
             319.97,160.03 325.31,159.86 327.29,162.51 Z
           M 336.00,150.00
           C 336.00,150.00 343.00,147.00 343.00,147.00
             343.00,147.00 337.17,155.05 337.17,155.05
             337.17,155.05 336.00,164.00 336.00,164.00
             336.00,164.00 333.00,164.00 333.00,164.00
             333.00,164.00 333.00,147.00 333.00,147.00
             333.00,147.00 336.00,150.00 336.00,150.00 Z
           M 351.02,163.13
           C 349.63,162.99 348.47,162.47 347.43,161.49
             338.71,153.23 354.22,140.71 357.79,152.05
             358.02,153.58 357.96,155.42 357.79,157.00
             357.79,157.00 349.00,157.00 349.00,157.00
             352.08,160.04 352.78,159.85 357.00,160.00
             357.00,160.00 357.00,163.13 357.00,163.13
             355.25,163.19 352.71,163.60 351.02,163.13 Z
           M 365.00,147.00
           C 365.00,147.00 368.00,160.00 368.00,160.00
             368.00,160.00 371.00,147.00 371.00,147.00
             371.00,147.00 375.00,147.00 375.00,147.00
             375.00,147.00 379.00,160.00 379.00,160.00
             379.37,155.43 379.19,148.88 384.00,147.00
             384.00,147.00 381.00,164.00 381.00,164.00
             374.08,163.45 374.50,159.08 374.00,153.00
             374.00,153.00 372.00,153.00 372.00,153.00
             371.50,159.08 371.92,163.45 365.00,164.00
             365.00,164.00 362.00,147.00 362.00,147.00
             362.00,147.00 365.00,147.00 365.00,147.00 Z
           M 400.00,147.00
           C 400.00,149.46 399.24,158.80 403.08,158.80
             406.88,158.80 406.00,149.45 406.00,147.00
             406.00,147.00 410.00,147.00 410.00,147.00
             410.00,147.00 410.00,164.00 410.00,164.00
             410.00,164.00 407.00,161.00 407.00,161.00
             407.00,161.00 403.00,162.83 403.00,162.83
             394.84,165.13 397.00,151.68 397.00,147.00
             397.00,147.00 400.00,147.00 400.00,147.00 Z
           M 419.00,149.00
           C 421.26,148.33 423.60,147.39 425.94,148.36
             431.06,150.48 431.20,159.28 426.77,162.09
             424.33,163.77 422.42,162.87 420.00,162.09
             420.00,162.09 419.00,170.00 419.00,170.00
             419.00,170.00 416.00,170.00 416.00,170.00
             416.00,170.00 416.00,147.00 416.00,147.00
             416.00,147.00 419.00,149.00 419.00,149.00 Z
           M 450.00,163.24
           C 442.27,164.42 437.66,151.68 448.02,147.84
             459.40,147.83 458.48,161.96 450.00,163.24 Z
           M 472.69,148.28
           C 476.09,150.16 475.00,160.41 475.00,164.00
             475.00,164.00 472.00,164.00 472.00,164.00
             472.00,161.32 472.66,153.46 469.59,152.34
             464.39,150.44 465.00,161.55 465.00,164.00
             465.00,164.00 462.00,164.00 462.00,164.00
             462.00,164.00 462.00,147.00 462.00,147.00
             462.00,147.00 472.69,148.28 472.69,148.28 Z
           M 67.59,159.37
           C 70.08,158.36 71.86,151.12 65.30,151.66
             60.85,155.28 64.08,160.80 67.59,159.37 Z
           M 93.91,159.26
           C 97.17,158.34 98.41,152.02 92.30,151.74
             88.22,154.84 90.54,160.21 93.91,159.26 Z
           M 148.91,159.26
           C 152.17,158.34 153.41,152.02 147.30,151.74
             143.22,154.84 145.54,160.21 148.91,159.26 Z
           M 212.00,154.00
           C 212.00,154.00 218.00,154.00 218.00,154.00
             218.00,154.00 218.00,151.00 218.00,151.00
             214.51,151.29 213.99,151.03 212.00,154.00 Z
           M 241.00,154.00
           C 241.00,154.00 247.00,154.00 247.00,154.00
             247.00,154.00 247.00,151.00 247.00,151.00
             243.51,151.29 242.99,151.03 241.00,154.00 Z
           M 292.00,154.00
           C 292.00,154.00 298.00,154.00 298.00,154.00
             298.00,154.00 298.00,151.00 298.00,151.00
             294.51,151.29 293.99,151.03 292.00,154.00 Z
           M 349.00,154.00
           C 349.00,154.00 355.00,154.00 355.00,154.00
             355.00,154.00 355.00,151.00 355.00,151.00
             351.51,151.29 350.99,151.03 349.00,154.00 Z
           M 423.73,159.35
           C 426.12,158.36 427.73,152.00 422.09,151.74
             416.64,155.24 420.28,160.79 423.73,159.35 Z
           M 449.91,159.26
           C 453.17,158.34 454.41,152.02 448.30,151.74
             444.22,154.84 446.54,160.21 449.91,159.26 Z
           M 26.00,160.00
           C 29.54,159.38 29.80,159.42 31.00,156.00
             27.46,156.62 27.20,156.58 26.00,160.00 Z
           M 480.00,169.00
           C 480.00,169.00 484.00,164.00 484.00,164.00
             484.00,164.00 481.00,159.00 481.00,159.00
             488.69,160.35 486.72,168.59 480.00,169.00 Z
           M 318.00,163.00
           C 318.00,163.00 317.00,167.00 317.00,167.00
             320.95,166.95 322.66,167.50 325.00,164.00
             325.00,164.00 318.00,163.00 318.00,163.00 Z
           M 251.00,187.00
           C 247.45,186.80 247.20,186.55 247.00,183.00
             250.07,184.07 249.93,183.93 251.00,187.00 Z
           M 396.00,184.00
           C 396.00,184.00 391.00,190.00 391.00,190.00
             393.71,191.13 393.45,191.13 394.00,194.00
             394.00,194.00 391.00,194.00 391.00,194.00
             391.00,194.00 391.00,207.00 391.00,207.00
             391.00,207.00 388.00,207.00 388.00,207.00
             388.00,202.29 389.29,196.87 385.00,194.00
             386.68,188.06 389.15,183.12 396.00,184.00 Z
           M 164.10,184.00
           C 164.10,184.00 164.10,198.00 164.10,198.00
             164.10,198.00 166.00,207.00 166.00,207.00
             166.00,207.00 162.02,204.58 162.02,204.58
             162.02,204.58 161.00,184.00 161.00,184.00
             161.00,184.00 164.10,184.00 164.10,184.00 Z
           M 184.10,184.00
           C 184.10,184.00 184.10,198.00 184.10,198.00
             184.10,198.00 186.00,207.00 186.00,207.00
             186.00,207.00 182.02,204.58 182.02,204.58
             182.02,204.58 181.00,184.00 181.00,184.00
             181.00,184.00 184.10,184.00 184.10,184.00 Z
           M 361.10,184.00
           C 361.10,184.00 361.10,198.00 361.10,198.00
             361.10,198.00 363.00,207.00 363.00,207.00
             363.00,207.00 359.02,204.58 359.02,204.58
             359.02,204.58 358.00,184.00 358.00,184.00
             358.00,184.00 361.10,184.00 361.10,184.00 Z
           M 370.10,184.00
           C 370.10,184.00 370.10,198.00 370.10,198.00
             370.10,198.00 372.00,207.00 372.00,207.00
             372.00,207.00 368.02,204.58 368.02,204.58
             368.02,204.58 367.00,184.00 367.00,184.00
             367.00,184.00 370.10,184.00 370.10,184.00 Z
           M 465.00,186.00
           C 465.00,186.00 465.00,190.00 465.00,190.00
             465.00,190.00 469.00,190.00 469.00,190.00
             469.00,190.00 469.00,194.00 469.00,194.00
             469.00,194.00 465.00,194.00 465.00,194.00
             465.06,198.68 464.61,200.52 469.00,203.00
             467.04,208.53 463.14,206.49 461.72,201.96
             461.72,201.96 460.78,197.09 460.78,197.09
             458.93,188.79 459.81,193.80 462.00,186.00
             462.00,186.00 465.00,186.00 465.00,186.00 Z
           M 20.00,206.24
           C 12.27,207.42 7.66,194.68 18.02,190.84
             29.40,190.83 28.48,204.96 20.00,206.24 Z
           M 35.00,190.00
           C 35.00,192.46 34.24,201.80 38.08,201.80
             41.88,201.80 41.00,192.45 41.00,190.00
             41.00,190.00 45.00,190.00 45.00,190.00
             45.00,190.00 45.00,207.00 45.00,207.00
             45.00,207.00 42.00,204.00 42.00,204.00
             42.00,204.00 38.00,205.83 38.00,205.83
             29.84,208.13 32.00,194.68 32.00,190.00
             32.00,190.00 35.00,190.00 35.00,190.00 Z
           M 54.00,193.00
           C 54.00,193.00 61.00,190.00 61.00,190.00
             61.00,190.00 55.17,198.05 55.17,198.05
             55.17,198.05 54.00,207.00 54.00,207.00
             54.00,207.00 51.00,207.00 51.00,207.00
             51.00,207.00 51.00,190.00 51.00,190.00
             51.00,190.00 54.00,193.00 54.00,193.00 Z
           M 74.96,195.91
           C 74.09,192.16 79.07,188.04 85.00,193.00
             85.00,193.00 78.00,194.00 78.00,194.00
             79.74,195.87 83.75,198.47 84.34,200.22
             86.63,206.90 77.93,206.54 74.00,205.00
             74.00,205.00 75.00,202.00 75.00,202.00
             75.00,202.00 82.00,203.00 82.00,203.00
             79.94,200.79 75.52,198.29 74.96,195.91 Z
           M 95.02,206.13
           C 93.63,205.99 92.47,205.47 91.43,204.49
             82.71,196.23 98.22,183.71 101.79,195.05
             102.02,196.58 101.96,198.42 101.79,200.00
             101.79,200.00 93.00,200.00 93.00,200.00
             96.08,203.04 96.78,202.85 101.00,203.00
             101.00,203.00 101.00,206.13 101.00,206.13
             99.25,206.19 96.71,206.60 95.02,206.13 Z
           M 112.00,196.00
           C 112.00,196.00 114.00,196.00 114.00,196.00
             115.17,191.65 115.45,190.79 120.00,190.00
             114.71,199.97 115.20,197.01 120.00,207.00
             115.05,206.15 114.97,204.87 112.00,201.00
             110.21,204.80 110.08,205.66 106.00,207.00
             109.21,195.70 110.18,201.52 106.00,190.00
             110.45,190.76 110.72,191.81 112.00,196.00 Z
           M 127.00,190.00
           C 127.00,192.46 126.24,201.80 130.08,201.80
             133.88,201.80 133.00,192.45 133.00,190.00
             133.00,190.00 137.00,190.00 137.00,190.00
             137.00,190.00 137.00,207.00 137.00,207.00
             137.00,207.00 134.00,204.00 134.00,204.00
             134.00,204.00 130.00,205.83 130.00,205.83
             121.84,208.13 124.00,194.68 124.00,190.00
             124.00,190.00 127.00,190.00 127.00,190.00 Z
           M 154.26,194.07
           C 155.31,196.52 155.00,204.04 155.00,207.00
             155.00,207.00 144.32,205.16 144.32,205.16
             143.30,204.42 142.63,203.28 142.63,202.00
             142.63,197.70 147.87,197.18 151.00,197.00
             147.83,193.96 147.15,194.58 143.00,194.07
             145.80,189.85 152.04,189.08 154.26,194.07 Z
           M 198.00,206.24
           C 190.27,207.42 185.66,194.68 196.02,190.84
             207.40,190.83 206.48,204.96 198.00,206.24 Z
           M 219.69,191.28
           C 223.09,193.16 222.00,203.41 222.00,207.00
             222.00,207.00 219.00,207.00 219.00,207.00
             219.00,204.32 219.66,196.46 216.59,195.34
             211.39,193.44 212.00,204.55 212.00,207.00
             212.00,207.00 209.00,207.00 209.00,207.00
             209.00,207.00 209.00,190.00 209.00,190.00
             209.00,190.00 219.69,191.28 219.69,191.28 Z
           M 241.29,205.51
           C 244.54,209.83 236.32,214.52 231.15,212.26
             229.97,211.74 229.15,211.05 228.87,209.81
             228.20,208.37 228.89,206.25 228.87,204.72
             229.62,198.55 227.23,195.52 229.75,192.70
             232.34,189.80 238.43,190.01 242.00,190.00
             240.51,196.33 239.32,200.56 232.00,200.00
             232.00,200.00 231.00,203.00 231.00,203.00
             233.97,203.03 239.31,202.86 241.29,205.51 Z
           M 250.00,190.00
           C 250.00,190.00 250.00,207.00 250.00,207.00
             250.00,207.00 247.00,207.00 247.00,207.00
             247.00,207.00 247.00,190.00 247.00,190.00
             247.00,190.00 250.00,190.00 250.00,190.00 Z
           M 266.69,191.28
           C 270.09,193.16 269.00,203.41 269.00,207.00
             269.00,207.00 266.00,207.00 266.00,207.00
             266.00,204.32 266.66,196.46 263.59,195.34
             258.39,193.44 259.00,204.55 259.00,207.00
             259.00,207.00 256.00,207.00 256.00,207.00
             256.00,207.00 256.00,190.00 256.00,190.00
             256.00,190.00 266.69,191.28 266.69,191.28 Z
           M 287.29,205.51
           C 290.54,209.83 282.32,214.52 277.15,212.26
             275.97,211.74 275.15,211.05 274.87,209.81
             274.20,208.37 274.89,206.25 274.87,204.72
             275.62,198.55 273.23,195.52 275.75,192.70
             278.34,189.80 284.43,190.01 288.00,190.00
             286.51,196.33 285.32,200.56 278.00,200.00
             278.00,200.00 277.00,203.00 277.00,203.00
             279.97,203.03 285.31,202.86 287.29,205.51 Z
           M 292.96,195.91
           C 292.09,192.16 297.07,188.04 303.00,193.00
             303.00,193.00 296.00,194.00 296.00,194.00
             297.74,195.87 301.75,198.47 302.34,200.22
             304.63,206.90 295.93,206.54 292.00,205.00
             292.00,205.00 293.00,202.00 293.00,202.00
             293.00,202.00 300.00,203.00 300.00,203.00
             297.94,200.79 293.52,198.29 292.96,195.91 Z
           M 351.26,194.07
           C 352.31,196.52 352.00,204.04 352.00,207.00
             352.00,207.00 341.32,205.16 341.32,205.16
             340.30,204.42 339.63,203.28 339.63,202.00
             339.63,197.70 344.87,197.18 348.00,197.00
             344.83,193.96 344.15,194.58 340.00,194.07
             342.80,189.85 349.04,189.08 351.26,194.07 Z
           M 402.00,190.00
           C 402.00,192.46 401.24,201.80 405.08,201.80
             408.88,201.80 408.00,192.45 408.00,190.00
             408.00,190.00 412.00,190.00 412.00,190.00
             412.00,190.00 412.00,207.00 412.00,207.00
             412.00,207.00 409.00,204.00 409.00,204.00
             409.00,204.00 405.00,205.83 405.00,205.83
             396.84,208.13 399.00,194.68 399.00,190.00
             399.00,190.00 402.00,190.00 402.00,190.00 Z
           M 417.96,195.91
           C 417.09,192.16 422.07,188.04 428.00,193.00
             428.00,193.00 421.00,194.00 421.00,194.00
             422.74,195.87 426.75,198.47 427.34,200.22
             429.63,206.90 420.93,206.54 417.00,205.00
             417.00,205.00 418.00,202.00 418.00,202.00
             418.00,202.00 425.00,203.00 425.00,203.00
             422.94,200.79 418.52,198.29 417.96,195.91 Z
           M 438.02,206.13
           C 436.63,205.99 435.47,205.47 434.43,204.49
             425.71,196.23 441.22,183.71 444.79,195.05
             445.02,196.58 444.96,198.42 444.79,200.00
             444.79,200.00 436.00,200.00 436.00,200.00
             439.08,203.04 439.78,202.85 444.00,203.00
             444.00,203.00 444.00,206.13 444.00,206.13
             442.25,206.19 439.71,206.60 438.02,206.13 Z
           M 480.00,206.24
           C 472.27,207.42 467.66,194.68 478.02,190.84
             489.40,190.83 488.48,204.96 480.00,206.24 Z
           M 19.91,202.26
           C 23.17,201.34 24.41,195.02 18.30,194.74
             14.22,197.84 16.54,203.21 19.91,202.26 Z
           M 93.00,197.00
           C 93.00,197.00 99.00,197.00 99.00,197.00
             99.00,197.00 99.00,194.00 99.00,194.00
             95.51,194.29 94.99,194.03 93.00,197.00 Z
           M 197.91,202.26
           C 201.17,201.34 202.41,195.02 196.30,194.74
             192.22,197.84 194.54,203.21 197.91,202.26 Z
           M 436.00,197.00
           C 436.00,197.00 442.00,197.00 442.00,197.00
             442.00,197.00 442.00,194.00 442.00,194.00
             438.51,194.29 437.99,194.03 436.00,197.00 Z
           M 479.91,202.26
           C 483.17,201.34 484.41,195.02 478.30,194.74
             474.22,197.84 476.54,203.21 479.91,202.26 Z
           M 325.00,197.00
           C 325.00,197.00 325.00,200.00 325.00,200.00
             325.00,200.00 318.00,200.00 318.00,200.00
             318.00,200.00 318.00,197.00 318.00,197.00
             318.00,197.00 325.00,197.00 325.00,197.00 Z
           M 146.00,203.00
           C 149.54,202.38 149.80,202.42 151.00,199.00
             147.46,199.62 147.20,199.58 146.00,203.00 Z
           M 343.00,203.00
           C 346.54,202.38 346.80,202.42 348.00,199.00
             344.46,199.62 344.20,199.58 343.00,203.00 Z
           M 232.00,206.00
           C 232.00,206.00 231.00,210.00 231.00,210.00
             234.95,209.95 236.66,210.50 239.00,207.00
             239.00,207.00 232.00,206.00 232.00,206.00 Z
           M 278.00,206.00
           C 278.00,206.00 277.00,210.00 277.00,210.00
             280.95,209.95 282.66,210.50 285.00,207.00
             285.00,207.00 278.00,206.00 278.00,206.00 Z
           M 224.00,231.00
           C 220.45,230.80 220.20,230.55 220.00,227.00
             223.07,228.07 222.93,227.93 224.00,231.00 Z
           M 247.00,231.00
           C 243.42,230.80 243.20,230.58 243.00,227.00
             246.07,228.07 245.93,227.93 247.00,231.00 Z
           M 488.00,228.00
           C 488.00,228.00 483.00,234.00 483.00,234.00
             485.71,235.13 485.45,235.13 486.00,238.00
             486.00,238.00 483.00,238.00 483.00,238.00
             483.00,238.00 483.00,251.00 483.00,251.00
             483.00,251.00 480.00,251.00 480.00,251.00
             480.00,246.29 481.29,240.87 477.00,238.00
             478.68,232.06 481.15,227.12 488.00,228.00 Z
           M 213.10,228.00
           C 213.10,228.00 213.10,242.00 213.10,242.00
             213.10,242.00 215.00,251.00 215.00,251.00
             215.00,251.00 211.02,248.58 211.02,248.58
             211.02,248.58 210.00,228.00 210.00,228.00
             210.00,228.00 213.10,228.00 213.10,228.00 Z
           M 295.00,228.00
           C 295.00,228.00 296.00,235.92 296.00,235.92
             298.42,235.23 300.44,234.34 302.85,235.92
             307.36,238.64 306.81,247.55 301.89,249.64
             299.61,250.62 297.22,249.66 295.00,249.00
             295.00,249.00 292.00,251.00 292.00,251.00
             292.00,251.00 292.00,228.00 292.00,228.00
             292.00,228.00 295.00,228.00 295.00,228.00 Z
           M 80.00,230.00
           C 80.00,230.00 80.00,234.00 80.00,234.00
             80.00,234.00 84.00,234.00 84.00,234.00
             84.00,234.00 84.00,238.00 84.00,238.00
             84.00,238.00 80.00,238.00 80.00,238.00
             80.06,242.68 79.61,244.52 84.00,247.00
             82.04,252.53 78.14,250.49 76.72,245.96
             76.72,245.96 75.78,241.09 75.78,241.09
             73.93,232.79 74.81,237.80 77.00,230.00
             77.00,230.00 80.00,230.00 80.00,230.00 Z
           M 233.00,230.00
           C 233.00,230.00 233.00,234.00 233.00,234.00
             233.00,234.00 237.00,234.00 237.00,234.00
             237.00,234.00 237.00,238.00 237.00,238.00
             237.00,238.00 233.00,238.00 233.00,238.00
             233.06,242.68 232.61,244.52 237.00,247.00
             235.04,252.53 231.14,250.49 229.72,245.96
             229.72,245.96 228.78,241.09 228.78,241.09
             226.93,232.79 227.81,237.80 230.00,230.00
             230.00,230.00 233.00,230.00 233.00,230.00 Z
           M 428.00,230.00
           C 428.00,230.00 428.00,234.00 428.00,234.00
             428.00,234.00 432.00,234.00 432.00,234.00
             432.00,234.00 432.00,238.00 432.00,238.00
             432.00,238.00 428.00,238.00 428.00,238.00
             428.06,242.68 427.61,244.52 432.00,247.00
             430.04,252.53 426.14,250.49 424.72,245.96
             424.72,245.96 423.78,241.09 423.78,241.09
             421.93,232.79 422.81,237.80 425.00,230.00
             425.00,230.00 428.00,230.00 428.00,230.00 Z
           M 19.00,250.33
           C 12.67,250.19 10.02,241.92 13.74,237.42
             16.54,234.01 21.27,233.27 23.00,238.00
             14.38,239.41 14.95,246.66 23.00,246.00
             23.00,246.00 24.00,249.00 24.00,249.00
             22.28,249.68 20.93,250.37 19.00,250.33 Z
           M 33.00,237.00
           C 33.00,237.00 40.00,234.00 40.00,234.00
             40.00,234.00 34.17,242.05 34.17,242.05
             34.17,242.05 33.00,251.00 33.00,251.00
             33.00,251.00 30.00,251.00 30.00,251.00
             30.00,251.00 30.00,234.00 30.00,234.00
             30.00,234.00 33.00,237.00 33.00,237.00 Z
           M 47.02,250.13
           C 45.63,249.99 44.47,249.47 43.43,248.49
             34.71,240.23 50.22,227.71 53.79,239.05
             54.02,240.58 53.96,242.42 53.79,244.00
             53.79,244.00 45.00,244.00 45.00,244.00
             48.08,247.04 48.78,246.85 53.00,247.00
             53.00,247.00 53.00,250.13 53.00,250.13
             51.25,250.19 48.71,250.60 47.02,250.13 Z
           M 70.26,238.07
           C 71.31,240.52 71.00,248.04 71.00,251.00
             71.00,251.00 60.32,249.16 60.32,249.16
             59.30,248.42 58.63,247.28 58.63,246.00
             58.63,241.70 63.87,241.18 67.00,241.00
             63.83,237.96 63.15,238.58 59.00,238.07
             61.80,233.85 68.04,233.08 70.26,238.07 Z
           M 94.02,250.13
           C 92.63,249.99 91.47,249.47 90.43,248.49
             81.71,240.23 97.22,227.71 100.79,239.05
             101.02,240.58 100.96,242.42 100.79,244.00
             100.79,244.00 92.00,244.00 92.00,244.00
             95.08,247.04 95.78,246.85 100.00,247.00
             100.00,247.00 100.00,250.13 100.00,250.13
             98.25,250.19 95.71,250.60 94.02,250.13 Z
           M 141.26,238.07
           C 142.31,240.52 142.00,248.04 142.00,251.00
             142.00,251.00 131.32,249.16 131.32,249.16
             130.30,248.42 129.63,247.28 129.63,246.00
             129.63,241.70 134.87,241.18 138.00,241.00
             134.83,237.96 134.15,238.58 130.00,238.07
             132.80,233.85 139.04,233.08 141.26,238.07 Z
           M 175.00,236.00
           C 177.26,235.33 179.60,234.39 181.94,235.36
             187.06,237.48 187.20,246.28 182.77,249.09
             180.33,250.77 178.42,249.87 176.00,249.09
             176.00,249.09 175.00,257.00 175.00,257.00
             175.00,257.00 172.00,257.00 172.00,257.00
             172.00,257.00 172.00,234.00 172.00,234.00
             172.00,234.00 175.00,236.00 175.00,236.00 Z
           M 199.00,250.24
           C 191.27,251.42 186.66,238.68 197.02,234.84
             208.40,234.83 207.48,248.96 199.00,250.24 Z
           M 223.00,234.00
           C 223.00,234.00 223.00,251.00 223.00,251.00
             223.00,251.00 220.00,251.00 220.00,251.00
             220.00,251.00 220.00,234.00 220.00,234.00
             220.00,234.00 223.00,234.00 223.00,234.00 Z
           M 246.00,234.00
           C 246.00,234.00 246.00,251.00 246.00,251.00
             246.00,251.00 243.00,251.00 243.00,251.00
             243.00,251.00 243.00,234.00 243.00,234.00
             243.00,234.00 246.00,234.00 246.00,234.00 Z
           M 258.00,250.33
           C 251.67,250.19 249.02,241.92 252.74,237.42
             255.54,234.01 260.27,233.27 262.00,238.00
             253.38,239.41 253.95,246.66 262.00,246.00
             262.00,246.00 263.00,249.00 263.00,249.00
             261.28,249.68 259.93,250.37 258.00,250.33 Z
           M 318.00,250.24
           C 310.27,251.42 305.66,238.68 316.02,234.84
             327.40,234.83 326.48,248.96 318.00,250.24 Z
           M 333.00,237.00
           C 333.00,237.00 340.00,234.00 340.00,234.00
             340.00,234.00 334.17,242.05 334.17,242.05
             334.17,242.05 333.00,251.00 333.00,251.00
             333.00,251.00 330.00,251.00 330.00,251.00
             330.00,251.00 330.00,234.00 330.00,234.00
             330.00,234.00 333.00,237.00 333.00,237.00 Z
           M 353.69,235.28
           C 357.09,237.16 356.00,247.41 356.00,251.00
             356.00,251.00 353.00,251.00 353.00,251.00
             353.00,248.32 353.66,240.46 350.59,239.34
             345.39,237.44 346.00,248.55 346.00,251.00
             346.00,251.00 343.00,251.00 343.00,251.00
             343.00,251.00 343.00,234.00 343.00,234.00
             343.00,234.00 353.69,235.28 353.69,235.28 Z
           M 394.00,250.24
           C 386.27,251.42 381.66,238.68 392.02,234.84
             403.40,234.83 402.48,248.96 394.00,250.24 Z
           M 408.00,234.00
           C 408.00,236.46 407.24,245.80 411.08,245.80
             414.88,245.80 414.00,236.45 414.00,234.00
             414.00,234.00 418.00,234.00 418.00,234.00
             418.00,234.00 418.00,251.00 418.00,251.00
             418.00,251.00 415.00,248.00 415.00,248.00
             415.00,248.00 411.00,249.83 411.00,249.83
             402.84,252.13 405.00,238.68 405.00,234.00
             405.00,234.00 408.00,234.00 408.00,234.00 Z
           M 469.00,250.24
           C 461.27,251.42 456.66,238.68 467.02,234.84
             478.40,234.83 477.48,248.96 469.00,250.24 Z
           M 45.00,241.00
           C 45.00,241.00 51.00,241.00 51.00,241.00
             51.00,241.00 51.00,238.00 51.00,238.00
             47.51,238.29 46.99,238.03 45.00,241.00 Z
           M 92.00,241.00
           C 92.00,241.00 98.00,241.00 98.00,241.00
             98.00,241.00 98.00,238.00 98.00,238.00
             94.51,238.29 93.99,238.03 92.00,241.00 Z
           M 179.73,246.35
           C 182.12,245.36 183.73,239.00 178.09,238.74
             172.64,242.24 176.28,247.79 179.73,246.35 Z
           M 198.91,246.26
           C 202.17,245.34 203.41,239.02 197.30,238.74
             193.22,241.84 195.54,247.21 198.91,246.26 Z
           M 299.73,246.35
           C 302.12,245.36 303.73,239.00 298.09,238.74
             292.64,242.24 296.28,247.79 299.73,246.35 Z
           M 317.91,246.26
           C 321.17,245.34 322.41,239.02 316.30,238.74
             312.22,241.84 314.54,247.21 317.91,246.26 Z
           M 393.91,246.26
           C 397.17,245.34 398.41,239.02 392.30,238.74
             388.22,241.84 390.54,247.21 393.91,246.26 Z
           M 468.91,246.26
           C 472.17,245.34 473.41,239.02 467.30,238.74
             463.22,241.84 465.54,247.21 468.91,246.26 Z
           M 62.00,247.00
           C 65.54,246.38 65.80,246.42 67.00,243.00
             63.46,243.62 63.20,243.58 62.00,247.00 Z
           M 133.00,247.00
           C 136.54,246.38 136.80,246.42 138.00,243.00
             134.46,243.62 134.20,243.58 133.00,247.00 Z
           M 116.00,274.00
           C 112.42,273.80 112.20,273.58 112.00,270.00
             115.07,271.07 114.93,270.93 116.00,274.00 Z
           M 178.00,272.00
           C 178.00,272.00 178.00,281.00 178.00,281.00
             185.49,280.90 186.90,279.49 187.00,272.00
             187.00,272.00 190.00,272.00 190.00,272.00
             190.00,272.00 190.00,294.00 190.00,294.00
             190.00,294.00 187.00,294.00 187.00,294.00
             187.00,294.00 187.00,285.00 187.00,285.00
             187.00,285.00 178.00,285.00 178.00,285.00
             178.00,285.00 178.00,294.00 178.00,294.00
             178.00,294.00 174.00,294.00 174.00,294.00
             174.00,294.00 174.00,272.00 174.00,272.00
             174.00,272.00 178.00,272.00 178.00,272.00 Z
           M 125.00,273.00
           C 125.00,273.00 125.00,277.00 125.00,277.00
             125.00,277.00 129.00,277.00 129.00,277.00
             129.00,277.00 129.00,281.00 129.00,281.00
             129.00,281.00 125.00,281.00 125.00,281.00
             125.06,285.68 124.61,287.52 129.00,290.00
             127.04,295.53 123.14,293.49 121.72,288.96
             121.72,288.96 120.78,284.09 120.78,284.09
             118.93,275.79 119.81,280.80 122.00,273.00
             122.00,273.00 125.00,273.00 125.00,273.00 Z
           M 348.00,273.00
           C 348.00,273.00 348.00,277.00 348.00,277.00
             348.00,277.00 352.00,277.00 352.00,277.00
             352.00,277.00 352.00,281.00 352.00,281.00
             352.00,281.00 348.00,281.00 348.00,281.00
             348.06,285.68 347.61,287.52 352.00,290.00
             350.04,295.53 346.14,293.49 344.72,288.96
             344.72,288.96 343.78,284.09 343.78,284.09
             341.93,275.79 342.81,280.80 345.00,273.00
             345.00,273.00 348.00,273.00 348.00,273.00 Z
           M 361.00,273.00
           C 361.00,273.00 361.00,277.00 361.00,277.00
             361.00,277.00 365.00,277.00 365.00,277.00
             365.00,277.00 365.00,281.00 365.00,281.00
             365.00,281.00 361.00,281.00 361.00,281.00
             361.06,285.68 360.61,287.52 365.00,290.00
             363.04,295.53 359.14,293.49 357.72,288.96
             357.72,288.96 356.78,284.09 356.78,284.09
             354.93,275.79 355.81,280.80 358.00,273.00
             358.00,273.00 361.00,273.00 361.00,273.00 Z
           M 438.00,273.00
           C 438.00,273.00 438.00,277.00 438.00,277.00
             438.00,277.00 442.00,277.00 442.00,277.00
             442.00,277.00 442.00,281.00 442.00,281.00
             442.00,281.00 438.00,281.00 438.00,281.00
             438.06,285.68 437.61,287.52 442.00,290.00
             440.04,295.53 436.14,293.49 434.72,288.96
             434.72,288.96 433.78,284.09 433.78,284.09
             431.93,275.79 432.81,280.80 435.00,273.00
             435.00,273.00 438.00,273.00 438.00,273.00 Z
           M 465.00,273.00
           C 465.00,273.00 465.00,277.00 465.00,277.00
             465.00,277.00 469.00,277.00 469.00,277.00
             469.00,277.00 469.00,281.00 469.00,281.00
             469.00,281.00 465.00,281.00 465.00,281.00
             465.06,285.68 464.61,287.52 469.00,290.00
             467.04,295.53 463.14,293.49 461.72,288.96
             461.72,288.96 460.78,284.09 460.78,284.09
             458.93,275.79 459.81,280.80 462.00,273.00
             462.00,273.00 465.00,273.00 465.00,273.00 Z
           M 23.69,278.28
           C 27.09,280.16 26.00,290.41 26.00,294.00
             26.00,294.00 23.00,294.00 23.00,294.00
             23.00,291.32 23.66,283.46 20.59,282.34
             15.39,280.44 16.00,291.55 16.00,294.00
             16.00,294.00 13.00,294.00 13.00,294.00
             13.00,294.00 13.00,277.00 13.00,277.00
             13.00,277.00 23.69,278.28 23.69,278.28 Z
           M 38.02,293.13
           C 36.63,292.99 35.47,292.47 34.43,291.49
             25.71,283.23 41.22,270.71 44.79,282.05
             45.02,283.58 44.96,285.42 44.79,287.00
             44.79,287.00 36.00,287.00 36.00,287.00
             39.08,290.04 39.78,289.85 44.00,290.00
             44.00,290.00 44.00,293.13 44.00,293.13
             42.25,293.19 39.71,293.60 38.02,293.13 Z
           M 56.00,293.33
           C 49.67,293.19 47.02,284.92 50.74,280.42
             53.54,277.01 58.27,276.27 60.00,281.00
             51.38,282.41 51.95,289.66 60.00,289.00
             60.00,289.00 61.00,292.00 61.00,292.00
             59.28,292.68 57.93,293.37 56.00,293.33 Z
           M 70.02,293.13
           C 68.63,292.99 67.47,292.47 66.43,291.49
             57.71,283.23 73.22,270.71 76.79,282.05
             77.02,283.58 76.96,285.42 76.79,287.00
             76.79,287.00 68.00,287.00 68.00,287.00
             71.08,290.04 71.78,289.85 76.00,290.00
             76.00,290.00 76.00,293.13 76.00,293.13
             74.25,293.19 71.71,293.60 70.02,293.13 Z
           M 81.96,282.91
           C 81.09,279.16 86.07,275.04 92.00,280.00
             92.00,280.00 85.00,281.00 85.00,281.00
             86.74,282.87 90.75,285.47 91.34,287.22
             93.63,293.90 84.93,293.54 81.00,292.00
             81.00,292.00 82.00,289.00 82.00,289.00
             82.00,289.00 89.00,290.00 89.00,290.00
             86.94,287.79 82.52,285.29 81.96,282.91 Z
           M 96.96,282.91
           C 96.09,279.16 101.07,275.04 107.00,280.00
             107.00,280.00 100.00,281.00 100.00,281.00
             101.74,282.87 105.75,285.47 106.34,287.22
             108.63,293.90 99.93,293.54 96.00,292.00
             96.00,292.00 97.00,289.00 97.00,289.00
             97.00,289.00 104.00,290.00 104.00,290.00
             101.94,287.79 97.52,285.29 96.96,282.91 Z
           M 115.00,277.00
           C 115.00,277.00 115.00,294.00 115.00,294.00
             115.00,294.00 112.00,294.00 112.00,294.00
             112.00,294.00 112.00,277.00 112.00,277.00
             112.00,277.00 115.00,277.00 115.00,277.00 Z
           M 141.00,289.00
           C 143.01,284.26 142.91,278.82 148.00,277.00
             147.36,281.06 143.03,294.79 140.35,297.49
             138.69,299.17 137.15,299.43 135.00,300.00
             135.00,300.00 135.00,296.00 135.00,296.00
             136.19,295.31 137.10,295.18 137.80,293.71
             139.18,290.77 134.29,280.25 133.00,277.00
             139.02,278.04 139.25,283.76 141.00,289.00 Z
           M 202.02,293.13
           C 200.63,292.99 199.47,292.47 198.43,291.49
             189.71,283.23 205.22,270.71 208.79,282.05
             209.02,283.58 208.96,285.42 208.79,287.00
             208.79,287.00 200.00,287.00 200.00,287.00
             203.08,290.04 203.78,289.85 208.00,290.00
             208.00,290.00 208.00,293.13 208.00,293.13
             206.25,293.19 203.71,293.60 202.02,293.13 Z
           M 218.00,280.00
           C 218.00,280.00 225.00,277.00 225.00,277.00
             225.00,277.00 219.17,285.05 219.17,285.05
             219.17,285.05 218.00,294.00 218.00,294.00
             218.00,294.00 215.00,294.00 215.00,294.00
             215.00,294.00 215.00,277.00 215.00,277.00
             215.00,277.00 218.00,280.00 218.00,280.00 Z
           M 233.02,293.13
           C 231.63,292.99 230.47,292.47 229.43,291.49
             220.71,283.23 236.22,270.71 239.79,282.05
             240.02,283.58 239.96,285.42 239.79,287.00
             239.79,287.00 231.00,287.00 231.00,287.00
             234.08,290.04 234.78,289.85 239.00,290.00
             239.00,290.00 239.00,293.13 239.00,293.13
             237.25,293.19 234.71,293.60 233.02,293.13 Z
           M 272.00,277.00
           C 272.00,277.00 275.00,290.00 275.00,290.00
             275.00,290.00 278.00,277.00 278.00,277.00
             278.00,277.00 282.00,277.00 282.00,277.00
             282.00,277.00 286.00,290.00 286.00,290.00
             286.37,285.43 286.19,278.88 291.00,277.00
             291.00,277.00 288.00,294.00 288.00,294.00
             281.08,293.45 281.50,289.08 281.00,283.00
             281.00,283.00 279.00,283.00 279.00,283.00
             278.50,289.08 278.92,293.45 272.00,294.00
             272.00,294.00 269.00,277.00 269.00,277.00
             269.00,277.00 272.00,277.00 272.00,277.00 Z
           M 300.02,293.13
           C 298.63,292.99 297.47,292.47 296.43,291.49
             287.71,283.23 303.22,270.71 306.79,282.05
             307.02,283.58 306.96,285.42 306.79,287.00
             306.79,287.00 298.00,287.00 298.00,287.00
             301.08,290.04 301.78,289.85 306.00,290.00
             306.00,290.00 306.00,293.13 306.00,293.13
             304.25,293.19 301.71,293.60 300.02,293.13 Z
           M 338.26,281.07
           C 339.31,283.52 339.00,291.04 339.00,294.00
             339.00,294.00 328.32,292.16 328.32,292.16
             327.30,291.42 326.63,290.28 326.63,289.00
             326.63,284.70 331.87,284.18 335.00,284.00
             331.83,280.96 331.15,281.58 327.00,281.07
             329.80,276.85 336.04,276.08 338.26,281.07 Z
           M 374.02,293.13
           C 372.63,292.99 371.47,292.47 370.43,291.49
             361.71,283.23 377.22,270.71 380.79,282.05
             381.02,283.58 380.96,285.42 380.79,287.00
             380.79,287.00 372.00,287.00 372.00,287.00
             375.08,290.04 375.78,289.85 380.00,290.00
             380.00,290.00 380.00,293.13 380.00,293.13
             378.25,293.19 375.71,293.60 374.02,293.13 Z
           M 400.00,280.00
           C 410.14,271.74 409.00,288.84 409.00,294.00
             409.00,294.00 405.00,294.00 405.00,294.00
             405.00,291.57 405.57,284.30 403.42,282.91
             398.53,279.74 399.00,292.21 399.00,294.00
             399.00,294.00 395.00,294.00 395.00,294.00
             395.00,291.57 395.57,284.30 393.42,282.91
             388.53,279.74 389.00,292.21 389.00,294.00
             389.00,294.00 386.00,294.00 386.00,294.00
             386.00,294.00 386.00,277.00 386.00,277.00
             386.00,277.00 400.00,280.00 400.00,280.00 Z
           M 419.00,279.00
           C 421.26,278.33 423.60,277.39 425.94,278.36
             431.06,280.48 431.20,289.28 426.77,292.09
             424.33,293.77 422.42,292.87 420.00,292.09
             420.00,292.09 419.00,300.00 419.00,300.00
             419.00,300.00 416.00,300.00 416.00,300.00
             416.00,300.00 416.00,277.00 416.00,277.00
             416.00,277.00 419.00,279.00 419.00,279.00 Z
           M 481.00,293.24
           C 473.27,294.42 468.66,281.68 479.02,277.84
             490.40,277.83 489.48,291.96 481.00,293.24 Z
           M 36.00,284.00
           C 36.00,284.00 42.00,284.00 42.00,284.00
             42.00,284.00 42.00,281.00 42.00,281.00
             38.51,281.29 37.99,281.03 36.00,284.00 Z
           M 68.00,284.00
           C 68.00,284.00 74.00,284.00 74.00,284.00
             74.00,284.00 74.00,281.00 74.00,281.00
             70.51,281.29 69.99,281.03 68.00,284.00 Z
           M 200.00,284.00
           C 200.00,284.00 206.00,284.00 206.00,284.00
             206.00,284.00 206.00,281.00 206.00,281.00
             202.51,281.29 201.99,281.03 200.00,284.00 Z
           M 231.00,284.00
           C 231.00,284.00 237.00,284.00 237.00,284.00
             237.00,284.00 237.00,281.00 237.00,281.00
             233.51,281.29 232.99,281.03 231.00,284.00 Z
           M 298.00,284.00
           C 298.00,284.00 304.00,284.00 304.00,284.00
             304.00,284.00 304.00,281.00 304.00,281.00
             300.51,281.29 299.99,281.03 298.00,284.00 Z
           M 372.00,284.00
           C 372.00,284.00 378.00,284.00 378.00,284.00
             378.00,284.00 378.00,281.00 378.00,281.00
             374.51,281.29 373.99,281.03 372.00,284.00 Z
           M 423.73,289.35
           C 426.12,288.36 427.73,282.00 422.09,281.74
             416.64,285.24 420.28,290.79 423.73,289.35 Z
           M 480.91,289.26
           C 484.17,288.34 485.41,282.02 479.30,281.74
             475.22,284.84 477.54,290.21 480.91,289.26 Z
           M 330.00,290.00
           C 333.54,289.38 333.80,289.42 335.00,286.00
             331.46,286.62 331.20,286.58 330.00,290.00 Z
           M 153.00,288.00
           C 153.00,288.00 154.00,293.00 154.00,293.00
             154.00,293.00 150.00,293.00 150.00,293.00
             150.00,293.00 151.00,288.00 151.00,288.00
             151.00,288.00 153.00,288.00 153.00,288.00 Z
           M 244.00,299.00
           C 244.00,299.00 248.00,294.00 248.00,294.00
             248.00,294.00 245.00,289.00 245.00,289.00
             252.69,290.35 250.72,298.59 244.00,299.00 Z
           M 50.00,318.00
           C 46.42,317.80 46.20,317.58 46.00,314.00
             49.07,315.07 48.93,314.93 50.00,318.00 Z
           M 297.00,318.00
           C 293.94,317.83 293.17,317.06 293.00,314.00
             296.07,315.07 295.93,314.93 297.00,318.00 Z
           M 335.00,318.00
           C 331.45,317.80 331.20,317.55 331.00,314.00
             334.07,315.07 333.93,314.93 335.00,318.00 Z
           M 407.00,318.00
           C 403.42,317.80 403.20,317.58 403.00,314.00
             406.07,315.07 405.93,314.93 407.00,318.00 Z
           M 16.00,315.00
           C 16.00,315.00 17.00,322.92 17.00,322.92
             19.42,322.23 21.44,321.34 23.85,322.92
             28.36,325.64 27.81,334.55 22.89,336.64
             20.61,337.62 18.22,336.66 16.00,336.00
             16.00,336.00 13.00,338.00 13.00,338.00
             13.00,338.00 13.00,315.00 13.00,315.00
             13.00,315.00 16.00,315.00 16.00,315.00 Z
           M 68.00,315.00
           C 68.00,315.00 68.00,338.00 68.00,338.00
             68.00,338.00 65.00,336.00 65.00,336.00
             62.78,336.66 60.39,337.62 58.11,336.64
             53.01,334.47 52.89,325.76 57.23,322.89
             59.90,320.94 62.29,322.05 65.00,322.89
             65.00,322.89 65.00,315.00 65.00,315.00
             65.00,315.00 68.00,315.00 68.00,315.00 Z
           M 135.00,315.00
           C 135.00,315.00 135.00,323.00 135.00,323.00
             136.87,322.53 140.02,321.43 141.85,321.95
             146.39,323.24 145.00,334.17 145.00,338.00
             145.00,338.00 142.00,338.00 142.00,338.00
             142.00,335.32 142.66,327.46 139.59,326.34
             134.39,324.44 135.00,335.55 135.00,338.00
             135.00,338.00 132.00,338.00 132.00,338.00
             132.00,338.00 132.00,315.00 132.00,315.00
             132.00,315.00 135.00,315.00 135.00,315.00 Z
           M 287.00,315.00
           C 287.00,315.00 287.00,338.00 287.00,338.00
             287.00,338.00 284.00,336.00 284.00,336.00
             281.78,336.66 279.39,337.62 277.11,336.64
             272.01,334.47 271.89,325.76 276.23,322.89
             278.90,320.94 281.29,322.05 284.00,322.89
             284.00,322.89 284.00,315.00 284.00,315.00
             284.00,315.00 287.00,315.00 287.00,315.00 Z
           M 123.00,317.00
           C 123.00,317.00 123.00,321.00 123.00,321.00
             123.00,321.00 127.00,321.00 127.00,321.00
             127.00,321.00 127.00,325.00 127.00,325.00
             127.00,325.00 123.00,325.00 123.00,325.00
             123.06,329.68 122.61,331.52 127.00,334.00
             125.04,339.53 121.14,337.49 119.72,332.96
             119.72,332.96 118.78,328.09 118.78,328.09
             116.93,319.79 117.81,324.80 120.00,317.00
             120.00,317.00 123.00,317.00 123.00,317.00 Z
           M 234.00,317.00
           C 234.00,317.00 234.00,321.00 234.00,321.00
             234.00,321.00 238.00,321.00 238.00,321.00
             238.00,321.00 238.00,325.00 238.00,325.00
             238.00,325.00 234.00,325.00 234.00,325.00
             234.06,329.68 233.61,331.52 238.00,334.00
             236.04,339.53 232.14,337.49 230.72,332.96
             230.72,332.96 229.78,328.09 229.78,328.09
             227.93,319.79 228.81,324.80 231.00,317.00
             231.00,317.00 234.00,317.00 234.00,317.00 Z
           M 322.00,317.00
           C 322.00,317.00 322.00,321.00 322.00,321.00
             322.00,321.00 326.00,321.00 326.00,321.00
             326.00,321.00 326.00,325.00 326.00,325.00
             326.00,325.00 322.00,325.00 322.00,325.00
             322.06,329.68 321.61,331.52 326.00,334.00
             324.04,339.53 320.14,337.49 318.72,332.96
             318.72,332.96 317.78,328.09 317.78,328.09
             315.93,319.79 316.81,324.80 319.00,317.00
             319.00,317.00 322.00,317.00 322.00,317.00 Z
           M 36.00,324.00
           C 36.00,324.00 43.00,321.00 43.00,321.00
             43.00,321.00 37.17,329.05 37.17,329.05
             37.17,329.05 36.00,338.00 36.00,338.00
             36.00,338.00 33.00,338.00 33.00,338.00
             33.00,338.00 33.00,321.00 33.00,321.00
             33.00,321.00 36.00,324.00 36.00,324.00 Z
           M 49.00,321.00
           C 49.00,321.00 49.00,338.00 49.00,338.00
             49.00,338.00 46.00,338.00 46.00,338.00
             46.00,338.00 46.00,321.00 46.00,321.00
             46.00,321.00 49.00,321.00 49.00,321.00 Z
           M 87.29,336.51
           C 90.54,340.83 82.32,345.52 77.15,343.26
             75.97,342.74 75.15,342.05 74.87,340.81
             74.20,339.37 74.89,337.25 74.87,335.72
             75.62,329.55 73.23,326.52 75.75,323.70
             78.34,320.80 84.43,321.01 88.00,321.00
             86.51,327.33 85.32,331.56 78.00,331.00
             78.00,331.00 77.00,334.00 77.00,334.00
             79.97,334.03 85.31,333.86 87.29,336.51 Z
           M 97.02,337.13
           C 95.63,336.99 94.47,336.47 93.43,335.49
             84.71,327.23 100.22,314.71 103.79,326.05
             104.02,327.58 103.96,329.42 103.79,331.00
             103.79,331.00 95.00,331.00 95.00,331.00
             98.08,334.04 98.78,333.85 103.00,334.00
             103.00,334.00 103.00,337.13 103.00,337.13
             101.25,337.19 98.71,337.60 97.02,337.13 Z
           M 156.02,337.13
           C 154.63,336.99 153.47,336.47 152.43,335.49
             143.71,327.23 159.22,314.71 162.79,326.05
             163.02,327.58 162.96,329.42 162.79,331.00
             162.79,331.00 154.00,331.00 154.00,331.00
             157.08,334.04 157.78,333.85 162.00,334.00
             162.00,334.00 162.00,337.13 162.00,337.13
             160.25,337.19 157.71,337.60 156.02,337.13 Z
           M 184.00,337.33
           C 177.67,337.19 175.02,328.92 178.74,324.42
             181.54,321.01 186.27,320.27 188.00,325.00
             179.38,326.41 179.95,333.66 188.00,333.00
             188.00,333.00 189.00,336.00 189.00,336.00
             187.28,336.68 185.93,337.37 184.00,337.33 Z
           M 200.00,337.24
           C 192.27,338.42 187.66,325.68 198.02,321.84
             209.40,321.83 208.48,335.96 200.00,337.24 Z
           M 221.69,322.28
           C 225.09,324.16 224.00,334.41 224.00,338.00
             224.00,338.00 221.00,338.00 221.00,338.00
             221.00,335.32 221.66,327.46 218.59,326.34
             213.39,324.44 214.00,335.55 214.00,338.00
             214.00,338.00 211.00,338.00 211.00,338.00
             211.00,338.00 211.00,321.00 211.00,321.00
             211.00,321.00 221.69,322.28 221.69,322.28 Z
           M 247.00,324.00
           C 247.00,324.00 254.00,321.00 254.00,321.00
             254.00,321.00 248.17,329.05 248.17,329.05
             248.17,329.05 247.00,338.00 247.00,338.00
             247.00,338.00 244.00,338.00 244.00,338.00
             244.00,338.00 244.00,321.00 244.00,321.00
             244.00,321.00 247.00,324.00 247.00,324.00 Z
           M 267.26,325.07
           C 268.31,327.52 268.00,335.04 268.00,338.00
             268.00,338.00 257.32,336.16 257.32,336.16
             256.30,335.42 255.63,334.28 255.63,333.00
             255.63,328.70 260.87,328.18 264.00,328.00
             260.83,324.96 260.15,325.58 256.00,325.07
             258.80,320.85 265.04,320.08 267.26,325.07 Z
           M 296.00,321.00
           C 296.00,321.00 296.00,338.00 296.00,338.00
             296.00,338.00 293.00,338.00 293.00,338.00
             293.00,338.00 293.00,321.00 293.00,321.00
             293.00,321.00 296.00,321.00 296.00,321.00 Z
           M 309.00,337.33
           C 302.67,337.19 300.02,328.92 303.74,324.42
             306.54,321.01 311.27,320.27 313.00,325.00
             304.38,326.41 304.95,333.66 313.00,333.00
             313.00,333.00 314.00,336.00 314.00,336.00
             312.28,336.68 310.93,337.37 309.00,337.33 Z
           M 334.00,321.00
           C 334.00,321.00 334.00,338.00 334.00,338.00
             334.00,338.00 331.00,338.00 331.00,338.00
             331.00,338.00 331.00,321.00 331.00,321.00
             331.00,321.00 334.00,321.00 334.00,321.00 Z
           M 348.00,337.24
           C 340.27,338.42 335.66,325.68 346.02,321.84
             357.40,321.83 356.48,335.96 348.00,337.24 Z
           M 369.69,322.28
           C 373.09,324.16 372.00,334.41 372.00,338.00
             372.00,338.00 369.00,338.00 369.00,338.00
             369.00,335.32 369.66,327.46 366.59,326.34
             361.39,324.44 362.00,335.55 362.00,338.00
             362.00,338.00 359.00,338.00 359.00,338.00
             359.00,338.00 359.00,321.00 359.00,321.00
             359.00,321.00 369.69,322.28 369.69,322.28 Z
           M 377.96,326.91
           C 377.09,323.16 382.07,319.04 388.00,324.00
             388.00,324.00 381.00,325.00 381.00,325.00
             382.74,326.87 386.75,329.47 387.34,331.22
             389.63,337.90 380.93,337.54 377.00,336.00
             377.00,336.00 378.00,333.00 378.00,333.00
             378.00,333.00 385.00,334.00 385.00,334.00
             382.94,331.79 378.52,329.29 377.96,326.91 Z
           M 406.00,321.00
           C 406.00,321.00 406.00,338.00 406.00,338.00
             406.00,338.00 403.00,338.00 403.00,338.00
             403.00,338.00 403.00,321.00 403.00,321.00
             403.00,321.00 406.00,321.00 406.00,321.00 Z
           M 422.69,322.28
           C 426.09,324.16 425.00,334.41 425.00,338.00
             425.00,338.00 422.00,338.00 422.00,338.00
             422.00,335.32 422.66,327.46 419.59,326.34
             414.39,324.44 415.00,335.55 415.00,338.00
             415.00,338.00 412.00,338.00 412.00,338.00
             412.00,338.00 412.00,321.00 412.00,321.00
             412.00,321.00 422.69,322.28 422.69,322.28 Z
           M 447.00,337.24
           C 439.27,338.42 434.66,325.68 445.02,321.84
             456.40,321.83 455.48,335.96 447.00,337.24 Z
           M 462.00,321.00
           C 462.00,323.46 461.24,332.80 465.08,332.80
             468.88,332.80 468.00,323.45 468.00,321.00
             468.00,321.00 472.00,321.00 472.00,321.00
             472.00,321.00 472.00,338.00 472.00,338.00
             472.00,338.00 469.00,335.00 469.00,335.00
             469.00,335.00 465.00,336.83 465.00,336.83
             456.84,339.13 459.00,325.68 459.00,321.00
             459.00,321.00 462.00,321.00 462.00,321.00 Z
           M 481.00,324.00
           C 481.00,324.00 488.00,321.00 488.00,321.00
             488.00,321.00 482.17,329.05 482.17,329.05
             482.17,329.05 481.00,338.00 481.00,338.00
             481.00,338.00 478.00,338.00 478.00,338.00
             478.00,338.00 478.00,321.00 478.00,321.00
             478.00,321.00 481.00,324.00 481.00,324.00 Z
           M 20.73,333.35
           C 23.12,332.36 24.73,326.00 19.09,325.74
             13.64,329.24 17.28,334.79 20.73,333.35 Z
           M 62.59,333.37
           C 65.08,332.36 66.86,325.12 60.30,325.66
             55.85,329.28 59.08,334.80 62.59,333.37 Z
           M 95.00,328.00
           C 95.00,328.00 101.00,328.00 101.00,328.00
             101.00,328.00 101.00,325.00 101.00,325.00
             97.51,325.29 96.99,325.03 95.00,328.00 Z
           M 154.00,328.00
           C 154.00,328.00 160.00,328.00 160.00,328.00
             160.00,328.00 160.00,325.00 160.00,325.00
             156.51,325.29 155.99,325.03 154.00,328.00 Z
           M 199.91,333.26
           C 203.17,332.34 204.41,326.02 198.30,325.74
             194.22,328.84 196.54,334.21 199.91,333.26 Z
           M 281.59,333.37
           C 284.08,332.36 285.86,325.12 279.30,325.66
             274.85,329.28 278.08,334.80 281.59,333.37 Z
           M 347.91,333.26
           C 351.17,332.34 352.41,326.02 346.30,325.74
             342.22,328.84 344.54,334.21 347.91,333.26 Z
           M 446.91,333.26
           C 450.17,332.34 451.41,326.02 445.30,325.74
             441.22,328.84 443.54,334.21 446.91,333.26 Z
           M 259.00,334.00
           C 262.54,333.38 262.80,333.42 264.00,330.00
             260.46,330.62 260.20,330.58 259.00,334.00 Z
           M 78.00,337.00
           C 78.00,337.00 77.00,341.00 77.00,341.00
             80.95,340.95 82.66,341.50 85.00,338.00
             85.00,338.00 78.00,337.00 78.00,337.00 Z
           M 102.00,361.00
           C 98.94,360.83 98.17,360.06 98.00,357.00
             101.07,358.07 100.93,357.93 102.00,361.00 Z
           M 18.02,380.13
           C 16.63,379.99 15.47,379.47 14.43,378.49
             5.71,370.23 21.22,357.71 24.79,369.05
             25.02,370.58 24.96,372.42 24.79,374.00
             24.79,374.00 16.00,374.00 16.00,374.00
             19.08,377.04 19.78,376.85 24.00,377.00
             24.00,377.00 24.00,380.13 24.00,380.13
             22.25,380.19 19.71,380.60 18.02,380.13 Z
           M 35.00,370.00
           C 35.00,370.00 37.00,370.00 37.00,370.00
             38.17,365.65 38.45,364.79 43.00,364.00
             37.71,373.97 38.20,371.01 43.00,381.00
             38.05,380.15 37.97,378.87 35.00,375.00
             33.21,378.80 33.08,379.66 29.00,381.00
             32.21,369.70 33.18,375.52 29.00,364.00
             33.45,364.76 33.72,365.81 35.00,370.00 Z
           M 50.00,366.00
           C 52.26,365.33 54.60,364.39 56.94,365.36
             62.06,367.48 62.20,376.28 57.77,379.09
             55.33,380.77 53.42,379.87 51.00,379.09
             51.00,379.09 50.00,387.00 50.00,387.00
             50.00,387.00 47.00,387.00 47.00,387.00
             47.00,387.00 47.00,364.00 47.00,364.00
             47.00,364.00 50.00,366.00 50.00,366.00 Z
           M 72.02,380.13
           C 70.63,379.99 69.47,379.47 68.43,378.49
             59.71,370.23 75.22,357.71 78.79,369.05
             79.02,370.58 78.96,372.42 78.79,374.00
             78.79,374.00 70.00,374.00 70.00,374.00
             73.08,377.04 73.78,376.85 78.00,377.00
             78.00,377.00 78.00,380.13 78.00,380.13
             76.25,380.19 73.71,380.60 72.02,380.13 Z
           M 87.00,367.00
           C 87.00,367.00 94.00,364.00 94.00,364.00
             94.00,364.00 88.17,372.05 88.17,372.05
             88.17,372.05 87.00,381.00 87.00,381.00
             87.00,381.00 84.00,381.00 84.00,381.00
             84.00,381.00 84.00,364.00 84.00,364.00
             84.00,364.00 87.00,367.00 87.00,367.00 Z
           M 101.00,364.00
           C 101.00,364.00 101.00,381.00 101.00,381.00
             101.00,381.00 98.00,381.00 98.00,381.00
             98.00,381.00 98.00,364.00 98.00,364.00
             98.00,364.00 101.00,364.00 101.00,364.00 Z
           M 112.02,380.13
           C 110.63,379.99 109.47,379.47 108.43,378.49
             99.71,370.23 115.22,357.71 118.79,369.05
             119.02,370.58 118.96,372.42 118.79,374.00
             118.79,374.00 110.00,374.00 110.00,374.00
             113.08,377.04 113.78,376.85 118.00,377.00
             118.00,377.00 118.00,380.13 118.00,380.13
             116.25,380.19 113.71,380.60 112.02,380.13 Z
           M 135.69,365.28
           C 139.09,367.16 138.00,377.41 138.00,381.00
             138.00,381.00 135.00,381.00 135.00,381.00
             135.00,378.32 135.66,370.46 132.59,369.34
             127.39,367.44 128.00,378.55 128.00,381.00
             128.00,381.00 125.00,381.00 125.00,381.00
             125.00,381.00 125.00,364.00 125.00,364.00
             125.00,364.00 135.69,365.28 135.69,365.28 Z
           M 150.00,380.33
           C 143.67,380.19 141.02,371.92 144.74,367.42
             147.54,364.01 152.27,363.27 154.00,368.00
             145.38,369.41 145.95,376.66 154.00,376.00
             154.00,376.00 155.00,379.00 155.00,379.00
             153.28,379.68 151.93,380.37 150.00,380.33 Z
           M 164.02,380.13
           C 162.63,379.99 161.47,379.47 160.43,378.49
             151.71,370.23 167.22,357.71 170.79,369.05
             171.02,370.58 170.96,372.42 170.79,374.00
             170.79,374.00 162.00,374.00 162.00,374.00
             165.08,377.04 165.78,376.85 170.00,377.00
             170.00,377.00 170.00,380.13 170.00,380.13
             168.25,380.19 165.71,380.60 164.02,380.13 Z
           M 16.00,371.00
           C 16.00,371.00 22.00,371.00 22.00,371.00
             22.00,371.00 22.00,368.00 22.00,368.00
             18.51,368.29 17.99,368.03 16.00,371.00 Z
           M 54.73,376.35
           C 57.12,375.36 58.73,369.00 53.09,368.74
             47.64,372.24 51.28,377.79 54.73,376.35 Z
           M 70.00,371.00
           C 70.00,371.00 76.00,371.00 76.00,371.00
             76.00,371.00 76.00,368.00 76.00,368.00
             72.51,368.29 71.99,368.03 70.00,371.00 Z
           M 110.00,371.00
           C 110.00,371.00 116.00,371.00 116.00,371.00
             116.00,371.00 116.00,368.00 116.00,368.00
             112.51,368.29 111.99,368.03 110.00,371.00 Z
           M 162.00,371.00
           C 162.00,371.00 168.00,371.00 168.00,371.00
             168.00,371.00 168.00,368.00 168.00,368.00
             164.51,368.29 163.99,368.03 162.00,371.00 Z
           M 179.00,375.00
           C 179.00,375.00 180.00,380.00 180.00,380.00
             180.00,380.00 176.00,380.00 176.00,380.00
             176.00,380.00 177.00,375.00 177.00,375.00
             177.00,375.00 179.00,375.00 179.00,375.00 Z" />
</svg>
