<?xml version="1.0" encoding="UTF-8" standalone="no"?>
<!DOCTYPE svg PUBLIC "-//W3C//DTD SVG 20010904//EN"
              "http://www.w3.org/TR/2001/REC-SVG-20010904/DTD/svg10.dtd">

<svg xmlns="http://www.w3.org/2000/svg"
     width="3.25203in" height="1.70732in"
     viewBox="0 0 1200 630">
  <path id="Selection"
        fill="none" stroke="black" stroke-width="1"
        d="M 526.00,144.96
           C 516.52,145.33 496.92,136.29 487.00,132.80
             487.00,132.80 462.00,126.44 462.00,126.44
             462.00,126.44 446.00,124.00 446.00,124.00
             446.00,124.00 429.00,119.37 429.00,119.37
             422.54,118.14 401.47,118.38 395.00,120.16
             384.80,122.97 382.60,129.36 378.69,138.00
             373.95,148.48 375.58,143.95 372.28,155.00
             370.80,159.96 368.03,168.56 361.02,166.22
             355.72,164.45 355.64,159.58 355.87,155.00
             356.37,144.94 356.22,138.68 360.28,129.00
             364.92,117.96 370.57,106.13 381.00,99.56
             381.00,99.56 397.00,92.65 397.00,92.65
             405.56,87.94 415.00,83.01 425.00,82.19
             431.61,81.64 440.27,85.41 447.00,85.91
             447.00,85.91 481.00,88.17 481.00,88.17
             481.00,88.17 518.00,95.42 518.00,95.42
             518.00,95.42 549.96,103.39 549.96,103.39
             554.38,103.49 559.25,96.39 563.00,93.61
             569.79,88.56 576.82,86.87 585.00,85.59
             585.00,85.59 617.00,82.78 617.00,82.78
             617.00,82.78 625.00,82.78 625.00,82.78
             625.00,82.78 649.00,81.37 649.00,81.37
             661.41,80.60 677.62,80.98 690.00,82.17
             690.00,82.17 707.00,84.71 707.00,84.71
             714.40,85.67 720.15,84.75 728.00,87.55
             734.86,89.99 742.89,96.38 749.00,100.48
             755.44,104.80 760.42,106.53 765.47,113.00
             769.73,118.46 770.31,122.15 772.87,128.00
             774.64,132.03 779.17,138.44 779.71,142.00
             780.44,146.80 776.99,151.07 772.00,150.50
             768.85,150.14 764.77,147.08 762.00,145.45
             762.00,145.45 750.00,139.53 750.00,139.53
             739.62,133.37 732.20,125.21 719.00,119.35
             710.81,115.71 701.84,114.65 693.00,114.21
             688.31,113.97 679.85,116.08 675.00,116.71
             667.03,117.75 658.73,117.59 651.00,120.25
             651.00,120.25 640.00,125.37 640.00,125.37
             640.00,125.37 630.00,127.01 630.00,127.01
             630.00,127.01 615.00,130.74 615.00,130.74
             615.00,130.74 596.00,133.30 596.00,133.30
             588.08,134.63 587.73,138.27 579.00,137.96
             570.02,137.64 565.05,131.55 557.00,129.00
             551.94,139.61 537.09,144.53 526.00,144.96 Z" />
</svg>
