<?xml version="1.0" encoding="UTF-8" standalone="no"?>
<!DOCTYPE svg PUBLIC "-//W3C//DTD SVG 20010904//EN"
              "http://www.w3.org/TR/2001/REC-SVG-20010904/DTD/svg10.dtd">

<svg xmlns="http://www.w3.org/2000/svg"
     width="15in" height="26.6667in"
     viewBox="0 0 1080 1920">
  <path id="Selection"
        fill="none" stroke="black" stroke-width="1"
        d="M 643.00,752.00
           C 643.00,752.00 658.00,751.00 658.00,751.00
             658.00,751.00 686.00,751.00 686.00,751.00
             686.00,751.00 698.17,750.19 698.17,750.19
             698.17,750.19 709.00,751.00 709.00,751.00
             709.00,751.00 728.00,751.00 728.00,751.00
             742.16,751.02 758.93,754.99 773.00,757.80
             796.74,762.55 825.23,771.95 842.96,789.09
             851.51,797.36 857.31,816.36 859.79,828.00
             863.70,846.37 864.79,868.15 866.09,887.00
             866.09,887.00 868.00,909.00 868.00,909.00
             868.00,909.00 868.00,918.00 868.00,918.00
             868.00,918.00 869.00,928.00 869.00,928.00
             869.00,928.00 869.00,964.00 869.00,964.00
             869.00,964.00 870.00,979.00 870.00,979.00
             870.00,979.00 871.91,1008.00 871.91,1008.00
             871.91,1008.00 875.09,1056.00 875.09,1056.00
             875.09,1056.00 876.83,1074.00 876.83,1074.00
             876.83,1074.00 879.17,1105.00 879.17,1105.00
             879.17,1105.00 880.96,1123.00 880.96,1123.00
             880.96,1123.00 880.00,1136.00 880.00,1136.00
             879.77,1155.87 883.98,1149.42 884.00,1165.00
             884.04,1191.60 883.20,1195.99 878.00,1222.00
             875.81,1232.96 873.39,1245.06 868.11,1255.00
             861.06,1268.28 854.00,1270.93 842.00,1278.69
             842.00,1278.69 816.00,1295.42 816.00,1295.42
             816.00,1295.42 798.00,1306.10 798.00,1306.10
             798.00,1306.10 748.00,1321.42 748.00,1321.42
             724.29,1328.18 698.46,1334.74 674.00,1337.72
             674.00,1337.72 646.00,1340.00 646.00,1340.00
             646.00,1340.00 625.00,1341.00 625.00,1341.00
             625.00,1341.00 595.00,1341.00 595.00,1341.00
             580.65,1340.83 555.52,1337.04 541.00,1334.42
             541.00,1334.42 489.00,1324.65 489.00,1324.65
             474.44,1321.35 458.43,1319.42 447.00,1308.91
             440.30,1302.75 432.19,1292.41 426.63,1285.00
             423.61,1280.98 419.28,1275.56 417.36,1271.00
             415.52,1266.61 414.70,1252.77 413.87,1247.00
             413.87,1247.00 411.28,1232.00 411.28,1232.00
             411.28,1232.00 408.91,1205.00 408.91,1205.00
             408.91,1205.00 408.00,1195.00 408.00,1195.00
             408.00,1195.00 400.00,1128.00 400.00,1128.00
             400.00,1128.00 400.00,1119.00 400.00,1119.00
             400.00,1119.00 398.71,1099.00 398.71,1099.00
             397.25,1087.13 394.86,1078.60 395.00,1066.00
             395.00,1066.00 395.66,1057.00 395.66,1057.00
             395.66,1057.00 395.04,1050.00 395.04,1050.00
             395.04,1050.00 393.00,1020.00 393.00,1020.00
             393.00,1020.00 393.00,1011.00 393.00,1011.00
             393.00,1011.00 388.17,956.00 388.17,956.00
             388.17,956.00 385.83,926.00 385.83,926.00
             385.83,926.00 381.91,883.00 381.91,883.00
             381.91,883.00 381.01,874.00 381.01,874.00
             380.94,870.53 381.01,867.38 381.93,864.00
             384.25,855.42 397.99,834.45 403.32,826.00
             407.00,820.16 411.30,811.71 416.04,807.09
             425.09,798.28 447.78,787.61 460.00,783.34
             460.00,783.34 471.00,780.29 471.00,780.29
             471.00,780.29 480.00,775.76 480.00,775.76
             480.00,775.76 513.00,768.12 513.00,768.12
             513.00,768.12 573.00,755.43 573.00,755.43
             573.00,755.43 625.00,750.59 625.00,750.59
             625.00,750.59 643.00,752.00 643.00,752.00 Z" />
</svg>
