<?xml version="1.0" encoding="UTF-8" standalone="no"?>
<!DOCTYPE svg PUBLIC "-//W3C//DTD SVG 20010904//EN"
              "http://www.w3.org/TR/2001/REC-SVG-20010904/DTD/svg10.dtd">

<svg xmlns="http://www.w3.org/2000/svg"
     width="0.68in" height="0.726667in"
     viewBox="0 0 204 218">
  <path id="inner ball Selection"
        fill="none" stroke="black" stroke-width="1"
        d="M 121.00,15.00
           C 118.93,21.07 108.77,32.55 102.00,32.80
             97.25,32.98 86.66,28.85 82.00,27.00
             82.00,27.00 82.00,24.00 82.00,24.00
             96.18,17.90 105.37,15.14 121.00,15.00 Z
           M 128.00,17.01
           C 131.93,15.83 136.13,16.92 140.00,17.89
             149.83,20.36 164.50,26.50 169.00,36.00
             144.39,31.59 133.50,36.97 111.00,34.00
             114.14,27.61 120.95,19.12 128.00,17.01 Z
           M 78.00,29.26
           C 81.53,29.55 84.88,32.09 88.00,33.63
             91.80,35.50 96.86,37.06 101.00,38.00
             98.71,42.76 95.88,49.07 90.00,49.84
             90.00,49.84 76.00,49.00 76.00,49.00
             76.00,49.00 56.00,50.00 56.00,50.00
             59.11,42.83 69.15,28.55 78.00,29.26 Z
           M 107.00,40.71
           C 110.31,39.37 114.61,40.51 118.00,40.71
             118.00,40.71 136.00,42.00 136.00,42.00
             149.46,42.06 170.03,41.88 180.99,50.53
             198.40,64.28 196.53,97.91 191.00,117.00
             184.47,114.77 183.38,111.79 178.91,107.00
             178.91,107.00 160.00,88.17 160.00,88.17
             140.25,70.31 123.11,60.37 98.00,52.00
             99.89,47.64 102.20,42.38 107.00,40.71 Z
           M 46.75,67.00
           C 47.90,63.41 50.06,57.21 53.33,55.17
             56.19,53.39 63.56,53.02 67.00,53.00
             77.53,52.95 79.57,53.12 90.00,55.00
             88.69,58.74 85.50,67.84 82.47,70.10
             78.37,73.15 73.47,70.02 65.00,77.21
             54.26,86.33 52.59,94.42 46.00,106.00
             40.19,97.20 43.65,76.65 46.75,67.00 Z
           M 109.00,61.31
           C 118.20,65.46 126.91,70.61 135.00,76.63
             149.39,87.34 161.97,100.24 173.41,114.00
             176.03,117.15 183.81,125.18 183.85,129.00
             183.89,131.98 180.52,136.76 178.67,139.00
             173.49,145.28 165.27,152.91 158.00,156.67
             156.22,157.60 154.05,158.62 152.00,158.51
             145.85,158.18 138.94,146.91 136.01,142.00
             136.01,142.00 106.91,93.00 106.91,93.00
             100.67,83.70 92.55,78.00 91.02,74.99
             88.50,70.01 91.69,62.53 95.39,59.03
             100.13,57.31 104.57,59.32 109.00,61.31 Z
           M 53.01,129.00
           C 50.45,124.61 48.08,120.22 48.08,115.00
             48.08,109.22 51.64,103.07 54.26,98.00
             57.42,91.88 62.84,82.93 69.00,79.67
             71.41,78.40 76.04,76.57 78.39,78.78
             80.10,80.39 79.54,82.97 79.19,85.00
             79.19,85.00 75.92,100.00 75.92,100.00
             73.94,111.76 75.21,142.53 78.00,154.00
             67.51,150.65 58.40,138.23 53.01,129.00 Z
           M 100.85,95.00
           C 100.85,95.00 124.87,139.00 124.87,139.00
             128.90,146.05 136.71,156.76 139.00,164.00
             128.48,167.84 114.91,167.60 104.00,165.54
             100.17,164.82 94.19,163.52 91.51,160.61
             88.34,157.17 86.78,145.91 85.80,141.00
             84.23,133.15 82.62,125.00 82.21,117.00
             82.21,117.00 82.91,109.00 82.91,109.00
             83.78,96.31 82.68,93.98 87.00,81.00
             93.27,83.97 96.89,89.49 100.85,95.00 Z" />
</svg>
