<?xml version="1.0" encoding="UTF-8" standalone="no"?>
<!DOCTYPE svg PUBLIC "-//W3C//DTD SVG 20010904//EN"
              "http://www.w3.org/TR/2001/REC-SVG-20010904/DTD/svg10.dtd">

<svg xmlns="http://www.w3.org/2000/svg"
     width="20.3889in" height="48.5972in"
     viewBox="0 0 1468 3499">
  <path id="Selection"
        fill="none" stroke="black" stroke-width="1"
        d="M 543.00,3264.24
           C 570.49,3284.56 610.26,3295.79 644.00,3299.17
             644.00,3299.17 674.00,3302.00 674.00,3302.00
             674.00,3302.00 689.00,3302.00 689.00,3302.00
             689.00,3302.00 700.00,3302.68 700.00,3302.68
             700.00,3302.68 713.00,3302.00 713.00,3302.00
             733.87,3301.90 762.32,3294.72 782.00,3287.69
             840.35,3266.86 894.45,3225.80 931.12,3176.00
             940.19,3163.68 950.66,3147.16 956.40,3133.00
             974.03,3089.46 974.07,3038.28 974.00,2992.00
             974.00,2992.00 973.00,2976.00 973.00,2976.00
             973.00,2976.00 973.00,2972.00 973.00,2972.00
             973.00,2972.00 972.00,2962.00 972.00,2962.00
             972.00,2962.00 972.00,2953.00 972.00,2953.00
             972.00,2953.00 969.17,2924.00 969.17,2924.00
             969.17,2924.00 965.72,2891.00 965.72,2891.00
             965.72,2891.00 959.42,2852.00 959.42,2852.00
             959.42,2852.00 942.13,2743.00 942.13,2743.00
             942.13,2743.00 925.41,2637.00 925.41,2637.00
             925.41,2637.00 921.25,2611.00 921.25,2611.00
             920.84,2608.50 920.25,2602.30 918.41,2600.69
             916.62,2599.13 913.17,2599.84 911.00,2600.13
             911.00,2600.13 891.00,2602.95 891.00,2602.95
             891.00,2602.95 849.00,2607.00 849.00,2607.00
             849.00,2607.00 826.00,2608.00 826.00,2608.00
             826.00,2608.00 811.00,2609.00 811.00,2609.00
             811.00,2609.00 748.00,2609.00 748.00,2609.00
             748.00,2609.00 733.00,2608.00 733.00,2608.00
             733.00,2608.00 708.00,2607.00 708.00,2607.00
             708.00,2607.00 698.00,2606.09 698.00,2606.09
             698.00,2606.09 659.00,2602.28 659.00,2602.28
             626.66,2598.06 594.63,2592.14 564.00,2580.58
             533.48,2569.05 479.80,2539.28 451.00,2522.00
             362.92,2469.15 283.50,2403.48 225.34,2318.00
             179.41,2250.49 152.98,2170.86 138.58,2091.00
             133.98,2065.51 129.64,2039.80 127.17,2014.00
             127.17,2014.00 125.83,1996.00 125.83,1996.00
             125.83,1996.00 123.00,1965.00 123.00,1965.00
             123.00,1965.00 123.00,1949.00 123.00,1949.00
             123.00,1949.00 122.00,1934.00 122.00,1934.00
             122.00,1934.00 123.00,1903.00 123.00,1903.00
             123.00,1903.00 124.04,1893.00 124.04,1893.00
             124.04,1893.00 124.04,1884.00 124.04,1884.00
             124.04,1884.00 132.58,1825.00 132.58,1825.00
             146.28,1749.08 175.31,1674.07 211.22,1606.00
             227.99,1574.20 245.58,1542.82 265.74,1513.00
             297.71,1465.73 333.60,1421.23 373.04,1380.00
             373.04,1380.00 390.00,1363.96 390.00,1363.96
             390.00,1363.96 407.00,1347.09 407.00,1347.09
             407.00,1347.09 425.00,1330.91 425.00,1330.91
             459.79,1298.56 495.59,1267.14 532.00,1236.59
             532.00,1236.59 631.00,1156.88 631.00,1156.88
             631.00,1156.88 661.00,1133.65 661.00,1133.65
             663.84,1131.45 673.70,1124.31 675.12,1121.83
             677.07,1118.40 673.97,1106.33 673.25,1102.00
             673.25,1102.00 665.27,1049.00 665.27,1049.00
             665.27,1049.00 657.72,991.00 657.72,991.00
             657.72,991.00 653.17,955.00 653.17,955.00
             653.17,955.00 649.91,906.00 649.91,906.00
             649.91,906.00 647.00,859.00 647.00,859.00
             647.00,859.00 646.04,849.00 646.04,849.00
             646.04,849.00 646.04,838.00 646.04,838.00
             646.04,838.00 645.00,823.00 645.00,823.00
             645.00,823.00 645.00,805.00 645.00,805.00
             645.00,805.00 644.09,791.00 644.09,791.00
             644.09,791.00 645.00,779.00 645.00,779.00
             645.00,779.00 645.00,749.00 645.00,749.00
             645.00,749.00 646.00,732.00 646.00,732.00
             646.00,732.00 647.91,699.00 647.91,699.00
             647.91,699.00 649.17,674.00 649.17,674.00
             649.17,674.00 653.84,632.00 653.84,632.00
             656.88,603.55 663.74,557.09 671.15,530.00
             691.69,454.94 731.60,380.80 772.58,315.00
             796.65,276.35 828.53,231.50 863.00,201.87
             882.72,184.92 905.21,170.68 932.00,171.00
             945.73,171.17 958.00,179.59 968.00,188.29
             987.53,205.29 1010.45,243.40 1022.25,267.00
             1056.31,335.12 1083.03,406.66 1103.42,480.00
             1112.91,514.12 1120.39,549.77 1124.16,585.00
             1124.16,585.00 1127.00,615.00 1127.00,615.00
             1127.00,615.00 1128.00,634.00 1128.00,634.00
             1128.00,634.00 1128.00,682.00 1128.00,682.00
             1128.00,682.00 1127.00,697.00 1127.00,697.00
             1126.93,741.12 1119.84,801.59 1111.00,845.00
             1097.07,913.34 1076.27,963.96 1045.25,1026.00
             1021.63,1073.22 1001.64,1109.24 970.12,1152.00
             970.12,1152.00 910.80,1229.00 910.80,1229.00
             910.80,1229.00 878.91,1268.00 878.91,1268.00
             865.73,1282.15 851.50,1295.10 837.00,1307.85
             837.00,1307.85 813.00,1327.21 813.00,1327.21
             813.00,1327.21 785.00,1349.58 785.00,1349.58
             785.00,1349.58 771.00,1360.60 771.00,1360.60
             768.94,1362.26 765.60,1364.53 764.88,1367.17
             764.40,1368.95 765.26,1373.07 765.59,1375.00
             765.59,1375.00 768.75,1393.00 768.75,1393.00
             768.75,1393.00 779.59,1457.00 779.59,1457.00
             779.59,1457.00 807.25,1620.00 807.25,1620.00
             807.25,1620.00 816.08,1672.00 816.08,1672.00
             816.08,1672.00 820.00,1697.00 820.00,1697.00
             820.00,1697.00 854.00,1694.00 854.00,1694.00
             854.00,1694.00 893.00,1694.00 893.00,1694.00
             893.00,1694.00 905.00,1695.00 905.00,1695.00
             905.00,1695.00 914.00,1695.00 914.00,1695.00
             914.00,1695.00 932.00,1696.83 932.00,1696.83
             996.43,1702.99 1058.92,1718.88 1112.00,1757.64
             1206.37,1826.54 1262.16,1925.61 1280.56,2040.00
             1283.59,2058.80 1286.97,2087.23 1287.00,2106.00
             1287.00,2106.00 1288.00,2123.00 1288.00,2123.00
             1288.00,2123.00 1288.00,2144.00 1288.00,2144.00
             1288.00,2144.00 1287.00,2160.00 1287.00,2160.00
             1286.95,2191.14 1275.59,2245.16 1265.65,2275.00
             1241.61,2347.11 1196.19,2418.74 1141.83,2471.72
             1125.63,2487.50 1108.04,2501.78 1090.00,2515.37
             1061.12,2537.13 1025.07,2559.14 992.00,2573.86
             992.00,2573.86 962.00,2587.00 962.00,2587.00
             962.00,2587.00 974.27,2671.00 974.27,2671.00
             974.27,2671.00 996.27,2818.00 996.27,2818.00
             996.27,2818.00 1007.72,2893.00 1007.72,2893.00
             1007.72,2893.00 1015.96,2966.00 1015.96,2966.00
             1015.96,2966.00 1015.96,2975.00 1015.96,2975.00
             1015.96,2975.00 1018.00,3003.00 1018.00,3003.00
             1018.00,3003.00 1018.00,3052.00 1018.00,3052.00
             1018.00,3052.00 1017.09,3062.00 1017.09,3062.00
             1015.36,3087.19 1011.83,3112.06 1003.31,3136.00
             989.07,3176.01 954.74,3222.24 925.72,3252.91
             925.72,3252.91 918.00,3260.04 918.00,3260.04
             906.09,3271.43 893.58,3281.67 880.00,3291.02
             837.99,3319.98 790.39,3337.11 740.00,3344.13
             740.00,3344.13 700.00,3348.00 700.00,3348.00
             700.00,3348.00 668.00,3348.00 668.00,3348.00
             668.00,3348.00 656.00,3346.96 656.00,3346.96
             656.00,3346.96 647.00,3346.96 647.00,3346.96
             628.69,3345.09 609.98,3342.54 592.00,3338.58
             559.48,3331.40 528.21,3320.18 498.00,3306.31
             444.25,3281.63 396.57,3250.69 366.43,3198.00
             351.38,3171.71 343.11,3142.10 340.91,3112.00
             340.91,3112.00 339.88,3101.00 339.88,3101.00
             339.88,3101.00 339.88,3082.00 339.88,3082.00
             339.88,3082.00 339.88,3073.00 339.88,3073.00
             339.88,3073.00 339.88,3064.00 339.88,3064.00
             340.11,3054.60 342.62,3038.48 344.39,3029.00
             355.74,2968.36 393.78,2906.87 452.00,2881.87
             485.49,2867.49 530.38,2862.70 566.00,2870.66
             614.38,2881.48 665.60,2920.74 687.73,2965.00
             698.57,2986.68 702.45,3006.11 704.09,3030.00
             704.09,3030.00 705.00,3046.00 705.00,3046.00
             704.85,3058.22 702.36,3077.25 699.00,3089.00
             695.03,3102.91 689.98,3116.51 682.55,3129.00
             647.04,3188.69 578.73,3217.39 515.00,3236.00
             524.57,3247.03 530.87,3255.28 543.00,3264.24 Z
           M 735.00,1073.60
           C 735.00,1073.60 760.00,1053.00 760.00,1053.00
             786.19,1030.40 811.53,1007.47 836.00,983.00
             893.31,925.69 946.49,862.93 989.42,794.00
             1017.78,748.46 1045.97,692.42 1054.56,639.00
             1057.76,619.11 1058.23,604.99 1058.00,585.00
             1058.00,585.00 1055.15,556.00 1055.15,556.00
             1050.12,513.84 1035.97,461.66 994.00,442.31
             978.72,435.26 965.39,434.81 949.00,435.00
             936.64,435.15 919.58,439.20 908.00,443.58
             849.36,465.71 813.74,524.28 787.74,578.00
             755.42,644.79 735.98,717.03 723.92,790.00
             723.92,790.00 715.17,858.00 715.17,858.00
             715.17,858.00 713.91,881.00 713.91,881.00
             713.91,881.00 712.00,909.00 712.00,909.00
             712.00,909.00 712.00,926.00 712.00,926.00
             712.00,926.00 711.00,942.00 711.00,942.00
             711.00,942.00 711.00,981.00 711.00,981.00
             711.00,981.00 712.00,996.00 712.00,996.00
             712.00,996.00 713.00,1018.00 713.00,1018.00
             713.00,1018.00 715.17,1049.00 715.17,1049.00
             715.17,1049.00 719.00,1085.00 719.00,1085.00
             724.92,1082.48 729.99,1077.61 735.00,1073.60 Z
           M 697.00,1414.28
           C 697.00,1414.28 645.00,1453.75 645.00,1453.75
             591.82,1497.68 539.77,1543.23 491.00,1592.00
             465.16,1617.84 440.02,1644.07 416.42,1672.00
             373.43,1722.90 339.24,1776.89 308.74,1836.00
             282.79,1886.30 260.83,1938.53 248.58,1994.00
             244.25,2013.60 241.28,2033.00 239.91,2053.00
             239.91,2053.00 239.00,2065.00 239.00,2065.00
             239.00,2065.00 239.00,2093.00 239.00,2093.00
             239.00,2093.00 239.91,2105.00 239.91,2105.00
             242.60,2143.41 250.82,2184.79 264.05,2221.00
             277.73,2258.43 295.86,2293.34 318.72,2326.00
             349.58,2370.09 388.62,2409.39 431.00,2442.42
             483.05,2482.99 539.96,2513.38 603.00,2532.98
             636.81,2543.48 671.78,2550.65 707.00,2554.17
             707.00,2554.17 729.00,2556.09 729.00,2556.09
             729.00,2556.09 739.00,2557.00 739.00,2557.00
             739.00,2557.00 759.00,2558.00 759.00,2558.00
             759.00,2558.00 782.00,2558.00 782.00,2558.00
             782.00,2558.00 799.00,2557.00 799.00,2557.00
             824.07,2556.96 849.21,2553.38 874.00,2549.73
             874.00,2549.73 911.00,2543.00 911.00,2543.00
             911.00,2543.00 903.08,2495.00 903.08,2495.00
             903.08,2495.00 887.41,2401.00 887.41,2401.00
             887.41,2401.00 839.58,2108.00 839.58,2108.00
             839.58,2108.00 820.58,1990.00 820.58,1990.00
             820.58,1990.00 812.00,1936.00 812.00,1936.00
             792.04,1937.62 771.60,1938.68 752.00,1943.23
             693.63,1956.79 645.01,1987.27 613.06,2039.00
             595.40,2067.60 584.26,2100.46 581.91,2134.00
             581.91,2134.00 581.00,2146.00 581.00,2146.00
             581.00,2146.00 581.00,2164.00 581.00,2164.00
             581.02,2179.23 584.24,2200.31 588.43,2215.00
             598.58,2250.58 616.94,2281.68 639.13,2311.00
             654.09,2330.77 670.06,2347.54 690.00,2362.37
             696.75,2367.39 708.15,2375.52 716.00,2378.00
             709.40,2383.73 703.28,2388.57 700.00,2397.00
             693.65,2395.19 669.02,2381.45 662.00,2377.42
             632.68,2360.61 604.95,2340.95 581.00,2317.00
             535.99,2272.00 503.01,2207.52 487.63,2146.00
             483.25,2128.50 477.21,2095.63 477.00,2078.00
             477.00,2078.00 477.00,2051.00 477.00,2051.00
             477.00,2051.00 478.72,2032.00 478.72,2032.00
             482.95,1997.65 493.09,1965.55 507.14,1934.00
             545.53,1847.76 616.62,1774.45 701.00,1732.37
             701.00,1732.37 712.00,1727.72 712.00,1727.72
             728.20,1720.75 742.06,1715.71 759.00,1710.86
             759.00,1710.86 776.00,1706.00 776.00,1706.00
             776.00,1706.00 764.41,1636.00 764.41,1636.00
             764.41,1636.00 739.75,1487.00 739.75,1487.00
             739.75,1487.00 725.00,1397.00 725.00,1397.00
             717.49,1399.39 703.89,1409.46 697.00,1414.28 Z
           M 1096.26,2429.00
           C 1110.17,2409.75 1122.19,2387.35 1130.31,2365.00
             1130.31,2365.00 1136.67,2345.00 1136.67,2345.00
             1144.55,2320.76 1148.34,2291.40 1150.09,2266.00
             1150.09,2266.00 1151.00,2254.00 1151.00,2254.00
             1151.00,2254.00 1151.00,2210.00 1151.00,2210.00
             1151.00,2210.00 1150.00,2200.00 1150.00,2200.00
             1150.00,2200.00 1150.00,2191.00 1150.00,2191.00
             1150.00,2191.00 1148.17,2176.00 1148.17,2176.00
             1141.29,2107.25 1119.86,2041.33 1068.00,1993.09
             1058.86,1984.59 1047.67,1976.83 1037.00,1970.40
             1002.65,1949.68 970.40,1940.91 931.00,1935.72
             931.00,1935.72 920.00,1934.04 920.00,1934.04
             920.00,1934.04 911.00,1934.04 911.00,1934.04
             911.00,1934.04 901.00,1933.00 901.00,1933.00
             901.00,1933.00 887.00,1932.18 887.00,1932.18
             887.00,1932.18 875.00,1933.00 875.00,1933.00
             875.00,1933.00 856.00,1933.00 856.00,1933.00
             856.00,1933.00 864.42,1985.00 864.42,1985.00
             864.42,1985.00 881.42,2091.00 881.42,2091.00
             881.42,2091.00 924.58,2359.00 924.58,2359.00
             924.58,2359.00 941.58,2465.00 941.58,2465.00
             941.58,2465.00 952.00,2529.00 952.00,2529.00
             1008.37,2509.45 1060.78,2478.09 1096.26,2429.00 Z" />
</svg>
