<?xml version="1.0" encoding="UTF-8" standalone="no"?>
<!DOCTYPE svg PUBLIC "-//W3C//DTD SVG 20010904//EN"
              "http://www.w3.org/TR/2001/REC-SVG-20010904/DTD/svg10.dtd">

<svg xmlns="http://www.w3.org/2000/svg"
     width="17.7778in" height="20.7361in"
     viewBox="0 0 1280 1493">
  <path id="Selection"
        fill="none" stroke="black" stroke-width="1"
        d="M 334.58,376.09
           C 347.16,368.33 377.54,355.62 392.00,353.26
             392.00,353.26 401.00,352.71 401.00,352.71
             401.00,352.71 413.00,351.08 413.00,351.08
             413.00,351.08 427.00,352.72 427.00,352.72
             427.00,352.72 435.00,353.26 435.00,353.26
             468.07,358.68 504.98,380.22 522.82,409.00
             533.38,426.03 539.79,446.23 542.13,466.00
             542.70,470.88 543.89,470.34 544.00,477.00
             544.00,477.00 545.98,503.00 545.98,503.00
             545.98,503.00 544.00,526.00 544.00,526.00
             543.91,532.60 542.94,531.95 542.21,537.00
             539.20,557.75 531.52,579.05 520.02,596.72
             490.78,641.62 438.85,656.59 388.00,656.00
             377.51,655.87 356.10,652.48 346.00,649.43
             326.10,643.43 305.26,632.03 290.00,617.91
             277.54,606.38 269.31,592.82 261.47,578.00
             256.40,568.43 251.25,558.26 247.73,548.00
             236.90,516.41 232.95,483.23 233.00,450.00
             233.00,450.00 235.96,418.00 235.96,418.00
             235.96,418.00 235.96,411.00 235.96,411.00
             235.96,411.00 237.81,404.00 237.81,404.00
             244.38,363.78 257.40,332.31 279.21,298.00
             285.93,287.42 292.98,276.90 301.35,267.50
             309.52,258.31 318.40,249.26 327.66,241.18
             327.66,241.18 335.58,234.99 335.58,234.99
             335.58,234.99 367.88,210.46 367.88,210.46
             367.88,210.46 393.00,196.49 393.00,196.49
             417.83,183.72 438.92,175.32 466.00,168.63
             466.00,168.63 482.00,164.37 482.00,164.37
             482.00,164.37 493.00,162.26 493.00,162.26
             493.00,162.26 500.00,161.68 500.00,161.68
             500.00,161.68 507.00,159.95 507.00,159.95
             507.00,159.95 515.00,159.95 515.00,159.95
             515.00,159.95 524.00,158.04 524.00,158.04
             524.00,158.04 534.00,158.04 534.00,158.04
             534.00,158.04 544.00,157.00 544.00,157.00
             544.00,157.00 607.00,158.09 607.00,158.09
             607.00,158.09 619.00,160.02 619.00,160.02
             619.00,160.02 627.00,160.02 627.00,160.02
             627.00,160.02 634.00,161.96 634.00,161.96
             634.00,161.96 641.00,161.96 641.00,161.96
             641.00,161.96 648.00,163.74 648.00,163.74
             648.00,163.74 654.00,164.26 654.00,164.26
             654.00,164.26 671.00,168.62 671.00,168.62
             671.00,168.62 693.00,173.71 693.00,173.71
             720.86,181.48 756.66,195.48 781.01,210.91
             830.19,242.06 871.65,289.78 898.97,341.00
             910.46,362.55 921.36,390.60 928.54,414.00
             928.54,414.00 934.55,434.00 934.55,434.00
             934.55,434.00 939.53,458.00 939.53,458.00
             939.53,458.00 941.62,465.00 941.62,465.00
             941.62,465.00 942.21,472.00 942.21,472.00
             942.21,472.00 943.96,479.00 943.96,479.00
             943.96,479.00 943.96,488.00 943.96,488.00
             944.93,495.21 945.85,490.23 946.00,503.00
             946.00,503.00 948.00,520.00 948.00,520.00
             948.00,520.00 950.00,553.00 950.00,553.00
             950.00,553.00 950.00,617.00 950.00,617.00
             950.00,617.00 948.00,642.00 948.00,642.00
             947.94,653.14 947.09,649.43 945.99,657.00
             945.99,657.00 945.99,667.00 945.99,667.00
             945.99,667.00 943.98,674.00 943.98,674.00
             943.98,674.00 943.98,681.00 943.98,681.00
             943.98,681.00 942.26,687.00 942.26,687.00
             942.26,687.00 941.63,693.00 941.63,693.00
             941.63,693.00 937.59,710.00 937.59,710.00
             937.59,710.00 932.56,733.00 932.56,733.00
             932.56,733.00 919.88,774.00 919.88,774.00
             904.59,819.69 885.14,861.66 860.33,903.00
             860.33,903.00 843.73,928.00 843.73,928.00
             811.22,976.14 776.27,1014.96 733.71,1054.39
             733.71,1054.39 724.17,1062.58 724.17,1062.58
             655.85,1124.76 578.15,1176.30 496.42,1219.10
             496.42,1219.10 449.83,1243.22 449.83,1243.22
             449.83,1243.22 425.00,1254.09 425.00,1254.09
             425.00,1254.09 366.58,1280.34 366.58,1280.34
             366.58,1280.34 352.28,1285.69 352.28,1285.69
             352.28,1285.69 274.00,1314.78 274.00,1314.78
             274.00,1314.78 227.00,1330.71 227.00,1330.71
             219.24,1333.21 213.76,1336.77 205.00,1336.99
             196.42,1337.19 175.62,1331.85 185.78,1319.90
             186.98,1318.48 188.79,1316.84 190.30,1315.75
             196.67,1311.14 208.49,1306.80 216.00,1303.52
             216.00,1303.52 251.00,1287.63 251.00,1287.63
             251.00,1287.63 319.00,1257.89 319.00,1257.89
             319.00,1257.89 368.20,1233.17 368.20,1233.17
             368.20,1233.17 404.91,1213.54 404.91,1213.54
             404.91,1213.54 441.99,1189.78 441.99,1189.78
             441.99,1189.78 464.00,1175.96 464.00,1175.96
             464.00,1175.96 498.17,1151.00 498.17,1151.00
             498.17,1151.00 535.57,1121.96 535.57,1121.96
             535.57,1121.96 544.05,1114.01 544.05,1114.01
             544.05,1114.01 578.96,1082.66 578.96,1082.66
             578.96,1082.66 592.65,1068.04 592.65,1068.04
             592.65,1068.04 615.83,1044.00 615.83,1044.00
             615.83,1044.00 633.25,1022.99 633.25,1022.99
             633.25,1022.99 659.02,990.91 659.02,990.91
             659.02,990.91 678.54,962.00 678.54,962.00
             678.54,962.00 699.86,928.00 699.86,928.00
             720.98,891.39 742.95,839.75 754.26,799.00
             754.26,799.00 765.98,749.00 765.98,749.00
             765.98,749.00 765.98,743.00 765.98,743.00
             765.98,743.00 768.00,736.00 768.00,736.00
             768.00,736.00 768.00,729.00 768.00,729.00
             768.00,729.00 769.83,722.00 769.83,722.00
             769.83,722.00 771.18,710.00 771.18,710.00
             772.14,702.25 772.94,706.20 773.00,695.00
             773.00,695.00 775.09,676.00 775.09,676.00
             775.09,676.00 775.09,664.00 775.09,664.00
             775.92,656.99 776.98,658.93 777.00,649.00
             777.00,649.00 777.00,564.00 777.00,564.00
             776.98,554.07 775.92,556.01 775.08,549.00
             775.08,549.00 775.08,533.00 775.08,533.00
             774.90,525.68 773.58,526.18 772.97,521.00
             772.97,521.00 772.97,512.00 772.97,512.00
             772.97,512.00 768.32,484.00 768.32,484.00
             768.32,484.00 767.74,476.00 767.74,476.00
             767.74,476.00 766.02,470.00 766.02,470.00
             766.02,470.00 766.02,463.00 766.02,463.00
             766.02,463.00 764.37,457.00 764.37,457.00
             764.37,457.00 763.63,451.00 763.63,451.00
             763.63,451.00 759.37,432.00 759.37,432.00
             759.37,432.00 756.63,416.00 756.63,416.00
             756.63,416.00 745.65,374.00 745.65,374.00
             742.11,362.94 737.59,352.47 732.69,342.00
             732.69,342.00 727.30,329.91 727.30,329.91
             710.64,296.41 690.31,268.97 661.00,245.55
             643.78,231.80 635.38,227.01 615.00,218.85
             615.00,218.85 604.00,214.71 604.00,214.71
             604.00,214.71 569.00,207.00 569.00,207.00
             569.00,207.00 558.00,207.00 558.00,207.00
             558.00,207.00 547.00,205.09 547.00,205.09
             547.00,205.09 532.00,205.09 532.00,205.09
             532.00,205.09 518.00,206.83 518.00,206.83
             518.00,206.83 505.00,207.46 505.00,207.46
             505.00,207.46 495.00,209.82 495.00,209.82
             476.37,212.17 468.35,215.24 451.00,220.65
             423.76,229.14 403.09,239.75 380.00,256.47
             367.11,265.80 353.87,275.40 343.15,287.31
             343.15,287.31 337.46,294.58 337.46,294.58
             324.17,310.90 319.22,319.44 311.58,339.00
             308.57,346.72 305.62,354.76 304.02,363.00
             304.02,363.00 304.02,369.00 304.02,369.00
             302.88,375.50 302.02,372.33 302.00,382.00
             302.00,382.00 302.00,389.00 302.00,389.00
             302.01,393.40 301.94,394.64 303.00,399.00
             303.00,399.00 334.58,376.09 334.58,376.09 Z
           M 1137.00,266.96
           C 1146.43,267.42 1150.43,268.47 1159.09,272.19
             1189.72,285.35 1205.47,311.94 1204.26,345.00
             1203.72,359.52 1199.68,372.99 1191.53,385.12
             1180.29,401.86 1157.46,415.96 1137.00,416.00
             1137.00,416.00 1118.00,416.00 1118.00,416.00
             1110.64,415.87 1103.19,413.02 1096.59,410.03
             1090.25,407.15 1085.58,404.88 1080.00,400.48
             1065.29,388.90 1054.03,367.90 1054.00,349.00
             1054.00,349.00 1054.00,333.00 1054.00,333.00
             1054.10,325.12 1057.70,313.15 1061.09,306.00
             1070.73,285.67 1091.38,272.10 1113.00,267.52
             1113.00,267.52 1124.00,266.42 1124.00,266.42
             1130.97,265.60 1130.86,266.67 1137.00,266.96 Z
           M 1136.00,613.00
           C 1144.31,613.01 1147.36,614.34 1155.00,617.36
             1179.03,626.83 1197.09,645.21 1202.24,671.00
             1203.22,675.91 1203.90,675.16 1204.00,681.00
             1204.22,694.91 1203.91,706.73 1198.22,719.83
             1190.70,737.13 1172.11,754.11 1154.00,759.53
             1146.74,761.70 1145.03,761.50 1138.00,762.17
             1133.90,762.56 1132.56,763.14 1128.00,762.96
             1128.00,762.96 1112.00,761.74 1112.00,761.74
             1099.22,759.65 1083.40,750.62 1074.29,741.57
             1063.02,730.38 1054.08,712.03 1054.00,696.00
             1054.00,696.00 1054.00,680.00 1054.00,680.00
             1054.21,662.48 1064.03,643.50 1076.51,631.50
             1086.46,621.95 1100.02,617.16 1113.00,613.59
             1118.75,612.54 1129.70,612.99 1136.00,613.00 Z" />
</svg>
