<?xml version="1.0" encoding="UTF-8" standalone="no"?>
<!DOCTYPE svg PUBLIC "-//W3C//DTD SVG 20010904//EN"
              "http://www.w3.org/TR/2001/REC-SVG-20010904/DTD/svg10.dtd">

<svg xmlns="http://www.w3.org/2000/svg"
     width="9.16667in" height="9.16667in"
     viewBox="0 0 660 660">
  <path id="Selection"
        fill="none" stroke="black" stroke-width="1"
        d="M 241.00,15.80
           C 256.86,12.74 271.95,12.82 288.00,13.00
             315.52,13.33 350.46,23.69 376.00,33.74
             417.22,49.96 459.08,75.20 494.00,102.42
             494.00,102.42 527.00,130.85 527.00,130.85
             527.00,130.85 572.00,170.16 572.00,170.16
             572.00,170.16 608.00,202.00 608.00,202.00
             606.70,193.54 599.95,174.38 596.60,166.00
             585.46,138.12 570.24,111.49 548.99,90.01
             540.30,81.23 531.77,75.60 522.00,68.37
             517.54,65.07 512.60,62.25 509.00,58.00
             519.43,61.83 536.48,73.54 545.00,80.87
             570.31,102.62 591.49,132.96 603.80,164.00
             607.43,173.17 610.73,182.43 613.13,192.00
             613.13,192.00 617.23,210.00 617.23,210.00
             621.52,220.23 634.54,222.72 637.00,230.00
             637.00,230.00 623.00,229.00 623.00,229.00
             623.00,229.00 621.17,250.00 621.17,250.00
             621.17,250.00 619.83,267.00 619.83,267.00
             619.53,270.03 618.04,281.77 618.68,284.00
             619.52,286.91 628.20,297.34 630.56,301.00
             640.55,316.53 648.78,335.34 649.00,354.00
             649.06,358.77 650.74,363.58 649.00,368.00
             647.43,356.84 640.56,340.02 635.22,330.00
             631.76,323.51 627.54,317.60 620.00,316.00
             620.00,316.00 608.29,362.00 608.29,362.00
             607.19,365.81 602.75,379.21 602.85,382.00
             602.94,384.51 607.53,394.51 608.78,398.00
             612.15,407.42 614.80,417.15 616.58,427.00
             620.76,450.15 619.85,476.76 608.68,498.00
             601.74,511.19 595.34,517.66 585.00,528.00
             580.18,532.82 575.56,538.02 570.00,542.00
             574.81,533.05 587.10,524.95 595.69,509.00
             612.90,477.06 609.63,433.11 592.00,402.00
             580.42,430.95 556.64,467.34 537.42,492.00
             496.35,544.69 433.43,600.14 371.00,625.55
             357.99,630.84 344.61,634.99 331.00,638.37
             303.04,645.33 265.49,647.33 237.00,643.27
             229.69,642.23 210.73,639.40 205.00,636.00
             222.46,638.32 234.00,640.21 252.00,640.00
             252.00,640.00 262.00,639.09 262.00,639.09
             287.37,637.34 311.59,632.56 336.00,625.42
             347.10,622.18 371.10,613.95 381.00,609.03
             381.00,609.03 414.00,588.33 414.00,588.33
             441.04,570.30 472.06,544.94 495.00,522.00
             523.92,493.08 547.37,464.77 565.75,428.00
             569.83,419.85 573.42,411.64 576.33,403.00
             577.20,400.44 579.50,395.31 578.41,392.80
             576.31,388.00 563.95,381.21 559.00,379.21
             539.99,371.52 519.32,369.77 499.00,370.00
             499.00,370.00 489.00,370.91 489.00,370.91
             442.68,374.15 402.64,386.65 359.00,401.33
             289.21,424.82 220.55,452.49 149.00,470.37
             121.83,477.17 100.12,481.04 72.00,481.00
             51.40,480.97 32.74,475.18 24.00,455.00
             43.01,460.50 70.08,461.03 90.00,461.00
             104.71,460.98 143.80,454.78 159.00,451.42
             195.54,443.35 231.11,431.67 266.00,418.19
             266.00,418.19 318.00,397.15 318.00,397.15
             318.00,397.15 353.00,382.06 353.00,382.06
             374.05,374.01 396.16,368.09 418.00,362.63
             439.23,357.32 476.60,350.03 498.00,350.00
             498.00,350.00 527.00,350.00 527.00,350.00
             548.22,350.25 573.71,358.05 589.00,373.00
             593.57,359.04 598.36,332.94 600.58,318.00
             601.16,314.09 603.59,300.08 602.40,297.13
             601.06,293.80 595.09,291.36 592.00,289.75
             592.00,289.75 566.00,275.75 566.00,275.75
             528.11,256.81 497.85,239.64 457.00,226.00
             424.02,214.99 392.30,205.04 358.00,198.61
             271.36,182.37 179.59,184.95 96.00,214.69
             77.28,221.35 54.26,231.87 37.00,241.65
             37.00,241.65 11.00,258.00 11.00,258.00
             21.67,239.03 45.41,220.55 64.00,209.40
             101.54,186.88 143.85,176.45 187.00,171.84
             187.00,171.84 208.00,169.96 208.00,169.96
             208.00,169.96 221.00,169.96 221.00,169.96
             221.00,169.96 233.00,169.00 233.00,169.00
             271.47,168.94 308.01,170.57 346.00,177.42
             405.43,188.14 468.05,212.92 523.00,237.70
             523.00,237.70 576.00,262.74 576.00,262.74
             576.00,262.74 607.00,278.00 607.00,278.00
             609.44,268.93 611.88,262.82 612.00,253.00
             612.00,253.00 611.42,227.00 611.42,227.00
             611.10,224.57 611.07,221.13 609.98,219.01
             607.87,214.91 596.18,206.78 592.00,203.39
             592.00,203.39 545.00,166.58 545.00,166.58
             545.00,166.58 471.00,109.88 471.00,109.88
             471.00,109.88 453.00,97.12 453.00,97.12
             453.00,97.12 414.00,68.34 414.00,68.34
             385.00,49.41 353.93,34.92 320.00,27.42
             301.59,23.36 280.82,20.97 262.00,21.00
             262.00,21.00 243.00,22.04 243.00,22.04
             243.00,22.04 220.00,25.08 220.00,25.08
             216.04,25.75 211.88,27.29 208.00,26.00
             220.62,21.59 227.28,18.45 241.00,15.80 Z
           M 507.00,56.00
           C 507.00,56.00 506.00,57.00 506.00,57.00
             506.00,57.00 506.00,56.00 506.00,56.00
             506.00,56.00 507.00,56.00 507.00,56.00 Z
           M 398.00,601.00
           C 398.00,601.00 399.00,602.00 399.00,602.00
             399.00,602.00 399.00,601.00 399.00,601.00
             399.00,601.00 398.00,601.00 398.00,601.00 Z
           M 203.00,635.00
           C 203.00,635.00 202.00,636.00 202.00,636.00
             202.00,636.00 202.00,635.00 202.00,635.00
             202.00,635.00 203.00,635.00 203.00,635.00 Z" />
</svg>
