solid OpenSCAD_Model
  facet normal -0.994522 0.104529 0
    outer loop
      vertex -20 2.44921e-015 -2.5
      vertex -19.563 4.15823 2.5
      vertex -19.563 4.15823 -2.5
    endloop
  endfacet
  facet normal -0.994522 0.104529 0
    outer loop
      vertex -19.563 4.15823 2.5
      vertex -20 2.44921e-015 -2.5
      vertex -20 2.44921e-015 2.5
    endloop
  endfacet
  facet normal -0.951057 0.309017 0
    outer loop
      vertex -19.563 4.15823 -2.5
      vertex -18.2709 8.13473 2.5
      vertex -18.2709 8.13473 -2.5
    endloop
  endfacet
  facet normal -0.951057 0.309017 0
    outer loop
      vertex -18.2709 8.13473 2.5
      vertex -19.563 4.15823 -2.5
      vertex -19.563 4.15823 2.5
    endloop
  endfacet
  facet normal 0.866026 0.5 0
    outer loop
      vertex 18.2709 8.13473 2.5
      vertex 16.1803 11.7557 -2.5
      vertex 16.1803 11.7557 2.5
    endloop
  endfacet
  facet normal 0.866026 0.5 0
    outer loop
      vertex 16.1803 11.7557 -2.5
      vertex 18.2709 8.13473 2.5
      vertex 18.2709 8.13473 -2.5
    endloop
  endfacet
  facet normal -0.587785 0.809017 0
    outer loop
      vertex -10 17.3205 -2.5
      vertex -13.3826 14.8629 2.5
      vertex -10 17.3205 2.5
    endloop
  endfacet
  facet normal -0.587785 0.809017 0
    outer loop
      vertex -13.3826 14.8629 2.5
      vertex -10 17.3205 -2.5
      vertex -13.3826 14.8629 -2.5
    endloop
  endfacet
  facet normal 0 0 1
    outer loop
      vertex 4.45818 4.85889 2.5
      vertex -5.00596 5.65249 2.5
      vertex -4.11623 3.95726 2.5
    endloop
  endfacet
  facet normal 0 0 1
    outer loop
      vertex -6.58158 6.74006 2.5
      vertex -2.09057 19.8904 2.5
      vertex -6.18034 19.0211 2.5
    endloop
  endfacet
  facet normal 0 0 1
    outer loop
      vertex -2.09057 19.8904 2.5
      vertex -6.58158 6.74006 2.5
      vertex -5.00596 5.65249 2.5
    endloop
  endfacet
  facet normal -0 0 1
    outer loop
      vertex -10 17.3205 2.5
      vertex -6.58158 6.74006 2.5
      vertex -6.18034 19.0211 2.5
    endloop
  endfacet
  facet normal 0 0 1
    outer loop
      vertex -6.58158 6.74006 2.5
      vertex -10 17.3205 2.5
      vertex -8.48215 6.97083 2.5
    endloop
  endfacet
  facet normal -0 0 1
    outer loop
      vertex -13.3826 14.8629 2.5
      vertex -8.48215 6.97083 2.5
      vertex -10 17.3205 2.5
    endloop
  endfacet
  facet normal 0 0 1
    outer loop
      vertex -8.48215 6.97083 2.5
      vertex -13.3826 14.8629 2.5
      vertex -10.2723 6.29193 2.5
    endloop
  endfacet
  facet normal -0 0 1
    outer loop
      vertex -16.1803 11.7557 2.5
      vertex -10.2723 6.29193 2.5
      vertex -13.3826 14.8629 2.5
    endloop
  endfacet
  facet normal 0 0 1
    outer loop
      vertex -10.2723 6.29193 2.5
      vertex -16.1803 11.7557 2.5
      vertex -11.5418 4.85889 2.5
    endloop
  endfacet
  facet normal -0 0 1
    outer loop
      vertex -18.2709 8.13473 2.5
      vertex -11.5418 4.85889 2.5
      vertex -16.1803 11.7557 2.5
    endloop
  endfacet
  facet normal 0 0 1
    outer loop
      vertex -19.563 4.15823 2.5
      vertex -11.5418 4.85889 2.5
      vertex -18.2709 8.13473 2.5
    endloop
  endfacet
  facet normal 0 0 1
    outer loop
      vertex -11.5418 4.85889 2.5
      vertex -19.563 4.15823 2.5
      vertex -12 3 2.5
    endloop
  endfacet
  facet normal 0 0 1
    outer loop
      vertex -20 2.44921e-015 2.5
      vertex -12 3 2.5
      vertex -19.563 4.15823 2.5
    endloop
  endfacet
  facet normal 0 0 1
    outer loop
      vertex -12 3 2.5
      vertex -20 2.44921e-015 2.5
      vertex -13 -12.9289 2.5
    endloop
  endfacet
  facet normal 0 0 1
    outer loop
      vertex -13 -12.9289 2.5
      vertex -20 2.44921e-015 2.5
      vertex -20 -19.9289 2.5
    endloop
  endfacet
  facet normal -0 0 1
    outer loop
      vertex 11.8838 2.04274 2.5
      vertex 20 -2.44921e-015 2.5
      vertex 19.563 4.15823 2.5
    endloop
  endfacet
  facet normal 0 0 1
    outer loop
      vertex 11.8838 3.95726 2.5
      vertex 19.563 4.15823 2.5
      vertex 18.2709 8.13473 2.5
    endloop
  endfacet
  facet normal 0 0 1
    outer loop
      vertex 10.994 5.65249 2.5
      vertex 18.2709 8.13473 2.5
      vertex 16.1803 11.7557 2.5
    endloop
  endfacet
  facet normal 0 0 1
    outer loop
      vertex 9.41842 6.74006 2.5
      vertex 16.1803 11.7557 2.5
      vertex 13.3826 14.8629 2.5
    endloop
  endfacet
  facet normal 0 0 1
    outer loop
      vertex 19.563 4.15823 2.5
      vertex 11.8838 3.95726 2.5
      vertex 11.8838 2.04274 2.5
    endloop
  endfacet
  facet normal 0 0 1
    outer loop
      vertex 20 -2.44921e-015 2.5
      vertex 11.8838 2.04274 2.5
      vertex 10.994 0.347508 2.5
    endloop
  endfacet
  facet normal 0 0 1
    outer loop
      vertex 18.2709 8.13473 2.5
      vertex 10.994 5.65249 2.5
      vertex 11.8838 3.95726 2.5
    endloop
  endfacet
  facet normal 0 0 1
    outer loop
      vertex 7.51785 6.97083 2.5
      vertex 13.3826 14.8629 2.5
      vertex 10 17.3205 2.5
    endloop
  endfacet
  facet normal 0 0 1
    outer loop
      vertex 16.1803 11.7557 2.5
      vertex 9.41842 6.74006 2.5
      vertex 10.994 5.65249 2.5
    endloop
  endfacet
  facet normal 0 0 1
    outer loop
      vertex 13.3826 14.8629 2.5
      vertex 7.51785 6.97083 2.5
      vertex 9.41842 6.74006 2.5
    endloop
  endfacet
  facet normal 0 0 1
    outer loop
      vertex 6.18034 19.0211 2.5
      vertex 7.51785 6.97083 2.5
      vertex 10 17.3205 2.5
    endloop
  endfacet
  facet normal 0 0 1
    outer loop
      vertex 6.18034 19.0211 2.5
      vertex 5.72774 6.29193 2.5
      vertex 7.51785 6.97083 2.5
    endloop
  endfacet
  facet normal 0 0 1
    outer loop
      vertex 2.09057 19.8904 2.5
      vertex 5.72774 6.29193 2.5
      vertex 6.18034 19.0211 2.5
    endloop
  endfacet
  facet normal 0 0 1
    outer loop
      vertex -2.09057 19.8904 2.5
      vertex 5.72774 6.29193 2.5
      vertex 2.09057 19.8904 2.5
    endloop
  endfacet
  facet normal 0 0 1
    outer loop
      vertex -5.00596 5.65249 2.5
      vertex 5.72774 6.29193 2.5
      vertex -2.09057 19.8904 2.5
    endloop
  endfacet
  facet normal 0 0 1
    outer loop
      vertex 20 -2.44921e-015 2.5
      vertex 13 -12.9289 2.5
      vertex 20 -19.9289 2.5
    endloop
  endfacet
  facet normal 0 0 1
    outer loop
      vertex 20 -2.44921e-015 2.5
      vertex 10.994 0.347508 2.5
      vertex 13 -12.9289 2.5
    endloop
  endfacet
  facet normal -0 0 1
    outer loop
      vertex 9.41842 -0.740065 2.5
      vertex 13 -12.9289 2.5
      vertex 10.994 0.347508 2.5
    endloop
  endfacet
  facet normal -0 0 1
    outer loop
      vertex 7.51785 -0.970835 2.5
      vertex 13 -12.9289 2.5
      vertex 9.41842 -0.740065 2.5
    endloop
  endfacet
  facet normal 0 0 1
    outer loop
      vertex -1.58329e-015 -12.9289 2.5
      vertex 13 -12.9289 2.5
      vertex 7.51785 -0.970835 2.5
    endloop
  endfacet
  facet normal 0 0 1
    outer loop
      vertex -1.58329e-015 -12.9289 2.5
      vertex 7.51785 -0.970835 2.5
      vertex 5.72774 -0.291935 2.5
    endloop
  endfacet
  facet normal -0 0 1
    outer loop
      vertex -5.00596 0.347508 2.5
      vertex 5.72774 -0.291935 2.5
      vertex 4.45818 1.14111 2.5
    endloop
  endfacet
  facet normal -0 0 1
    outer loop
      vertex -4.11623 2.04274 2.5
      vertex 4.45818 1.14111 2.5
      vertex 4 3 2.5
    endloop
  endfacet
  facet normal 0 0 1
    outer loop
      vertex 4.45818 4.85889 2.5
      vertex -4.11623 3.95726 2.5
      vertex 4 3 2.5
    endloop
  endfacet
  facet normal 0 0 1
    outer loop
      vertex 4.45818 1.14111 2.5
      vertex -4.11623 2.04274 2.5
      vertex -5.00596 0.347508 2.5
    endloop
  endfacet
  facet normal -0 0 1
    outer loop
      vertex -5.00596 5.65249 2.5
      vertex 4.45818 4.85889 2.5
      vertex 5.72774 6.29193 2.5
    endloop
  endfacet
  facet normal 0 0 1
    outer loop
      vertex 4 3 2.5
      vertex -4.11623 3.95726 2.5
      vertex -4.11623 2.04274 2.5
    endloop
  endfacet
  facet normal 0 0 1
    outer loop
      vertex 13 -12.9289 2.5
      vertex -1.58329e-015 -12.9289 2.5
      vertex 6.5 -19.4289 2.5
    endloop
  endfacet
  facet normal 0 0 1
    outer loop
      vertex 5.72774 -0.291935 2.5
      vertex -5.00596 0.347508 2.5
      vertex -1.58329e-015 -12.9289 2.5
    endloop
  endfacet
  facet normal -0 0 1
    outer loop
      vertex -6.58158 -0.740065 2.5
      vertex -1.58329e-015 -12.9289 2.5
      vertex -5.00596 0.347508 2.5
    endloop
  endfacet
  facet normal 0 0 1
    outer loop
      vertex -13 -12.9289 2.5
      vertex -1.58329e-015 -12.9289 2.5
      vertex -6.58158 -0.740065 2.5
    endloop
  endfacet
  facet normal 0 0 1
    outer loop
      vertex -13 -12.9289 2.5
      vertex -6.58158 -0.740065 2.5
      vertex -8.48215 -0.970835 2.5
    endloop
  endfacet
  facet normal 0 0 1
    outer loop
      vertex -13 -12.9289 2.5
      vertex -8.48215 -0.970835 2.5
      vertex -10.2723 -0.291935 2.5
    endloop
  endfacet
  facet normal 0 0 1
    outer loop
      vertex -13 -12.9289 2.5
      vertex -10.2723 -0.291935 2.5
      vertex -11.5418 1.14111 2.5
    endloop
  endfacet
  facet normal 0 0 1
    outer loop
      vertex -13 -12.9289 2.5
      vertex -11.5418 1.14111 2.5
      vertex -12 3 2.5
    endloop
  endfacet
  facet normal 0 0 1
    outer loop
      vertex -1.58329e-015 -12.9289 2.5
      vertex -13 -12.9289 2.5
      vertex -6.5 -19.4289 2.5
    endloop
  endfacet
  facet normal -0.866026 0.5 0
    outer loop
      vertex -18.2709 8.13473 -2.5
      vertex -16.1803 11.7557 2.5
      vertex -16.1803 11.7557 -2.5
    endloop
  endfacet
  facet normal -0.866026 0.5 0
    outer loop
      vertex -16.1803 11.7557 2.5
      vertex -18.2709 8.13473 -2.5
      vertex -18.2709 8.13473 2.5
    endloop
  endfacet
  facet normal 4.56179e-007 1 -0
    outer loop
      vertex 2.09057 19.8904 -2.5
      vertex -2.09057 19.8904 2.5
      vertex 2.09057 19.8904 2.5
    endloop
  endfacet
  facet normal 4.56179e-007 1 0
    outer loop
      vertex -2.09057 19.8904 2.5
      vertex 2.09057 19.8904 -2.5
      vertex -2.09057 19.8904 -2.5
    endloop
  endfacet
  facet normal 0 0 -1
    outer loop
      vertex 20 -2.44921e-015 -2.5
      vertex 10.994 0.347508 -2.5
      vertex 11.8838 2.04274 -2.5
    endloop
  endfacet
  facet normal 0 0 -1
    outer loop
      vertex 13 -12.9289 -2.5
      vertex 9.41842 -0.740065 -2.5
      vertex 10.994 0.347508 -2.5
    endloop
  endfacet
  facet normal 0 0 -1
    outer loop
      vertex 13 -12.9289 -2.5
      vertex 7.51785 -0.970835 -2.5
      vertex 9.41842 -0.740065 -2.5
    endloop
  endfacet
  facet normal 0 0 -1
    outer loop
      vertex -1.58329e-015 -12.9289 -2.5
      vertex 13 -12.9289 -2.5
      vertex 6.5 -19.4289 -2.5
    endloop
  endfacet
  facet normal 0 0 -1
    outer loop
      vertex 13 -12.9289 -2.5
      vertex -1.58329e-015 -12.9289 -2.5
      vertex 7.51785 -0.970835 -2.5
    endloop
  endfacet
  facet normal -0 0 -1
    outer loop
      vertex 7.51785 -0.970835 -2.5
      vertex -1.58329e-015 -12.9289 -2.5
      vertex 5.72774 -0.291935 -2.5
    endloop
  endfacet
  facet normal 0 0 -1
    outer loop
      vertex -5.00596 0.347508 -2.5
      vertex 5.72774 -0.291935 -2.5
      vertex -1.58329e-015 -12.9289 -2.5
    endloop
  endfacet
  facet normal 0 0 -1
    outer loop
      vertex 5.72774 -0.291935 -2.5
      vertex -5.00596 0.347508 -2.5
      vertex 4.45818 1.14111 -2.5
    endloop
  endfacet
  facet normal 0 -0 -1
    outer loop
      vertex -4.11623 2.04274 -2.5
      vertex 4.45818 1.14111 -2.5
      vertex -5.00596 0.347508 -2.5
    endloop
  endfacet
  facet normal 0 0 -1
    outer loop
      vertex -4.11623 3.95726 -2.5
      vertex 4 3 -2.5
      vertex -4.11623 2.04274 -2.5
    endloop
  endfacet
  facet normal 0 0 -1
    outer loop
      vertex -5.00596 5.65249 -2.5
      vertex 4 3 -2.5
      vertex -4.11623 3.95726 -2.5
    endloop
  endfacet
  facet normal 0 0 -1
    outer loop
      vertex 4.45818 1.14111 -2.5
      vertex -4.11623 2.04274 -2.5
      vertex 4 3 -2.5
    endloop
  endfacet
  facet normal 0 0 -1
    outer loop
      vertex -13 -12.9289 -2.5
      vertex -1.58329e-015 -12.9289 -2.5
      vertex -6.5 -19.4289 -2.5
    endloop
  endfacet
  facet normal 0 0 -1
    outer loop
      vertex -1.58329e-015 -12.9289 -2.5
      vertex -6.58158 -0.740065 -2.5
      vertex -5.00596 0.347508 -2.5
    endloop
  endfacet
  facet normal 0 0 -1
    outer loop
      vertex -1.58329e-015 -12.9289 -2.5
      vertex -13 -12.9289 -2.5
      vertex -6.58158 -0.740065 -2.5
    endloop
  endfacet
  facet normal 0 0 -1
    outer loop
      vertex -6.58158 -0.740065 -2.5
      vertex -13 -12.9289 -2.5
      vertex -8.48215 -0.970835 -2.5
    endloop
  endfacet
  facet normal -0 0 -1
    outer loop
      vertex -8.48215 -0.970835 -2.5
      vertex -13 -12.9289 -2.5
      vertex -10.2723 -0.291935 -2.5
    endloop
  endfacet
  facet normal 0 0 -1
    outer loop
      vertex -20 2.44921e-015 -2.5
      vertex -10.2723 -0.291935 -2.5
      vertex -13 -12.9289 -2.5
    endloop
  endfacet
  facet normal 0 0 -1
    outer loop
      vertex -10.2723 -0.291935 -2.5
      vertex -20 2.44921e-015 -2.5
      vertex -11.5418 1.14111 -2.5
    endloop
  endfacet
  facet normal 0 0 -1
    outer loop
      vertex 13 -12.9289 -2.5
      vertex 20 -2.44921e-015 -2.5
      vertex 20 -19.9289 -2.5
    endloop
  endfacet
  facet normal 0 0 -1
    outer loop
      vertex 10.994 0.347508 -2.5
      vertex 20 -2.44921e-015 -2.5
      vertex 13 -12.9289 -2.5
    endloop
  endfacet
  facet normal 0 0 -1
    outer loop
      vertex 20 -2.44921e-015 -2.5
      vertex 11.8838 2.04274 -2.5
      vertex 19.563 4.15823 -2.5
    endloop
  endfacet
  facet normal -0 0 -1
    outer loop
      vertex 19.563 4.15823 -2.5
      vertex 11.8838 3.95726 -2.5
      vertex 18.2709 8.13473 -2.5
    endloop
  endfacet
  facet normal 0 0 -1
    outer loop
      vertex 11.8838 3.95726 -2.5
      vertex 19.563 4.15823 -2.5
      vertex 11.8838 2.04274 -2.5
    endloop
  endfacet
  facet normal 0 0 -1
    outer loop
      vertex 10.994 5.65249 -2.5
      vertex 18.2709 8.13473 -2.5
      vertex 11.8838 3.95726 -2.5
    endloop
  endfacet
  facet normal -0 0 -1
    outer loop
      vertex 18.2709 8.13473 -2.5
      vertex 10.994 5.65249 -2.5
      vertex 16.1803 11.7557 -2.5
    endloop
  endfacet
  facet normal 0 0 -1
    outer loop
      vertex 9.41842 6.74006 -2.5
      vertex 16.1803 11.7557 -2.5
      vertex 10.994 5.65249 -2.5
    endloop
  endfacet
  facet normal -0 0 -1
    outer loop
      vertex 16.1803 11.7557 -2.5
      vertex 9.41842 6.74006 -2.5
      vertex 13.3826 14.8629 -2.5
    endloop
  endfacet
  facet normal 0 0 -1
    outer loop
      vertex 7.51785 6.97083 -2.5
      vertex 13.3826 14.8629 -2.5
      vertex 9.41842 6.74006 -2.5
    endloop
  endfacet
  facet normal -0 0 -1
    outer loop
      vertex 13.3826 14.8629 -2.5
      vertex 7.51785 6.97083 -2.5
      vertex 10 17.3205 -2.5
    endloop
  endfacet
  facet normal 0 0 -1
    outer loop
      vertex 7.51785 6.97083 -2.5
      vertex 6.18034 19.0211 -2.5
      vertex 10 17.3205 -2.5
    endloop
  endfacet
  facet normal 0 0 -1
    outer loop
      vertex 5.72774 6.29193 -2.5
      vertex 6.18034 19.0211 -2.5
      vertex 7.51785 6.97083 -2.5
    endloop
  endfacet
  facet normal 0 0 -1
    outer loop
      vertex 2.09057 19.8904 -2.5
      vertex 5.72774 6.29193 -2.5
      vertex 4.45818 4.85889 -2.5
    endloop
  endfacet
  facet normal 0 0 -1
    outer loop
      vertex 2.09057 19.8904 -2.5
      vertex 4.45818 4.85889 -2.5
      vertex 4 3 -2.5
    endloop
  endfacet
  facet normal 0 0 -1
    outer loop
      vertex 5.72774 6.29193 -2.5
      vertex 2.09057 19.8904 -2.5
      vertex 6.18034 19.0211 -2.5
    endloop
  endfacet
  facet normal 0 0 -1
    outer loop
      vertex 4 3 -2.5
      vertex -5.00596 5.65249 -2.5
      vertex 2.09057 19.8904 -2.5
    endloop
  endfacet
  facet normal -0 0 -1
    outer loop
      vertex 2.09057 19.8904 -2.5
      vertex -5.00596 5.65249 -2.5
      vertex -2.09057 19.8904 -2.5
    endloop
  endfacet
  facet normal 0 0 -1
    outer loop
      vertex -6.58158 6.74006 -2.5
      vertex -2.09057 19.8904 -2.5
      vertex -5.00596 5.65249 -2.5
    endloop
  endfacet
  facet normal 0 0 -1
    outer loop
      vertex -2.09057 19.8904 -2.5
      vertex -6.58158 6.74006 -2.5
      vertex -6.18034 19.0211 -2.5
    endloop
  endfacet
  facet normal 0 0 -1
    outer loop
      vertex -10 17.3205 -2.5
      vertex -6.58158 6.74006 -2.5
      vertex -8.48215 6.97083 -2.5
    endloop
  endfacet
  facet normal 0 0 -1
    outer loop
      vertex -6.58158 6.74006 -2.5
      vertex -10 17.3205 -2.5
      vertex -6.18034 19.0211 -2.5
    endloop
  endfacet
  facet normal 0 0 -1
    outer loop
      vertex -13.3826 14.8629 -2.5
      vertex -8.48215 6.97083 -2.5
      vertex -10.2723 6.29193 -2.5
    endloop
  endfacet
  facet normal 0 0 -1
    outer loop
      vertex -16.1803 11.7557 -2.5
      vertex -10.2723 6.29193 -2.5
      vertex -11.5418 4.85889 -2.5
    endloop
  endfacet
  facet normal 0 0 -1
    outer loop
      vertex -19.563 4.15823 -2.5
      vertex -11.5418 4.85889 -2.5
      vertex -12 3 -2.5
    endloop
  endfacet
  facet normal 0 0 -1
    outer loop
      vertex -8.48215 6.97083 -2.5
      vertex -13.3826 14.8629 -2.5
      vertex -10 17.3205 -2.5
    endloop
  endfacet
  facet normal -0 0 -1
    outer loop
      vertex -11.5418 1.14111 -2.5
      vertex -20 2.44921e-015 -2.5
      vertex -12 3 -2.5
    endloop
  endfacet
  facet normal 0 0 -1
    outer loop
      vertex -10.2723 6.29193 -2.5
      vertex -16.1803 11.7557 -2.5
      vertex -13.3826 14.8629 -2.5
    endloop
  endfacet
  facet normal 0 0 -1
    outer loop
      vertex -11.5418 4.85889 -2.5
      vertex -18.2709 8.13473 -2.5
      vertex -16.1803 11.7557 -2.5
    endloop
  endfacet
  facet normal -0 0 -1
    outer loop
      vertex -11.5418 4.85889 -2.5
      vertex -19.563 4.15823 -2.5
      vertex -18.2709 8.13473 -2.5
    endloop
  endfacet
  facet normal 0 0 -1
    outer loop
      vertex -20 2.44921e-015 -2.5
      vertex -13 -12.9289 -2.5
      vertex -20 -19.9289 -2.5
    endloop
  endfacet
  facet normal -0 0 -1
    outer loop
      vertex -12 3 -2.5
      vertex -20 2.44921e-015 -2.5
      vertex -19.563 4.15823 -2.5
    endloop
  endfacet
  facet normal -0.207912 0.978148 0
    outer loop
      vertex -2.09057 19.8904 -2.5
      vertex -6.18034 19.0211 2.5
      vertex -2.09057 19.8904 2.5
    endloop
  endfacet
  facet normal -0.207912 0.978148 0
    outer loop
      vertex -6.18034 19.0211 2.5
      vertex -2.09057 19.8904 -2.5
      vertex -6.18034 19.0211 -2.5
    endloop
  endfacet
  facet normal -0.406737 0.913545 0
    outer loop
      vertex -6.18034 19.0211 -2.5
      vertex -10 17.3205 2.5
      vertex -6.18034 19.0211 2.5
    endloop
  endfacet
  facet normal -0.406737 0.913545 0
    outer loop
      vertex -10 17.3205 2.5
      vertex -6.18034 19.0211 -2.5
      vertex -10 17.3205 -2.5
    endloop
  endfacet
  facet normal 0.207911 0.978148 -0
    outer loop
      vertex 6.18034 19.0211 -2.5
      vertex 2.09057 19.8904 2.5
      vertex 6.18034 19.0211 2.5
    endloop
  endfacet
  facet normal 0.207911 0.978148 0
    outer loop
      vertex 2.09057 19.8904 2.5
      vertex 6.18034 19.0211 -2.5
      vertex 2.09057 19.8904 -2.5
    endloop
  endfacet
  facet normal 0.951057 0.309017 0
    outer loop
      vertex 19.563 4.15823 2.5
      vertex 18.2709 8.13473 -2.5
      vertex 18.2709 8.13473 2.5
    endloop
  endfacet
  facet normal 0.951057 0.309017 0
    outer loop
      vertex 18.2709 8.13473 -2.5
      vertex 19.563 4.15823 2.5
      vertex 19.563 4.15823 -2.5
    endloop
  endfacet
  facet normal 0.994522 0.104529 0
    outer loop
      vertex 20 -2.44921e-015 2.5
      vertex 19.563 4.15823 -2.5
      vertex 19.563 4.15823 2.5
    endloop
  endfacet
  facet normal 0.994522 0.104529 0
    outer loop
      vertex 19.563 4.15823 -2.5
      vertex 20 -2.44921e-015 2.5
      vertex 20 -2.44921e-015 -2.5
    endloop
  endfacet
  facet normal 0.743145 0.669131 0
    outer loop
      vertex 16.1803 11.7557 2.5
      vertex 13.3826 14.8629 -2.5
      vertex 13.3826 14.8629 2.5
    endloop
  endfacet
  facet normal 0.743145 0.669131 0
    outer loop
      vertex 13.3826 14.8629 -2.5
      vertex 16.1803 11.7557 2.5
      vertex 16.1803 11.7557 -2.5
    endloop
  endfacet
  facet normal -0.743145 0.669131 0
    outer loop
      vertex -16.1803 11.7557 -2.5
      vertex -13.3826 14.8629 2.5
      vertex -13.3826 14.8629 -2.5
    endloop
  endfacet
  facet normal -0.743145 0.669131 0
    outer loop
      vertex -13.3826 14.8629 2.5
      vertex -16.1803 11.7557 -2.5
      vertex -16.1803 11.7557 2.5
    endloop
  endfacet
  facet normal 0.406737 0.913545 -0
    outer loop
      vertex 10 17.3205 -2.5
      vertex 6.18034 19.0211 2.5
      vertex 10 17.3205 2.5
    endloop
  endfacet
  facet normal 0.406737 0.913545 0
    outer loop
      vertex 6.18034 19.0211 2.5
      vertex 10 17.3205 -2.5
      vertex 6.18034 19.0211 -2.5
    endloop
  endfacet
  facet normal 0.587785 0.809017 -0
    outer loop
      vertex 13.3826 14.8629 -2.5
      vertex 10 17.3205 2.5
      vertex 13.3826 14.8629 2.5
    endloop
  endfacet
  facet normal 0.587785 0.809017 0
    outer loop
      vertex 10 17.3205 2.5
      vertex 13.3826 14.8629 -2.5
      vertex 10 17.3205 -2.5
    endloop
  endfacet
  facet normal 1 -0 0
    outer loop
      vertex 20 -19.9289 2.5
      vertex 20 -2.44921e-015 -2.5
      vertex 20 -2.44921e-015 2.5
    endloop
  endfacet
  facet normal 1 0 0
    outer loop
      vertex 20 -2.44921e-015 -2.5
      vertex 20 -19.9289 2.5
      vertex 20 -19.9289 -2.5
    endloop
  endfacet
  facet normal -1 0 0
    outer loop
      vertex -20 -19.9289 -2.5
      vertex -20 2.44921e-015 2.5
      vertex -20 2.44921e-015 -2.5
    endloop
  endfacet
  facet normal -1 -0 0
    outer loop
      vertex -20 2.44921e-015 2.5
      vertex -20 -19.9289 -2.5
      vertex -20 -19.9289 2.5
    endloop
  endfacet
  facet normal -0.707107 -0.707107 0
    outer loop
      vertex -6.5 -19.4289 -2.5
      vertex -13 -12.9289 2.5
      vertex -13 -12.9289 -2.5
    endloop
  endfacet
  facet normal -0.707107 -0.707107 0
    outer loop
      vertex -13 -12.9289 2.5
      vertex -6.5 -19.4289 -2.5
      vertex -6.5 -19.4289 2.5
    endloop
  endfacet
  facet normal 0.707107 -0.707107 0
    outer loop
      vertex -20 -19.9289 2.5
      vertex -13 -12.9289 -2.5
      vertex -13 -12.9289 2.5
    endloop
  endfacet
  facet normal 0.707107 -0.707107 0
    outer loop
      vertex -13 -12.9289 -2.5
      vertex -20 -19.9289 2.5
      vertex -20 -19.9289 -2.5
    endloop
  endfacet
  facet normal -0.707107 -0.707107 0
    outer loop
      vertex 20 -19.9289 -2.5
      vertex 13 -12.9289 2.5
      vertex 13 -12.9289 -2.5
    endloop
  endfacet
  facet normal -0.707107 -0.707107 0
    outer loop
      vertex 13 -12.9289 2.5
      vertex 20 -19.9289 -2.5
      vertex 20 -19.9289 2.5
    endloop
  endfacet
  facet normal 0.707107 -0.707107 0
    outer loop
      vertex 6.5 -19.4289 2.5
      vertex 13 -12.9289 -2.5
      vertex 13 -12.9289 2.5
    endloop
  endfacet
  facet normal 0.707107 -0.707107 0
    outer loop
      vertex 13 -12.9289 -2.5
      vertex 6.5 -19.4289 2.5
      vertex 6.5 -19.4289 -2.5
    endloop
  endfacet
  facet normal -0.707107 -0.707107 0
    outer loop
      vertex 6.5 -19.4289 -2.5
      vertex -1.58329e-015 -12.9289 2.5
      vertex -1.58329e-015 -12.9289 -2.5
    endloop
  endfacet
  facet normal -0.707107 -0.707107 0
    outer loop
      vertex -1.58329e-015 -12.9289 2.5
      vertex 6.5 -19.4289 -2.5
      vertex 6.5 -19.4289 2.5
    endloop
  endfacet
  facet normal 0.707107 -0.707107 0
    outer loop
      vertex -6.5 -19.4289 2.5
      vertex -1.58329e-015 -12.9289 -2.5
      vertex -1.58329e-015 -12.9289 2.5
    endloop
  endfacet
  facet normal 0.707107 -0.707107 0
    outer loop
      vertex -1.58329e-015 -12.9289 -2.5
      vertex -6.5 -19.4289 2.5
      vertex -6.5 -19.4289 -2.5
    endloop
  endfacet
  facet normal 0.970942 0.239315 0
    outer loop
      vertex 4.45818 1.14111 2.5
      vertex 4 3 -2.5
      vertex 4 3 2.5
    endloop
  endfacet
  facet normal 0.970942 0.239315 0
    outer loop
      vertex 4 3 -2.5
      vertex 4.45818 1.14111 2.5
      vertex 4.45818 1.14111 -2.5
    endloop
  endfacet
  facet normal -1 0 0
    outer loop
      vertex 11.8838 2.04274 -2.5
      vertex 11.8838 3.95726 2.5
      vertex 11.8838 3.95726 -2.5
    endloop
  endfacet
  facet normal -1 -0 0
    outer loop
      vertex 11.8838 3.95726 2.5
      vertex 11.8838 2.04274 -2.5
      vertex 11.8838 2.04274 2.5
    endloop
  endfacet
  facet normal -0.120536 0.992709 0
    outer loop
      vertex 9.41842 -0.740065 -2.5
      vertex 7.51785 -0.970835 2.5
      vertex 9.41842 -0.740065 2.5
    endloop
  endfacet
  facet normal -0.120536 0.992709 0
    outer loop
      vertex 7.51785 -0.970835 2.5
      vertex 9.41842 -0.740065 -2.5
      vertex 7.51785 -0.970835 -2.5
    endloop
  endfacet
  facet normal 0.748511 0.663123 0
    outer loop
      vertex 5.72774 -0.291935 2.5
      vertex 4.45818 1.14111 -2.5
      vertex 4.45818 1.14111 2.5
    endloop
  endfacet
  facet normal 0.748511 0.663123 0
    outer loop
      vertex 4.45818 1.14111 -2.5
      vertex 5.72774 -0.291935 2.5
      vertex 5.72774 -0.291935 -2.5
    endloop
  endfacet
  facet normal -0.568064 0.822984 0
    outer loop
      vertex 10.994 0.347508 -2.5
      vertex 9.41842 -0.740065 2.5
      vertex 10.994 0.347508 2.5
    endloop
  endfacet
  facet normal -0.568064 0.822984 0
    outer loop
      vertex 9.41842 -0.740065 2.5
      vertex 10.994 0.347508 -2.5
      vertex 9.41842 -0.740065 -2.5
    endloop
  endfacet
  facet normal 0.354605 -0.935016 0
    outer loop
      vertex 5.72774 6.29193 -2.5
      vertex 7.51785 6.97083 2.5
      vertex 5.72774 6.29193 2.5
    endloop
  endfacet
  facet normal 0.354605 -0.935016 0
    outer loop
      vertex 7.51785 6.97083 2.5
      vertex 5.72774 6.29193 -2.5
      vertex 7.51785 6.97083 -2.5
    endloop
  endfacet
  facet normal 0.354605 0.935016 -0
    outer loop
      vertex 7.51785 -0.970835 -2.5
      vertex 5.72774 -0.291935 2.5
      vertex 7.51785 -0.970835 2.5
    endloop
  endfacet
  facet normal 0.354605 0.935016 0
    outer loop
      vertex 5.72774 -0.291935 2.5
      vertex 7.51785 -0.970835 -2.5
      vertex 5.72774 -0.291935 -2.5
    endloop
  endfacet
  facet normal -0.885456 0.464723 0
    outer loop
      vertex 10.994 0.347508 -2.5
      vertex 11.8838 2.04274 2.5
      vertex 11.8838 2.04274 -2.5
    endloop
  endfacet
  facet normal -0.885456 0.464723 0
    outer loop
      vertex 11.8838 2.04274 2.5
      vertex 10.994 0.347508 -2.5
      vertex 10.994 0.347508 2.5
    endloop
  endfacet
  facet normal 0.970942 -0.239316 0
    outer loop
      vertex 4 3 2.5
      vertex 4.45818 4.85889 -2.5
      vertex 4.45818 4.85889 2.5
    endloop
  endfacet
  facet normal 0.970942 -0.239316 0
    outer loop
      vertex 4.45818 4.85889 -2.5
      vertex 4 3 2.5
      vertex 4 3 -2.5
    endloop
  endfacet
  facet normal 0.748511 -0.663123 0
    outer loop
      vertex 4.45818 4.85889 2.5
      vertex 5.72774 6.29193 -2.5
      vertex 5.72774 6.29193 2.5
    endloop
  endfacet
  facet normal 0.748511 -0.663123 0
    outer loop
      vertex 5.72774 6.29193 -2.5
      vertex 4.45818 4.85889 2.5
      vertex 4.45818 4.85889 -2.5
    endloop
  endfacet
  facet normal -0.120536 -0.992709 0
    outer loop
      vertex 7.51785 6.97083 -2.5
      vertex 9.41842 6.74006 2.5
      vertex 7.51785 6.97083 2.5
    endloop
  endfacet
  facet normal -0.120536 -0.992709 -0
    outer loop
      vertex 9.41842 6.74006 2.5
      vertex 7.51785 6.97083 -2.5
      vertex 9.41842 6.74006 -2.5
    endloop
  endfacet
  facet normal -0.568065 -0.822984 0
    outer loop
      vertex 9.41842 6.74006 -2.5
      vertex 10.994 5.65249 2.5
      vertex 9.41842 6.74006 2.5
    endloop
  endfacet
  facet normal -0.568065 -0.822984 -0
    outer loop
      vertex 10.994 5.65249 2.5
      vertex 9.41842 6.74006 -2.5
      vertex 10.994 5.65249 -2.5
    endloop
  endfacet
  facet normal -0.885456 -0.464723 0
    outer loop
      vertex 11.8838 3.95726 -2.5
      vertex 10.994 5.65249 2.5
      vertex 10.994 5.65249 -2.5
    endloop
  endfacet
  facet normal -0.885456 -0.464723 0
    outer loop
      vertex 10.994 5.65249 2.5
      vertex 11.8838 3.95726 -2.5
      vertex 11.8838 3.95726 2.5
    endloop
  endfacet
  facet normal 0.970942 0.239316 0
    outer loop
      vertex -11.5418 1.14111 2.5
      vertex -12 3 -2.5
      vertex -12 3 2.5
    endloop
  endfacet
  facet normal 0.970942 0.239316 0
    outer loop
      vertex -12 3 -2.5
      vertex -11.5418 1.14111 2.5
      vertex -11.5418 1.14111 -2.5
    endloop
  endfacet
  facet normal -1 0 0
    outer loop
      vertex -4.11623 2.04274 -2.5
      vertex -4.11623 3.95726 2.5
      vertex -4.11623 3.95726 -2.5
    endloop
  endfacet
  facet normal -1 -0 0
    outer loop
      vertex -4.11623 3.95726 2.5
      vertex -4.11623 2.04274 -2.5
      vertex -4.11623 2.04274 2.5
    endloop
  endfacet
  facet normal -0.120536 0.992709 0
    outer loop
      vertex -6.58158 -0.740065 -2.5
      vertex -8.48215 -0.970835 2.5
      vertex -6.58158 -0.740065 2.5
    endloop
  endfacet
  facet normal -0.120536 0.992709 0
    outer loop
      vertex -8.48215 -0.970835 2.5
      vertex -6.58158 -0.740065 -2.5
      vertex -8.48215 -0.970835 -2.5
    endloop
  endfacet
  facet normal 0.748511 0.663123 0
    outer loop
      vertex -10.2723 -0.291935 2.5
      vertex -11.5418 1.14111 -2.5
      vertex -11.5418 1.14111 2.5
    endloop
  endfacet
  facet normal 0.748511 0.663123 0
    outer loop
      vertex -11.5418 1.14111 -2.5
      vertex -10.2723 -0.291935 2.5
      vertex -10.2723 -0.291935 -2.5
    endloop
  endfacet
  facet normal -0.568064 0.822984 0
    outer loop
      vertex -5.00596 0.347508 -2.5
      vertex -6.58158 -0.740065 2.5
      vertex -5.00596 0.347508 2.5
    endloop
  endfacet
  facet normal -0.568064 0.822984 0
    outer loop
      vertex -6.58158 -0.740065 2.5
      vertex -5.00596 0.347508 -2.5
      vertex -6.58158 -0.740065 -2.5
    endloop
  endfacet
  facet normal 0.354605 -0.935016 0
    outer loop
      vertex -10.2723 6.29193 -2.5
      vertex -8.48215 6.97083 2.5
      vertex -10.2723 6.29193 2.5
    endloop
  endfacet
  facet normal 0.354605 -0.935016 0
    outer loop
      vertex -8.48215 6.97083 2.5
      vertex -10.2723 6.29193 -2.5
      vertex -8.48215 6.97083 -2.5
    endloop
  endfacet
  facet normal 0.354605 0.935016 -0
    outer loop
      vertex -8.48215 -0.970835 -2.5
      vertex -10.2723 -0.291935 2.5
      vertex -8.48215 -0.970835 2.5
    endloop
  endfacet
  facet normal 0.354605 0.935016 0
    outer loop
      vertex -10.2723 -0.291935 2.5
      vertex -8.48215 -0.970835 -2.5
      vertex -10.2723 -0.291935 -2.5
    endloop
  endfacet
  facet normal -0.885456 0.464723 0
    outer loop
      vertex -5.00596 0.347508 -2.5
      vertex -4.11623 2.04274 2.5
      vertex -4.11623 2.04274 -2.5
    endloop
  endfacet
  facet normal -0.885456 0.464723 0
    outer loop
      vertex -4.11623 2.04274 2.5
      vertex -5.00596 0.347508 -2.5
      vertex -5.00596 0.347508 2.5
    endloop
  endfacet
  facet normal 0.970942 -0.239316 0
    outer loop
      vertex -12 3 2.5
      vertex -11.5418 4.85889 -2.5
      vertex -11.5418 4.85889 2.5
    endloop
  endfacet
  facet normal 0.970942 -0.239316 0
    outer loop
      vertex -11.5418 4.85889 -2.5
      vertex -12 3 2.5
      vertex -12 3 -2.5
    endloop
  endfacet
  facet normal -0.885456 -0.464723 0
    outer loop
      vertex -4.11623 3.95726 -2.5
      vertex -5.00596 5.65249 2.5
      vertex -5.00596 5.65249 -2.5
    endloop
  endfacet
  facet normal -0.885456 -0.464723 0
    outer loop
      vertex -5.00596 5.65249 2.5
      vertex -4.11623 3.95726 -2.5
      vertex -4.11623 3.95726 2.5
    endloop
  endfacet
  facet normal 0.748511 -0.663123 0
    outer loop
      vertex -11.5418 4.85889 2.5
      vertex -10.2723 6.29193 -2.5
      vertex -10.2723 6.29193 2.5
    endloop
  endfacet
  facet normal 0.748511 -0.663123 0
    outer loop
      vertex -10.2723 6.29193 -2.5
      vertex -11.5418 4.85889 2.5
      vertex -11.5418 4.85889 -2.5
    endloop
  endfacet
  facet normal -0.120536 -0.992709 0
    outer loop
      vertex -8.48215 6.97083 -2.5
      vertex -6.58158 6.74006 2.5
      vertex -8.48215 6.97083 2.5
    endloop
  endfacet
  facet normal -0.120536 -0.992709 -0
    outer loop
      vertex -6.58158 6.74006 2.5
      vertex -8.48215 6.97083 -2.5
      vertex -6.58158 6.74006 -2.5
    endloop
  endfacet
  facet normal -0.568065 -0.822984 0
    outer loop
      vertex -6.58158 6.74006 -2.5
      vertex -5.00596 5.65249 2.5
      vertex -6.58158 6.74006 2.5
    endloop
  endfacet
  facet normal -0.568065 -0.822984 -0
    outer loop
      vertex -5.00596 5.65249 2.5
      vertex -6.58158 6.74006 -2.5
      vertex -5.00596 5.65249 -2.5
    endloop
  endfacet
endsolid OpenSCAD_Model
