<?xml version="1.0" encoding="UTF-8" standalone="no"?>
<!DOCTYPE svg PUBLIC "-//W3C//DTD SVG 20010904//EN"
              "http://www.w3.org/TR/2001/REC-SVG-20010904/DTD/svg10.dtd">

<svg xmlns="http://www.w3.org/2000/svg"
     width="0.97in" height="1.41in"
     viewBox="0 0 291 423">
  <path id="Selection"
        fill="none" stroke="black" stroke-width="1"
        d="M 7.29,20.78
           C 7.29,20.78 33.00,20.00 33.00,20.00
             33.00,20.00 77.00,20.00 77.00,20.00
             77.00,20.00 147.00,20.00 147.00,20.00
             159.00,20.02 188.71,24.62 200.00,28.40
             214.18,33.16 226.50,42.42 238.00,51.63
             240.60,53.72 242.33,54.56 244.83,57.10
             244.83,57.10 252.79,67.00 252.79,67.00
             252.79,67.00 266.48,86.00 266.48,86.00
             278.36,106.82 286.96,139.00 287.00,163.00
             287.00,163.00 287.00,198.00 287.00,198.00
             286.89,206.83 282.46,233.32 280.07,242.00
             278.72,246.91 268.66,270.60 266.02,275.00
             266.02,275.00 255.00,290.00 255.00,290.00
             250.07,296.32 247.41,304.04 242.87,308.20
             238.45,312.24 225.44,321.86 220.00,323.95
             220.00,323.95 211.00,325.84 211.00,325.84
             211.00,325.84 204.00,329.24 204.00,329.24
             204.00,329.24 188.00,333.83 188.00,333.83
             188.00,333.83 178.00,335.28 178.00,335.28
             161.88,337.45 156.37,337.97 140.00,338.00
             140.00,338.00 123.00,339.00 123.00,339.00
             123.00,339.00 74.00,339.00 74.00,339.00
             74.00,339.00 62.00,339.95 62.00,339.95
             62.00,339.95 44.00,339.95 44.00,339.95
             44.00,339.95 29.00,339.00 29.00,339.00
             29.00,339.00 12.00,339.00 12.00,339.00
             10.05,338.96 7.37,339.10 6.02,337.40
             4.77,335.81 5.00,331.99 5.00,330.00
             5.00,330.00 5.00,98.00 5.00,98.00
             5.00,98.00 5.00,41.00 5.00,41.00
             5.00,37.93 4.62,24.33 5.57,22.43
             6.28,21.04 6.85,21.13 7.29,20.78 Z
           M 32.02,38.14
           C 25.63,41.09 25.08,45.68 25.00,52.00
             25.00,52.00 25.00,103.00 25.00,103.00
             25.00,103.00 25.00,271.00 25.00,271.00
             25.00,271.00 25.00,306.00 25.00,306.00
             25.02,309.82 25.02,314.53 27.70,317.58
             31.26,321.64 39.00,321.99 44.00,322.00
             44.00,322.00 135.00,322.00 135.00,322.00
             142.89,321.99 141.33,321.41 148.00,320.32
             148.00,320.32 158.00,319.28 158.00,319.28
             158.00,319.28 178.00,317.66 178.00,317.66
             182.82,316.76 209.68,306.08 214.00,303.54
             218.81,300.71 226.93,293.90 231.00,289.96
             241.37,279.92 243.31,274.02 249.80,262.00
             253.10,255.88 258.57,245.61 260.39,239.00
             260.39,239.00 263.46,221.00 263.46,221.00
             264.86,213.49 267.99,196.95 268.00,190.00
             268.00,190.00 268.00,168.00 268.00,168.00
             267.99,161.91 265.01,145.57 263.66,139.00
             263.66,139.00 260.41,121.00 260.41,121.00
             256.57,107.34 242.97,82.60 233.71,72.00
             228.98,66.58 223.86,63.21 218.00,59.17
             209.98,53.66 201.54,48.13 192.00,45.60
             192.00,45.60 185.00,44.21 185.00,44.21
             185.00,44.21 177.00,41.38 177.00,41.38
             169.25,39.65 150.42,39.01 142.00,39.00
             142.00,39.00 125.00,38.14 125.00,38.14
             125.00,38.14 88.00,38.14 88.00,38.14
             88.00,38.14 32.02,38.14 32.02,38.14 Z" />
</svg>
