<?xml version="1.0" encoding="UTF-8" standalone="no"?>
<!DOCTYPE svg PUBLIC "-//W3C//DTD SVG 20010904//EN"
              "http://www.w3.org/TR/2001/REC-SVG-20010904/DTD/svg10.dtd">

<svg xmlns="http://www.w3.org/2000/svg"
     width="0.533333in" height="0.693333in"
     viewBox="0 0 160 208">
  <path id="Selection"
        fill="none" stroke="black" stroke-width="1"
        d="M 43.00,34.00
           C 43.00,34.00 153.00,34.00 153.00,34.00
             153.00,34.00 153.00,44.00 153.00,44.00
             153.00,44.00 55.00,44.00 55.00,44.00
             55.00,44.00 55.00,95.00 55.00,95.00
             55.00,95.00 136.00,95.00 136.00,95.00
             136.00,97.14 136.30,101.73 134.98,103.40
             132.96,105.95 118.68,105.00 115.00,105.00
             115.00,105.00 55.00,105.00 55.00,105.00
             55.00,105.00 55.00,156.00 55.00,156.00
             55.15,164.15 57.78,163.99 65.00,164.00
             65.00,164.00 153.00,164.00 153.00,164.00
             153.00,164.00 153.00,174.00 153.00,174.00
             153.00,174.00 43.00,174.00 43.00,174.00
             43.00,174.00 43.00,34.00 43.00,34.00 Z" />
</svg>
