<?xml version="1.0" encoding="UTF-8" standalone="no"?>
<!DOCTYPE svg PUBLIC "-//W3C//DTD SVG 20010904//EN"
              "http://www.w3.org/TR/2001/REC-SVG-20010904/DTD/svg10.dtd">

<svg xmlns="http://www.w3.org/2000/svg"
     width="0.556667in" height="0.693333in"
     viewBox="0 0 167 208">
  <path id="Selection"
        fill="none" stroke="black" stroke-width="1"
        d="M 109.00,108.00
           C 109.00,108.00 152.00,108.00 152.00,108.00
             158.84,108.13 158.96,109.57 158.85,116.00
             158.85,116.00 158.85,142.00 158.85,142.00
             159.00,144.01 159.09,146.81 158.85,148.72
             156.95,154.50 148.07,163.83 143.00,166.79
             143.00,166.79 129.00,173.23 129.00,173.23
             122.65,176.13 119.10,177.91 112.00,178.00
             90.43,178.26 76.76,176.93 60.00,162.15
             57.69,160.11 55.37,158.34 53.38,155.96
             48.45,150.09 44.56,141.25 42.08,134.00
             40.38,129.03 36.89,107.86 37.10,103.00
             37.85,86.10 45.25,64.67 58.01,53.29
             78.93,34.64 113.38,29.00 138.00,43.56
             146.55,48.61 151.47,51.77 156.00,61.00
             153.98,62.06 150.36,64.37 148.09,64.01
             145.27,63.57 142.87,59.22 140.82,57.18
             137.87,54.26 132.80,51.41 129.00,49.71
             118.76,45.12 111.81,45.49 101.00,45.96
             94.00,46.27 92.01,45.78 85.00,48.46
             77.74,51.24 69.96,54.69 64.44,60.30
             49.42,75.56 46.09,97.71 48.92,118.01
             50.64,130.34 51.66,134.68 58.31,145.42
             60.19,148.47 60.08,149.52 62.85,152.54
             76.13,167.02 91.77,168.21 110.00,168.00
             122.28,167.85 133.25,163.67 142.00,154.99
             146.44,150.58 147.88,149.31 148.00,143.00
             148.09,138.09 149.25,122.60 145.69,119.60
             143.44,117.71 139.77,118.01 137.00,118.00
             137.00,118.00 109.00,118.00 109.00,118.00
             109.00,118.00 109.00,108.00 109.00,108.00 Z" />
</svg>
