<?xml version="1.0" encoding="UTF-8" standalone="no"?>
<!DOCTYPE svg PUBLIC "-//W3C//DTD SVG 20010904//EN"
              "http://www.w3.org/TR/2001/REC-SVG-20010904/DTD/svg10.dtd">

<svg xmlns="http://www.w3.org/2000/svg"
     width="8.27in" height="11.6933in"
     viewBox="0 0 2481 3508">
  <path id="Selection"
        fill="none" stroke="black" stroke-width="1"
        d="M 1169.00,2720.19
           C 1169.00,2720.19 1203.00,2720.19 1203.00,2720.19
             1203.00,2720.19 1263.00,2720.19 1263.00,2720.19
             1265.00,2720.00 1268.10,2719.95 1270.00,2720.19
             1276.48,2721.69 1278.01,2727.18 1276.37,2733.00
             1274.70,2738.89 1265.75,2751.37 1262.00,2757.00
             1262.00,2757.00 1228.67,2807.00 1228.67,2807.00
             1226.32,2810.52 1218.17,2820.59 1220.84,2824.61
             1222.64,2827.30 1227.06,2827.93 1230.00,2828.41
             1230.00,2828.41 1255.00,2829.00 1255.00,2829.00
             1266.48,2829.14 1273.19,2835.39 1273.91,2847.00
             1274.59,2858.02 1269.39,2862.26 1262.00,2869.08
             1262.00,2869.08 1234.01,2893.29 1234.01,2893.29
             1234.01,2893.29 1195.83,2934.96 1195.83,2934.96
             1195.83,2934.96 1171.00,2958.01 1171.00,2958.01
             1171.00,2958.01 1127.00,3003.00 1127.00,3003.00
             1127.00,3003.00 1095.00,3034.17 1095.00,3034.17
             1091.46,3037.37 1086.16,3043.69 1081.00,3043.56
             1074.16,3043.39 1074.89,3036.57 1076.36,3032.00
             1079.58,3021.96 1085.56,3010.52 1090.24,3001.00
             1090.24,3001.00 1128.25,2925.00 1128.25,2925.00
             1128.25,2925.00 1136.77,2907.00 1136.77,2907.00
             1138.20,2903.77 1139.71,2900.56 1137.82,2897.11
             1134.03,2890.18 1118.63,2892.99 1112.00,2893.00
             1112.00,2893.00 1089.00,2893.00 1089.00,2893.00
             1083.26,2892.99 1070.09,2893.50 1069.32,2885.98
             1068.91,2881.98 1072.04,2876.60 1073.69,2873.00
             1073.69,2873.00 1085.58,2847.00 1085.58,2847.00
             1085.58,2847.00 1127.86,2752.00 1127.86,2752.00
             1127.86,2752.00 1136.78,2732.00 1136.78,2732.00
             1138.25,2728.90 1140.05,2724.78 1143.10,2723.01
             1146.28,2721.16 1153.30,2721.01 1157.00,2721.00
             1161.73,2720.99 1164.22,2721.10 1169.00,2720.19 Z
           M 1171.00,2737.14
           C 1165.03,2738.14 1157.98,2737.56 1153.04,2741.43
             1147.38,2745.86 1140.38,2763.73 1137.14,2771.00
             1137.14,2771.00 1108.14,2835.00 1108.14,2835.00
             1108.14,2835.00 1096.14,2861.00 1096.14,2861.00
             1095.09,2864.03 1094.25,2869.78 1096.14,2872.57
             1098.44,2875.86 1105.26,2874.84 1109.00,2875.28
             1109.00,2875.28 1148.00,2876.00 1148.00,2876.00
             1153.91,2876.01 1163.23,2876.18 1164.10,2884.00
             1164.52,2887.69 1159.07,2898.34 1157.25,2902.00
             1157.25,2902.00 1136.78,2943.00 1136.78,2943.00
             1136.78,2943.00 1129.57,2960.00 1129.57,2960.00
             1129.01,2963.31 1130.14,2966.70 1134.04,2966.71
             1137.46,2966.71 1141.53,2962.88 1144.00,2960.71
             1144.00,2960.71 1164.00,2941.00 1164.00,2941.00
             1164.00,2941.00 1228.00,2877.00 1228.00,2877.00
             1228.00,2877.00 1243.00,2861.00 1243.00,2861.00
             1244.92,2858.73 1247.99,2855.35 1247.55,2852.11
             1246.83,2846.75 1232.28,2847.01 1228.00,2846.83
             1228.00,2846.83 1200.00,2846.83 1200.00,2846.83
             1194.63,2845.55 1191.48,2841.52 1192.24,2836.00
             1192.84,2831.57 1201.18,2819.29 1204.00,2815.00
             1204.00,2815.00 1229.95,2774.00 1229.95,2774.00
             1229.95,2774.00 1244.24,2750.00 1244.24,2750.00
             1245.66,2747.13 1248.17,2742.43 1245.40,2739.60
             1243.27,2737.42 1231.35,2737.01 1228.00,2737.14
             1228.00,2737.14 1171.00,2737.14 1171.00,2737.14 Z" />
</svg>
