<?xml version="1.0" encoding="UTF-8" standalone="no"?>
<!DOCTYPE svg PUBLIC "-//W3C//DTD SVG 20010904//EN"
              "http://www.w3.org/TR/2001/REC-SVG-20010904/DTD/svg10.dtd">

<svg xmlns="http://www.w3.org/2000/svg"
     width="0.526667in" height="0.68in"
     viewBox="0 0 158 204">
  <path id="Selection"
        fill="none" stroke="black" stroke-width="1"
        d="M 93.00,30.43
           C 120.62,27.02 142.22,47.22 148.77,73.00
             150.70,80.62 153.26,93.26 152.68,101.00
             151.03,122.98 146.88,143.33 129.00,158.25
             125.20,161.42 121.65,164.36 117.00,166.24
             109.69,169.19 102.69,169.09 95.00,169.00
             86.95,168.90 74.51,164.69 68.43,159.51
             60.68,152.90 52.43,137.84 49.41,128.00
             41.72,102.87 43.67,74.14 58.75,52.00
             63.68,44.75 70.06,38.28 78.00,34.37
             82.95,31.94 87.66,31.30 93.00,30.43 Z
           M 92.91,38.45
           C 54.48,45.00 47.43,99.59 59.06,130.00
             65.74,147.45 77.20,160.77 97.00,161.00
             120.16,161.27 132.31,148.05 139.66,127.00
             150.05,97.21 142.20,46.20 106.00,38.45
             102.17,37.70 96.88,38.10 92.91,38.45 Z" />
</svg>
