<?xml version="1.0" encoding="UTF-8" standalone="no"?>
<!DOCTYPE svg PUBLIC "-//W3C//DTD SVG 20010904//EN"
              "http://www.w3.org/TR/2001/REC-SVG-20010904/DTD/svg10.dtd">

<svg xmlns="http://www.w3.org/2000/svg"
     width="8.88889in" height="5.55556in"
     viewBox="0 0 640 400">
  <path id="Selection"
        fill="none" stroke="black" stroke-width="1"
        d="M 386.58,168.00
           C 387.62,170.75 388.85,175.34 391.39,176.98
             393.51,178.34 397.47,177.91 400.00,178.09
             405.27,178.45 418.77,179.27 423.00,181.00
             423.00,181.00 406.00,194.61 406.00,194.61
             406.00,194.61 398.77,202.17 398.77,202.17
             398.77,202.17 400.37,212.00 400.37,212.00
             400.37,212.00 405.00,233.00 405.00,233.00
             405.00,233.00 386.00,221.58 386.00,221.58
             386.00,221.58 377.00,217.20 377.00,217.20
             377.00,217.20 367.00,222.32 367.00,222.32
             367.00,222.32 349.00,233.00 349.00,233.00
             349.00,233.00 354.63,211.00 354.63,211.00
             354.63,211.00 355.81,201.09 355.81,201.09
             355.81,201.09 349.00,194.13 349.00,194.13
             349.00,194.13 332.00,179.00 332.00,179.00
             332.00,179.00 366.00,177.00 366.00,177.00
             366.00,177.00 377.00,147.00 377.00,147.00
             380.77,150.96 384.46,162.45 386.58,168.00 Z" />
</svg>
