solid OpenSCAD_Model
  facet normal 0.995681 0.0783618 0.0497841
    outer loop
      vertex 44.5 0 0
      vertex 41.4829 6.57025 50
      vertex 42 0 50
    endloop
  endfacet
  facet normal 0.995681 0.0783621 0.049784
    outer loop
      vertex 43.9521 6.96133 0
      vertex 41.4829 6.57025 50
      vertex 44.5 0 0
    endloop
  endfacet
  facet normal -0.0783618 -0.995681 0.0497841
    outer loop
      vertex 0 -42 50
      vertex -6.57025 -41.4829 50
      vertex 0 -44.5 0
    endloop
  endfacet
  facet normal -0.995681 -0.0783618 0.0497841
    outer loop
      vertex -42 0 50
      vertex -44.5 0 0
      vertex -41.4829 -6.57025 50
    endloop
  endfacet
  facet normal 0.971164 0.233156 0.049784
    outer loop
      vertex 42.322 13.7513 0
      vertex 39.9444 12.9787 50
      vertex 41.4829 6.57025 50
    endloop
  endfacet
  facet normal 0.759463 0.648643 0.049784
    outer loop
      vertex 36.0013 26.1564 0
      vertex 29.6985 29.6985 50
      vertex 33.9787 24.687 50
    endloop
  endfacet
  facet normal -0.971164 -0.233156 0.049784
    outer loop
      vertex -41.4829 -6.57025 50
      vertex -42.322 -13.7513 0
      vertex -39.9444 -12.9787 50
    endloop
  endfacet
  facet normal -0.0783618 0.995681 0.0497841
    outer loop
      vertex 0 44.5 0
      vertex -6.57025 41.4829 50
      vertex 0 42 50
    endloop
  endfacet
  facet normal -0.52185 0.851583 0.049784
    outer loop
      vertex -20.2026 39.6498 0
      vertex -26.1564 36.0013 0
      vertex -19.0676 37.4223 50
    endloop
  endfacet
  facet normal -0.759463 -0.648643 0.0497841
    outer loop
      vertex -29.6985 -29.6985 50
      vertex -36.0013 -26.1564 0
      vertex -31.4663 -31.4663 0
    endloop
  endfacet
  facet normal 0 0 -1
    outer loop
      vertex 32 0 0
      vertex 44.5 0 0
      vertex 43.9521 -6.96133 0
    endloop
  endfacet
  facet normal 0 0 -1
    outer loop
      vertex 31.3007 -6.65317 0
      vertex 43.9521 -6.96133 0
      vertex 42.322 -13.7513 0
    endloop
  endfacet
  facet normal 0 0 -1
    outer loop
      vertex 44.5 0 0
      vertex 32 0 0
      vertex 43.9521 6.96133 0
    endloop
  endfacet
  facet normal 0 0 -1
    outer loop
      vertex 29.2335 -13.0156 0
      vertex 42.322 -13.7513 0
      vertex 39.6498 -20.2026 0
    endloop
  endfacet
  facet normal 0 0 -1
    outer loop
      vertex 31.3007 6.65317 0
      vertex 43.9521 6.96133 0
      vertex 32 0 0
    endloop
  endfacet
  facet normal 0 0 -1
    outer loop
      vertex 25.8885 -18.8091 0
      vertex 39.6498 -20.2026 0
      vertex 36.0013 -26.1564 0
    endloop
  endfacet
  facet normal -0 0 -1
    outer loop
      vertex 43.9521 6.96133 0
      vertex 31.3007 6.65317 0
      vertex 42.322 13.7513 0
    endloop
  endfacet
  facet normal 0 0 -1
    outer loop
      vertex 29.2335 13.0156 0
      vertex 42.322 13.7513 0
      vertex 31.3007 6.65317 0
    endloop
  endfacet
  facet normal 0 0 -1
    outer loop
      vertex 25.8885 -18.8091 0
      vertex 36.0013 -26.1564 0
      vertex 31.4663 -31.4663 0
    endloop
  endfacet
  facet normal 0 0 -1
    outer loop
      vertex 43.9521 -6.96133 0
      vertex 31.3007 -6.65317 0
      vertex 32 0 0
    endloop
  endfacet
  facet normal 0 0 -1
    outer loop
      vertex 42.322 -13.7513 0
      vertex 29.2335 -13.0156 0
      vertex 31.3007 -6.65317 0
    endloop
  endfacet
  facet normal 0 0 -1
    outer loop
      vertex 21.4122 -23.7806 0
      vertex 31.4663 -31.4663 0
      vertex 26.1564 -36.0013 0
    endloop
  endfacet
  facet normal 0 0 -1
    outer loop
      vertex 39.6498 -20.2026 0
      vertex 25.8885 -18.8091 0
      vertex 29.2335 -13.0156 0
    endloop
  endfacet
  facet normal 0 0 -1
    outer loop
      vertex 31.4663 -31.4663 0
      vertex 21.4122 -23.7806 0
      vertex 25.8885 -18.8091 0
    endloop
  endfacet
  facet normal 0 0 -1
    outer loop
      vertex 16 -27.7128 0
      vertex 26.1564 -36.0013 0
      vertex 20.2026 -39.6498 0
    endloop
  endfacet
  facet normal 0 0 -1
    outer loop
      vertex 26.1564 -36.0013 0
      vertex 16 -27.7128 0
      vertex 21.4122 -23.7806 0
    endloop
  endfacet
  facet normal 0 0 -1
    outer loop
      vertex 9.88854 -30.4338 0
      vertex 20.2026 -39.6498 0
      vertex 13.7513 -42.322 0
    endloop
  endfacet
  facet normal 0 0 -1
    outer loop
      vertex 20.2026 -39.6498 0
      vertex 9.88854 -30.4338 0
      vertex 16 -27.7128 0
    endloop
  endfacet
  facet normal 0 0 -1
    outer loop
      vertex 6.96133 -43.9521 0
      vertex 9.88854 -30.4338 0
      vertex 13.7513 -42.322 0
    endloop
  endfacet
  facet normal 0 0 -1
    outer loop
      vertex 6.96133 -43.9521 0
      vertex 3.34491 -31.8247 0
      vertex 9.88854 -30.4338 0
    endloop
  endfacet
  facet normal 0 0 -1
    outer loop
      vertex 0 -44.5 0
      vertex 3.34491 -31.8247 0
      vertex 6.96133 -43.9521 0
    endloop
  endfacet
  facet normal 0 0 -1
    outer loop
      vertex 0 -44.5 0
      vertex -3.34491 -31.8247 0
      vertex 3.34491 -31.8247 0
    endloop
  endfacet
  facet normal 0 0 -1
    outer loop
      vertex -6.96133 -43.9521 0
      vertex -3.34491 -31.8247 0
      vertex 0 -44.5 0
    endloop
  endfacet
  facet normal 0 0 -1
    outer loop
      vertex -6.96133 -43.9521 0
      vertex -9.88854 -30.4338 0
      vertex -3.34491 -31.8247 0
    endloop
  endfacet
  facet normal 0 0 -1
    outer loop
      vertex -13.7513 -42.322 0
      vertex -9.88854 -30.4338 0
      vertex -6.96133 -43.9521 0
    endloop
  endfacet
  facet normal 0 0 -1
    outer loop
      vertex -20.2026 -39.6498 0
      vertex -9.88854 -30.4338 0
      vertex -13.7513 -42.322 0
    endloop
  endfacet
  facet normal -0 0 -1
    outer loop
      vertex -9.88854 -30.4338 0
      vertex -20.2026 -39.6498 0
      vertex -16 -27.7128 0
    endloop
  endfacet
  facet normal 0 0 -1
    outer loop
      vertex -26.1564 -36.0013 0
      vertex -16 -27.7128 0
      vertex -20.2026 -39.6498 0
    endloop
  endfacet
  facet normal -0 0 -1
    outer loop
      vertex -16 -27.7128 0
      vertex -26.1564 -36.0013 0
      vertex -21.4122 -23.7806 0
    endloop
  endfacet
  facet normal 0 0 -1
    outer loop
      vertex -31.4663 -31.4663 0
      vertex -21.4122 -23.7806 0
      vertex -26.1564 -36.0013 0
    endloop
  endfacet
  facet normal -0 0 -1
    outer loop
      vertex -21.4122 -23.7806 0
      vertex -31.4663 -31.4663 0
      vertex -25.8885 -18.8091 0
    endloop
  endfacet
  facet normal 0 0 -1
    outer loop
      vertex -36.0013 -26.1564 0
      vertex -25.8885 -18.8091 0
      vertex -31.4663 -31.4663 0
    endloop
  endfacet
  facet normal 0 0 -1
    outer loop
      vertex -39.6498 -20.2026 0
      vertex -25.8885 -18.8091 0
      vertex -36.0013 -26.1564 0
    endloop
  endfacet
  facet normal -0 0 -1
    outer loop
      vertex -25.8885 -18.8091 0
      vertex -39.6498 -20.2026 0
      vertex -29.2335 -13.0156 0
    endloop
  endfacet
  facet normal 0 0 -1
    outer loop
      vertex -42.322 -13.7513 0
      vertex -29.2335 -13.0156 0
      vertex -39.6498 -20.2026 0
    endloop
  endfacet
  facet normal -0 0 -1
    outer loop
      vertex 42.322 13.7513 0
      vertex 29.2335 13.0156 0
      vertex 39.6498 20.2026 0
    endloop
  endfacet
  facet normal 0 0 -1
    outer loop
      vertex 25.8885 18.8091 0
      vertex 39.6498 20.2026 0
      vertex 29.2335 13.0156 0
    endloop
  endfacet
  facet normal -0 0 -1
    outer loop
      vertex 39.6498 20.2026 0
      vertex 25.8885 18.8091 0
      vertex 36.0013 26.1564 0
    endloop
  endfacet
  facet normal -0 0 -1
    outer loop
      vertex 36.0013 26.1564 0
      vertex 25.8885 18.8091 0
      vertex 31.4663 31.4663 0
    endloop
  endfacet
  facet normal 0 0 -1
    outer loop
      vertex 21.4122 23.7806 0
      vertex 31.4663 31.4663 0
      vertex 25.8885 18.8091 0
    endloop
  endfacet
  facet normal -0 0 -1
    outer loop
      vertex 31.4663 31.4663 0
      vertex 21.4122 23.7806 0
      vertex 26.1564 36.0013 0
    endloop
  endfacet
  facet normal 0 0 -1
    outer loop
      vertex 16 27.7128 0
      vertex 26.1564 36.0013 0
      vertex 21.4122 23.7806 0
    endloop
  endfacet
  facet normal -0 0 -1
    outer loop
      vertex 26.1564 36.0013 0
      vertex 16 27.7128 0
      vertex 20.2026 39.6498 0
    endloop
  endfacet
  facet normal 0 0 -1
    outer loop
      vertex 9.88854 30.4338 0
      vertex 20.2026 39.6498 0
      vertex 16 27.7128 0
    endloop
  endfacet
  facet normal -0 0 -1
    outer loop
      vertex 20.2026 39.6498 0
      vertex 9.88854 30.4338 0
      vertex 13.7513 42.322 0
    endloop
  endfacet
  facet normal 0 0 -1
    outer loop
      vertex 9.88854 30.4338 0
      vertex 6.96133 43.9521 0
      vertex 13.7513 42.322 0
    endloop
  endfacet
  facet normal 0 0 -1
    outer loop
      vertex 3.34491 31.8247 0
      vertex 6.96133 43.9521 0
      vertex 9.88854 30.4338 0
    endloop
  endfacet
  facet normal 0 0 -1
    outer loop
      vertex 3.34491 31.8247 0
      vertex 0 44.5 0
      vertex 6.96133 43.9521 0
    endloop
  endfacet
  facet normal 0 0 -1
    outer loop
      vertex -3.34491 31.8247 0
      vertex 0 44.5 0
      vertex 3.34491 31.8247 0
    endloop
  endfacet
  facet normal 0 0 -1
    outer loop
      vertex -3.34491 31.8247 0
      vertex -6.96133 43.9521 0
      vertex 0 44.5 0
    endloop
  endfacet
  facet normal 0 0 -1
    outer loop
      vertex -9.88854 30.4338 0
      vertex -6.96133 43.9521 0
      vertex -3.34491 31.8247 0
    endloop
  endfacet
  facet normal 0 0 -1
    outer loop
      vertex -9.88854 30.4338 0
      vertex -13.7513 42.322 0
      vertex -6.96133 43.9521 0
    endloop
  endfacet
  facet normal 0 0 -1
    outer loop
      vertex -20.2026 39.6498 0
      vertex -9.88854 30.4338 0
      vertex -16 27.7128 0
    endloop
  endfacet
  facet normal 0 0 -1
    outer loop
      vertex -9.88854 30.4338 0
      vertex -20.2026 39.6498 0
      vertex -13.7513 42.322 0
    endloop
  endfacet
  facet normal 0 0 -1
    outer loop
      vertex -26.1564 36.0013 0
      vertex -16 27.7128 0
      vertex -21.4122 23.7806 0
    endloop
  endfacet
  facet normal 0 0 -1
    outer loop
      vertex -31.4663 31.4663 0
      vertex -21.4122 23.7806 0
      vertex -25.8885 18.8091 0
    endloop
  endfacet
  facet normal 0 0 -1
    outer loop
      vertex -16 27.7128 0
      vertex -26.1564 36.0013 0
      vertex -20.2026 39.6498 0
    endloop
  endfacet
  facet normal 0 0 -1
    outer loop
      vertex -39.6498 20.2026 0
      vertex -25.8885 18.8091 0
      vertex -29.2335 13.0156 0
    endloop
  endfacet
  facet normal 0 0 -1
    outer loop
      vertex -42.322 13.7513 0
      vertex -29.2335 13.0156 0
      vertex -31.3007 6.65317 0
    endloop
  endfacet
  facet normal 0 0 -1
    outer loop
      vertex -21.4122 23.7806 0
      vertex -31.4663 31.4663 0
      vertex -26.1564 36.0013 0
    endloop
  endfacet
  facet normal 0 0 -1
    outer loop
      vertex -43.9521 6.96133 0
      vertex -31.3007 6.65317 0
      vertex -32 0 0
    endloop
  endfacet
  facet normal -0 0 -1
    outer loop
      vertex -29.2335 -13.0156 0
      vertex -42.322 -13.7513 0
      vertex -31.3007 -6.65317 0
    endloop
  endfacet
  facet normal 0 0 -1
    outer loop
      vertex -25.8885 18.8091 0
      vertex -36.0013 26.1564 0
      vertex -31.4663 31.4663 0
    endloop
  endfacet
  facet normal 0 0 -1
    outer loop
      vertex -43.9521 -6.96133 0
      vertex -31.3007 -6.65317 0
      vertex -42.322 -13.7513 0
    endloop
  endfacet
  facet normal 0 0 -1
    outer loop
      vertex -25.8885 18.8091 0
      vertex -39.6498 20.2026 0
      vertex -36.0013 26.1564 0
    endloop
  endfacet
  facet normal -0 0 -1
    outer loop
      vertex -31.3007 -6.65317 0
      vertex -43.9521 -6.96133 0
      vertex -32 0 0
    endloop
  endfacet
  facet normal 0 0 -1
    outer loop
      vertex -29.2335 13.0156 0
      vertex -42.322 13.7513 0
      vertex -39.6498 20.2026 0
    endloop
  endfacet
  facet normal 0 0 -1
    outer loop
      vertex -44.5 0 0
      vertex -32 0 0
      vertex -43.9521 -6.96133 0
    endloop
  endfacet
  facet normal 0 0 -1
    outer loop
      vertex -31.3007 6.65317 0
      vertex -43.9521 6.96133 0
      vertex -42.322 13.7513 0
    endloop
  endfacet
  facet normal 0 0 -1
    outer loop
      vertex -32 0 0
      vertex -44.5 0 0
      vertex -43.9521 6.96133 0
    endloop
  endfacet
  facet normal -0.233156 -0.971164 0.049784
    outer loop
      vertex -12.9787 -39.9444 50
      vertex -13.7513 -42.322 0
      vertex -6.57025 -41.4829 50
    endloop
  endfacet
  facet normal 0.648643 -0.759463 0.0497841
    outer loop
      vertex 29.6985 -29.6985 50
      vertex 26.1564 -36.0013 0
      vertex 31.4663 -31.4663 0
    endloop
  endfacet
  facet normal 0.971164 -0.233156 0.049784
    outer loop
      vertex 43.9521 -6.96133 0
      vertex 41.4829 -6.57025 50
      vertex 42.322 -13.7513 0
    endloop
  endfacet
  facet normal 0.851583 0.52185 0.049784
    outer loop
      vertex 39.6498 20.2026 0
      vertex 36.0013 26.1564 0
      vertex 37.4223 19.0676 50
    endloop
  endfacet
  facet normal 0.971164 0.233156 0.049784
    outer loop
      vertex 42.322 13.7513 0
      vertex 41.4829 6.57025 50
      vertex 43.9521 6.96133 0
    endloop
  endfacet
  facet normal -0.995681 0.0783621 0.049784
    outer loop
      vertex -43.9521 6.96133 0
      vertex -44.5 0 0
      vertex -41.4829 6.57025 50
    endloop
  endfacet
  facet normal 0.648643 0.759463 0.049784
    outer loop
      vertex 26.1564 36.0013 0
      vertex 24.687 33.9787 50
      vertex 29.6985 29.6985 50
    endloop
  endfacet
  facet normal -0.971164 -0.233156 0.049784
    outer loop
      vertex -41.4829 -6.57025 50
      vertex -43.9521 -6.96133 0
      vertex -42.322 -13.7513 0
    endloop
  endfacet
  facet normal -0.995681 -0.0783621 0.049784
    outer loop
      vertex -41.4829 -6.57025 50
      vertex -44.5 0 0
      vertex -43.9521 -6.96133 0
    endloop
  endfacet
  facet normal -0.382209 -0.922734 0.0497841
    outer loop
      vertex -19.0676 -37.4223 50
      vertex -20.2026 -39.6498 0
      vertex -13.7513 -42.322 0
    endloop
  endfacet
  facet normal 0.233156 -0.971164 0.049784
    outer loop
      vertex 13.7513 -42.322 0
      vertex 6.57025 -41.4829 50
      vertex 6.96133 -43.9521 0
    endloop
  endfacet
  facet normal 0.382209 -0.922734 0.049784
    outer loop
      vertex 19.0676 -37.4223 50
      vertex 12.9787 -39.9444 50
      vertex 13.7513 -42.322 0
    endloop
  endfacet
  facet normal 0.0783621 -0.995681 0.049784
    outer loop
      vertex 6.57025 -41.4829 50
      vertex 0 -44.5 0
      vertex 6.96133 -43.9521 0
    endloop
  endfacet
  facet normal 0.922734 -0.382209 0.049784
    outer loop
      vertex 39.9444 -12.9787 50
      vertex 37.4223 -19.0676 50
      vertex 42.322 -13.7513 0
    endloop
  endfacet
  facet normal 0.759463 -0.648643 0.0497841
    outer loop
      vertex 36.0013 -26.1564 0
      vertex 29.6985 -29.6985 50
      vertex 31.4663 -31.4663 0
    endloop
  endfacet
  facet normal 0.971164 -0.233156 0.049784
    outer loop
      vertex 41.4829 -6.57025 50
      vertex 39.9444 -12.9787 50
      vertex 42.322 -13.7513 0
    endloop
  endfacet
  facet normal 0 0 1
    outer loop
      vertex 32 0 50
      vertex 42 0 50
      vertex 41.4829 6.57025 50
    endloop
  endfacet
  facet normal -0 0 1
    outer loop
      vertex 31.3007 6.65317 50
      vertex 41.4829 6.57025 50
      vertex 39.9444 12.9787 50
    endloop
  endfacet
  facet normal 0 0 1
    outer loop
      vertex 42 0 50
      vertex 32 0 50
      vertex 41.4829 -6.57025 50
    endloop
  endfacet
  facet normal -0 0 1
    outer loop
      vertex 29.2335 13.0156 50
      vertex 39.9444 12.9787 50
      vertex 37.4223 19.0676 50
    endloop
  endfacet
  facet normal 0 0 1
    outer loop
      vertex 31.3007 -6.65317 50
      vertex 41.4829 -6.57025 50
      vertex 32 0 50
    endloop
  endfacet
  facet normal 0 0 1
    outer loop
      vertex 25.8885 18.8091 50
      vertex 37.4223 19.0676 50
      vertex 33.9787 24.687 50
    endloop
  endfacet
  facet normal 0 0 1
    outer loop
      vertex 41.4829 -6.57025 50
      vertex 31.3007 -6.65317 50
      vertex 39.9444 -12.9787 50
    endloop
  endfacet
  facet normal 0 0 1
    outer loop
      vertex 29.2335 -13.0156 50
      vertex 39.9444 -12.9787 50
      vertex 31.3007 -6.65317 50
    endloop
  endfacet
  facet normal 0 0 1
    outer loop
      vertex 41.4829 6.57025 50
      vertex 31.3007 6.65317 50
      vertex 32 0 50
    endloop
  endfacet
  facet normal 0 0 1
    outer loop
      vertex 25.8885 18.8091 50
      vertex 33.9787 24.687 50
      vertex 29.6985 29.6985 50
    endloop
  endfacet
  facet normal 0 0 1
    outer loop
      vertex 39.9444 12.9787 50
      vertex 29.2335 13.0156 50
      vertex 31.3007 6.65317 50
    endloop
  endfacet
  facet normal 0 0 1
    outer loop
      vertex 37.4223 19.0676 50
      vertex 25.8885 18.8091 50
      vertex 29.2335 13.0156 50
    endloop
  endfacet
  facet normal 0 0 1
    outer loop
      vertex 21.4122 23.7806 50
      vertex 29.6985 29.6985 50
      vertex 24.687 33.9787 50
    endloop
  endfacet
  facet normal 0 0 1
    outer loop
      vertex 29.6985 29.6985 50
      vertex 21.4122 23.7806 50
      vertex 25.8885 18.8091 50
    endloop
  endfacet
  facet normal 0 0 1
    outer loop
      vertex 16 27.7128 50
      vertex 24.687 33.9787 50
      vertex 19.0676 37.4223 50
    endloop
  endfacet
  facet normal 0 0 1
    outer loop
      vertex 24.687 33.9787 50
      vertex 16 27.7128 50
      vertex 21.4122 23.7806 50
    endloop
  endfacet
  facet normal 0 0 1
    outer loop
      vertex 9.88854 30.4338 50
      vertex 19.0676 37.4223 50
      vertex 12.9787 39.9444 50
    endloop
  endfacet
  facet normal 0 0 1
    outer loop
      vertex 19.0676 37.4223 50
      vertex 9.88854 30.4338 50
      vertex 16 27.7128 50
    endloop
  endfacet
  facet normal 0 0 1
    outer loop
      vertex 6.57025 41.4829 50
      vertex 9.88854 30.4338 50
      vertex 12.9787 39.9444 50
    endloop
  endfacet
  facet normal 0 0 1
    outer loop
      vertex 6.57025 41.4829 50
      vertex 3.34491 31.8247 50
      vertex 9.88854 30.4338 50
    endloop
  endfacet
  facet normal 0 0 1
    outer loop
      vertex 0 42 50
      vertex 3.34491 31.8247 50
      vertex 6.57025 41.4829 50
    endloop
  endfacet
  facet normal 0 0 1
    outer loop
      vertex 0 42 50
      vertex -3.34491 31.8247 50
      vertex 3.34491 31.8247 50
    endloop
  endfacet
  facet normal -0 0 1
    outer loop
      vertex -6.57025 41.4829 50
      vertex -3.34491 31.8247 50
      vertex 0 42 50
    endloop
  endfacet
  facet normal 0 0 1
    outer loop
      vertex -6.57025 41.4829 50
      vertex -9.88854 30.4338 50
      vertex -3.34491 31.8247 50
    endloop
  endfacet
  facet normal -0 0 1
    outer loop
      vertex -12.9787 39.9444 50
      vertex -9.88854 30.4338 50
      vertex -6.57025 41.4829 50
    endloop
  endfacet
  facet normal -0 0 1
    outer loop
      vertex -19.0676 37.4223 50
      vertex -9.88854 30.4338 50
      vertex -12.9787 39.9444 50
    endloop
  endfacet
  facet normal 0 0 1
    outer loop
      vertex -9.88854 30.4338 50
      vertex -19.0676 37.4223 50
      vertex -16 27.7128 50
    endloop
  endfacet
  facet normal -0 0 1
    outer loop
      vertex -24.687 33.9787 50
      vertex -16 27.7128 50
      vertex -19.0676 37.4223 50
    endloop
  endfacet
  facet normal 0 0 1
    outer loop
      vertex -16 27.7128 50
      vertex -24.687 33.9787 50
      vertex -21.4122 23.7806 50
    endloop
  endfacet
  facet normal -0 0 1
    outer loop
      vertex -29.6985 29.6985 50
      vertex -21.4122 23.7806 50
      vertex -24.687 33.9787 50
    endloop
  endfacet
  facet normal 0 0 1
    outer loop
      vertex -21.4122 23.7806 50
      vertex -29.6985 29.6985 50
      vertex -25.8885 18.8091 50
    endloop
  endfacet
  facet normal -0 0 1
    outer loop
      vertex -33.9787 24.687 50
      vertex -25.8885 18.8091 50
      vertex -29.6985 29.6985 50
    endloop
  endfacet
  facet normal -0 0 1
    outer loop
      vertex -37.4223 19.0676 50
      vertex -25.8885 18.8091 50
      vertex -33.9787 24.687 50
    endloop
  endfacet
  facet normal 0 0 1
    outer loop
      vertex -25.8885 18.8091 50
      vertex -37.4223 19.0676 50
      vertex -29.2335 13.0156 50
    endloop
  endfacet
  facet normal 0 0 1
    outer loop
      vertex -39.9444 12.9787 50
      vertex -29.2335 13.0156 50
      vertex -37.4223 19.0676 50
    endloop
  endfacet
  facet normal 0 0 1
    outer loop
      vertex 39.9444 -12.9787 50
      vertex 29.2335 -13.0156 50
      vertex 37.4223 -19.0676 50
    endloop
  endfacet
  facet normal -0 0 1
    outer loop
      vertex 25.8885 -18.8091 50
      vertex 37.4223 -19.0676 50
      vertex 29.2335 -13.0156 50
    endloop
  endfacet
  facet normal 0 0 1
    outer loop
      vertex 37.4223 -19.0676 50
      vertex 25.8885 -18.8091 50
      vertex 33.9787 -24.687 50
    endloop
  endfacet
  facet normal 0 0 1
    outer loop
      vertex 33.9787 -24.687 50
      vertex 25.8885 -18.8091 50
      vertex 29.6985 -29.6985 50
    endloop
  endfacet
  facet normal -0 0 1
    outer loop
      vertex 21.4122 -23.7806 50
      vertex 29.6985 -29.6985 50
      vertex 25.8885 -18.8091 50
    endloop
  endfacet
  facet normal 0 0 1
    outer loop
      vertex 29.6985 -29.6985 50
      vertex 21.4122 -23.7806 50
      vertex 24.687 -33.9787 50
    endloop
  endfacet
  facet normal -0 0 1
    outer loop
      vertex 16 -27.7128 50
      vertex 24.687 -33.9787 50
      vertex 21.4122 -23.7806 50
    endloop
  endfacet
  facet normal 0 0 1
    outer loop
      vertex 24.687 -33.9787 50
      vertex 16 -27.7128 50
      vertex 19.0676 -37.4223 50
    endloop
  endfacet
  facet normal -0 0 1
    outer loop
      vertex 9.88854 -30.4338 50
      vertex 19.0676 -37.4223 50
      vertex 16 -27.7128 50
    endloop
  endfacet
  facet normal 0 0 1
    outer loop
      vertex 19.0676 -37.4223 50
      vertex 9.88854 -30.4338 50
      vertex 12.9787 -39.9444 50
    endloop
  endfacet
  facet normal 0 0 1
    outer loop
      vertex 9.88854 -30.4338 50
      vertex 6.57025 -41.4829 50
      vertex 12.9787 -39.9444 50
    endloop
  endfacet
  facet normal -0 0 1
    outer loop
      vertex 3.34491 -31.8247 50
      vertex 6.57025 -41.4829 50
      vertex 9.88854 -30.4338 50
    endloop
  endfacet
  facet normal 0 0 1
    outer loop
      vertex 3.34491 -31.8247 50
      vertex 0 -42 50
      vertex 6.57025 -41.4829 50
    endloop
  endfacet
  facet normal -0 0 1
    outer loop
      vertex -3.34491 -31.8247 50
      vertex 0 -42 50
      vertex 3.34491 -31.8247 50
    endloop
  endfacet
  facet normal 0 0 1
    outer loop
      vertex -3.34491 -31.8247 50
      vertex -6.57025 -41.4829 50
      vertex 0 -42 50
    endloop
  endfacet
  facet normal 0 0 1
    outer loop
      vertex -9.88854 -30.4338 50
      vertex -6.57025 -41.4829 50
      vertex -3.34491 -31.8247 50
    endloop
  endfacet
  facet normal 0 0 1
    outer loop
      vertex -9.88854 -30.4338 50
      vertex -12.9787 -39.9444 50
      vertex -6.57025 -41.4829 50
    endloop
  endfacet
  facet normal 0 0 1
    outer loop
      vertex -19.0676 -37.4223 50
      vertex -9.88854 -30.4338 50
      vertex -16 -27.7128 50
    endloop
  endfacet
  facet normal 0 0 1
    outer loop
      vertex -9.88854 -30.4338 50
      vertex -19.0676 -37.4223 50
      vertex -12.9787 -39.9444 50
    endloop
  endfacet
  facet normal 0 0 1
    outer loop
      vertex -24.687 -33.9787 50
      vertex -16 -27.7128 50
      vertex -21.4122 -23.7806 50
    endloop
  endfacet
  facet normal 0 0 1
    outer loop
      vertex -16 -27.7128 50
      vertex -24.687 -33.9787 50
      vertex -19.0676 -37.4223 50
    endloop
  endfacet
  facet normal 0 0 1
    outer loop
      vertex -29.6985 -29.6985 50
      vertex -21.4122 -23.7806 50
      vertex -25.8885 -18.8091 50
    endloop
  endfacet
  facet normal 0 0 1
    outer loop
      vertex -37.4223 -19.0676 50
      vertex -25.8885 -18.8091 50
      vertex -29.2335 -13.0156 50
    endloop
  endfacet
  facet normal 0 0 1
    outer loop
      vertex -21.4122 -23.7806 50
      vertex -29.6985 -29.6985 50
      vertex -24.687 -33.9787 50
    endloop
  endfacet
  facet normal -0 0 1
    outer loop
      vertex -39.9444 -12.9787 50
      vertex -29.2335 -13.0156 50
      vertex -31.3007 -6.65317 50
    endloop
  endfacet
  facet normal -0 0 1
    outer loop
      vertex -41.4829 -6.57025 50
      vertex -31.3007 -6.65317 50
      vertex -32 0 50
    endloop
  endfacet
  facet normal 0 0 1
    outer loop
      vertex -29.2335 13.0156 50
      vertex -39.9444 12.9787 50
      vertex -31.3007 6.65317 50
    endloop
  endfacet
  facet normal 0 0 1
    outer loop
      vertex -25.8885 -18.8091 50
      vertex -33.9787 -24.687 50
      vertex -29.6985 -29.6985 50
    endloop
  endfacet
  facet normal 0 0 1
    outer loop
      vertex -41.4829 6.57025 50
      vertex -31.3007 6.65317 50
      vertex -39.9444 12.9787 50
    endloop
  endfacet
  facet normal 0 0 1
    outer loop
      vertex -25.8885 -18.8091 50
      vertex -37.4223 -19.0676 50
      vertex -33.9787 -24.687 50
    endloop
  endfacet
  facet normal 0 0 1
    outer loop
      vertex -31.3007 6.65317 50
      vertex -41.4829 6.57025 50
      vertex -32 0 50
    endloop
  endfacet
  facet normal 0 0 1
    outer loop
      vertex -29.2335 -13.0156 50
      vertex -39.9444 -12.9787 50
      vertex -37.4223 -19.0676 50
    endloop
  endfacet
  facet normal 0 0 1
    outer loop
      vertex -42 0 50
      vertex -32 0 50
      vertex -41.4829 6.57025 50
    endloop
  endfacet
  facet normal 0 0 1
    outer loop
      vertex -31.3007 -6.65317 50
      vertex -41.4829 -6.57025 50
      vertex -39.9444 -12.9787 50
    endloop
  endfacet
  facet normal 0 0 1
    outer loop
      vertex -32 0 50
      vertex -42 0 50
      vertex -41.4829 -6.57025 50
    endloop
  endfacet
  facet normal -0.995681 0.0783618 0.0497841
    outer loop
      vertex -41.4829 6.57025 50
      vertex -44.5 0 0
      vertex -42 0 50
    endloop
  endfacet
  facet normal -0.648643 0.759463 0.049784
    outer loop
      vertex -26.1564 36.0013 0
      vertex -29.6985 29.6985 50
      vertex -24.687 33.9787 50
    endloop
  endfacet
  facet normal -0.233156 0.971164 0.049784
    outer loop
      vertex -6.57025 41.4829 50
      vertex -13.7513 42.322 0
      vertex -12.9787 39.9444 50
    endloop
  endfacet
  facet normal 0.922734 0.382209 0.049784
    outer loop
      vertex 42.322 13.7513 0
      vertex 37.4223 19.0676 50
      vertex 39.9444 12.9787 50
    endloop
  endfacet
  facet normal 0.922734 0.382209 0.0497841
    outer loop
      vertex 39.6498 20.2026 0
      vertex 37.4223 19.0676 50
      vertex 42.322 13.7513 0
    endloop
  endfacet
  facet normal 0.759463 0.648643 0.0497841
    outer loop
      vertex 31.4663 31.4663 0
      vertex 29.6985 29.6985 50
      vertex 36.0013 26.1564 0
    endloop
  endfacet
  facet normal 0.648643 0.759463 0.0497841
    outer loop
      vertex 31.4663 31.4663 0
      vertex 26.1564 36.0013 0
      vertex 29.6985 29.6985 50
    endloop
  endfacet
  facet normal 0.52185 0.851583 0.049784
    outer loop
      vertex 20.2026 39.6498 0
      vertex 19.0676 37.4223 50
      vertex 26.1564 36.0013 0
    endloop
  endfacet
  facet normal 0.0783621 0.995681 0.049784
    outer loop
      vertex 6.96133 43.9521 0
      vertex 0 44.5 0
      vertex 6.57025 41.4829 50
    endloop
  endfacet
  facet normal 0.382209 0.922734 0.0497841
    outer loop
      vertex 20.2026 39.6498 0
      vertex 13.7513 42.322 0
      vertex 19.0676 37.4223 50
    endloop
  endfacet
  facet normal 0.233156 0.971164 0.049784
    outer loop
      vertex 13.7513 42.322 0
      vertex 6.57025 41.4829 50
      vertex 12.9787 39.9444 50
    endloop
  endfacet
  facet normal -0.922734 -0.382209 0.049784
    outer loop
      vertex -39.9444 -12.9787 50
      vertex -42.322 -13.7513 0
      vertex -37.4223 -19.0676 50
    endloop
  endfacet
  facet normal -0.233156 -0.971164 0.049784
    outer loop
      vertex -6.57025 -41.4829 50
      vertex -13.7513 -42.322 0
      vertex -6.96133 -43.9521 0
    endloop
  endfacet
  facet normal -0.0783621 -0.995681 0.049784
    outer loop
      vertex -6.57025 -41.4829 50
      vertex -6.96133 -43.9521 0
      vertex 0 -44.5 0
    endloop
  endfacet
  facet normal -0.648643 -0.759463 0.049784
    outer loop
      vertex -24.687 -33.9787 50
      vertex -29.6985 -29.6985 50
      vertex -26.1564 -36.0013 0
    endloop
  endfacet
  facet normal -0.648643 -0.759463 0.0497841
    outer loop
      vertex -29.6985 -29.6985 50
      vertex -31.4663 -31.4663 0
      vertex -26.1564 -36.0013 0
    endloop
  endfacet
  facet normal 0.0783618 -0.995681 0.0497841
    outer loop
      vertex 0 -42 50
      vertex 0 -44.5 0
      vertex 6.57025 -41.4829 50
    endloop
  endfacet
  facet normal 0.759463 -0.648643 0.049784
    outer loop
      vertex 33.9787 -24.687 50
      vertex 29.6985 -29.6985 50
      vertex 36.0013 -26.1564 0
    endloop
  endfacet
  facet normal 0.922734 -0.382209 0.0497841
    outer loop
      vertex 42.322 -13.7513 0
      vertex 37.4223 -19.0676 50
      vertex 39.6498 -20.2026 0
    endloop
  endfacet
  facet normal 0.995681 -0.0783621 0.049784
    outer loop
      vertex 44.5 0 0
      vertex 41.4829 -6.57025 50
      vertex 43.9521 -6.96133 0
    endloop
  endfacet
  facet normal 0.995681 -0.0783618 0.0497841
    outer loop
      vertex 42 0 50
      vertex 41.4829 -6.57025 50
      vertex 44.5 0 0
    endloop
  endfacet
  facet normal -0.971164 0.233156 0.049784
    outer loop
      vertex -42.322 13.7513 0
      vertex -43.9521 6.96133 0
      vertex -41.4829 6.57025 50
    endloop
  endfacet
  facet normal -0.922734 0.382209 0.0497841
    outer loop
      vertex -39.6498 20.2026 0
      vertex -42.322 13.7513 0
      vertex -37.4223 19.0676 50
    endloop
  endfacet
  facet normal -0.851583 0.52185 0.049784
    outer loop
      vertex -36.0013 26.1564 0
      vertex -37.4223 19.0676 50
      vertex -33.9787 24.687 50
    endloop
  endfacet
  facet normal -0.759463 0.648643 0.049784
    outer loop
      vertex -29.6985 29.6985 50
      vertex -36.0013 26.1564 0
      vertex -33.9787 24.687 50
    endloop
  endfacet
  facet normal -0.382209 0.922734 0.0497841
    outer loop
      vertex -13.7513 42.322 0
      vertex -20.2026 39.6498 0
      vertex -19.0676 37.4223 50
    endloop
  endfacet
  facet normal -0.382209 0.922734 0.049784
    outer loop
      vertex -13.7513 42.322 0
      vertex -19.0676 37.4223 50
      vertex -12.9787 39.9444 50
    endloop
  endfacet
  facet normal -0.233156 0.971164 0.049784
    outer loop
      vertex -6.96133 43.9521 0
      vertex -13.7513 42.322 0
      vertex -6.57025 41.4829 50
    endloop
  endfacet
  facet normal -0.0783621 0.995681 0.049784
    outer loop
      vertex 0 44.5 0
      vertex -6.96133 43.9521 0
      vertex -6.57025 41.4829 50
    endloop
  endfacet
  facet normal 0.851583 0.52185 0.049784
    outer loop
      vertex 36.0013 26.1564 0
      vertex 33.9787 24.687 50
      vertex 37.4223 19.0676 50
    endloop
  endfacet
  facet normal 0.0783618 0.995681 0.0497841
    outer loop
      vertex 0 44.5 0
      vertex 0 42 50
      vertex 6.57025 41.4829 50
    endloop
  endfacet
  facet normal 0.52185 0.851583 0.049784
    outer loop
      vertex 26.1564 36.0013 0
      vertex 19.0676 37.4223 50
      vertex 24.687 33.9787 50
    endloop
  endfacet
  facet normal 0.233156 0.971164 0.049784
    outer loop
      vertex 6.96133 43.9521 0
      vertex 6.57025 41.4829 50
      vertex 13.7513 42.322 0
    endloop
  endfacet
  facet normal -0.851583 -0.52185 0.049784
    outer loop
      vertex -33.9787 -24.687 50
      vertex -37.4223 -19.0676 50
      vertex -36.0013 -26.1564 0
    endloop
  endfacet
  facet normal -0.759463 -0.648643 0.049784
    outer loop
      vertex -33.9787 -24.687 50
      vertex -36.0013 -26.1564 0
      vertex -29.6985 -29.6985 50
    endloop
  endfacet
  facet normal -0.851583 -0.52185 0.049784
    outer loop
      vertex -37.4223 -19.0676 50
      vertex -39.6498 -20.2026 0
      vertex -36.0013 -26.1564 0
    endloop
  endfacet
  facet normal -0.922734 -0.382209 0.0497841
    outer loop
      vertex -37.4223 -19.0676 50
      vertex -42.322 -13.7513 0
      vertex -39.6498 -20.2026 0
    endloop
  endfacet
  facet normal -0.382209 -0.922734 0.049784
    outer loop
      vertex -12.9787 -39.9444 50
      vertex -19.0676 -37.4223 50
      vertex -13.7513 -42.322 0
    endloop
  endfacet
  facet normal -0.52185 -0.851583 0.049784
    outer loop
      vertex -19.0676 -37.4223 50
      vertex -26.1564 -36.0013 0
      vertex -20.2026 -39.6498 0
    endloop
  endfacet
  facet normal -0.52185 -0.851583 0.049784
    outer loop
      vertex -24.687 -33.9787 50
      vertex -26.1564 -36.0013 0
      vertex -19.0676 -37.4223 50
    endloop
  endfacet
  facet normal 0.52185 -0.851583 0.049784
    outer loop
      vertex 24.687 -33.9787 50
      vertex 19.0676 -37.4223 50
      vertex 26.1564 -36.0013 0
    endloop
  endfacet
  facet normal 0.648643 -0.759463 0.049784
    outer loop
      vertex 29.6985 -29.6985 50
      vertex 24.687 -33.9787 50
      vertex 26.1564 -36.0013 0
    endloop
  endfacet
  facet normal 0.52185 -0.851583 0.049784
    outer loop
      vertex 26.1564 -36.0013 0
      vertex 19.0676 -37.4223 50
      vertex 20.2026 -39.6498 0
    endloop
  endfacet
  facet normal 0.382209 -0.922734 0.0497841
    outer loop
      vertex 19.0676 -37.4223 50
      vertex 13.7513 -42.322 0
      vertex 20.2026 -39.6498 0
    endloop
  endfacet
  facet normal 0.233156 -0.971164 0.049784
    outer loop
      vertex 12.9787 -39.9444 50
      vertex 6.57025 -41.4829 50
      vertex 13.7513 -42.322 0
    endloop
  endfacet
  facet normal 0.851583 -0.52185 0.049784
    outer loop
      vertex 37.4223 -19.0676 50
      vertex 33.9787 -24.687 50
      vertex 36.0013 -26.1564 0
    endloop
  endfacet
  facet normal 0.851583 -0.52185 0.049784
    outer loop
      vertex 37.4223 -19.0676 50
      vertex 36.0013 -26.1564 0
      vertex 39.6498 -20.2026 0
    endloop
  endfacet
  facet normal -0.922734 0.382209 0.049784
    outer loop
      vertex -37.4223 19.0676 50
      vertex -42.322 13.7513 0
      vertex -39.9444 12.9787 50
    endloop
  endfacet
  facet normal -0.971164 0.233156 0.049784
    outer loop
      vertex -39.9444 12.9787 50
      vertex -42.322 13.7513 0
      vertex -41.4829 6.57025 50
    endloop
  endfacet
  facet normal -0.851583 0.52185 0.049784
    outer loop
      vertex -36.0013 26.1564 0
      vertex -39.6498 20.2026 0
      vertex -37.4223 19.0676 50
    endloop
  endfacet
  facet normal -0.52185 0.851583 0.049784
    outer loop
      vertex -19.0676 37.4223 50
      vertex -26.1564 36.0013 0
      vertex -24.687 33.9787 50
    endloop
  endfacet
  facet normal -0.759463 0.648643 0.0497841
    outer loop
      vertex -31.4663 31.4663 0
      vertex -36.0013 26.1564 0
      vertex -29.6985 29.6985 50
    endloop
  endfacet
  facet normal -0.648643 0.759463 0.0497841
    outer loop
      vertex -26.1564 36.0013 0
      vertex -31.4663 31.4663 0
      vertex -29.6985 29.6985 50
    endloop
  endfacet
  facet normal 0.382209 0.922734 0.049784
    outer loop
      vertex 13.7513 42.322 0
      vertex 12.9787 39.9444 50
      vertex 19.0676 37.4223 50
    endloop
  endfacet
  facet normal -0.866025 -0.5 0
    outer loop
      vertex 29.2335 13.0156 0
      vertex 25.8885 18.8091 50
      vertex 25.8885 18.8091 0
    endloop
  endfacet
  facet normal -0.866025 -0.5 0
    outer loop
      vertex 25.8885 18.8091 50
      vertex 29.2335 13.0156 0
      vertex 29.2335 13.0156 50
    endloop
  endfacet
  facet normal 0.951056 -0.309017 0
    outer loop
      vertex -31.3007 6.65317 50
      vertex -29.2335 13.0156 0
      vertex -29.2335 13.0156 50
    endloop
  endfacet
  facet normal 0.951056 -0.309017 0
    outer loop
      vertex -29.2335 13.0156 0
      vertex -31.3007 6.65317 50
      vertex -31.3007 6.65317 0
    endloop
  endfacet
  facet normal -0.743145 -0.669131 0
    outer loop
      vertex 25.8885 18.8091 0
      vertex 21.4122 23.7806 50
      vertex 21.4122 23.7806 0
    endloop
  endfacet
  facet normal -0.743145 -0.669131 0
    outer loop
      vertex 21.4122 23.7806 50
      vertex 25.8885 18.8091 0
      vertex 25.8885 18.8091 50
    endloop
  endfacet
  facet normal 0.207912 -0.978148 0
    outer loop
      vertex -9.88854 30.4338 0
      vertex -3.34491 31.8247 50
      vertex -9.88854 30.4338 50
    endloop
  endfacet
  facet normal 0.207912 -0.978148 0
    outer loop
      vertex -3.34491 31.8247 50
      vertex -9.88854 30.4338 0
      vertex -3.34491 31.8247 0
    endloop
  endfacet
  facet normal 0.866025 -0.5 0
    outer loop
      vertex -29.2335 13.0156 50
      vertex -25.8885 18.8091 0
      vertex -25.8885 18.8091 50
    endloop
  endfacet
  facet normal 0.866025 -0.5 0
    outer loop
      vertex -25.8885 18.8091 0
      vertex -29.2335 13.0156 50
      vertex -29.2335 13.0156 0
    endloop
  endfacet
  facet normal -0.994522 0.104528 0
    outer loop
      vertex 31.3007 -6.65317 0
      vertex 32 0 50
      vertex 32 0 0
    endloop
  endfacet
  facet normal -0.994522 0.104528 0
    outer loop
      vertex 32 0 50
      vertex 31.3007 -6.65317 0
      vertex 31.3007 -6.65317 50
    endloop
  endfacet
  facet normal -0.587785 -0.809017 0
    outer loop
      vertex 16 27.7128 0
      vertex 21.4122 23.7806 50
      vertex 16 27.7128 50
    endloop
  endfacet
  facet normal -0.587785 -0.809017 -0
    outer loop
      vertex 21.4122 23.7806 50
      vertex 16 27.7128 0
      vertex 21.4122 23.7806 0
    endloop
  endfacet
  facet normal 0 -1 0
    outer loop
      vertex -3.34491 31.8247 0
      vertex 3.34491 31.8247 50
      vertex -3.34491 31.8247 50
    endloop
  endfacet
  facet normal 0 -1 -0
    outer loop
      vertex 3.34491 31.8247 50
      vertex -3.34491 31.8247 0
      vertex 3.34491 31.8247 0
    endloop
  endfacet
  facet normal -0.406737 -0.913546 0
    outer loop
      vertex 9.88854 30.4338 0
      vertex 16 27.7128 50
      vertex 9.88854 30.4338 50
    endloop
  endfacet
  facet normal -0.406737 -0.913546 -0
    outer loop
      vertex 16 27.7128 50
      vertex 9.88854 30.4338 0
      vertex 16 27.7128 0
    endloop
  endfacet
  facet normal 0.994522 -0.104528 0
    outer loop
      vertex -32 0 50
      vertex -31.3007 6.65317 0
      vertex -31.3007 6.65317 50
    endloop
  endfacet
  facet normal 0.994522 -0.104528 0
    outer loop
      vertex -31.3007 6.65317 0
      vertex -32 0 50
      vertex -32 0 0
    endloop
  endfacet
  facet normal 0.743145 -0.669131 0
    outer loop
      vertex -25.8885 18.8091 50
      vertex -21.4122 23.7806 0
      vertex -21.4122 23.7806 50
    endloop
  endfacet
  facet normal 0.743145 -0.669131 0
    outer loop
      vertex -21.4122 23.7806 0
      vertex -25.8885 18.8091 50
      vertex -25.8885 18.8091 0
    endloop
  endfacet
  facet normal 0.406737 -0.913545 0
    outer loop
      vertex -16 27.7128 0
      vertex -9.88854 30.4338 50
      vertex -16 27.7128 50
    endloop
  endfacet
  facet normal 0.406737 -0.913545 0
    outer loop
      vertex -9.88854 30.4338 50
      vertex -16 27.7128 0
      vertex -9.88854 30.4338 0
    endloop
  endfacet
  facet normal 0.587785 -0.809017 0
    outer loop
      vertex -21.4122 23.7806 0
      vertex -16 27.7128 50
      vertex -21.4122 23.7806 50
    endloop
  endfacet
  facet normal 0.587785 -0.809017 0
    outer loop
      vertex -16 27.7128 50
      vertex -21.4122 23.7806 0
      vertex -16 27.7128 0
    endloop
  endfacet
  facet normal -0.994522 -0.104528 0
    outer loop
      vertex 32 0 0
      vertex 31.3007 6.65317 50
      vertex 31.3007 6.65317 0
    endloop
  endfacet
  facet normal -0.994522 -0.104528 0
    outer loop
      vertex 31.3007 6.65317 50
      vertex 32 0 0
      vertex 32 0 50
    endloop
  endfacet
  facet normal 0.587785 0.809017 -0
    outer loop
      vertex -16 -27.7128 0
      vertex -21.4122 -23.7806 50
      vertex -16 -27.7128 50
    endloop
  endfacet
  facet normal 0.587785 0.809017 0
    outer loop
      vertex -21.4122 -23.7806 50
      vertex -16 -27.7128 0
      vertex -21.4122 -23.7806 0
    endloop
  endfacet
  facet normal 0.866025 0.5 0
    outer loop
      vertex -25.8885 -18.8091 50
      vertex -29.2335 -13.0156 0
      vertex -29.2335 -13.0156 50
    endloop
  endfacet
  facet normal 0.866025 0.5 0
    outer loop
      vertex -29.2335 -13.0156 0
      vertex -25.8885 -18.8091 50
      vertex -25.8885 -18.8091 0
    endloop
  endfacet
  facet normal -0.587785 0.809017 0
    outer loop
      vertex 21.4122 -23.7806 0
      vertex 16 -27.7128 50
      vertex 21.4122 -23.7806 50
    endloop
  endfacet
  facet normal -0.587785 0.809017 0
    outer loop
      vertex 16 -27.7128 50
      vertex 21.4122 -23.7806 0
      vertex 16 -27.7128 0
    endloop
  endfacet
  facet normal -0.951056 -0.309017 0
    outer loop
      vertex 31.3007 6.65317 0
      vertex 29.2335 13.0156 50
      vertex 29.2335 13.0156 0
    endloop
  endfacet
  facet normal -0.951056 -0.309017 0
    outer loop
      vertex 29.2335 13.0156 50
      vertex 31.3007 6.65317 0
      vertex 31.3007 6.65317 50
    endloop
  endfacet
  facet normal -0.207912 -0.978148 0
    outer loop
      vertex 3.34491 31.8247 0
      vertex 9.88854 30.4338 50
      vertex 3.34491 31.8247 50
    endloop
  endfacet
  facet normal -0.207912 -0.978148 -0
    outer loop
      vertex 9.88854 30.4338 50
      vertex 3.34491 31.8247 0
      vertex 9.88854 30.4338 0
    endloop
  endfacet
  facet normal -0.866025 0.5 0
    outer loop
      vertex 25.8885 -18.8091 0
      vertex 29.2335 -13.0156 50
      vertex 29.2335 -13.0156 0
    endloop
  endfacet
  facet normal -0.866025 0.5 0
    outer loop
      vertex 29.2335 -13.0156 50
      vertex 25.8885 -18.8091 0
      vertex 25.8885 -18.8091 50
    endloop
  endfacet
  facet normal 0.994522 0.104528 0
    outer loop
      vertex -31.3007 -6.65317 50
      vertex -32 0 0
      vertex -32 0 50
    endloop
  endfacet
  facet normal 0.994522 0.104528 0
    outer loop
      vertex -32 0 0
      vertex -31.3007 -6.65317 50
      vertex -31.3007 -6.65317 0
    endloop
  endfacet
  facet normal 0.743145 0.669131 0
    outer loop
      vertex -21.4122 -23.7806 50
      vertex -25.8885 -18.8091 0
      vertex -25.8885 -18.8091 50
    endloop
  endfacet
  facet normal 0.743145 0.669131 0
    outer loop
      vertex -25.8885 -18.8091 0
      vertex -21.4122 -23.7806 50
      vertex -21.4122 -23.7806 0
    endloop
  endfacet
  facet normal -0.207912 0.978148 0
    outer loop
      vertex 9.88854 -30.4338 0
      vertex 3.34491 -31.8247 50
      vertex 9.88854 -30.4338 50
    endloop
  endfacet
  facet normal -0.207912 0.978148 0
    outer loop
      vertex 3.34491 -31.8247 50
      vertex 9.88854 -30.4338 0
      vertex 3.34491 -31.8247 0
    endloop
  endfacet
  facet normal -0.406737 0.913546 0
    outer loop
      vertex 16 -27.7128 0
      vertex 9.88854 -30.4338 50
      vertex 16 -27.7128 50
    endloop
  endfacet
  facet normal -0.406737 0.913546 0
    outer loop
      vertex 9.88854 -30.4338 50
      vertex 16 -27.7128 0
      vertex 9.88854 -30.4338 0
    endloop
  endfacet
  facet normal -0.951056 0.309017 0
    outer loop
      vertex 29.2335 -13.0156 0
      vertex 31.3007 -6.65317 50
      vertex 31.3007 -6.65317 0
    endloop
  endfacet
  facet normal -0.951056 0.309017 0
    outer loop
      vertex 31.3007 -6.65317 50
      vertex 29.2335 -13.0156 0
      vertex 29.2335 -13.0156 50
    endloop
  endfacet
  facet normal 0.406737 0.913546 -0
    outer loop
      vertex -9.88854 -30.4338 0
      vertex -16 -27.7128 50
      vertex -9.88854 -30.4338 50
    endloop
  endfacet
  facet normal 0.406737 0.913546 0
    outer loop
      vertex -16 -27.7128 50
      vertex -9.88854 -30.4338 0
      vertex -16 -27.7128 0
    endloop
  endfacet
  facet normal 0 1 -0
    outer loop
      vertex 3.34491 -31.8247 0
      vertex -3.34491 -31.8247 50
      vertex 3.34491 -31.8247 50
    endloop
  endfacet
  facet normal 0 1 0
    outer loop
      vertex -3.34491 -31.8247 50
      vertex 3.34491 -31.8247 0
      vertex -3.34491 -31.8247 0
    endloop
  endfacet
  facet normal 0.951056 0.309017 0
    outer loop
      vertex -29.2335 -13.0156 50
      vertex -31.3007 -6.65317 0
      vertex -31.3007 -6.65317 50
    endloop
  endfacet
  facet normal 0.951056 0.309017 0
    outer loop
      vertex -31.3007 -6.65317 0
      vertex -29.2335 -13.0156 50
      vertex -29.2335 -13.0156 0
    endloop
  endfacet
  facet normal -0.743145 0.669131 0
    outer loop
      vertex 21.4122 -23.7806 0
      vertex 25.8885 -18.8091 50
      vertex 25.8885 -18.8091 0
    endloop
  endfacet
  facet normal -0.743145 0.669131 0
    outer loop
      vertex 25.8885 -18.8091 50
      vertex 21.4122 -23.7806 0
      vertex 21.4122 -23.7806 50
    endloop
  endfacet
  facet normal 0.207912 0.978148 -0
    outer loop
      vertex -3.34491 -31.8247 0
      vertex -9.88854 -30.4338 50
      vertex -3.34491 -31.8247 50
    endloop
  endfacet
  facet normal 0.207912 0.978148 0
    outer loop
      vertex -9.88854 -30.4338 50
      vertex -3.34491 -31.8247 0
      vertex -9.88854 -30.4338 0
    endloop
  endfacet
endsolid OpenSCAD_Model
