<?xml version="1.0" encoding="UTF-8" standalone="no"?>
<!DOCTYPE svg PUBLIC "-//W3C//DTD SVG 20010904//EN"
              "http://www.w3.org/TR/2001/REC-SVG-20010904/DTD/svg10.dtd">

<svg xmlns="http://www.w3.org/2000/svg"
     width="7.91667in" height="7.91667in"
     viewBox="0 0 570 570">
  <path id="Selection"
        fill="none" stroke="black" stroke-width="1"
        d="M 64.06,490.00
           C 66.73,483.16 71.39,476.70 70.35,469.00
             69.23,460.72 63.05,448.61 59.25,441.00
             51.12,424.74 41.55,408.94 37.66,391.00
             32.72,368.21 30.73,331.71 35.89,309.00
             38.99,295.33 40.80,295.34 45.40,284.00
             45.40,284.00 52.50,263.00 52.50,263.00
             52.50,263.00 71.01,203.00 71.01,203.00
             74.70,194.12 81.02,182.73 88.04,176.17
             88.04,176.17 134.78,140.99 134.78,140.99
             139.89,135.00 144.29,118.02 146.23,110.00
             150.04,94.28 157.82,60.24 158.00,45.00
             158.09,36.87 157.65,24.69 167.01,21.40
             170.14,20.12 172.95,20.25 176.00,21.40
             178.09,22.42 180.21,23.83 181.91,25.33
             194.46,36.40 210.20,71.39 222.18,85.00
             238.91,103.99 266.01,108.77 290.00,111.17
             290.00,111.17 313.00,113.00 313.00,113.00
             313.00,113.00 332.00,114.13 332.00,114.13
             335.48,114.70 340.51,115.80 343.72,114.13
             345.93,112.72 349.67,108.08 351.41,106.00
             351.41,106.00 365.15,90.00 365.15,90.00
             378.25,75.13 394.34,59.59 411.00,48.70
             422.32,41.29 435.94,33.20 448.96,41.97
             458.56,48.43 461.61,66.29 463.61,77.00
             465.53,87.23 468.98,112.15 469.00,122.00
             469.00,122.00 469.00,139.00 469.00,139.00
             469.00,139.00 464.09,178.00 464.09,178.00
             464.94,191.75 479.84,213.65 483.77,230.00
             483.77,230.00 490.21,282.00 490.21,282.00
             492.06,290.51 494.28,291.74 496.64,299.00
             496.64,299.00 500.57,320.00 500.57,320.00
             500.57,320.00 511.12,346.00 511.12,346.00
             511.12,346.00 519.43,384.00 519.43,384.00
             521.65,391.80 526.51,406.10 530.31,413.00
             534.40,420.43 538.85,422.96 541.47,429.00
             543.33,433.29 543.00,437.45 543.00,442.00
             533.39,438.72 521.99,421.72 516.61,413.00
             514.62,409.77 511.30,404.63 510.55,401.00
             509.31,395.03 513.20,392.73 513.29,389.04
             513.36,385.95 510.62,384.36 509.73,380.96
             508.75,377.57 510.29,374.62 509.73,371.00
             508.84,364.69 503.53,362.54 502.74,359.00
             501.81,354.83 507.25,353.52 506.53,349.71
             506.17,347.83 502.59,343.41 501.44,341.00
             499.44,336.83 500.00,332.66 497.56,328.00
             497.56,328.00 489.68,317.00 489.68,317.00
             486.92,311.51 487.70,306.74 486.61,302.00
             486.61,302.00 482.25,292.00 482.25,292.00
             480.72,287.48 481.05,283.64 481.00,279.00
             481.00,279.00 480.09,269.00 480.09,269.00
             479.03,253.62 476.66,238.87 472.42,224.00
             469.99,215.49 468.39,207.61 461.00,202.00
             457.78,210.66 460.54,209.90 459.16,215.00
             457.92,219.60 454.45,221.86 452.89,226.00
             450.77,231.62 453.35,242.29 455.00,248.00
             450.68,245.33 439.36,235.47 440.96,230.00
             442.33,225.33 450.32,220.21 448.78,215.17
             448.28,213.55 446.40,212.13 446.12,209.91
             445.68,206.38 452.18,197.06 454.00,193.00
             454.00,193.00 444.00,191.00 444.00,191.00
             448.02,185.32 451.22,182.76 454.12,176.00
             457.84,167.36 460.89,149.48 461.00,140.00
             461.25,118.17 460.80,103.61 456.45,82.00
             454.10,70.33 449.40,46.09 434.00,46.08
             425.15,46.08 410.66,59.14 404.00,64.87
             384.20,81.92 362.82,106.36 341.00,119.54
             338.17,121.25 333.36,123.73 330.00,123.60
             326.81,123.47 324.55,121.48 321.00,120.55
             317.47,119.64 308.82,119.01 305.00,119.00
             305.00,119.00 263.00,119.00 263.00,119.00
             260.20,118.99 256.71,119.09 254.21,117.69
             250.47,115.58 250.36,111.68 244.00,110.34
             244.00,110.34 214.00,108.00 214.00,108.00
             217.33,107.13 222.42,105.49 221.60,101.00
             221.60,101.00 210.68,84.00 210.68,84.00
             210.68,84.00 188.58,47.00 188.58,47.00
             186.08,43.03 178.07,30.53 173.02,31.03
             169.72,31.35 167.80,35.23 166.94,38.00
             164.57,45.57 164.53,53.28 163.42,61.00
             159.77,86.39 160.76,83.86 153.42,109.00
             152.37,112.60 148.75,122.44 151.61,125.40
             153.89,127.75 164.31,126.02 168.00,126.00
             165.63,133.68 151.66,140.67 145.00,145.28
             145.00,145.28 111.00,171.57 111.00,171.57
             100.55,179.00 96.41,177.43 88.10,190.00
             83.28,197.29 79.91,206.84 76.81,215.00
             76.81,215.00 61.88,260.00 61.88,260.00
             61.88,260.00 59.24,274.00 59.24,274.00
             55.66,288.07 45.71,297.90 43.44,312.00
             43.44,312.00 40.01,344.00 40.01,344.00
             39.77,354.73 43.94,374.27 46.63,385.00
             55.71,421.33 67.07,444.44 92.91,471.99
             98.32,477.74 103.75,483.61 110.00,488.48
             116.29,493.39 118.97,492.86 121.90,494.85
             125.51,497.30 126.74,501.70 129.39,504.98
             133.02,509.48 139.66,513.37 145.00,515.55
             159.56,521.50 175.50,524.30 191.00,526.28
             207.85,528.44 215.64,529.98 233.00,527.82
             233.00,527.82 262.00,520.15 262.00,520.15
             267.16,518.74 272.83,516.95 278.00,519.00
             264.37,527.87 245.44,535.97 229.00,536.00
             229.00,536.00 191.00,534.17 191.00,534.17
             191.00,534.17 164.00,532.54 164.00,532.54
             152.21,530.41 139.85,523.25 130.00,516.67
             116.74,507.81 108.17,500.75 99.80,487.00
             97.52,483.26 91.80,473.48 87.00,473.48
             82.34,473.48 78.01,481.44 76.00,485.00
             73.44,489.53 69.75,497.86 69.22,503.00
             69.22,503.00 69.22,512.00 69.22,512.00
             68.58,514.73 66.35,516.71 65.00,520.00
             62.49,526.13 65.12,531.17 57.00,533.00
             53.63,519.12 59.03,502.90 64.06,490.00 Z
           M 362.83,141.99
           C 362.83,141.99 366.08,138.00 366.08,138.00
             374.97,125.93 375.95,115.01 381.55,103.00
             388.68,87.74 404.18,69.12 418.00,59.44
             423.11,55.86 432.73,51.00 438.90,54.31
             442.23,56.11 444.18,60.66 445.69,64.00
             449.07,71.49 455.03,91.38 452.00,99.00
             452.00,99.00 442.95,70.00 442.95,70.00
             441.61,66.36 439.74,60.80 435.96,59.11
             432.65,57.64 427.94,60.25 425.00,61.78
             415.93,66.53 408.01,74.54 401.09,82.00
             395.46,88.08 389.23,97.02 386.77,105.00
             386.77,105.00 383.31,118.00 383.31,118.00
             380.77,125.27 377.28,132.17 373.74,139.00
             371.83,142.69 370.02,145.89 366.91,148.74
             364.48,150.97 360.95,152.33 360.64,156.02
             359.96,164.00 373.09,176.77 379.00,181.00
             381.48,173.22 391.02,158.34 399.00,156.00
             397.83,164.96 392.09,168.79 391.50,174.00
             390.80,180.13 400.50,187.30 405.00,190.51
             406.95,191.90 409.43,193.62 411.96,193.35
             414.81,193.04 417.19,190.04 418.91,187.98
             418.91,187.98 432.02,169.00 432.02,169.00
             437.27,161.39 441.49,156.84 444.94,148.00
             444.94,148.00 453.00,117.00 453.00,117.00
             453.00,130.79 453.00,145.28 446.67,157.98
             443.75,163.86 442.01,161.77 435.34,172.00
             429.58,180.85 421.47,197.29 422.09,208.00
             422.09,208.00 425.00,224.00 425.00,224.00
             417.34,218.25 412.29,208.10 403.00,201.41
             400.55,199.65 391.44,196.08 382.00,189.26
             373.89,183.39 364.09,175.10 358.34,166.91
             358.34,166.91 351.96,157.00 351.96,157.00
             346.83,149.76 343.06,149.85 341.00,141.99
             352.40,144.14 353.71,151.83 362.83,141.99 Z
           M 404.96,124.00
           C 404.98,120.71 399.50,118.99 401.74,115.36
             402.83,113.61 407.11,111.47 409.00,110.47
             415.87,106.85 423.29,104.09 431.00,103.00
             429.14,109.29 422.83,113.52 417.00,116.00
             417.00,116.00 417.00,118.00 417.00,118.00
             417.00,118.00 433.00,123.00 433.00,123.00
             433.00,123.00 424.74,131.09 424.74,131.09
             422.53,134.35 423.56,136.58 420.85,141.00
             414.02,152.18 405.78,154.21 394.00,151.12
             390.89,150.30 387.86,149.49 385.00,148.00
             389.19,147.36 397.53,145.30 400.97,143.01
             402.71,141.85 405.15,139.78 403.95,137.42
             402.34,134.25 394.33,134.34 391.00,133.00
             394.39,131.65 404.92,128.24 404.96,124.00 Z
           M 424.00,106.00
           C 424.00,106.00 425.00,107.00 425.00,107.00
             425.00,107.00 425.00,106.00 425.00,106.00
             425.00,106.00 424.00,106.00 424.00,106.00 Z
           M 345.00,147.00
           C 345.00,147.00 346.00,148.00 346.00,148.00
             346.00,148.00 346.00,147.00 346.00,147.00
             346.00,147.00 345.00,147.00 345.00,147.00 Z
           M 350.00,150.00
           C 350.00,150.00 351.00,151.00 351.00,151.00
             351.00,151.00 351.00,150.00 351.00,150.00
             351.00,150.00 350.00,150.00 350.00,150.00 Z
           M 441.00,158.00
           C 441.00,158.00 442.00,159.00 442.00,159.00
             442.00,159.00 442.00,158.00 442.00,158.00
             442.00,158.00 441.00,158.00 441.00,158.00 Z
           M 124.56,238.00
           C 126.13,241.13 129.84,245.67 133.88,244.34
             137.02,243.31 137.01,240.44 135.46,238.01
             133.20,234.47 128.47,232.42 127.04,229.79
             124.42,225.00 129.86,220.82 130.81,214.00
             131.21,211.19 130.46,208.34 133.29,206.65
             143.79,200.39 162.87,217.10 160.38,228.00
             158.96,234.21 152.45,243.75 148.71,249.00
             148.71,249.00 120.00,286.00 120.00,286.00
             136.14,286.00 142.26,287.21 155.00,298.29
             159.51,302.21 164.42,306.45 163.88,312.98
             163.76,314.44 163.46,316.03 162.26,317.01
             160.43,318.48 152.58,318.02 150.00,318.00
             147.70,317.98 145.36,318.13 143.28,316.98
             140.59,315.49 137.08,310.37 132.00,310.36
             122.61,310.33 122.68,325.63 131.02,328.62
             135.57,330.25 139.96,324.95 144.00,323.58
             146.72,322.66 156.55,323.00 160.00,323.00
             151.57,335.11 141.74,340.33 131.00,349.32
             125.38,354.03 124.13,358.62 116.01,357.94
             110.16,357.46 109.51,353.20 106.39,349.00
             101.33,342.18 94.61,336.88 90.82,329.00
             89.14,325.51 87.62,314.99 81.53,320.45
             77.42,324.13 76.80,329.85 77.04,335.00
             77.57,346.31 85.97,360.50 95.00,367.07
             101.87,372.07 111.26,373.72 113.00,363.00
             125.45,363.04 118.81,365.98 130.00,372.20
             137.71,376.49 154.29,382.29 163.00,384.35
             182.53,388.96 196.83,386.22 216.00,386.00
             224.03,385.90 230.05,383.33 238.00,387.00
             224.47,392.41 201.42,399.83 187.00,400.00
             174.72,400.14 146.75,393.04 132.00,390.57
             126.63,389.66 125.85,389.07 120.00,389.00
             115.93,388.96 108.11,388.06 105.81,392.15
             103.76,395.79 108.23,400.73 110.52,403.28
             115.49,408.84 121.40,413.39 127.00,418.28
             130.64,421.46 132.87,424.61 138.00,424.93
             138.00,424.93 158.00,423.08 158.00,423.08
             158.00,423.08 166.00,423.08 166.00,423.08
             166.00,423.08 183.00,421.96 183.00,421.96
             190.72,421.62 196.08,419.62 204.00,423.00
             191.34,428.38 170.86,429.14 157.00,430.09
             157.00,430.09 137.00,432.00 137.00,432.00
             124.85,432.13 124.67,428.67 116.83,420.00
             109.88,412.31 103.95,406.58 99.27,397.00
             95.84,389.97 97.82,388.18 92.37,379.00
             92.37,379.00 79.24,361.00 79.24,361.00
             72.41,350.20 71.09,339.27 74.04,327.00
             79.01,306.37 96.75,291.54 112.00,278.28
             112.00,278.28 127.00,264.99 127.00,264.99
             128.15,263.87 131.44,260.77 132.00,259.42
             133.46,255.92 127.25,251.71 125.00,249.72
             122.04,247.09 119.20,244.41 117.13,241.00
             112.22,232.90 111.65,215.02 124.00,214.00
             121.08,221.73 120.73,230.42 124.56,238.00 Z
           M 247.00,268.24
           C 242.42,265.95 236.56,262.73 234.17,258.00
             231.32,252.34 234.73,246.36 238.33,242.00
             245.26,233.61 259.69,222.30 271.00,221.59
             288.56,220.49 300.28,237.90 313.00,247.00
             310.52,250.46 306.86,254.90 303.00,256.83
             297.27,259.69 279.47,259.24 273.00,257.90
             267.16,256.69 261.78,259.92 260.31,254.85
             258.77,249.53 262.19,240.89 267.04,238.16
             269.43,236.82 273.62,236.60 274.83,233.78
             275.98,231.11 273.57,228.81 270.98,228.65
             268.32,228.49 264.09,231.07 262.00,232.61
             259.54,234.42 256.16,237.72 254.10,240.00
             251.68,242.68 249.02,246.35 248.43,250.00
             247.34,256.77 253.29,261.21 259.00,263.09
             271.16,267.09 285.59,261.66 294.00,265.00
             277.90,273.50 264.05,276.77 247.00,268.24 Z
           M 254.00,234.00
           C 254.00,234.00 255.00,235.00 255.00,235.00
             255.00,235.00 255.00,234.00 255.00,234.00
             255.00,234.00 254.00,234.00 254.00,234.00 Z
           M 252.00,238.00
           C 252.00,238.00 253.00,239.00 253.00,239.00
             253.00,239.00 253.00,238.00 253.00,238.00
             253.00,238.00 252.00,238.00 252.00,238.00 Z
           M 307.00,245.00
           C 307.00,245.00 308.00,246.00 308.00,246.00
             308.00,246.00 308.00,245.00 308.00,245.00
             308.00,245.00 307.00,245.00 307.00,245.00 Z
           M 129.00,251.00
           C 129.00,251.00 130.00,252.00 130.00,252.00
             130.00,252.00 130.00,251.00 130.00,251.00
             130.00,251.00 129.00,251.00 129.00,251.00 Z
           M 420.77,259.45
           C 425.57,262.38 424.65,271.18 419.96,272.18
             413.75,273.50 414.94,263.16 410.47,262.20
             407.20,261.50 396.70,267.68 393.15,267.36
             389.82,267.06 387.95,261.57 395.02,258.57
             399.66,257.72 417.07,257.19 420.77,259.45 Z
           M 109.00,283.00
           C 109.00,283.00 110.00,284.00 110.00,284.00
             110.00,284.00 110.00,283.00 110.00,283.00
             110.00,283.00 109.00,283.00 109.00,283.00 Z
           M 455.67,307.00
           C 456.93,314.68 452.35,324.38 448.83,331.00
             448.83,331.00 427.34,370.00 427.34,370.00
             427.34,370.00 423.83,380.00 423.83,380.00
             420.96,386.56 410.58,400.41 405.71,406.00
             401.63,410.69 397.11,416.21 391.00,418.00
             395.38,406.55 401.86,403.54 407.69,393.00
             407.69,393.00 425.09,355.00 425.09,355.00
             425.09,355.00 441.92,330.00 441.92,330.00
             443.67,326.73 446.57,321.79 445.36,318.00
             444.23,314.46 438.66,310.22 436.00,307.00
             438.02,306.59 441.17,306.17 442.85,305.07
             450.33,300.18 441.64,288.48 439.00,283.00
             445.43,288.21 454.31,298.70 455.67,307.00 Z
           M 201.95,314.06
           C 197.39,309.56 189.13,308.66 191.40,304.57
             192.31,302.94 194.63,303.52 196.02,304.01
             199.00,305.06 205.42,309.59 207.99,311.67
             218.18,319.91 222.73,338.35 212.00,348.00
             209.54,337.88 212.26,324.24 201.95,314.06 Z
           M 86.00,305.00
           C 86.00,305.00 87.00,306.00 87.00,306.00
             87.00,306.00 87.00,305.00 87.00,305.00
             87.00,305.00 86.00,305.00 86.00,305.00 Z
           M 123.00,313.00
           C 123.00,313.00 124.00,314.00 124.00,314.00
             124.00,314.00 124.00,313.00 124.00,313.00
             124.00,313.00 123.00,313.00 123.00,313.00 Z
           M 138.00,340.00
           C 138.00,340.00 139.00,341.00 139.00,341.00
             139.00,341.00 139.00,340.00 139.00,340.00
             139.00,340.00 138.00,340.00 138.00,340.00 Z
           M 530.00,429.00
           C 530.00,429.00 531.00,430.00 531.00,430.00
             531.00,430.00 531.00,429.00 531.00,429.00
             531.00,429.00 530.00,429.00 530.00,429.00 Z
           M 472.74,457.00
           C 465.53,471.94 454.44,490.10 436.00,491.00
             436.00,491.00 456.00,465.00 456.00,465.00
             456.00,465.00 453.00,464.00 453.00,464.00
             457.37,458.19 462.61,455.92 467.82,450.00
             473.14,443.95 473.37,441.02 476.00,434.00
             479.70,441.27 476.04,450.17 472.74,457.00 Z
           M 81.00,474.00
           C 81.00,474.00 82.00,475.00 82.00,475.00
             82.00,475.00 82.00,474.00 82.00,474.00
             82.00,474.00 81.00,474.00 81.00,474.00 Z" />
</svg>
