solid OpenSCAD_Model
  facet normal 1 -0 0
    outer loop
      vertex 6.8 2.5 1
      vertex 6.8 20.5 0
      vertex 6.8 20.5 1
    endloop
  endfacet
  facet normal 1 0 0
    outer loop
      vertex 6.8 20.5 0
      vertex 6.8 2.5 1
      vertex 6.8 2.5 0
    endloop
  endfacet
  facet normal -1 0 0
    outer loop
      vertex 9.8 2.5 0
      vertex 9.8 20.5 1
      vertex 9.8 20.5 0
    endloop
  endfacet
  facet normal -1 -0 0
    outer loop
      vertex 9.8 20.5 1
      vertex 9.8 2.5 0
      vertex 9.8 2.5 1
    endloop
  endfacet
  facet normal 0 -1 0
    outer loop
      vertex 6.8 20.5 0
      vertex 9.8 20.5 1
      vertex 6.8 20.5 1
    endloop
  endfacet
  facet normal 0 -1 -0
    outer loop
      vertex 9.8 20.5 1
      vertex 6.8 20.5 0
      vertex 9.8 20.5 0
    endloop
  endfacet
  facet normal 0 1 -0
    outer loop
      vertex 9.8 2.5 0
      vertex 6.8 2.5 1
      vertex 9.8 2.5 1
    endloop
  endfacet
  facet normal 0 1 0
    outer loop
      vertex 6.8 2.5 1
      vertex 9.8 2.5 0
      vertex 6.8 2.5 0
    endloop
  endfacet
  facet normal 1 -0 0
    outer loop
      vertex 12.8 2.5 1
      vertex 12.8 20.5 0
      vertex 12.8 20.5 1
    endloop
  endfacet
  facet normal 1 0 0
    outer loop
      vertex 12.8 20.5 0
      vertex 12.8 2.5 1
      vertex 12.8 2.5 0
    endloop
  endfacet
  facet normal -1 0 0
    outer loop
      vertex 21.8 2.5 0
      vertex 21.8 20.5 1
      vertex 21.8 20.5 0
    endloop
  endfacet
  facet normal -1 -0 0
    outer loop
      vertex 21.8 20.5 1
      vertex 21.8 2.5 0
      vertex 21.8 2.5 1
    endloop
  endfacet
  facet normal 0 -1 0
    outer loop
      vertex 12.8 20.5 0
      vertex 21.8 20.5 1
      vertex 12.8 20.5 1
    endloop
  endfacet
  facet normal 0 -1 -0
    outer loop
      vertex 21.8 20.5 1
      vertex 12.8 20.5 0
      vertex 21.8 20.5 0
    endloop
  endfacet
  facet normal 0 1 -0
    outer loop
      vertex 21.8 2.5 0
      vertex 12.8 2.5 1
      vertex 21.8 2.5 1
    endloop
  endfacet
  facet normal 0 1 0
    outer loop
      vertex 12.8 2.5 1
      vertex 21.8 2.5 0
      vertex 12.8 2.5 0
    endloop
  endfacet
  facet normal 1 -0 0
    outer loop
      vertex 24.8 2.5 1
      vertex 24.8 20.5 0
      vertex 24.8 20.5 1
    endloop
  endfacet
  facet normal 1 0 0
    outer loop
      vertex 24.8 20.5 0
      vertex 24.8 2.5 1
      vertex 24.8 2.5 0
    endloop
  endfacet
  facet normal -1 0 0
    outer loop
      vertex 30.8 2.5 0
      vertex 30.8 20.5 1
      vertex 30.8 20.5 0
    endloop
  endfacet
  facet normal -1 -0 0
    outer loop
      vertex 30.8 20.5 1
      vertex 30.8 2.5 0
      vertex 30.8 2.5 1
    endloop
  endfacet
  facet normal 0 -1 0
    outer loop
      vertex 24.8 20.5 0
      vertex 30.8 20.5 1
      vertex 24.8 20.5 1
    endloop
  endfacet
  facet normal 0 -1 -0
    outer loop
      vertex 30.8 20.5 1
      vertex 24.8 20.5 0
      vertex 30.8 20.5 0
    endloop
  endfacet
  facet normal 0 1 -0
    outer loop
      vertex 30.8 2.5 0
      vertex 24.8 2.5 1
      vertex 30.8 2.5 1
    endloop
  endfacet
  facet normal 0 1 0
    outer loop
      vertex 24.8 2.5 1
      vertex 30.8 2.5 0
      vertex 24.8 2.5 0
    endloop
  endfacet
  facet normal 1 -0 0
    outer loop
      vertex 33.8 2.5 1
      vertex 33.8 20.5 0
      vertex 33.8 20.5 1
    endloop
  endfacet
  facet normal 1 0 0
    outer loop
      vertex 33.8 20.5 0
      vertex 33.8 2.5 1
      vertex 33.8 2.5 0
    endloop
  endfacet
  facet normal -1 0 0
    outer loop
      vertex 42.8 2.5 0
      vertex 42.8 20.5 1
      vertex 42.8 20.5 0
    endloop
  endfacet
  facet normal -1 -0 0
    outer loop
      vertex 42.8 20.5 1
      vertex 42.8 2.5 0
      vertex 42.8 2.5 1
    endloop
  endfacet
  facet normal 0 -1 0
    outer loop
      vertex 33.8 20.5 0
      vertex 42.8 20.5 1
      vertex 33.8 20.5 1
    endloop
  endfacet
  facet normal 0 -1 -0
    outer loop
      vertex 42.8 20.5 1
      vertex 33.8 20.5 0
      vertex 42.8 20.5 0
    endloop
  endfacet
  facet normal 0 1 -0
    outer loop
      vertex 42.8 2.5 0
      vertex 33.8 2.5 1
      vertex 42.8 2.5 1
    endloop
  endfacet
  facet normal 0 1 0
    outer loop
      vertex 33.8 2.5 1
      vertex 42.8 2.5 0
      vertex 33.8 2.5 0
    endloop
  endfacet
  facet normal -1 0 0
    outer loop
      vertex 0 0 0
      vertex 0 23 1
      vertex 0 23 0
    endloop
  endfacet
  facet normal -1 -0 0
    outer loop
      vertex 0 23 1
      vertex 0 0 0
      vertex 0 0 1
    endloop
  endfacet
  facet normal 0 0 1
    outer loop
      vertex 50 23 1
      vertex 42.8 20.5 1
      vertex 50 0 1
    endloop
  endfacet
  facet normal 0 0 1
    outer loop
      vertex 50 23 1
      vertex 33.8 20.5 1
      vertex 42.8 20.5 1
    endloop
  endfacet
  facet normal 0 0 1
    outer loop
      vertex 33.8 20.5 1
      vertex 30.8 20.5 1
      vertex 33.8 2.5 1
    endloop
  endfacet
  facet normal 0 0 1
    outer loop
      vertex 50 23 1
      vertex 30.8 20.5 1
      vertex 33.8 20.5 1
    endloop
  endfacet
  facet normal 0 0 1
    outer loop
      vertex 50 23 1
      vertex 24.8 20.5 1
      vertex 30.8 20.5 1
    endloop
  endfacet
  facet normal 0 0 1
    outer loop
      vertex 24.8 20.5 1
      vertex 21.8 20.5 1
      vertex 24.8 2.5 1
    endloop
  endfacet
  facet normal -0 0 1
    outer loop
      vertex 0 23 1
      vertex 24.8 20.5 1
      vertex 50 23 1
    endloop
  endfacet
  facet normal 0 0 1
    outer loop
      vertex 24.8 20.5 1
      vertex 0 23 1
      vertex 21.8 20.5 1
    endloop
  endfacet
  facet normal 0 0 1
    outer loop
      vertex 12.8 20.5 1
      vertex 9.8 20.5 1
      vertex 12.8 2.5 1
    endloop
  endfacet
  facet normal 0 0 1
    outer loop
      vertex 21.8 20.5 1
      vertex 0 23 1
      vertex 12.8 20.5 1
    endloop
  endfacet
  facet normal 0 0 1
    outer loop
      vertex 12.8 20.5 1
      vertex 0 23 1
      vertex 9.8 20.5 1
    endloop
  endfacet
  facet normal 0 0 1
    outer loop
      vertex 6.8 20.5 1
      vertex 0 23 1
      vertex 6.8 2.5 1
    endloop
  endfacet
  facet normal 0 0 1
    outer loop
      vertex 9.8 20.5 1
      vertex 0 23 1
      vertex 6.8 20.5 1
    endloop
  endfacet
  facet normal -0 0 1
    outer loop
      vertex 42.8 2.5 1
      vertex 50 0 1
      vertex 42.8 20.5 1
    endloop
  endfacet
  facet normal -0 0 1
    outer loop
      vertex 33.8 2.5 1
      vertex 50 0 1
      vertex 42.8 2.5 1
    endloop
  endfacet
  facet normal 0 0 1
    outer loop
      vertex 30.8 2.5 1
      vertex 33.8 2.5 1
      vertex 30.8 20.5 1
    endloop
  endfacet
  facet normal -0 0 1
    outer loop
      vertex 30.8 2.5 1
      vertex 50 0 1
      vertex 33.8 2.5 1
    endloop
  endfacet
  facet normal -0 0 1
    outer loop
      vertex 24.8 2.5 1
      vertex 50 0 1
      vertex 30.8 2.5 1
    endloop
  endfacet
  facet normal 0 0 1
    outer loop
      vertex 21.8 2.5 1
      vertex 24.8 2.5 1
      vertex 21.8 20.5 1
    endloop
  endfacet
  facet normal 0 0 1
    outer loop
      vertex 0 0 1
      vertex 24.8 2.5 1
      vertex 21.8 2.5 1
    endloop
  endfacet
  facet normal 0 0 1
    outer loop
      vertex 0 0 1
      vertex 21.8 2.5 1
      vertex 12.8 2.5 1
    endloop
  endfacet
  facet normal 0 0 1
    outer loop
      vertex 9.8 2.5 1
      vertex 12.8 2.5 1
      vertex 9.8 20.5 1
    endloop
  endfacet
  facet normal 0 0 1
    outer loop
      vertex 0 0 1
      vertex 12.8 2.5 1
      vertex 9.8 2.5 1
    endloop
  endfacet
  facet normal 0 0 1
    outer loop
      vertex 0 0 1
      vertex 9.8 2.5 1
      vertex 6.8 2.5 1
    endloop
  endfacet
  facet normal 0 0 1
    outer loop
      vertex 24.8 2.5 1
      vertex 0 0 1
      vertex 50 0 1
    endloop
  endfacet
  facet normal 0 0 1
    outer loop
      vertex 0 0 1
      vertex 6.8 2.5 1
      vertex 0 23 1
    endloop
  endfacet
  facet normal 1 -0 0
    outer loop
      vertex 50 0 1
      vertex 50 23 0
      vertex 50 23 1
    endloop
  endfacet
  facet normal 1 0 0
    outer loop
      vertex 50 23 0
      vertex 50 0 1
      vertex 50 0 0
    endloop
  endfacet
  facet normal 0 0 -1
    outer loop
      vertex 50 0 0
      vertex 42.8 2.5 0
      vertex 50 23 0
    endloop
  endfacet
  facet normal 0 0 -1
    outer loop
      vertex 50 0 0
      vertex 33.8 2.5 0
      vertex 42.8 2.5 0
    endloop
  endfacet
  facet normal 0 0 -1
    outer loop
      vertex 33.8 2.5 0
      vertex 30.8 2.5 0
      vertex 33.8 20.5 0
    endloop
  endfacet
  facet normal 0 0 -1
    outer loop
      vertex 50 0 0
      vertex 30.8 2.5 0
      vertex 33.8 2.5 0
    endloop
  endfacet
  facet normal 0 0 -1
    outer loop
      vertex 50 0 0
      vertex 24.8 2.5 0
      vertex 30.8 2.5 0
    endloop
  endfacet
  facet normal 0 0 -1
    outer loop
      vertex 24.8 2.5 0
      vertex 21.8 2.5 0
      vertex 24.8 20.5 0
    endloop
  endfacet
  facet normal 0 0 -1
    outer loop
      vertex 0 0 0
      vertex 24.8 2.5 0
      vertex 50 0 0
    endloop
  endfacet
  facet normal -0 0 -1
    outer loop
      vertex 24.8 2.5 0
      vertex 0 0 0
      vertex 21.8 2.5 0
    endloop
  endfacet
  facet normal 0 0 -1
    outer loop
      vertex 12.8 2.5 0
      vertex 9.8 2.5 0
      vertex 12.8 20.5 0
    endloop
  endfacet
  facet normal -0 0 -1
    outer loop
      vertex 21.8 2.5 0
      vertex 0 0 0
      vertex 12.8 2.5 0
    endloop
  endfacet
  facet normal -0 0 -1
    outer loop
      vertex 12.8 2.5 0
      vertex 0 0 0
      vertex 9.8 2.5 0
    endloop
  endfacet
  facet normal -0 0 -1
    outer loop
      vertex 6.8 2.5 0
      vertex 0 0 0
      vertex 6.8 20.5 0
    endloop
  endfacet
  facet normal -0 0 -1
    outer loop
      vertex 9.8 2.5 0
      vertex 0 0 0
      vertex 6.8 2.5 0
    endloop
  endfacet
  facet normal 0 0 -1
    outer loop
      vertex 42.8 20.5 0
      vertex 50 23 0
      vertex 42.8 2.5 0
    endloop
  endfacet
  facet normal 0 0 -1
    outer loop
      vertex 33.8 20.5 0
      vertex 50 23 0
      vertex 42.8 20.5 0
    endloop
  endfacet
  facet normal 0 0 -1
    outer loop
      vertex 30.8 20.5 0
      vertex 33.8 20.5 0
      vertex 30.8 2.5 0
    endloop
  endfacet
  facet normal 0 0 -1
    outer loop
      vertex 30.8 20.5 0
      vertex 50 23 0
      vertex 33.8 20.5 0
    endloop
  endfacet
  facet normal 0 0 -1
    outer loop
      vertex 24.8 20.5 0
      vertex 50 23 0
      vertex 30.8 20.5 0
    endloop
  endfacet
  facet normal 0 0 -1
    outer loop
      vertex 21.8 20.5 0
      vertex 24.8 20.5 0
      vertex 21.8 2.5 0
    endloop
  endfacet
  facet normal 0 0 -1
    outer loop
      vertex 0 23 0
      vertex 24.8 20.5 0
      vertex 21.8 20.5 0
    endloop
  endfacet
  facet normal 0 0 -1
    outer loop
      vertex 0 23 0
      vertex 21.8 20.5 0
      vertex 12.8 20.5 0
    endloop
  endfacet
  facet normal 0 0 -1
    outer loop
      vertex 9.8 20.5 0
      vertex 12.8 20.5 0
      vertex 9.8 2.5 0
    endloop
  endfacet
  facet normal 0 0 -1
    outer loop
      vertex 0 23 0
      vertex 12.8 20.5 0
      vertex 9.8 20.5 0
    endloop
  endfacet
  facet normal 0 0 -1
    outer loop
      vertex 0 23 0
      vertex 9.8 20.5 0
      vertex 6.8 20.5 0
    endloop
  endfacet
  facet normal 0 0 -1
    outer loop
      vertex 24.8 20.5 0
      vertex 0 23 0
      vertex 50 23 0
    endloop
  endfacet
  facet normal 0 0 -1
    outer loop
      vertex 0 23 0
      vertex 6.8 20.5 0
      vertex 0 0 0
    endloop
  endfacet
  facet normal 0 -1 0
    outer loop
      vertex 0 0 0
      vertex 50 0 1
      vertex 0 0 1
    endloop
  endfacet
  facet normal 0 -1 -0
    outer loop
      vertex 50 0 1
      vertex 0 0 0
      vertex 50 0 0
    endloop
  endfacet
  facet normal 0 1 -0
    outer loop
      vertex 50 23 0
      vertex 0 23 1
      vertex 50 23 1
    endloop
  endfacet
  facet normal 0 1 0
    outer loop
      vertex 0 23 1
      vertex 50 23 0
      vertex 0 23 0
    endloop
  endfacet
endsolid OpenSCAD_Model
