<?xml version="1.0" encoding="UTF-8" standalone="no"?>
<!DOCTYPE svg PUBLIC "-//W3C//DTD SVG 20010904//EN"
              "http://www.w3.org/TR/2001/REC-SVG-20010904/DTD/svg10.dtd">

<svg xmlns="http://www.w3.org/2000/svg"
     width="11.3333in" height="14.6667in"
     viewBox="0 0 816 1056">
  <path id="Selection"
        fill="none" stroke="black" stroke-width="1"
        d="M 284.96,241.48
           C 277.98,242.87 272.86,233.07 283.00,229.78
             292.63,230.32 290.73,240.32 284.96,241.48 Z
           M 242.00,232.00
           C 242.00,232.00 242.00,253.00 242.00,253.00
             244.36,251.38 246.33,249.91 249.00,248.79
             257.02,245.42 263.75,248.57 266.07,257.00
             267.64,262.68 267.00,281.94 267.00,289.00
             267.00,289.00 255.91,289.00 255.91,289.00
             255.91,289.00 255.91,267.00 255.91,267.00
             255.56,264.50 254.83,260.50 252.57,259.03
             249.13,256.78 243.98,259.67 242.60,263.09
             241.54,265.72 242.00,284.75 242.00,289.00
             242.00,289.00 231.00,289.00 231.00,289.00
             231.00,289.00 231.00,232.00 231.00,232.00
             231.00,232.00 242.00,232.00 242.00,232.00 Z
           M 222.00,236.00
           C 222.00,236.00 222.00,246.00 222.00,246.00
             222.00,246.00 208.00,246.00 208.00,246.00
             208.00,246.00 208.00,289.00 208.00,289.00
             208.00,289.00 196.00,289.00 196.00,289.00
             196.00,289.00 196.00,246.00 196.00,246.00
             196.00,246.00 182.00,246.00 182.00,246.00
             182.00,246.00 182.00,236.00 182.00,236.00
             182.00,236.00 222.00,236.00 222.00,236.00 Z
           M 316.09,278.70
           C 317.73,275.63 313.10,273.43 311.00,272.44
             304.22,269.22 299.27,266.63 300.11,258.00
             300.87,250.18 309.01,246.91 316.00,247.53
             318.88,247.78 325.64,249.10 326.68,252.22
             327.44,254.52 325.19,257.21 324.00,259.00
             324.00,259.00 319.00,257.18 319.00,257.18
             312.65,255.11 310.15,258.72 312.46,261.36
             315.26,264.56 326.16,265.37 328.31,274.00
             328.94,275.98 328.78,278.05 328.31,280.00
             324.16,293.33 307.17,290.08 298.00,285.00
             298.00,285.00 302.00,277.00 302.00,277.00
             305.16,278.36 313.63,283.30 316.09,278.70 Z
           M 289.00,248.00
           C 289.00,248.00 289.00,289.00 289.00,289.00
             289.00,289.00 278.00,289.00 278.00,289.00
             278.00,289.00 278.00,248.00 278.00,248.00
             278.00,248.00 289.00,248.00 289.00,248.00 Z
           M 329.72,343.10
           C 334.36,336.60 342.16,337.47 349.00,338.00
             349.00,338.00 347.07,345.40 347.07,345.40
             347.07,345.40 341.41,348.02 341.41,348.02
             341.41,348.02 338.00,355.00 338.00,355.00
             338.00,355.00 346.00,355.00 346.00,355.00
             346.00,355.00 346.00,365.00 346.00,365.00
             346.00,365.00 338.00,365.00 338.00,365.00
             338.00,365.00 338.00,396.00 338.00,396.00
             338.00,396.00 327.00,396.00 327.00,396.00
             327.00,396.00 327.00,365.00 327.00,365.00
             327.00,365.00 322.00,365.00 322.00,365.00
             322.00,365.00 322.00,356.00 322.00,356.00
             329.53,353.60 325.67,348.78 329.72,343.10 Z
           M 111.00,385.84
           C 114.23,385.43 118.15,382.88 116.12,379.21
             114.61,376.50 108.83,374.52 106.00,373.28
             97.53,369.58 92.49,366.00 93.04,356.00
             93.96,339.48 118.50,337.15 128.00,349.00
             128.00,349.00 123.00,355.00 123.00,355.00
             123.00,355.00 116.00,352.63 116.00,352.63
             108.82,350.68 102.80,354.15 106.42,358.78
             110.65,364.19 125.91,364.03 128.93,376.00
             131.98,388.06 122.21,395.88 111.00,396.40
             103.23,396.77 97.33,394.11 91.00,390.00
             91.00,390.00 98.00,381.00 98.00,381.00
             101.79,383.70 106.10,386.46 111.00,385.84 Z
           M 162.00,354.73
           C 181.29,355.46 181.60,393.17 162.00,396.23
             157.38,396.95 154.03,394.85 150.00,393.00
             150.00,393.00 150.00,411.00 150.00,411.00
             150.00,411.00 139.00,411.00 139.00,411.00
             139.00,411.00 139.00,355.00 139.00,355.00
             139.00,355.00 148.00,355.00 148.00,355.00
             148.00,355.00 149.00,359.00 149.00,359.00
             153.46,356.87 156.81,354.53 162.00,354.73 Z
           M 195.00,355.29
           C 197.49,354.76 200.46,354.29 203.00,354.53
             217.83,355.90 217.00,367.67 217.00,379.00
             217.00,379.00 217.00,396.00 217.00,396.00
             217.00,396.00 208.00,396.00 208.00,396.00
             208.00,396.00 207.00,392.00 207.00,392.00
             202.09,394.35 197.76,397.30 192.00,395.97
             183.73,394.06 180.40,383.70 185.65,377.21
             189.87,372.00 199.63,370.29 206.00,370.00
             200.81,360.67 196.12,364.81 188.00,367.00
             188.00,367.00 185.00,359.00 185.00,359.00
             188.66,357.28 190.97,356.13 195.00,355.29 Z
           M 245.00,396.47
           C 220.23,394.30 220.44,356.69 246.00,354.53
             250.21,354.17 261.15,356.51 255.41,362.67
             253.28,364.96 251.62,364.28 249.00,364.37
             243.60,364.56 239.33,368.67 238.57,374.00
             237.74,379.76 241.74,386.48 248.00,386.58
             250.00,386.61 252.98,385.52 255.00,385.00
             255.00,385.00 259.00,392.00 259.00,392.00
             254.61,395.09 250.52,396.96 245.00,396.47 Z
           M 282.00,396.54
           C 278.39,396.42 274.03,395.02 271.02,393.03
             260.32,385.99 260.13,366.31 270.04,358.56
             278.39,352.02 292.07,353.52 296.39,364.00
             297.74,367.29 297.96,370.50 298.00,374.00
             298.00,374.00 298.00,379.00 298.00,379.00
             298.00,379.00 274.00,379.00 274.00,379.00
             275.34,382.89 276.80,385.36 281.00,386.62
             288.32,388.82 293.29,382.20 296.00,393.00
             291.41,394.93 287.12,396.72 282.00,396.54 Z
           M 383.67,360.21
           C 388.44,365.13 389.14,370.49 388.99,377.00
             388.73,387.63 381.91,395.73 371.00,396.39
             357.17,397.23 350.71,386.39 351.01,374.00
             351.11,369.95 351.77,366.49 353.99,363.02
             357.48,357.55 362.84,355.43 369.00,354.61
             374.49,354.67 379.73,356.15 383.67,360.21 Z
           M 426.00,355.00
           C 426.00,355.00 424.00,365.00 424.00,365.00
             414.27,365.24 410.14,369.10 410.00,379.00
             410.00,379.00 410.00,396.00 410.00,396.00
             410.00,396.00 399.00,396.00 399.00,396.00
             399.00,396.00 399.00,355.00 399.00,355.00
             399.00,355.00 408.00,355.00 408.00,355.00
             408.00,355.00 409.00,362.00 409.00,362.00
             409.00,362.00 411.00,362.00 411.00,362.00
             414.79,355.30 418.63,354.02 426.00,355.00 Z
           M 273.00,371.00
           C 273.00,371.00 289.00,371.00 289.00,371.00
             286.17,360.24 276.84,361.63 273.00,371.00 Z
           M 150.99,367.53
           C 150.16,368.80 146.47,389.01 158.00,386.53
             167.00,384.59 168.53,363.95 156.00,364.46
             153.96,365.16 152.29,365.57 150.99,367.53 Z
           M 362.19,377.00
           C 362.63,382.07 365.67,388.66 371.96,386.39
             379.84,383.54 380.68,363.46 368.09,364.45
             363.01,366.71 361.72,371.71 362.19,377.00 Z
           M 200.00,377.94
           C 199.06,378.23 197.98,378.60 197.15,379.14
             188.29,384.84 201.99,391.42 205.40,382.94
             206.07,381.30 205.98,378.78 206.00,377.00
             203.97,377.17 201.97,377.34 200.00,377.94 Z
           M 208.98,452.36
           C 219.21,458.36 218.50,475.51 207.00,481.00
             207.00,481.00 218.00,503.00 218.00,503.00
             214.60,503.00 208.24,503.68 205.63,501.40
             197.85,494.61 201.96,484.18 188.00,484.00
             188.00,484.00 188.00,503.00 188.00,503.00
             188.00,503.00 177.00,503.00 177.00,503.00
             177.00,503.00 177.00,449.00 177.00,449.00
             185.64,449.00 201.67,448.07 208.98,452.36 Z
           M 319.27,458.89
           C 320.22,456.76 319.84,453.53 321.74,451.99
             323.37,450.68 327.90,451.00 330.00,451.00
             330.00,451.00 330.00,462.00 330.00,462.00
             330.00,462.00 340.00,462.00 340.00,462.00
             340.00,462.00 340.00,472.00 340.00,472.00
             340.00,472.00 330.00,472.00 330.00,472.00
             330.00,472.00 331.17,490.85 331.17,490.85
             331.17,490.85 338.27,494.99 338.27,494.99
             338.27,494.99 341.00,502.00 341.00,502.00
             338.71,502.75 336.43,503.47 334.00,503.62
             315.07,504.81 319.00,484.37 319.00,472.00
             319.00,472.00 313.00,472.00 313.00,472.00
             313.00,472.00 313.00,463.00 313.00,463.00
             315.99,462.35 317.89,461.98 319.27,458.89 Z
           M 200.89,472.83
           C 205.59,470.18 206.29,463.00 201.77,460.31
             198.81,458.55 191.59,459.00 188.00,459.00
             188.00,459.00 188.00,474.00 188.00,474.00
             191.44,474.00 198.01,474.45 200.89,472.83 Z
           M 243.00,503.54
           C 239.39,503.42 235.03,502.02 232.02,500.03
             221.32,492.99 221.13,473.31 231.04,465.56
             239.39,459.02 253.07,460.52 257.39,471.00
             258.74,474.29 258.96,477.50 259.00,481.00
             259.00,481.00 259.00,486.00 259.00,486.00
             259.00,486.00 235.00,486.00 235.00,486.00
             236.34,489.89 237.80,492.36 242.00,493.62
             249.32,495.82 254.29,489.20 257.00,500.00
             252.41,501.93 248.12,503.72 243.00,503.54 Z
           M 291.00,461.80
           C 298.24,460.19 303.20,464.20 305.07,471.00
             306.64,476.68 306.00,495.94 306.00,503.00
             306.00,503.00 294.91,503.00 294.91,503.00
             294.91,503.00 294.91,481.00 294.91,481.00
             294.56,478.50 293.83,474.50 291.57,473.03
             288.13,470.78 282.98,473.67 281.60,477.09
             280.54,479.72 281.00,498.75 281.00,503.00
             281.00,503.00 270.00,503.00 270.00,503.00
             270.00,503.00 270.00,462.00 270.00,462.00
             270.00,462.00 279.00,462.00 279.00,462.00
             279.00,462.00 280.00,467.00 280.00,467.00
             283.51,465.23 287.18,462.65 291.00,461.80 Z
           M 234.00,478.00
           C 234.00,478.00 250.00,478.00 250.00,478.00
             247.17,467.24 237.84,468.63 234.00,478.00 Z" />
</svg>
