<?xml version="1.0" encoding="UTF-8" standalone="no"?>
<!DOCTYPE svg PUBLIC "-//W3C//DTD SVG 20010904//EN"
              "http://www.w3.org/TR/2001/REC-SVG-20010904/DTD/svg10.dtd">

<svg xmlns="http://www.w3.org/2000/svg"
     width="2.08333in" height="2.08333in"
     viewBox="0 0 150 150">
  <path id="Selection"
        fill="none" stroke="black" stroke-width="1"
        d="M 42.09,30.09
           C 61.32,10.86 96.15,12.49 112.21,35.00
             117.51,42.42 118.97,53.06 119.00,62.00
             119.00,62.00 92.00,54.44 92.00,54.44
             70.10,51.00 51.20,54.31 31.00,63.00
             32.03,50.31 32.55,39.63 42.09,30.09 Z
           M 96.00,76.93
           C 98.56,78.51 105.88,81.23 107.01,82.70
             111.47,88.51 104.95,100.17 99.00,101.66
             95.87,102.45 93.00,98.92 91.00,97.01
             87.18,93.36 81.52,87.48 76.00,87.15
             69.54,86.76 63.42,92.64 59.28,97.03
             57.12,99.33 54.69,103.13 51.00,101.83
             45.40,99.86 39.40,89.04 43.02,83.28
             44.87,80.33 48.61,80.49 53.00,77.87
             60.60,73.34 63.70,67.39 71.00,63.73
             83.98,60.63 86.44,71.04 96.00,76.93 Z
           M 23.04,108.00
           C 21.58,104.89 23.13,102.08 23.78,99.00
             25.59,90.54 26.75,91.42 28.14,86.00
             29.89,79.18 27.59,73.80 35.00,70.00
             36.36,72.40 38.74,76.18 38.48,79.00
             38.09,83.18 33.24,85.82 32.90,90.00
             32.53,94.56 40.83,103.85 44.09,106.81
             46.09,108.62 48.16,110.25 51.00,109.41
             56.96,107.65 63.73,96.01 74.00,95.22
             81.35,94.66 86.87,99.67 92.00,104.15
             94.26,106.13 97.76,109.83 101.00,109.61
             104.34,109.38 109.65,103.50 111.79,101.00
             113.42,99.09 116.07,95.35 116.89,93.00
             119.04,86.76 112.83,84.62 111.73,80.00
             111.05,77.15 113.80,72.70 115.00,70.00
             117.55,70.92 119.09,71.38 120.26,74.11
             120.26,74.11 122.26,87.00 122.26,87.00
             123.77,92.74 129.79,101.51 127.39,107.83
             126.33,110.60 122.29,113.40 120.09,115.43
             116.99,118.28 114.40,121.55 112.00,125.00
             112.00,125.00 113.00,126.00 113.00,126.00
             113.00,126.00 123.00,118.00 123.00,118.00
             120.01,122.72 114.49,130.84 109.00,132.49
             102.06,134.58 95.48,130.63 89.00,128.92
             89.00,128.92 78.00,127.17 78.00,127.17
             73.15,126.71 64.63,127.87 60.00,129.36
             53.68,131.39 46.67,135.05 40.00,131.84
             35.15,129.50 30.93,123.39 28.00,119.00
             28.00,119.00 38.00,125.00 38.00,125.00
             30.34,113.57 25.21,112.61 23.04,108.00 Z
           M 29.00,99.00
           C 29.00,99.00 36.00,109.00 36.00,109.00
             36.00,109.00 41.00,108.00 41.00,108.00
             38.71,103.02 34.88,98.28 29.00,99.00 Z
           M 109.00,108.00
           C 109.00,108.00 114.00,109.00 114.00,109.00
             114.00,109.00 122.00,99.00 122.00,99.00
             115.88,97.74 111.70,102.98 109.00,108.00 Z
           M 28.00,118.00
           C 28.00,118.00 25.00,115.00 25.00,115.00
             25.00,115.00 28.00,118.00 28.00,118.00 Z
           M 106.78,126.21
           C 110.64,124.80 111.47,117.03 104.05,116.74
             96.54,120.85 102.20,127.87 106.78,126.21 Z" />
</svg>
